<?xml version="1.0" encoding="utf-8" standalone="no"?>
<!DOCTYPE svg PUBLIC "-//W3C//DTD SVG 1.1//EN"
  "http://www.w3.org/Graphics/SVG/1.1/DTD/svg11.dtd">
<svg xmlns:xlink="http://www.w3.org/1999/xlink" width="720pt" height="360pt" viewBox="0 0 720 360" xmlns="http://www.w3.org/2000/svg" version="1.1">
 <metadata>
  <rdf:RDF xmlns:dc="http://purl.org/dc/elements/1.1/" xmlns:cc="http://creativecommons.org/ns#" xmlns:rdf="http://www.w3.org/1999/02/22-rdf-syntax-ns#">
   <cc:Work>
    <dc:type rdf:resource="http://purl.org/dc/dcmitype/StillImage"/>
    <dc:date>2023-11-30T21:30:52.414030</dc:date>
    <dc:format>image/svg+xml</dc:format>
    <dc:creator>
     <cc:Agent>
      <dc:title>Matplotlib v3.8.1, https://matplotlib.org/</dc:title>
     </cc:Agent>
    </dc:creator>
   </cc:Work>
  </rdf:RDF>
 </metadata>
 <defs>
  <style type="text/css">*{stroke-linejoin: round; stroke-linecap: butt}</style>
 </defs>
 <g id="figure_1">
  <g id="patch_1">
   <path d="M 0 360 
L 720 360 
L 720 0 
L 0 0 
z
" style="fill: #ffffff"/>
  </g>
  <g id="axes_1">
   <g id="patch_2">
    <path d="M 148.473391 320.4 
L 148.473391 43.2 
L 589.526609 43.2 
L 589.526609 320.4 
L 148.473391 320.4 
" style="fill: #ffffff"/>
   </g>
   <g id="line2d_1">
    <defs>
     <path id="ma85fd8413a" d="M 0 7.159236 
C 1.898652 7.159236 3.719795 6.404894 5.062344 5.062344 
C 6.404894 3.719795 7.159236 1.898652 7.159236 0 
C 7.159236 -1.898652 6.404894 -3.719795 5.062344 -5.062344 
C 3.719795 -6.404894 1.898652 -7.159236 0 -7.159236 
C -1.898652 -7.159236 -3.719795 -6.404894 -5.062344 -5.062344 
C -6.404894 -3.719795 -7.159236 -1.898652 -7.159236 0 
C -7.159236 1.898652 -6.404894 3.719795 -5.062344 5.062344 
C -3.719795 6.404894 -1.898652 7.159236 0 7.159236 
z
" style="stroke: #000000"/>
    </defs>
    <g clip-path="url(#pdd5e1996c2)">
     <use xlink:href="#ma85fd8413a" x="227.373863" y="211.951813" style="stroke: #000000"/>
    </g>
   </g>
   <g id="line2d_2">
    <defs>
     <path id="mf8d69aab6e" d="M 0 6.97628 
C 1.850131 6.97628 3.624734 6.241215 4.932975 4.932975 
C 6.241215 3.624734 6.97628 1.850131 6.97628 0 
C 6.97628 -1.850131 6.241215 -3.624734 4.932975 -4.932975 
C 3.624734 -6.241215 1.850131 -6.97628 0 -6.97628 
C -1.850131 -6.97628 -3.624734 -6.241215 -4.932975 -4.932975 
C -6.241215 -3.624734 -6.97628 -1.850131 -6.97628 0 
C -6.97628 1.850131 -6.241215 3.624734 -4.932975 4.932975 
C -3.624734 6.241215 -1.850131 6.97628 0 6.97628 
z
" style="stroke: #000000"/>
    </defs>
    <g clip-path="url(#pdd5e1996c2)">
     <use xlink:href="#mf8d69aab6e" x="248.381149" y="213.039648" style="stroke: #000000"/>
    </g>
   </g>
   <g id="line2d_3">
    <defs>
     <path id="md2122af208" d="M 0 6.72715 
C 1.784061 6.72715 3.495292 6.018335 4.756813 4.756813 
C 6.018335 3.495292 6.72715 1.784061 6.72715 0 
C 6.72715 -1.784061 6.018335 -3.495292 4.756813 -4.756813 
C 3.495292 -6.018335 1.784061 -6.72715 0 -6.72715 
C -1.784061 -6.72715 -3.495292 -6.018335 -4.756813 -4.756813 
C -6.018335 -3.495292 -6.72715 -1.784061 -6.72715 0 
C -6.72715 1.784061 -6.018335 3.495292 -4.756813 4.756813 
C -3.495292 6.018335 -1.784061 6.72715 0 6.72715 
z
" style="stroke: #000000"/>
    </defs>
    <g clip-path="url(#pdd5e1996c2)">
     <use xlink:href="#md2122af208" x="322.429823" y="153.304505" style="stroke: #000000"/>
    </g>
   </g>
   <g id="line2d_4">
    <defs>
     <path id="m028b74b8f4" d="M 0 6.484963 
C 1.719832 6.484963 3.369456 5.801666 4.585561 4.585561 
C 5.801666 3.369456 6.484963 1.719832 6.484963 0 
C 6.484963 -1.719832 5.801666 -3.369456 4.585561 -4.585561 
C 3.369456 -5.801666 1.719832 -6.484963 0 -6.484963 
C -1.719832 -6.484963 -3.369456 -5.801666 -4.585561 -4.585561 
C -5.801666 -3.369456 -6.484963 -1.719832 -6.484963 0 
C -6.484963 1.719832 -5.801666 3.369456 -4.585561 4.585561 
C -3.369456 5.801666 -1.719832 6.484963 0 6.484963 
z
" style="stroke: #000000"/>
    </defs>
    <g clip-path="url(#pdd5e1996c2)">
     <use xlink:href="#m028b74b8f4" x="179.4032" y="307.8" style="stroke: #000000"/>
    </g>
   </g>
   <g id="line2d_5">
    <defs>
     <path id="m3fb5587415" d="M 0 6.408092 
C 1.699446 6.408092 3.329516 5.732895 4.531205 4.531205 
C 5.732895 3.329516 6.408092 1.699446 6.408092 0 
C 6.408092 -1.699446 5.732895 -3.329516 4.531205 -4.531205 
C 3.329516 -5.732895 1.699446 -6.408092 0 -6.408092 
C -1.699446 -6.408092 -3.329516 -5.732895 -4.531205 -4.531205 
C -5.732895 -3.329516 -6.408092 -1.699446 -6.408092 0 
C -6.408092 1.699446 -5.732895 3.329516 -4.531205 4.531205 
C -3.329516 5.732895 -1.699446 6.408092 0 6.408092 
z
" style="stroke: #000000"/>
    </defs>
    <g clip-path="url(#pdd5e1996c2)">
     <use xlink:href="#m3fb5587415" x="217.296804" y="130.992252" style="stroke: #000000"/>
    </g>
   </g>
   <g id="line2d_6">
    <defs>
     <path id="m483dd42efd" d="M 0 5.842593 
C 1.549474 5.842593 3.035694 5.226981 4.131337 4.131337 
C 5.226981 3.035694 5.842593 1.549474 5.842593 0 
C 5.842593 -1.549474 5.226981 -3.035694 4.131337 -4.131337 
C 3.035694 -5.226981 1.549474 -5.842593 0 -5.842593 
C -1.549474 -5.842593 -3.035694 -5.226981 -4.131337 -4.131337 
C -5.226981 -3.035694 -5.842593 -1.549474 -5.842593 0 
C -5.842593 1.549474 -5.226981 3.035694 -4.131337 4.131337 
C -3.035694 5.226981 -1.549474 5.842593 0 5.842593 
z
" style="stroke: #000000"/>
    </defs>
    <g clip-path="url(#pdd5e1996c2)">
     <use xlink:href="#m483dd42efd" x="350.471734" y="81.761635" style="stroke: #000000"/>
    </g>
   </g>
   <g id="line2d_7">
    <defs>
     <path id="mc9b0920092" d="M 0 5.791306 
C 1.535872 5.791306 3.009046 5.181098 4.095072 4.095072 
C 5.181098 3.009046 5.791306 1.535872 5.791306 0 
C 5.791306 -1.535872 5.181098 -3.009046 4.095072 -4.095072 
C 3.009046 -5.181098 1.535872 -5.791306 0 -5.791306 
C -1.535872 -5.791306 -3.009046 -5.181098 -4.095072 -4.095072 
C -5.181098 -3.009046 -5.791306 -1.535872 -5.791306 0 
C -5.791306 1.535872 -5.181098 3.009046 -4.095072 4.095072 
C -3.009046 5.181098 -1.535872 5.791306 0 5.791306 
z
" style="stroke: #000000"/>
    </defs>
    <g clip-path="url(#pdd5e1996c2)">
     <use xlink:href="#mc9b0920092" x="246.851883" y="106.520719" style="stroke: #000000"/>
    </g>
   </g>
   <g id="line2d_8">
    <defs>
     <path id="mc92161ad41" d="M 0 5.603507 
C 1.486067 5.603507 2.91147 5.013086 3.962278 3.962278 
C 5.013086 2.91147 5.603507 1.486067 5.603507 0 
C 5.603507 -1.486067 5.013086 -2.91147 3.962278 -3.962278 
C 2.91147 -5.013086 1.486067 -5.603507 0 -5.603507 
C -1.486067 -5.603507 -2.91147 -5.013086 -3.962278 -3.962278 
C -5.013086 -2.91147 -5.603507 -1.486067 -5.603507 0 
C -5.603507 1.486067 -5.013086 2.91147 -3.962278 3.962278 
C -2.91147 5.013086 -1.486067 5.603507 0 5.603507 
z
" style="stroke: #000000"/>
    </defs>
    <g clip-path="url(#pdd5e1996c2)">
     <use xlink:href="#mc92161ad41" x="569.478736" y="135.825072" style="stroke: #000000"/>
    </g>
   </g>
   <g id="line2d_9">
    <defs>
     <path id="m76a2b8d91d" d="M 0 5.235838 
C 1.38856 5.235838 2.720436 4.684157 3.702296 3.702296 
C 4.684157 2.720436 5.235838 1.38856 5.235838 0 
C 5.235838 -1.38856 4.684157 -2.720436 3.702296 -3.702296 
C 2.720436 -4.684157 1.38856 -5.235838 0 -5.235838 
C -1.38856 -5.235838 -2.720436 -4.684157 -3.702296 -3.702296 
C -4.684157 -2.720436 -5.235838 -1.38856 -5.235838 0 
C -5.235838 1.38856 -4.684157 2.720436 -3.702296 3.702296 
C -2.720436 4.684157 -1.38856 5.235838 0 5.235838 
z
" style="stroke: #000000"/>
    </defs>
    <g clip-path="url(#pdd5e1996c2)">
     <use xlink:href="#m76a2b8d91d" x="168.521264" y="72.070166" style="stroke: #000000"/>
    </g>
   </g>
   <g id="line2d_10">
    <defs>
     <path id="me86e3511c2" d="M 0 5.020145 
C 1.331358 5.020145 2.608366 4.491191 3.549778 3.549778 
C 4.491191 2.608366 5.020145 1.331358 5.020145 0 
C 5.020145 -1.331358 4.491191 -2.608366 3.549778 -3.549778 
C 2.608366 -4.491191 1.331358 -5.020145 0 -5.020145 
C -1.331358 -5.020145 -2.608366 -4.491191 -3.549778 -3.549778 
C -4.491191 -2.608366 -5.020145 -1.331358 -5.020145 0 
C -5.020145 1.331358 -4.491191 2.608366 -3.549778 3.549778 
C -2.608366 4.491191 -1.331358 5.020145 0 5.020145 
z
" style="stroke: #000000"/>
    </defs>
    <g clip-path="url(#pdd5e1996c2)">
     <use xlink:href="#me86e3511c2" x="440.714531" y="55.8" style="stroke: #000000"/>
    </g>
   </g>
  </g>
 </g>
 <defs>
  <clipPath id="pdd5e1996c2">
   <path d="M 148.473391 320.4 
L 148.473391 43.2 
L 589.526609 43.2 
L 589.526609 320.4 
L 148.473391 320.4 
"/>
  </clipPath>
 </defs>
</svg>
