<?xml version="1.0" encoding="utf-8" standalone="no"?>
<!DOCTYPE svg PUBLIC "-//W3C//DTD SVG 1.1//EN"
  "http://www.w3.org/Graphics/SVG/1.1/DTD/svg11.dtd">
<svg xmlns:xlink="http://www.w3.org/1999/xlink" width="720pt" height="360pt" viewBox="0 0 720 360" xmlns="http://www.w3.org/2000/svg" version="1.1">
 <metadata>
  <rdf:RDF xmlns:dc="http://purl.org/dc/elements/1.1/" xmlns:cc="http://creativecommons.org/ns#" xmlns:rdf="http://www.w3.org/1999/02/22-rdf-syntax-ns#">
   <cc:Work>
    <dc:type rdf:resource="http://purl.org/dc/dcmitype/StillImage"/>
    <dc:date>2023-11-30T21:30:47.173363</dc:date>
    <dc:format>image/svg+xml</dc:format>
    <dc:creator>
     <cc:Agent>
      <dc:title>Matplotlib v3.8.1, https://matplotlib.org/</dc:title>
     </cc:Agent>
    </dc:creator>
   </cc:Work>
  </rdf:RDF>
 </metadata>
 <defs>
  <style type="text/css">*{stroke-linejoin: round; stroke-linecap: butt}</style>
 </defs>
 <g id="figure_1">
  <g id="patch_1">
   <path d="M 0 360 
L 720 360 
L 720 0 
L 0 0 
z
" style="fill: #ffffff"/>
  </g>
  <g id="axes_1">
   <g id="patch_2">
    <path d="M 215.288015 320.4 
L 215.288015 43.2 
L 522.711985 43.2 
L 522.711985 320.4 
L 215.288015 320.4 
" style="fill: #ffffff"/>
   </g>
   <g id="line2d_1">
    <defs>
     <path id="mff57a7565f" d="M 0 10.864976 
C 2.881425 10.864976 5.645223 9.720173 7.682698 7.682698 
C 9.720173 5.645223 10.864976 2.881425 10.864976 0 
C 10.864976 -2.881425 9.720173 -5.645223 7.682698 -7.682698 
C 5.645223 -9.720173 2.881425 -10.864976 0 -10.864976 
C -2.881425 -10.864976 -5.645223 -9.720173 -7.682698 -7.682698 
C -9.720173 -5.645223 -10.864976 -2.881425 -10.864976 0 
C -10.864976 2.881425 -9.720173 5.645223 -7.682698 7.682698 
C -5.645223 9.720173 -2.881425 10.864976 0 10.864976 
z
" style="stroke: #000000"/>
    </defs>
    <g clip-path="url(#p8686054a47)">
     <use xlink:href="#mff57a7565f" x="360.3884" y="168.544105" style="stroke: #000000"/>
    </g>
   </g>
   <g id="line2d_2">
    <defs>
     <path id="m2ef376363f" d="M 0 10.392583 
C 2.756145 10.392583 5.399777 9.297555 7.348666 7.348666 
C 9.297555 5.399777 10.392583 2.756145 10.392583 0 
C 10.392583 -2.756145 9.297555 -5.399777 7.348666 -7.348666 
C 5.399777 -9.297555 2.756145 -10.392583 0 -10.392583 
C -2.756145 -10.392583 -5.399777 -9.297555 -7.348666 -7.348666 
C -9.297555 -5.399777 -10.392583 -2.756145 -10.392583 0 
C -10.392583 2.756145 -9.297555 5.399777 -7.348666 7.348666 
C -5.399777 9.297555 -2.756145 10.392583 0 10.392583 
z
" style="stroke: #000000"/>
    </defs>
    <g clip-path="url(#p8686054a47)">
     <use xlink:href="#m2ef376363f" x="229.261832" y="267.095541" style="stroke: #000000"/>
    </g>
   </g>
   <g id="line2d_3">
    <defs>
     <path id="mfbafb1cfbe" d="M 0 10.140891 
C 2.689396 10.140891 5.269003 9.072383 7.170693 7.170693 
C 9.072383 5.269003 10.140891 2.689396 10.140891 0 
C 10.140891 -2.689396 9.072383 -5.269003 7.170693 -7.170693 
C 5.269003 -9.072383 2.689396 -10.140891 0 -10.140891 
C -2.689396 -10.140891 -5.269003 -9.072383 -7.170693 -7.170693 
C -9.072383 -5.269003 -10.140891 -2.689396 -10.140891 0 
C -10.140891 2.689396 -9.072383 5.269003 -7.170693 7.170693 
C -5.269003 9.072383 -2.689396 10.140891 0 10.140891 
z
" style="stroke: #000000"/>
    </defs>
    <g clip-path="url(#p8686054a47)">
     <use xlink:href="#mfbafb1cfbe" x="375.162436" y="127.448667" style="stroke: #000000"/>
    </g>
   </g>
   <g id="line2d_4">
    <defs>
     <path id="mc13b510d1a" d="M 0 9.845787 
C 2.611133 9.845787 5.115673 8.808372 6.962022 6.962022 
C 8.808372 5.115673 9.845787 2.611133 9.845787 0 
C 9.845787 -2.611133 8.808372 -5.115673 6.962022 -6.962022 
C 5.115673 -8.808372 2.611133 -9.845787 0 -9.845787 
C -2.611133 -9.845787 -5.115673 -8.808372 -6.962022 -6.962022 
C -8.808372 -5.115673 -9.845787 -2.611133 -9.845787 0 
C -9.845787 2.611133 -8.808372 5.115673 -6.962022 6.962022 
C -5.115673 8.808372 -2.611133 9.845787 0 9.845787 
z
" style="stroke: #000000"/>
    </defs>
    <g clip-path="url(#p8686054a47)">
     <use xlink:href="#mc13b510d1a" x="425.252437" y="307.8" style="stroke: #000000"/>
    </g>
   </g>
   <g id="line2d_5">
    <defs>
     <path id="m82959553b4" d="M 0 9.451264 
C 2.506505 9.451264 4.910687 8.455419 6.683053 6.683053 
C 8.455419 4.910687 9.451264 2.506505 9.451264 0 
C 9.451264 -2.506505 8.455419 -4.910687 6.683053 -6.683053 
C 4.910687 -8.455419 2.506505 -9.451264 0 -9.451264 
C -2.506505 -9.451264 -4.910687 -8.455419 -6.683053 -6.683053 
C -8.455419 -4.910687 -9.451264 -2.506505 -9.451264 0 
C -9.451264 2.506505 -8.455419 4.910687 -6.683053 6.683053 
C -4.910687 8.455419 -2.506505 9.451264 0 9.451264 
z
" style="stroke: #000000"/>
    </defs>
    <g clip-path="url(#p8686054a47)">
     <use xlink:href="#m82959553b4" x="384.75212" y="117.260579" style="stroke: #000000"/>
    </g>
   </g>
   <g id="line2d_6">
    <defs>
     <path id="mf2aa673eb2" d="M 0 9.212493 
C 2.443182 9.212493 4.786626 8.241807 6.514216 6.514216 
C 8.241807 4.786626 9.212493 2.443182 9.212493 0 
C 9.212493 -2.443182 8.241807 -4.786626 6.514216 -6.514216 
C 4.786626 -8.241807 2.443182 -9.212493 0 -9.212493 
C -2.443182 -9.212493 -4.786626 -8.241807 -6.514216 -6.514216 
C -8.241807 -4.786626 -9.212493 -2.443182 -9.212493 0 
C -9.212493 2.443182 -8.241807 4.786626 -6.514216 6.514216 
C -4.786626 8.241807 -2.443182 9.212493 0 9.212493 
z
" style="stroke: #000000"/>
    </defs>
    <g clip-path="url(#p8686054a47)">
     <use xlink:href="#mf2aa673eb2" x="451.503335" y="55.8" style="stroke: #000000"/>
    </g>
   </g>
   <g id="line2d_7">
    <defs>
     <path id="m10cb045601" d="M 0 8.946313 
C 2.37259 8.946313 4.648324 8.003673 6.325999 6.325999 
C 8.003673 4.648324 8.946313 2.37259 8.946313 0 
C 8.946313 -2.37259 8.003673 -4.648324 6.325999 -6.325999 
C 4.648324 -8.003673 2.37259 -8.946313 0 -8.946313 
C -2.37259 -8.946313 -4.648324 -8.003673 -6.325999 -6.325999 
C -8.003673 -4.648324 -8.946313 -2.37259 -8.946313 0 
C -8.946313 2.37259 -8.003673 4.648324 -6.325999 6.325999 
C -4.648324 8.003673 -2.37259 8.946313 0 8.946313 
z
" style="stroke: #000000"/>
    </defs>
    <g clip-path="url(#p8686054a47)">
     <use xlink:href="#m10cb045601" x="241.580954" y="281.574724" style="stroke: #000000"/>
    </g>
   </g>
   <g id="line2d_8">
    <defs>
     <path id="m92dc07df63" d="M 0 8.200315 
C 2.174749 8.200315 4.260718 7.336278 5.798498 5.798498 
C 7.336278 4.260718 8.200315 2.174749 8.200315 0 
C 8.200315 -2.174749 7.336278 -4.260718 5.798498 -5.798498 
C 4.260718 -7.336278 2.174749 -8.200315 0 -8.200315 
C -2.174749 -8.200315 -4.260718 -7.336278 -5.798498 -5.798498 
C -7.336278 -4.260718 -8.200315 -2.174749 -8.200315 0 
C -8.200315 2.174749 -7.336278 4.260718 -5.798498 5.798498 
C -4.260718 7.336278 -2.174749 8.200315 0 8.200315 
z
" style="stroke: #000000"/>
    </defs>
    <g clip-path="url(#p8686054a47)">
     <use xlink:href="#m92dc07df63" x="508.738168" y="162.363023" style="stroke: #000000"/>
    </g>
   </g>
   <g id="line2d_9">
    <defs>
     <path id="mef50083f60" d="M 0 8.190763 
C 2.172216 8.190763 4.255756 7.327733 5.791744 5.791744 
C 7.327733 4.255756 8.190763 2.172216 8.190763 0 
C 8.190763 -2.172216 7.327733 -4.255756 5.791744 -5.791744 
C 4.255756 -7.327733 2.172216 -8.190763 0 -8.190763 
C -2.172216 -8.190763 -4.255756 -7.327733 -5.791744 -5.791744 
C -7.327733 -4.255756 -8.190763 -2.172216 -8.190763 0 
C -8.190763 2.172216 -7.327733 4.255756 -5.791744 5.791744 
C -4.255756 7.327733 -2.172216 8.190763 0 8.190763 
z
" style="stroke: #000000"/>
    </defs>
    <g clip-path="url(#p8686054a47)">
     <use xlink:href="#mef50083f60" x="259.163479" y="271.06759" style="stroke: #000000"/>
    </g>
   </g>
   <g id="line2d_10">
    <defs>
     <path id="mb745334cf9" d="M 0 8.164399 
C 2.165224 8.164399 4.242057 7.304146 5.773102 5.773102 
C 7.304146 4.242057 8.164399 2.165224 8.164399 0 
C 8.164399 -2.165224 7.304146 -4.242057 5.773102 -5.773102 
C 4.242057 -7.304146 2.165224 -8.164399 0 -8.164399 
C -2.165224 -8.164399 -4.242057 -7.304146 -5.773102 -5.773102 
C -7.304146 -4.242057 -8.164399 -2.165224 -8.164399 0 
C -8.164399 2.165224 -7.304146 4.242057 -5.773102 5.773102 
C -4.242057 7.304146 -2.165224 8.164399 0 8.164399 
z
" style="stroke: #000000"/>
    </defs>
    <g clip-path="url(#p8686054a47)">
     <use xlink:href="#mb745334cf9" x="495.26058" y="157.882224" style="stroke: #000000"/>
    </g>
   </g>
  </g>
 </g>
 <defs>
  <clipPath id="p8686054a47">
   <path d="M 215.288015 320.4 
L 215.288015 43.2 
L 522.711985 43.2 
L 522.711985 320.4 
L 215.288015 320.4 
"/>
  </clipPath>
 </defs>
</svg>
