<?xml version="1.0" encoding="utf-8" standalone="no"?>
<!DOCTYPE svg PUBLIC "-//W3C//DTD SVG 1.1//EN"
  "http://www.w3.org/Graphics/SVG/1.1/DTD/svg11.dtd">
<svg xmlns:xlink="http://www.w3.org/1999/xlink" width="720pt" height="360pt" viewBox="0 0 720 360" xmlns="http://www.w3.org/2000/svg" version="1.1">
 <metadata>
  <rdf:RDF xmlns:dc="http://purl.org/dc/elements/1.1/" xmlns:cc="http://creativecommons.org/ns#" xmlns:rdf="http://www.w3.org/1999/02/22-rdf-syntax-ns#">
   <cc:Work>
    <dc:type rdf:resource="http://purl.org/dc/dcmitype/StillImage"/>
    <dc:date>2023-11-30T21:30:47.222322</dc:date>
    <dc:format>image/svg+xml</dc:format>
    <dc:creator>
     <cc:Agent>
      <dc:title>Matplotlib v3.8.1, https://matplotlib.org/</dc:title>
     </cc:Agent>
    </dc:creator>
   </cc:Work>
  </rdf:RDF>
 </metadata>
 <defs>
  <style type="text/css">*{stroke-linejoin: round; stroke-linecap: butt}</style>
 </defs>
 <g id="figure_1">
  <g id="patch_1">
   <path d="M 0 360 
L 720 360 
L 720 0 
L 0 0 
z
" style="fill: #ffffff"/>
  </g>
  <g id="axes_1">
   <g id="patch_2">
    <path d="M 184.312411 320.4 
L 184.312411 43.2 
L 553.687589 43.2 
L 553.687589 320.4 
L 184.312411 320.4 
" style="fill: #ffffff"/>
   </g>
   <g id="line2d_1">
    <defs>
     <path id="m14274d5b68" d="M 0 11.040178 
C 2.92789 11.040178 5.736254 9.876915 7.806585 7.806585 
C 9.876915 5.736254 11.040178 2.92789 11.040178 0 
C 11.040178 -2.92789 9.876915 -5.736254 7.806585 -7.806585 
C 5.736254 -9.876915 2.92789 -11.040178 0 -11.040178 
C -2.92789 -11.040178 -5.736254 -9.876915 -7.806585 -7.806585 
C -9.876915 -5.736254 -11.040178 -2.92789 -11.040178 0 
C -11.040178 2.92789 -9.876915 5.736254 -7.806585 7.806585 
C -5.736254 9.876915 -2.92789 11.040178 0 11.040178 
z
" style="stroke: #000000"/>
    </defs>
    <g clip-path="url(#pa8ff9c890d)">
     <use xlink:href="#m14274d5b68" x="484.842908" y="166.894717" style="stroke: #000000"/>
    </g>
   </g>
   <g id="line2d_2">
    <defs>
     <path id="ma64125f966" d="M 0 9.565724 
C 2.53686 9.565724 4.970158 8.557819 6.763988 6.763988 
C 8.557819 4.970158 9.565724 2.53686 9.565724 0 
C 9.565724 -2.53686 8.557819 -4.970158 6.763988 -6.763988 
C 4.970158 -8.557819 2.53686 -9.565724 0 -9.565724 
C -2.53686 -9.565724 -4.970158 -8.557819 -6.763988 -6.763988 
C -8.557819 -4.970158 -9.565724 -2.53686 -9.565724 0 
C -9.565724 2.53686 -8.557819 4.970158 -6.763988 6.763988 
C -4.970158 8.557819 -2.53686 9.565724 0 9.565724 
z
" style="stroke: #000000"/>
    </defs>
    <g clip-path="url(#pa8ff9c890d)">
     <use xlink:href="#ma64125f966" x="201.102192" y="175.733605" style="stroke: #000000"/>
    </g>
   </g>
   <g id="line2d_3">
    <defs>
     <path id="mbc8e1c52ad" d="M 0 9.498641 
C 2.519069 9.498641 4.935303 8.497804 6.716553 6.716553 
C 8.497804 4.935303 9.498641 2.519069 9.498641 0 
C 9.498641 -2.519069 8.497804 -4.935303 6.716553 -6.716553 
C 4.935303 -8.497804 2.519069 -9.498641 0 -9.498641 
C -2.519069 -9.498641 -4.935303 -8.497804 -6.716553 -6.716553 
C -8.497804 -4.935303 -9.498641 -2.519069 -9.498641 0 
C -9.498641 2.519069 -8.497804 4.935303 -6.716553 6.716553 
C -4.935303 8.497804 -2.519069 9.498641 0 9.498641 
z
" style="stroke: #000000"/>
    </defs>
    <g clip-path="url(#pa8ff9c890d)">
     <use xlink:href="#mbc8e1c52ad" x="400.955247" y="58.191841" style="stroke: #000000"/>
    </g>
   </g>
   <g id="line2d_4">
    <g clip-path="url(#pa8ff9c890d)">
     <use xlink:href="#mbc8e1c52ad" x="343.95448" y="307.8" style="stroke: #000000"/>
    </g>
   </g>
   <g id="line2d_5">
    <defs>
     <path id="ma2c2ca729d" d="M 0 9.026361 
C 2.393819 9.026361 4.689915 8.075287 6.382601 6.382601 
C 8.075287 4.689915 9.026361 2.393819 9.026361 0 
C 9.026361 -2.393819 8.075287 -4.689915 6.382601 -6.382601 
C 4.689915 -8.075287 2.393819 -9.026361 0 -9.026361 
C -2.393819 -9.026361 -4.689915 -8.075287 -6.382601 -6.382601 
C -8.075287 -4.689915 -9.026361 -2.393819 -9.026361 0 
C -9.026361 2.393819 -8.075287 4.689915 -6.382601 6.382601 
C -4.689915 8.075287 -2.393819 9.026361 0 9.026361 
z
" style="stroke: #000000"/>
    </defs>
    <g clip-path="url(#pa8ff9c890d)">
     <use xlink:href="#ma2c2ca729d" x="536.897808" y="171.890195" style="stroke: #000000"/>
    </g>
   </g>
   <g id="line2d_6">
    <defs>
     <path id="mcd66f1ec9f" d="M 0 8.652385 
C 2.294639 8.652385 4.495605 7.740715 6.11816 6.11816 
C 7.740715 4.495605 8.652385 2.294639 8.652385 0 
C 8.652385 -2.294639 7.740715 -4.495605 6.11816 -6.11816 
C 4.495605 -7.740715 2.294639 -8.652385 0 -8.652385 
C -2.294639 -8.652385 -4.495605 -7.740715 -6.11816 -6.11816 
C -7.740715 -4.495605 -8.652385 -2.294639 -8.652385 0 
C -8.652385 2.294639 -7.740715 4.495605 -6.11816 6.11816 
C -4.495605 7.740715 -2.294639 8.652385 0 8.652385 
z
" style="stroke: #000000"/>
    </defs>
    <g clip-path="url(#pa8ff9c890d)">
     <use xlink:href="#mcd66f1ec9f" x="472.011082" y="57.185436" style="stroke: #000000"/>
    </g>
   </g>
   <g id="line2d_7">
    <defs>
     <path id="m1a3ace7d4e" d="M 0 8.552673 
C 2.268195 8.552673 4.443797 7.651509 6.047653 6.047653 
C 7.651509 4.443797 8.552673 2.268195 8.552673 0 
C 8.552673 -2.268195 7.651509 -4.443797 6.047653 -6.047653 
C 4.443797 -7.651509 2.268195 -8.552673 0 -8.552673 
C -2.268195 -8.552673 -4.443797 -7.651509 -6.047653 -6.047653 
C -7.651509 -4.443797 -8.552673 -2.268195 -8.552673 0 
C -8.552673 2.268195 -7.651509 4.443797 -6.047653 6.047653 
C -4.443797 7.651509 -2.268195 8.552673 0 8.552673 
z
" style="stroke: #000000"/>
    </defs>
    <g clip-path="url(#pa8ff9c890d)">
     <use xlink:href="#m1a3ace7d4e" x="454.267164" y="214.518167" style="stroke: #000000"/>
    </g>
   </g>
   <g id="line2d_8">
    <defs>
     <path id="m61da1133c7" d="M 0 8.404909 
C 2.229008 8.404909 4.367022 7.519315 5.943168 5.943168 
C 7.519315 4.367022 8.404909 2.229008 8.404909 0 
C 8.404909 -2.229008 7.519315 -4.367022 5.943168 -5.943168 
C 4.367022 -7.519315 2.229008 -8.404909 0 -8.404909 
C -2.229008 -8.404909 -4.367022 -7.519315 -5.943168 -5.943168 
C -7.519315 -4.367022 -8.404909 -2.229008 -8.404909 0 
C -8.404909 2.229008 -7.519315 4.367022 -5.943168 5.943168 
C -4.367022 7.519315 -2.229008 8.404909 0 8.404909 
z
" style="stroke: #000000"/>
    </defs>
    <g clip-path="url(#pa8ff9c890d)">
     <use xlink:href="#m61da1133c7" x="392.260304" y="55.8" style="stroke: #000000"/>
    </g>
   </g>
   <g id="line2d_9">
    <defs>
     <path id="m1e22923811" d="M 0 8.363335 
C 2.217982 8.363335 4.345421 7.482122 5.913771 5.913771 
C 7.482122 4.345421 8.363335 2.217982 8.363335 0 
C 8.363335 -2.217982 7.482122 -4.345421 5.913771 -5.913771 
C 4.345421 -7.482122 2.217982 -8.363335 0 -8.363335 
C -2.217982 -8.363335 -4.345421 -7.482122 -5.913771 -5.913771 
C -7.482122 -4.345421 -8.363335 -2.217982 -8.363335 0 
C -8.363335 2.217982 -7.482122 4.345421 -5.913771 5.913771 
C -4.345421 7.482122 -2.217982 8.363335 0 8.363335 
z
" style="stroke: #000000"/>
    </defs>
    <g clip-path="url(#pa8ff9c890d)">
     <use xlink:href="#m1e22923811" x="465.959577" y="87.312863" style="stroke: #000000"/>
    </g>
   </g>
   <g id="line2d_10">
    <defs>
     <path id="m8c927386e7" d="M 0 8.330346 
C 2.209234 8.330346 4.32828 7.452608 5.890444 5.890444 
C 7.452608 4.32828 8.330346 2.209234 8.330346 0 
C 8.330346 -2.209234 7.452608 -4.32828 5.890444 -5.890444 
C 4.32828 -7.452608 2.209234 -8.330346 0 -8.330346 
C -2.209234 -8.330346 -4.32828 -7.452608 -5.890444 -5.890444 
C -7.452608 -4.32828 -8.330346 -2.209234 -8.330346 0 
C -8.330346 2.209234 -7.452608 4.32828 -5.890444 5.890444 
C -4.32828 7.452608 -2.209234 8.330346 0 8.330346 
z
" style="stroke: #000000"/>
    </defs>
    <g clip-path="url(#pa8ff9c890d)">
     <use xlink:href="#m8c927386e7" x="487.023663" y="212.401959" style="stroke: #000000"/>
    </g>
   </g>
  </g>
 </g>
 <defs>
  <clipPath id="pa8ff9c890d">
   <path d="M 184.312411 320.4 
L 184.312411 43.2 
L 553.687589 43.2 
L 553.687589 320.4 
L 184.312411 320.4 
"/>
  </clipPath>
 </defs>
</svg>
