<?xml version="1.0" encoding="utf-8" standalone="no"?>
<!DOCTYPE svg PUBLIC "-//W3C//DTD SVG 1.1//EN"
  "http://www.w3.org/Graphics/SVG/1.1/DTD/svg11.dtd">
<svg xmlns:xlink="http://www.w3.org/1999/xlink" width="720pt" height="360pt" viewBox="0 0 720 360" xmlns="http://www.w3.org/2000/svg" version="1.1">
 <metadata>
  <rdf:RDF xmlns:dc="http://purl.org/dc/elements/1.1/" xmlns:cc="http://creativecommons.org/ns#" xmlns:rdf="http://www.w3.org/1999/02/22-rdf-syntax-ns#">
   <cc:Work>
    <dc:type rdf:resource="http://purl.org/dc/dcmitype/StillImage"/>
    <dc:date>2023-11-30T21:30:53.329463</dc:date>
    <dc:format>image/svg+xml</dc:format>
    <dc:creator>
     <cc:Agent>
      <dc:title>Matplotlib v3.8.1, https://matplotlib.org/</dc:title>
     </cc:Agent>
    </dc:creator>
   </cc:Work>
  </rdf:RDF>
 </metadata>
 <defs>
  <style type="text/css">*{stroke-linejoin: round; stroke-linecap: butt}</style>
 </defs>
 <g id="figure_1">
  <g id="patch_1">
   <path d="M 0 360 
L 720 360 
L 720 0 
L 0 0 
z
" style="fill: #ffffff"/>
  </g>
  <g id="axes_1">
   <g id="patch_2">
    <path d="M 149.746458 320.4 
L 149.746458 43.2 
L 588.253542 43.2 
L 588.253542 320.4 
L 149.746458 320.4 
" style="fill: #ffffff"/>
   </g>
   <g id="line2d_1">
    <defs>
     <path id="m9ead885980" d="M 0 5.495761 
C 1.457493 5.495761 2.855487 4.916693 3.88609 3.88609 
C 4.916693 2.855487 5.495761 1.457493 5.495761 0 
C 5.495761 -1.457493 4.916693 -2.855487 3.88609 -3.88609 
C 2.855487 -4.916693 1.457493 -5.495761 0 -5.495761 
C -1.457493 -5.495761 -2.855487 -4.916693 -3.88609 -3.88609 
C -4.916693 -2.855487 -5.495761 -1.457493 -5.495761 0 
C -5.495761 1.457493 -4.916693 2.855487 -3.88609 3.88609 
C -2.855487 4.916693 -1.457493 5.495761 0 5.495761 
z
" style="stroke: #000000"/>
    </defs>
    <g clip-path="url(#p4cf3a78f10)">
     <use xlink:href="#m9ead885980" x="431.927775" y="172.586303" style="stroke: #000000"/>
    </g>
   </g>
   <g id="line2d_2">
    <defs>
     <path id="me72d41e7d1" d="M 0 4.940557 
C 1.310251 4.940557 2.567014 4.419989 3.493501 3.493501 
C 4.419989 2.567014 4.940557 1.310251 4.940557 0 
C 4.940557 -1.310251 4.419989 -2.567014 3.493501 -3.493501 
C 2.567014 -4.419989 1.310251 -4.940557 0 -4.940557 
C -1.310251 -4.940557 -2.567014 -4.419989 -3.493501 -3.493501 
C -4.419989 -2.567014 -4.940557 -1.310251 -4.940557 0 
C -4.940557 1.310251 -4.419989 2.567014 -3.493501 3.493501 
C -2.567014 4.419989 -1.310251 4.940557 0 4.940557 
z
" style="stroke: #000000"/>
    </defs>
    <g clip-path="url(#p4cf3a78f10)">
     <use xlink:href="#me72d41e7d1" x="329.066993" y="294.109465" style="stroke: #000000"/>
    </g>
   </g>
   <g id="line2d_3">
    <defs>
     <path id="mb8a55fb4a8" d="M 0 4.051644 
C 1.074509 4.051644 2.105153 3.624737 2.864945 2.864945 
C 3.624737 2.105153 4.051644 1.074509 4.051644 0 
C 4.051644 -1.074509 3.624737 -2.105153 2.864945 -2.864945 
C 2.105153 -3.624737 1.074509 -4.051644 0 -4.051644 
C -1.074509 -4.051644 -2.105153 -3.624737 -2.864945 -2.864945 
C -3.624737 -2.105153 -4.051644 -1.074509 -4.051644 0 
C -4.051644 1.074509 -3.624737 2.105153 -2.864945 2.864945 
C -2.105153 3.624737 -1.074509 4.051644 0 4.051644 
z
" style="stroke: #000000"/>
    </defs>
    <g clip-path="url(#p4cf3a78f10)">
     <use xlink:href="#mb8a55fb4a8" x="339.862793" y="220.108383" style="stroke: #000000"/>
    </g>
   </g>
   <g id="line2d_4"/>
   <g id="line2d_5"/>
   <g id="line2d_6"/>
   <g id="line2d_7"/>
   <g id="line2d_8"/>
   <g id="line2d_9"/>
   <g id="line2d_10"/>
  </g>
 </g>
 <defs>
  <clipPath id="p4cf3a78f10">
   <path d="M 149.746458 320.4 
L 149.746458 43.2 
L 588.253542 43.2 
L 588.253542 320.4 
L 149.746458 320.4 
"/>
  </clipPath>
 </defs>
</svg>
