<?xml version="1.0" encoding="utf-8" standalone="no"?>
<!DOCTYPE svg PUBLIC "-//W3C//DTD SVG 1.1//EN"
  "http://www.w3.org/Graphics/SVG/1.1/DTD/svg11.dtd">
<svg xmlns:xlink="http://www.w3.org/1999/xlink" width="720pt" height="360pt" viewBox="0 0 720 360" xmlns="http://www.w3.org/2000/svg" version="1.1">
 <metadata>
  <rdf:RDF xmlns:dc="http://purl.org/dc/elements/1.1/" xmlns:cc="http://creativecommons.org/ns#" xmlns:rdf="http://www.w3.org/1999/02/22-rdf-syntax-ns#">
   <cc:Work>
    <dc:type rdf:resource="http://purl.org/dc/dcmitype/StillImage"/>
    <dc:date>2023-11-30T21:30:47.263559</dc:date>
    <dc:format>image/svg+xml</dc:format>
    <dc:creator>
     <cc:Agent>
      <dc:title>Matplotlib v3.8.1, https://matplotlib.org/</dc:title>
     </cc:Agent>
    </dc:creator>
   </cc:Work>
  </rdf:RDF>
 </metadata>
 <defs>
  <style type="text/css">*{stroke-linejoin: round; stroke-linecap: butt}</style>
 </defs>
 <g id="figure_1">
  <g id="patch_1">
   <path d="M 0 360 
L 720 360 
L 720 0 
L 0 0 
z
" style="fill: #ffffff"/>
  </g>
  <g id="axes_1">
   <g id="patch_2">
    <path d="M 282.316473 320.4 
L 282.316473 43.2 
L 455.683527 43.2 
L 455.683527 320.4 
L 282.316473 320.4 
" style="fill: #ffffff"/>
   </g>
   <g id="line2d_1">
    <defs>
     <path id="mac705f53f3" d="M 0 9.337427 
C 2.476315 9.337427 4.851539 8.353577 6.602558 6.602558 
C 8.353577 4.851539 9.337427 2.476315 9.337427 0 
C 9.337427 -2.476315 8.353577 -4.851539 6.602558 -6.602558 
C 4.851539 -8.353577 2.476315 -9.337427 0 -9.337427 
C -2.476315 -9.337427 -4.851539 -8.353577 -6.602558 -6.602558 
C -8.353577 -4.851539 -9.337427 -2.476315 -9.337427 0 
C -9.337427 2.476315 -8.353577 4.851539 -6.602558 6.602558 
C -4.851539 8.353577 -2.476315 9.337427 0 9.337427 
z
" style="stroke: #000000"/>
    </defs>
    <g clip-path="url(#pa014097b33)">
     <use xlink:href="#mac705f53f3" x="333.480501" y="173.270404" style="stroke: #000000"/>
    </g>
   </g>
   <g id="line2d_2">
    <defs>
     <path id="m4e49520710" d="M 0 8.448468 
C 2.24056 8.448468 4.389654 7.558284 5.973969 5.973969 
C 7.558284 4.389654 8.448468 2.24056 8.448468 0 
C 8.448468 -2.24056 7.558284 -4.389654 5.973969 -5.973969 
C 4.389654 -7.558284 2.24056 -8.448468 0 -8.448468 
C -2.24056 -8.448468 -4.389654 -7.558284 -5.973969 -5.973969 
C -7.558284 -4.389654 -8.448468 -2.24056 -8.448468 0 
C -8.448468 2.24056 -7.558284 4.389654 -5.973969 5.973969 
C -4.389654 7.558284 -2.24056 8.448468 0 8.448468 
z
" style="stroke: #000000"/>
    </defs>
    <g clip-path="url(#pa014097b33)">
     <use xlink:href="#m4e49520710" x="290.196794" y="173.893151" style="stroke: #000000"/>
    </g>
   </g>
   <g id="line2d_3">
    <defs>
     <path id="m8f8b744c42" d="M 0 8.311312 
C 2.204186 8.311312 4.31839 7.43558 5.876985 5.876985 
C 7.43558 4.31839 8.311312 2.204186 8.311312 0 
C 8.311312 -2.204186 7.43558 -4.31839 5.876985 -5.876985 
C 4.31839 -7.43558 2.204186 -8.311312 0 -8.311312 
C -2.204186 -8.311312 -4.31839 -7.43558 -5.876985 -5.876985 
C -7.43558 -4.31839 -8.311312 -2.204186 -8.311312 0 
C -8.311312 2.204186 -7.43558 4.31839 -5.876985 5.876985 
C -4.31839 7.43558 -2.204186 8.311312 0 8.311312 
z
" style="stroke: #000000"/>
    </defs>
    <g clip-path="url(#pa014097b33)">
     <use xlink:href="#m8f8b744c42" x="364.776214" y="207.111633" style="stroke: #000000"/>
    </g>
   </g>
   <g id="line2d_4">
    <defs>
     <path id="m0a1df69291" d="M 0 8.225179 
C 2.181343 8.225179 4.273637 7.358522 5.81608 5.81608 
C 7.358522 4.273637 8.225179 2.181343 8.225179 0 
C 8.225179 -2.181343 7.358522 -4.273637 5.81608 -5.81608 
C 4.273637 -7.358522 2.181343 -8.225179 0 -8.225179 
C -2.181343 -8.225179 -4.273637 -7.358522 -5.81608 -5.81608 
C -7.358522 -4.273637 -8.225179 -2.181343 -8.225179 0 
C -8.225179 2.181343 -7.358522 4.273637 -5.81608 5.81608 
C -4.273637 7.358522 -2.181343 8.225179 0 8.225179 
z
" style="stroke: #000000"/>
    </defs>
    <g clip-path="url(#pa014097b33)">
     <use xlink:href="#m0a1df69291" x="293.582716" y="307.8" style="stroke: #000000"/>
    </g>
   </g>
   <g id="line2d_5">
    <defs>
     <path id="m2e845b1219" d="M 0 8.214622 
C 2.178543 8.214622 4.268152 7.349077 5.808615 5.808615 
C 7.349077 4.268152 8.214622 2.178543 8.214622 0 
C 8.214622 -2.178543 7.349077 -4.268152 5.808615 -5.808615 
C 4.268152 -7.349077 2.178543 -8.214622 0 -8.214622 
C -2.178543 -8.214622 -4.268152 -7.349077 -5.808615 -5.808615 
C -7.349077 -4.268152 -8.214622 -2.178543 -8.214622 0 
C -8.214622 2.178543 -7.349077 4.268152 -5.808615 5.808615 
C -4.268152 7.349077 -2.178543 8.214622 0 8.214622 
z
" style="stroke: #000000"/>
    </defs>
    <g clip-path="url(#pa014097b33)">
     <use xlink:href="#m2e845b1219" x="297.076788" y="55.8" style="stroke: #000000"/>
    </g>
   </g>
   <g id="line2d_6">
    <defs>
     <path id="mb62012b146" d="M 0 7.954513 
C 2.109561 7.954513 4.133005 7.116375 5.62469 5.62469 
C 7.116375 4.133005 7.954513 2.109561 7.954513 0 
C 7.954513 -2.109561 7.116375 -4.133005 5.62469 -5.62469 
C 4.133005 -7.116375 2.109561 -7.954513 0 -7.954513 
C -2.109561 -7.954513 -4.133005 -7.116375 -5.62469 -5.62469 
C -7.116375 -4.133005 -7.954513 -2.109561 -7.954513 0 
C -7.954513 2.109561 -7.116375 4.133005 -5.62469 5.62469 
C -4.133005 7.116375 -2.109561 7.954513 0 7.954513 
z
" style="stroke: #000000"/>
    </defs>
    <g clip-path="url(#pa014097b33)">
     <use xlink:href="#mb62012b146" x="432.551701" y="240.058219" style="stroke: #000000"/>
    </g>
   </g>
   <g id="line2d_7">
    <defs>
     <path id="m4d36e670f7" d="M 0 7.948214 
C 2.107891 7.948214 4.129732 7.11074 5.620236 5.620236 
C 7.11074 4.129732 7.948214 2.107891 7.948214 0 
C 7.948214 -2.107891 7.11074 -4.129732 5.620236 -5.620236 
C 4.129732 -7.11074 2.107891 -7.948214 0 -7.948214 
C -2.107891 -7.948214 -4.129732 -7.11074 -5.620236 -5.620236 
C -7.11074 -4.129732 -7.948214 -2.107891 -7.948214 0 
C -7.948214 2.107891 -7.11074 4.129732 -5.620236 5.620236 
C -4.129732 7.11074 -2.107891 7.948214 0 7.948214 
z
" style="stroke: #000000"/>
    </defs>
    <g clip-path="url(#pa014097b33)">
     <use xlink:href="#m4d36e670f7" x="303.505167" y="269.125001" style="stroke: #000000"/>
    </g>
   </g>
   <g id="line2d_8">
    <defs>
     <path id="m2551ba0b89" d="M 0 7.915109 
C 2.099111 7.915109 4.112531 7.081123 5.596827 5.596827 
C 7.081123 4.112531 7.915109 2.099111 7.915109 0 
C 7.915109 -2.099111 7.081123 -4.112531 5.596827 -5.596827 
C 4.112531 -7.081123 2.099111 -7.915109 0 -7.915109 
C -2.099111 -7.915109 -4.112531 -7.081123 -5.596827 -5.596827 
C -7.081123 -4.112531 -7.915109 -2.099111 -7.915109 0 
C -7.915109 2.099111 -7.081123 4.112531 -5.596827 5.596827 
C -4.112531 7.081123 -2.099111 7.915109 0 7.915109 
z
" style="stroke: #000000"/>
    </defs>
    <g clip-path="url(#pa014097b33)">
     <use xlink:href="#m2551ba0b89" x="447.803206" y="284.430194" style="stroke: #000000"/>
    </g>
   </g>
   <g id="line2d_9">
    <defs>
     <path id="ma66e26c461" d="M 0 7.890398 
C 2.092558 7.890398 4.099692 7.059016 5.579354 5.579354 
C 7.059016 4.099692 7.890398 2.092558 7.890398 0 
C 7.890398 -2.092558 7.059016 -4.099692 5.579354 -5.579354 
C 4.099692 -7.059016 2.092558 -7.890398 0 -7.890398 
C -2.092558 -7.890398 -4.099692 -7.059016 -5.579354 -5.579354 
C -7.059016 -4.099692 -7.890398 -2.092558 -7.890398 0 
C -7.890398 2.092558 -7.059016 4.099692 -5.579354 5.579354 
C -4.099692 7.059016 -2.092558 7.890398 0 7.890398 
z
" style="stroke: #000000"/>
    </defs>
    <g clip-path="url(#pa014097b33)">
     <use xlink:href="#ma66e26c461" x="302.250153" y="267.997207" style="stroke: #000000"/>
    </g>
   </g>
   <g id="line2d_10">
    <defs>
     <path id="mfa54c039b8" d="M 0 7.758142 
C 2.057483 7.758142 4.030975 6.940696 5.485835 5.485835 
C 6.940696 4.030975 7.758142 2.057483 7.758142 0 
C 7.758142 -2.057483 6.940696 -4.030975 5.485835 -5.485835 
C 4.030975 -6.940696 2.057483 -7.758142 0 -7.758142 
C -2.057483 -7.758142 -4.030975 -6.940696 -5.485835 -5.485835 
C -6.940696 -4.030975 -7.758142 -2.057483 -7.758142 0 
C -7.758142 2.057483 -6.940696 4.030975 -5.485835 5.485835 
C -4.030975 6.940696 -2.057483 7.758142 0 7.758142 
z
" style="stroke: #000000"/>
    </defs>
    <g clip-path="url(#pa014097b33)">
     <use xlink:href="#mfa54c039b8" x="349.326236" y="270.818022" style="stroke: #000000"/>
    </g>
   </g>
  </g>
 </g>
 <defs>
  <clipPath id="pa014097b33">
   <path d="M 282.316473 320.4 
L 282.316473 43.2 
L 455.683527 43.2 
L 455.683527 320.4 
L 282.316473 320.4 
"/>
  </clipPath>
 </defs>
</svg>
