<?xml version="1.0" encoding="utf-8" standalone="no"?>
<!DOCTYPE svg PUBLIC "-//W3C//DTD SVG 1.1//EN"
  "http://www.w3.org/Graphics/SVG/1.1/DTD/svg11.dtd">
<svg xmlns:xlink="http://www.w3.org/1999/xlink" width="720pt" height="360pt" viewBox="0 0 720 360" xmlns="http://www.w3.org/2000/svg" version="1.1">
 <metadata>
  <rdf:RDF xmlns:dc="http://purl.org/dc/elements/1.1/" xmlns:cc="http://creativecommons.org/ns#" xmlns:rdf="http://www.w3.org/1999/02/22-rdf-syntax-ns#">
   <cc:Work>
    <dc:type rdf:resource="http://purl.org/dc/dcmitype/StillImage"/>
    <dc:date>2023-11-30T21:30:47.305082</dc:date>
    <dc:format>image/svg+xml</dc:format>
    <dc:creator>
     <cc:Agent>
      <dc:title>Matplotlib v3.8.1, https://matplotlib.org/</dc:title>
     </cc:Agent>
    </dc:creator>
   </cc:Work>
  </rdf:RDF>
 </metadata>
 <defs>
  <style type="text/css">*{stroke-linejoin: round; stroke-linecap: butt}</style>
 </defs>
 <g id="figure_1">
  <g id="patch_1">
   <path d="M 0 360 
L 720 360 
L 720 0 
L 0 0 
z
" style="fill: #ffffff"/>
  </g>
  <g id="axes_1">
   <g id="patch_2">
    <path d="M 217.832101 320.4 
L 217.832101 43.2 
L 520.167899 43.2 
L 520.167899 320.4 
L 217.832101 320.4 
" style="fill: #ffffff"/>
   </g>
   <g id="line2d_1">
    <defs>
     <path id="m756261a64a" d="M 0 10.030252 
C 2.660054 10.030252 5.211517 8.973401 7.092459 7.092459 
C 8.973401 5.211517 10.030252 2.660054 10.030252 0 
C 10.030252 -2.660054 8.973401 -5.211517 7.092459 -7.092459 
C 5.211517 -8.973401 2.660054 -10.030252 0 -10.030252 
C -2.660054 -10.030252 -5.211517 -8.973401 -7.092459 -7.092459 
C -8.973401 -5.211517 -10.030252 -2.660054 -10.030252 0 
C -10.030252 2.660054 -8.973401 5.211517 -7.092459 7.092459 
C -5.211517 8.973401 -2.660054 10.030252 0 10.030252 
z
" style="stroke: #000000"/>
    </defs>
    <g clip-path="url(#p980b3d0a8c)">
     <use xlink:href="#m756261a64a" x="303.315477" y="172.519997" style="stroke: #000000"/>
    </g>
   </g>
   <g id="line2d_2">
    <defs>
     <path id="m9b3046aea4" d="M 0 8.589478 
C 2.277956 8.589478 4.46292 7.684437 6.073678 6.073678 
C 7.684437 4.46292 8.589478 2.277956 8.589478 0 
C 8.589478 -2.277956 7.684437 -4.46292 6.073678 -6.073678 
C 4.46292 -7.684437 2.277956 -8.589478 0 -8.589478 
C -2.277956 -8.589478 -4.46292 -7.684437 -6.073678 -6.073678 
C -7.684437 -4.46292 -8.589478 -2.277956 -8.589478 0 
C -8.589478 2.277956 -7.684437 4.46292 -6.073678 6.073678 
C -4.46292 7.684437 -2.277956 8.589478 0 8.589478 
z
" style="stroke: #000000"/>
    </defs>
    <g clip-path="url(#p980b3d0a8c)">
     <use xlink:href="#m9b3046aea4" x="231.574637" y="86.323483" style="stroke: #000000"/>
    </g>
   </g>
   <g id="line2d_3">
    <defs>
     <path id="mf6ff4d0359" d="M 0 8.312705 
C 2.204555 8.312705 4.319114 7.436826 5.87797 5.87797 
C 7.436826 4.319114 8.312705 2.204555 8.312705 0 
C 8.312705 -2.204555 7.436826 -4.319114 5.87797 -5.87797 
C 4.319114 -7.436826 2.204555 -8.312705 0 -8.312705 
C -2.204555 -8.312705 -4.319114 -7.436826 -5.87797 -5.87797 
C -7.436826 -4.319114 -8.312705 -2.204555 -8.312705 0 
C -8.312705 2.204555 -7.436826 4.319114 -5.87797 5.87797 
C -4.319114 7.436826 -2.204555 8.312705 0 8.312705 
z
" style="stroke: #000000"/>
    </defs>
    <g clip-path="url(#p980b3d0a8c)">
     <use xlink:href="#mf6ff4d0359" x="301.199738" y="84.860079" style="stroke: #000000"/>
    </g>
   </g>
   <g id="line2d_4">
    <defs>
     <path id="m6c37096dd9" d="M 0 7.747818 
C 2.054745 7.747818 4.02561 6.931459 5.478535 5.478535 
C 6.931459 4.02561 7.747818 2.054745 7.747818 0 
C 7.747818 -2.054745 6.931459 -4.02561 5.478535 -5.478535 
C 4.02561 -6.931459 2.054745 -7.747818 0 -7.747818 
C -2.054745 -7.747818 -4.02561 -6.931459 -5.478535 -5.478535 
C -6.931459 -4.02561 -7.747818 -2.054745 -7.747818 0 
C -7.747818 2.054745 -6.931459 4.02561 -5.478535 5.478535 
C -4.02561 6.931459 -2.054745 7.747818 0 7.747818 
z
" style="stroke: #000000"/>
    </defs>
    <g clip-path="url(#p980b3d0a8c)">
     <use xlink:href="#m6c37096dd9" x="279.808337" y="174.694565" style="stroke: #000000"/>
    </g>
   </g>
   <g id="line2d_5">
    <defs>
     <path id="m69e0cedaa9" d="M 0 7.65807 
C 2.030944 7.65807 3.978979 6.851167 5.415073 5.415073 
C 6.851167 3.978979 7.65807 2.030944 7.65807 0 
C 7.65807 -2.030944 6.851167 -3.978979 5.415073 -5.415073 
C 3.978979 -6.851167 2.030944 -7.65807 0 -7.65807 
C -2.030944 -7.65807 -3.978979 -6.851167 -5.415073 -5.415073 
C -6.851167 -3.978979 -7.65807 -2.030944 -7.65807 0 
C -7.65807 2.030944 -6.851167 3.978979 -5.415073 5.415073 
C -3.978979 6.851167 -2.030944 7.65807 0 7.65807 
z
" style="stroke: #000000"/>
    </defs>
    <g clip-path="url(#p980b3d0a8c)">
     <use xlink:href="#m69e0cedaa9" x="330.429356" y="128.139514" style="stroke: #000000"/>
    </g>
   </g>
   <g id="line2d_6">
    <defs>
     <path id="m77ace37fd1" d="M 0 7.561293 
C 2.005278 7.561293 3.928695 6.764587 5.346641 5.346641 
C 6.764587 3.928695 7.561293 2.005278 7.561293 0 
C 7.561293 -2.005278 6.764587 -3.928695 5.346641 -5.346641 
C 3.928695 -6.764587 2.005278 -7.561293 0 -7.561293 
C -2.005278 -7.561293 -3.928695 -6.764587 -5.346641 -5.346641 
C -6.764587 -3.928695 -7.561293 -2.005278 -7.561293 0 
C -7.561293 2.005278 -6.764587 3.928695 -5.346641 5.346641 
C -3.928695 6.764587 -2.005278 7.561293 0 7.561293 
z
" style="stroke: #000000"/>
    </defs>
    <g clip-path="url(#p980b3d0a8c)">
     <use xlink:href="#m77ace37fd1" x="316.182735" y="159.555931" style="stroke: #000000"/>
    </g>
   </g>
   <g id="line2d_7">
    <defs>
     <path id="m508710e5ee" d="M 0 7.5086 
C 1.991304 7.5086 3.901317 6.717446 5.309382 5.309382 
C 6.717446 3.901317 7.5086 1.991304 7.5086 0 
C 7.5086 -1.991304 6.717446 -3.901317 5.309382 -5.309382 
C 3.901317 -6.717446 1.991304 -7.5086 0 -7.5086 
C -1.991304 -7.5086 -3.901317 -6.717446 -5.309382 -5.309382 
C -6.717446 -3.901317 -7.5086 -1.991304 -7.5086 0 
C -7.5086 1.991304 -6.717446 3.901317 -5.309382 5.309382 
C -3.901317 6.717446 -1.991304 7.5086 0 7.5086 
z
" style="stroke: #000000"/>
    </defs>
    <g clip-path="url(#p980b3d0a8c)">
     <use xlink:href="#m508710e5ee" x="506.425363" y="307.8" style="stroke: #000000"/>
    </g>
   </g>
   <g id="line2d_8">
    <defs>
     <path id="m64ec5b1c91" d="M 0 7.407717 
C 1.964549 7.407717 3.8489 6.627193 5.238047 5.238047 
C 6.627193 3.8489 7.407717 1.964549 7.407717 0 
C 7.407717 -1.964549 6.627193 -3.8489 5.238047 -5.238047 
C 3.8489 -6.627193 1.964549 -7.407717 0 -7.407717 
C -1.964549 -7.407717 -3.8489 -6.627193 -5.238047 -5.238047 
C -6.627193 -3.8489 -7.407717 -1.964549 -7.407717 0 
C -7.407717 1.964549 -6.627193 3.8489 -5.238047 5.238047 
C -3.8489 6.627193 -1.964549 7.407717 0 7.407717 
z
" style="stroke: #000000"/>
    </defs>
    <g clip-path="url(#p980b3d0a8c)">
     <use xlink:href="#m64ec5b1c91" x="323.934004" y="221.434279" style="stroke: #000000"/>
    </g>
   </g>
   <g id="line2d_9">
    <defs>
     <path id="mcda4fc7555" d="M 0 7.332113 
C 1.944499 7.332113 3.809618 6.559555 5.184586 5.184586 
C 6.559555 3.809618 7.332113 1.944499 7.332113 0 
C 7.332113 -1.944499 6.559555 -3.809618 5.184586 -5.184586 
C 3.809618 -6.559555 1.944499 -7.332113 0 -7.332113 
C -1.944499 -7.332113 -3.809618 -6.559555 -5.184586 -5.184586 
C -6.559555 -3.809618 -7.332113 -1.944499 -7.332113 0 
C -7.332113 1.944499 -6.559555 3.809618 -5.184586 5.184586 
C -3.809618 6.559555 -1.944499 7.332113 0 7.332113 
z
" style="stroke: #000000"/>
    </defs>
    <g clip-path="url(#p980b3d0a8c)">
     <use xlink:href="#mcda4fc7555" x="252.277966" y="176.248919" style="stroke: #000000"/>
    </g>
   </g>
   <g id="line2d_10">
    <defs>
     <path id="m3d95e09b96" d="M 0 7.268822 
C 1.927714 7.268822 3.776733 6.502933 5.139833 5.139833 
C 6.502933 3.776733 7.268822 1.927714 7.268822 0 
C 7.268822 -1.927714 6.502933 -3.776733 5.139833 -5.139833 
C 3.776733 -6.502933 1.927714 -7.268822 0 -7.268822 
C -1.927714 -7.268822 -3.776733 -6.502933 -5.139833 -5.139833 
C -6.502933 -3.776733 -7.268822 -1.927714 -7.268822 0 
C -7.268822 1.927714 -6.502933 3.776733 -5.139833 5.139833 
C -3.776733 6.502933 -1.927714 7.268822 0 7.268822 
z
" style="stroke: #000000"/>
    </defs>
    <g clip-path="url(#p980b3d0a8c)">
     <use xlink:href="#m3d95e09b96" x="289.543314" y="55.8" style="stroke: #000000"/>
    </g>
   </g>
  </g>
 </g>
 <defs>
  <clipPath id="p980b3d0a8c">
   <path d="M 217.832101 320.4 
L 217.832101 43.2 
L 520.167899 43.2 
L 520.167899 320.4 
L 217.832101 320.4 
"/>
  </clipPath>
 </defs>
</svg>
