<?xml version="1.0" encoding="utf-8" standalone="no"?>
<!DOCTYPE svg PUBLIC "-//W3C//DTD SVG 1.1//EN"
  "http://www.w3.org/Graphics/SVG/1.1/DTD/svg11.dtd">
<svg xmlns:xlink="http://www.w3.org/1999/xlink" width="720pt" height="360pt" viewBox="0 0 720 360" xmlns="http://www.w3.org/2000/svg" version="1.1">
 <metadata>
  <rdf:RDF xmlns:dc="http://purl.org/dc/elements/1.1/" xmlns:cc="http://creativecommons.org/ns#" xmlns:rdf="http://www.w3.org/1999/02/22-rdf-syntax-ns#">
   <cc:Work>
    <dc:type rdf:resource="http://purl.org/dc/dcmitype/StillImage"/>
    <dc:date>2023-11-30T21:30:47.347979</dc:date>
    <dc:format>image/svg+xml</dc:format>
    <dc:creator>
     <cc:Agent>
      <dc:title>Matplotlib v3.8.1, https://matplotlib.org/</dc:title>
     </cc:Agent>
    </dc:creator>
   </cc:Work>
  </rdf:RDF>
 </metadata>
 <defs>
  <style type="text/css">*{stroke-linejoin: round; stroke-linecap: butt}</style>
 </defs>
 <g id="figure_1">
  <g id="patch_1">
   <path d="M 0 360 
L 720 360 
L 720 0 
L 0 0 
z
" style="fill: #ffffff"/>
  </g>
  <g id="axes_1">
   <g id="patch_2">
    <path d="M 296.745702 320.4 
L 296.745702 43.2 
L 441.254298 43.2 
L 441.254298 320.4 
L 296.745702 320.4 
" style="fill: #ffffff"/>
   </g>
   <g id="line2d_1">
    <defs>
     <path id="m87b3e2cecd" d="M 0 10.702332 
C 2.838292 10.702332 5.560716 9.574667 7.567692 7.567692 
C 9.574667 5.560716 10.702332 2.838292 10.702332 0 
C 10.702332 -2.838292 9.574667 -5.560716 7.567692 -7.567692 
C 5.560716 -9.574667 2.838292 -10.702332 0 -10.702332 
C -2.838292 -10.702332 -5.560716 -9.574667 -7.567692 -7.567692 
C -9.574667 -5.560716 -10.702332 -2.838292 -10.702332 0 
C -10.702332 2.838292 -9.574667 5.560716 -7.567692 7.567692 
C -5.560716 9.574667 -2.838292 10.702332 0 10.702332 
z
" style="stroke: #000000"/>
    </defs>
    <g clip-path="url(#pe911e72e78)">
     <use xlink:href="#m87b3e2cecd" x="333.047338" y="130.193758" style="stroke: #000000"/>
    </g>
   </g>
   <g id="line2d_2">
    <defs>
     <path id="m4d8dedde83" d="M 0 9.273683 
C 2.459409 9.273683 4.818419 8.296549 6.557484 6.557484 
C 8.296549 4.818419 9.273683 2.459409 9.273683 0 
C 9.273683 -2.459409 8.296549 -4.818419 6.557484 -6.557484 
C 4.818419 -8.296549 2.459409 -9.273683 0 -9.273683 
C -2.459409 -9.273683 -4.818419 -8.296549 -6.557484 -6.557484 
C -8.296549 -4.818419 -9.273683 -2.459409 -9.273683 0 
C -9.273683 2.459409 -8.296549 4.818419 -6.557484 6.557484 
C -4.818419 8.296549 -2.459409 9.273683 0 9.273683 
z
" style="stroke: #000000"/>
    </defs>
    <g clip-path="url(#pe911e72e78)">
     <use xlink:href="#m4d8dedde83" x="379.134823" y="142.937317" style="stroke: #000000"/>
    </g>
   </g>
   <g id="line2d_3">
    <defs>
     <path id="m90d70e9dd9" d="M 0 8.893447 
C 2.35857 8.893447 4.620856 7.956378 6.288617 6.288617 
C 7.956378 4.620856 8.893447 2.35857 8.893447 0 
C 8.893447 -2.35857 7.956378 -4.620856 6.288617 -6.288617 
C 4.620856 -7.956378 2.35857 -8.893447 0 -8.893447 
C -2.35857 -8.893447 -4.620856 -7.956378 -6.288617 -6.288617 
C -7.956378 -4.620856 -8.893447 -2.35857 -8.893447 0 
C -8.893447 2.35857 -7.956378 4.620856 -6.288617 6.288617 
C -4.620856 7.956378 -2.35857 8.893447 0 8.893447 
z
" style="stroke: #000000"/>
    </defs>
    <g clip-path="url(#pe911e72e78)">
     <use xlink:href="#m90d70e9dd9" x="401.873568" y="239.700058" style="stroke: #000000"/>
    </g>
   </g>
   <g id="line2d_4">
    <defs>
     <path id="m6ac12f90ba" d="M 0 8.83288 
C 2.342507 8.83288 4.589386 7.902192 6.245789 6.245789 
C 7.902192 4.589386 8.83288 2.342507 8.83288 0 
C 8.83288 -2.342507 7.902192 -4.589386 6.245789 -6.245789 
C 4.589386 -7.902192 2.342507 -8.83288 0 -8.83288 
C -2.342507 -8.83288 -4.589386 -7.902192 -6.245789 -6.245789 
C -7.902192 -4.589386 -8.83288 -2.342507 -8.83288 0 
C -8.83288 2.342507 -7.902192 4.589386 -6.245789 6.245789 
C -4.589386 7.902192 -2.342507 8.83288 0 8.83288 
z
" style="stroke: #000000"/>
    </defs>
    <g clip-path="url(#pe911e72e78)">
     <use xlink:href="#m6ac12f90ba" x="341.33693" y="228.183512" style="stroke: #000000"/>
    </g>
   </g>
   <g id="line2d_5">
    <defs>
     <path id="mb518efb0bb" d="M 0 8.603178 
C 2.28159 8.603178 4.470038 7.696693 6.083366 6.083366 
C 7.696693 4.470038 8.603178 2.28159 8.603178 0 
C 8.603178 -2.28159 7.696693 -4.470038 6.083366 -6.083366 
C 4.470038 -7.696693 2.28159 -8.603178 0 -8.603178 
C -2.28159 -8.603178 -4.470038 -7.696693 -6.083366 -6.083366 
C -7.696693 -4.470038 -8.603178 -2.28159 -8.603178 0 
C -8.603178 2.28159 -7.696693 4.470038 -6.083366 6.083366 
C -4.470038 7.696693 -2.28159 8.603178 0 8.603178 
z
" style="stroke: #000000"/>
    </defs>
    <g clip-path="url(#pe911e72e78)">
     <use xlink:href="#mb518efb0bb" x="337.750059" y="234.107425" style="stroke: #000000"/>
    </g>
   </g>
   <g id="line2d_6">
    <defs>
     <path id="ma6a9bc7ac0" d="M 0 8.39696 
C 2.2269 8.39696 4.362892 7.512204 5.937548 5.937548 
C 7.512204 4.362892 8.39696 2.2269 8.39696 0 
C 8.39696 -2.2269 7.512204 -4.362892 5.937548 -5.937548 
C 4.362892 -7.512204 2.2269 -8.39696 0 -8.39696 
C -2.2269 -8.39696 -4.362892 -7.512204 -5.937548 -5.937548 
C -7.512204 -4.362892 -8.39696 -2.2269 -8.39696 0 
C -8.39696 2.2269 -7.512204 4.362892 -5.937548 5.937548 
C -4.362892 7.512204 -2.2269 8.39696 0 8.39696 
z
" style="stroke: #000000"/>
    </defs>
    <g clip-path="url(#pe911e72e78)">
     <use xlink:href="#ma6a9bc7ac0" x="434.685725" y="228.712623" style="stroke: #000000"/>
    </g>
   </g>
   <g id="line2d_7">
    <defs>
     <path id="mf25e3d080b" d="M 0 8.322928 
C 2.207266 8.322928 4.324426 7.445972 5.885199 5.885199 
C 7.445972 4.324426 8.322928 2.207266 8.322928 0 
C 8.322928 -2.207266 7.445972 -4.324426 5.885199 -5.885199 
C 4.324426 -7.445972 2.207266 -8.322928 0 -8.322928 
C -2.207266 -8.322928 -4.324426 -7.445972 -5.885199 -5.885199 
C -7.445972 -4.324426 -8.322928 -2.207266 -8.322928 0 
C -8.322928 2.207266 -7.445972 4.324426 -5.885199 5.885199 
C -4.324426 7.445972 -2.207266 8.322928 0 8.322928 
z
" style="stroke: #000000"/>
    </defs>
    <g clip-path="url(#pe911e72e78)">
     <use xlink:href="#mf25e3d080b" x="340.141398" y="299.912594" style="stroke: #000000"/>
    </g>
   </g>
   <g id="line2d_8">
    <defs>
     <path id="m3a5e3ac865" d="M 0 8.204753 
C 2.175926 8.204753 4.263025 7.340249 5.801637 5.801637 
C 7.340249 4.263025 8.204753 2.175926 8.204753 0 
C 8.204753 -2.175926 7.340249 -4.263025 5.801637 -5.801637 
C 4.263025 -7.340249 2.175926 -8.204753 0 -8.204753 
C -2.175926 -8.204753 -4.263025 -7.340249 -5.801637 -5.801637 
C -7.340249 -4.263025 -8.204753 -2.175926 -8.204753 0 
C -8.204753 2.175926 -7.340249 4.263025 -5.801637 5.801637 
C -4.263025 7.340249 -2.175926 8.204753 0 8.204753 
z
" style="stroke: #000000"/>
    </defs>
    <g clip-path="url(#pe911e72e78)">
     <use xlink:href="#m3a5e3ac865" x="418.409064" y="149.642885" style="stroke: #000000"/>
    </g>
   </g>
   <g id="line2d_9">
    <defs>
     <path id="m3ec85e9090" d="M 0 8.145207 
C 2.160134 8.145207 4.232086 7.286977 5.759531 5.759531 
C 7.286977 4.232086 8.145207 2.160134 8.145207 0 
C 8.145207 -2.160134 7.286977 -4.232086 5.759531 -5.759531 
C 4.232086 -7.286977 2.160134 -8.145207 0 -8.145207 
C -2.160134 -8.145207 -4.232086 -7.286977 -5.759531 -5.759531 
C -7.286977 -4.232086 -8.145207 -2.160134 -8.145207 0 
C -8.145207 2.160134 -7.286977 4.232086 -5.759531 5.759531 
C -4.232086 7.286977 -2.160134 8.145207 0 8.145207 
z
" style="stroke: #000000"/>
    </defs>
    <g clip-path="url(#pe911e72e78)">
     <use xlink:href="#m3ec85e9090" x="303.314275" y="307.8" style="stroke: #000000"/>
    </g>
   </g>
   <g id="line2d_10">
    <defs>
     <path id="mfde55ab702" d="M 0 8.021214 
C 2.127251 8.021214 4.167662 7.176049 5.671855 5.671855 
C 7.176049 4.167662 8.021214 2.127251 8.021214 0 
C 8.021214 -2.127251 7.176049 -4.167662 5.671855 -5.671855 
C 4.167662 -7.176049 2.127251 -8.021214 0 -8.021214 
C -2.127251 -8.021214 -4.167662 -7.176049 -5.671855 -5.671855 
C -7.176049 -4.167662 -8.021214 -2.127251 -8.021214 0 
C -8.021214 2.127251 -7.176049 4.167662 -5.671855 5.671855 
C -4.167662 7.176049 -2.127251 8.021214 0 8.021214 
z
" style="stroke: #000000"/>
    </defs>
    <g clip-path="url(#pe911e72e78)">
     <use xlink:href="#mfde55ab702" x="309.269131" y="55.8" style="stroke: #000000"/>
    </g>
   </g>
  </g>
 </g>
 <defs>
  <clipPath id="pe911e72e78">
   <path d="M 296.745702 320.4 
L 296.745702 43.2 
L 441.254298 43.2 
L 441.254298 320.4 
L 296.745702 320.4 
"/>
  </clipPath>
 </defs>
</svg>
