<?xml version="1.0" encoding="utf-8" standalone="no"?>
<!DOCTYPE svg PUBLIC "-//W3C//DTD SVG 1.1//EN"
  "http://www.w3.org/Graphics/SVG/1.1/DTD/svg11.dtd">
<svg xmlns:xlink="http://www.w3.org/1999/xlink" width="720pt" height="360pt" viewBox="0 0 720 360" xmlns="http://www.w3.org/2000/svg" version="1.1">
 <metadata>
  <rdf:RDF xmlns:dc="http://purl.org/dc/elements/1.1/" xmlns:cc="http://creativecommons.org/ns#" xmlns:rdf="http://www.w3.org/1999/02/22-rdf-syntax-ns#">
   <cc:Work>
    <dc:type rdf:resource="http://purl.org/dc/dcmitype/StillImage"/>
    <dc:date>2023-11-30T21:30:47.395104</dc:date>
    <dc:format>image/svg+xml</dc:format>
    <dc:creator>
     <cc:Agent>
      <dc:title>Matplotlib v3.8.1, https://matplotlib.org/</dc:title>
     </cc:Agent>
    </dc:creator>
   </cc:Work>
  </rdf:RDF>
 </metadata>
 <defs>
  <style type="text/css">*{stroke-linejoin: round; stroke-linecap: butt}</style>
 </defs>
 <g id="figure_1">
  <g id="patch_1">
   <path d="M 0 360 
L 720 360 
L 720 0 
L 0 0 
z
" style="fill: #ffffff"/>
  </g>
  <g id="axes_1">
   <g id="patch_2">
    <path d="M 288.478126 320.4 
L 288.478126 43.2 
L 449.521874 43.2 
L 449.521874 320.4 
L 288.478126 320.4 
" style="fill: #ffffff"/>
   </g>
   <g id="line2d_1">
    <defs>
     <path id="m17c4f67986" d="M 0 10.731589 
C 2.846051 10.731589 5.575918 9.600841 7.58838 7.58838 
C 9.600841 5.575918 10.731589 2.846051 10.731589 0 
C 10.731589 -2.846051 9.600841 -5.575918 7.58838 -7.58838 
C 5.575918 -9.600841 2.846051 -10.731589 0 -10.731589 
C -2.846051 -10.731589 -5.575918 -9.600841 -7.58838 -7.58838 
C -9.600841 -5.575918 -10.731589 -2.846051 -10.731589 0 
C -10.731589 2.846051 -9.600841 5.575918 -7.58838 7.58838 
C -5.575918 9.600841 -2.846051 10.731589 0 10.731589 
z
" style="stroke: #000000"/>
    </defs>
    <g clip-path="url(#pef255725a2)">
     <use xlink:href="#m17c4f67986" x="404.027592" y="229.33845" style="stroke: #000000"/>
    </g>
   </g>
   <g id="line2d_2">
    <defs>
     <path id="m287307bec1" d="M 0 10.164576 
C 2.695677 10.164576 5.281309 9.093572 7.18744 7.18744 
C 9.093572 5.281309 10.164576 2.695677 10.164576 0 
C 10.164576 -2.695677 9.093572 -5.281309 7.18744 -7.18744 
C 5.281309 -9.093572 2.695677 -10.164576 0 -10.164576 
C -2.695677 -10.164576 -5.281309 -9.093572 -7.18744 -7.18744 
C -9.093572 -5.281309 -10.164576 -2.695677 -10.164576 0 
C -10.164576 2.695677 -9.093572 5.281309 -7.18744 7.18744 
C -5.281309 9.093572 -2.695677 10.164576 0 10.164576 
z
" style="stroke: #000000"/>
    </defs>
    <g clip-path="url(#pef255725a2)">
     <use xlink:href="#m287307bec1" x="314.732034" y="170.893868" style="stroke: #000000"/>
    </g>
   </g>
   <g id="line2d_3">
    <defs>
     <path id="m5a0a91ad63" d="M 0 9.927502 
C 2.632804 9.927502 5.15813 8.881478 7.019804 7.019804 
C 8.881478 5.15813 9.927502 2.632804 9.927502 0 
C 9.927502 -2.632804 8.881478 -5.15813 7.019804 -7.019804 
C 5.15813 -8.881478 2.632804 -9.927502 0 -9.927502 
C -2.632804 -9.927502 -5.15813 -8.881478 -7.019804 -7.019804 
C -8.881478 -5.15813 -9.927502 -2.632804 -9.927502 0 
C -9.927502 2.632804 -8.881478 5.15813 -7.019804 7.019804 
C -5.15813 8.881478 -2.632804 9.927502 0 9.927502 
z
" style="stroke: #000000"/>
    </defs>
    <g clip-path="url(#pef255725a2)">
     <use xlink:href="#m5a0a91ad63" x="369.223861" y="198.634495" style="stroke: #000000"/>
    </g>
   </g>
   <g id="line2d_4">
    <defs>
     <path id="m1e91d5ebd5" d="M 0 9.589247 
C 2.543098 9.589247 4.98238 8.578864 6.780622 6.780622 
C 8.578864 4.98238 9.589247 2.543098 9.589247 0 
C 9.589247 -2.543098 8.578864 -4.98238 6.780622 -6.780622 
C 4.98238 -8.578864 2.543098 -9.589247 0 -9.589247 
C -2.543098 -9.589247 -4.98238 -8.578864 -6.780622 -6.780622 
C -8.578864 -4.98238 -9.589247 -2.543098 -9.589247 0 
C -9.589247 2.543098 -8.578864 4.98238 -6.780622 6.780622 
C -4.98238 8.578864 -2.543098 9.589247 0 9.589247 
z
" style="stroke: #000000"/>
    </defs>
    <g clip-path="url(#pef255725a2)">
     <use xlink:href="#m1e91d5ebd5" x="416.659674" y="293.746914" style="stroke: #000000"/>
    </g>
   </g>
   <g id="line2d_5">
    <defs>
     <path id="m1e19bf7446" d="M 0 9.533049 
C 2.528194 9.533049 4.95318 8.528586 6.740883 6.740883 
C 8.528586 4.95318 9.533049 2.528194 9.533049 0 
C 9.533049 -2.528194 8.528586 -4.95318 6.740883 -6.740883 
C 4.95318 -8.528586 2.528194 -9.533049 0 -9.533049 
C -2.528194 -9.533049 -4.95318 -8.528586 -6.740883 -6.740883 
C -8.528586 -4.95318 -9.533049 -2.528194 -9.533049 0 
C -9.533049 2.528194 -8.528586 4.95318 -6.740883 6.740883 
C -4.95318 8.528586 -2.528194 9.533049 0 9.533049 
z
" style="stroke: #000000"/>
    </defs>
    <g clip-path="url(#pef255725a2)">
     <use xlink:href="#m1e19bf7446" x="298.707108" y="90.446664" style="stroke: #000000"/>
    </g>
   </g>
   <g id="line2d_6">
    <defs>
     <path id="m37cfa5af7f" d="M 0 9.495024 
C 2.51811 9.495024 4.933423 8.494569 6.713996 6.713996 
C 8.494569 4.933423 9.495024 2.51811 9.495024 0 
C 9.495024 -2.51811 8.494569 -4.933423 6.713996 -6.713996 
C 4.933423 -8.494569 2.51811 -9.495024 0 -9.495024 
C -2.51811 -9.495024 -4.933423 -8.494569 -6.713996 -6.713996 
C -8.494569 -4.933423 -9.495024 -2.51811 -9.495024 0 
C -9.495024 2.51811 -8.494569 4.933423 -6.713996 6.713996 
C -4.933423 8.494569 -2.51811 9.495024 0 9.495024 
z
" style="stroke: #000000"/>
    </defs>
    <g clip-path="url(#pef255725a2)">
     <use xlink:href="#m37cfa5af7f" x="295.798296" y="55.8" style="stroke: #000000"/>
    </g>
   </g>
   <g id="line2d_7">
    <defs>
     <path id="m7a83efba35" d="M 0 9.288709 
C 2.463394 9.288709 4.826226 8.309992 6.568109 6.568109 
C 8.309992 4.826226 9.288709 2.463394 9.288709 0 
C 9.288709 -2.463394 8.309992 -4.826226 6.568109 -6.568109 
C 4.826226 -8.309992 2.463394 -9.288709 0 -9.288709 
C -2.463394 -9.288709 -4.826226 -8.309992 -6.568109 -6.568109 
C -8.309992 -4.826226 -9.288709 -2.463394 -9.288709 0 
C -9.288709 2.463394 -8.309992 4.826226 -6.568109 6.568109 
C -4.826226 8.309992 -2.463394 9.288709 0 9.288709 
z
" style="stroke: #000000"/>
    </defs>
    <g clip-path="url(#pef255725a2)">
     <use xlink:href="#m7a83efba35" x="368.156712" y="175.120697" style="stroke: #000000"/>
    </g>
   </g>
   <g id="line2d_8">
    <defs>
     <path id="m1d0d728366" d="M 0 9.200904 
C 2.440108 9.200904 4.780605 8.231439 6.506022 6.506022 
C 8.231439 4.780605 9.200904 2.440108 9.200904 0 
C 9.200904 -2.440108 8.231439 -4.780605 6.506022 -6.506022 
C 4.780605 -8.231439 2.440108 -9.200904 0 -9.200904 
C -2.440108 -9.200904 -4.780605 -8.231439 -6.506022 -6.506022 
C -8.231439 -4.780605 -9.200904 -2.440108 -9.200904 0 
C -9.200904 2.440108 -8.231439 4.780605 -6.506022 6.506022 
C -4.780605 8.231439 -2.440108 9.200904 0 9.200904 
z
" style="stroke: #000000"/>
    </defs>
    <g clip-path="url(#pef255725a2)">
     <use xlink:href="#m1d0d728366" x="396.993733" y="101.517392" style="stroke: #000000"/>
    </g>
   </g>
   <g id="line2d_9">
    <defs>
     <path id="mf9451d49d5" d="M 0 9.111291 
C 2.416343 9.111291 4.734044 8.151268 6.442656 6.442656 
C 8.151268 4.734044 9.111291 2.416343 9.111291 0 
C 9.111291 -2.416343 8.151268 -4.734044 6.442656 -6.442656 
C 4.734044 -8.151268 2.416343 -9.111291 0 -9.111291 
C -2.416343 -9.111291 -4.734044 -8.151268 -6.442656 -6.442656 
C -8.151268 -4.734044 -9.111291 -2.416343 -9.111291 0 
C -9.111291 2.416343 -8.151268 4.734044 -6.442656 6.442656 
C -4.734044 8.151268 -2.416343 9.111291 0 9.111291 
z
" style="stroke: #000000"/>
    </defs>
    <g clip-path="url(#pef255725a2)">
     <use xlink:href="#mf9451d49d5" x="442.201704" y="99.780192" style="stroke: #000000"/>
    </g>
   </g>
   <g id="line2d_10">
    <defs>
     <path id="meba7612866" d="M 0 9.095139 
C 2.412059 9.095139 4.725651 8.136818 6.431234 6.431234 
C 8.136818 4.725651 9.095139 2.412059 9.095139 0 
C 9.095139 -2.412059 8.136818 -4.725651 6.431234 -6.431234 
C 4.725651 -8.136818 2.412059 -9.095139 0 -9.095139 
C -2.412059 -9.095139 -4.725651 -8.136818 -6.431234 -6.431234 
C -8.136818 -4.725651 -9.095139 -2.412059 -9.095139 0 
C -9.095139 2.412059 -8.136818 4.725651 -6.431234 6.431234 
C -4.725651 8.136818 -2.412059 9.095139 0 9.095139 
z
" style="stroke: #000000"/>
    </defs>
    <g clip-path="url(#pef255725a2)">
     <use xlink:href="#meba7612866" x="344.097398" y="307.8" style="stroke: #000000"/>
    </g>
   </g>
  </g>
 </g>
 <defs>
  <clipPath id="pef255725a2">
   <path d="M 288.478126 320.4 
L 288.478126 43.2 
L 449.521874 43.2 
L 449.521874 320.4 
L 288.478126 320.4 
"/>
  </clipPath>
 </defs>
</svg>
