<?xml version="1.0" encoding="utf-8" standalone="no"?>
<!DOCTYPE svg PUBLIC "-//W3C//DTD SVG 1.1//EN"
  "http://www.w3.org/Graphics/SVG/1.1/DTD/svg11.dtd">
<svg xmlns:xlink="http://www.w3.org/1999/xlink" width="175.443748pt" height="291.6pt" viewBox="0 0 175.443748 291.6" xmlns="http://www.w3.org/2000/svg" version="1.1">
 <metadata>
  <rdf:RDF xmlns:dc="http://purl.org/dc/elements/1.1/" xmlns:cc="http://creativecommons.org/ns#" xmlns:rdf="http://www.w3.org/1999/02/22-rdf-syntax-ns#">
   <cc:Work>
    <dc:type rdf:resource="http://purl.org/dc/dcmitype/StillImage"/>
    <dc:date>2023-11-30T20:45:54.270484</dc:date>
    <dc:format>image/svg+xml</dc:format>
    <dc:creator>
     <cc:Agent>
      <dc:title>Matplotlib v3.8.1, https://matplotlib.org/</dc:title>
     </cc:Agent>
    </dc:creator>
   </cc:Work>
  </rdf:RDF>
 </metadata>
 <defs>
  <style type="text/css">*{stroke-linejoin: round; stroke-linecap: butt}</style>
 </defs>
 <g id="figure_1">
  <g id="patch_1">
   <path d="M 0 291.6 
L 175.443748 291.6 
L 175.443748 0 
L 0 0 
z
" style="fill: #ffffff"/>
  </g>
  <g id="axes_1">
   <g id="patch_2">
    <path d="M 7.2 284.4 
L 7.2 7.2 
L 168.243748 7.2 
L 168.243748 284.4 
L 7.2 284.4 
" style="fill: #ffffff"/>
   </g>
   <g id="line2d_1">
    <defs>
     <path id="ma1a6139fa6" d="M 0 3 
C 0.795609 3 1.55874 2.683901 2.12132 2.12132 
C 2.683901 1.55874 3 0.795609 3 0 
C 3 -0.795609 2.683901 -1.55874 2.12132 -2.12132 
C 1.55874 -2.683901 0.795609 -3 0 -3 
C -0.795609 -3 -1.55874 -2.683901 -2.12132 -2.12132 
C -2.683901 -1.55874 -3 -0.795609 -3 0 
C -3 0.795609 -2.683901 1.55874 -2.12132 2.12132 
C -1.55874 2.683901 -0.795609 3 0 3 
z
" style="stroke: #000000"/>
    </defs>
    <g clip-path="url(#p1875b67404)">
     <use xlink:href="#ma1a6139fa6" x="122.749466" y="193.33845" style="stroke: #000000"/>
    </g>
   </g>
   <g id="line2d_2">
    <g clip-path="url(#p1875b67404)">
     <use xlink:href="#ma1a6139fa6" x="33.453908" y="134.893868" style="stroke: #000000"/>
    </g>
   </g>
   <g id="line2d_3">
    <g clip-path="url(#p1875b67404)">
     <use xlink:href="#ma1a6139fa6" x="87.945735" y="162.634495" style="stroke: #000000"/>
    </g>
   </g>
   <g id="line2d_4">
    <g clip-path="url(#p1875b67404)">
     <use xlink:href="#ma1a6139fa6" x="135.381548" y="257.746914" style="stroke: #000000"/>
    </g>
   </g>
   <g id="line2d_5">
    <g clip-path="url(#p1875b67404)">
     <use xlink:href="#ma1a6139fa6" x="17.428982" y="54.446664" style="stroke: #000000"/>
    </g>
   </g>
   <g id="line2d_6">
    <g clip-path="url(#p1875b67404)">
     <use xlink:href="#ma1a6139fa6" x="14.52017" y="19.8" style="stroke: #000000"/>
    </g>
   </g>
   <g id="line2d_7">
    <g clip-path="url(#p1875b67404)">
     <use xlink:href="#ma1a6139fa6" x="86.878587" y="139.120697" style="stroke: #000000"/>
    </g>
   </g>
   <g id="line2d_8">
    <g clip-path="url(#p1875b67404)">
     <use xlink:href="#ma1a6139fa6" x="115.715607" y="65.517392" style="stroke: #000000"/>
    </g>
   </g>
   <g id="line2d_9">
    <g clip-path="url(#p1875b67404)">
     <use xlink:href="#ma1a6139fa6" x="160.923578" y="63.780192" style="stroke: #000000"/>
    </g>
   </g>
   <g id="line2d_10">
    <g clip-path="url(#p1875b67404)">
     <use xlink:href="#ma1a6139fa6" x="62.819272" y="271.8" style="stroke: #000000"/>
    </g>
   </g>
  </g>
 </g>
 <defs>
  <clipPath id="p1875b67404">
   <path d="M 7.2 284.4 
L 7.2 7.2 
L 168.243748 7.2 
L 168.243748 284.4 
L 7.2 284.4 
"/>
  </clipPath>
 </defs>
</svg>
