<?xml version="1.0" encoding="utf-8" standalone="no"?>
<!DOCTYPE svg PUBLIC "-//W3C//DTD SVG 1.1//EN"
  "http://www.w3.org/Graphics/SVG/1.1/DTD/svg11.dtd">
<svg xmlns:xlink="http://www.w3.org/1999/xlink" width="720pt" height="360pt" viewBox="0 0 720 360" xmlns="http://www.w3.org/2000/svg" version="1.1">
 <metadata>
  <rdf:RDF xmlns:dc="http://purl.org/dc/elements/1.1/" xmlns:cc="http://creativecommons.org/ns#" xmlns:rdf="http://www.w3.org/1999/02/22-rdf-syntax-ns#">
   <cc:Work>
    <dc:type rdf:resource="http://purl.org/dc/dcmitype/StillImage"/>
    <dc:date>2023-11-30T21:30:47.436572</dc:date>
    <dc:format>image/svg+xml</dc:format>
    <dc:creator>
     <cc:Agent>
      <dc:title>Matplotlib v3.8.1, https://matplotlib.org/</dc:title>
     </cc:Agent>
    </dc:creator>
   </cc:Work>
  </rdf:RDF>
 </metadata>
 <defs>
  <style type="text/css">*{stroke-linejoin: round; stroke-linecap: butt}</style>
 </defs>
 <g id="figure_1">
  <g id="patch_1">
   <path d="M 0 360 
L 720 360 
L 720 0 
L 0 0 
z
" style="fill: #ffffff"/>
  </g>
  <g id="axes_1">
   <g id="patch_2">
    <path d="M 157.231415 320.4 
L 157.231415 43.2 
L 580.768585 43.2 
L 580.768585 320.4 
L 157.231415 320.4 
" style="fill: #ffffff"/>
   </g>
   <g id="line2d_1">
    <defs>
     <path id="m473d51cb04" d="M 0 6.744736 
C 1.788725 6.744736 3.504429 6.034068 4.769248 4.769248 
C 6.034068 3.504429 6.744736 1.788725 6.744736 0 
C 6.744736 -1.788725 6.034068 -3.504429 4.769248 -4.769248 
C 3.504429 -6.034068 1.788725 -6.744736 0 -6.744736 
C -1.788725 -6.744736 -3.504429 -6.034068 -4.769248 -4.769248 
C -6.034068 -3.504429 -6.744736 -1.788725 -6.744736 0 
C -6.744736 1.788725 -6.034068 3.504429 -4.769248 4.769248 
C -3.504429 6.034068 -1.788725 6.744736 0 6.744736 
z
" style="stroke: #000000"/>
    </defs>
    <g clip-path="url(#p18daef4cd2)">
     <use xlink:href="#m473d51cb04" x="438.767703" y="62.156794" style="stroke: #000000"/>
    </g>
   </g>
   <g id="line2d_2">
    <defs>
     <path id="m80200c0937" d="M 0 6.4819 
C 1.71902 6.4819 3.367865 5.798926 4.583395 4.583395 
C 5.798926 3.367865 6.4819 1.71902 6.4819 0 
C 6.4819 -1.71902 5.798926 -3.367865 4.583395 -4.583395 
C 3.367865 -5.798926 1.71902 -6.4819 0 -6.4819 
C -1.71902 -6.4819 -3.367865 -5.798926 -4.583395 -4.583395 
C -5.798926 -3.367865 -6.4819 -1.71902 -6.4819 0 
C -6.4819 1.71902 -5.798926 3.367865 -4.583395 4.583395 
C -3.367865 5.798926 -1.71902 6.4819 0 6.4819 
z
" style="stroke: #000000"/>
    </defs>
    <g clip-path="url(#p18daef4cd2)">
     <use xlink:href="#m80200c0937" x="383.131576" y="250.506216" style="stroke: #000000"/>
    </g>
   </g>
   <g id="line2d_3">
    <defs>
     <path id="mbc4cc51972" d="M 0 5.992031 
C 1.589105 5.992031 3.113339 5.360673 4.237006 4.237006 
C 5.360673 3.113339 5.992031 1.589105 5.992031 0 
C 5.992031 -1.589105 5.360673 -3.113339 4.237006 -4.237006 
C 3.113339 -5.360673 1.589105 -5.992031 0 -5.992031 
C -1.589105 -5.992031 -3.113339 -5.360673 -4.237006 -4.237006 
C -5.360673 -3.113339 -5.992031 -1.589105 -5.992031 0 
C -5.992031 1.589105 -5.360673 3.113339 -4.237006 4.237006 
C -3.113339 5.360673 -1.589105 5.992031 0 5.992031 
z
" style="stroke: #000000"/>
    </defs>
    <g clip-path="url(#p18daef4cd2)">
     <use xlink:href="#mbc4cc51972" x="176.483105" y="276.7884" style="stroke: #000000"/>
    </g>
   </g>
   <g id="line2d_4">
    <defs>
     <path id="m769e34ea87" d="M 0 5.822153 
C 1.544053 5.822153 3.025074 5.208695 4.116884 4.116884 
C 5.208695 3.025074 5.822153 1.544053 5.822153 0 
C 5.822153 -1.544053 5.208695 -3.025074 4.116884 -4.116884 
C 3.025074 -5.208695 1.544053 -5.822153 0 -5.822153 
C -1.544053 -5.822153 -3.025074 -5.208695 -4.116884 -4.116884 
C -5.208695 -3.025074 -5.822153 -1.544053 -5.822153 0 
C -5.822153 1.544053 -5.208695 3.025074 -4.116884 4.116884 
C -3.025074 5.208695 -1.544053 5.822153 0 5.822153 
z
" style="stroke: #000000"/>
    </defs>
    <g clip-path="url(#p18daef4cd2)">
     <use xlink:href="#m769e34ea87" x="305.431751" y="239.647976" style="stroke: #000000"/>
    </g>
   </g>
   <g id="line2d_5">
    <defs>
     <path id="m853a4c8c0e" d="M 0 5.526624 
C 1.465678 5.526624 2.871522 4.944304 3.907913 3.907913 
C 4.944304 2.871522 5.526624 1.465678 5.526624 0 
C 5.526624 -1.465678 4.944304 -2.871522 3.907913 -3.907913 
C 2.871522 -4.944304 1.465678 -5.526624 0 -5.526624 
C -1.465678 -5.526624 -2.871522 -4.944304 -3.907913 -3.907913 
C -4.944304 -2.871522 -5.526624 -1.465678 -5.526624 0 
C -5.526624 1.465678 -4.944304 2.871522 -3.907913 3.907913 
C -2.871522 4.944304 -1.465678 5.526624 0 5.526624 
z
" style="stroke: #000000"/>
    </defs>
    <g clip-path="url(#p18daef4cd2)">
     <use xlink:href="#m853a4c8c0e" x="561.516895" y="55.8" style="stroke: #000000"/>
    </g>
   </g>
   <g id="line2d_6">
    <defs>
     <path id="m973db7f431" d="M 0 5.501759 
C 1.459084 5.501759 2.858603 4.922059 3.890331 3.890331 
C 4.922059 2.858603 5.501759 1.459084 5.501759 0 
C 5.501759 -1.459084 4.922059 -2.858603 3.890331 -3.890331 
C 2.858603 -4.922059 1.459084 -5.501759 0 -5.501759 
C -1.459084 -5.501759 -2.858603 -4.922059 -3.890331 -3.890331 
C -4.922059 -2.858603 -5.501759 -1.459084 -5.501759 0 
C -5.501759 1.459084 -4.922059 2.858603 -3.890331 3.890331 
C -2.858603 4.922059 -1.459084 5.501759 0 5.501759 
z
" style="stroke: #000000"/>
    </defs>
    <g clip-path="url(#p18daef4cd2)">
     <use xlink:href="#m973db7f431" x="278.917162" y="233.322229" style="stroke: #000000"/>
    </g>
   </g>
   <g id="line2d_7">
    <defs>
     <path id="m3eebce0b83" d="M 0 5.434025 
C 1.44112 5.434025 2.82341 4.861462 3.842436 3.842436 
C 4.861462 2.82341 5.434025 1.44112 5.434025 0 
C 5.434025 -1.44112 4.861462 -2.82341 3.842436 -3.842436 
C 2.82341 -4.861462 1.44112 -5.434025 0 -5.434025 
C -1.44112 -5.434025 -2.82341 -4.861462 -3.842436 -3.842436 
C -4.861462 -2.82341 -5.434025 -1.44112 -5.434025 0 
C -5.434025 1.44112 -4.861462 2.82341 -3.842436 3.842436 
C -2.82341 4.861462 -1.44112 5.434025 0 5.434025 
z
" style="stroke: #000000"/>
    </defs>
    <g clip-path="url(#p18daef4cd2)">
     <use xlink:href="#m3eebce0b83" x="478.507794" y="76.630933" style="stroke: #000000"/>
    </g>
   </g>
   <g id="line2d_8">
    <defs>
     <path id="m9723c159b1" d="M 0 5.244422 
C 1.390837 5.244422 2.724896 4.691837 3.708366 3.708366 
C 4.691837 2.724896 5.244422 1.390837 5.244422 0 
C 5.244422 -1.390837 4.691837 -2.724896 3.708366 -3.708366 
C 2.724896 -4.691837 1.390837 -5.244422 0 -5.244422 
C -1.390837 -5.244422 -2.724896 -4.691837 -3.708366 -3.708366 
C -4.691837 -2.724896 -5.244422 -1.390837 -5.244422 0 
C -5.244422 1.390837 -4.691837 2.724896 -3.708366 3.708366 
C -2.724896 4.691837 -1.390837 5.244422 0 5.244422 
z
" style="stroke: #000000"/>
    </defs>
    <g clip-path="url(#p18daef4cd2)">
     <use xlink:href="#m9723c159b1" x="326.033014" y="305.158582" style="stroke: #000000"/>
    </g>
   </g>
   <g id="line2d_9">
    <defs>
     <path id="mfd26672ce2" d="M 0 5.150748 
C 1.365994 5.150748 2.676225 4.608033 3.642129 3.642129 
C 4.608033 2.676225 5.150748 1.365994 5.150748 0 
C 5.150748 -1.365994 4.608033 -2.676225 3.642129 -3.642129 
C 2.676225 -4.608033 1.365994 -5.150748 0 -5.150748 
C -1.365994 -5.150748 -2.676225 -4.608033 -3.642129 -3.642129 
C -4.608033 -2.676225 -5.150748 -1.365994 -5.150748 0 
C -5.150748 1.365994 -4.608033 2.676225 -3.642129 3.642129 
C -2.676225 4.608033 -1.365994 5.150748 0 5.150748 
z
" style="stroke: #000000"/>
    </defs>
    <g clip-path="url(#p18daef4cd2)">
     <use xlink:href="#mfd26672ce2" x="338.972387" y="207.954585" style="stroke: #000000"/>
    </g>
   </g>
   <g id="line2d_10">
    <defs>
     <path id="macc6baa997" d="M 0 5.080566 
C 1.347382 5.080566 2.63976 4.545245 3.592503 3.592503 
C 4.545245 2.63976 5.080566 1.347382 5.080566 0 
C 5.080566 -1.347382 4.545245 -2.63976 3.592503 -3.592503 
C 2.63976 -4.545245 1.347382 -5.080566 0 -5.080566 
C -1.347382 -5.080566 -2.63976 -4.545245 -3.592503 -3.592503 
C -4.545245 -2.63976 -5.080566 -1.347382 -5.080566 0 
C -5.080566 1.347382 -4.545245 2.63976 -3.592503 3.592503 
C -2.63976 4.545245 -1.347382 5.080566 0 5.080566 
z
" style="stroke: #000000"/>
    </defs>
    <g clip-path="url(#p18daef4cd2)">
     <use xlink:href="#macc6baa997" x="189.835775" y="307.8" style="stroke: #000000"/>
    </g>
   </g>
  </g>
 </g>
 <defs>
  <clipPath id="p18daef4cd2">
   <path d="M 157.231415 320.4 
L 157.231415 43.2 
L 580.768585 43.2 
L 580.768585 320.4 
L 157.231415 320.4 
"/>
  </clipPath>
 </defs>
</svg>
