<?xml version="1.0" encoding="utf-8" standalone="no"?>
<!DOCTYPE svg PUBLIC "-//W3C//DTD SVG 1.1//EN"
  "http://www.w3.org/Graphics/SVG/1.1/DTD/svg11.dtd">
<svg xmlns:xlink="http://www.w3.org/1999/xlink" width="720pt" height="360pt" viewBox="0 0 720 360" xmlns="http://www.w3.org/2000/svg" version="1.1">
 <metadata>
  <rdf:RDF xmlns:dc="http://purl.org/dc/elements/1.1/" xmlns:cc="http://creativecommons.org/ns#" xmlns:rdf="http://www.w3.org/1999/02/22-rdf-syntax-ns#">
   <cc:Work>
    <dc:type rdf:resource="http://purl.org/dc/dcmitype/StillImage"/>
    <dc:date>2023-11-30T21:30:47.479124</dc:date>
    <dc:format>image/svg+xml</dc:format>
    <dc:creator>
     <cc:Agent>
      <dc:title>Matplotlib v3.8.1, https://matplotlib.org/</dc:title>
     </cc:Agent>
    </dc:creator>
   </cc:Work>
  </rdf:RDF>
 </metadata>
 <defs>
  <style type="text/css">*{stroke-linejoin: round; stroke-linecap: butt}</style>
 </defs>
 <g id="figure_1">
  <g id="patch_1">
   <path d="M 0 360 
L 720 360 
L 720 0 
L 0 0 
z
" style="fill: #ffffff"/>
  </g>
  <g id="axes_1">
   <g id="patch_2">
    <path d="M 90 282.929187 
L 90 80.670813 
L 648 80.670813 
L 648 282.929187 
L 90 282.929187 
" style="fill: #ffffff"/>
   </g>
   <g id="line2d_1">
    <defs>
     <path id="m32d8bec668" d="M 0 10.344923 
C 2.743506 10.344923 5.375014 9.254916 7.314965 7.314965 
C 9.254916 5.375014 10.344923 2.743506 10.344923 0 
C 10.344923 -2.743506 9.254916 -5.375014 7.314965 -7.314965 
C 5.375014 -9.254916 2.743506 -10.344923 0 -10.344923 
C -2.743506 -10.344923 -5.375014 -9.254916 -7.314965 -7.314965 
C -9.254916 -5.375014 -10.344923 -2.743506 -10.344923 0 
C -10.344923 2.743506 -9.254916 5.375014 -7.314965 7.314965 
C -5.375014 9.254916 -2.743506 10.344923 0 10.344923 
z
" style="stroke: #000000"/>
    </defs>
    <g clip-path="url(#p7a68b211be)">
     <use xlink:href="#m32d8bec668" x="613.829782" y="104.546011" style="stroke: #000000"/>
    </g>
   </g>
   <g id="line2d_2">
    <defs>
     <path id="mf1ec3417c2" d="M 0 9.086216 
C 2.409693 9.086216 4.721015 8.128835 6.424925 6.424925 
C 8.128835 4.721015 9.086216 2.409693 9.086216 0 
C 9.086216 -2.409693 8.128835 -4.721015 6.424925 -6.424925 
C 4.721015 -8.128835 2.409693 -9.086216 0 -9.086216 
C -2.409693 -9.086216 -4.721015 -8.128835 -6.424925 -6.424925 
C -8.128835 -4.721015 -9.086216 -2.409693 -9.086216 0 
C -9.086216 2.409693 -8.128835 4.721015 -6.424925 6.424925 
C -4.721015 8.128835 -2.409693 9.086216 0 9.086216 
z
" style="stroke: #000000"/>
    </defs>
    <g clip-path="url(#p7a68b211be)">
     <use xlink:href="#mf1ec3417c2" x="521.489858" y="273.735625" style="stroke: #000000"/>
    </g>
   </g>
   <g id="line2d_3">
    <defs>
     <path id="m89bcf28840" d="M 0 8.822094 
C 2.339647 8.822094 4.583782 7.892542 6.238162 6.238162 
C 7.892542 4.583782 8.822094 2.339647 8.822094 0 
C 8.822094 -2.339647 7.892542 -4.583782 6.238162 -6.238162 
C 4.583782 -7.892542 2.339647 -8.822094 0 -8.822094 
C -2.339647 -8.822094 -4.583782 -7.892542 -6.238162 -6.238162 
C -7.892542 -4.583782 -8.822094 -2.339647 -8.822094 0 
C -8.822094 2.339647 -7.892542 4.583782 -6.238162 6.238162 
C -4.583782 7.892542 -2.339647 8.822094 0 8.822094 
z
" style="stroke: #000000"/>
    </defs>
    <g clip-path="url(#p7a68b211be)">
     <use xlink:href="#m89bcf28840" x="404.934338" y="89.864375" style="stroke: #000000"/>
    </g>
   </g>
   <g id="line2d_4">
    <defs>
     <path id="m6b236e600d" d="M 0 8.81158 
C 2.336858 8.81158 4.57832 7.883136 6.230728 6.230728 
C 7.883136 4.57832 8.81158 2.336858 8.81158 0 
C 8.81158 -2.336858 7.883136 -4.57832 6.230728 -6.230728 
C 4.57832 -7.883136 2.336858 -8.81158 0 -8.81158 
C -2.336858 -8.81158 -4.57832 -7.883136 -6.230728 -6.230728 
C -7.883136 -4.57832 -8.81158 -2.336858 -8.81158 0 
C -8.81158 2.336858 -7.883136 4.57832 -6.230728 6.230728 
C -4.57832 7.883136 -2.336858 8.81158 0 8.81158 
z
" style="stroke: #000000"/>
    </defs>
    <g clip-path="url(#p7a68b211be)">
     <use xlink:href="#m6b236e600d" x="614.856248" y="111.633761" style="stroke: #000000"/>
    </g>
   </g>
   <g id="line2d_5">
    <defs>
     <path id="m3dfa12672f" d="M 0 8.75637 
C 2.322217 8.75637 4.549634 7.833744 6.191689 6.191689 
C 7.833744 4.549634 8.75637 2.322217 8.75637 0 
C 8.75637 -2.322217 7.833744 -4.549634 6.191689 -6.191689 
C 4.549634 -7.833744 2.322217 -8.75637 0 -8.75637 
C -2.322217 -8.75637 -4.549634 -7.833744 -6.191689 -6.191689 
C -7.833744 -4.549634 -8.75637 -2.322217 -8.75637 0 
C -8.75637 2.322217 -7.833744 4.549634 -6.191689 6.191689 
C -4.549634 7.833744 -2.322217 8.75637 0 8.75637 
z
" style="stroke: #000000"/>
    </defs>
    <g clip-path="url(#p7a68b211be)">
     <use xlink:href="#m3dfa12672f" x="622.636364" y="100.828038" style="stroke: #000000"/>
    </g>
   </g>
   <g id="line2d_6">
    <defs>
     <path id="m427c4f7009" d="M 0 8.656282 
C 2.295673 8.656282 4.49763 7.744201 6.120916 6.120916 
C 7.744201 4.49763 8.656282 2.295673 8.656282 0 
C 8.656282 -2.295673 7.744201 -4.49763 6.120916 -6.120916 
C 4.49763 -7.744201 2.295673 -8.656282 0 -8.656282 
C -2.295673 -8.656282 -4.49763 -7.744201 -6.120916 -6.120916 
C -7.744201 -4.49763 -8.656282 -2.295673 -8.656282 0 
C -8.656282 2.295673 -7.744201 4.49763 -6.120916 6.120916 
C -4.49763 7.744201 -2.295673 8.656282 0 8.656282 
z
" style="stroke: #000000"/>
    </defs>
    <g clip-path="url(#p7a68b211be)">
     <use xlink:href="#m427c4f7009" x="616.625776" y="98.32439" style="stroke: #000000"/>
    </g>
   </g>
   <g id="line2d_7">
    <defs>
     <path id="m98e154d15f" d="M 0 8.631332 
C 2.289056 8.631332 4.484666 7.72188 6.103273 6.103273 
C 7.72188 4.484666 8.631332 2.289056 8.631332 0 
C 8.631332 -2.289056 7.72188 -4.484666 6.103273 -6.103273 
C 4.484666 -7.72188 2.289056 -8.631332 0 -8.631332 
C -2.289056 -8.631332 -4.484666 -7.72188 -6.103273 -6.103273 
C -7.72188 -4.484666 -8.631332 -2.289056 -8.631332 0 
C -8.631332 2.289056 -7.72188 4.484666 -6.103273 6.103273 
C -4.484666 7.72188 -2.289056 8.631332 0 8.631332 
z
" style="stroke: #000000"/>
    </defs>
    <g clip-path="url(#p7a68b211be)">
     <use xlink:href="#m98e154d15f" x="280.544626" y="165.590492" style="stroke: #000000"/>
    </g>
   </g>
   <g id="line2d_8">
    <defs>
     <path id="m09efacd67d" d="M 0 8.507784 
C 2.256291 8.507784 4.420473 7.61135 6.015912 6.015912 
C 7.61135 4.420473 8.507784 2.256291 8.507784 0 
C 8.507784 -2.256291 7.61135 -4.420473 6.015912 -6.015912 
C 4.420473 -7.61135 2.256291 -8.507784 0 -8.507784 
C -2.256291 -8.507784 -4.420473 -7.61135 -6.015912 -6.015912 
C -7.61135 -4.420473 -8.507784 -2.256291 -8.507784 0 
C -8.507784 2.256291 -7.61135 4.420473 -6.015912 6.015912 
C -4.420473 7.61135 -2.256291 8.507784 0 8.507784 
z
" style="stroke: #000000"/>
    </defs>
    <g clip-path="url(#p7a68b211be)">
     <use xlink:href="#m09efacd67d" x="115.363636" y="244.957424" style="stroke: #000000"/>
    </g>
   </g>
   <g id="line2d_9">
    <defs>
     <path id="mcac5f85517" d="M 0 8.337455 
C 2.211119 8.337455 4.331974 7.458968 5.895471 5.895471 
C 7.458968 4.331974 8.337455 2.211119 8.337455 0 
C 8.337455 -2.211119 7.458968 -4.331974 5.895471 -5.895471 
C 4.331974 -7.458968 2.211119 -8.337455 0 -8.337455 
C -2.211119 -8.337455 -4.331974 -7.458968 -5.895471 -5.895471 
C -7.458968 -4.331974 -8.337455 -2.211119 -8.337455 0 
C -8.337455 2.211119 -7.458968 4.331974 -5.895471 5.895471 
C -4.331974 7.458968 -2.211119 8.337455 0 8.337455 
z
" style="stroke: #000000"/>
    </defs>
    <g clip-path="url(#p7a68b211be)">
     <use xlink:href="#mcac5f85517" x="606.611469" y="103.320374" style="stroke: #000000"/>
    </g>
   </g>
   <g id="line2d_10">
    <defs>
     <path id="m9ad9694269" d="M 0 8.314998 
C 2.205163 8.314998 4.320306 7.438878 5.879592 5.879592 
C 7.438878 4.320306 8.314998 2.205163 8.314998 0 
C 8.314998 -2.205163 7.438878 -4.320306 5.879592 -5.879592 
C 4.320306 -7.438878 2.205163 -8.314998 0 -8.314998 
C -2.205163 -8.314998 -4.320306 -7.438878 -5.879592 -5.879592 
C -7.438878 -4.320306 -8.314998 -2.205163 -8.314998 0 
C -8.314998 2.205163 -7.438878 4.320306 -5.879592 5.879592 
C -4.320306 7.438878 -2.205163 8.314998 0 8.314998 
z
" style="stroke: #000000"/>
    </defs>
    <g clip-path="url(#p7a68b211be)">
     <use xlink:href="#m9ad9694269" x="619.963545" y="108.314584" style="stroke: #000000"/>
    </g>
   </g>
  </g>
 </g>
 <defs>
  <clipPath id="p7a68b211be">
   <path d="M 90 282.929187 
L 90 80.670813 
L 648 80.670813 
L 648 282.929187 
L 90 282.929187 
"/>
  </clipPath>
 </defs>
</svg>
