<?xml version="1.0" encoding="utf-8" standalone="no"?>
<!DOCTYPE svg PUBLIC "-//W3C//DTD SVG 1.1//EN"
  "http://www.w3.org/Graphics/SVG/1.1/DTD/svg11.dtd">
<svg xmlns:xlink="http://www.w3.org/1999/xlink" width="720pt" height="360pt" viewBox="0 0 720 360" xmlns="http://www.w3.org/2000/svg" version="1.1">
 <metadata>
  <rdf:RDF xmlns:dc="http://purl.org/dc/elements/1.1/" xmlns:cc="http://creativecommons.org/ns#" xmlns:rdf="http://www.w3.org/1999/02/22-rdf-syntax-ns#">
   <cc:Work>
    <dc:type rdf:resource="http://purl.org/dc/dcmitype/StillImage"/>
    <dc:date>2023-11-30T21:30:46.950047</dc:date>
    <dc:format>image/svg+xml</dc:format>
    <dc:creator>
     <cc:Agent>
      <dc:title>Matplotlib v3.8.1, https://matplotlib.org/</dc:title>
     </cc:Agent>
    </dc:creator>
   </cc:Work>
  </rdf:RDF>
 </metadata>
 <defs>
  <style type="text/css">*{stroke-linejoin: round; stroke-linecap: butt}</style>
 </defs>
 <g id="figure_1">
  <g id="patch_1">
   <path d="M 0 360 
L 720 360 
L 720 0 
L 0 0 
z
" style="fill: #ffffff"/>
  </g>
  <g id="axes_1">
   <g id="patch_2">
    <path d="M 90 272.835906 
L 90 90.764094 
L 648 90.764094 
L 648 272.835906 
L 90 272.835906 
" style="fill: #ffffff"/>
   </g>
   <g id="line2d_1">
    <defs>
     <path id="ma1674f9e6a" d="M 0 11.159348 
C 2.959494 11.159348 5.798173 9.983529 7.890851 7.890851 
C 9.983529 5.798173 11.159348 2.959494 11.159348 0 
C 11.159348 -2.959494 9.983529 -5.798173 7.890851 -7.890851 
C 5.798173 -9.983529 2.959494 -11.159348 0 -11.159348 
C -2.959494 -11.159348 -5.798173 -9.983529 -7.890851 -7.890851 
C -9.983529 -5.798173 -11.159348 -2.959494 -11.159348 0 
C -11.159348 2.959494 -9.983529 5.798173 -7.890851 7.890851 
C -5.798173 9.983529 -2.959494 11.159348 0 11.159348 
z
" style="stroke: #000000"/>
    </defs>
    <g clip-path="url(#p44a29810bb)">
     <use xlink:href="#ma1674f9e6a" x="592.613288" y="199.095351" style="stroke: #000000"/>
    </g>
   </g>
   <g id="line2d_2">
    <defs>
     <path id="m2a5c937361" d="M 0 11.114784 
C 2.947675 11.114784 5.775018 9.94366 7.859339 7.859339 
C 9.94366 5.775018 11.114784 2.947675 11.114784 0 
C 11.114784 -2.947675 9.94366 -5.775018 7.859339 -7.859339 
C 5.775018 -9.94366 2.947675 -11.114784 0 -11.114784 
C -2.947675 -11.114784 -5.775018 -9.94366 -7.859339 -7.859339 
C -9.94366 -5.775018 -11.114784 -2.947675 -11.114784 0 
C -11.114784 2.947675 -9.94366 5.775018 -7.859339 7.859339 
C -5.775018 9.94366 -2.947675 11.114784 0 11.114784 
z
" style="stroke: #000000"/>
    </defs>
    <g clip-path="url(#p44a29810bb)">
     <use xlink:href="#m2a5c937361" x="508.305203" y="264.559914" style="stroke: #000000"/>
    </g>
   </g>
   <g id="line2d_3">
    <defs>
     <path id="m5e608206cd" d="M 0 10.650031 
C 2.824421 10.650031 5.533542 9.527877 7.530709 7.530709 
C 9.527877 5.533542 10.650031 2.824421 10.650031 0 
C 10.650031 -2.824421 9.527877 -5.533542 7.530709 -7.530709 
C 5.533542 -9.527877 2.824421 -10.650031 0 -10.650031 
C -2.824421 -10.650031 -5.533542 -9.527877 -7.530709 -7.530709 
C -9.527877 -5.533542 -10.650031 -2.824421 -10.650031 0 
C -10.650031 2.824421 -9.527877 5.533542 -7.530709 7.530709 
C -5.533542 9.527877 -2.824421 10.650031 0 10.650031 
z
" style="stroke: #000000"/>
    </defs>
    <g clip-path="url(#p44a29810bb)">
     <use xlink:href="#m5e608206cd" x="617.19779" y="99.040086" style="stroke: #000000"/>
    </g>
   </g>
   <g id="line2d_4">
    <defs>
     <path id="m3ae15100f5" d="M 0 10.531984 
C 2.793115 10.531984 5.472207 9.422268 7.447237 7.447237 
C 9.422268 5.472207 10.531984 2.793115 10.531984 0 
C 10.531984 -2.793115 9.422268 -5.472207 7.447237 -7.447237 
C 5.472207 -9.422268 2.793115 -10.531984 0 -10.531984 
C -2.793115 -10.531984 -5.472207 -9.422268 -7.447237 -7.447237 
C -9.422268 -5.472207 -10.531984 -2.793115 -10.531984 0 
C -10.531984 2.793115 -9.422268 5.472207 -7.447237 7.447237 
C -5.472207 9.422268 -2.793115 10.531984 0 10.531984 
z
" style="stroke: #000000"/>
    </defs>
    <g clip-path="url(#p44a29810bb)">
     <use xlink:href="#m3ae15100f5" x="115.363636" y="168.429189" style="stroke: #000000"/>
    </g>
   </g>
   <g id="line2d_5">
    <defs>
     <path id="m4c7e74f169" d="M 0 10.20192 
C 2.705581 10.20192 5.300712 9.126981 7.213846 7.213846 
C 9.126981 5.300712 10.20192 2.705581 10.20192 0 
C 10.20192 -2.705581 9.126981 -5.300712 7.213846 -7.213846 
C 5.300712 -9.126981 2.705581 -10.20192 0 -10.20192 
C -2.705581 -10.20192 -5.300712 -9.126981 -7.213846 -7.213846 
C -9.126981 -5.300712 -10.20192 -2.705581 -10.20192 0 
C -10.20192 2.705581 -9.126981 5.300712 -7.213846 7.213846 
C -5.300712 9.126981 -2.705581 10.20192 0 10.20192 
z
" style="stroke: #000000"/>
    </defs>
    <g clip-path="url(#p44a29810bb)">
     <use xlink:href="#m4c7e74f169" x="422.367531" y="216.375404" style="stroke: #000000"/>
    </g>
   </g>
   <g id="line2d_6">
    <defs>
     <path id="m41ce162eb7" d="M 0 9.644734 
C 2.557813 9.644734 5.011209 8.628504 6.819857 6.819857 
C 8.628504 5.011209 9.644734 2.557813 9.644734 0 
C 9.644734 -2.557813 8.628504 -5.011209 6.819857 -6.819857 
C 5.011209 -8.628504 2.557813 -9.644734 0 -9.644734 
C -2.557813 -9.644734 -5.011209 -8.628504 -6.819857 -6.819857 
C -8.628504 -5.011209 -9.644734 -2.557813 -9.644734 0 
C -9.644734 2.557813 -8.628504 5.011209 -6.819857 6.819857 
C -5.011209 8.628504 -2.557813 9.644734 0 9.644734 
z
" style="stroke: #000000"/>
    </defs>
    <g clip-path="url(#p44a29810bb)">
     <use xlink:href="#m41ce162eb7" x="622.636364" y="107.118358" style="stroke: #000000"/>
    </g>
   </g>
   <g id="line2d_7">
    <defs>
     <path id="m6e98d0bfbb" d="M 0 9.244189 
C 2.451588 9.244189 4.803094 8.270163 6.536629 6.536629 
C 8.270163 4.803094 9.244189 2.451588 9.244189 0 
C 9.244189 -2.451588 8.270163 -4.803094 6.536629 -6.536629 
C 4.803094 -8.270163 2.451588 -9.244189 0 -9.244189 
C -2.451588 -9.244189 -4.803094 -8.270163 -6.536629 -6.536629 
C -8.270163 -4.803094 -9.244189 -2.451588 -9.244189 0 
C -9.244189 2.451588 -8.270163 4.803094 -6.536629 6.536629 
C -4.803094 8.270163 -2.451588 9.244189 0 9.244189 
z
" style="stroke: #000000"/>
    </defs>
    <g clip-path="url(#p44a29810bb)">
     <use xlink:href="#m6e98d0bfbb" x="564.538723" y="222.204972" style="stroke: #000000"/>
    </g>
   </g>
   <g id="line2d_8">
    <defs>
     <path id="m0937d1cf30" d="M 0 9.205482 
C 2.441322 9.205482 4.782983 8.235535 6.509259 6.509259 
C 8.235535 4.782983 9.205482 2.441322 9.205482 0 
C 9.205482 -2.441322 8.235535 -4.782983 6.509259 -6.509259 
C 4.782983 -8.235535 2.441322 -9.205482 0 -9.205482 
C -2.441322 -9.205482 -4.782983 -8.235535 -6.509259 -6.509259 
C -8.235535 -4.782983 -9.205482 -2.441322 -9.205482 0 
C -9.205482 2.441322 -8.235535 4.782983 -6.509259 6.509259 
C -4.782983 8.235535 -2.441322 9.205482 0 9.205482 
z
" style="stroke: #000000"/>
    </defs>
    <g clip-path="url(#p44a29810bb)">
     <use xlink:href="#m0937d1cf30" x="600.34711" y="183.990471" style="stroke: #000000"/>
    </g>
   </g>
   <g id="line2d_9">
    <defs>
     <path id="m26eb97fbef" d="M 0 9.158618 
C 2.428894 9.158618 4.758634 8.193608 6.476121 6.476121 
C 8.193608 4.758634 9.158618 2.428894 9.158618 0 
C 9.158618 -2.428894 8.193608 -4.758634 6.476121 -6.476121 
C 4.758634 -8.193608 2.428894 -9.158618 0 -9.158618 
C -2.428894 -9.158618 -4.758634 -8.193608 -6.476121 -6.476121 
C -8.193608 -4.758634 -9.158618 -2.428894 -9.158618 0 
C -9.158618 2.428894 -8.193608 4.758634 -6.476121 6.476121 
C -4.758634 8.193608 -2.428894 9.158618 0 9.158618 
z
" style="stroke: #000000"/>
    </defs>
    <g clip-path="url(#p44a29810bb)">
     <use xlink:href="#m26eb97fbef" x="618.296199" y="101.634113" style="stroke: #000000"/>
    </g>
   </g>
   <g id="line2d_10">
    <defs>
     <path id="md0f4d98d42" d="M 0 9.04793 
C 2.399539 9.04793 4.701122 8.094583 6.397853 6.397853 
C 8.094583 4.701122 9.04793 2.399539 9.04793 0 
C 9.04793 -2.399539 8.094583 -4.701122 6.397853 -6.397853 
C 4.701122 -8.094583 2.399539 -9.04793 0 -9.04793 
C -2.399539 -9.04793 -4.701122 -8.094583 -6.397853 -6.397853 
C -8.094583 -4.701122 -9.04793 -2.399539 -9.04793 0 
C -9.04793 2.399539 -8.094583 4.701122 -6.397853 6.397853 
C -4.701122 8.094583 -2.399539 9.04793 0 9.04793 
z
" style="stroke: #000000"/>
    </defs>
    <g clip-path="url(#p44a29810bb)">
     <use xlink:href="#md0f4d98d42" x="588.375335" y="208.127172" style="stroke: #000000"/>
    </g>
   </g>
  </g>
 </g>
 <defs>
  <clipPath id="p44a29810bb">
   <path d="M 90 272.835906 
L 90 90.764094 
L 648 90.764094 
L 648 272.835906 
L 90 272.835906 
"/>
  </clipPath>
 </defs>
</svg>
