<?xml version="1.0" encoding="utf-8" standalone="no"?>
<!DOCTYPE svg PUBLIC "-//W3C//DTD SVG 1.1//EN"
  "http://www.w3.org/Graphics/SVG/1.1/DTD/svg11.dtd">
<svg xmlns:xlink="http://www.w3.org/1999/xlink" width="720pt" height="360pt" viewBox="0 0 720 360" xmlns="http://www.w3.org/2000/svg" version="1.1">
 <metadata>
  <rdf:RDF xmlns:dc="http://purl.org/dc/elements/1.1/" xmlns:cc="http://creativecommons.org/ns#" xmlns:rdf="http://www.w3.org/1999/02/22-rdf-syntax-ns#">
   <cc:Work>
    <dc:type rdf:resource="http://purl.org/dc/dcmitype/StillImage"/>
    <dc:date>2023-11-30T21:30:46.994680</dc:date>
    <dc:format>image/svg+xml</dc:format>
    <dc:creator>
     <cc:Agent>
      <dc:title>Matplotlib v3.8.1, https://matplotlib.org/</dc:title>
     </cc:Agent>
    </dc:creator>
   </cc:Work>
  </rdf:RDF>
 </metadata>
 <defs>
  <style type="text/css">*{stroke-linejoin: round; stroke-linecap: butt}</style>
 </defs>
 <g id="figure_1">
  <g id="patch_1">
   <path d="M 0 360 
L 720 360 
L 720 0 
L 0 0 
z
" style="fill: #ffffff"/>
  </g>
  <g id="axes_1">
   <g id="patch_2">
    <path d="M 120.875217 320.4 
L 120.875217 43.2 
L 617.124783 43.2 
L 617.124783 320.4 
L 120.875217 320.4 
" style="fill: #ffffff"/>
   </g>
   <g id="line2d_1">
    <defs>
     <path id="me819e96ef7" d="M 0 6.691515 
C 1.77461 6.691515 3.476776 5.986454 4.731615 4.731615 
C 5.986454 3.476776 6.691515 1.77461 6.691515 0 
C 6.691515 -1.77461 5.986454 -3.476776 4.731615 -4.731615 
C 3.476776 -5.986454 1.77461 -6.691515 0 -6.691515 
C -1.77461 -6.691515 -3.476776 -5.986454 -4.731615 -4.731615 
C -5.986454 -3.476776 -6.691515 -1.77461 -6.691515 0 
C -6.691515 1.77461 -5.986454 3.476776 -4.731615 4.731615 
C -3.476776 5.986454 -1.77461 6.691515 0 6.691515 
z
" style="stroke: #000000"/>
    </defs>
    <g clip-path="url(#p82a8d16e1e)">
     <use xlink:href="#me819e96ef7" x="244.44357" y="255.24938" style="stroke: #000000"/>
    </g>
   </g>
   <g id="line2d_2">
    <defs>
     <path id="m6e41795895" d="M 0 5.919405 
C 1.569845 5.919405 3.075604 5.295699 4.185651 4.185651 
C 5.295699 3.075604 5.919405 1.569845 5.919405 0 
C 5.919405 -1.569845 5.295699 -3.075604 4.185651 -4.185651 
C 3.075604 -5.295699 1.569845 -5.919405 0 -5.919405 
C -1.569845 -5.919405 -3.075604 -5.295699 -4.185651 -4.185651 
C -5.295699 -3.075604 -5.919405 -1.569845 -5.919405 0 
C -5.919405 1.569845 -5.295699 3.075604 -4.185651 4.185651 
C -3.075604 5.295699 -1.569845 5.919405 0 5.919405 
z
" style="stroke: #000000"/>
    </defs>
    <g clip-path="url(#p82a8d16e1e)">
     <use xlink:href="#m6e41795895" x="249.547902" y="222.544582" style="stroke: #000000"/>
    </g>
   </g>
   <g id="line2d_3">
    <defs>
     <path id="m3c70b3ee99" d="M 0 5.618306 
C 1.489992 5.618306 2.919159 5.026326 3.972742 3.972742 
C 5.026326 2.919159 5.618306 1.489992 5.618306 0 
C 5.618306 -1.489992 5.026326 -2.919159 3.972742 -3.972742 
C 2.919159 -5.026326 1.489992 -5.618306 0 -5.618306 
C -1.489992 -5.618306 -2.919159 -5.026326 -3.972742 -3.972742 
C -5.026326 -2.919159 -5.618306 -1.489992 -5.618306 0 
C -5.618306 1.489992 -5.026326 2.919159 -3.972742 3.972742 
C -2.919159 5.026326 -1.489992 5.618306 0 5.618306 
z
" style="stroke: #000000"/>
    </defs>
    <g clip-path="url(#p82a8d16e1e)">
     <use xlink:href="#m3c70b3ee99" x="243.97696" y="148.014288" style="stroke: #000000"/>
    </g>
   </g>
   <g id="line2d_4">
    <defs>
     <path id="ma01a7dcb59" d="M 0 5.418814 
C 1.437086 5.418814 2.815507 4.847854 3.83168 3.83168 
C 4.847854 2.815507 5.418814 1.437086 5.418814 0 
C 5.418814 -1.437086 4.847854 -2.815507 3.83168 -3.83168 
C 2.815507 -4.847854 1.437086 -5.418814 0 -5.418814 
C -1.437086 -5.418814 -2.815507 -4.847854 -3.83168 -3.83168 
C -4.847854 -2.815507 -5.418814 -1.437086 -5.418814 0 
C -5.418814 1.437086 -4.847854 2.815507 -3.83168 3.83168 
C -2.815507 4.847854 -1.437086 5.418814 0 5.418814 
z
" style="stroke: #000000"/>
    </defs>
    <g clip-path="url(#p82a8d16e1e)">
     <use xlink:href="#ma01a7dcb59" x="291.706724" y="271.330107" style="stroke: #000000"/>
    </g>
   </g>
   <g id="line2d_5">
    <defs>
     <path id="m24f9580c2f" d="M 0 5.362257 
C 1.422087 5.362257 2.786121 4.797256 3.791688 3.791688 
C 4.797256 2.786121 5.362257 1.422087 5.362257 0 
C 5.362257 -1.422087 4.797256 -2.786121 3.791688 -3.791688 
C 2.786121 -4.797256 1.422087 -5.362257 0 -5.362257 
C -1.422087 -5.362257 -2.786121 -4.797256 -3.791688 -3.791688 
C -4.797256 -2.786121 -5.362257 -1.422087 -5.362257 0 
C -5.362257 1.422087 -4.797256 2.786121 -3.791688 3.791688 
C -2.786121 4.797256 -1.422087 5.362257 0 5.362257 
z
" style="stroke: #000000"/>
    </defs>
    <g clip-path="url(#p82a8d16e1e)">
     <use xlink:href="#m24f9580c2f" x="280.760312" y="137.4386" style="stroke: #000000"/>
    </g>
   </g>
   <g id="line2d_6">
    <defs>
     <path id="md14d4135cc" d="M 0 5.223542 
C 1.385299 5.223542 2.714047 4.673156 3.693602 3.693602 
C 4.673156 2.714047 5.223542 1.385299 5.223542 0 
C 5.223542 -1.385299 4.673156 -2.714047 3.693602 -3.693602 
C 2.714047 -4.673156 1.385299 -5.223542 0 -5.223542 
C -1.385299 -5.223542 -2.714047 -4.673156 -3.693602 -3.693602 
C -4.673156 -2.714047 -5.223542 -1.385299 -5.223542 0 
C -5.223542 1.385299 -4.673156 2.714047 -3.693602 3.693602 
C -2.714047 4.673156 -1.385299 5.223542 0 5.223542 
z
" style="stroke: #000000"/>
    </defs>
    <g clip-path="url(#p82a8d16e1e)">
     <use xlink:href="#md14d4135cc" x="186.177253" y="179.721647" style="stroke: #000000"/>
    </g>
   </g>
   <g id="line2d_7">
    <defs>
     <path id="m49249d858c" d="M 0 5.003514 
C 1.326947 5.003514 2.599725 4.476312 3.538018 3.538018 
C 4.476312 2.599725 5.003514 1.326947 5.003514 0 
C 5.003514 -1.326947 4.476312 -2.599725 3.538018 -3.538018 
C 2.599725 -4.476312 1.326947 -5.003514 0 -5.003514 
C -1.326947 -5.003514 -2.599725 -4.476312 -3.538018 -3.538018 
C -4.476312 -2.599725 -5.003514 -1.326947 -5.003514 0 
C -5.003514 1.326947 -4.476312 2.599725 -3.538018 3.538018 
C -2.599725 4.476312 -1.326947 5.003514 0 5.003514 
z
" style="stroke: #000000"/>
    </defs>
    <g clip-path="url(#p82a8d16e1e)">
     <use xlink:href="#m49249d858c" x="143.432015" y="182.370185" style="stroke: #000000"/>
    </g>
   </g>
   <g id="line2d_8">
    <defs>
     <path id="mbe4b34e6d5" d="M 0 4.997884 
C 1.325454 4.997884 2.5968 4.471275 3.534037 3.534037 
C 4.471275 2.5968 4.997884 1.325454 4.997884 0 
C 4.997884 -1.325454 4.471275 -2.5968 3.534037 -3.534037 
C 2.5968 -4.471275 1.325454 -4.997884 0 -4.997884 
C -1.325454 -4.997884 -2.5968 -4.471275 -3.534037 -3.534037 
C -4.471275 -2.5968 -4.997884 -1.325454 -4.997884 0 
C -4.997884 1.325454 -4.471275 2.5968 -3.534037 3.534037 
C -2.5968 4.471275 -1.325454 4.997884 0 4.997884 
z
" style="stroke: #000000"/>
    </defs>
    <g clip-path="url(#p82a8d16e1e)">
     <use xlink:href="#mbe4b34e6d5" x="301.77982" y="158.590918" style="stroke: #000000"/>
    </g>
   </g>
   <g id="line2d_9">
    <defs>
     <path id="m9b26afabfe" d="M 0 4.653031 
C 1.233998 4.653031 2.417621 4.162758 3.29019 3.29019 
C 4.162758 2.417621 4.653031 1.233998 4.653031 0 
C 4.653031 -1.233998 4.162758 -2.417621 3.29019 -3.29019 
C 2.417621 -4.162758 1.233998 -4.653031 0 -4.653031 
C -1.233998 -4.653031 -2.417621 -4.162758 -3.29019 -3.29019 
C -4.162758 -2.417621 -4.653031 -1.233998 -4.653031 0 
C -4.653031 1.233998 -4.162758 2.417621 -3.29019 3.29019 
C -2.417621 4.162758 -1.233998 4.653031 0 4.653031 
z
" style="stroke: #000000"/>
    </defs>
    <g clip-path="url(#p82a8d16e1e)">
     <use xlink:href="#m9b26afabfe" x="395.448576" y="307.8" style="stroke: #000000"/>
    </g>
   </g>
   <g id="line2d_10">
    <defs>
     <path id="m046a2a22ca" d="M 0 4.505614 
C 1.194903 4.505614 2.341026 4.030874 3.18595 3.18595 
C 4.030874 2.341026 4.505614 1.194903 4.505614 0 
C 4.505614 -1.194903 4.030874 -2.341026 3.18595 -3.18595 
C 2.341026 -4.030874 1.194903 -4.505614 0 -4.505614 
C -1.194903 -4.505614 -2.341026 -4.030874 -3.18595 -3.18595 
C -4.030874 -2.341026 -4.505614 -1.194903 -4.505614 0 
C -4.505614 1.194903 -4.030874 2.341026 -3.18595 3.18595 
C -2.341026 4.030874 -1.194903 4.505614 0 4.505614 
z
" style="stroke: #000000"/>
    </defs>
    <g clip-path="url(#p82a8d16e1e)">
     <use xlink:href="#m046a2a22ca" x="594.567985" y="55.8" style="stroke: #000000"/>
    </g>
   </g>
  </g>
 </g>
 <defs>
  <clipPath id="p82a8d16e1e">
   <path d="M 120.875217 320.4 
L 120.875217 43.2 
L 617.124783 43.2 
L 617.124783 320.4 
L 120.875217 320.4 
"/>
  </clipPath>
 </defs>
</svg>
