<?xml version="1.0" encoding="utf-8" standalone="no"?>
<!DOCTYPE svg PUBLIC "-//W3C//DTD SVG 1.1//EN"
  "http://www.w3.org/Graphics/SVG/1.1/DTD/svg11.dtd">
<svg xmlns:xlink="http://www.w3.org/1999/xlink" width="720pt" height="360pt" viewBox="0 0 720 360" xmlns="http://www.w3.org/2000/svg" version="1.1">
 <metadata>
  <rdf:RDF xmlns:dc="http://purl.org/dc/elements/1.1/" xmlns:cc="http://creativecommons.org/ns#" xmlns:rdf="http://www.w3.org/1999/02/22-rdf-syntax-ns#">
   <cc:Work>
    <dc:type rdf:resource="http://purl.org/dc/dcmitype/StillImage"/>
    <dc:date>2023-11-30T21:30:47.043247</dc:date>
    <dc:format>image/svg+xml</dc:format>
    <dc:creator>
     <cc:Agent>
      <dc:title>Matplotlib v3.8.1, https://matplotlib.org/</dc:title>
     </cc:Agent>
    </dc:creator>
   </cc:Work>
  </rdf:RDF>
 </metadata>
 <defs>
  <style type="text/css">*{stroke-linejoin: round; stroke-linecap: butt}</style>
 </defs>
 <g id="figure_1">
  <g id="patch_1">
   <path d="M 0 360 
L 720 360 
L 720 0 
L 0 0 
z
" style="fill: #ffffff"/>
  </g>
  <g id="axes_1">
   <g id="patch_2">
    <path d="M 161.706043 320.4 
L 161.706043 43.2 
L 576.293957 43.2 
L 576.293957 320.4 
L 161.706043 320.4 
" style="fill: #ffffff"/>
   </g>
   <g id="line2d_1">
    <defs>
     <path id="m2ff0bab834" d="M 0 10.045285 
C 2.664041 10.045285 5.219328 8.98685 7.103089 7.103089 
C 8.98685 5.219328 10.045285 2.664041 10.045285 0 
C 10.045285 -2.664041 8.98685 -5.219328 7.103089 -7.103089 
C 5.219328 -8.98685 2.664041 -10.045285 0 -10.045285 
C -2.664041 -10.045285 -5.219328 -8.98685 -7.103089 -7.103089 
C -8.98685 -5.219328 -10.045285 -2.664041 -10.045285 0 
C -10.045285 2.664041 -8.98685 5.219328 -7.103089 7.103089 
C -5.219328 8.98685 -2.664041 10.045285 0 10.045285 
z
" style="stroke: #000000"/>
    </defs>
    <g clip-path="url(#p85601b32df)">
     <use xlink:href="#m2ff0bab834" x="550.371202" y="125.855323" style="stroke: #000000"/>
    </g>
   </g>
   <g id="line2d_2">
    <defs>
     <path id="m00fde8ce81" d="M 0 9.226161 
C 2.446806 9.226161 4.793727 8.254034 6.523881 6.523881 
C 8.254034 4.793727 9.226161 2.446806 9.226161 0 
C 9.226161 -2.446806 8.254034 -4.793727 6.523881 -6.523881 
C 4.793727 -8.254034 2.446806 -9.226161 0 -9.226161 
C -2.446806 -9.226161 -4.793727 -8.254034 -6.523881 -6.523881 
C -8.254034 -4.793727 -9.226161 -2.446806 -9.226161 0 
C -9.226161 2.446806 -8.254034 4.793727 -6.523881 6.523881 
C -4.793727 8.254034 -2.446806 9.226161 0 9.226161 
z
" style="stroke: #000000"/>
    </defs>
    <g clip-path="url(#p85601b32df)">
     <use xlink:href="#m00fde8ce81" x="530.993853" y="101.76686" style="stroke: #000000"/>
    </g>
   </g>
   <g id="line2d_3">
    <defs>
     <path id="md7ef63a0e1" d="M 0 9.178194 
C 2.434085 9.178194 4.768805 8.211121 6.489963 6.489963 
C 8.211121 4.768805 9.178194 2.434085 9.178194 0 
C 9.178194 -2.434085 8.211121 -4.768805 6.489963 -6.489963 
C 4.768805 -8.211121 2.434085 -9.178194 0 -9.178194 
C -2.434085 -9.178194 -4.768805 -8.211121 -6.489963 -6.489963 
C -8.211121 -4.768805 -9.178194 -2.434085 -9.178194 0 
C -9.178194 2.434085 -8.211121 4.768805 -6.489963 6.489963 
C -4.768805 8.211121 -2.434085 9.178194 0 9.178194 
z
" style="stroke: #000000"/>
    </defs>
    <g clip-path="url(#p85601b32df)">
     <use xlink:href="#md7ef63a0e1" x="244.059037" y="91.171133" style="stroke: #000000"/>
    </g>
   </g>
   <g id="line2d_4">
    <defs>
     <path id="ma69114ddd4" d="M 0 8.937242 
C 2.370184 8.937242 4.643611 7.995557 6.319584 6.319584 
C 7.995557 4.643611 8.937242 2.370184 8.937242 0 
C 8.937242 -2.370184 7.995557 -4.643611 6.319584 -6.319584 
C 4.643611 -7.995557 2.370184 -8.937242 0 -8.937242 
C -2.370184 -8.937242 -4.643611 -7.995557 -6.319584 -6.319584 
C -7.995557 -4.643611 -8.937242 -2.370184 -8.937242 0 
C -8.937242 2.370184 -7.995557 4.643611 -6.319584 6.319584 
C -4.643611 7.995557 -2.370184 8.937242 0 8.937242 
z
" style="stroke: #000000"/>
    </defs>
    <g clip-path="url(#p85601b32df)">
     <use xlink:href="#ma69114ddd4" x="460.042746" y="307.8" style="stroke: #000000"/>
    </g>
   </g>
   <g id="line2d_5">
    <defs>
     <path id="m701f74144f" d="M 0 8.717514 
C 2.311912 8.717514 4.529445 7.798981 6.164213 6.164213 
C 7.798981 4.529445 8.717514 2.311912 8.717514 0 
C 8.717514 -2.311912 7.798981 -4.529445 6.164213 -6.164213 
C 4.529445 -7.798981 2.311912 -8.717514 0 -8.717514 
C -2.311912 -8.717514 -4.529445 -7.798981 -6.164213 -6.164213 
C -7.798981 -4.529445 -8.717514 -2.311912 -8.717514 0 
C -8.717514 2.311912 -7.798981 4.529445 -6.164213 6.164213 
C -4.529445 7.798981 -2.311912 8.717514 0 8.717514 
z
" style="stroke: #000000"/>
    </defs>
    <g clip-path="url(#p85601b32df)">
     <use xlink:href="#m701f74144f" x="180.550949" y="55.8" style="stroke: #000000"/>
    </g>
   </g>
   <g id="line2d_6">
    <defs>
     <path id="m781015c0df" d="M 0 8.479509 
C 2.248792 8.479509 4.405782 7.586054 5.995918 5.995918 
C 7.586054 4.405782 8.479509 2.248792 8.479509 0 
C 8.479509 -2.248792 7.586054 -4.405782 5.995918 -5.995918 
C 4.405782 -7.586054 2.248792 -8.479509 0 -8.479509 
C -2.248792 -8.479509 -4.405782 -7.586054 -5.995918 -5.995918 
C -7.586054 -4.405782 -8.479509 -2.248792 -8.479509 0 
C -8.479509 2.248792 -7.586054 4.405782 -5.995918 5.995918 
C -4.405782 7.586054 -2.248792 8.479509 0 8.479509 
z
" style="stroke: #000000"/>
    </defs>
    <g clip-path="url(#p85601b32df)">
     <use xlink:href="#m781015c0df" x="312.545908" y="98.512073" style="stroke: #000000"/>
    </g>
   </g>
   <g id="line2d_7">
    <defs>
     <path id="m887a0d0dae" d="M 0 8.347186 
C 2.2137 8.347186 4.33703 7.467674 5.902352 5.902352 
C 7.467674 4.33703 8.347186 2.2137 8.347186 0 
C 8.347186 -2.2137 7.467674 -4.33703 5.902352 -5.902352 
C 4.33703 -7.467674 2.2137 -8.347186 0 -8.347186 
C -2.2137 -8.347186 -4.33703 -7.467674 -5.902352 -5.902352 
C -7.467674 -4.33703 -8.347186 -2.2137 -8.347186 0 
C -8.347186 2.2137 -7.467674 4.33703 -5.902352 5.902352 
C -4.33703 7.467674 -2.2137 8.347186 0 8.347186 
z
" style="stroke: #000000"/>
    </defs>
    <g clip-path="url(#p85601b32df)">
     <use xlink:href="#m887a0d0dae" x="304.686546" y="81.917012" style="stroke: #000000"/>
    </g>
   </g>
   <g id="line2d_8">
    <defs>
     <path id="m9fd5c1e052" d="M 0 8.204372 
C 2.175825 8.204372 4.262827 7.339908 5.801367 5.801367 
C 7.339908 4.262827 8.204372 2.175825 8.204372 0 
C 8.204372 -2.175825 7.339908 -4.262827 5.801367 -5.801367 
C 4.262827 -7.339908 2.175825 -8.204372 0 -8.204372 
C -2.175825 -8.204372 -4.262827 -7.339908 -5.801367 -5.801367 
C -7.339908 -4.262827 -8.204372 -2.175825 -8.204372 0 
C -8.204372 2.175825 -7.339908 4.262827 -5.801367 5.801367 
C -4.262827 7.339908 -2.175825 8.204372 0 8.204372 
z
" style="stroke: #000000"/>
    </defs>
    <g clip-path="url(#p85601b32df)">
     <use xlink:href="#m9fd5c1e052" x="422.255182" y="305.628565" style="stroke: #000000"/>
    </g>
   </g>
   <g id="line2d_9">
    <g clip-path="url(#p85601b32df)">
     <use xlink:href="#m9fd5c1e052" x="418.26088" y="176.219106" style="stroke: #000000"/>
    </g>
   </g>
   <g id="line2d_10">
    <defs>
     <path id="md494ef2758" d="M 0 8.077706 
C 2.142233 8.077706 4.197013 7.226588 5.7118 5.7118 
C 7.226588 4.197013 8.077706 2.142233 8.077706 0 
C 8.077706 -2.142233 7.226588 -4.197013 5.7118 -5.7118 
C 4.197013 -7.226588 2.142233 -8.077706 0 -8.077706 
C -2.142233 -8.077706 -4.197013 -7.226588 -5.7118 -5.7118 
C -7.226588 -4.197013 -8.077706 -2.142233 -8.077706 0 
C -8.077706 2.142233 -7.226588 4.197013 -5.7118 5.7118 
C -4.197013 7.226588 -2.142233 8.077706 0 8.077706 
z
" style="stroke: #000000"/>
    </defs>
    <g clip-path="url(#p85601b32df)">
     <use xlink:href="#md494ef2758" x="557.449051" y="123.700084" style="stroke: #000000"/>
    </g>
   </g>
  </g>
 </g>
 <defs>
  <clipPath id="p85601b32df">
   <path d="M 161.706043 320.4 
L 161.706043 43.2 
L 576.293957 43.2 
L 576.293957 320.4 
L 161.706043 320.4 
"/>
  </clipPath>
 </defs>
</svg>
