<?xml version="1.0" encoding="utf-8" standalone="no"?>
<!DOCTYPE svg PUBLIC "-//W3C//DTD SVG 1.1//EN"
  "http://www.w3.org/Graphics/SVG/1.1/DTD/svg11.dtd">
<svg xmlns:xlink="http://www.w3.org/1999/xlink" width="720pt" height="360pt" viewBox="0 0 720 360" xmlns="http://www.w3.org/2000/svg" version="1.1">
 <metadata>
  <rdf:RDF xmlns:dc="http://purl.org/dc/elements/1.1/" xmlns:cc="http://creativecommons.org/ns#" xmlns:rdf="http://www.w3.org/1999/02/22-rdf-syntax-ns#">
   <cc:Work>
    <dc:type rdf:resource="http://purl.org/dc/dcmitype/StillImage"/>
    <dc:date>2023-11-30T21:30:47.086885</dc:date>
    <dc:format>image/svg+xml</dc:format>
    <dc:creator>
     <cc:Agent>
      <dc:title>Matplotlib v3.8.1, https://matplotlib.org/</dc:title>
     </cc:Agent>
    </dc:creator>
   </cc:Work>
  </rdf:RDF>
 </metadata>
 <defs>
  <style type="text/css">*{stroke-linejoin: round; stroke-linecap: butt}</style>
 </defs>
 <g id="figure_1">
  <g id="patch_1">
   <path d="M 0 360 
L 720 360 
L 720 0 
L 0 0 
z
" style="fill: #ffffff"/>
  </g>
  <g id="axes_1">
   <g id="patch_2">
    <path d="M 150.294266 320.4 
L 150.294266 43.2 
L 587.705734 43.2 
L 587.705734 320.4 
L 150.294266 320.4 
" style="fill: #ffffff"/>
   </g>
   <g id="line2d_1">
    <defs>
     <path id="m42fbfa2f43" d="M 0 9.705122 
C 2.573828 9.705122 5.042586 8.682529 6.862558 6.862558 
C 8.682529 5.042586 9.705122 2.573828 9.705122 0 
C 9.705122 -2.573828 8.682529 -5.042586 6.862558 -6.862558 
C 5.042586 -8.682529 2.573828 -9.705122 0 -9.705122 
C -2.573828 -9.705122 -5.042586 -8.682529 -6.862558 -6.862558 
C -8.682529 -5.042586 -9.705122 -2.573828 -9.705122 0 
C -9.705122 2.573828 -8.682529 5.042586 -6.862558 6.862558 
C -5.042586 8.682529 -2.573828 9.705122 0 9.705122 
z
" style="stroke: #000000"/>
    </defs>
    <g clip-path="url(#pf068488764)">
     <use xlink:href="#m42fbfa2f43" x="465.789888" y="225.110617" style="stroke: #000000"/>
    </g>
   </g>
   <g id="line2d_2">
    <defs>
     <path id="mc299d8dcf4" d="M 0 8.877193 
C 2.354259 8.877193 4.612411 7.941836 6.277123 6.277123 
C 7.941836 4.612411 8.877193 2.354259 8.877193 0 
C 8.877193 -2.354259 7.941836 -4.612411 6.277123 -6.277123 
C 4.612411 -7.941836 2.354259 -8.877193 0 -8.877193 
C -2.354259 -8.877193 -4.612411 -7.941836 -6.277123 -6.277123 
C -7.941836 -4.612411 -8.877193 -2.354259 -8.877193 0 
C -8.877193 2.354259 -7.941836 4.612411 -6.277123 6.277123 
C -4.612411 7.941836 -2.354259 8.877193 0 8.877193 
z
" style="stroke: #000000"/>
    </defs>
    <g clip-path="url(#pf068488764)">
     <use xlink:href="#mc299d8dcf4" x="327.524396" y="71.095759" style="stroke: #000000"/>
    </g>
   </g>
   <g id="line2d_3">
    <defs>
     <path id="m75661a3a96" d="M 0 8.663531 
C 2.297595 8.663531 4.501396 7.750686 6.126041 6.126041 
C 7.750686 4.501396 8.663531 2.297595 8.663531 0 
C 8.663531 -2.297595 7.750686 -4.501396 6.126041 -6.126041 
C 4.501396 -7.750686 2.297595 -8.663531 0 -8.663531 
C -2.297595 -8.663531 -4.501396 -7.750686 -6.126041 -6.126041 
C -7.750686 -4.501396 -8.663531 -2.297595 -8.663531 0 
C -8.663531 2.297595 -7.750686 4.501396 -6.126041 6.126041 
C -4.501396 7.750686 -2.297595 8.663531 0 8.663531 
z
" style="stroke: #000000"/>
    </defs>
    <g clip-path="url(#pf068488764)">
     <use xlink:href="#m75661a3a96" x="411.977688" y="166.917888" style="stroke: #000000"/>
    </g>
   </g>
   <g id="line2d_4">
    <defs>
     <path id="m68fe96b919" d="M 0 8.560235 
C 2.270201 8.560235 4.447726 7.658275 6.053 6.053 
C 7.658275 4.447726 8.560235 2.270201 8.560235 0 
C 8.560235 -2.270201 7.658275 -4.447726 6.053 -6.053 
C 4.447726 -7.658275 2.270201 -8.560235 0 -8.560235 
C -2.270201 -8.560235 -4.447726 -7.658275 -6.053 -6.053 
C -7.658275 -4.447726 -8.560235 -2.270201 -8.560235 0 
C -8.560235 2.270201 -7.658275 4.447726 -6.053 6.053 
C -4.447726 7.658275 -2.270201 8.560235 0 8.560235 
z
" style="stroke: #000000"/>
    </defs>
    <g clip-path="url(#pf068488764)">
     <use xlink:href="#m68fe96b919" x="502.735454" y="111.087102" style="stroke: #000000"/>
    </g>
   </g>
   <g id="line2d_5">
    <defs>
     <path id="m701331ecc3" d="M 0 8.336703 
C 2.210919 8.336703 4.331583 7.458295 5.894939 5.894939 
C 7.458295 4.331583 8.336703 2.210919 8.336703 0 
C 8.336703 -2.210919 7.458295 -4.331583 5.894939 -5.894939 
C 4.331583 -7.458295 2.210919 -8.336703 0 -8.336703 
C -2.210919 -8.336703 -4.331583 -7.458295 -5.894939 -5.894939 
C -7.458295 -4.331583 -8.336703 -2.210919 -8.336703 0 
C -8.336703 2.210919 -7.458295 4.331583 -5.894939 5.894939 
C -4.331583 7.458295 -2.210919 8.336703 0 8.336703 
z
" style="stroke: #000000"/>
    </defs>
    <g clip-path="url(#pf068488764)">
     <use xlink:href="#m701331ecc3" x="400.571124" y="307.8" style="stroke: #000000"/>
    </g>
   </g>
   <g id="line2d_6">
    <defs>
     <path id="m8f4c8b2237" d="M 0 8.10345 
C 2.14906 8.10345 4.210389 7.249619 5.730004 5.730004 
C 7.249619 4.210389 8.10345 2.14906 8.10345 0 
C 8.10345 -2.14906 7.249619 -4.210389 5.730004 -5.730004 
C 4.210389 -7.249619 2.14906 -8.10345 0 -8.10345 
C -2.14906 -8.10345 -4.210389 -7.249619 -5.730004 -5.730004 
C -7.249619 -4.210389 -8.10345 -2.14906 -8.10345 0 
C -8.10345 2.14906 -7.249619 4.210389 -5.730004 5.730004 
C -4.210389 7.249619 -2.14906 8.10345 0 8.10345 
z
" style="stroke: #000000"/>
    </defs>
    <g clip-path="url(#pf068488764)">
     <use xlink:href="#m8f4c8b2237" x="170.176605" y="64.661585" style="stroke: #000000"/>
    </g>
   </g>
   <g id="line2d_7">
    <defs>
     <path id="m7a617de72d" d="M 0 7.721099 
C 2.047659 7.721099 4.011728 6.907555 5.459642 5.459642 
C 6.907555 4.011728 7.721099 2.047659 7.721099 0 
C 7.721099 -2.047659 6.907555 -4.011728 5.459642 -5.459642 
C 4.011728 -6.907555 2.047659 -7.721099 0 -7.721099 
C -2.047659 -7.721099 -4.011728 -6.907555 -5.459642 -5.459642 
C -6.907555 -4.011728 -7.721099 -2.047659 -7.721099 0 
C -7.721099 2.047659 -6.907555 4.011728 -5.459642 5.459642 
C -4.011728 6.907555 -2.047659 7.721099 0 7.721099 
z
" style="stroke: #000000"/>
    </defs>
    <g clip-path="url(#pf068488764)">
     <use xlink:href="#m7a617de72d" x="485.977045" y="110.416953" style="stroke: #000000"/>
    </g>
   </g>
   <g id="line2d_8">
    <defs>
     <path id="m9e7a9804c1" d="M 0 7.668306 
C 2.033658 7.668306 3.984297 6.860325 5.422311 5.422311 
C 6.860325 3.984297 7.668306 2.033658 7.668306 0 
C 7.668306 -2.033658 6.860325 -3.984297 5.422311 -5.422311 
C 3.984297 -6.860325 2.033658 -7.668306 0 -7.668306 
C -2.033658 -7.668306 -3.984297 -6.860325 -5.422311 -5.422311 
C -6.860325 -3.984297 -7.668306 -2.033658 -7.668306 0 
C -7.668306 2.033658 -6.860325 3.984297 -5.422311 5.422311 
C -3.984297 6.860325 -2.033658 7.668306 0 7.668306 
z
" style="stroke: #000000"/>
    </defs>
    <g clip-path="url(#pf068488764)">
     <use xlink:href="#m9e7a9804c1" x="358.085806" y="190.77288" style="stroke: #000000"/>
    </g>
   </g>
   <g id="line2d_9">
    <defs>
     <path id="m78770c976f" d="M 0 7.62502 
C 2.022179 7.62502 3.961807 6.821599 5.391703 5.391703 
C 6.821599 3.961807 7.62502 2.022179 7.62502 0 
C 7.62502 -2.022179 6.821599 -3.961807 5.391703 -5.391703 
C 3.961807 -6.821599 2.022179 -7.62502 0 -7.62502 
C -2.022179 -7.62502 -3.961807 -6.821599 -5.391703 -5.391703 
C -6.821599 -3.961807 -7.62502 -2.022179 -7.62502 0 
C -7.62502 2.022179 -6.821599 3.961807 -5.391703 5.391703 
C -3.961807 6.821599 -2.022179 7.62502 0 7.62502 
z
" style="stroke: #000000"/>
    </defs>
    <g clip-path="url(#pf068488764)">
     <use xlink:href="#m78770c976f" x="519.745993" y="55.8" style="stroke: #000000"/>
    </g>
   </g>
   <g id="line2d_10">
    <defs>
     <path id="m43d3647c25" d="M 0 7.601005 
C 2.01581 7.601005 3.949329 6.800115 5.374722 5.374722 
C 6.800115 3.949329 7.601005 2.01581 7.601005 0 
C 7.601005 -2.01581 6.800115 -3.949329 5.374722 -5.374722 
C 3.949329 -6.800115 2.01581 -7.601005 0 -7.601005 
C -2.01581 -7.601005 -3.949329 -6.800115 -5.374722 -5.374722 
C -6.800115 -3.949329 -7.601005 -2.01581 -7.601005 0 
C -7.601005 2.01581 -6.800115 3.949329 -5.374722 5.374722 
C -3.949329 6.800115 -2.01581 7.601005 0 7.601005 
z
" style="stroke: #000000"/>
    </defs>
    <g clip-path="url(#pf068488764)">
     <use xlink:href="#m43d3647c25" x="567.823395" y="74.381332" style="stroke: #000000"/>
    </g>
   </g>
  </g>
 </g>
 <defs>
  <clipPath id="pf068488764">
   <path d="M 150.294266 320.4 
L 150.294266 43.2 
L 587.705734 43.2 
L 587.705734 320.4 
L 150.294266 320.4 
"/>
  </clipPath>
 </defs>
</svg>
