<?xml version="1.0" encoding="utf-8" standalone="no"?>
<!DOCTYPE svg PUBLIC "-//W3C//DTD SVG 1.1//EN"
  "http://www.w3.org/Graphics/SVG/1.1/DTD/svg11.dtd">
<svg xmlns:xlink="http://www.w3.org/1999/xlink" width="720pt" height="360pt" viewBox="0 0 720 360" xmlns="http://www.w3.org/2000/svg" version="1.1">
 <metadata>
  <rdf:RDF xmlns:dc="http://purl.org/dc/elements/1.1/" xmlns:cc="http://creativecommons.org/ns#" xmlns:rdf="http://www.w3.org/1999/02/22-rdf-syntax-ns#">
   <cc:Work>
    <dc:type rdf:resource="http://purl.org/dc/dcmitype/StillImage"/>
    <dc:date>2023-11-30T21:30:53.461258</dc:date>
    <dc:format>image/svg+xml</dc:format>
    <dc:creator>
     <cc:Agent>
      <dc:title>Matplotlib v3.8.1, https://matplotlib.org/</dc:title>
     </cc:Agent>
    </dc:creator>
   </cc:Work>
  </rdf:RDF>
 </metadata>
 <defs>
  <style type="text/css">*{stroke-linejoin: round; stroke-linecap: butt}</style>
 </defs>
 <g id="figure_1">
  <g id="patch_1">
   <path d="M 0 360 
L 720 360 
L 720 0 
L 0 0 
z
" style="fill: #ffffff"/>
  </g>
  <g id="axes_1">
   <g id="patch_2">
    <path d="M 244.895854 320.4 
L 244.895854 43.2 
L 493.104146 43.2 
L 493.104146 320.4 
L 244.895854 320.4 
" style="fill: #ffffff"/>
   </g>
   <g id="line2d_1">
    <defs>
     <path id="me011759c75" d="M 0 8.294006 
C 2.199596 8.294006 4.309399 7.420097 5.864748 5.864748 
C 7.420097 4.309399 8.294006 2.199596 8.294006 0 
C 8.294006 -2.199596 7.420097 -4.309399 5.864748 -5.864748 
C 4.309399 -7.420097 2.199596 -8.294006 0 -8.294006 
C -2.199596 -8.294006 -4.309399 -7.420097 -5.864748 -5.864748 
C -7.420097 -4.309399 -8.294006 -2.199596 -8.294006 0 
C -8.294006 2.199596 -7.420097 4.309399 -5.864748 5.864748 
C -4.309399 7.420097 -2.199596 8.294006 0 8.294006 
z
" style="stroke: #000000"/>
    </defs>
    <g clip-path="url(#pe2d9f04048)">
     <use xlink:href="#me011759c75" x="283.61108" y="264.613446" style="stroke: #000000"/>
    </g>
   </g>
   <g id="line2d_2">
    <defs>
     <path id="me3a170eccb" d="M 0 5.91387 
C 1.568377 5.91387 3.072728 5.290747 4.181737 4.181737 
C 5.290747 3.072728 5.91387 1.568377 5.91387 0 
C 5.91387 -1.568377 5.290747 -3.072728 4.181737 -4.181737 
C 3.072728 -5.290747 1.568377 -5.91387 0 -5.91387 
C -1.568377 -5.91387 -3.072728 -5.290747 -4.181737 -4.181737 
C -5.290747 -3.072728 -5.91387 -1.568377 -5.91387 0 
C -5.91387 1.568377 -5.290747 3.072728 -4.181737 4.181737 
C -3.072728 5.290747 -1.568377 5.91387 0 5.91387 
z
" style="stroke: #000000"/>
    </defs>
    <g clip-path="url(#pe2d9f04048)">
     <use xlink:href="#me3a170eccb" x="256.178049" y="95.575157" style="stroke: #000000"/>
    </g>
   </g>
   <g id="line2d_3">
    <defs>
     <path id="mf00734e45c" d="M 0 5.579305 
C 1.479649 5.579305 2.898894 4.991434 3.945164 3.945164 
C 4.991434 2.898894 5.579305 1.479649 5.579305 0 
C 5.579305 -1.479649 4.991434 -2.898894 3.945164 -3.945164 
C 2.898894 -4.991434 1.479649 -5.579305 0 -5.579305 
C -1.479649 -5.579305 -2.898894 -4.991434 -3.945164 -3.945164 
C -4.991434 -2.898894 -5.579305 -1.479649 -5.579305 0 
C -5.579305 1.479649 -4.991434 2.898894 -3.945164 3.945164 
C -2.898894 4.991434 -1.479649 5.579305 0 5.579305 
z
" style="stroke: #000000"/>
    </defs>
    <g clip-path="url(#pe2d9f04048)">
     <use xlink:href="#mf00734e45c" x="368.901819" y="307.8" style="stroke: #000000"/>
    </g>
   </g>
   <g id="line2d_4">
    <defs>
     <path id="m24ff479097" d="M 0 5.393135 
C 1.430276 5.393135 2.802164 4.82488 3.813522 3.813522 
C 4.82488 2.802164 5.393135 1.430276 5.393135 0 
C 5.393135 -1.430276 4.82488 -2.802164 3.813522 -3.813522 
C 2.802164 -4.82488 1.430276 -5.393135 0 -5.393135 
C -1.430276 -5.393135 -2.802164 -4.82488 -3.813522 -3.813522 
C -4.82488 -2.802164 -5.393135 -1.430276 -5.393135 0 
C -5.393135 1.430276 -4.82488 2.802164 -3.813522 3.813522 
C -2.802164 4.82488 -1.430276 5.393135 0 5.393135 
z
" style="stroke: #000000"/>
    </defs>
    <g clip-path="url(#pe2d9f04048)">
     <use xlink:href="#m24ff479097" x="392.476899" y="142.017644" style="stroke: #000000"/>
    </g>
   </g>
   <g id="line2d_5">
    <defs>
     <path id="ma0aecbf98f" d="M 0 5.199906 
C 1.379031 5.199906 2.701766 4.652011 3.676889 3.676889 
C 4.652011 2.701766 5.199906 1.379031 5.199906 0 
C 5.199906 -1.379031 4.652011 -2.701766 3.676889 -3.676889 
C 2.701766 -4.652011 1.379031 -5.199906 0 -5.199906 
C -1.379031 -5.199906 -2.701766 -4.652011 -3.676889 -3.676889 
C -4.652011 -2.701766 -5.199906 -1.379031 -5.199906 0 
C -5.199906 1.379031 -4.652011 2.701766 -3.676889 3.676889 
C -2.701766 4.652011 -1.379031 5.199906 0 5.199906 
z
" style="stroke: #000000"/>
    </defs>
    <g clip-path="url(#pe2d9f04048)">
     <use xlink:href="#ma0aecbf98f" x="262.96989" y="171.030028" style="stroke: #000000"/>
    </g>
   </g>
   <g id="line2d_6">
    <defs>
     <path id="m19cfa31712" d="M 0 4.935182 
C 1.308826 4.935182 2.564221 4.41518 3.489701 3.489701 
C 4.41518 2.564221 4.935182 1.308826 4.935182 0 
C 4.935182 -1.308826 4.41518 -2.564221 3.489701 -3.489701 
C 2.564221 -4.41518 1.308826 -4.935182 0 -4.935182 
C -1.308826 -4.935182 -2.564221 -4.41518 -3.489701 -3.489701 
C -4.41518 -2.564221 -4.935182 -1.308826 -4.935182 0 
C -4.935182 1.308826 -4.41518 2.564221 -3.489701 3.489701 
C -2.564221 4.41518 -1.308826 4.935182 0 4.935182 
z
" style="stroke: #000000"/>
    </defs>
    <g clip-path="url(#pe2d9f04048)">
     <use xlink:href="#m19cfa31712" x="481.821951" y="267.500608" style="stroke: #000000"/>
    </g>
   </g>
   <g id="line2d_7">
    <defs>
     <path id="mccafea2aab" d="M 0 4.642701 
C 1.231259 4.642701 2.412254 4.153517 3.282885 3.282885 
C 4.153517 2.412254 4.642701 1.231259 4.642701 0 
C 4.642701 -1.231259 4.153517 -2.412254 3.282885 -3.282885 
C 2.412254 -4.153517 1.231259 -4.642701 0 -4.642701 
C -1.231259 -4.642701 -2.412254 -4.153517 -3.282885 -3.282885 
C -4.153517 -2.412254 -4.642701 -1.231259 -4.642701 0 
C -4.642701 1.231259 -4.153517 2.412254 -3.282885 3.282885 
C -2.412254 4.153517 -1.231259 4.642701 0 4.642701 
z
" style="stroke: #000000"/>
    </defs>
    <g clip-path="url(#pe2d9f04048)">
     <use xlink:href="#mccafea2aab" x="332.794174" y="86.89656" style="stroke: #000000"/>
    </g>
   </g>
   <g id="line2d_8"/>
   <g id="line2d_9"/>
   <g id="line2d_10"/>
  </g>
 </g>
 <defs>
  <clipPath id="pe2d9f04048">
   <path d="M 244.895854 320.4 
L 244.895854 43.2 
L 493.104146 43.2 
L 493.104146 320.4 
L 244.895854 320.4 
"/>
  </clipPath>
 </defs>
</svg>
