<?xml version="1.0" encoding="utf-8" standalone="no"?>
<!DOCTYPE svg PUBLIC "-//W3C//DTD SVG 1.1//EN"
  "http://www.w3.org/Graphics/SVG/1.1/DTD/svg11.dtd">
<svg xmlns:xlink="http://www.w3.org/1999/xlink" width="720pt" height="360pt" viewBox="0 0 720 360" xmlns="http://www.w3.org/2000/svg" version="1.1">
 <metadata>
  <rdf:RDF xmlns:dc="http://purl.org/dc/elements/1.1/" xmlns:cc="http://creativecommons.org/ns#" xmlns:rdf="http://www.w3.org/1999/02/22-rdf-syntax-ns#">
   <cc:Work>
    <dc:type rdf:resource="http://purl.org/dc/dcmitype/StillImage"/>
    <dc:date>2023-11-30T21:30:47.132706</dc:date>
    <dc:format>image/svg+xml</dc:format>
    <dc:creator>
     <cc:Agent>
      <dc:title>Matplotlib v3.8.1, https://matplotlib.org/</dc:title>
     </cc:Agent>
    </dc:creator>
   </cc:Work>
  </rdf:RDF>
 </metadata>
 <defs>
  <style type="text/css">*{stroke-linejoin: round; stroke-linecap: butt}</style>
 </defs>
 <g id="figure_1">
  <g id="patch_1">
   <path d="M 0 360 
L 720 360 
L 720 0 
L 0 0 
z
" style="fill: #ffffff"/>
  </g>
  <g id="axes_1">
   <g id="patch_2">
    <path d="M 248.374656 320.4 
L 248.374656 43.2 
L 489.625344 43.2 
L 489.625344 320.4 
L 248.374656 320.4 
" style="fill: #ffffff"/>
   </g>
   <g id="line2d_1">
    <defs>
     <path id="md1bc3300a4" d="M 0 11.652017 
C 3.090151 11.652017 6.054153 10.424287 8.23922 8.23922 
C 10.424287 6.054153 11.652017 3.090151 11.652017 0 
C 11.652017 -3.090151 10.424287 -6.054153 8.23922 -8.23922 
C 6.054153 -10.424287 3.090151 -11.652017 0 -11.652017 
C -3.090151 -11.652017 -6.054153 -10.424287 -8.23922 -8.23922 
C -10.424287 -6.054153 -11.652017 -3.090151 -11.652017 0 
C -11.652017 3.090151 -10.424287 6.054153 -8.23922 8.23922 
C -6.054153 10.424287 -3.090151 11.652017 0 11.652017 
z
" style="stroke: #000000"/>
    </defs>
    <g clip-path="url(#p60f3309c73)">
     <use xlink:href="#md1bc3300a4" x="381.968876" y="207.164902" style="stroke: #000000"/>
    </g>
   </g>
   <g id="line2d_2">
    <defs>
     <path id="m5a4bb509ea" d="M 0 10.951252 
C 2.904306 10.951252 5.69005 9.797359 7.743705 7.743705 
C 9.797359 5.69005 10.951252 2.904306 10.951252 0 
C 10.951252 -2.904306 9.797359 -5.69005 7.743705 -7.743705 
C 5.69005 -9.797359 2.904306 -10.951252 0 -10.951252 
C -2.904306 -10.951252 -5.69005 -9.797359 -7.743705 -7.743705 
C -9.797359 -5.69005 -10.951252 -2.904306 -10.951252 0 
C -10.951252 2.904306 -9.797359 5.69005 -7.743705 7.743705 
C -5.69005 9.797359 -2.904306 10.951252 0 10.951252 
z
" style="stroke: #000000"/>
    </defs>
    <g clip-path="url(#p60f3309c73)">
     <use xlink:href="#m5a4bb509ea" x="478.659404" y="307.8" style="stroke: #000000"/>
    </g>
   </g>
   <g id="line2d_3">
    <defs>
     <path id="m8e18e207c2" d="M 0 10.258597 
C 2.720612 10.258597 5.330161 9.177687 7.253924 7.253924 
C 9.177687 5.330161 10.258597 2.720612 10.258597 0 
C 10.258597 -2.720612 9.177687 -5.330161 7.253924 -7.253924 
C 5.330161 -9.177687 2.720612 -10.258597 0 -10.258597 
C -2.720612 -10.258597 -5.330161 -9.177687 -7.253924 -7.253924 
C -9.177687 -5.330161 -10.258597 -2.720612 -10.258597 0 
C -10.258597 2.720612 -9.177687 5.330161 -7.253924 7.253924 
C -5.330161 9.177687 -2.720612 10.258597 0 10.258597 
z
" style="stroke: #000000"/>
    </defs>
    <g clip-path="url(#p60f3309c73)">
     <use xlink:href="#m8e18e207c2" x="324.734877" y="273.340257" style="stroke: #000000"/>
    </g>
   </g>
   <g id="line2d_4">
    <defs>
     <path id="m11f5352835" d="M 0 9.988079 
C 2.648869 9.988079 5.189605 8.935672 7.062638 7.062638 
C 8.935672 5.189605 9.988079 2.648869 9.988079 0 
C 9.988079 -2.648869 8.935672 -5.189605 7.062638 -7.062638 
C 5.189605 -8.935672 2.648869 -9.988079 0 -9.988079 
C -2.648869 -9.988079 -5.189605 -8.935672 -7.062638 -7.062638 
C -8.935672 -5.189605 -9.988079 -2.648869 -9.988079 0 
C -9.988079 2.648869 -8.935672 5.189605 -7.062638 7.062638 
C -5.189605 8.935672 -2.648869 9.988079 0 9.988079 
z
" style="stroke: #000000"/>
    </defs>
    <g clip-path="url(#p60f3309c73)">
     <use xlink:href="#m11f5352835" x="303.503885" y="55.8" style="stroke: #000000"/>
    </g>
   </g>
   <g id="line2d_5">
    <defs>
     <path id="mfa3a436e13" d="M 0 9.987107 
C 2.648612 9.987107 5.1891 8.934803 7.061951 7.061951 
C 8.934803 5.1891 9.987107 2.648612 9.987107 0 
C 9.987107 -2.648612 8.934803 -5.1891 7.061951 -7.061951 
C 5.1891 -8.934803 2.648612 -9.987107 0 -9.987107 
C -2.648612 -9.987107 -5.1891 -8.934803 -7.061951 -7.061951 
C -8.934803 -5.1891 -9.987107 -2.648612 -9.987107 0 
C -9.987107 2.648612 -8.934803 5.1891 -7.061951 7.061951 
C -5.1891 8.934803 -2.648612 9.987107 0 9.987107 
z
" style="stroke: #000000"/>
    </defs>
    <g clip-path="url(#p60f3309c73)">
     <use xlink:href="#mfa3a436e13" x="434.758846" y="225.47256" style="stroke: #000000"/>
    </g>
   </g>
   <g id="line2d_6">
    <defs>
     <path id="m399f37de3b" d="M 0 9.771211 
C 2.591355 9.771211 5.076924 8.741654 6.909289 6.909289 
C 8.741654 5.076924 9.771211 2.591355 9.771211 0 
C 9.771211 -2.591355 8.741654 -5.076924 6.909289 -6.909289 
C 5.076924 -8.741654 2.591355 -9.771211 0 -9.771211 
C -2.591355 -9.771211 -5.076924 -8.741654 -6.909289 -6.909289 
C -8.741654 -5.076924 -9.771211 -2.591355 -9.771211 0 
C -9.771211 2.591355 -8.741654 5.076924 -6.909289 6.909289 
C -5.076924 8.741654 -2.591355 9.771211 0 9.771211 
z
" style="stroke: #000000"/>
    </defs>
    <g clip-path="url(#p60f3309c73)">
     <use xlink:href="#m399f37de3b" x="259.340596" y="158.109292" style="stroke: #000000"/>
    </g>
   </g>
   <g id="line2d_7">
    <defs>
     <path id="mccfe1b3423" d="M 0 9.265352 
C 2.4572 9.265352 4.81409 8.289096 6.551593 6.551593 
C 8.289096 4.81409 9.265352 2.4572 9.265352 0 
C 9.265352 -2.4572 8.289096 -4.81409 6.551593 -6.551593 
C 4.81409 -8.289096 2.4572 -9.265352 0 -9.265352 
C -2.4572 -9.265352 -4.81409 -8.289096 -6.551593 -6.551593 
C -8.289096 -4.81409 -9.265352 -2.4572 -9.265352 0 
C -9.265352 2.4572 -8.289096 4.81409 -6.551593 6.551593 
C -4.81409 8.289096 -2.4572 9.265352 0 9.265352 
z
" style="stroke: #000000"/>
    </defs>
    <g clip-path="url(#p60f3309c73)">
     <use xlink:href="#mccfe1b3423" x="308.324019" y="111.485383" style="stroke: #000000"/>
    </g>
   </g>
   <g id="line2d_8">
    <defs>
     <path id="m3fb1dfc44c" d="M 0 9.246902 
C 2.452307 9.246902 4.804504 8.27259 6.538547 6.538547 
C 8.27259 4.804504 9.246902 2.452307 9.246902 0 
C 9.246902 -2.452307 8.27259 -4.804504 6.538547 -6.538547 
C 4.804504 -8.27259 2.452307 -9.246902 0 -9.246902 
C -2.452307 -9.246902 -4.804504 -8.27259 -6.538547 -6.538547 
C -8.27259 -4.804504 -9.246902 -2.452307 -9.246902 0 
C -9.246902 2.452307 -8.27259 4.804504 -6.538547 6.538547 
C -4.804504 8.27259 -2.452307 9.246902 0 9.246902 
z
" style="stroke: #000000"/>
    </defs>
    <g clip-path="url(#p60f3309c73)">
     <use xlink:href="#m3fb1dfc44c" x="285.517996" y="155.357633" style="stroke: #000000"/>
    </g>
   </g>
   <g id="line2d_9">
    <defs>
     <path id="me507735878" d="M 0 9.182435 
C 2.43521 9.182435 4.771008 8.214916 6.492962 6.492962 
C 8.214916 4.771008 9.182435 2.43521 9.182435 0 
C 9.182435 -2.43521 8.214916 -4.771008 6.492962 -6.492962 
C 4.771008 -8.214916 2.43521 -9.182435 0 -9.182435 
C -2.43521 -9.182435 -4.771008 -8.214916 -6.492962 -6.492962 
C -8.214916 -4.771008 -9.182435 -2.43521 -9.182435 0 
C -9.182435 2.43521 -8.214916 4.771008 -6.492962 6.492962 
C -4.771008 8.214916 -2.43521 9.182435 0 9.182435 
z
" style="stroke: #000000"/>
    </defs>
    <g clip-path="url(#p60f3309c73)">
     <use xlink:href="#me507735878" x="381.621283" y="193.799768" style="stroke: #000000"/>
    </g>
   </g>
   <g id="line2d_10">
    <defs>
     <path id="m5c4989f6fa" d="M 0 9.050313 
C 2.400171 9.050313 4.702361 8.096715 6.399538 6.399538 
C 8.096715 4.702361 9.050313 2.400171 9.050313 0 
C 9.050313 -2.400171 8.096715 -4.702361 6.399538 -6.399538 
C 4.702361 -8.096715 2.400171 -9.050313 0 -9.050313 
C -2.400171 -9.050313 -4.702361 -8.096715 -6.399538 -6.399538 
C -8.096715 -4.702361 -9.050313 -2.400171 -9.050313 0 
C -9.050313 2.400171 -8.096715 4.702361 -6.399538 6.399538 
C -4.702361 8.096715 -2.400171 9.050313 0 9.050313 
z
" style="stroke: #000000"/>
    </defs>
    <g clip-path="url(#p60f3309c73)">
     <use xlink:href="#m5c4989f6fa" x="403.030824" y="191.478093" style="stroke: #000000"/>
    </g>
   </g>
  </g>
 </g>
 <defs>
  <clipPath id="p60f3309c73">
   <path d="M 248.374656 320.4 
L 248.374656 43.2 
L 489.625344 43.2 
L 489.625344 320.4 
L 248.374656 320.4 
"/>
  </clipPath>
 </defs>
</svg>
