<?xml version="1.0" encoding="utf-8" standalone="no"?>
<!DOCTYPE svg PUBLIC "-//W3C//DTD SVG 1.1//EN"
  "http://www.w3.org/Graphics/SVG/1.1/DTD/svg11.dtd">
<svg xmlns:xlink="http://www.w3.org/1999/xlink" width="720pt" height="360pt" viewBox="0 0 720 360" xmlns="http://www.w3.org/2000/svg" version="1.1">
 <metadata>
  <rdf:RDF xmlns:dc="http://purl.org/dc/elements/1.1/" xmlns:cc="http://creativecommons.org/ns#" xmlns:rdf="http://www.w3.org/1999/02/22-rdf-syntax-ns#">
   <cc:Work>
    <dc:type rdf:resource="http://purl.org/dc/dcmitype/StillImage"/>
    <dc:date>2023-11-30T21:30:46.297030</dc:date>
    <dc:format>image/svg+xml</dc:format>
    <dc:creator>
     <cc:Agent>
      <dc:title>Matplotlib v3.8.1, https://matplotlib.org/</dc:title>
     </cc:Agent>
    </dc:creator>
   </cc:Work>
  </rdf:RDF>
 </metadata>
 <defs>
  <style type="text/css">*{stroke-linejoin: round; stroke-linecap: butt}</style>
 </defs>
 <g id="figure_1">
  <g id="patch_1">
   <path d="M 0 360 
L 720 360 
L 720 0 
L 0 0 
z
" style="fill: #ffffff"/>
  </g>
  <g id="axes_1">
   <g id="patch_2">
    <path d="M 114.717862 320.4 
L 114.717862 43.2 
L 623.282138 43.2 
L 623.282138 320.4 
L 114.717862 320.4 
" style="fill: #ffffff"/>
   </g>
   <g id="line2d_1">
    <defs>
     <path id="m6492d54598" d="M 0 9.979378 
C 2.646562 9.979378 5.185084 8.927887 7.056486 7.056486 
C 8.927887 5.185084 9.979378 2.646562 9.979378 0 
C 9.979378 -2.646562 8.927887 -5.185084 7.056486 -7.056486 
C 5.185084 -8.927887 2.646562 -9.979378 0 -9.979378 
C -2.646562 -9.979378 -5.185084 -8.927887 -7.056486 -7.056486 
C -8.927887 -5.185084 -9.979378 -2.646562 -9.979378 0 
C -9.979378 2.646562 -8.927887 5.185084 -7.056486 7.056486 
C -5.185084 8.927887 -2.646562 9.979378 0 9.979378 
z
" style="stroke: #000000"/>
    </defs>
    <g clip-path="url(#p4fd377b406)">
     <use xlink:href="#m6492d54598" x="359.70997" y="171.588987" style="stroke: #000000"/>
    </g>
   </g>
   <g id="line2d_2">
    <defs>
     <path id="m5d63312212" d="M 0 9.506792 
C 2.521231 9.506792 4.939538 8.505097 6.722317 6.722317 
C 8.505097 4.939538 9.506792 2.521231 9.506792 0 
C 9.506792 -2.521231 8.505097 -4.939538 6.722317 -6.722317 
C 4.939538 -8.505097 2.521231 -9.506792 0 -9.506792 
C -2.521231 -9.506792 -4.939538 -8.505097 -6.722317 -6.722317 
C -8.505097 -4.939538 -9.506792 -2.521231 -9.506792 0 
C -9.506792 2.521231 -8.505097 4.939538 -6.722317 6.722317 
C -4.939538 8.505097 -2.521231 9.506792 0 9.506792 
z
" style="stroke: #000000"/>
    </defs>
    <g clip-path="url(#p4fd377b406)">
     <use xlink:href="#m5d63312212" x="369.867148" y="55.8" style="stroke: #000000"/>
    </g>
   </g>
   <g id="line2d_3">
    <defs>
     <path id="m150d02136b" d="M 0 9.008053 
C 2.388964 9.008053 4.680403 8.058908 6.369656 6.369656 
C 8.058908 4.680403 9.008053 2.388964 9.008053 0 
C 9.008053 -2.388964 8.058908 -4.680403 6.369656 -6.369656 
C 4.680403 -8.058908 2.388964 -9.008053 0 -9.008053 
C -2.388964 -9.008053 -4.680403 -8.058908 -6.369656 -6.369656 
C -8.058908 -4.680403 -9.008053 -2.388964 -9.008053 0 
C -9.008053 2.388964 -8.058908 4.680403 -6.369656 6.369656 
C -4.680403 8.058908 -2.388964 9.008053 0 9.008053 
z
" style="stroke: #000000"/>
    </defs>
    <g clip-path="url(#p4fd377b406)">
     <use xlink:href="#m150d02136b" x="234.992526" y="109.260049" style="stroke: #000000"/>
    </g>
   </g>
   <g id="line2d_4">
    <defs>
     <path id="m2be1a78dac" d="M 0 8.8053 
C 2.335193 8.8053 4.575057 7.877518 6.226287 6.226287 
C 7.877518 4.575057 8.8053 2.335193 8.8053 0 
C 8.8053 -2.335193 7.877518 -4.575057 6.226287 -6.226287 
C 4.575057 -7.877518 2.335193 -8.8053 0 -8.8053 
C -2.335193 -8.8053 -4.575057 -7.877518 -6.226287 -6.226287 
C -7.877518 -4.575057 -8.8053 -2.335193 -8.8053 0 
C -8.8053 2.335193 -7.877518 4.575057 -6.226287 6.226287 
C -4.575057 7.877518 -2.335193 8.8053 0 8.8053 
z
" style="stroke: #000000"/>
    </defs>
    <g clip-path="url(#p4fd377b406)">
     <use xlink:href="#m2be1a78dac" x="378.591904" y="307.8" style="stroke: #000000"/>
    </g>
   </g>
   <g id="line2d_5">
    <defs>
     <path id="m9f1dca5e15" d="M 0 8.787589 
C 2.330496 8.787589 4.565854 7.861673 6.213764 6.213764 
C 7.861673 4.565854 8.787589 2.330496 8.787589 0 
C 8.787589 -2.330496 7.861673 -4.565854 6.213764 -6.213764 
C 4.565854 -7.861673 2.330496 -8.787589 0 -8.787589 
C -2.330496 -8.787589 -4.565854 -7.861673 -6.213764 -6.213764 
C -7.861673 -4.565854 -8.787589 -2.330496 -8.787589 0 
C -8.787589 2.330496 -7.861673 4.565854 -6.213764 6.213764 
C -4.565854 7.861673 -2.330496 8.787589 0 8.787589 
z
" style="stroke: #000000"/>
    </defs>
    <g clip-path="url(#p4fd377b406)">
     <use xlink:href="#m9f1dca5e15" x="600.16558" y="238.978015" style="stroke: #000000"/>
    </g>
   </g>
   <g id="line2d_6">
    <defs>
     <path id="mcf37a8cddf" d="M 0 8.64635 
C 2.293039 8.64635 4.492469 7.735316 6.113892 6.113892 
C 7.735316 4.492469 8.64635 2.293039 8.64635 0 
C 8.64635 -2.293039 7.735316 -4.492469 6.113892 -6.113892 
C 4.492469 -7.735316 2.293039 -8.64635 0 -8.64635 
C -2.293039 -8.64635 -4.492469 -7.735316 -6.113892 -6.113892 
C -7.735316 -4.492469 -8.64635 -2.293039 -8.64635 0 
C -8.64635 2.293039 -7.735316 4.492469 -6.113892 6.113892 
C -4.492469 7.735316 -2.293039 8.64635 0 8.64635 
z
" style="stroke: #000000"/>
    </defs>
    <g clip-path="url(#p4fd377b406)">
     <use xlink:href="#mcf37a8cddf" x="352.954302" y="176.032785" style="stroke: #000000"/>
    </g>
   </g>
   <g id="line2d_7">
    <defs>
     <path id="m94aef9dfc7" d="M 0 8.509241 
C 2.256677 8.509241 4.421231 7.612654 6.016942 6.016942 
C 7.612654 4.421231 8.509241 2.256677 8.509241 0 
C 8.509241 -2.256677 7.612654 -4.421231 6.016942 -6.016942 
C 4.421231 -7.612654 2.256677 -8.509241 0 -8.509241 
C -2.256677 -8.509241 -4.421231 -7.612654 -6.016942 -6.016942 
C -7.612654 -4.421231 -8.509241 -2.256677 -8.509241 0 
C -8.509241 2.256677 -7.612654 4.421231 -6.016942 6.016942 
C -4.421231 7.612654 -2.256677 8.509241 0 8.509241 
z
" style="stroke: #000000"/>
    </defs>
    <g clip-path="url(#p4fd377b406)">
     <use xlink:href="#m94aef9dfc7" x="365.350874" y="165.697135" style="stroke: #000000"/>
    </g>
   </g>
   <g id="line2d_8">
    <defs>
     <path id="mddb72c2ad6" d="M 0 8.427325 
C 2.234953 8.427325 4.378668 7.539369 5.959018 5.959018 
C 7.539369 4.378668 8.427325 2.234953 8.427325 0 
C 8.427325 -2.234953 7.539369 -4.378668 5.959018 -5.959018 
C 4.378668 -7.539369 2.234953 -8.427325 0 -8.427325 
C -2.234953 -8.427325 -4.378668 -7.539369 -5.959018 -5.959018 
C -7.539369 -4.378668 -8.427325 -2.234953 -8.427325 0 
C -8.427325 2.234953 -7.539369 4.378668 -5.959018 5.959018 
C -4.378668 7.539369 -2.234953 8.427325 0 8.427325 
z
" style="stroke: #000000"/>
    </defs>
    <g clip-path="url(#p4fd377b406)">
     <use xlink:href="#mddb72c2ad6" x="137.83442" y="59.4284" style="stroke: #000000"/>
    </g>
   </g>
   <g id="line2d_9">
    <defs>
     <path id="m52031d009e" d="M 0 8.37971 
C 2.222325 8.37971 4.353929 7.496771 5.92535 5.92535 
C 7.496771 4.353929 8.37971 2.222325 8.37971 0 
C 8.37971 -2.222325 7.496771 -4.353929 5.92535 -5.92535 
C 4.353929 -7.496771 2.222325 -8.37971 0 -8.37971 
C -2.222325 -8.37971 -4.353929 -7.496771 -5.92535 -5.92535 
C -7.496771 -4.353929 -8.37971 -2.222325 -8.37971 0 
C -8.37971 2.222325 -7.496771 4.353929 -5.92535 5.92535 
C -4.353929 7.496771 -2.222325 8.37971 0 8.37971 
z
" style="stroke: #000000"/>
    </defs>
    <g clip-path="url(#p4fd377b406)">
     <use xlink:href="#m52031d009e" x="462.047291" y="290.641268" style="stroke: #000000"/>
    </g>
   </g>
   <g id="line2d_10">
    <defs>
     <path id="m747bf02593" d="M 0 8.312234 
C 2.20443 8.312234 4.318869 7.436404 5.877637 5.877637 
C 7.436404 4.318869 8.312234 2.20443 8.312234 0 
C 8.312234 -2.20443 7.436404 -4.318869 5.877637 -5.877637 
C 4.318869 -7.436404 2.20443 -8.312234 0 -8.312234 
C -2.20443 -8.312234 -4.318869 -7.436404 -5.877637 -5.877637 
C -7.436404 -4.318869 -8.312234 -2.20443 -8.312234 0 
C -8.312234 2.20443 -7.436404 4.318869 -5.877637 5.877637 
C -4.318869 7.436404 -2.20443 8.312234 0 8.312234 
z
" style="stroke: #000000"/>
    </defs>
    <g clip-path="url(#p4fd377b406)">
     <use xlink:href="#m747bf02593" x="429.190358" y="162.503933" style="stroke: #000000"/>
    </g>
   </g>
  </g>
 </g>
 <defs>
  <clipPath id="p4fd377b406">
   <path d="M 114.717862 320.4 
L 114.717862 43.2 
L 623.282138 43.2 
L 623.282138 320.4 
L 114.717862 320.4 
"/>
  </clipPath>
 </defs>
</svg>
