<?xml version="1.0" encoding="utf-8" standalone="no"?>
<!DOCTYPE svg PUBLIC "-//W3C//DTD SVG 1.1//EN"
  "http://www.w3.org/Graphics/SVG/1.1/DTD/svg11.dtd">
<svg xmlns:xlink="http://www.w3.org/1999/xlink" width="720pt" height="360pt" viewBox="0 0 720 360" xmlns="http://www.w3.org/2000/svg" version="1.1">
 <metadata>
  <rdf:RDF xmlns:dc="http://purl.org/dc/elements/1.1/" xmlns:cc="http://creativecommons.org/ns#" xmlns:rdf="http://www.w3.org/1999/02/22-rdf-syntax-ns#">
   <cc:Work>
    <dc:type rdf:resource="http://purl.org/dc/dcmitype/StillImage"/>
    <dc:date>2023-11-30T21:30:46.340345</dc:date>
    <dc:format>image/svg+xml</dc:format>
    <dc:creator>
     <cc:Agent>
      <dc:title>Matplotlib v3.8.1, https://matplotlib.org/</dc:title>
     </cc:Agent>
    </dc:creator>
   </cc:Work>
  </rdf:RDF>
 </metadata>
 <defs>
  <style type="text/css">*{stroke-linejoin: round; stroke-linecap: butt}</style>
 </defs>
 <g id="figure_1">
  <g id="patch_1">
   <path d="M 0 360 
L 720 360 
L 720 0 
L 0 0 
z
" style="fill: #ffffff"/>
  </g>
  <g id="axes_1">
   <g id="patch_2">
    <path d="M 132.031736 320.4 
L 132.031736 43.2 
L 605.968264 43.2 
L 605.968264 320.4 
L 132.031736 320.4 
" style="fill: #ffffff"/>
   </g>
   <g id="line2d_1">
    <defs>
     <path id="maa3233e0d6" d="M 0 10.025632 
C 2.658829 10.025632 5.209117 8.969268 7.089193 7.089193 
C 8.969268 5.209117 10.025632 2.658829 10.025632 0 
C 10.025632 -2.658829 8.969268 -5.209117 7.089193 -7.089193 
C 5.209117 -8.969268 2.658829 -10.025632 0 -10.025632 
C -2.658829 -10.025632 -5.209117 -8.969268 -7.089193 -7.089193 
C -8.969268 -5.209117 -10.025632 -2.658829 -10.025632 0 
C -10.025632 2.658829 -8.969268 5.209117 -7.089193 7.089193 
C -5.209117 8.969268 -2.658829 10.025632 0 10.025632 
z
" style="stroke: #000000"/>
    </defs>
    <g clip-path="url(#pa3a401c716)">
     <use xlink:href="#maa3233e0d6" x="425.345015" y="160.134553" style="stroke: #000000"/>
    </g>
   </g>
   <g id="line2d_2">
    <defs>
     <path id="m4fde78bfeb" d="M 0 9.893716 
C 2.623844 9.893716 5.140576 8.851252 6.995914 6.995914 
C 8.851252 5.140576 9.893716 2.623844 9.893716 0 
C 9.893716 -2.623844 8.851252 -5.140576 6.995914 -6.995914 
C 5.140576 -8.851252 2.623844 -9.893716 0 -9.893716 
C -2.623844 -9.893716 -5.140576 -8.851252 -6.995914 -6.995914 
C -8.851252 -5.140576 -9.893716 -2.623844 -9.893716 0 
C -9.893716 2.623844 -8.851252 5.140576 -6.995914 6.995914 
C -5.140576 8.851252 -2.623844 9.893716 0 9.893716 
z
" style="stroke: #000000"/>
    </defs>
    <g clip-path="url(#pa3a401c716)">
     <use xlink:href="#m4fde78bfeb" x="192.982357" y="261.542359" style="stroke: #000000"/>
    </g>
   </g>
   <g id="line2d_3">
    <defs>
     <path id="m48b4f45773" d="M 0 8.644937 
C 2.292664 8.644937 4.491735 7.734052 6.112894 6.112894 
C 7.734052 4.491735 8.644937 2.292664 8.644937 0 
C 8.644937 -2.292664 7.734052 -4.491735 6.112894 -6.112894 
C 4.491735 -7.734052 2.292664 -8.644937 0 -8.644937 
C -2.292664 -8.644937 -4.491735 -7.734052 -6.112894 -6.112894 
C -7.734052 -4.491735 -8.644937 -2.292664 -8.644937 0 
C -8.644937 2.292664 -7.734052 4.491735 -6.112894 6.112894 
C -4.491735 7.734052 -2.292664 8.644937 0 8.644937 
z
" style="stroke: #000000"/>
    </defs>
    <g clip-path="url(#pa3a401c716)">
     <use xlink:href="#m48b4f45773" x="355.666986" y="169.798049" style="stroke: #000000"/>
    </g>
   </g>
   <g id="line2d_4">
    <defs>
     <path id="m4be8b986ed" d="M 0 8.463403 
C 2.244521 8.463403 4.397414 7.571645 5.98453 5.98453 
C 7.571645 4.397414 8.463403 2.244521 8.463403 0 
C 8.463403 -2.244521 7.571645 -4.397414 5.98453 -5.98453 
C 4.397414 -7.571645 2.244521 -8.463403 0 -8.463403 
C -2.244521 -8.463403 -4.397414 -7.571645 -5.98453 -5.98453 
C -7.571645 -4.397414 -8.463403 -2.244521 -8.463403 0 
C -8.463403 2.244521 -7.571645 4.397414 -5.98453 5.98453 
C -4.397414 7.571645 -2.244521 8.463403 0 8.463403 
z
" style="stroke: #000000"/>
    </defs>
    <g clip-path="url(#pa3a401c716)">
     <use xlink:href="#m4be8b986ed" x="350.718807" y="55.8" style="stroke: #000000"/>
    </g>
   </g>
   <g id="line2d_5">
    <defs>
     <path id="m3c70327e1e" d="M 0 8.448089 
C 2.240459 8.448089 4.389457 7.557945 5.973701 5.973701 
C 7.557945 4.389457 8.448089 2.240459 8.448089 0 
C 8.448089 -2.240459 7.557945 -4.389457 5.973701 -5.973701 
C 4.389457 -7.557945 2.240459 -8.448089 0 -8.448089 
C -2.240459 -8.448089 -4.389457 -7.557945 -5.973701 -5.973701 
C -7.557945 -4.389457 -8.448089 -2.240459 -8.448089 0 
C -8.448089 2.240459 -7.557945 4.389457 -5.973701 5.973701 
C -4.389457 7.557945 -2.240459 8.448089 0 8.448089 
z
" style="stroke: #000000"/>
    </defs>
    <g clip-path="url(#pa3a401c716)">
     <use xlink:href="#m3c70327e1e" x="463.128053" y="97.96161" style="stroke: #000000"/>
    </g>
   </g>
   <g id="line2d_6">
    <defs>
     <path id="m7716bd47a1" d="M 0 8.420862 
C 2.233239 8.420862 4.37531 7.533587 5.954449 5.954449 
C 7.533587 4.37531 8.420862 2.233239 8.420862 0 
C 8.420862 -2.233239 7.533587 -4.37531 5.954449 -5.954449 
C 4.37531 -7.533587 2.233239 -8.420862 0 -8.420862 
C -2.233239 -8.420862 -4.37531 -7.533587 -5.954449 -5.954449 
C -7.533587 -4.37531 -8.420862 -2.233239 -8.420862 0 
C -8.420862 2.233239 -7.533587 4.37531 -5.954449 5.954449 
C -4.37531 7.533587 -2.233239 8.420862 0 8.420862 
z
" style="stroke: #000000"/>
    </defs>
    <g clip-path="url(#pa3a401c716)">
     <use xlink:href="#m7716bd47a1" x="153.574306" y="307.8" style="stroke: #000000"/>
    </g>
   </g>
   <g id="line2d_7">
    <defs>
     <path id="m3b80234f63" d="M 0 8.205623 
C 2.176157 8.205623 4.263477 7.341027 5.802252 5.802252 
C 7.341027 4.263477 8.205623 2.176157 8.205623 0 
C 8.205623 -2.176157 7.341027 -4.263477 5.802252 -5.802252 
C 4.263477 -7.341027 2.176157 -8.205623 0 -8.205623 
C -2.176157 -8.205623 -4.263477 -7.341027 -5.802252 -5.802252 
C -7.341027 -4.263477 -8.205623 -2.176157 -8.205623 0 
C -8.205623 2.176157 -7.341027 4.263477 -5.802252 5.802252 
C -4.263477 7.341027 -2.176157 8.205623 0 8.205623 
z
" style="stroke: #000000"/>
    </defs>
    <g clip-path="url(#pa3a401c716)">
     <use xlink:href="#m3b80234f63" x="258.65796" y="234.039236" style="stroke: #000000"/>
    </g>
   </g>
   <g id="line2d_8">
    <defs>
     <path id="me9af6b9923" d="M 0 8.079788 
C 2.142785 8.079788 4.198095 7.22845 5.713273 5.713273 
C 7.22845 4.198095 8.079788 2.142785 8.079788 0 
C 8.079788 -2.142785 7.22845 -4.198095 5.713273 -5.713273 
C 4.198095 -7.22845 2.142785 -8.079788 0 -8.079788 
C -2.142785 -8.079788 -4.198095 -7.22845 -5.713273 -5.713273 
C -7.22845 -4.198095 -8.079788 -2.142785 -8.079788 0 
C -8.079788 2.142785 -7.22845 4.198095 -5.713273 5.713273 
C -4.198095 7.22845 -2.142785 8.079788 0 8.079788 
z
" style="stroke: #000000"/>
    </defs>
    <g clip-path="url(#pa3a401c716)">
     <use xlink:href="#me9af6b9923" x="584.425694" y="186.123209" style="stroke: #000000"/>
    </g>
   </g>
   <g id="line2d_9">
    <defs>
     <path id="m4a05bc2c9e" d="M 0 7.978574 
C 2.115942 7.978574 4.145506 7.137901 5.641704 5.641704 
C 7.137901 4.145506 7.978574 2.115942 7.978574 0 
C 7.978574 -2.115942 7.137901 -4.145506 5.641704 -5.641704 
C 4.145506 -7.137901 2.115942 -7.978574 0 -7.978574 
C -2.115942 -7.978574 -4.145506 -7.137901 -5.641704 -5.641704 
C -7.137901 -4.145506 -7.978574 -2.115942 -7.978574 0 
C -7.978574 2.115942 -7.137901 4.145506 -5.641704 5.641704 
C -4.145506 7.137901 -2.115942 7.978574 0 7.978574 
z
" style="stroke: #000000"/>
    </defs>
    <g clip-path="url(#pa3a401c716)">
     <use xlink:href="#m4a05bc2c9e" x="263.358982" y="151.776573" style="stroke: #000000"/>
    </g>
   </g>
   <g id="line2d_10">
    <defs>
     <path id="m47f5ee66ff" d="M 0 7.959257 
C 2.11082 7.959257 4.13547 7.120619 5.628045 5.628045 
C 7.120619 4.13547 7.959257 2.11082 7.959257 0 
C 7.959257 -2.11082 7.120619 -4.13547 5.628045 -5.628045 
C 4.13547 -7.120619 2.11082 -7.959257 0 -7.959257 
C -2.11082 -7.959257 -4.13547 -7.120619 -5.628045 -5.628045 
C -7.120619 -4.13547 -7.959257 -2.11082 -7.959257 0 
C -7.959257 2.11082 -7.120619 4.13547 -5.628045 5.628045 
C -4.13547 7.120619 -2.11082 7.959257 0 7.959257 
z
" style="stroke: #000000"/>
    </defs>
    <g clip-path="url(#pa3a401c716)">
     <use xlink:href="#m47f5ee66ff" x="523.212364" y="210.160603" style="stroke: #000000"/>
    </g>
   </g>
  </g>
 </g>
 <defs>
  <clipPath id="pa3a401c716">
   <path d="M 132.031736 320.4 
L 132.031736 43.2 
L 605.968264 43.2 
L 605.968264 320.4 
L 132.031736 320.4 
"/>
  </clipPath>
 </defs>
</svg>
