<?xml version="1.0" encoding="utf-8" standalone="no"?>
<!DOCTYPE svg PUBLIC "-//W3C//DTD SVG 1.1//EN"
  "http://www.w3.org/Graphics/SVG/1.1/DTD/svg11.dtd">
<svg xmlns:xlink="http://www.w3.org/1999/xlink" width="488.336527pt" height="291.6pt" viewBox="0 0 488.336527 291.6" xmlns="http://www.w3.org/2000/svg" version="1.1">
 <metadata>
  <rdf:RDF xmlns:dc="http://purl.org/dc/elements/1.1/" xmlns:cc="http://creativecommons.org/ns#" xmlns:rdf="http://www.w3.org/1999/02/22-rdf-syntax-ns#">
   <cc:Work>
    <dc:type rdf:resource="http://purl.org/dc/dcmitype/StillImage"/>
    <dc:date>2023-11-30T20:51:29.438626</dc:date>
    <dc:format>image/svg+xml</dc:format>
    <dc:creator>
     <cc:Agent>
      <dc:title>Matplotlib v3.8.1, https://matplotlib.org/</dc:title>
     </cc:Agent>
    </dc:creator>
   </cc:Work>
  </rdf:RDF>
 </metadata>
 <defs>
  <style type="text/css">*{stroke-linejoin: round; stroke-linecap: butt}</style>
 </defs>
 <g id="figure_1">
  <g id="patch_1">
   <path d="M 0 291.6 
L 488.336527 291.6 
L 488.336527 0 
L 0 0 
z
" style="fill: #ffffff"/>
  </g>
  <g id="axes_1">
   <g id="patch_2">
    <path d="M 7.2 284.4 
L 7.2 7.2 
L 481.136527 7.2 
L 481.136527 284.4 
L 7.2 284.4 
" style="fill: #ffffff"/>
   </g>
   <g id="line2d_1">
    <defs>
     <path id="m9302262e86" d="M 0 3 
C 0.795609 3 1.55874 2.683901 2.12132 2.12132 
C 2.683901 1.55874 3 0.795609 3 0 
C 3 -0.795609 2.683901 -1.55874 2.12132 -2.12132 
C 1.55874 -2.683901 0.795609 -3 0 -3 
C -0.795609 -3 -1.55874 -2.683901 -2.12132 -2.12132 
C -2.683901 -1.55874 -3 -0.795609 -3 0 
C -3 0.795609 -2.683901 1.55874 -2.12132 2.12132 
C -1.55874 2.683901 -0.795609 3 0 3 
z
" style="stroke: #000000"/>
    </defs>
    <g clip-path="url(#pdb8cdec8a3)">
     <use xlink:href="#m9302262e86" x="300.513278" y="124.134553" style="stroke: #000000"/>
    </g>
   </g>
   <g id="line2d_2">
    <g clip-path="url(#pdb8cdec8a3)">
     <use xlink:href="#m9302262e86" x="68.150621" y="225.542359" style="stroke: #000000"/>
    </g>
   </g>
   <g id="line2d_3">
    <g clip-path="url(#pdb8cdec8a3)">
     <use xlink:href="#m9302262e86" x="230.83525" y="133.798049" style="stroke: #000000"/>
    </g>
   </g>
   <g id="line2d_4">
    <g clip-path="url(#pdb8cdec8a3)">
     <use xlink:href="#m9302262e86" x="225.88707" y="19.8" style="stroke: #000000"/>
    </g>
   </g>
   <g id="line2d_5">
    <g clip-path="url(#pdb8cdec8a3)">
     <use xlink:href="#m9302262e86" x="338.296316" y="61.96161" style="stroke: #000000"/>
    </g>
   </g>
   <g id="line2d_6">
    <g clip-path="url(#pdb8cdec8a3)">
     <use xlink:href="#m9302262e86" x="28.742569" y="271.8" style="stroke: #000000"/>
    </g>
   </g>
   <g id="line2d_7">
    <g clip-path="url(#pdb8cdec8a3)">
     <use xlink:href="#m9302262e86" x="133.826223" y="198.039236" style="stroke: #000000"/>
    </g>
   </g>
   <g id="line2d_8">
    <g clip-path="url(#pdb8cdec8a3)">
     <use xlink:href="#m9302262e86" x="459.593958" y="150.123209" style="stroke: #000000"/>
    </g>
   </g>
   <g id="line2d_9">
    <g clip-path="url(#pdb8cdec8a3)">
     <use xlink:href="#m9302262e86" x="138.527246" y="115.776573" style="stroke: #000000"/>
    </g>
   </g>
   <g id="line2d_10">
    <g clip-path="url(#pdb8cdec8a3)">
     <use xlink:href="#m9302262e86" x="398.380628" y="174.160603" style="stroke: #000000"/>
    </g>
   </g>
  </g>
 </g>
 <defs>
  <clipPath id="pdb8cdec8a3">
   <path d="M 7.2 284.4 
L 7.2 7.2 
L 481.136527 7.2 
L 481.136527 284.4 
L 7.2 284.4 
"/>
  </clipPath>
 </defs>
</svg>
