<?xml version="1.0" encoding="utf-8" standalone="no"?>
<!DOCTYPE svg PUBLIC "-//W3C//DTD SVG 1.1//EN"
  "http://www.w3.org/Graphics/SVG/1.1/DTD/svg11.dtd">
<svg xmlns:xlink="http://www.w3.org/1999/xlink" width="720pt" height="360pt" viewBox="0 0 720 360" xmlns="http://www.w3.org/2000/svg" version="1.1">
 <metadata>
  <rdf:RDF xmlns:dc="http://purl.org/dc/elements/1.1/" xmlns:cc="http://creativecommons.org/ns#" xmlns:rdf="http://www.w3.org/1999/02/22-rdf-syntax-ns#">
   <cc:Work>
    <dc:type rdf:resource="http://purl.org/dc/dcmitype/StillImage"/>
    <dc:date>2023-11-30T21:30:46.387632</dc:date>
    <dc:format>image/svg+xml</dc:format>
    <dc:creator>
     <cc:Agent>
      <dc:title>Matplotlib v3.8.1, https://matplotlib.org/</dc:title>
     </cc:Agent>
    </dc:creator>
   </cc:Work>
  </rdf:RDF>
 </metadata>
 <defs>
  <style type="text/css">*{stroke-linejoin: round; stroke-linecap: butt}</style>
 </defs>
 <g id="figure_1">
  <g id="patch_1">
   <path d="M 0 360 
L 720 360 
L 720 0 
L 0 0 
z
" style="fill: #ffffff"/>
  </g>
  <g id="axes_1">
   <g id="patch_2">
    <path d="M 90 314.038549 
L 90 49.561451 
L 648 49.561451 
L 648 314.038549 
L 90 314.038549 
" style="fill: #ffffff"/>
   </g>
   <g id="line2d_1">
    <defs>
     <path id="mbcafd9a827" d="M 0 10.068203 
C 2.670119 10.068203 5.231236 9.007354 7.119295 7.119295 
C 9.007354 5.231236 10.068203 2.670119 10.068203 0 
C 10.068203 -2.670119 9.007354 -5.231236 7.119295 -7.119295 
C 5.231236 -9.007354 2.670119 -10.068203 0 -10.068203 
C -2.670119 -10.068203 -5.231236 -9.007354 -7.119295 -7.119295 
C -9.007354 -5.231236 -10.068203 -2.670119 -10.068203 0 
C -10.068203 2.670119 -9.007354 5.231236 -7.119295 7.119295 
C -5.231236 9.007354 -2.670119 10.068203 0 10.068203 
z
" style="stroke: #000000"/>
    </defs>
    <g clip-path="url(#pbab2d31a7f)">
     <use xlink:href="#mbcafd9a827" x="145.573504" y="225.250791" style="stroke: #000000"/>
    </g>
   </g>
   <g id="line2d_2">
    <defs>
     <path id="mfa55e09794" d="M 0 9.202068 
C 2.440417 9.202068 4.781209 8.23248 6.506844 6.506844 
C 8.23248 4.781209 9.202068 2.440417 9.202068 0 
C 9.202068 -2.440417 8.23248 -4.781209 6.506844 -6.506844 
C 4.781209 -8.23248 2.440417 -9.202068 0 -9.202068 
C -2.440417 -9.202068 -4.781209 -8.23248 -6.506844 -6.506844 
C -8.23248 -4.781209 -9.202068 -2.440417 -9.202068 0 
C -9.202068 2.440417 -8.23248 4.781209 -6.506844 6.506844 
C -4.781209 8.23248 -2.440417 9.202068 0 9.202068 
z
" style="stroke: #000000"/>
    </defs>
    <g clip-path="url(#pbab2d31a7f)">
     <use xlink:href="#mfa55e09794" x="293.688282" y="302.016863" style="stroke: #000000"/>
    </g>
   </g>
   <g id="line2d_3">
    <defs>
     <path id="m351e4d2bcf" d="M 0 9.127374 
C 2.420608 9.127374 4.7424 8.165656 6.454028 6.454028 
C 8.165656 4.7424 9.127374 2.420608 9.127374 0 
C 9.127374 -2.420608 8.165656 -4.7424 6.454028 -6.454028 
C 4.7424 -8.165656 2.420608 -9.127374 0 -9.127374 
C -2.420608 -9.127374 -4.7424 -8.165656 -6.454028 -6.454028 
C -8.165656 -4.7424 -9.127374 -2.420608 -9.127374 0 
C -9.127374 2.420608 -8.165656 4.7424 -6.454028 6.454028 
C -4.7424 8.165656 -2.420608 9.127374 0 9.127374 
z
" style="stroke: #000000"/>
    </defs>
    <g clip-path="url(#pbab2d31a7f)">
     <use xlink:href="#m351e4d2bcf" x="622.636364" y="151.827405" style="stroke: #000000"/>
    </g>
   </g>
   <g id="line2d_4">
    <defs>
     <path id="m7bd893b84a" d="M 0 8.790126 
C 2.331169 8.790126 4.567172 7.863943 6.215557 6.215557 
C 7.863943 4.567172 8.790126 2.331169 8.790126 0 
C 8.790126 -2.331169 7.863943 -4.567172 6.215557 -6.215557 
C 4.567172 -7.863943 2.331169 -8.790126 0 -8.790126 
C -2.331169 -8.790126 -4.567172 -7.863943 -6.215557 -6.215557 
C -7.863943 -4.567172 -8.790126 -2.331169 -8.790126 0 
C -8.790126 2.331169 -7.863943 4.567172 -6.215557 6.215557 
C -4.567172 7.863943 -2.331169 8.790126 0 8.790126 
z
" style="stroke: #000000"/>
    </defs>
    <g clip-path="url(#pbab2d31a7f)">
     <use xlink:href="#m7bd893b84a" x="576.00958" y="252.170779" style="stroke: #000000"/>
    </g>
   </g>
   <g id="line2d_5">
    <defs>
     <path id="mf939a9303d" d="M 0 8.565004 
C 2.271466 8.565004 4.450204 7.662541 6.056372 6.056372 
C 7.662541 4.450204 8.565004 2.271466 8.565004 0 
C 8.565004 -2.271466 7.662541 -4.450204 6.056372 -6.056372 
C 4.450204 -7.662541 2.271466 -8.565004 0 -8.565004 
C -2.271466 -8.565004 -4.450204 -7.662541 -6.056372 -6.056372 
C -7.662541 -4.450204 -8.565004 -2.271466 -8.565004 0 
C -8.565004 2.271466 -7.662541 4.450204 -6.056372 6.056372 
C -4.450204 7.662541 -2.271466 8.565004 0 8.565004 
z
" style="stroke: #000000"/>
    </defs>
    <g clip-path="url(#pbab2d31a7f)">
     <use xlink:href="#mf939a9303d" x="386.341432" y="262.452771" style="stroke: #000000"/>
    </g>
   </g>
   <g id="line2d_6">
    <defs>
     <path id="m13dd4ab268" d="M 0 8.564933 
C 2.271447 8.564933 4.450167 7.662478 6.056322 6.056322 
C 7.662478 4.450167 8.564933 2.271447 8.564933 0 
C 8.564933 -2.271447 7.662478 -4.450167 6.056322 -6.056322 
C 4.450167 -7.662478 2.271447 -8.564933 0 -8.564933 
C -2.271447 -8.564933 -4.450167 -7.662478 -6.056322 -6.056322 
C -7.662478 -4.450167 -8.564933 -2.271447 -8.564933 0 
C -8.564933 2.271447 -7.662478 4.450167 -6.056322 6.056322 
C -4.450167 7.662478 -2.271447 8.564933 0 8.564933 
z
" style="stroke: #000000"/>
    </defs>
    <g clip-path="url(#pbab2d31a7f)">
     <use xlink:href="#m13dd4ab268" x="418.695346" y="61.583137" style="stroke: #000000"/>
    </g>
   </g>
   <g id="line2d_7">
    <defs>
     <path id="mce881e567c" d="M 0 8.311662 
C 2.204279 8.311662 4.318572 7.435893 5.877233 5.877233 
C 7.435893 4.318572 8.311662 2.204279 8.311662 0 
C 8.311662 -2.204279 7.435893 -4.318572 5.877233 -5.877233 
C 4.318572 -7.435893 2.204279 -8.311662 0 -8.311662 
C -2.204279 -8.311662 -4.318572 -7.435893 -5.877233 -5.877233 
C -7.435893 -4.318572 -8.311662 -2.204279 -8.311662 0 
C -8.311662 2.204279 -7.435893 4.318572 -5.877233 5.877233 
C -4.318572 7.435893 -2.204279 8.311662 0 8.311662 
z
" style="stroke: #000000"/>
    </defs>
    <g clip-path="url(#pbab2d31a7f)">
     <use xlink:href="#mce881e567c" x="279.838197" y="123.374159" style="stroke: #000000"/>
    </g>
   </g>
   <g id="line2d_8">
    <defs>
     <path id="m9e9cebaebb" d="M 0 8.176823 
C 2.168519 8.176823 4.248513 7.315262 5.781887 5.781887 
C 7.315262 4.248513 8.176823 2.168519 8.176823 0 
C 8.176823 -2.168519 7.315262 -4.248513 5.781887 -5.781887 
C 4.248513 -7.315262 2.168519 -8.176823 0 -8.176823 
C -2.168519 -8.176823 -4.248513 -7.315262 -5.781887 -5.781887 
C -7.315262 -4.248513 -8.176823 -2.168519 -8.176823 0 
C -8.176823 2.168519 -7.315262 4.248513 -5.781887 5.781887 
C -4.248513 7.315262 -2.168519 8.176823 0 8.176823 
z
" style="stroke: #000000"/>
    </defs>
    <g clip-path="url(#pbab2d31a7f)">
     <use xlink:href="#m9e9cebaebb" x="457.72967" y="226.895518" style="stroke: #000000"/>
    </g>
   </g>
   <g id="line2d_9">
    <defs>
     <path id="m6745b210b4" d="M 0 8.165773 
C 2.165588 8.165773 4.242771 7.305376 5.774074 5.774074 
C 7.305376 4.242771 8.165773 2.165588 8.165773 0 
C 8.165773 -2.165588 7.305376 -4.242771 5.774074 -5.774074 
C 4.242771 -7.305376 2.165588 -8.165773 0 -8.165773 
C -2.165588 -8.165773 -4.242771 -7.305376 -5.774074 -5.774074 
C -7.305376 -4.242771 -8.165773 -2.165588 -8.165773 0 
C -8.165773 2.165588 -7.305376 4.242771 -5.774074 5.774074 
C -4.242771 7.305376 -2.165588 8.165773 0 8.165773 
z
" style="stroke: #000000"/>
    </defs>
    <g clip-path="url(#pbab2d31a7f)">
     <use xlink:href="#m6745b210b4" x="115.363636" y="238.972187" style="stroke: #000000"/>
    </g>
   </g>
   <g id="line2d_10">
    <defs>
     <path id="mbad30d2322" d="M 0 8.137244 
C 2.158022 8.137244 4.227948 7.279852 5.7539 5.7539 
C 7.279852 4.227948 8.137244 2.158022 8.137244 0 
C 8.137244 -2.158022 7.279852 -4.227948 5.7539 -5.7539 
C 4.227948 -7.279852 2.158022 -8.137244 0 -8.137244 
C -2.158022 -8.137244 -4.227948 -7.279852 -5.7539 -5.7539 
C -7.279852 -4.227948 -8.137244 -2.158022 -8.137244 0 
C -8.137244 2.158022 -7.279852 4.227948 -5.7539 5.7539 
C -4.227948 7.279852 -2.158022 8.137244 0 8.137244 
z
" style="stroke: #000000"/>
    </defs>
    <g clip-path="url(#pbab2d31a7f)">
     <use xlink:href="#mbad30d2322" x="613.979152" y="101.972064" style="stroke: #000000"/>
    </g>
   </g>
  </g>
 </g>
 <defs>
  <clipPath id="pbab2d31a7f">
   <path d="M 90 314.038549 
L 90 49.561451 
L 648 49.561451 
L 648 314.038549 
L 90 314.038549 
"/>
  </clipPath>
 </defs>
</svg>
