<?xml version="1.0" encoding="utf-8" standalone="no"?>
<!DOCTYPE svg PUBLIC "-//W3C//DTD SVG 1.1//EN"
  "http://www.w3.org/Graphics/SVG/1.1/DTD/svg11.dtd">
<svg xmlns:xlink="http://www.w3.org/1999/xlink" width="720pt" height="360pt" viewBox="0 0 720 360" xmlns="http://www.w3.org/2000/svg" version="1.1">
 <metadata>
  <rdf:RDF xmlns:dc="http://purl.org/dc/elements/1.1/" xmlns:cc="http://creativecommons.org/ns#" xmlns:rdf="http://www.w3.org/1999/02/22-rdf-syntax-ns#">
   <cc:Work>
    <dc:type rdf:resource="http://purl.org/dc/dcmitype/StillImage"/>
    <dc:date>2023-11-30T21:30:46.429222</dc:date>
    <dc:format>image/svg+xml</dc:format>
    <dc:creator>
     <cc:Agent>
      <dc:title>Matplotlib v3.8.1, https://matplotlib.org/</dc:title>
     </cc:Agent>
    </dc:creator>
   </cc:Work>
  </rdf:RDF>
 </metadata>
 <defs>
  <style type="text/css">*{stroke-linejoin: round; stroke-linecap: butt}</style>
 </defs>
 <g id="figure_1">
  <g id="patch_1">
   <path d="M 0 360 
L 720 360 
L 720 0 
L 0 0 
z
" style="fill: #ffffff"/>
  </g>
  <g id="axes_1">
   <g id="patch_2">
    <path d="M 269.343268 320.4 
L 269.343268 43.2 
L 468.656732 43.2 
L 468.656732 320.4 
L 269.343268 320.4 
" style="fill: #ffffff"/>
   </g>
   <g id="line2d_1">
    <defs>
     <path id="ma2cce12234" d="M 0 8.788799 
C 2.330817 8.788799 4.566483 7.862756 6.21462 6.21462 
C 7.862756 4.566483 8.788799 2.330817 8.788799 0 
C 8.788799 -2.330817 7.862756 -4.566483 6.21462 -6.21462 
C 4.566483 -7.862756 2.330817 -8.788799 0 -8.788799 
C -2.330817 -8.788799 -4.566483 -7.862756 -6.21462 -6.21462 
C -7.862756 -4.566483 -8.788799 -2.330817 -8.788799 0 
C -8.788799 2.330817 -7.862756 4.566483 -6.21462 6.21462 
C -4.566483 7.862756 -2.330817 8.788799 0 8.788799 
z
" style="stroke: #000000"/>
    </defs>
    <g clip-path="url(#pb1a4684e41)">
     <use xlink:href="#ma2cce12234" x="340.026795" y="225.822606" style="stroke: #000000"/>
    </g>
   </g>
   <g id="line2d_2">
    <defs>
     <path id="mda9146ee75" d="M 0 8.583096 
C 2.276264 8.583096 4.459604 7.678727 6.069166 6.069166 
C 7.678727 4.459604 8.583096 2.276264 8.583096 0 
C 8.583096 -2.276264 7.678727 -4.459604 6.069166 -6.069166 
C 4.459604 -7.678727 2.276264 -8.583096 0 -8.583096 
C -2.276264 -8.583096 -4.459604 -7.678727 -6.069166 -6.069166 
C -7.678727 -4.459604 -8.583096 -2.276264 -8.583096 0 
C -8.583096 2.276264 -7.678727 4.459604 -6.069166 6.069166 
C -4.459604 7.678727 -2.276264 8.583096 0 8.583096 
z
" style="stroke: #000000"/>
    </defs>
    <g clip-path="url(#pb1a4684e41)">
     <use xlink:href="#mda9146ee75" x="376.981798" y="95.041345" style="stroke: #000000"/>
    </g>
   </g>
   <g id="line2d_3">
    <defs>
     <path id="mcd622d9bb5" d="M 0 8.286254 
C 2.19754 8.286254 4.305371 7.413162 5.859266 5.859266 
C 7.413162 4.305371 8.286254 2.19754 8.286254 0 
C 8.286254 -2.19754 7.413162 -4.305371 5.859266 -5.859266 
C 4.305371 -7.413162 2.19754 -8.286254 0 -8.286254 
C -2.19754 -8.286254 -4.305371 -7.413162 -5.859266 -5.859266 
C -7.413162 -4.305371 -8.286254 -2.19754 -8.286254 0 
C -8.286254 2.19754 -7.413162 4.305371 -5.859266 5.859266 
C -4.305371 7.413162 -2.19754 8.286254 0 8.286254 
z
" style="stroke: #000000"/>
    </defs>
    <g clip-path="url(#pb1a4684e41)">
     <use xlink:href="#mcd622d9bb5" x="408.679907" y="55.8" style="stroke: #000000"/>
    </g>
   </g>
   <g id="line2d_4">
    <defs>
     <path id="m792d50533b" d="M 0 7.99924 
C 2.121423 7.99924 4.156244 7.15639 5.656317 5.656317 
C 7.15639 4.156244 7.99924 2.121423 7.99924 0 
C 7.99924 -2.121423 7.15639 -4.156244 5.656317 -5.656317 
C 4.156244 -7.15639 2.121423 -7.99924 0 -7.99924 
C -2.121423 -7.99924 -4.156244 -7.15639 -5.656317 -5.656317 
C -7.15639 -4.156244 -7.99924 -2.121423 -7.99924 0 
C -7.99924 2.121423 -7.15639 4.156244 -5.656317 5.656317 
C -4.156244 7.15639 -2.121423 7.99924 0 7.99924 
z
" style="stroke: #000000"/>
    </defs>
    <g clip-path="url(#pb1a4684e41)">
     <use xlink:href="#m792d50533b" x="278.402971" y="307.8" style="stroke: #000000"/>
    </g>
   </g>
   <g id="line2d_5">
    <defs>
     <path id="mf9a035214c" d="M 0 7.843018 
C 2.079993 7.843018 4.075074 7.016628 5.545851 5.545851 
C 7.016628 4.075074 7.843018 2.079993 7.843018 0 
C 7.843018 -2.079993 7.016628 -4.075074 5.545851 -5.545851 
C 4.075074 -7.016628 2.079993 -7.843018 0 -7.843018 
C -2.079993 -7.843018 -4.075074 -7.016628 -5.545851 -5.545851 
C -7.016628 -4.075074 -7.843018 -2.079993 -7.843018 0 
C -7.843018 2.079993 -7.016628 4.075074 -5.545851 5.545851 
C -4.075074 7.016628 -2.079993 7.843018 0 7.843018 
z
" style="stroke: #000000"/>
    </defs>
    <g clip-path="url(#pb1a4684e41)">
     <use xlink:href="#mf9a035214c" x="282.080385" y="245.482985" style="stroke: #000000"/>
    </g>
   </g>
   <g id="line2d_6">
    <defs>
     <path id="m8bd42850d1" d="M 0 7.608581 
C 2.017819 7.608581 3.953266 6.806893 5.380079 5.380079 
C 6.806893 3.953266 7.608581 2.017819 7.608581 0 
C 7.608581 -2.017819 6.806893 -3.953266 5.380079 -5.380079 
C 3.953266 -6.806893 2.017819 -7.608581 0 -7.608581 
C -2.017819 -7.608581 -3.953266 -6.806893 -5.380079 -5.380079 
C -6.806893 -3.953266 -7.608581 -2.017819 -7.608581 0 
C -7.608581 2.017819 -6.806893 3.953266 -5.380079 5.380079 
C -3.953266 6.806893 -2.017819 7.608581 0 7.608581 
z
" style="stroke: #000000"/>
    </defs>
    <g clip-path="url(#pb1a4684e41)">
     <use xlink:href="#m8bd42850d1" x="331.321571" y="167.561352" style="stroke: #000000"/>
    </g>
   </g>
   <g id="line2d_7">
    <defs>
     <path id="mf5f1e7c7ad" d="M 0 7.600334 
C 2.015632 7.600334 3.948981 6.799515 5.374248 5.374248 
C 6.799515 3.948981 7.600334 2.015632 7.600334 0 
C 7.600334 -2.015632 6.799515 -3.948981 5.374248 -5.374248 
C 3.948981 -6.799515 2.015632 -7.600334 0 -7.600334 
C -2.015632 -7.600334 -3.948981 -6.799515 -5.374248 -5.374248 
C -6.799515 -3.948981 -7.600334 -2.015632 -7.600334 0 
C -7.600334 2.015632 -6.799515 3.948981 -5.374248 5.374248 
C -3.948981 6.799515 -2.015632 7.600334 0 7.600334 
z
" style="stroke: #000000"/>
    </defs>
    <g clip-path="url(#pb1a4684e41)">
     <use xlink:href="#mf5f1e7c7ad" x="419.073125" y="192.800355" style="stroke: #000000"/>
    </g>
   </g>
   <g id="line2d_8">
    <defs>
     <path id="m36dfccb5ff" d="M 0 7.476916 
C 1.982901 7.476916 3.884855 6.689101 5.286978 5.286978 
C 6.689101 3.884855 7.476916 1.982901 7.476916 0 
C 7.476916 -1.982901 6.689101 -3.884855 5.286978 -5.286978 
C 3.884855 -6.689101 1.982901 -7.476916 0 -7.476916 
C -1.982901 -7.476916 -3.884855 -6.689101 -5.286978 -5.286978 
C -6.689101 -3.884855 -7.476916 -1.982901 -7.476916 0 
C -7.476916 1.982901 -6.689101 3.884855 -5.286978 5.286978 
C -3.884855 6.689101 -1.982901 7.476916 0 7.476916 
z
" style="stroke: #000000"/>
    </defs>
    <g clip-path="url(#pb1a4684e41)">
     <use xlink:href="#m36dfccb5ff" x="331.321571" y="107.420012" style="stroke: #000000"/>
    </g>
   </g>
   <g id="line2d_9">
    <defs>
     <path id="mbc9d3b0c92" d="M 0 6.821815 
C 1.809167 6.821815 3.544478 6.103026 4.823752 4.823752 
C 6.103026 3.544478 6.821815 1.809167 6.821815 0 
C 6.821815 -1.809167 6.103026 -3.544478 4.823752 -4.823752 
C 3.544478 -6.103026 1.809167 -6.821815 0 -6.821815 
C -1.809167 -6.821815 -3.544478 -6.103026 -4.823752 -4.823752 
C -6.103026 -3.544478 -6.821815 -1.809167 -6.821815 0 
C -6.821815 1.809167 -6.103026 3.544478 -4.823752 4.823752 
C -3.544478 6.103026 -1.809167 6.821815 0 6.821815 
z
" style="stroke: #000000"/>
    </defs>
    <g clip-path="url(#pb1a4684e41)">
     <use xlink:href="#mbc9d3b0c92" x="459.597029" y="71.390776" style="stroke: #000000"/>
    </g>
   </g>
   <g id="line2d_10">
    <defs>
     <path id="m454efeaddf" d="M 0 6.34029 
C 1.681464 6.34029 3.294287 5.672237 4.483262 4.483262 
C 5.672237 3.294287 6.34029 1.681464 6.34029 0 
C 6.34029 -1.681464 5.672237 -3.294287 4.483262 -4.483262 
C 3.294287 -5.672237 1.681464 -6.34029 0 -6.34029 
C -1.681464 -6.34029 -3.294287 -5.672237 -4.483262 -4.483262 
C -5.672237 -3.294287 -6.34029 -1.681464 -6.34029 0 
C -6.34029 1.681464 -5.672237 3.294287 -4.483262 4.483262 
C -3.294287 5.672237 -1.681464 6.34029 0 6.34029 
z
" style="stroke: #000000"/>
    </defs>
    <g clip-path="url(#pb1a4684e41)">
     <use xlink:href="#m454efeaddf" x="334.998986" y="95.910291" style="stroke: #000000"/>
    </g>
   </g>
  </g>
 </g>
 <defs>
  <clipPath id="pb1a4684e41">
   <path d="M 269.343268 320.4 
L 269.343268 43.2 
L 468.656732 43.2 
L 468.656732 320.4 
L 269.343268 320.4 
"/>
  </clipPath>
 </defs>
</svg>
