<?xml version="1.0" encoding="utf-8" standalone="no"?>
<!DOCTYPE svg PUBLIC "-//W3C//DTD SVG 1.1//EN"
  "http://www.w3.org/Graphics/SVG/1.1/DTD/svg11.dtd">
<svg xmlns:xlink="http://www.w3.org/1999/xlink" width="720pt" height="360pt" viewBox="0 0 720 360" xmlns="http://www.w3.org/2000/svg" version="1.1">
 <metadata>
  <rdf:RDF xmlns:dc="http://purl.org/dc/elements/1.1/" xmlns:cc="http://creativecommons.org/ns#" xmlns:rdf="http://www.w3.org/1999/02/22-rdf-syntax-ns#">
   <cc:Work>
    <dc:type rdf:resource="http://purl.org/dc/dcmitype/StillImage"/>
    <dc:date>2023-11-30T21:30:46.472760</dc:date>
    <dc:format>image/svg+xml</dc:format>
    <dc:creator>
     <cc:Agent>
      <dc:title>Matplotlib v3.8.1, https://matplotlib.org/</dc:title>
     </cc:Agent>
    </dc:creator>
   </cc:Work>
  </rdf:RDF>
 </metadata>
 <defs>
  <style type="text/css">*{stroke-linejoin: round; stroke-linecap: butt}</style>
 </defs>
 <g id="figure_1">
  <g id="patch_1">
   <path d="M 0 360 
L 720 360 
L 720 0 
L 0 0 
z
" style="fill: #ffffff"/>
  </g>
  <g id="axes_1">
   <g id="patch_2">
    <path d="M 263.176392 320.4 
L 263.176392 43.2 
L 474.823608 43.2 
L 474.823608 320.4 
L 263.176392 320.4 
" style="fill: #ffffff"/>
   </g>
   <g id="line2d_1">
    <defs>
     <path id="m58cd6ae35c" d="M 0 9.965785 
C 2.642957 9.965785 5.178021 8.915727 7.046874 7.046874 
C 8.915727 5.178021 9.965785 2.642957 9.965785 0 
C 9.965785 -2.642957 8.915727 -5.178021 7.046874 -7.046874 
C 5.178021 -8.915727 2.642957 -9.965785 0 -9.965785 
C -2.642957 -9.965785 -5.178021 -8.915727 -7.046874 -7.046874 
C -8.915727 -5.178021 -9.965785 -2.642957 -9.965785 0 
C -9.965785 2.642957 -8.915727 5.178021 -7.046874 7.046874 
C -5.178021 8.915727 -2.642957 9.965785 0 9.965785 
z
" style="stroke: #000000"/>
    </defs>
    <g clip-path="url(#pec38bf5979)">
     <use xlink:href="#m58cd6ae35c" x="272.79672" y="160.651361" style="stroke: #000000"/>
    </g>
   </g>
   <g id="line2d_2">
    <defs>
     <path id="m82902586b1" d="M 0 8.058548 
C 2.137152 8.058548 4.187059 7.209448 5.698254 5.698254 
C 7.209448 4.187059 8.058548 2.137152 8.058548 0 
C 8.058548 -2.137152 7.209448 -4.187059 5.698254 -5.698254 
C 4.187059 -7.209448 2.137152 -8.058548 0 -8.058548 
C -2.137152 -8.058548 -4.187059 -7.209448 -5.698254 -5.698254 
C -7.209448 -4.187059 -8.058548 -2.137152 -8.058548 0 
C -8.058548 2.137152 -7.209448 4.187059 -5.698254 5.698254 
C -4.187059 7.209448 -2.137152 8.058548 0 8.058548 
z
" style="stroke: #000000"/>
    </defs>
    <g clip-path="url(#pec38bf5979)">
     <use xlink:href="#m82902586b1" x="465.20328" y="55.8" style="stroke: #000000"/>
    </g>
   </g>
   <g id="line2d_3">
    <defs>
     <path id="m5d6022cf2b" d="M 0 7.661686 
C 2.031903 7.661686 3.980858 6.854402 5.41763 5.41763 
C 6.854402 3.980858 7.661686 2.031903 7.661686 0 
C 7.661686 -2.031903 6.854402 -3.980858 5.41763 -5.41763 
C 3.980858 -6.854402 2.031903 -7.661686 0 -7.661686 
C -2.031903 -7.661686 -3.980858 -6.854402 -5.41763 -5.41763 
C -6.854402 -3.980858 -7.661686 -2.031903 -7.661686 0 
C -7.661686 2.031903 -6.854402 3.980858 -5.41763 5.41763 
C -3.980858 6.854402 -2.031903 7.661686 0 7.661686 
z
" style="stroke: #000000"/>
    </defs>
    <g clip-path="url(#pec38bf5979)">
     <use xlink:href="#m5d6022cf2b" x="383.375812" y="169.47242" style="stroke: #000000"/>
    </g>
   </g>
   <g id="line2d_4">
    <defs>
     <path id="mcd3ce453b8" d="M 0 7.615517 
C 2.019659 7.615517 3.956869 6.813098 5.384984 5.384984 
C 6.813098 3.956869 7.615517 2.019659 7.615517 0 
C 7.615517 -2.019659 6.813098 -3.956869 5.384984 -5.384984 
C 3.956869 -6.813098 2.019659 -7.615517 0 -7.615517 
C -2.019659 -7.615517 -3.956869 -6.813098 -5.384984 -5.384984 
C -6.813098 -3.956869 -7.615517 -2.019659 -7.615517 0 
C -7.615517 2.019659 -6.813098 3.956869 -5.384984 5.384984 
C -3.956869 6.813098 -2.019659 7.615517 0 7.615517 
z
" style="stroke: #000000"/>
    </defs>
    <g clip-path="url(#pec38bf5979)">
     <use xlink:href="#mcd3ce453b8" x="446.985149" y="179.106709" style="stroke: #000000"/>
    </g>
   </g>
   <g id="line2d_5">
    <defs>
     <path id="mf70e50a09c" d="M 0 7.196259 
C 1.90847 7.196259 3.739031 6.438016 5.088524 5.088524 
C 6.438016 3.739031 7.196259 1.90847 7.196259 0 
C 7.196259 -1.90847 6.438016 -3.739031 5.088524 -5.088524 
C 3.739031 -6.438016 1.90847 -7.196259 0 -7.196259 
C -1.90847 -7.196259 -3.739031 -6.438016 -5.088524 -5.088524 
C -6.438016 -3.739031 -7.196259 -1.90847 -7.196259 0 
C -7.196259 1.90847 -6.438016 3.739031 -5.088524 5.088524 
C -3.739031 6.438016 -1.90847 7.196259 0 7.196259 
z
" style="stroke: #000000"/>
    </defs>
    <g clip-path="url(#pec38bf5979)">
     <use xlink:href="#mf70e50a09c" x="364.914222" y="67.984984" style="stroke: #000000"/>
    </g>
   </g>
   <g id="line2d_6">
    <defs>
     <path id="m09cae2f002" d="M 0 7.175401 
C 1.902938 7.175401 3.728194 6.419355 5.073774 5.073774 
C 6.419355 3.728194 7.175401 1.902938 7.175401 0 
C 7.175401 -1.902938 6.419355 -3.728194 5.073774 -5.073774 
C 3.728194 -6.419355 1.902938 -7.175401 0 -7.175401 
C -1.902938 -7.175401 -3.728194 -6.419355 -5.073774 -5.073774 
C -6.419355 -3.728194 -7.175401 -1.902938 -7.175401 0 
C -7.175401 1.902938 -6.419355 3.728194 -5.073774 5.073774 
C -3.728194 6.419355 -1.902938 7.175401 0 7.175401 
z
" style="stroke: #000000"/>
    </defs>
    <g clip-path="url(#pec38bf5979)">
     <use xlink:href="#m09cae2f002" x="396.603051" y="267.348321" style="stroke: #000000"/>
    </g>
   </g>
   <g id="line2d_7">
    <defs>
     <path id="m6f3930f4ab" d="M 0 7.134454 
C 1.892079 7.134454 3.706919 6.382723 5.044821 5.044821 
C 6.382723 3.706919 7.134454 1.892079 7.134454 0 
C 7.134454 -1.892079 6.382723 -3.706919 5.044821 -5.044821 
C 3.706919 -6.382723 1.892079 -7.134454 0 -7.134454 
C -1.892079 -7.134454 -3.706919 -6.382723 -5.044821 -5.044821 
C -6.382723 -3.706919 -7.134454 -1.892079 -7.134454 0 
C -7.134454 1.892079 -6.382723 3.706919 -5.044821 5.044821 
C -3.706919 6.382723 -1.892079 7.134454 0 7.134454 
z
" style="stroke: #000000"/>
    </defs>
    <g clip-path="url(#pec38bf5979)">
     <use xlink:href="#m6f3930f4ab" x="324.425558" y="271.428212" style="stroke: #000000"/>
    </g>
   </g>
   <g id="line2d_8">
    <defs>
     <path id="m15df8d32d4" d="M 0 7.130864 
C 1.891127 7.130864 3.705053 6.379511 5.042282 5.042282 
C 6.379511 3.705053 7.130864 1.891127 7.130864 0 
C 7.130864 -1.891127 6.379511 -3.705053 5.042282 -5.042282 
C 3.705053 -6.379511 1.891127 -7.130864 0 -7.130864 
C -1.891127 -7.130864 -3.705053 -6.379511 -5.042282 -5.042282 
C -6.379511 -3.705053 -7.130864 -1.891127 -7.130864 0 
C -7.130864 1.891127 -6.379511 3.705053 -5.042282 5.042282 
C -3.705053 6.379511 -1.891127 7.130864 0 7.130864 
z
" style="stroke: #000000"/>
    </defs>
    <g clip-path="url(#pec38bf5979)">
     <use xlink:href="#m15df8d32d4" x="359.691652" y="307.8" style="stroke: #000000"/>
    </g>
   </g>
   <g id="line2d_9">
    <defs>
     <path id="mf3929cc5a2" d="M 0 7.123519 
C 1.889179 7.123519 3.701237 6.37294 5.037088 5.037088 
C 6.37294 3.701237 7.123519 1.889179 7.123519 0 
C 7.123519 -1.889179 6.37294 -3.701237 5.037088 -5.037088 
C 3.701237 -6.37294 1.889179 -7.123519 0 -7.123519 
C -1.889179 -7.123519 -3.701237 -6.37294 -5.037088 -5.037088 
C -6.37294 -3.701237 -7.123519 -1.889179 -7.123519 0 
C -7.123519 1.889179 -6.37294 3.701237 -5.037088 5.037088 
C -3.701237 6.37294 -1.889179 7.123519 0 7.123519 
z
" style="stroke: #000000"/>
    </defs>
    <g clip-path="url(#pec38bf5979)">
     <use xlink:href="#mf3929cc5a2" x="325.391537" y="70.836056" style="stroke: #000000"/>
    </g>
   </g>
   <g id="line2d_10">
    <defs>
     <path id="mda9563f240" d="M 0 7.069536 
C 1.874863 7.069536 3.673189 6.324645 4.998917 4.998917 
C 6.324645 3.673189 7.069536 1.874863 7.069536 0 
C 7.069536 -1.874863 6.324645 -3.673189 4.998917 -4.998917 
C 3.673189 -6.324645 1.874863 -7.069536 0 -7.069536 
C -1.874863 -7.069536 -3.673189 -6.324645 -4.998917 -4.998917 
C -6.324645 -3.673189 -7.069536 -1.874863 -7.069536 0 
C -7.069536 1.874863 -6.324645 3.673189 -4.998917 4.998917 
C -3.673189 6.324645 -1.874863 7.069536 0 7.069536 
z
" style="stroke: #000000"/>
    </defs>
    <g clip-path="url(#pec38bf5979)">
     <use xlink:href="#mda9563f240" x="321.189921" y="138.433503" style="stroke: #000000"/>
    </g>
   </g>
  </g>
 </g>
 <defs>
  <clipPath id="pec38bf5979">
   <path d="M 263.176392 320.4 
L 263.176392 43.2 
L 474.823608 43.2 
L 474.823608 320.4 
L 263.176392 320.4 
"/>
  </clipPath>
 </defs>
</svg>
