<?xml version="1.0" encoding="utf-8" standalone="no"?>
<!DOCTYPE svg PUBLIC "-//W3C//DTD SVG 1.1//EN"
  "http://www.w3.org/Graphics/SVG/1.1/DTD/svg11.dtd">
<svg xmlns:xlink="http://www.w3.org/1999/xlink" width="720pt" height="360pt" viewBox="0 0 720 360" xmlns="http://www.w3.org/2000/svg" version="1.1">
 <metadata>
  <rdf:RDF xmlns:dc="http://purl.org/dc/elements/1.1/" xmlns:cc="http://creativecommons.org/ns#" xmlns:rdf="http://www.w3.org/1999/02/22-rdf-syntax-ns#">
   <cc:Work>
    <dc:type rdf:resource="http://purl.org/dc/dcmitype/StillImage"/>
    <dc:date>2023-11-30T21:30:46.515499</dc:date>
    <dc:format>image/svg+xml</dc:format>
    <dc:creator>
     <cc:Agent>
      <dc:title>Matplotlib v3.8.1, https://matplotlib.org/</dc:title>
     </cc:Agent>
    </dc:creator>
   </cc:Work>
  </rdf:RDF>
 </metadata>
 <defs>
  <style type="text/css">*{stroke-linejoin: round; stroke-linecap: butt}</style>
 </defs>
 <g id="figure_1">
  <g id="patch_1">
   <path d="M 0 360 
L 720 360 
L 720 0 
L 0 0 
z
" style="fill: #ffffff"/>
  </g>
  <g id="axes_1">
   <g id="patch_2">
    <path d="M 332.231069 320.4 
L 332.231069 43.2 
L 405.768931 43.2 
L 405.768931 320.4 
L 332.231069 320.4 
" style="fill: #ffffff"/>
   </g>
   <g id="line2d_1">
    <defs>
     <path id="meb4d7cb57f" d="M 0 9.786558 
C 2.595426 9.786558 5.084899 8.755385 6.920142 6.920142 
C 8.755385 5.084899 9.786558 2.595426 9.786558 0 
C 9.786558 -2.595426 8.755385 -5.084899 6.920142 -6.920142 
C 5.084899 -8.755385 2.595426 -9.786558 0 -9.786558 
C -2.595426 -9.786558 -5.084899 -8.755385 -6.920142 -6.920142 
C -8.755385 -5.084899 -9.786558 -2.595426 -9.786558 0 
C -9.786558 2.595426 -8.755385 5.084899 -6.920142 6.920142 
C -5.084899 8.755385 -2.595426 9.786558 0 9.786558 
z
" style="stroke: #000000"/>
    </defs>
    <g clip-path="url(#p1651abdb49)">
     <use xlink:href="#meb4d7cb57f" x="375.095441" y="307.679758" style="stroke: #000000"/>
    </g>
   </g>
   <g id="line2d_2">
    <defs>
     <path id="m42f8ce4752" d="M 0 9.278665 
C 2.460731 9.278665 4.821007 8.301006 6.561007 6.561007 
C 8.301006 4.821007 9.278665 2.460731 9.278665 0 
C 9.278665 -2.460731 8.301006 -4.821007 6.561007 -6.561007 
C 4.821007 -8.301006 2.460731 -9.278665 0 -9.278665 
C -2.460731 -9.278665 -4.821007 -8.301006 -6.561007 -6.561007 
C -8.301006 -4.821007 -9.278665 -2.460731 -9.278665 0 
C -9.278665 2.460731 -8.301006 4.821007 -6.561007 6.561007 
C -4.821007 8.301006 -2.460731 9.278665 0 9.278665 
z
" style="stroke: #000000"/>
    </defs>
    <g clip-path="url(#p1651abdb49)">
     <use xlink:href="#m42f8ce4752" x="371.80332" y="303.312884" style="stroke: #000000"/>
    </g>
   </g>
   <g id="line2d_3">
    <defs>
     <path id="mfae36b5ed5" d="M 0 8.927389 
C 2.367571 8.927389 4.638491 7.986743 6.312617 6.312617 
C 7.986743 4.638491 8.927389 2.367571 8.927389 0 
C 8.927389 -2.367571 7.986743 -4.638491 6.312617 -6.312617 
C 4.638491 -7.986743 2.367571 -8.927389 0 -8.927389 
C -2.367571 -8.927389 -4.638491 -7.986743 -6.312617 -6.312617 
C -7.986743 -4.638491 -8.927389 -2.367571 -8.927389 0 
C -8.927389 2.367571 -7.986743 4.638491 -6.312617 6.312617 
C -4.638491 7.986743 -2.367571 8.927389 0 8.927389 
z
" style="stroke: #000000"/>
    </defs>
    <g clip-path="url(#p1651abdb49)">
     <use xlink:href="#mfae36b5ed5" x="335.573699" y="131.455408" style="stroke: #000000"/>
    </g>
   </g>
   <g id="line2d_4">
    <defs>
     <path id="ma8c9c2d790" d="M 0 8.918595 
C 2.365239 8.918595 4.633923 7.978876 6.306399 6.306399 
C 7.978876 4.633923 8.918595 2.365239 8.918595 0 
C 8.918595 -2.365239 7.978876 -4.633923 6.306399 -6.306399 
C 4.633923 -7.978876 2.365239 -8.918595 0 -8.918595 
C -2.365239 -8.918595 -4.633923 -7.978876 -6.306399 -6.306399 
C -7.978876 -4.633923 -8.918595 -2.365239 -8.918595 0 
C -8.918595 2.365239 -7.978876 4.633923 -6.306399 6.306399 
C -4.633923 7.978876 -2.365239 8.918595 0 8.918595 
z
" style="stroke: #000000"/>
    </defs>
    <g clip-path="url(#p1651abdb49)">
     <use xlink:href="#ma8c9c2d790" x="384.827345" y="300.795143" style="stroke: #000000"/>
    </g>
   </g>
   <g id="line2d_5">
    <defs>
     <path id="m386674029e" d="M 0 8.660585 
C 2.296814 8.660585 4.499866 7.748051 6.123959 6.123959 
C 7.748051 4.499866 8.660585 2.296814 8.660585 0 
C 8.660585 -2.296814 7.748051 -4.499866 6.123959 -6.123959 
C 4.499866 -7.748051 2.296814 -8.660585 0 -8.660585 
C -2.296814 -8.660585 -4.499866 -7.748051 -6.123959 -6.123959 
C -7.748051 -4.499866 -8.660585 -2.296814 -8.660585 0 
C -8.660585 2.296814 -7.748051 4.499866 -6.123959 6.123959 
C -4.499866 7.748051 -2.296814 8.660585 0 8.660585 
z
" style="stroke: #000000"/>
    </defs>
    <g clip-path="url(#p1651abdb49)">
     <use xlink:href="#m386674029e" x="386.230975" y="151.107672" style="stroke: #000000"/>
    </g>
   </g>
   <g id="line2d_6">
    <defs>
     <path id="mb6ae3781c1" d="M 0 8.466321 
C 2.245295 8.466321 4.39893 7.574256 5.986593 5.986593 
C 7.574256 4.39893 8.466321 2.245295 8.466321 0 
C 8.466321 -2.245295 7.574256 -4.39893 5.986593 -5.986593 
C 4.39893 -7.574256 2.245295 -8.466321 0 -8.466321 
C -2.245295 -8.466321 -4.39893 -7.574256 -5.986593 -5.986593 
C -7.574256 -4.39893 -8.466321 -2.245295 -8.466321 0 
C -8.466321 2.245295 -7.574256 4.39893 -5.986593 5.986593 
C -4.39893 7.574256 -2.245295 8.466321 0 8.466321 
z
" style="stroke: #000000"/>
    </defs>
    <g clip-path="url(#p1651abdb49)">
     <use xlink:href="#mb6ae3781c1" x="356.623945" y="264.960785" style="stroke: #000000"/>
    </g>
   </g>
   <g id="line2d_7">
    <defs>
     <path id="mc51f5ff446" d="M 0 8.371615 
C 2.220178 8.371615 4.349723 7.489529 5.919626 5.919626 
C 7.489529 4.349723 8.371615 2.220178 8.371615 0 
C 8.371615 -2.220178 7.489529 -4.349723 5.919626 -5.919626 
C 4.349723 -7.489529 2.220178 -8.371615 0 -8.371615 
C -2.220178 -8.371615 -4.349723 -7.489529 -5.919626 -5.919626 
C -7.489529 -4.349723 -8.371615 -2.220178 -8.371615 0 
C -8.371615 2.220178 -7.489529 4.349723 -5.919626 5.919626 
C -4.349723 7.489529 -2.220178 8.371615 0 8.371615 
z
" style="stroke: #000000"/>
    </defs>
    <g clip-path="url(#p1651abdb49)">
     <use xlink:href="#mc51f5ff446" x="402.426301" y="55.8" style="stroke: #000000"/>
    </g>
   </g>
   <g id="line2d_8">
    <defs>
     <path id="m8dfca4a036" d="M 0 8.28515 
C 2.197248 8.28515 4.304797 7.412175 5.858486 5.858486 
C 7.412175 4.304797 8.28515 2.197248 8.28515 0 
C 8.28515 -2.197248 7.412175 -4.304797 5.858486 -5.858486 
C 4.304797 -7.412175 2.197248 -8.28515 0 -8.28515 
C -2.197248 -8.28515 -4.304797 -7.412175 -5.858486 -5.858486 
C -7.412175 -4.304797 -8.28515 -2.197248 -8.28515 0 
C -8.28515 2.197248 -7.412175 4.304797 -5.858486 5.858486 
C -4.304797 7.412175 -2.197248 8.28515 0 8.28515 
z
" style="stroke: #000000"/>
    </defs>
    <g clip-path="url(#p1651abdb49)">
     <use xlink:href="#m8dfca4a036" x="378.681737" y="219.894054" style="stroke: #000000"/>
    </g>
   </g>
   <g id="line2d_9">
    <defs>
     <path id="m3633d3db61" d="M 0 8.204132 
C 2.175761 8.204132 4.262702 7.339693 5.801197 5.801197 
C 7.339693 4.262702 8.204132 2.175761 8.204132 0 
C 8.204132 -2.175761 7.339693 -4.262702 5.801197 -5.801197 
C 4.262702 -7.339693 2.175761 -8.204132 0 -8.204132 
C -2.175761 -8.204132 -4.262702 -7.339693 -5.801197 -5.801197 
C -7.339693 -4.262702 -8.204132 -2.175761 -8.204132 0 
C -8.204132 2.175761 -7.339693 4.262702 -5.801197 5.801197 
C -4.262702 7.339693 -2.175761 8.204132 0 8.204132 
z
" style="stroke: #000000"/>
    </defs>
    <g clip-path="url(#p1651abdb49)">
     <use xlink:href="#m3633d3db61" x="338.240176" y="293.323987" style="stroke: #000000"/>
    </g>
   </g>
   <g id="line2d_10">
    <defs>
     <path id="mfb90342fa0" d="M 0 8.174779 
C 2.167977 8.174779 4.247451 7.313433 5.780442 5.780442 
C 7.313433 4.247451 8.174779 2.167977 8.174779 0 
C 8.174779 -2.167977 7.313433 -4.247451 5.780442 -5.780442 
C 4.247451 -7.313433 2.167977 -8.174779 0 -8.174779 
C -2.167977 -8.174779 -4.247451 -7.313433 -5.780442 -5.780442 
C -7.313433 -4.247451 -8.174779 -2.167977 -8.174779 0 
C -8.174779 2.167977 -7.313433 4.247451 -5.780442 5.780442 
C -4.247451 7.313433 -2.167977 8.174779 0 8.174779 
z
" style="stroke: #000000"/>
    </defs>
    <g clip-path="url(#p1651abdb49)">
     <use xlink:href="#mfb90342fa0" x="357.588415" y="307.8" style="stroke: #000000"/>
    </g>
   </g>
  </g>
 </g>
 <defs>
  <clipPath id="p1651abdb49">
   <path d="M 332.231069 320.4 
L 332.231069 43.2 
L 405.768931 43.2 
L 405.768931 320.4 
L 332.231069 320.4 
"/>
  </clipPath>
 </defs>
</svg>
