<?xml version="1.0" encoding="utf-8" standalone="no"?>
<!DOCTYPE svg PUBLIC "-//W3C//DTD SVG 1.1//EN"
  "http://www.w3.org/Graphics/SVG/1.1/DTD/svg11.dtd">
<svg xmlns:xlink="http://www.w3.org/1999/xlink" width="720pt" height="360pt" viewBox="0 0 720 360" xmlns="http://www.w3.org/2000/svg" version="1.1">
 <metadata>
  <rdf:RDF xmlns:dc="http://purl.org/dc/elements/1.1/" xmlns:cc="http://creativecommons.org/ns#" xmlns:rdf="http://www.w3.org/1999/02/22-rdf-syntax-ns#">
   <cc:Work>
    <dc:type rdf:resource="http://purl.org/dc/dcmitype/StillImage"/>
    <dc:date>2023-11-30T21:30:46.561308</dc:date>
    <dc:format>image/svg+xml</dc:format>
    <dc:creator>
     <cc:Agent>
      <dc:title>Matplotlib v3.8.1, https://matplotlib.org/</dc:title>
     </cc:Agent>
    </dc:creator>
   </cc:Work>
  </rdf:RDF>
 </metadata>
 <defs>
  <style type="text/css">*{stroke-linejoin: round; stroke-linecap: butt}</style>
 </defs>
 <g id="figure_1">
  <g id="patch_1">
   <path d="M 0 360 
L 720 360 
L 720 0 
L 0 0 
z
" style="fill: #ffffff"/>
  </g>
  <g id="axes_1">
   <g id="patch_2">
    <path d="M 305.905213 320.4 
L 305.905213 43.2 
L 432.094787 43.2 
L 432.094787 320.4 
L 305.905213 320.4 
" style="fill: #ffffff"/>
   </g>
   <g id="line2d_1">
    <defs>
     <path id="maf7886b851" d="M 0 10.467461 
C 2.776003 10.467461 5.438682 9.364543 7.401612 7.401612 
C 9.364543 5.438682 10.467461 2.776003 10.467461 0 
C 10.467461 -2.776003 9.364543 -5.438682 7.401612 -7.401612 
C 5.438682 -9.364543 2.776003 -10.467461 0 -10.467461 
C -2.776003 -10.467461 -5.438682 -9.364543 -7.401612 -7.401612 
C -9.364543 -5.438682 -10.467461 -2.776003 -10.467461 0 
C -10.467461 2.776003 -9.364543 5.438682 -7.401612 7.401612 
C -5.438682 9.364543 -2.776003 10.467461 0 10.467461 
z
" style="stroke: #000000"/>
    </defs>
    <g clip-path="url(#p37a6b4564f)">
     <use xlink:href="#maf7886b851" x="311.641103" y="185.518342" style="stroke: #000000"/>
    </g>
   </g>
   <g id="line2d_2">
    <defs>
     <path id="m78df481070" d="M 0 10.402272 
C 2.758715 10.402272 5.404811 9.306223 7.355517 7.355517 
C 9.306223 5.404811 10.402272 2.758715 10.402272 0 
C 10.402272 -2.758715 9.306223 -5.404811 7.355517 -7.355517 
C 5.404811 -9.306223 2.758715 -10.402272 0 -10.402272 
C -2.758715 -10.402272 -5.404811 -9.306223 -7.355517 -7.355517 
C -9.306223 -5.404811 -10.402272 -2.758715 -10.402272 0 
C -10.402272 2.758715 -9.306223 5.404811 -7.355517 7.355517 
C -5.404811 9.306223 -2.758715 10.402272 0 10.402272 
z
" style="stroke: #000000"/>
    </defs>
    <g clip-path="url(#p37a6b4564f)">
     <use xlink:href="#m78df481070" x="426.358897" y="216.406996" style="stroke: #000000"/>
    </g>
   </g>
   <g id="line2d_3">
    <defs>
     <path id="m5db52cefad" d="M 0 9.841111 
C 2.609893 9.841111 5.113243 8.804189 6.958716 6.958716 
C 8.804189 5.113243 9.841111 2.609893 9.841111 0 
C 9.841111 -2.609893 8.804189 -5.113243 6.958716 -6.958716 
C 5.113243 -8.804189 2.609893 -9.841111 0 -9.841111 
C -2.609893 -9.841111 -5.113243 -8.804189 -6.958716 -6.958716 
C -8.804189 -5.113243 -9.841111 -2.609893 -9.841111 0 
C -9.841111 2.609893 -8.804189 5.113243 -6.958716 6.958716 
C -5.113243 8.804189 -2.609893 9.841111 0 9.841111 
z
" style="stroke: #000000"/>
    </defs>
    <g clip-path="url(#p37a6b4564f)">
     <use xlink:href="#m5db52cefad" x="357.65908" y="206.855355" style="stroke: #000000"/>
    </g>
   </g>
   <g id="line2d_4">
    <defs>
     <path id="m54b3659bf5" d="M 0 8.889266 
C 2.357461 8.889266 4.618684 7.952637 6.285661 6.285661 
C 7.952637 4.618684 8.889266 2.357461 8.889266 0 
C 8.889266 -2.357461 7.952637 -4.618684 6.285661 -6.285661 
C 4.618684 -7.952637 2.357461 -8.889266 0 -8.889266 
C -2.357461 -8.889266 -4.618684 -7.952637 -6.285661 -6.285661 
C -7.952637 -4.618684 -8.889266 -2.357461 -8.889266 0 
C -8.889266 2.357461 -7.952637 4.618684 -6.285661 6.285661 
C -4.618684 7.952637 -2.357461 8.889266 0 8.889266 
z
" style="stroke: #000000"/>
    </defs>
    <g clip-path="url(#p37a6b4564f)">
     <use xlink:href="#m54b3659bf5" x="378.300678" y="246.568456" style="stroke: #000000"/>
    </g>
   </g>
   <g id="line2d_5">
    <defs>
     <path id="m786b35c282" d="M 0 8.835484 
C 2.343198 8.835484 4.590739 7.904521 6.24763 6.24763 
C 7.904521 4.590739 8.835484 2.343198 8.835484 0 
C 8.835484 -2.343198 7.904521 -4.590739 6.24763 -6.24763 
C 4.590739 -7.904521 2.343198 -8.835484 0 -8.835484 
C -2.343198 -8.835484 -4.590739 -7.904521 -6.24763 -6.24763 
C -7.904521 -4.590739 -8.835484 -2.343198 -8.835484 0 
C -8.835484 2.343198 -7.904521 4.590739 -6.24763 6.24763 
C -4.590739 7.904521 -2.343198 8.835484 0 8.835484 
z
" style="stroke: #000000"/>
    </defs>
    <g clip-path="url(#p37a6b4564f)">
     <use xlink:href="#m786b35c282" x="334.728589" y="221.158153" style="stroke: #000000"/>
    </g>
   </g>
   <g id="line2d_6">
    <defs>
     <path id="mf4f72c1c98" d="M 0 8.731726 
C 2.315681 8.731726 4.536829 7.811697 6.174263 6.174263 
C 7.811697 4.536829 8.731726 2.315681 8.731726 0 
C 8.731726 -2.315681 7.811697 -4.536829 6.174263 -6.174263 
C 4.536829 -7.811697 2.315681 -8.731726 0 -8.731726 
C -2.315681 -8.731726 -4.536829 -7.811697 -6.174263 -6.174263 
C -7.811697 -4.536829 -8.731726 -2.315681 -8.731726 0 
C -8.731726 2.315681 -7.811697 4.536829 -6.174263 6.174263 
C -4.536829 7.811697 -2.315681 8.731726 0 8.731726 
z
" style="stroke: #000000"/>
    </defs>
    <g clip-path="url(#p37a6b4564f)">
     <use xlink:href="#mf4f72c1c98" x="360.396102" y="207.059508" style="stroke: #000000"/>
    </g>
   </g>
   <g id="line2d_7">
    <defs>
     <path id="m5b27c58a6e" d="M 0 8.697725 
C 2.306664 8.697725 4.519163 7.781278 6.15022 6.15022 
C 7.781278 4.519163 8.697725 2.306664 8.697725 0 
C 8.697725 -2.306664 7.781278 -4.519163 6.15022 -6.15022 
C 4.519163 -7.781278 2.306664 -8.697725 0 -8.697725 
C -2.306664 -8.697725 -4.519163 -7.781278 -6.15022 -6.15022 
C -7.781278 -4.519163 -8.697725 -2.306664 -8.697725 0 
C -8.697725 2.306664 -7.781278 4.519163 -6.15022 6.15022 
C -4.519163 7.781278 -2.306664 8.697725 0 8.697725 
z
" style="stroke: #000000"/>
    </defs>
    <g clip-path="url(#p37a6b4564f)">
     <use xlink:href="#m5b27c58a6e" x="354.852104" y="206.922203" style="stroke: #000000"/>
    </g>
   </g>
   <g id="line2d_8">
    <defs>
     <path id="mfec9593c52" d="M 0 8.640558 
C 2.291503 8.640558 4.48946 7.730134 6.109797 6.109797 
C 7.730134 4.48946 8.640558 2.291503 8.640558 0 
C 8.640558 -2.291503 7.730134 -4.48946 6.109797 -6.109797 
C 4.48946 -7.730134 2.291503 -8.640558 0 -8.640558 
C -2.291503 -8.640558 -4.48946 -7.730134 -6.109797 -6.109797 
C -7.730134 -4.48946 -8.640558 -2.291503 -8.640558 0 
C -8.640558 2.291503 -7.730134 4.48946 -6.109797 6.109797 
C -4.48946 7.730134 -2.291503 8.640558 0 8.640558 
z
" style="stroke: #000000"/>
    </defs>
    <g clip-path="url(#p37a6b4564f)">
     <use xlink:href="#mfec9593c52" x="390.610464" y="307.8" style="stroke: #000000"/>
    </g>
   </g>
   <g id="line2d_9">
    <defs>
     <path id="m917d16a7b1" d="M 0 8.553956 
C 2.268536 8.553956 4.444463 7.652657 6.04856 6.04856 
C 7.652657 4.444463 8.553956 2.268536 8.553956 0 
C 8.553956 -2.268536 7.652657 -4.444463 6.04856 -6.04856 
C 4.444463 -7.652657 2.268536 -8.553956 0 -8.553956 
C -2.268536 -8.553956 -4.444463 -7.652657 -6.04856 -6.04856 
C -7.652657 -4.444463 -8.553956 -2.268536 -8.553956 0 
C -8.553956 2.268536 -7.652657 4.444463 -6.04856 6.04856 
C -4.444463 7.652657 -2.268536 8.553956 0 8.553956 
z
" style="stroke: #000000"/>
    </defs>
    <g clip-path="url(#p37a6b4564f)">
     <use xlink:href="#m917d16a7b1" x="366.980422" y="259.950218" style="stroke: #000000"/>
    </g>
   </g>
   <g id="line2d_10">
    <defs>
     <path id="ma16f77a5d9" d="M 0 8.298088 
C 2.200679 8.298088 4.311519 7.423749 5.867634 5.867634 
C 7.423749 4.311519 8.298088 2.200679 8.298088 0 
C 8.298088 -2.200679 7.423749 -4.311519 5.867634 -5.867634 
C 4.311519 -7.423749 2.200679 -8.298088 0 -8.298088 
C -2.200679 -8.298088 -4.311519 -7.423749 -5.867634 -5.867634 
C -7.423749 -4.311519 -8.298088 -2.200679 -8.298088 0 
C -8.298088 2.200679 -7.423749 4.311519 -5.867634 5.867634 
C -4.311519 7.423749 -2.200679 8.298088 0 8.298088 
z
" style="stroke: #000000"/>
    </defs>
    <g clip-path="url(#p37a6b4564f)">
     <use xlink:href="#ma16f77a5d9" x="360.065489" y="55.8" style="stroke: #000000"/>
    </g>
   </g>
  </g>
 </g>
 <defs>
  <clipPath id="p37a6b4564f">
   <path d="M 305.905213 320.4 
L 305.905213 43.2 
L 432.094787 43.2 
L 432.094787 320.4 
L 305.905213 320.4 
"/>
  </clipPath>
 </defs>
</svg>
