<?xml version="1.0" encoding="utf-8" standalone="no"?>
<!DOCTYPE svg PUBLIC "-//W3C//DTD SVG 1.1//EN"
  "http://www.w3.org/Graphics/SVG/1.1/DTD/svg11.dtd">
<svg xmlns:xlink="http://www.w3.org/1999/xlink" width="720pt" height="360pt" viewBox="0 0 720 360" xmlns="http://www.w3.org/2000/svg" version="1.1">
 <metadata>
  <rdf:RDF xmlns:dc="http://purl.org/dc/elements/1.1/" xmlns:cc="http://creativecommons.org/ns#" xmlns:rdf="http://www.w3.org/1999/02/22-rdf-syntax-ns#">
   <cc:Work>
    <dc:type rdf:resource="http://purl.org/dc/dcmitype/StillImage"/>
    <dc:date>2023-11-30T21:30:46.602878</dc:date>
    <dc:format>image/svg+xml</dc:format>
    <dc:creator>
     <cc:Agent>
      <dc:title>Matplotlib v3.8.1, https://matplotlib.org/</dc:title>
     </cc:Agent>
    </dc:creator>
   </cc:Work>
  </rdf:RDF>
 </metadata>
 <defs>
  <style type="text/css">*{stroke-linejoin: round; stroke-linecap: butt}</style>
 </defs>
 <g id="figure_1">
  <g id="patch_1">
   <path d="M 0 360 
L 720 360 
L 720 0 
L 0 0 
z
" style="fill: #ffffff"/>
  </g>
  <g id="axes_1">
   <g id="patch_2">
    <path d="M 217.865964 320.4 
L 217.865964 43.2 
L 520.134036 43.2 
L 520.134036 320.4 
L 217.865964 320.4 
" style="fill: #ffffff"/>
   </g>
   <g id="line2d_1">
    <defs>
     <path id="mf0d0eade34" d="M 0 11.781932 
C 3.124605 11.781932 6.121655 10.540513 8.331084 8.331084 
C 10.540513 6.121655 11.781932 3.124605 11.781932 0 
C 11.781932 -3.124605 10.540513 -6.121655 8.331084 -8.331084 
C 6.121655 -10.540513 3.124605 -11.781932 0 -11.781932 
C -3.124605 -11.781932 -6.121655 -10.540513 -8.331084 -8.331084 
C -10.540513 -6.121655 -11.781932 -3.124605 -11.781932 0 
C -11.781932 3.124605 -10.540513 6.121655 -8.331084 8.331084 
C -6.121655 10.540513 -3.124605 11.781932 0 11.781932 
z
" style="stroke: #000000"/>
    </defs>
    <g clip-path="url(#p0c069b30c3)">
     <use xlink:href="#mf0d0eade34" x="377.928118" y="285.343887" style="stroke: #000000"/>
    </g>
   </g>
   <g id="line2d_2">
    <defs>
     <path id="m57b978e1d2" d="M 0 11.342995 
C 3.008197 11.342995 5.893592 10.147825 8.020708 8.020708 
C 10.147825 5.893592 11.342995 3.008197 11.342995 0 
C 11.342995 -3.008197 10.147825 -5.893592 8.020708 -8.020708 
C 5.893592 -10.147825 3.008197 -11.342995 0 -11.342995 
C -3.008197 -11.342995 -5.893592 -10.147825 -8.020708 -8.020708 
C -10.147825 -5.893592 -11.342995 -3.008197 -11.342995 0 
C -11.342995 3.008197 -10.147825 5.893592 -8.020708 8.020708 
C -5.893592 10.147825 -3.008197 11.342995 0 11.342995 
z
" style="stroke: #000000"/>
    </defs>
    <g clip-path="url(#p0c069b30c3)">
     <use xlink:href="#m57b978e1d2" x="415.674417" y="277.762897" style="stroke: #000000"/>
    </g>
   </g>
   <g id="line2d_3">
    <defs>
     <path id="me5b4c68829" d="M 0 10.688003 
C 2.834491 10.688003 5.553271 9.561847 7.557559 7.557559 
C 9.561847 5.553271 10.688003 2.834491 10.688003 0 
C 10.688003 -2.834491 9.561847 -5.553271 7.557559 -7.557559 
C 5.553271 -9.561847 2.834491 -10.688003 0 -10.688003 
C -2.834491 -10.688003 -5.553271 -9.561847 -7.557559 -7.557559 
C -9.561847 -5.553271 -10.688003 -2.834491 -10.688003 0 
C -10.688003 2.834491 -9.561847 5.553271 -7.557559 7.557559 
C -5.553271 9.561847 -2.834491 10.688003 0 10.688003 
z
" style="stroke: #000000"/>
    </defs>
    <g clip-path="url(#p0c069b30c3)">
     <use xlink:href="#me5b4c68829" x="407.417264" y="242.913314" style="stroke: #000000"/>
    </g>
   </g>
   <g id="line2d_4">
    <defs>
     <path id="mcfb4ea2237" d="M 0 10.685421 
C 2.833807 10.685421 5.551929 9.559537 7.555733 7.555733 
C 9.559537 5.551929 10.685421 2.833807 10.685421 0 
C 10.685421 -2.833807 9.559537 -5.551929 7.555733 -7.555733 
C 5.551929 -9.559537 2.833807 -10.685421 0 -10.685421 
C -2.833807 -10.685421 -5.551929 -9.559537 -7.555733 -7.555733 
C -9.559537 -5.551929 -10.685421 -2.833807 -10.685421 0 
C -10.685421 2.833807 -9.559537 5.551929 -7.555733 7.555733 
C -5.551929 9.559537 -2.833807 10.685421 0 10.685421 
z
" style="stroke: #000000"/>
    </defs>
    <g clip-path="url(#p0c069b30c3)">
     <use xlink:href="#mcfb4ea2237" x="466.943736" y="164.20312" style="stroke: #000000"/>
    </g>
   </g>
   <g id="line2d_5">
    <defs>
     <path id="mb2c704a697" d="M 0 10.597302 
C 2.810437 10.597302 5.506145 9.480703 7.493424 7.493424 
C 9.480703 5.506145 10.597302 2.810437 10.597302 0 
C 10.597302 -2.810437 9.480703 -5.506145 7.493424 -7.493424 
C 5.506145 -9.480703 2.810437 -10.597302 0 -10.597302 
C -2.810437 -10.597302 -5.506145 -9.480703 -7.493424 -7.493424 
C -9.480703 -5.506145 -10.597302 -2.810437 -10.597302 0 
C -10.597302 2.810437 -9.480703 5.506145 -7.493424 7.493424 
C -5.506145 9.480703 -2.810437 10.597302 0 10.597302 
z
" style="stroke: #000000"/>
    </defs>
    <g clip-path="url(#p0c069b30c3)">
     <use xlink:href="#mb2c704a697" x="466.374353" y="62.49121" style="stroke: #000000"/>
    </g>
   </g>
   <g id="line2d_6">
    <defs>
     <path id="m34cf5f2931" d="M 0 10.540928 
C 2.795487 10.540928 5.476854 9.430269 7.453562 7.453562 
C 9.430269 5.476854 10.540928 2.795487 10.540928 0 
C 10.540928 -2.795487 9.430269 -5.476854 7.453562 -7.453562 
C 5.476854 -9.430269 2.795487 -10.540928 0 -10.540928 
C -2.795487 -10.540928 -5.476854 -9.430269 -7.453562 -7.453562 
C -9.430269 -5.476854 -10.540928 -2.795487 -10.540928 0 
C -10.540928 2.795487 -9.430269 5.476854 -7.453562 7.453562 
C -5.476854 9.430269 -2.795487 10.540928 0 10.540928 
z
" style="stroke: #000000"/>
    </defs>
    <g clip-path="url(#p0c069b30c3)">
     <use xlink:href="#m34cf5f2931" x="231.605422" y="55.8" style="stroke: #000000"/>
    </g>
   </g>
   <g id="line2d_7">
    <defs>
     <path id="m49d647bad1" d="M 0 10.537063 
C 2.794462 10.537063 5.474846 9.426811 7.450828 7.450828 
C 9.426811 5.474846 10.537063 2.794462 10.537063 0 
C 10.537063 -2.794462 9.426811 -5.474846 7.450828 -7.450828 
C 5.474846 -9.426811 2.794462 -10.537063 0 -10.537063 
C -2.794462 -10.537063 -5.474846 -9.426811 -7.450828 -7.450828 
C -9.426811 -5.474846 -10.537063 -2.794462 -10.537063 0 
C -10.537063 2.794462 -9.426811 5.474846 -7.450828 7.450828 
C -5.474846 9.426811 -2.794462 10.537063 0 10.537063 
z
" style="stroke: #000000"/>
    </defs>
    <g clip-path="url(#p0c069b30c3)">
     <use xlink:href="#m49d647bad1" x="363.790688" y="195.643701" style="stroke: #000000"/>
    </g>
   </g>
   <g id="line2d_8">
    <defs>
     <path id="mc39a38cb68" d="M 0 10.447013 
C 2.77058 10.447013 5.428058 9.34625 7.387154 7.387154 
C 9.34625 5.428058 10.447013 2.77058 10.447013 0 
C 10.447013 -2.77058 9.34625 -5.428058 7.387154 -7.387154 
C 5.428058 -9.34625 2.77058 -10.447013 0 -10.447013 
C -2.77058 -10.447013 -5.428058 -9.34625 -7.387154 -7.387154 
C -9.34625 -5.428058 -10.447013 -2.77058 -10.447013 0 
C -10.447013 2.77058 -9.34625 5.428058 -7.387154 7.387154 
C -5.428058 9.34625 -2.77058 10.447013 0 10.447013 
z
" style="stroke: #000000"/>
    </defs>
    <g clip-path="url(#p0c069b30c3)">
     <use xlink:href="#mc39a38cb68" x="349.109775" y="307.8" style="stroke: #000000"/>
    </g>
   </g>
   <g id="line2d_9">
    <defs>
     <path id="m47e36ae6d7" d="M 0 10.328529 
C 2.739158 10.328529 5.366496 9.24025 7.303373 7.303373 
C 9.24025 5.366496 10.328529 2.739158 10.328529 0 
C 10.328529 -2.739158 9.24025 -5.366496 7.303373 -7.303373 
C 5.366496 -9.24025 2.739158 -10.328529 0 -10.328529 
C -2.739158 -10.328529 -5.366496 -9.24025 -7.303373 -7.303373 
C -9.24025 -5.366496 -10.328529 -2.739158 -10.328529 0 
C -10.328529 2.739158 -9.24025 5.366496 -7.303373 7.303373 
C -5.366496 9.24025 -2.739158 10.328529 0 10.328529 
z
" style="stroke: #000000"/>
    </defs>
    <g clip-path="url(#p0c069b30c3)">
     <use xlink:href="#m47e36ae6d7" x="506.394578" y="109.832447" style="stroke: #000000"/>
    </g>
   </g>
   <g id="line2d_10">
    <defs>
     <path id="mf130966147" d="M 0 10.275419 
C 2.725073 10.275419 5.338901 9.192736 7.265819 7.265819 
C 9.192736 5.338901 10.275419 2.725073 10.275419 0 
C 10.275419 -2.725073 9.192736 -5.338901 7.265819 -7.265819 
C 5.338901 -9.192736 2.725073 -10.275419 0 -10.275419 
C -2.725073 -10.275419 -5.338901 -9.192736 -7.265819 -7.265819 
C -9.192736 -5.338901 -10.275419 -2.725073 -10.275419 0 
C -10.275419 2.725073 -9.192736 5.338901 -7.265819 7.265819 
C -5.338901 9.192736 -2.725073 10.275419 0 10.275419 
z
" style="stroke: #000000"/>
    </defs>
    <g clip-path="url(#p0c069b30c3)">
     <use xlink:href="#mf130966147" x="349.319277" y="205.81202" style="stroke: #000000"/>
    </g>
   </g>
  </g>
 </g>
 <defs>
  <clipPath id="p0c069b30c3">
   <path d="M 217.865964 320.4 
L 217.865964 43.2 
L 520.134036 43.2 
L 520.134036 320.4 
L 217.865964 320.4 
"/>
  </clipPath>
 </defs>
</svg>
