<?xml version="1.0" encoding="utf-8" standalone="no"?>
<!DOCTYPE svg PUBLIC "-//W3C//DTD SVG 1.1//EN"
  "http://www.w3.org/Graphics/SVG/1.1/DTD/svg11.dtd">
<svg xmlns:xlink="http://www.w3.org/1999/xlink" width="720pt" height="360pt" viewBox="0 0 720 360" xmlns="http://www.w3.org/2000/svg" version="1.1">
 <metadata>
  <rdf:RDF xmlns:dc="http://purl.org/dc/elements/1.1/" xmlns:cc="http://creativecommons.org/ns#" xmlns:rdf="http://www.w3.org/1999/02/22-rdf-syntax-ns#">
   <cc:Work>
    <dc:type rdf:resource="http://purl.org/dc/dcmitype/StillImage"/>
    <dc:date>2023-11-30T21:30:52.357938</dc:date>
    <dc:format>image/svg+xml</dc:format>
    <dc:creator>
     <cc:Agent>
      <dc:title>Matplotlib v3.8.1, https://matplotlib.org/</dc:title>
     </cc:Agent>
    </dc:creator>
   </cc:Work>
  </rdf:RDF>
 </metadata>
 <defs>
  <style type="text/css">*{stroke-linejoin: round; stroke-linecap: butt}</style>
 </defs>
 <g id="figure_1">
  <g id="patch_1">
   <path d="M 0 360 
L 720 360 
L 720 0 
L 0 0 
z
" style="fill: #ffffff"/>
  </g>
  <g id="axes_1">
   <g id="patch_2">
    <path d="M 249.113032 320.4 
L 249.113032 43.2 
L 488.886968 43.2 
L 488.886968 320.4 
L 249.113032 320.4 
" style="fill: #ffffff"/>
   </g>
   <g id="line2d_1">
    <defs>
     <path id="m5f77db789e" d="M 0 8.89915 
C 2.360082 8.89915 4.623819 7.96148 6.29265 6.29265 
C 7.96148 4.623819 8.89915 2.360082 8.89915 0 
C 8.89915 -2.360082 7.96148 -4.623819 6.29265 -6.29265 
C 4.623819 -7.96148 2.360082 -8.89915 0 -8.89915 
C -2.360082 -8.89915 -4.623819 -7.96148 -6.29265 -6.29265 
C -7.96148 -4.623819 -8.89915 -2.360082 -8.89915 0 
C -8.89915 2.360082 -7.96148 4.623819 -6.29265 6.29265 
C -4.623819 7.96148 -2.360082 8.89915 0 8.89915 
z
" style="stroke: #000000"/>
    </defs>
    <g clip-path="url(#p1f63e48b65)">
     <use xlink:href="#m5f77db789e" x="371.649232" y="192.849312" style="stroke: #000000"/>
    </g>
   </g>
   <g id="line2d_2">
    <defs>
     <path id="maf86998458" d="M 0 7.752875 
C 2.056086 7.752875 4.028238 6.935983 5.48211 5.48211 
C 6.935983 4.028238 7.752875 2.056086 7.752875 0 
C 7.752875 -2.056086 6.935983 -4.028238 5.48211 -5.48211 
C 4.028238 -6.935983 2.056086 -7.752875 0 -7.752875 
C -2.056086 -7.752875 -4.028238 -6.935983 -5.48211 -5.48211 
C -6.935983 -4.028238 -7.752875 -2.056086 -7.752875 0 
C -7.752875 2.056086 -6.935983 4.028238 -5.48211 5.48211 
C -4.028238 6.935983 -2.056086 7.752875 0 7.752875 
z
" style="stroke: #000000"/>
    </defs>
    <g clip-path="url(#p1f63e48b65)">
     <use xlink:href="#maf86998458" x="281.215954" y="81.514883" style="stroke: #000000"/>
    </g>
   </g>
   <g id="line2d_3">
    <defs>
     <path id="m2cbae7c399" d="M 0 7.357954 
C 1.951352 7.357954 3.823045 6.582674 5.202859 5.202859 
C 6.582674 3.823045 7.357954 1.951352 7.357954 0 
C 7.357954 -1.951352 6.582674 -3.823045 5.202859 -5.202859 
C 3.823045 -6.582674 1.951352 -7.357954 0 -7.357954 
C -1.951352 -7.357954 -3.823045 -6.582674 -5.202859 -5.202859 
C -6.582674 -3.823045 -7.357954 -1.951352 -7.357954 0 
C -7.357954 1.951352 -6.582674 3.823045 -5.202859 5.202859 
C -3.823045 6.582674 -1.951352 7.357954 0 7.357954 
z
" style="stroke: #000000"/>
    </defs>
    <g clip-path="url(#p1f63e48b65)">
     <use xlink:href="#m2cbae7c399" x="278.938742" y="81.514883" style="stroke: #000000"/>
    </g>
   </g>
   <g id="line2d_4">
    <defs>
     <path id="m37ffbbf73f" d="M 0 6.817689 
C 1.808072 6.817689 3.542334 6.099334 4.820834 4.820834 
C 6.099334 3.542334 6.817689 1.808072 6.817689 0 
C 6.817689 -1.808072 6.099334 -3.542334 4.820834 -4.820834 
C 3.542334 -6.099334 1.808072 -6.817689 0 -6.817689 
C -1.808072 -6.817689 -3.542334 -6.099334 -4.820834 -4.820834 
C -6.099334 -3.542334 -6.817689 -1.808072 -6.817689 0 
C -6.817689 1.808072 -6.099334 3.542334 -4.820834 4.820834 
C -3.542334 6.099334 -1.808072 6.817689 0 6.817689 
z
" style="stroke: #000000"/>
    </defs>
    <g clip-path="url(#p1f63e48b65)">
     <use xlink:href="#m37ffbbf73f" x="260.011847" y="69.826316" style="stroke: #000000"/>
    </g>
   </g>
   <g id="line2d_5">
    <defs>
     <path id="m029ba76854" d="M 0 6.519288 
C 1.728935 6.519288 3.387291 5.832375 4.609833 4.609833 
C 5.832375 3.387291 6.519288 1.728935 6.519288 0 
C 6.519288 -1.728935 5.832375 -3.387291 4.609833 -4.609833 
C 3.387291 -5.832375 1.728935 -6.519288 0 -6.519288 
C -1.728935 -6.519288 -3.387291 -5.832375 -4.609833 -4.609833 
C -5.832375 -3.387291 -6.519288 -1.728935 -6.519288 0 
C -6.519288 1.728935 -5.832375 3.387291 -4.609833 4.609833 
C -3.387291 5.832375 -1.728935 6.519288 0 6.519288 
z
" style="stroke: #000000"/>
    </defs>
    <g clip-path="url(#p1f63e48b65)">
     <use xlink:href="#m029ba76854" x="360.153853" y="55.8" style="stroke: #000000"/>
    </g>
   </g>
   <g id="line2d_6">
    <defs>
     <path id="mab0e8c6eaa" d="M 0 6.464722 
C 1.714464 6.464722 3.358939 5.783558 4.571249 4.571249 
C 5.783558 3.358939 6.464722 1.714464 6.464722 0 
C 6.464722 -1.714464 5.783558 -3.358939 4.571249 -4.571249 
C 3.358939 -5.783558 1.714464 -6.464722 0 -6.464722 
C -1.714464 -6.464722 -3.358939 -5.783558 -4.571249 -4.571249 
C -5.783558 -3.358939 -6.464722 -1.714464 -6.464722 0 
C -6.464722 1.714464 -5.783558 3.358939 -4.571249 4.571249 
C -3.358939 5.783558 -1.714464 6.464722 0 6.464722 
z
" style="stroke: #000000"/>
    </defs>
    <g clip-path="url(#p1f63e48b65)">
     <use xlink:href="#mab0e8c6eaa" x="323.348825" y="192.216229" style="stroke: #000000"/>
    </g>
   </g>
   <g id="line2d_7">
    <defs>
     <path id="m437dddf65e" d="M 0 6.418321 
C 1.702159 6.418321 3.33483 5.742046 4.538438 4.538438 
C 5.742046 3.33483 6.418321 1.702159 6.418321 0 
C 6.418321 -1.702159 5.742046 -3.33483 4.538438 -4.538438 
C 3.33483 -5.742046 1.702159 -6.418321 0 -6.418321 
C -1.702159 -6.418321 -3.33483 -5.742046 -4.538438 -4.538438 
C -5.742046 -3.33483 -6.418321 -1.702159 -6.418321 0 
C -6.418321 1.702159 -5.742046 3.33483 -4.538438 4.538438 
C -3.33483 5.742046 -1.702159 6.418321 0 6.418321 
z
" style="stroke: #000000"/>
    </defs>
    <g clip-path="url(#p1f63e48b65)">
     <use xlink:href="#m437dddf65e" x="477.988153" y="307.8" style="stroke: #000000"/>
    </g>
   </g>
   <g id="line2d_8">
    <defs>
     <path id="mc030636a6c" d="M 0 6.187927 
C 1.641057 6.187927 3.215122 5.535928 4.375525 4.375525 
C 5.535928 3.215122 6.187927 1.641057 6.187927 0 
C 6.187927 -1.641057 5.535928 -3.215122 4.375525 -4.375525 
C 3.215122 -5.535928 1.641057 -6.187927 0 -6.187927 
C -1.641057 -6.187927 -3.215122 -5.535928 -4.375525 -4.375525 
C -5.535928 -3.215122 -6.187927 -1.641057 -6.187927 0 
C -6.187927 1.641057 -5.535928 3.215122 -4.375525 4.375525 
C -3.215122 5.535928 -1.641057 6.187927 0 6.187927 
z
" style="stroke: #000000"/>
    </defs>
    <g clip-path="url(#p1f63e48b65)">
     <use xlink:href="#mc030636a6c" x="390.742835" y="80.914043" style="stroke: #000000"/>
    </g>
   </g>
   <g id="line2d_9">
    <defs>
     <path id="m0e25dd7cf7" d="M 0 5.935375 
C 1.57408 5.935375 3.083901 5.309986 4.196944 4.196944 
C 5.309986 3.083901 5.935375 1.57408 5.935375 0 
C 5.935375 -1.57408 5.309986 -3.083901 4.196944 -4.196944 
C 3.083901 -5.309986 1.57408 -5.935375 0 -5.935375 
C -1.57408 -5.935375 -3.083901 -5.309986 -4.196944 -4.196944 
C -5.309986 -3.083901 -5.935375 -1.57408 -5.935375 0 
C -5.935375 1.57408 -5.309986 3.083901 -4.196944 4.196944 
C -3.083901 5.309986 -1.57408 5.935375 0 5.935375 
z
" style="stroke: #000000"/>
    </defs>
    <g clip-path="url(#p1f63e48b65)">
     <use xlink:href="#m0e25dd7cf7" x="307.491693" y="74.43432" style="stroke: #000000"/>
    </g>
   </g>
   <g id="line2d_10">
    <defs>
     <path id="m3f2f460eae" d="M 0 5.631047 
C 1.493371 5.631047 2.925779 5.037725 3.981752 3.981752 
C 5.037725 2.925779 5.631047 1.493371 5.631047 0 
C 5.631047 -1.493371 5.037725 -2.925779 3.981752 -3.981752 
C 2.925779 -5.037725 1.493371 -5.631047 0 -5.631047 
C -1.493371 -5.631047 -2.925779 -5.037725 -3.981752 -3.981752 
C -5.037725 -2.925779 -5.631047 -1.493371 -5.631047 0 
C -5.631047 1.493371 -5.037725 2.925779 -3.981752 3.981752 
C -2.925779 5.037725 -1.493371 5.631047 0 5.631047 
z
" style="stroke: #000000"/>
    </defs>
    <g clip-path="url(#p1f63e48b65)">
     <use xlink:href="#m3f2f460eae" x="342.539447" y="219.304272" style="stroke: #000000"/>
    </g>
   </g>
  </g>
 </g>
 <defs>
  <clipPath id="p1f63e48b65">
   <path d="M 249.113032 320.4 
L 249.113032 43.2 
L 488.886968 43.2 
L 488.886968 320.4 
L 249.113032 320.4 
"/>
  </clipPath>
 </defs>
</svg>
