<?xml version="1.0" encoding="utf-8" standalone="no"?>
<!DOCTYPE svg PUBLIC "-//W3C//DTD SVG 1.1//EN"
  "http://www.w3.org/Graphics/SVG/1.1/DTD/svg11.dtd">
<svg xmlns:xlink="http://www.w3.org/1999/xlink" width="720pt" height="360pt" viewBox="0 0 720 360" xmlns="http://www.w3.org/2000/svg" version="1.1">
 <metadata>
  <rdf:RDF xmlns:dc="http://purl.org/dc/elements/1.1/" xmlns:cc="http://creativecommons.org/ns#" xmlns:rdf="http://www.w3.org/1999/02/22-rdf-syntax-ns#">
   <cc:Work>
    <dc:type rdf:resource="http://purl.org/dc/dcmitype/StillImage"/>
    <dc:date>2023-11-30T21:30:53.375623</dc:date>
    <dc:format>image/svg+xml</dc:format>
    <dc:creator>
     <cc:Agent>
      <dc:title>Matplotlib v3.8.1, https://matplotlib.org/</dc:title>
     </cc:Agent>
    </dc:creator>
   </cc:Work>
  </rdf:RDF>
 </metadata>
 <defs>
  <style type="text/css">*{stroke-linejoin: round; stroke-linecap: butt}</style>
 </defs>
 <g id="figure_1">
  <g id="patch_1">
   <path d="M 0 360 
L 720 360 
L 720 0 
L 0 0 
z
" style="fill: #ffffff"/>
  </g>
  <g id="axes_1">
   <g id="patch_2">
    <path d="M 90 298.345729 
L 90 65.254271 
L 648 65.254271 
L 648 298.345729 
L 90 298.345729 
" style="fill: #ffffff"/>
   </g>
   <g id="line2d_1">
    <defs>
     <path id="m28635ef373" d="M 0 8.295213 
C 2.199916 8.295213 4.310026 7.421177 5.865601 5.865601 
C 7.421177 4.310026 8.295213 2.199916 8.295213 0 
C 8.295213 -2.199916 7.421177 -4.310026 5.865601 -5.865601 
C 4.310026 -7.421177 2.199916 -8.295213 0 -8.295213 
C -2.199916 -8.295213 -4.310026 -7.421177 -5.865601 -5.865601 
C -7.421177 -4.310026 -8.295213 -2.199916 -8.295213 0 
C -8.295213 2.199916 -7.421177 4.310026 -5.865601 5.865601 
C -4.310026 7.421177 -2.199916 8.295213 0 8.295213 
z
" style="stroke: #000000"/>
    </defs>
    <g clip-path="url(#p107a9a199c)">
     <use xlink:href="#m28635ef373" x="176.12172" y="109.525948" style="stroke: #000000"/>
    </g>
   </g>
   <g id="line2d_2">
    <defs>
     <path id="m8e1bbc4a73" d="M 0 7.377731 
C 1.956597 7.377731 3.83332 6.600366 5.216843 5.216843 
C 6.600366 3.83332 7.377731 1.956597 7.377731 0 
C 7.377731 -1.956597 6.600366 -3.83332 5.216843 -5.216843 
C 3.83332 -6.600366 1.956597 -7.377731 0 -7.377731 
C -1.956597 -7.377731 -3.83332 -6.600366 -5.216843 -5.216843 
C -6.600366 -3.83332 -7.377731 -1.956597 -7.377731 0 
C -7.377731 1.956597 -6.600366 3.83332 -5.216843 5.216843 
C -3.83332 6.600366 -1.956597 7.377731 0 7.377731 
z
" style="stroke: #000000"/>
    </defs>
    <g clip-path="url(#p107a9a199c)">
     <use xlink:href="#m8e1bbc4a73" x="115.363636" y="274.141624" style="stroke: #000000"/>
    </g>
   </g>
   <g id="line2d_3">
    <defs>
     <path id="md292483889" d="M 0 7.224865 
C 1.916056 7.224865 3.753894 6.463607 5.108751 5.108751 
C 6.463607 3.753894 7.224865 1.916056 7.224865 0 
C 7.224865 -1.916056 6.463607 -3.753894 5.108751 -5.108751 
C 3.753894 -6.463607 1.916056 -7.224865 0 -7.224865 
C -1.916056 -7.224865 -3.753894 -6.463607 -5.108751 -5.108751 
C -6.463607 -3.753894 -7.224865 -1.916056 -7.224865 0 
C -7.224865 1.916056 -6.463607 3.753894 -5.108751 5.108751 
C -3.753894 6.463607 -1.916056 7.224865 0 7.224865 
z
" style="stroke: #000000"/>
    </defs>
    <g clip-path="url(#p107a9a199c)">
     <use xlink:href="#md292483889" x="291.388102" y="228.619173" style="stroke: #000000"/>
    </g>
   </g>
   <g id="line2d_4">
    <defs>
     <path id="m646da6db6c" d="M 0 7.196058 
C 1.908417 7.196058 3.738927 6.437836 5.088381 5.088381 
C 6.437836 3.738927 7.196058 1.908417 7.196058 0 
C 7.196058 -1.908417 6.437836 -3.738927 5.088381 -5.088381 
C 3.738927 -6.437836 1.908417 -7.196058 0 -7.196058 
C -1.908417 -7.196058 -3.738927 -6.437836 -5.088381 -5.088381 
C -6.437836 -3.738927 -7.196058 -1.908417 -7.196058 0 
C -7.196058 1.908417 -6.437836 3.738927 -5.088381 5.088381 
C -3.738927 6.437836 -1.908417 7.196058 0 7.196058 
z
" style="stroke: #000000"/>
    </defs>
    <g clip-path="url(#p107a9a199c)">
     <use xlink:href="#m646da6db6c" x="232.561509" y="75.849337" style="stroke: #000000"/>
    </g>
   </g>
   <g id="line2d_5">
    <defs>
     <path id="mcd58da9024" d="M 0 6.87958 
C 1.824486 6.87958 3.574491 6.154704 4.864598 4.864598 
C 6.154704 3.574491 6.87958 1.824486 6.87958 0 
C 6.87958 -1.824486 6.154704 -3.574491 4.864598 -4.864598 
C 3.574491 -6.154704 1.824486 -6.87958 0 -6.87958 
C -1.824486 -6.87958 -3.574491 -6.154704 -4.864598 -4.864598 
C -6.154704 -3.574491 -6.87958 -1.824486 -6.87958 0 
C -6.87958 1.824486 -6.154704 3.574491 -4.864598 4.864598 
C -3.574491 6.154704 -1.824486 6.87958 0 6.87958 
z
" style="stroke: #000000"/>
    </defs>
    <g clip-path="url(#p107a9a199c)">
     <use xlink:href="#mcd58da9024" x="598.159631" y="224.324292" style="stroke: #000000"/>
    </g>
   </g>
   <g id="line2d_6">
    <defs>
     <path id="mf085e74f21" d="M 0 6.741467 
C 1.787858 6.741467 3.502731 6.031143 4.766937 4.766937 
C 6.031143 3.502731 6.741467 1.787858 6.741467 0 
C 6.741467 -1.787858 6.031143 -3.502731 4.766937 -4.766937 
C 3.502731 -6.031143 1.787858 -6.741467 0 -6.741467 
C -1.787858 -6.741467 -3.502731 -6.031143 -4.766937 -4.766937 
C -6.031143 -3.502731 -6.741467 -1.787858 -6.741467 0 
C -6.741467 1.787858 -6.031143 3.502731 -4.766937 4.766937 
C -3.502731 6.031143 -1.787858 6.741467 0 6.741467 
z
" style="stroke: #000000"/>
    </defs>
    <g clip-path="url(#p107a9a199c)">
     <use xlink:href="#mf085e74f21" x="121.347423" y="119.085861" style="stroke: #000000"/>
    </g>
   </g>
   <g id="line2d_7">
    <defs>
     <path id="mfd28c04ed0" d="M 0 6.673326 
C 1.769787 6.673326 3.467326 5.970182 4.718754 4.718754 
C 5.970182 3.467326 6.673326 1.769787 6.673326 0 
C 6.673326 -1.769787 5.970182 -3.467326 4.718754 -4.718754 
C 3.467326 -5.970182 1.769787 -6.673326 0 -6.673326 
C -1.769787 -6.673326 -3.467326 -5.970182 -4.718754 -4.718754 
C -5.970182 -3.467326 -6.673326 -1.769787 -6.673326 0 
C -6.673326 1.769787 -5.970182 3.467326 -4.718754 4.718754 
C -3.467326 5.970182 -1.769787 6.673326 0 6.673326 
z
" style="stroke: #000000"/>
    </defs>
    <g clip-path="url(#p107a9a199c)">
     <use xlink:href="#mfd28c04ed0" x="326.02553" y="270.852624" style="stroke: #000000"/>
    </g>
   </g>
   <g id="line2d_8">
    <defs>
     <path id="ma5fccfa183" d="M 0 6.593521 
C 1.748622 6.593521 3.425861 5.898786 4.662324 4.662324 
C 5.898786 3.425861 6.593521 1.748622 6.593521 0 
C 6.593521 -1.748622 5.898786 -3.425861 4.662324 -4.662324 
C 3.425861 -5.898786 1.748622 -6.593521 0 -6.593521 
C -1.748622 -6.593521 -3.425861 -5.898786 -4.662324 -4.662324 
C -5.898786 -3.425861 -6.593521 -1.748622 -6.593521 0 
C -6.593521 1.748622 -5.898786 3.425861 -4.662324 4.662324 
C -3.425861 5.898786 -1.748622 6.593521 0 6.593521 
z
" style="stroke: #000000"/>
    </defs>
    <g clip-path="url(#p107a9a199c)">
     <use xlink:href="#ma5fccfa183" x="622.636364" y="287.750663" style="stroke: #000000"/>
    </g>
   </g>
   <g id="line2d_9">
    <defs>
     <path id="m98abbef635" d="M 0 6.564239 
C 1.740856 6.564239 3.410646 5.872589 4.641618 4.641618 
C 5.872589 3.410646 6.564239 1.740856 6.564239 0 
C 6.564239 -1.740856 5.872589 -3.410646 4.641618 -4.641618 
C 3.410646 -5.872589 1.740856 -6.564239 0 -6.564239 
C -1.740856 -6.564239 -3.410646 -5.872589 -4.641618 -4.641618 
C -5.872589 -3.410646 -6.564239 -1.740856 -6.564239 0 
C -6.564239 1.740856 -5.872589 3.410646 -4.641618 4.641618 
C -3.410646 5.872589 -1.740856 6.564239 0 6.564239 
z
" style="stroke: #000000"/>
    </defs>
    <g clip-path="url(#p107a9a199c)">
     <use xlink:href="#m98abbef635" x="237.766469" y="104.136211" style="stroke: #000000"/>
    </g>
   </g>
   <g id="line2d_10">
    <defs>
     <path id="m3772fce23e" d="M 0 6.304127 
C 1.671874 6.304127 3.275498 5.639885 4.457691 4.457691 
C 5.639885 3.275498 6.304127 1.671874 6.304127 0 
C 6.304127 -1.671874 5.639885 -3.275498 4.457691 -4.457691 
C 3.275498 -5.639885 1.671874 -6.304127 0 -6.304127 
C -1.671874 -6.304127 -3.275498 -5.639885 -4.457691 -4.457691 
C -5.639885 -3.275498 -6.304127 -1.671874 -6.304127 0 
C -6.304127 1.671874 -5.639885 3.275498 -4.457691 4.457691 
C -3.275498 5.639885 -1.671874 6.304127 0 6.304127 
z
" style="stroke: #000000"/>
    </defs>
    <g clip-path="url(#p107a9a199c)">
     <use xlink:href="#m3772fce23e" x="442.262449" y="87.194796" style="stroke: #000000"/>
    </g>
   </g>
  </g>
 </g>
 <defs>
  <clipPath id="p107a9a199c">
   <path d="M 90 298.345729 
L 90 65.254271 
L 648 65.254271 
L 648 298.345729 
L 90 298.345729 
"/>
  </clipPath>
 </defs>
</svg>
