<?xml version="1.0" encoding="utf-8" standalone="no"?>
<!DOCTYPE svg PUBLIC "-//W3C//DTD SVG 1.1//EN"
  "http://www.w3.org/Graphics/SVG/1.1/DTD/svg11.dtd">
<svg xmlns:xlink="http://www.w3.org/1999/xlink" width="720pt" height="360pt" viewBox="0 0 720 360" xmlns="http://www.w3.org/2000/svg" version="1.1">
 <metadata>
  <rdf:RDF xmlns:dc="http://purl.org/dc/elements/1.1/" xmlns:cc="http://creativecommons.org/ns#" xmlns:rdf="http://www.w3.org/1999/02/22-rdf-syntax-ns#">
   <cc:Work>
    <dc:type rdf:resource="http://purl.org/dc/dcmitype/StillImage"/>
    <dc:date>2023-11-30T21:30:46.644950</dc:date>
    <dc:format>image/svg+xml</dc:format>
    <dc:creator>
     <cc:Agent>
      <dc:title>Matplotlib v3.8.1, https://matplotlib.org/</dc:title>
     </cc:Agent>
    </dc:creator>
   </cc:Work>
  </rdf:RDF>
 </metadata>
 <defs>
  <style type="text/css">*{stroke-linejoin: round; stroke-linecap: butt}</style>
 </defs>
 <g id="figure_1">
  <g id="patch_1">
   <path d="M 0 360 
L 720 360 
L 720 0 
L 0 0 
z
" style="fill: #ffffff"/>
  </g>
  <g id="axes_1">
   <g id="patch_2">
    <path d="M 254.639616 320.4 
L 254.639616 43.2 
L 483.360384 43.2 
L 483.360384 320.4 
L 254.639616 320.4 
" style="fill: #ffffff"/>
   </g>
   <g id="line2d_1">
    <defs>
     <path id="mcfea58d3f2" d="M 0 8.834539 
C 2.342947 8.834539 4.590249 7.903677 6.246963 6.246963 
C 7.903677 4.590249 8.834539 2.342947 8.834539 0 
C 8.834539 -2.342947 7.903677 -4.590249 6.246963 -6.246963 
C 4.590249 -7.903677 2.342947 -8.834539 0 -8.834539 
C -2.342947 -8.834539 -4.590249 -7.903677 -6.246963 -6.246963 
C -7.903677 -4.590249 -8.834539 -2.342947 -8.834539 0 
C -8.834539 2.342947 -7.903677 4.590249 -6.246963 6.246963 
C -4.590249 7.903677 -2.342947 8.834539 0 8.834539 
z
" style="stroke: #000000"/>
    </defs>
    <g clip-path="url(#pab9e498f65)">
     <use xlink:href="#mcfea58d3f2" x="382.095644" y="291.730021" style="stroke: #000000"/>
    </g>
   </g>
   <g id="line2d_2">
    <defs>
     <path id="m46a9359393" d="M 0 8.228658 
C 2.182266 8.228658 4.275445 7.361635 5.81854 5.81854 
C 7.361635 4.275445 8.228658 2.182266 8.228658 0 
C 8.228658 -2.182266 7.361635 -4.275445 5.81854 -5.81854 
C 4.275445 -7.361635 2.182266 -8.228658 0 -8.228658 
C -2.182266 -8.228658 -4.275445 -7.361635 -5.81854 -5.81854 
C -7.361635 -4.275445 -8.228658 -2.182266 -8.228658 0 
C -8.228658 2.182266 -7.361635 4.275445 -5.81854 5.81854 
C -4.275445 7.361635 -2.182266 8.228658 0 8.228658 
z
" style="stroke: #000000"/>
    </defs>
    <g clip-path="url(#pab9e498f65)">
     <use xlink:href="#m46a9359393" x="457.218678" y="114.99504" style="stroke: #000000"/>
    </g>
   </g>
   <g id="line2d_3">
    <defs>
     <path id="m720261b447" d="M 0 7.974378 
C 2.11483 7.974378 4.143326 7.134147 5.638736 5.638736 
C 7.134147 4.143326 7.974378 2.11483 7.974378 0 
C 7.974378 -2.11483 7.134147 -4.143326 5.638736 -5.638736 
C 4.143326 -7.134147 2.11483 -7.974378 0 -7.974378 
C -2.11483 -7.974378 -4.143326 -7.134147 -5.638736 -5.638736 
C -7.134147 -4.143326 -7.974378 -2.11483 -7.974378 0 
C -7.974378 2.11483 -7.134147 4.143326 -5.638736 5.638736 
C -4.143326 7.134147 -2.11483 7.974378 0 7.974378 
z
" style="stroke: #000000"/>
    </defs>
    <g clip-path="url(#pab9e498f65)">
     <use xlink:href="#m720261b447" x="362.670732" y="278.999325" style="stroke: #000000"/>
    </g>
   </g>
   <g id="line2d_4">
    <defs>
     <path id="mc50952bc14" d="M 0 7.804041 
C 2.069656 7.804041 4.054822 6.981758 5.51829 5.51829 
C 6.981758 4.054822 7.804041 2.069656 7.804041 0 
C 7.804041 -2.069656 6.981758 -4.054822 5.51829 -5.51829 
C 4.054822 -6.981758 2.069656 -7.804041 0 -7.804041 
C -2.069656 -7.804041 -4.054822 -6.981758 -5.51829 -5.51829 
C -6.981758 -4.054822 -7.804041 -2.069656 -7.804041 0 
C -7.804041 2.069656 -6.981758 4.054822 -5.51829 5.51829 
C -4.054822 6.981758 -2.069656 7.804041 0 7.804041 
z
" style="stroke: #000000"/>
    </defs>
    <g clip-path="url(#pab9e498f65)">
     <use xlink:href="#mc50952bc14" x="265.036015" y="55.8" style="stroke: #000000"/>
    </g>
   </g>
   <g id="line2d_5">
    <defs>
     <path id="m2a5dc3323b" d="M 0 7.766604 
C 2.059727 7.766604 4.035371 6.948266 5.491818 5.491818 
C 6.948266 4.035371 7.766604 2.059727 7.766604 0 
C 7.766604 -2.059727 6.948266 -4.035371 5.491818 -5.491818 
C 4.035371 -6.948266 2.059727 -7.766604 0 -7.766604 
C -2.059727 -7.766604 -4.035371 -6.948266 -5.491818 -5.491818 
C -6.948266 -4.035371 -7.766604 -2.059727 -7.766604 0 
C -7.766604 2.059727 -6.948266 4.035371 -5.491818 5.491818 
C -4.035371 6.948266 -2.059727 7.766604 0 7.766604 
z
" style="stroke: #000000"/>
    </defs>
    <g clip-path="url(#pab9e498f65)">
     <use xlink:href="#m2a5dc3323b" x="419.778593" y="176.231612" style="stroke: #000000"/>
    </g>
   </g>
   <g id="line2d_6">
    <defs>
     <path id="m554826f92e" d="M 0 7.724268 
C 2.0485 7.724268 4.013374 6.91039 5.461882 5.461882 
C 6.91039 4.013374 7.724268 2.0485 7.724268 0 
C 7.724268 -2.0485 6.91039 -4.013374 5.461882 -5.461882 
C 4.013374 -6.91039 2.0485 -7.724268 0 -7.724268 
C -2.0485 -7.724268 -4.013374 -6.91039 -5.461882 -5.461882 
C -6.91039 -4.013374 -7.724268 -2.0485 -7.724268 0 
C -7.724268 2.0485 -6.91039 4.013374 -5.461882 5.461882 
C -4.013374 6.91039 -2.0485 7.724268 0 7.724268 
z
" style="stroke: #000000"/>
    </defs>
    <g clip-path="url(#pab9e498f65)">
     <use xlink:href="#m554826f92e" x="355.044231" y="307.8" style="stroke: #000000"/>
    </g>
   </g>
   <g id="line2d_7">
    <defs>
     <path id="m1bdfefbeea" d="M 0 7.702621 
C 2.042759 7.702621 4.002127 6.891024 5.446575 5.446575 
C 6.891024 4.002127 7.702621 2.042759 7.702621 0 
C 7.702621 -2.042759 6.891024 -4.002127 5.446575 -5.446575 
C 4.002127 -6.891024 2.042759 -7.702621 0 -7.702621 
C -2.042759 -7.702621 -4.002127 -6.891024 -5.446575 -5.446575 
C -6.891024 -4.002127 -7.702621 -2.042759 -7.702621 0 
C -7.702621 2.042759 -6.891024 4.002127 -5.446575 5.446575 
C -4.002127 6.891024 -2.042759 7.702621 0 7.702621 
z
" style="stroke: #000000"/>
    </defs>
    <g clip-path="url(#pab9e498f65)">
     <use xlink:href="#m1bdfefbeea" x="380.074281" y="290.313042" style="stroke: #000000"/>
    </g>
   </g>
   <g id="line2d_8">
    <defs>
     <path id="mf9f5515f2e" d="M 0 7.687401 
C 2.038723 7.687401 3.994219 6.877408 5.435813 5.435813 
C 6.877408 3.994219 7.687401 2.038723 7.687401 0 
C 7.687401 -2.038723 6.877408 -3.994219 5.435813 -5.435813 
C 3.994219 -6.877408 2.038723 -7.687401 0 -7.687401 
C -2.038723 -7.687401 -3.994219 -6.877408 -5.435813 -5.435813 
C -6.877408 -3.994219 -7.687401 -2.038723 -7.687401 0 
C -7.687401 2.038723 -6.877408 3.994219 -5.435813 5.435813 
C -3.994219 6.877408 -2.038723 7.687401 0 7.687401 
z
" style="stroke: #000000"/>
    </defs>
    <g clip-path="url(#pab9e498f65)">
     <use xlink:href="#mf9f5515f2e" x="472.963985" y="155.622585" style="stroke: #000000"/>
    </g>
   </g>
   <g id="line2d_9">
    <defs>
     <path id="md4b1a1d1b1" d="M 0 7.667224 
C 2.033372 7.667224 3.983735 6.859357 5.421546 5.421546 
C 6.859357 3.983735 7.667224 2.033372 7.667224 0 
C 7.667224 -2.033372 6.859357 -3.983735 5.421546 -5.421546 
C 3.983735 -6.859357 2.033372 -7.667224 0 -7.667224 
C -2.033372 -7.667224 -3.983735 -6.859357 -5.421546 -5.421546 
C -6.859357 -3.983735 -7.667224 -2.033372 -7.667224 0 
C -7.667224 2.033372 -6.859357 3.983735 -5.421546 5.421546 
C -3.983735 6.859357 -2.033372 7.667224 0 7.667224 
z
" style="stroke: #000000"/>
    </defs>
    <g clip-path="url(#pab9e498f65)">
     <use xlink:href="#md4b1a1d1b1" x="424.637757" y="212.521875" style="stroke: #000000"/>
    </g>
   </g>
   <g id="line2d_10">
    <defs>
     <path id="mfbba028b2c" d="M 0 7.586897 
C 2.012069 7.586897 3.941999 6.787494 5.364746 5.364746 
C 6.787494 3.941999 7.586897 2.012069 7.586897 0 
C 7.586897 -2.012069 6.787494 -3.941999 5.364746 -5.364746 
C 3.941999 -6.787494 2.012069 -7.586897 0 -7.586897 
C -2.012069 -7.586897 -3.941999 -6.787494 -5.364746 -5.364746 
C -6.787494 -3.941999 -7.586897 -2.012069 -7.586897 0 
C -7.586897 2.012069 -6.787494 3.941999 -5.364746 5.364746 
C -3.941999 6.787494 -2.012069 7.586897 0 7.586897 
z
" style="stroke: #000000"/>
    </defs>
    <g clip-path="url(#pab9e498f65)">
     <use xlink:href="#mfbba028b2c" x="393.436043" y="279.516439" style="stroke: #000000"/>
    </g>
   </g>
  </g>
 </g>
 <defs>
  <clipPath id="pab9e498f65">
   <path d="M 254.639616 320.4 
L 254.639616 43.2 
L 483.360384 43.2 
L 483.360384 320.4 
L 254.639616 320.4 
"/>
  </clipPath>
 </defs>
</svg>
