<?xml version="1.0" encoding="utf-8" standalone="no"?>
<!DOCTYPE svg PUBLIC "-//W3C//DTD SVG 1.1//EN"
  "http://www.w3.org/Graphics/SVG/1.1/DTD/svg11.dtd">
<svg xmlns:xlink="http://www.w3.org/1999/xlink" width="720pt" height="360pt" viewBox="0 0 720 360" xmlns="http://www.w3.org/2000/svg" version="1.1">
 <metadata>
  <rdf:RDF xmlns:dc="http://purl.org/dc/elements/1.1/" xmlns:cc="http://creativecommons.org/ns#" xmlns:rdf="http://www.w3.org/1999/02/22-rdf-syntax-ns#">
   <cc:Work>
    <dc:type rdf:resource="http://purl.org/dc/dcmitype/StillImage"/>
    <dc:date>2023-11-30T21:30:46.686705</dc:date>
    <dc:format>image/svg+xml</dc:format>
    <dc:creator>
     <cc:Agent>
      <dc:title>Matplotlib v3.8.1, https://matplotlib.org/</dc:title>
     </cc:Agent>
    </dc:creator>
   </cc:Work>
  </rdf:RDF>
 </metadata>
 <defs>
  <style type="text/css">*{stroke-linejoin: round; stroke-linecap: butt}</style>
 </defs>
 <g id="figure_1">
  <g id="patch_1">
   <path d="M 0 360 
L 720 360 
L 720 0 
L 0 0 
z
" style="fill: #ffffff"/>
  </g>
  <g id="axes_1">
   <g id="patch_2">
    <path d="M 175.054441 320.4 
L 175.054441 43.2 
L 562.945559 43.2 
L 562.945559 320.4 
L 175.054441 320.4 
" style="fill: #ffffff"/>
   </g>
   <g id="line2d_1">
    <defs>
     <path id="m55640b641f" d="M 0 10.366208 
C 2.749151 10.366208 5.386073 9.273959 7.330016 7.330016 
C 9.273959 5.386073 10.366208 2.749151 10.366208 0 
C 10.366208 -2.749151 9.273959 -5.386073 7.330016 -7.330016 
C 5.386073 -9.273959 2.749151 -10.366208 0 -10.366208 
C -2.749151 -10.366208 -5.386073 -9.273959 -7.330016 -7.330016 
C -9.273959 -5.386073 -10.366208 -2.749151 -10.366208 0 
C -10.366208 2.749151 -9.273959 5.386073 -7.330016 7.330016 
C -5.386073 9.273959 -2.749151 10.366208 0 10.366208 
z
" style="stroke: #000000"/>
    </defs>
    <g clip-path="url(#p8b470790e5)">
     <use xlink:href="#m55640b641f" x="380.375567" y="163.209448" style="stroke: #000000"/>
    </g>
   </g>
   <g id="line2d_2">
    <defs>
     <path id="m60ba9b8a49" d="M 0 9.503548 
C 2.52037 9.503548 4.937852 8.502194 6.720023 6.720023 
C 8.502194 4.937852 9.503548 2.52037 9.503548 0 
C 9.503548 -2.52037 8.502194 -4.937852 6.720023 -6.720023 
C 4.937852 -8.502194 2.52037 -9.503548 0 -9.503548 
C -2.52037 -9.503548 -4.937852 -8.502194 -6.720023 -6.720023 
C -8.502194 -4.937852 -9.503548 -2.52037 -9.503548 0 
C -9.503548 2.52037 -8.502194 4.937852 -6.720023 6.720023 
C -4.937852 8.502194 -2.52037 9.503548 0 9.503548 
z
" style="stroke: #000000"/>
    </defs>
    <g clip-path="url(#p8b470790e5)">
     <use xlink:href="#m60ba9b8a49" x="545.314144" y="281.226161" style="stroke: #000000"/>
    </g>
   </g>
   <g id="line2d_3">
    <defs>
     <path id="m10b0290667" d="M 0 9.255467 
C 2.454579 9.255467 4.808954 8.280253 6.544604 6.544604 
C 8.280253 4.808954 9.255467 2.454579 9.255467 0 
C 9.255467 -2.454579 8.280253 -4.808954 6.544604 -6.544604 
C 4.808954 -8.280253 2.454579 -9.255467 0 -9.255467 
C -2.454579 -9.255467 -4.808954 -8.280253 -6.544604 -6.544604 
C -8.280253 -4.808954 -9.255467 -2.454579 -9.255467 0 
C -9.255467 2.454579 -8.280253 4.808954 -6.544604 6.544604 
C -4.808954 8.280253 -2.454579 9.255467 0 9.255467 
z
" style="stroke: #000000"/>
    </defs>
    <g clip-path="url(#p8b470790e5)">
     <use xlink:href="#m10b0290667" x="199.365696" y="180.502385" style="stroke: #000000"/>
    </g>
   </g>
   <g id="line2d_4">
    <defs>
     <path id="mc3c4425bd3" d="M 0 9.247023 
C 2.452339 9.247023 4.804567 8.272699 6.538633 6.538633 
C 8.272699 4.804567 9.247023 2.452339 9.247023 0 
C 9.247023 -2.452339 8.272699 -4.804567 6.538633 -6.538633 
C 4.804567 -8.272699 2.452339 -9.247023 0 -9.247023 
C -2.452339 -9.247023 -4.804567 -8.272699 -6.538633 -6.538633 
C -8.272699 -4.804567 -9.247023 -2.452339 -9.247023 0 
C -9.247023 2.452339 -8.272699 4.804567 -6.538633 6.538633 
C -4.804567 8.272699 -2.452339 9.247023 0 9.247023 
z
" style="stroke: #000000"/>
    </defs>
    <g clip-path="url(#p8b470790e5)">
     <use xlink:href="#mc3c4425bd3" x="514.806074" y="161.832709" style="stroke: #000000"/>
    </g>
   </g>
   <g id="line2d_5">
    <defs>
     <path id="mf8e8209452" d="M 0 9.234093 
C 2.44891 9.234093 4.797849 8.261131 6.52949 6.52949 
C 8.261131 4.797849 9.234093 2.44891 9.234093 0 
C 9.234093 -2.44891 8.261131 -4.797849 6.52949 -6.52949 
C 4.797849 -8.261131 2.44891 -9.234093 0 -9.234093 
C -2.44891 -9.234093 -4.797849 -8.261131 -6.52949 -6.52949 
C -8.261131 -4.797849 -9.234093 -2.44891 -9.234093 0 
C -9.234093 2.44891 -8.261131 4.797849 -6.52949 6.52949 
C -4.797849 8.261131 -2.44891 9.234093 0 9.234093 
z
" style="stroke: #000000"/>
    </defs>
    <g clip-path="url(#p8b470790e5)">
     <use xlink:href="#mf8e8209452" x="192.685856" y="307.8" style="stroke: #000000"/>
    </g>
   </g>
   <g id="line2d_6">
    <defs>
     <path id="m003acc3ec0" d="M 0 9.193295 
C 2.43809 9.193295 4.776651 8.224632 6.500642 6.500642 
C 8.224632 4.776651 9.193295 2.43809 9.193295 0 
C 9.193295 -2.43809 8.224632 -4.776651 6.500642 -6.500642 
C 4.776651 -8.224632 2.43809 -9.193295 0 -9.193295 
C -2.43809 -9.193295 -4.776651 -8.224632 -6.500642 -6.500642 
C -8.224632 -4.776651 -9.193295 -2.43809 -9.193295 0 
C -9.193295 2.43809 -8.224632 4.776651 -6.500642 6.500642 
C -4.776651 8.224632 -2.43809 9.193295 0 9.193295 
z
" style="stroke: #000000"/>
    </defs>
    <g clip-path="url(#p8b470790e5)">
     <use xlink:href="#m003acc3ec0" x="508.031879" y="55.8" style="stroke: #000000"/>
    </g>
   </g>
   <g id="line2d_7">
    <defs>
     <path id="m617d855ba6" d="M 0 8.838901 
C 2.344104 8.838901 4.592515 7.907579 6.250047 6.250047 
C 7.907579 4.592515 8.838901 2.344104 8.838901 0 
C 8.838901 -2.344104 7.907579 -4.592515 6.250047 -6.250047 
C 4.592515 -7.907579 2.344104 -8.838901 0 -8.838901 
C -2.344104 -8.838901 -4.592515 -7.907579 -6.250047 -6.250047 
C -7.907579 -4.592515 -8.838901 -2.344104 -8.838901 0 
C -8.838901 2.344104 -7.907579 4.592515 -6.250047 6.250047 
C -4.592515 7.907579 -2.344104 8.838901 0 8.838901 
z
" style="stroke: #000000"/>
    </defs>
    <g clip-path="url(#p8b470790e5)">
     <use xlink:href="#m617d855ba6" x="460.443161" y="225.046281" style="stroke: #000000"/>
    </g>
   </g>
   <g id="line2d_8">
    <defs>
     <path id="mab93522709" d="M 0 8.724804 
C 2.313845 8.724804 4.533233 7.805504 6.169368 6.169368 
C 7.805504 4.533233 8.724804 2.313845 8.724804 0 
C 8.724804 -2.313845 7.805504 -4.533233 6.169368 -6.169368 
C 4.533233 -7.805504 2.313845 -8.724804 0 -8.724804 
C -2.313845 -8.724804 -4.533233 -7.805504 -6.169368 -6.169368 
C -7.805504 -4.533233 -8.724804 -2.313845 -8.724804 0 
C -8.724804 2.313845 -7.805504 4.533233 -6.169368 6.169368 
C -4.533233 7.805504 -2.313845 8.724804 0 8.724804 
z
" style="stroke: #000000"/>
    </defs>
    <g clip-path="url(#p8b470790e5)">
     <use xlink:href="#mab93522709" x="304.943456" y="225.518582" style="stroke: #000000"/>
    </g>
   </g>
   <g id="line2d_9">
    <defs>
     <path id="m15c76941b4" d="M 0 8.572578 
C 2.273474 8.572578 4.454139 7.669317 6.061728 6.061728 
C 7.669317 4.454139 8.572578 2.273474 8.572578 0 
C 8.572578 -2.273474 7.669317 -4.454139 6.061728 -6.061728 
C 4.454139 -7.669317 2.273474 -8.572578 0 -8.572578 
C -2.273474 -8.572578 -4.454139 -7.669317 -6.061728 -6.061728 
C -7.669317 -4.454139 -8.572578 -2.273474 -8.572578 0 
C -8.572578 2.273474 -7.669317 4.454139 -6.061728 6.061728 
C -4.454139 7.669317 -2.273474 8.572578 0 8.572578 
z
" style="stroke: #000000"/>
    </defs>
    <g clip-path="url(#p8b470790e5)">
     <use xlink:href="#m15c76941b4" x="425.778639" y="136.237256" style="stroke: #000000"/>
    </g>
   </g>
   <g id="line2d_10">
    <defs>
     <path id="mb9152149b2" d="M 0 8.49838 
C 2.253797 8.49838 4.415587 7.602937 6.009262 6.009262 
C 7.602937 4.415587 8.49838 2.253797 8.49838 0 
C 8.49838 -2.253797 7.602937 -4.415587 6.009262 -6.009262 
C 4.415587 -7.602937 2.253797 -8.49838 0 -8.49838 
C -2.253797 -8.49838 -4.415587 -7.602937 -6.009262 -6.009262 
C -7.602937 -4.415587 -8.49838 -2.253797 -8.49838 0 
C -8.49838 2.253797 -7.602937 4.415587 -6.009262 6.009262 
C -4.415587 7.602937 -2.253797 8.49838 0 8.49838 
z
" style="stroke: #000000"/>
    </defs>
    <g clip-path="url(#p8b470790e5)">
     <use xlink:href="#mb9152149b2" x="307.823457" y="305.915487" style="stroke: #000000"/>
    </g>
   </g>
  </g>
 </g>
 <defs>
  <clipPath id="p8b470790e5">
   <path d="M 175.054441 320.4 
L 175.054441 43.2 
L 562.945559 43.2 
L 562.945559 320.4 
L 175.054441 320.4 
"/>
  </clipPath>
 </defs>
</svg>
