<?xml version="1.0" encoding="utf-8" standalone="no"?>
<!DOCTYPE svg PUBLIC "-//W3C//DTD SVG 1.1//EN"
  "http://www.w3.org/Graphics/SVG/1.1/DTD/svg11.dtd">
<svg xmlns:xlink="http://www.w3.org/1999/xlink" width="720pt" height="360pt" viewBox="0 0 720 360" xmlns="http://www.w3.org/2000/svg" version="1.1">
 <metadata>
  <rdf:RDF xmlns:dc="http://purl.org/dc/elements/1.1/" xmlns:cc="http://creativecommons.org/ns#" xmlns:rdf="http://www.w3.org/1999/02/22-rdf-syntax-ns#">
   <cc:Work>
    <dc:type rdf:resource="http://purl.org/dc/dcmitype/StillImage"/>
    <dc:date>2023-11-30T21:30:46.734935</dc:date>
    <dc:format>image/svg+xml</dc:format>
    <dc:creator>
     <cc:Agent>
      <dc:title>Matplotlib v3.8.1, https://matplotlib.org/</dc:title>
     </cc:Agent>
    </dc:creator>
   </cc:Work>
  </rdf:RDF>
 </metadata>
 <defs>
  <style type="text/css">*{stroke-linejoin: round; stroke-linecap: butt}</style>
 </defs>
 <g id="figure_1">
  <g id="patch_1">
   <path d="M 0 360 
L 720 360 
L 720 0 
L 0 0 
z
" style="fill: #ffffff"/>
  </g>
  <g id="axes_1">
   <g id="patch_2">
    <path d="M 300.930744 320.4 
L 300.930744 43.2 
L 437.069256 43.2 
L 437.069256 320.4 
L 300.930744 320.4 
" style="fill: #ffffff"/>
   </g>
   <g id="line2d_1">
    <defs>
     <path id="m64d9aebad5" d="M 0 7.953704 
C 2.109347 7.953704 4.132584 7.115651 5.624118 5.624118 
C 7.115651 4.132584 7.953704 2.109347 7.953704 0 
C 7.953704 -2.109347 7.115651 -4.132584 5.624118 -5.624118 
C 4.132584 -7.115651 2.109347 -7.953704 0 -7.953704 
C -2.109347 -7.953704 -4.132584 -7.115651 -5.624118 -5.624118 
C -7.115651 -4.132584 -7.953704 -2.109347 -7.953704 0 
C -7.953704 2.109347 -7.115651 4.132584 -5.624118 5.624118 
C -4.132584 7.115651 -2.109347 7.953704 0 7.953704 
z
" style="stroke: #000000"/>
    </defs>
    <g clip-path="url(#p11e5e76c0b)">
     <use xlink:href="#m64d9aebad5" x="406.444507" y="154.352228" style="stroke: #000000"/>
    </g>
   </g>
   <g id="line2d_2">
    <defs>
     <path id="md3119e1091" d="M 0 7.337317 
C 1.945879 7.337317 3.812322 6.564211 5.188266 5.188266 
C 6.564211 3.812322 7.337317 1.945879 7.337317 0 
C 7.337317 -1.945879 6.564211 -3.812322 5.188266 -5.188266 
C 3.812322 -6.564211 1.945879 -7.337317 0 -7.337317 
C -1.945879 -7.337317 -3.812322 -6.564211 -5.188266 -5.188266 
C -6.564211 -3.812322 -7.337317 -1.945879 -7.337317 0 
C -7.337317 1.945879 -6.564211 3.812322 -5.188266 5.188266 
C -3.812322 6.564211 -1.945879 7.337317 0 7.337317 
z
" style="stroke: #000000"/>
    </defs>
    <g clip-path="url(#p11e5e76c0b)">
     <use xlink:href="#md3119e1091" x="314.457443" y="191.772246" style="stroke: #000000"/>
    </g>
   </g>
   <g id="line2d_3">
    <defs>
     <path id="m667b54fb3e" d="M 0 7.044642 
C 1.868261 7.044642 3.660254 6.302375 4.981314 4.981314 
C 6.302375 3.660254 7.044642 1.868261 7.044642 0 
C 7.044642 -1.868261 6.302375 -3.660254 4.981314 -4.981314 
C 3.660254 -6.302375 1.868261 -7.044642 0 -7.044642 
C -1.868261 -7.044642 -3.660254 -6.302375 -4.981314 -4.981314 
C -6.302375 -3.660254 -7.044642 -1.868261 -7.044642 0 
C -7.044642 1.868261 -6.302375 3.660254 -4.981314 4.981314 
C -3.660254 6.302375 -1.868261 7.044642 0 7.044642 
z
" style="stroke: #000000"/>
    </defs>
    <g clip-path="url(#p11e5e76c0b)">
     <use xlink:href="#m667b54fb3e" x="430.881142" y="108.517263" style="stroke: #000000"/>
    </g>
   </g>
   <g id="line2d_4">
    <defs>
     <path id="m241472016b" d="M 0 6.950575 
C 1.843314 6.950575 3.611379 6.218218 4.914799 4.914799 
C 6.218218 3.611379 6.950575 1.843314 6.950575 0 
C 6.950575 -1.843314 6.218218 -3.611379 4.914799 -4.914799 
C 3.611379 -6.218218 1.843314 -6.950575 0 -6.950575 
C -1.843314 -6.950575 -3.611379 -6.218218 -4.914799 -4.914799 
C -6.218218 -3.611379 -6.950575 -1.843314 -6.950575 0 
C -6.950575 1.843314 -6.218218 3.611379 -4.914799 4.914799 
C -3.611379 6.218218 -1.843314 6.950575 0 6.950575 
z
" style="stroke: #000000"/>
    </defs>
    <g clip-path="url(#p11e5e76c0b)">
     <use xlink:href="#m241472016b" x="367.866565" y="90.298911" style="stroke: #000000"/>
    </g>
   </g>
   <g id="line2d_5">
    <defs>
     <path id="mf8849bd6ce" d="M 0 6.860496 
C 1.819425 6.860496 3.564576 6.137631 4.851103 4.851103 
C 6.137631 3.564576 6.860496 1.819425 6.860496 0 
C 6.860496 -1.819425 6.137631 -3.564576 4.851103 -4.851103 
C 3.564576 -6.137631 1.819425 -6.860496 0 -6.860496 
C -1.819425 -6.860496 -3.564576 -6.137631 -4.851103 -4.851103 
C -6.137631 -3.564576 -6.860496 -1.819425 -6.860496 0 
C -6.860496 1.819425 -6.137631 3.564576 -4.851103 4.851103 
C -3.564576 6.137631 -1.819425 6.860496 0 6.860496 
z
" style="stroke: #000000"/>
    </defs>
    <g clip-path="url(#p11e5e76c0b)">
     <use xlink:href="#mf8849bd6ce" x="386.304273" y="55.8" style="stroke: #000000"/>
    </g>
   </g>
   <g id="line2d_6">
    <defs>
     <path id="m770cc22597" d="M 0 6.854003 
C 1.817703 6.854003 3.561202 6.131822 4.846512 4.846512 
C 6.131822 3.561202 6.854003 1.817703 6.854003 0 
C 6.854003 -1.817703 6.131822 -3.561202 4.846512 -4.846512 
C 3.561202 -6.131822 1.817703 -6.854003 0 -6.854003 
C -1.817703 -6.854003 -3.561202 -6.131822 -4.846512 -4.846512 
C -6.131822 -3.561202 -6.854003 -1.817703 -6.854003 0 
C -6.854003 1.817703 -6.131822 3.561202 -4.846512 4.846512 
C -3.561202 6.131822 -1.817703 6.854003 0 6.854003 
z
" style="stroke: #000000"/>
    </defs>
    <g clip-path="url(#p11e5e76c0b)">
     <use xlink:href="#m770cc22597" x="346.411988" y="181.762963" style="stroke: #000000"/>
    </g>
   </g>
   <g id="line2d_7">
    <defs>
     <path id="m91d78a5885" d="M 0 6.659413 
C 1.766097 6.659413 3.460097 5.957735 4.708916 4.708916 
C 5.957735 3.460097 6.659413 1.766097 6.659413 0 
C 6.659413 -1.766097 5.957735 -3.460097 4.708916 -4.708916 
C 3.460097 -5.957735 1.766097 -6.659413 0 -6.659413 
C -1.766097 -6.659413 -3.460097 -5.957735 -4.708916 -4.708916 
C -5.957735 -3.460097 -6.659413 -1.766097 -6.659413 0 
C -6.659413 1.766097 -5.957735 3.460097 -4.708916 4.708916 
C -3.460097 5.957735 -1.766097 6.659413 0 6.659413 
z
" style="stroke: #000000"/>
    </defs>
    <g clip-path="url(#p11e5e76c0b)">
     <use xlink:href="#m91d78a5885" x="402.692409" y="212.510314" style="stroke: #000000"/>
    </g>
   </g>
   <g id="line2d_8">
    <defs>
     <path id="mc27adb78c8" d="M 0 6.353356 
C 1.68493 6.353356 3.301076 5.683926 4.492501 4.492501 
C 5.683926 3.301076 6.353356 1.68493 6.353356 0 
C 6.353356 -1.68493 5.683926 -3.301076 4.492501 -4.492501 
C 3.301076 -5.683926 1.68493 -6.353356 0 -6.353356 
C -1.68493 -6.353356 -3.301076 -5.683926 -4.492501 -4.492501 
C -5.683926 -3.301076 -6.353356 -1.68493 -6.353356 0 
C -6.353356 1.68493 -5.683926 3.301076 -4.492501 4.492501 
C -3.301076 5.683926 -1.68493 6.353356 0 6.353356 
z
" style="stroke: #000000"/>
    </defs>
    <g clip-path="url(#p11e5e76c0b)">
     <use xlink:href="#mc27adb78c8" x="307.118858" y="200.964982" style="stroke: #000000"/>
    </g>
   </g>
   <g id="line2d_9">
    <defs>
     <path id="m6a414ad981" d="M 0 6.278732 
C 1.665139 6.278732 3.262303 5.617165 4.439734 4.439734 
C 5.617165 3.262303 6.278732 1.665139 6.278732 0 
C 6.278732 -1.665139 5.617165 -3.262303 4.439734 -4.439734 
C 3.262303 -5.617165 1.665139 -6.278732 0 -6.278732 
C -1.665139 -6.278732 -3.262303 -5.617165 -4.439734 -4.439734 
C -5.617165 -3.262303 -6.278732 -1.665139 -6.278732 0 
C -6.278732 1.665139 -5.617165 3.262303 -4.439734 4.439734 
C -3.262303 5.617165 -1.665139 6.278732 0 6.278732 
z
" style="stroke: #000000"/>
    </defs>
    <g clip-path="url(#p11e5e76c0b)">
     <use xlink:href="#m6a414ad981" x="341.872972" y="307.8" style="stroke: #000000"/>
    </g>
   </g>
   <g id="line2d_10">
    <defs>
     <path id="m0932298687" d="M 0 6.20721 
C 1.646171 6.20721 3.225142 5.55318 4.389161 4.389161 
C 5.55318 3.225142 6.20721 1.646171 6.20721 0 
C 6.20721 -1.646171 5.55318 -3.225142 4.389161 -4.389161 
C 3.225142 -5.55318 1.646171 -6.20721 0 -6.20721 
C -1.646171 -6.20721 -3.225142 -5.55318 -4.389161 -4.389161 
C -5.55318 -3.225142 -6.20721 -1.646171 -6.20721 0 
C -6.20721 1.646171 -5.55318 3.225142 -4.389161 4.389161 
C -3.225142 5.55318 -1.646171 6.20721 0 6.20721 
z
" style="stroke: #000000"/>
    </defs>
    <g clip-path="url(#p11e5e76c0b)">
     <use xlink:href="#m0932298687" x="396.693482" y="148.332651" style="stroke: #000000"/>
    </g>
   </g>
  </g>
 </g>
 <defs>
  <clipPath id="p11e5e76c0b">
   <path d="M 300.930744 320.4 
L 300.930744 43.2 
L 437.069256 43.2 
L 437.069256 320.4 
L 300.930744 320.4 
"/>
  </clipPath>
 </defs>
</svg>
