<?xml version="1.0" encoding="utf-8" standalone="no"?>
<!DOCTYPE svg PUBLIC "-//W3C//DTD SVG 1.1//EN"
  "http://www.w3.org/Graphics/SVG/1.1/DTD/svg11.dtd">
<svg xmlns:xlink="http://www.w3.org/1999/xlink" width="720pt" height="360pt" viewBox="0 0 720 360" xmlns="http://www.w3.org/2000/svg" version="1.1">
 <metadata>
  <rdf:RDF xmlns:dc="http://purl.org/dc/elements/1.1/" xmlns:cc="http://creativecommons.org/ns#" xmlns:rdf="http://www.w3.org/1999/02/22-rdf-syntax-ns#">
   <cc:Work>
    <dc:type rdf:resource="http://purl.org/dc/dcmitype/StillImage"/>
    <dc:date>2023-11-30T21:30:46.777329</dc:date>
    <dc:format>image/svg+xml</dc:format>
    <dc:creator>
     <cc:Agent>
      <dc:title>Matplotlib v3.8.1, https://matplotlib.org/</dc:title>
     </cc:Agent>
    </dc:creator>
   </cc:Work>
  </rdf:RDF>
 </metadata>
 <defs>
  <style type="text/css">*{stroke-linejoin: round; stroke-linecap: butt}</style>
 </defs>
 <g id="figure_1">
  <g id="patch_1">
   <path d="M 0 360 
L 720 360 
L 720 0 
L 0 0 
z
" style="fill: #ffffff"/>
  </g>
  <g id="axes_1">
   <g id="patch_2">
    <path d="M 90 262.920263 
L 90 100.679737 
L 648 100.679737 
L 648 262.920263 
L 90 262.920263 
" style="fill: #ffffff"/>
   </g>
   <g id="line2d_1">
    <defs>
     <path id="m30921431f0" d="M 0 10.65504 
C 2.82575 10.65504 5.536145 9.532358 7.534251 7.534251 
C 9.532358 5.536145 10.65504 2.82575 10.65504 0 
C 10.65504 -2.82575 9.532358 -5.536145 7.534251 -7.534251 
C 5.536145 -9.532358 2.82575 -10.65504 0 -10.65504 
C -2.82575 -10.65504 -5.536145 -9.532358 -7.534251 -7.534251 
C -9.532358 -5.536145 -10.65504 -2.82575 -10.65504 0 
C -10.65504 2.82575 -9.532358 5.536145 -7.534251 7.534251 
C -5.536145 9.532358 -2.82575 10.65504 0 10.65504 
z
" style="stroke: #000000"/>
    </defs>
    <g clip-path="url(#p70f22eab4e)">
     <use xlink:href="#m30921431f0" x="542.652032" y="253.829434" style="stroke: #000000"/>
    </g>
   </g>
   <g id="line2d_2">
    <defs>
     <path id="ma3dc73884d" d="M 0 10.37478 
C 2.751424 10.37478 5.390527 9.281628 7.336077 7.336077 
C 9.281628 5.390527 10.37478 2.751424 10.37478 0 
C 10.37478 -2.751424 9.281628 -5.390527 7.336077 -7.336077 
C 5.390527 -9.281628 2.751424 -10.37478 0 -10.37478 
C -2.751424 -10.37478 -5.390527 -9.281628 -7.336077 -7.336077 
C -9.281628 -5.390527 -10.37478 -2.751424 -10.37478 0 
C -10.37478 2.751424 -9.281628 5.390527 -7.336077 7.336077 
C -5.390527 9.281628 -2.751424 10.37478 0 10.37478 
z
" style="stroke: #000000"/>
    </defs>
    <g clip-path="url(#p70f22eab4e)">
     <use xlink:href="#ma3dc73884d" x="599.442071" y="229.167859" style="stroke: #000000"/>
    </g>
   </g>
   <g id="line2d_3">
    <defs>
     <path id="m9dfdd98603" d="M 0 9.980029 
C 2.646735 9.980029 5.185422 8.92847 7.056946 7.056946 
C 8.92847 5.185422 9.980029 2.646735 9.980029 0 
C 9.980029 -2.646735 8.92847 -5.185422 7.056946 -7.056946 
C 5.185422 -8.92847 2.646735 -9.980029 0 -9.980029 
C -2.646735 -9.980029 -5.185422 -8.92847 -7.056946 -7.056946 
C -8.92847 -5.185422 -9.980029 -2.646735 -9.980029 0 
C -9.980029 2.646735 -8.92847 5.185422 -7.056946 7.056946 
C -5.185422 8.92847 -2.646735 9.980029 0 9.980029 
z
" style="stroke: #000000"/>
    </defs>
    <g clip-path="url(#p70f22eab4e)">
     <use xlink:href="#m9dfdd98603" x="203.654646" y="147.922075" style="stroke: #000000"/>
    </g>
   </g>
   <g id="line2d_4">
    <defs>
     <path id="maa8507b59c" d="M 0 9.973604 
C 2.645031 9.973604 5.182084 8.922723 7.052403 7.052403 
C 8.922723 5.182084 9.973604 2.645031 9.973604 0 
C 9.973604 -2.645031 8.922723 -5.182084 7.052403 -7.052403 
C 5.182084 -8.922723 2.645031 -9.973604 0 -9.973604 
C -2.645031 -9.973604 -5.182084 -8.922723 -7.052403 -7.052403 
C -8.922723 -5.182084 -9.973604 -2.645031 -9.973604 0 
C -9.973604 2.645031 -8.922723 5.182084 -7.052403 7.052403 
C -5.182084 8.922723 -2.645031 9.973604 0 9.973604 
z
" style="stroke: #000000"/>
    </defs>
    <g clip-path="url(#p70f22eab4e)">
     <use xlink:href="#maa8507b59c" x="209.680567" y="108.054306" style="stroke: #000000"/>
    </g>
   </g>
   <g id="line2d_5">
    <defs>
     <path id="me683e07b4a" d="M 0 9.815676 
C 2.603148 9.815676 5.100027 8.781434 6.940731 6.940731 
C 8.781434 5.100027 9.815676 2.603148 9.815676 0 
C 9.815676 -2.603148 8.781434 -5.100027 6.940731 -6.940731 
C 5.100027 -8.781434 2.603148 -9.815676 0 -9.815676 
C -2.603148 -9.815676 -5.100027 -8.781434 -6.940731 -6.940731 
C -8.781434 -5.100027 -9.815676 -2.603148 -9.815676 0 
C -9.815676 2.603148 -8.781434 5.100027 -6.940731 6.940731 
C -5.100027 8.781434 -2.603148 9.815676 0 9.815676 
z
" style="stroke: #000000"/>
    </defs>
    <g clip-path="url(#p70f22eab4e)">
     <use xlink:href="#me683e07b4a" x="578.817722" y="230.524259" style="stroke: #000000"/>
    </g>
   </g>
   <g id="line2d_6">
    <defs>
     <path id="m5c7f8e2232" d="M 0 9.757888 
C 2.587822 9.757888 5.070002 8.729736 6.899869 6.899869 
C 8.729736 5.070002 9.757888 2.587822 9.757888 0 
C 9.757888 -2.587822 8.729736 -5.070002 6.899869 -6.899869 
C 5.070002 -8.729736 2.587822 -9.757888 0 -9.757888 
C -2.587822 -9.757888 -5.070002 -8.729736 -6.899869 -6.899869 
C -8.729736 -5.070002 -9.757888 -2.587822 -9.757888 0 
C -9.757888 2.587822 -8.729736 5.070002 -6.899869 6.899869 
C -5.070002 8.729736 -2.587822 9.757888 0 9.757888 
z
" style="stroke: #000000"/>
    </defs>
    <g clip-path="url(#p70f22eab4e)">
     <use xlink:href="#m5c7f8e2232" x="369.194485" y="165.772905" style="stroke: #000000"/>
    </g>
   </g>
   <g id="line2d_7">
    <defs>
     <path id="m1d7ba96514" d="M 0 9.675338 
C 2.56593 9.675338 5.027111 8.655883 6.841497 6.841497 
C 8.655883 5.027111 9.675338 2.56593 9.675338 0 
C 9.675338 -2.56593 8.655883 -5.027111 6.841497 -6.841497 
C 5.027111 -8.655883 2.56593 -9.675338 0 -9.675338 
C -2.56593 -9.675338 -5.027111 -8.655883 -6.841497 -6.841497 
C -8.655883 -5.027111 -9.675338 -2.56593 -9.675338 0 
C -9.675338 2.56593 -8.655883 5.027111 -6.841497 6.841497 
C -5.027111 8.655883 -2.56593 9.675338 0 9.675338 
z
" style="stroke: #000000"/>
    </defs>
    <g clip-path="url(#p70f22eab4e)">
     <use xlink:href="#m1d7ba96514" x="540.114339" y="255.545694" style="stroke: #000000"/>
    </g>
   </g>
   <g id="line2d_8">
    <defs>
     <path id="mcf1c679cc6" d="M 0 9.597303 
C 2.545234 9.597303 4.986565 8.58607 6.786318 6.786318 
C 8.58607 4.986565 9.597303 2.545234 9.597303 0 
C 9.597303 -2.545234 8.58607 -4.986565 6.786318 -6.786318 
C 4.986565 -8.58607 2.545234 -9.597303 0 -9.597303 
C -2.545234 -9.597303 -4.986565 -8.58607 -6.786318 -6.786318 
C -8.58607 -4.986565 -9.597303 -2.545234 -9.597303 0 
C -9.597303 2.545234 -8.58607 4.986565 -6.786318 6.786318 
C -4.986565 8.58607 -2.545234 9.597303 0 9.597303 
z
" style="stroke: #000000"/>
    </defs>
    <g clip-path="url(#p70f22eab4e)">
     <use xlink:href="#mcf1c679cc6" x="115.363636" y="175.310963" style="stroke: #000000"/>
    </g>
   </g>
   <g id="line2d_9">
    <defs>
     <path id="m13bd50a61a" d="M 0 9.589613 
C 2.543195 9.589613 4.98257 8.579191 6.780881 6.780881 
C 8.579191 4.98257 9.589613 2.543195 9.589613 0 
C 9.589613 -2.543195 8.579191 -4.98257 6.780881 -6.780881 
C 4.98257 -8.579191 2.543195 -9.589613 0 -9.589613 
C -2.543195 -9.589613 -4.98257 -8.579191 -6.780881 -6.780881 
C -8.579191 -4.98257 -9.589613 -2.543195 -9.589613 0 
C -9.589613 2.543195 -8.579191 4.98257 -6.780881 6.780881 
C -4.98257 8.579191 -2.543195 9.589613 0 9.589613 
z
" style="stroke: #000000"/>
    </defs>
    <g clip-path="url(#p70f22eab4e)">
     <use xlink:href="#m13bd50a61a" x="539.058547" y="254.139502" style="stroke: #000000"/>
    </g>
   </g>
   <g id="line2d_10">
    <defs>
     <path id="mbd2bc53ef5" d="M 0 9.510402 
C 2.522188 9.510402 4.941413 8.508326 6.72487 6.72487 
C 8.508326 4.941413 9.510402 2.522188 9.510402 0 
C 9.510402 -2.522188 8.508326 -4.941413 6.72487 -6.72487 
C 4.941413 -8.508326 2.522188 -9.510402 0 -9.510402 
C -2.522188 -9.510402 -4.941413 -8.508326 -6.72487 -6.72487 
C -8.508326 -4.941413 -9.510402 -2.522188 -9.510402 0 
C -9.510402 2.522188 -8.508326 4.941413 -6.72487 6.72487 
C -4.941413 8.508326 -2.522188 9.510402 0 9.510402 
z
" style="stroke: #000000"/>
    </defs>
    <g clip-path="url(#p70f22eab4e)">
     <use xlink:href="#mbd2bc53ef5" x="622.636364" y="210.834356" style="stroke: #000000"/>
    </g>
   </g>
  </g>
 </g>
 <defs>
  <clipPath id="p70f22eab4e">
   <path d="M 90 262.920263 
L 90 100.679737 
L 648 100.679737 
L 648 262.920263 
L 90 262.920263 
"/>
  </clipPath>
 </defs>
</svg>
