<?xml version="1.0" encoding="utf-8" standalone="no"?>
<!DOCTYPE svg PUBLIC "-//W3C//DTD SVG 1.1//EN"
  "http://www.w3.org/Graphics/SVG/1.1/DTD/svg11.dtd">
<svg xmlns:xlink="http://www.w3.org/1999/xlink" width="720pt" height="360pt" viewBox="0 0 720 360" xmlns="http://www.w3.org/2000/svg" version="1.1">
 <metadata>
  <rdf:RDF xmlns:dc="http://purl.org/dc/elements/1.1/" xmlns:cc="http://creativecommons.org/ns#" xmlns:rdf="http://www.w3.org/1999/02/22-rdf-syntax-ns#">
   <cc:Work>
    <dc:type rdf:resource="http://purl.org/dc/dcmitype/StillImage"/>
    <dc:date>2023-11-30T21:30:46.818441</dc:date>
    <dc:format>image/svg+xml</dc:format>
    <dc:creator>
     <cc:Agent>
      <dc:title>Matplotlib v3.8.1, https://matplotlib.org/</dc:title>
     </cc:Agent>
    </dc:creator>
   </cc:Work>
  </rdf:RDF>
 </metadata>
 <defs>
  <style type="text/css">*{stroke-linejoin: round; stroke-linecap: butt}</style>
 </defs>
 <g id="figure_1">
  <g id="patch_1">
   <path d="M 0 360 
L 720 360 
L 720 0 
L 0 0 
z
" style="fill: #ffffff"/>
  </g>
  <g id="axes_1">
   <g id="patch_2">
    <path d="M 207.828986 320.4 
L 207.828986 43.2 
L 530.171014 43.2 
L 530.171014 320.4 
L 207.828986 320.4 
" style="fill: #ffffff"/>
   </g>
   <g id="line2d_1">
    <defs>
     <path id="m735269eede" d="M 0 11.446222 
C 3.035574 11.446222 5.947227 10.240176 8.093701 8.093701 
C 10.240176 5.947227 11.446222 3.035574 11.446222 0 
C 11.446222 -3.035574 10.240176 -5.947227 8.093701 -8.093701 
C 5.947227 -10.240176 3.035574 -11.446222 0 -11.446222 
C -3.035574 -11.446222 -5.947227 -10.240176 -8.093701 -8.093701 
C -10.240176 -5.947227 -11.446222 -3.035574 -11.446222 0 
C -11.446222 3.035574 -10.240176 5.947227 -8.093701 8.093701 
C -5.947227 10.240176 -3.035574 11.446222 0 11.446222 
z
" style="stroke: #000000"/>
    </defs>
    <g clip-path="url(#pa487446b46)">
     <use xlink:href="#m735269eede" x="222.480896" y="155.440611" style="stroke: #000000"/>
    </g>
   </g>
   <g id="line2d_2">
    <defs>
     <path id="m7edf03fa46" d="M 0 10.194855 
C 2.703707 10.194855 5.297041 9.120661 7.208851 7.208851 
C 9.120661 5.297041 10.194855 2.703707 10.194855 0 
C 10.194855 -2.703707 9.120661 -5.297041 7.208851 -7.208851 
C 5.297041 -9.120661 2.703707 -10.194855 0 -10.194855 
C -2.703707 -10.194855 -5.297041 -9.120661 -7.208851 -7.208851 
C -9.120661 -5.297041 -10.194855 -2.703707 -10.194855 0 
C -10.194855 2.703707 -9.120661 5.297041 -7.208851 7.208851 
C -5.297041 9.120661 -2.703707 10.194855 0 10.194855 
z
" style="stroke: #000000"/>
    </defs>
    <g clip-path="url(#pa487446b46)">
     <use xlink:href="#m7edf03fa46" x="474.258832" y="307.8" style="stroke: #000000"/>
    </g>
   </g>
   <g id="line2d_3">
    <defs>
     <path id="m537430a3ad" d="M 0 9.869266 
C 2.61736 9.869266 5.127872 8.829377 6.978625 6.978625 
C 8.829377 5.127872 9.869266 2.61736 9.869266 0 
C 9.869266 -2.61736 8.829377 -5.127872 6.978625 -6.978625 
C 5.127872 -8.829377 2.61736 -9.869266 0 -9.869266 
C -2.61736 -9.869266 -5.127872 -8.829377 -6.978625 -6.978625 
C -8.829377 -5.127872 -9.869266 -2.61736 -9.869266 0 
C -9.869266 2.61736 -8.829377 5.127872 -6.978625 6.978625 
C -5.127872 8.829377 -2.61736 9.869266 0 9.869266 
z
" style="stroke: #000000"/>
    </defs>
    <g clip-path="url(#pa487446b46)">
     <use xlink:href="#m537430a3ad" x="393.761689" y="192.776101" style="stroke: #000000"/>
    </g>
   </g>
   <g id="line2d_4">
    <defs>
     <path id="mb373b08061" d="M 0 9.520176 
C 2.52478 9.520176 4.946492 8.51707 6.731781 6.731781 
C 8.51707 4.946492 9.520176 2.52478 9.520176 0 
C 9.520176 -2.52478 8.51707 -4.946492 6.731781 -6.731781 
C 4.946492 -8.51707 2.52478 -9.520176 0 -9.520176 
C -2.52478 -9.520176 -4.946492 -8.51707 -6.731781 -6.731781 
C -8.51707 -4.946492 -9.520176 -2.52478 -9.520176 0 
C -9.520176 2.52478 -8.51707 4.946492 -6.731781 6.731781 
C -4.946492 8.51707 -2.52478 9.520176 0 9.520176 
z
" style="stroke: #000000"/>
    </defs>
    <g clip-path="url(#pa487446b46)">
     <use xlink:href="#mb373b08061" x="426.899378" y="55.8" style="stroke: #000000"/>
    </g>
   </g>
   <g id="line2d_5">
    <defs>
     <path id="mb766c1fd3f" d="M 0 9.444062 
C 2.504595 9.444062 4.906945 8.448976 6.677961 6.677961 
C 8.448976 4.906945 9.444062 2.504595 9.444062 0 
C 9.444062 -2.504595 8.448976 -4.906945 6.677961 -6.677961 
C 4.906945 -8.448976 2.504595 -9.444062 0 -9.444062 
C -2.504595 -9.444062 -4.906945 -8.448976 -6.677961 -6.677961 
C -8.448976 -4.906945 -9.444062 -2.504595 -9.444062 0 
C -9.444062 2.504595 -8.448976 4.906945 -6.677961 6.677961 
C -4.906945 8.448976 -2.504595 9.444062 0 9.444062 
z
" style="stroke: #000000"/>
    </defs>
    <g clip-path="url(#pa487446b46)">
     <use xlink:href="#mb766c1fd3f" x="224.091422" y="156.5958" style="stroke: #000000"/>
    </g>
   </g>
   <g id="line2d_6">
    <defs>
     <path id="m8f1a735d82" d="M 0 9.411178 
C 2.495874 9.411178 4.889859 8.419557 6.654708 6.654708 
C 8.419557 4.889859 9.411178 2.495874 9.411178 0 
C 9.411178 -2.495874 8.419557 -4.889859 6.654708 -6.654708 
C 4.889859 -8.419557 2.495874 -9.411178 0 -9.411178 
C -2.495874 -9.411178 -4.889859 -8.419557 -6.654708 -6.654708 
C -8.419557 -4.889859 -9.411178 -2.495874 -9.411178 0 
C -9.411178 2.495874 -8.419557 4.889859 -6.654708 6.654708 
C -4.889859 8.419557 -2.495874 9.411178 0 9.411178 
z
" style="stroke: #000000"/>
    </defs>
    <g clip-path="url(#pa487446b46)">
     <use xlink:href="#m8f1a735d82" x="369.481689" y="187.819073" style="stroke: #000000"/>
    </g>
   </g>
   <g id="line2d_7">
    <defs>
     <path id="m7f3f222a5b" d="M 0 9.344151 
C 2.478098 9.344151 4.855033 8.359592 6.607312 6.607312 
C 8.359592 4.855033 9.344151 2.478098 9.344151 0 
C 9.344151 -2.478098 8.359592 -4.855033 6.607312 -6.607312 
C 4.855033 -8.359592 2.478098 -9.344151 0 -9.344151 
C -2.478098 -9.344151 -4.855033 -8.359592 -6.607312 -6.607312 
C -8.359592 -4.855033 -9.344151 -2.478098 -9.344151 0 
C -9.344151 2.478098 -8.359592 4.855033 -6.607312 6.607312 
C -4.855033 8.359592 -2.478098 9.344151 0 9.344151 
z
" style="stroke: #000000"/>
    </defs>
    <g clip-path="url(#pa487446b46)">
     <use xlink:href="#m7f3f222a5b" x="458.923855" y="293.584921" style="stroke: #000000"/>
    </g>
   </g>
   <g id="line2d_8">
    <defs>
     <path id="m97c64d012a" d="M 0 9.336573 
C 2.476088 9.336573 4.851096 8.352813 6.601954 6.601954 
C 8.352813 4.851096 9.336573 2.476088 9.336573 0 
C 9.336573 -2.476088 8.352813 -4.851096 6.601954 -6.601954 
C 4.851096 -8.352813 2.476088 -9.336573 0 -9.336573 
C -2.476088 -9.336573 -4.851096 -8.352813 -6.601954 -6.601954 
C -8.352813 -4.851096 -9.336573 -2.476088 -9.336573 0 
C -9.336573 2.476088 -8.352813 4.851096 -6.601954 6.601954 
C -4.851096 8.352813 -2.476088 9.336573 0 9.336573 
z
" style="stroke: #000000"/>
    </defs>
    <g clip-path="url(#pa487446b46)">
     <use xlink:href="#m97c64d012a" x="432.606172" y="287.970073" style="stroke: #000000"/>
    </g>
   </g>
   <g id="line2d_9">
    <defs>
     <path id="mff47d605dd" d="M 0 9.01449 
C 2.390671 9.01449 4.683747 8.064666 6.374207 6.374207 
C 8.064666 4.683747 9.01449 2.390671 9.01449 0 
C 9.01449 -2.390671 8.064666 -4.683747 6.374207 -6.374207 
C 4.683747 -8.064666 2.390671 -9.01449 0 -9.01449 
C -2.390671 -9.01449 -4.683747 -8.064666 -6.374207 -6.374207 
C -8.064666 -4.683747 -9.01449 -2.390671 -9.01449 0 
C -9.01449 2.390671 -8.064666 4.683747 -6.374207 6.374207 
C -4.683747 8.064666 -2.390671 9.01449 0 9.01449 
z
" style="stroke: #000000"/>
    </defs>
    <g clip-path="url(#pa487446b46)">
     <use xlink:href="#mff47d605dd" x="336.02446" y="198.570957" style="stroke: #000000"/>
    </g>
   </g>
   <g id="line2d_10">
    <defs>
     <path id="m7605ee0e68" d="M 0 8.911886 
C 2.36346 8.911886 4.630436 7.972873 6.301655 6.301655 
C 7.972873 4.630436 8.911886 2.36346 8.911886 0 
C 8.911886 -2.36346 7.972873 -4.630436 6.301655 -6.301655 
C 4.630436 -7.972873 2.36346 -8.911886 0 -8.911886 
C -2.36346 -8.911886 -4.630436 -7.972873 -6.301655 -6.301655 
C -7.972873 -4.630436 -8.911886 -2.36346 -8.911886 0 
C -8.911886 2.36346 -7.972873 4.630436 -6.301655 6.301655 
C -4.630436 7.972873 -2.36346 8.911886 0 8.911886 
z
" style="stroke: #000000"/>
    </defs>
    <g clip-path="url(#pa487446b46)">
     <use xlink:href="#m7605ee0e68" x="515.519104" y="56.296471" style="stroke: #000000"/>
    </g>
   </g>
  </g>
 </g>
 <defs>
  <clipPath id="pa487446b46">
   <path d="M 207.828986 320.4 
L 207.828986 43.2 
L 530.171014 43.2 
L 530.171014 320.4 
L 207.828986 320.4 
"/>
  </clipPath>
 </defs>
</svg>
