<?xml version="1.0" encoding="utf-8" standalone="no"?>
<!DOCTYPE svg PUBLIC "-//W3C//DTD SVG 1.1//EN"
  "http://www.w3.org/Graphics/SVG/1.1/DTD/svg11.dtd">
<svg xmlns:xlink="http://www.w3.org/1999/xlink" width="720pt" height="360pt" viewBox="0 0 720 360" xmlns="http://www.w3.org/2000/svg" version="1.1">
 <metadata>
  <rdf:RDF xmlns:dc="http://purl.org/dc/elements/1.1/" xmlns:cc="http://creativecommons.org/ns#" xmlns:rdf="http://www.w3.org/1999/02/22-rdf-syntax-ns#">
   <cc:Work>
    <dc:type rdf:resource="http://purl.org/dc/dcmitype/StillImage"/>
    <dc:date>2023-11-30T21:30:46.862187</dc:date>
    <dc:format>image/svg+xml</dc:format>
    <dc:creator>
     <cc:Agent>
      <dc:title>Matplotlib v3.8.1, https://matplotlib.org/</dc:title>
     </cc:Agent>
    </dc:creator>
   </cc:Work>
  </rdf:RDF>
 </metadata>
 <defs>
  <style type="text/css">*{stroke-linejoin: round; stroke-linecap: butt}</style>
 </defs>
 <g id="figure_1">
  <g id="patch_1">
   <path d="M 0 360 
L 720 360 
L 720 0 
L 0 0 
z
" style="fill: #ffffff"/>
  </g>
  <g id="axes_1">
   <g id="patch_2">
    <path d="M 93.434647 320.4 
L 93.434647 43.2 
L 644.565353 43.2 
L 644.565353 320.4 
L 93.434647 320.4 
" style="fill: #ffffff"/>
   </g>
   <g id="line2d_1">
    <defs>
     <path id="m1d4f9672fc" d="M 0 9.524491 
C 2.525924 9.524491 4.948734 8.52093 6.734832 6.734832 
C 8.52093 4.948734 9.524491 2.525924 9.524491 0 
C 9.524491 -2.525924 8.52093 -4.948734 6.734832 -6.734832 
C 4.948734 -8.52093 2.525924 -9.524491 0 -9.524491 
C -2.525924 -9.524491 -4.948734 -8.52093 -6.734832 -6.734832 
C -8.52093 -4.948734 -9.524491 -2.525924 -9.524491 0 
C -9.524491 2.525924 -8.52093 4.948734 -6.734832 6.734832 
C -4.948734 8.52093 -2.525924 9.524491 0 9.524491 
z
" style="stroke: #000000"/>
    </defs>
    <g clip-path="url(#p6da59e381c)">
     <use xlink:href="#m1d4f9672fc" x="341.960685" y="268.05278" style="stroke: #000000"/>
    </g>
   </g>
   <g id="line2d_2">
    <defs>
     <path id="m0a16e2136e" d="M 0 8.492165 
C 2.252148 8.492165 4.412358 7.597377 6.004867 6.004867 
C 7.597377 4.412358 8.492165 2.252148 8.492165 0 
C 8.492165 -2.252148 7.597377 -4.412358 6.004867 -6.004867 
C 4.412358 -7.597377 2.252148 -8.492165 0 -8.492165 
C -2.252148 -8.492165 -4.412358 -7.597377 -6.004867 -6.004867 
C -7.597377 -4.412358 -8.492165 -2.252148 -8.492165 0 
C -8.492165 2.252148 -7.597377 4.412358 -6.004867 6.004867 
C -4.412358 7.597377 -2.252148 8.492165 0 8.492165 
z
" style="stroke: #000000"/>
    </defs>
    <g clip-path="url(#p6da59e381c)">
     <use xlink:href="#m0a16e2136e" x="330.706874" y="276.473812" style="stroke: #000000"/>
    </g>
   </g>
   <g id="line2d_3">
    <defs>
     <path id="mb93ab96b07" d="M 0 8.017367 
C 2.126231 8.017367 4.165663 7.172607 5.669135 5.669135 
C 7.172607 4.165663 8.017367 2.126231 8.017367 0 
C 8.017367 -2.126231 7.172607 -4.165663 5.669135 -5.669135 
C 4.165663 -7.172607 2.126231 -8.017367 0 -8.017367 
C -2.126231 -8.017367 -4.165663 -7.172607 -5.669135 -5.669135 
C -7.172607 -4.165663 -8.017367 -2.126231 -8.017367 0 
C -8.017367 2.126231 -7.172607 4.165663 -5.669135 5.669135 
C -4.165663 7.172607 -2.126231 8.017367 0 8.017367 
z
" style="stroke: #000000"/>
    </defs>
    <g clip-path="url(#p6da59e381c)">
     <use xlink:href="#mb93ab96b07" x="296.200474" y="307.8" style="stroke: #000000"/>
    </g>
   </g>
   <g id="line2d_4">
    <defs>
     <path id="m989ecffa31" d="M 0 7.957846 
C 2.110446 7.957846 4.134737 7.119357 5.627047 5.627047 
C 7.119357 4.134737 7.957846 2.110446 7.957846 0 
C 7.957846 -2.110446 7.119357 -4.134737 5.627047 -5.627047 
C 4.134737 -7.119357 2.110446 -7.957846 0 -7.957846 
C -2.110446 -7.957846 -4.134737 -7.119357 -5.627047 -5.627047 
C -7.119357 -4.134737 -7.957846 -2.110446 -7.957846 0 
C -7.957846 2.110446 -7.119357 4.134737 -5.627047 5.627047 
C -4.134737 7.119357 -2.110446 7.957846 0 7.957846 
z
" style="stroke: #000000"/>
    </defs>
    <g clip-path="url(#p6da59e381c)">
     <use xlink:href="#m989ecffa31" x="118.486043" y="276.115271" style="stroke: #000000"/>
    </g>
   </g>
   <g id="line2d_5">
    <defs>
     <path id="m9847575386" d="M 0 7.89325 
C 2.093314 7.89325 4.101174 7.061567 5.58137 5.58137 
C 7.061567 4.101174 7.89325 2.093314 7.89325 0 
C 7.89325 -2.093314 7.061567 -4.101174 5.58137 -5.58137 
C 4.101174 -7.061567 2.093314 -7.89325 0 -7.89325 
C -2.093314 -7.89325 -4.101174 -7.061567 -5.58137 -5.58137 
C -7.061567 -4.101174 -7.89325 -2.093314 -7.89325 0 
C -7.89325 2.093314 -7.061567 4.101174 -5.58137 5.58137 
C -4.101174 7.061567 -2.093314 7.89325 0 7.89325 
z
" style="stroke: #000000"/>
    </defs>
    <g clip-path="url(#p6da59e381c)">
     <use xlink:href="#m9847575386" x="393.120103" y="55.8" style="stroke: #000000"/>
    </g>
   </g>
   <g id="line2d_6">
    <defs>
     <path id="m62222d10dc" d="M 0 7.64749 
C 2.028138 7.64749 3.973482 6.841702 5.407592 5.407592 
C 6.841702 3.973482 7.64749 2.028138 7.64749 0 
C 7.64749 -2.028138 6.841702 -3.973482 5.407592 -5.407592 
C 3.973482 -6.841702 2.028138 -7.64749 0 -7.64749 
C -2.028138 -7.64749 -3.973482 -6.841702 -5.407592 -5.407592 
C -6.841702 -3.973482 -7.64749 -2.028138 -7.64749 0 
C -7.64749 2.028138 -6.841702 3.973482 -5.407592 5.407592 
C -3.973482 6.841702 -2.028138 7.64749 0 7.64749 
z
" style="stroke: #000000"/>
    </defs>
    <g clip-path="url(#p6da59e381c)">
     <use xlink:href="#m62222d10dc" x="166.028194" y="110.024468" style="stroke: #000000"/>
    </g>
   </g>
   <g id="line2d_7">
    <defs>
     <path id="m3fcfca6ac3" d="M 0 7.608221 
C 2.017724 7.608221 3.953079 6.806571 5.379825 5.379825 
C 6.806571 3.953079 7.608221 2.017724 7.608221 0 
C 7.608221 -2.017724 6.806571 -3.953079 5.379825 -5.379825 
C 3.953079 -6.806571 2.017724 -7.608221 0 -7.608221 
C -2.017724 -7.608221 -3.953079 -6.806571 -5.379825 -5.379825 
C -6.806571 -3.953079 -7.608221 -2.017724 -7.608221 0 
C -7.608221 2.017724 -6.806571 3.953079 -5.379825 5.379825 
C -3.953079 6.806571 -2.017724 7.608221 0 7.608221 
z
" style="stroke: #000000"/>
    </defs>
    <g clip-path="url(#p6da59e381c)">
     <use xlink:href="#m3fcfca6ac3" x="125.376808" y="221.174359" style="stroke: #000000"/>
    </g>
   </g>
   <g id="line2d_8">
    <defs>
     <path id="m3844622bd3" d="M 0 7.532287 
C 1.997586 7.532287 3.913625 6.738638 5.326131 5.326131 
C 6.738638 3.913625 7.532287 1.997586 7.532287 0 
C 7.532287 -1.997586 6.738638 -3.913625 5.326131 -5.326131 
C 3.913625 -6.738638 1.997586 -7.532287 0 -7.532287 
C -1.997586 -7.532287 -3.913625 -6.738638 -5.326131 -5.326131 
C -6.738638 -3.913625 -7.532287 -1.997586 -7.532287 0 
C -7.532287 1.997586 -6.738638 3.913625 -5.326131 5.326131 
C -3.913625 6.738638 -1.997586 7.532287 0 7.532287 
z
" style="stroke: #000000"/>
    </defs>
    <g clip-path="url(#p6da59e381c)">
     <use xlink:href="#m3844622bd3" x="383.935383" y="158.609436" style="stroke: #000000"/>
    </g>
   </g>
   <g id="line2d_9">
    <defs>
     <path id="mc8b95ce078" d="M 0 7.495141 
C 1.987735 7.495141 3.894324 6.705405 5.299865 5.299865 
C 6.705405 3.894324 7.495141 1.987735 7.495141 0 
C 7.495141 -1.987735 6.705405 -3.894324 5.299865 -5.299865 
C 3.894324 -6.705405 1.987735 -7.495141 0 -7.495141 
C -1.987735 -7.495141 -3.894324 -6.705405 -5.299865 -5.299865 
C -6.705405 -3.894324 -7.495141 -1.987735 -7.495141 0 
C -7.495141 1.987735 -6.705405 3.894324 -5.299865 5.299865 
C -3.894324 6.705405 -1.987735 7.495141 0 7.495141 
z
" style="stroke: #000000"/>
    </defs>
    <g clip-path="url(#p6da59e381c)">
     <use xlink:href="#mc8b95ce078" x="513.496966" y="154.576469" style="stroke: #000000"/>
    </g>
   </g>
   <g id="line2d_10">
    <defs>
     <path id="m1e680ae696" d="M 0 7.412579 
C 1.965839 7.412579 3.851427 6.631543 5.241485 5.241485 
C 6.631543 3.851427 7.412579 1.965839 7.412579 0 
C 7.412579 -1.965839 6.631543 -3.851427 5.241485 -5.241485 
C 3.851427 -6.631543 1.965839 -7.412579 0 -7.412579 
C -1.965839 -7.412579 -3.851427 -6.631543 -5.241485 -5.241485 
C -6.631543 -3.851427 -7.412579 -1.965839 -7.412579 0 
C -7.412579 1.965839 -6.631543 3.851427 -5.241485 5.241485 
C -3.851427 6.631543 -1.965839 7.412579 0 7.412579 
z
" style="stroke: #000000"/>
    </defs>
    <g clip-path="url(#p6da59e381c)">
     <use xlink:href="#m1e680ae696" x="619.513957" y="91.992438" style="stroke: #000000"/>
    </g>
   </g>
  </g>
 </g>
 <defs>
  <clipPath id="p6da59e381c">
   <path d="M 93.434647 320.4 
L 93.434647 43.2 
L 644.565353 43.2 
L 644.565353 320.4 
L 93.434647 320.4 
"/>
  </clipPath>
 </defs>
</svg>
