<?xml version="1.0" encoding="utf-8" standalone="no"?>
<!DOCTYPE svg PUBLIC "-//W3C//DTD SVG 1.1//EN"
  "http://www.w3.org/Graphics/SVG/1.1/DTD/svg11.dtd">
<svg xmlns:xlink="http://www.w3.org/1999/xlink" width="720pt" height="360pt" viewBox="0 0 720 360" xmlns="http://www.w3.org/2000/svg" version="1.1">
 <metadata>
  <rdf:RDF xmlns:dc="http://purl.org/dc/elements/1.1/" xmlns:cc="http://creativecommons.org/ns#" xmlns:rdf="http://www.w3.org/1999/02/22-rdf-syntax-ns#">
   <cc:Work>
    <dc:type rdf:resource="http://purl.org/dc/dcmitype/StillImage"/>
    <dc:date>2023-11-30T21:30:46.908832</dc:date>
    <dc:format>image/svg+xml</dc:format>
    <dc:creator>
     <cc:Agent>
      <dc:title>Matplotlib v3.8.1, https://matplotlib.org/</dc:title>
     </cc:Agent>
    </dc:creator>
   </cc:Work>
  </rdf:RDF>
 </metadata>
 <defs>
  <style type="text/css">*{stroke-linejoin: round; stroke-linecap: butt}</style>
 </defs>
 <g id="figure_1">
  <g id="patch_1">
   <path d="M 0 360 
L 720 360 
L 720 0 
L 0 0 
z
" style="fill: #ffffff"/>
  </g>
  <g id="axes_1">
   <g id="patch_2">
    <path d="M 233.781305 320.4 
L 233.781305 43.2 
L 504.218695 43.2 
L 504.218695 320.4 
L 233.781305 320.4 
" style="fill: #ffffff"/>
   </g>
   <g id="line2d_1">
    <defs>
     <path id="m4e8da6ffc9" d="M 0 10.14645 
C 2.69087 10.14645 5.271891 9.077356 7.174623 7.174623 
C 9.077356 5.271891 10.14645 2.69087 10.14645 0 
C 10.14645 -2.69087 9.077356 -5.271891 7.174623 -7.174623 
C 5.271891 -9.077356 2.69087 -10.14645 0 -10.14645 
C -2.69087 -10.14645 -5.271891 -9.077356 -7.174623 -7.174623 
C -9.077356 -5.271891 -10.14645 -2.69087 -10.14645 0 
C -10.14645 2.69087 -9.077356 5.271891 -7.174623 7.174623 
C -5.271891 9.077356 -2.69087 10.14645 0 10.14645 
z
" style="stroke: #000000"/>
    </defs>
    <g clip-path="url(#p4c6d02c43f)">
     <use xlink:href="#m4e8da6ffc9" x="381.858815" y="287.656627" style="stroke: #000000"/>
    </g>
   </g>
   <g id="line2d_2">
    <defs>
     <path id="mdb9820b953" d="M 0 9.665053 
C 2.563202 9.665053 5.021767 8.646682 6.834224 6.834224 
C 8.646682 5.021767 9.665053 2.563202 9.665053 0 
C 9.665053 -2.563202 8.646682 -5.021767 6.834224 -6.834224 
C 5.021767 -8.646682 2.563202 -9.665053 0 -9.665053 
C -2.563202 -9.665053 -5.021767 -8.646682 -6.834224 -6.834224 
C -8.646682 -5.021767 -9.665053 -2.563202 -9.665053 0 
C -9.665053 2.563202 -8.646682 5.021767 -6.834224 6.834224 
C -5.021767 8.646682 -2.563202 9.665053 0 9.665053 
z
" style="stroke: #000000"/>
    </defs>
    <g clip-path="url(#p4c6d02c43f)">
     <use xlink:href="#mdb9820b953" x="246.301451" y="307.8" style="stroke: #000000"/>
    </g>
   </g>
   <g id="line2d_3">
    <defs>
     <path id="mfd81723434" d="M 0 8.332383 
C 2.209774 8.332383 4.329339 7.454431 5.891885 5.891885 
C 7.454431 4.329339 8.332383 2.209774 8.332383 0 
C 8.332383 -2.209774 7.454431 -4.329339 5.891885 -5.891885 
C 4.329339 -7.454431 2.209774 -8.332383 0 -8.332383 
C -2.209774 -8.332383 -4.329339 -7.454431 -5.891885 -5.891885 
C -7.454431 -4.329339 -8.332383 -2.209774 -8.332383 0 
C -8.332383 2.209774 -7.454431 4.329339 -5.891885 5.891885 
C -4.329339 7.454431 -2.209774 8.332383 0 8.332383 
z
" style="stroke: #000000"/>
    </defs>
    <g clip-path="url(#p4c6d02c43f)">
     <use xlink:href="#mfd81723434" x="278.137607" y="284.979983" style="stroke: #000000"/>
    </g>
   </g>
   <g id="line2d_4">
    <defs>
     <path id="m2d043a7ef6" d="M 0 7.921003 
C 2.100675 7.921003 4.115594 7.086396 5.600995 5.600995 
C 7.086396 4.115594 7.921003 2.100675 7.921003 0 
C 7.921003 -2.100675 7.086396 -4.115594 5.600995 -5.600995 
C 4.115594 -7.086396 2.100675 -7.921003 0 -7.921003 
C -2.100675 -7.921003 -4.115594 -7.086396 -5.600995 -5.600995 
C -7.086396 -4.115594 -7.921003 -2.100675 -7.921003 0 
C -7.921003 2.100675 -7.086396 4.115594 -5.600995 5.600995 
C -4.115594 7.086396 -2.100675 7.921003 0 7.921003 
z
" style="stroke: #000000"/>
    </defs>
    <g clip-path="url(#p4c6d02c43f)">
     <use xlink:href="#m2d043a7ef6" x="302.692578" y="285.240175" style="stroke: #000000"/>
    </g>
   </g>
   <g id="line2d_5">
    <defs>
     <path id="me772c3d543" d="M 0 7.273959 
C 1.929077 7.273959 3.779403 6.507529 5.143466 5.143466 
C 6.507529 3.779403 7.273959 1.929077 7.273959 0 
C 7.273959 -1.929077 6.507529 -3.779403 5.143466 -5.143466 
C 3.779403 -6.507529 1.929077 -7.273959 0 -7.273959 
C -1.929077 -7.273959 -3.779403 -6.507529 -5.143466 -5.143466 
C -6.507529 -3.779403 -7.273959 -1.929077 -7.273959 0 
C -7.273959 1.929077 -6.507529 3.779403 -5.143466 5.143466 
C -3.779403 6.507529 -1.929077 7.273959 0 7.273959 
z
" style="stroke: #000000"/>
    </defs>
    <g clip-path="url(#p4c6d02c43f)">
     <use xlink:href="#me772c3d543" x="406.305171" y="138.495608" style="stroke: #000000"/>
    </g>
   </g>
   <g id="line2d_6">
    <defs>
     <path id="md3b797b0b9" d="M 0 7.272844 
C 1.928781 7.272844 3.778823 6.506531 5.142677 5.142677 
C 6.506531 3.778823 7.272844 1.928781 7.272844 0 
C 7.272844 -1.928781 6.506531 -3.778823 5.142677 -5.142677 
C 3.778823 -6.506531 1.928781 -7.272844 0 -7.272844 
C -1.928781 -7.272844 -3.778823 -6.506531 -5.142677 -5.142677 
C -6.506531 -3.778823 -7.272844 -1.928781 -7.272844 0 
C -7.272844 1.928781 -6.506531 3.778823 -5.142677 5.142677 
C -3.778823 6.506531 -1.928781 7.272844 0 7.272844 
z
" style="stroke: #000000"/>
    </defs>
    <g clip-path="url(#p4c6d02c43f)">
     <use xlink:href="#md3b797b0b9" x="412.322218" y="55.974503" style="stroke: #000000"/>
    </g>
   </g>
   <g id="line2d_7">
    <defs>
     <path id="mfa7e3e7529" d="M 0 7.251074 
C 1.923007 7.251074 3.767512 6.487055 5.127284 5.127284 
C 6.487055 3.767512 7.251074 1.923007 7.251074 0 
C 7.251074 -1.923007 6.487055 -3.767512 5.127284 -5.127284 
C 3.767512 -6.487055 1.923007 -7.251074 0 -7.251074 
C -1.923007 -7.251074 -3.767512 -6.487055 -5.127284 -5.127284 
C -6.487055 -3.767512 -7.251074 -1.923007 -7.251074 0 
C -7.251074 1.923007 -6.487055 3.767512 -5.127284 5.127284 
C -3.767512 6.487055 -1.923007 7.251074 0 7.251074 
z
" style="stroke: #000000"/>
    </defs>
    <g clip-path="url(#p4c6d02c43f)">
     <use xlink:href="#mfa7e3e7529" x="246.073914" y="307.010517" style="stroke: #000000"/>
    </g>
   </g>
   <g id="line2d_8">
    <defs>
     <path id="mb940e5a568" d="M 0 7.237138 
C 1.919311 7.237138 3.760271 6.474588 5.117429 5.117429 
C 6.474588 3.760271 7.237138 1.919311 7.237138 0 
C 7.237138 -1.919311 6.474588 -3.760271 5.117429 -5.117429 
C 3.760271 -6.474588 1.919311 -7.237138 0 -7.237138 
C -1.919311 -7.237138 -3.760271 -6.474588 -5.117429 -5.117429 
C -6.474588 -3.760271 -7.237138 -1.919311 -7.237138 0 
C -7.237138 1.919311 -6.474588 3.760271 -5.117429 5.117429 
C -3.760271 6.474588 -1.919311 7.237138 0 7.237138 
z
" style="stroke: #000000"/>
    </defs>
    <g clip-path="url(#p4c6d02c43f)">
     <use xlink:href="#mb940e5a568" x="313.154525" y="283.213978" style="stroke: #000000"/>
    </g>
   </g>
   <g id="line2d_9">
    <defs>
     <path id="m8c923906be" d="M 0 7.174848 
C 1.902792 7.174848 3.727907 6.418861 5.073384 5.073384 
C 6.418861 3.727907 7.174848 1.902792 7.174848 0 
C 7.174848 -1.902792 6.418861 -3.727907 5.073384 -5.073384 
C 3.727907 -6.418861 1.902792 -7.174848 0 -7.174848 
C -1.902792 -7.174848 -3.727907 -6.418861 -5.073384 -5.073384 
C -6.418861 -3.727907 -7.174848 -1.902792 -7.174848 0 
C -7.174848 1.902792 -6.418861 3.727907 -5.073384 5.073384 
C -3.727907 6.418861 -1.902792 7.174848 0 7.174848 
z
" style="stroke: #000000"/>
    </defs>
    <g clip-path="url(#p4c6d02c43f)">
     <use xlink:href="#m8c923906be" x="404.900309" y="193.415948" style="stroke: #000000"/>
    </g>
   </g>
   <g id="line2d_10">
    <defs>
     <path id="m41d2b1c22a" d="M 0 7.174226 
C 1.902627 7.174226 3.727583 6.418304 5.072944 5.072944 
C 6.418304 3.727583 7.174226 1.902627 7.174226 0 
C 7.174226 -1.902627 6.418304 -3.727583 5.072944 -5.072944 
C 3.727583 -6.418304 1.902627 -7.174226 0 -7.174226 
C -1.902627 -7.174226 -3.727583 -6.418304 -5.072944 -5.072944 
C -6.418304 -3.727583 -7.174226 -1.902627 -7.174226 0 
C -7.174226 1.902627 -6.418304 3.727583 -5.072944 5.072944 
C -3.727583 6.418304 -1.902627 7.174226 0 7.174226 
z
" style="stroke: #000000"/>
    </defs>
    <g clip-path="url(#p4c6d02c43f)">
     <use xlink:href="#m41d2b1c22a" x="491.926086" y="55.8" style="stroke: #000000"/>
    </g>
   </g>
  </g>
 </g>
 <defs>
  <clipPath id="p4c6d02c43f">
   <path d="M 233.781305 320.4 
L 233.781305 43.2 
L 504.218695 43.2 
L 504.218695 320.4 
L 233.781305 320.4 
"/>
  </clipPath>
 </defs>
</svg>
