<?xml version="1.0" encoding="utf-8" standalone="no"?>
<!DOCTYPE svg PUBLIC "-//W3C//DTD SVG 1.1//EN"
  "http://www.w3.org/Graphics/SVG/1.1/DTD/svg11.dtd">
<svg xmlns:xlink="http://www.w3.org/1999/xlink" width="720pt" height="360pt" viewBox="0 0 720 360" xmlns="http://www.w3.org/2000/svg" version="1.1">
 <metadata>
  <rdf:RDF xmlns:dc="http://purl.org/dc/elements/1.1/" xmlns:cc="http://creativecommons.org/ns#" xmlns:rdf="http://www.w3.org/1999/02/22-rdf-syntax-ns#">
   <cc:Work>
    <dc:type rdf:resource="http://purl.org/dc/dcmitype/StillImage"/>
    <dc:date>2023-11-30T21:30:46.128265</dc:date>
    <dc:format>image/svg+xml</dc:format>
    <dc:creator>
     <cc:Agent>
      <dc:title>Matplotlib v3.8.1, https://matplotlib.org/</dc:title>
     </cc:Agent>
    </dc:creator>
   </cc:Work>
  </rdf:RDF>
 </metadata>
 <defs>
  <style type="text/css">*{stroke-linejoin: round; stroke-linecap: butt}</style>
 </defs>
 <g id="figure_1">
  <g id="patch_1">
   <path d="M 0 360 
L 720 360 
L 720 0 
L 0 0 
z
" style="fill: #ffffff"/>
  </g>
  <g id="axes_1">
   <g id="patch_2">
    <path d="M 170.462958 320.4 
L 170.462958 43.2 
L 567.537042 43.2 
L 567.537042 320.4 
L 170.462958 320.4 
" style="fill: #ffffff"/>
   </g>
   <g id="line2d_1">
    <defs>
     <path id="mbad8c324f4" d="M 0 9.191251 
C 2.437548 9.191251 4.775589 8.222803 6.499196 6.499196 
C 8.222803 4.775589 9.191251 2.437548 9.191251 0 
C 9.191251 -2.437548 8.222803 -4.775589 6.499196 -6.499196 
C 4.775589 -8.222803 2.437548 -9.191251 0 -9.191251 
C -2.437548 -9.191251 -4.775589 -8.222803 -6.499196 -6.499196 
C -8.222803 -4.775589 -9.191251 -2.437548 -9.191251 0 
C -9.191251 2.437548 -8.222803 4.775589 -6.499196 6.499196 
C -4.775589 8.222803 -2.437548 9.191251 0 9.191251 
z
" style="stroke: #000000"/>
    </defs>
    <g clip-path="url(#pfcf241d823)">
     <use xlink:href="#mbad8c324f4" x="457.287798" y="87.4038" style="stroke: #000000"/>
    </g>
   </g>
   <g id="line2d_2">
    <defs>
     <path id="m5c570b0e43" d="M 0 8.744603 
C 2.319096 8.744603 4.543519 7.823216 6.183368 6.183368 
C 7.823216 4.543519 8.744603 2.319096 8.744603 0 
C 8.744603 -2.319096 7.823216 -4.543519 6.183368 -6.183368 
C 4.543519 -7.823216 2.319096 -8.744603 0 -8.744603 
C -2.319096 -8.744603 -4.543519 -7.823216 -6.183368 -6.183368 
C -7.823216 -4.543519 -8.744603 -2.319096 -8.744603 0 
C -8.744603 2.319096 -7.823216 4.543519 -6.183368 6.183368 
C -4.543519 7.823216 -2.319096 8.744603 0 8.744603 
z
" style="stroke: #000000"/>
    </defs>
    <g clip-path="url(#pfcf241d823)">
     <use xlink:href="#m5c570b0e43" x="188.51178" y="276.920003" style="stroke: #000000"/>
    </g>
   </g>
   <g id="line2d_3">
    <defs>
     <path id="m4abb868a04" d="M 0 8.663816 
C 2.297671 8.663816 4.501544 7.750942 6.126243 6.126243 
C 7.750942 4.501544 8.663816 2.297671 8.663816 0 
C 8.663816 -2.297671 7.750942 -4.501544 6.126243 -6.126243 
C 4.501544 -7.750942 2.297671 -8.663816 0 -8.663816 
C -2.297671 -8.663816 -4.501544 -7.750942 -6.126243 -6.126243 
C -7.750942 -4.501544 -8.663816 -2.297671 -8.663816 0 
C -8.663816 2.297671 -7.750942 4.501544 -6.126243 6.126243 
C -4.501544 7.750942 -2.297671 8.663816 0 8.663816 
z
" style="stroke: #000000"/>
    </defs>
    <g clip-path="url(#pfcf241d823)">
     <use xlink:href="#m4abb868a04" x="348.099881" y="55.8" style="stroke: #000000"/>
    </g>
   </g>
   <g id="line2d_4">
    <defs>
     <path id="mf644a4c16e" d="M 0 8.542944 
C 2.265615 8.542944 4.438742 7.642805 6.040773 6.040773 
C 7.642805 4.438742 8.542944 2.265615 8.542944 0 
C 8.542944 -2.265615 7.642805 -4.438742 6.040773 -6.040773 
C 4.438742 -7.642805 2.265615 -8.542944 0 -8.542944 
C -2.265615 -8.542944 -4.438742 -7.642805 -6.040773 -6.040773 
C -7.642805 -4.438742 -8.542944 -2.265615 -8.542944 0 
C -8.542944 2.265615 -7.642805 4.438742 -6.040773 6.040773 
C -4.438742 7.642805 -2.265615 8.542944 0 8.542944 
z
" style="stroke: #000000"/>
    </defs>
    <g clip-path="url(#pfcf241d823)">
     <use xlink:href="#mf644a4c16e" x="242.967679" y="226.255891" style="stroke: #000000"/>
    </g>
   </g>
   <g id="line2d_5">
    <defs>
     <path id="m9422ab60a9" d="M 0 8.446082 
C 2.239927 8.446082 4.388414 7.556149 5.972282 5.972282 
C 7.556149 4.388414 8.446082 2.239927 8.446082 0 
C 8.446082 -2.239927 7.556149 -4.388414 5.972282 -5.972282 
C 4.388414 -7.556149 2.239927 -8.446082 0 -8.446082 
C -2.239927 -8.446082 -4.388414 -7.556149 -5.972282 -5.972282 
C -7.556149 -4.388414 -8.446082 -2.239927 -8.446082 0 
C -8.446082 2.239927 -7.556149 4.388414 -5.972282 5.972282 
C -4.388414 7.556149 -2.239927 8.446082 0 8.446082 
z
" style="stroke: #000000"/>
    </defs>
    <g clip-path="url(#pfcf241d823)">
     <use xlink:href="#m9422ab60a9" x="334.03344" y="156.004721" style="stroke: #000000"/>
    </g>
   </g>
   <g id="line2d_6">
    <defs>
     <path id="m12f61c7402" d="M 0 8.243959 
C 2.186324 8.243959 4.283395 7.375324 5.829359 5.829359 
C 7.375324 4.283395 8.243959 2.186324 8.243959 0 
C 8.243959 -2.186324 7.375324 -4.283395 5.829359 -5.829359 
C 4.283395 -7.375324 2.186324 -8.243959 0 -8.243959 
C -2.186324 -8.243959 -4.283395 -7.375324 -5.829359 -5.829359 
C -7.375324 -4.283395 -8.243959 -2.186324 -8.243959 0 
C -8.243959 2.186324 -7.375324 4.283395 -5.829359 5.829359 
C -4.283395 7.375324 -2.186324 8.243959 0 8.243959 
z
" style="stroke: #000000"/>
    </defs>
    <g clip-path="url(#pfcf241d823)">
     <use xlink:href="#m12f61c7402" x="476.753661" y="64.507068" style="stroke: #000000"/>
    </g>
   </g>
   <g id="line2d_7">
    <defs>
     <path id="med6e9220d1" d="M 0 8.158954 
C 2.16378 8.158954 4.239228 7.299275 5.769251 5.769251 
C 7.299275 4.239228 8.158954 2.16378 8.158954 0 
C 8.158954 -2.16378 7.299275 -4.239228 5.769251 -5.769251 
C 4.239228 -7.299275 2.16378 -8.158954 0 -8.158954 
C -2.16378 -8.158954 -4.239228 -7.299275 -5.769251 -5.769251 
C -7.299275 -4.239228 -8.158954 -2.16378 -8.158954 0 
C -8.158954 2.16378 -7.299275 4.239228 -5.769251 5.769251 
C -4.239228 7.299275 -2.16378 8.158954 0 8.158954 
z
" style="stroke: #000000"/>
    </defs>
    <g clip-path="url(#pfcf241d823)">
     <use xlink:href="#med6e9220d1" x="430.050347" y="139.274204" style="stroke: #000000"/>
    </g>
   </g>
   <g id="line2d_8">
    <defs>
     <path id="m612d5d5faf" d="M 0 8.053414 
C 2.13579 8.053414 4.184392 7.204856 5.694624 5.694624 
C 7.204856 4.184392 8.053414 2.13579 8.053414 0 
C 8.053414 -2.13579 7.204856 -4.184392 5.694624 -5.694624 
C 4.184392 -7.204856 2.13579 -8.053414 0 -8.053414 
C -2.13579 -8.053414 -4.184392 -7.204856 -5.694624 -5.694624 
C -7.204856 -4.184392 -8.053414 -2.13579 -8.053414 0 
C -8.053414 2.13579 -7.204856 4.184392 -5.694624 5.694624 
C -4.184392 7.204856 -2.13579 8.053414 0 8.053414 
z
" style="stroke: #000000"/>
    </defs>
    <g clip-path="url(#pfcf241d823)">
     <use xlink:href="#m612d5d5faf" x="549.48822" y="77.980291" style="stroke: #000000"/>
    </g>
   </g>
   <g id="line2d_9">
    <defs>
     <path id="m41a8f2492f" d="M 0 7.971544 
C 2.114078 7.971544 4.141854 7.131611 5.636733 5.636733 
C 7.131611 4.141854 7.971544 2.114078 7.971544 0 
C 7.971544 -2.114078 7.131611 -4.141854 5.636733 -5.636733 
C 4.141854 -7.131611 2.114078 -7.971544 0 -7.971544 
C -2.114078 -7.971544 -4.141854 -7.131611 -5.636733 -5.636733 
C -7.131611 -4.141854 -7.971544 -2.114078 -7.971544 0 
C -7.971544 2.114078 -7.131611 4.141854 -5.636733 5.636733 
C -4.141854 7.131611 -2.114078 7.971544 0 7.971544 
z
" style="stroke: #000000"/>
    </defs>
    <g clip-path="url(#pfcf241d823)">
     <use xlink:href="#m41a8f2492f" x="503.125863" y="307.8" style="stroke: #000000"/>
    </g>
   </g>
   <g id="line2d_10">
    <defs>
     <path id="mc40da954d0" d="M 0 7.863814 
C 2.085508 7.863814 4.085879 7.035233 5.560556 5.560556 
C 7.035233 4.085879 7.863814 2.085508 7.863814 0 
C 7.863814 -2.085508 7.035233 -4.085879 5.560556 -5.560556 
C 4.085879 -7.035233 2.085508 -7.863814 0 -7.863814 
C -2.085508 -7.863814 -4.085879 -7.035233 -5.560556 -5.560556 
C -7.035233 -4.085879 -7.863814 -2.085508 -7.863814 0 
C -7.863814 2.085508 -7.035233 4.085879 -5.560556 5.560556 
C -4.085879 7.035233 -2.085508 7.863814 0 7.863814 
z
" style="stroke: #000000"/>
    </defs>
    <g clip-path="url(#pfcf241d823)">
     <use xlink:href="#mc40da954d0" x="454.119691" y="78.087359" style="stroke: #000000"/>
    </g>
   </g>
  </g>
 </g>
 <defs>
  <clipPath id="pfcf241d823">
   <path d="M 170.462958 320.4 
L 170.462958 43.2 
L 567.537042 43.2 
L 567.537042 320.4 
L 170.462958 320.4 
"/>
  </clipPath>
 </defs>
</svg>
