<?xml version="1.0" encoding="utf-8" standalone="no"?>
<!DOCTYPE svg PUBLIC "-//W3C//DTD SVG 1.1//EN"
  "http://www.w3.org/Graphics/SVG/1.1/DTD/svg11.dtd">
<svg xmlns:xlink="http://www.w3.org/1999/xlink" width="720pt" height="360pt" viewBox="0 0 720 360" xmlns="http://www.w3.org/2000/svg" version="1.1">
 <metadata>
  <rdf:RDF xmlns:dc="http://purl.org/dc/elements/1.1/" xmlns:cc="http://creativecommons.org/ns#" xmlns:rdf="http://www.w3.org/1999/02/22-rdf-syntax-ns#">
   <cc:Work>
    <dc:type rdf:resource="http://purl.org/dc/dcmitype/StillImage"/>
    <dc:date>2023-11-30T21:30:46.167986</dc:date>
    <dc:format>image/svg+xml</dc:format>
    <dc:creator>
     <cc:Agent>
      <dc:title>Matplotlib v3.8.1, https://matplotlib.org/</dc:title>
     </cc:Agent>
    </dc:creator>
   </cc:Work>
  </rdf:RDF>
 </metadata>
 <defs>
  <style type="text/css">*{stroke-linejoin: round; stroke-linecap: butt}</style>
 </defs>
 <g id="figure_1">
  <g id="patch_1">
   <path d="M 0 360 
L 720 360 
L 720 0 
L 0 0 
z
" style="fill: #ffffff"/>
  </g>
  <g id="axes_1">
   <g id="patch_2">
    <path d="M 264.369144 320.4 
L 264.369144 43.2 
L 473.630856 43.2 
L 473.630856 320.4 
L 264.369144 320.4 
" style="fill: #ffffff"/>
   </g>
   <g id="line2d_1">
    <defs>
     <path id="mdcfa38d06d" d="M 0 11.295863 
C 2.995698 11.295863 5.869103 10.105659 7.987381 7.987381 
C 10.105659 5.869103 11.295863 2.995698 11.295863 0 
C 11.295863 -2.995698 10.105659 -5.869103 7.987381 -7.987381 
C 5.869103 -10.105659 2.995698 -11.295863 0 -11.295863 
C -2.995698 -11.295863 -5.869103 -10.105659 -7.987381 -7.987381 
C -10.105659 -5.869103 -11.295863 -2.995698 -11.295863 0 
C -11.295863 2.995698 -10.105659 5.869103 -7.987381 7.987381 
C -5.869103 10.105659 -2.995698 11.295863 0 11.295863 
z
" style="stroke: #000000"/>
    </defs>
    <g clip-path="url(#p98e9afd750)">
     <use xlink:href="#mdcfa38d06d" x="463.689346" y="275.511881" style="stroke: #000000"/>
    </g>
   </g>
   <g id="line2d_2">
    <defs>
     <path id="mee97e1090a" d="M 0 10.176946 
C 2.698958 10.176946 5.287736 9.104639 7.196188 7.196188 
C 9.104639 5.287736 10.176946 2.698958 10.176946 0 
C 10.176946 -2.698958 9.104639 -5.287736 7.196188 -7.196188 
C 5.287736 -9.104639 2.698958 -10.176946 0 -10.176946 
C -2.698958 -10.176946 -5.287736 -9.104639 -7.196188 -7.196188 
C -9.104639 -5.287736 -10.176946 -2.698958 -10.176946 0 
C -10.176946 2.698958 -9.104639 5.287736 -7.196188 7.196188 
C -5.287736 9.104639 -2.698958 10.176946 0 10.176946 
z
" style="stroke: #000000"/>
    </defs>
    <g clip-path="url(#p98e9afd750)">
     <use xlink:href="#mee97e1090a" x="462.928971" y="272.222856" style="stroke: #000000"/>
    </g>
   </g>
   <g id="line2d_3">
    <defs>
     <path id="m74e0ac9a5f" d="M 0 9.833434 
C 2.607857 9.833434 5.109255 8.797322 6.953288 6.953288 
C 8.797322 5.109255 9.833434 2.607857 9.833434 0 
C 9.833434 -2.607857 8.797322 -5.109255 6.953288 -6.953288 
C 5.109255 -8.797322 2.607857 -9.833434 0 -9.833434 
C -2.607857 -9.833434 -5.109255 -8.797322 -6.953288 -6.953288 
C -8.797322 -5.109255 -9.833434 -2.607857 -9.833434 0 
C -9.833434 2.607857 -8.797322 5.109255 -6.953288 6.953288 
C -5.109255 8.797322 -2.607857 9.833434 0 9.833434 
z
" style="stroke: #000000"/>
    </defs>
    <g clip-path="url(#p98e9afd750)">
     <use xlink:href="#m74e0ac9a5f" x="408.724362" y="150.514061" style="stroke: #000000"/>
    </g>
   </g>
   <g id="line2d_4">
    <defs>
     <path id="m760ed36983" d="M 0 9.37509 
C 2.486303 9.37509 4.871108 8.387272 6.62919 6.62919 
C 8.387272 4.871108 9.37509 2.486303 9.37509 0 
C 9.37509 -2.486303 8.387272 -4.871108 6.62919 -6.62919 
C 4.871108 -8.387272 2.486303 -9.37509 0 -9.37509 
C -2.486303 -9.37509 -4.871108 -8.387272 -6.62919 -6.62919 
C -8.387272 -4.871108 -9.37509 -2.486303 -9.37509 0 
C -9.37509 2.486303 -8.387272 4.871108 -6.62919 6.62919 
C -4.871108 8.387272 -2.486303 9.37509 0 9.37509 
z
" style="stroke: #000000"/>
    </defs>
    <g clip-path="url(#p98e9afd750)">
     <use xlink:href="#m760ed36983" x="376.700997" y="55.8" style="stroke: #000000"/>
    </g>
   </g>
   <g id="line2d_5">
    <defs>
     <path id="mba81c8c7aa" d="M 0 9.343223 
C 2.477852 9.343223 4.854551 8.358762 6.606656 6.606656 
C 8.358762 4.854551 9.343223 2.477852 9.343223 0 
C 9.343223 -2.477852 8.358762 -4.854551 6.606656 -6.606656 
C 4.854551 -8.358762 2.477852 -9.343223 0 -9.343223 
C -2.477852 -9.343223 -4.854551 -8.358762 -6.606656 -6.606656 
C -8.358762 -4.854551 -9.343223 -2.477852 -9.343223 0 
C -9.343223 2.477852 -8.358762 4.854551 -6.606656 6.606656 
C -4.854551 8.358762 -2.477852 9.343223 0 9.343223 
z
" style="stroke: #000000"/>
    </defs>
    <g clip-path="url(#p98e9afd750)">
     <use xlink:href="#mba81c8c7aa" x="332.852017" y="194.209183" style="stroke: #000000"/>
    </g>
   </g>
   <g id="line2d_6">
    <defs>
     <path id="m73609e869b" d="M 0 9.287768 
C 2.463145 9.287768 4.825737 8.30915 6.567444 6.567444 
C 8.30915 4.825737 9.287768 2.463145 9.287768 0 
C 9.287768 -2.463145 8.30915 -4.825737 6.567444 -6.567444 
C 4.825737 -8.30915 2.463145 -9.287768 0 -9.287768 
C -2.463145 -9.287768 -4.825737 -8.30915 -6.567444 -6.567444 
C -8.30915 -4.825737 -9.287768 -2.463145 -9.287768 0 
C -9.287768 2.463145 -8.30915 4.825737 -6.567444 6.567444 
C -4.825737 8.30915 -2.463145 9.287768 0 9.287768 
z
" style="stroke: #000000"/>
    </defs>
    <g clip-path="url(#p98e9afd750)">
     <use xlink:href="#m73609e869b" x="322.908903" y="307.8" style="stroke: #000000"/>
    </g>
   </g>
   <g id="line2d_7">
    <defs>
     <path id="m9cf842f8bc" d="M 0 9.03988 
C 2.397404 9.03988 4.69694 8.087382 6.392161 6.392161 
C 8.087382 4.69694 9.03988 2.397404 9.03988 0 
C 9.03988 -2.397404 8.087382 -4.69694 6.392161 -6.392161 
C 4.69694 -8.087382 2.397404 -9.03988 0 -9.03988 
C -2.397404 -9.03988 -4.69694 -8.087382 -6.392161 -6.392161 
C -8.087382 -4.69694 -9.03988 -2.397404 -9.03988 0 
C -9.03988 2.397404 -8.087382 4.69694 -6.392161 6.392161 
C -4.69694 8.087382 -2.397404 9.03988 0 9.03988 
z
" style="stroke: #000000"/>
    </defs>
    <g clip-path="url(#p98e9afd750)">
     <use xlink:href="#m9cf842f8bc" x="359.549019" y="234.033822" style="stroke: #000000"/>
    </g>
   </g>
   <g id="line2d_8">
    <defs>
     <path id="m43c9662a4a" d="M 0 8.951879 
C 2.374066 8.951879 4.651216 8.008653 6.329934 6.329934 
C 8.008653 4.651216 8.951879 2.374066 8.951879 0 
C 8.951879 -2.374066 8.008653 -4.651216 6.329934 -6.329934 
C 4.651216 -8.008653 2.374066 -8.951879 0 -8.951879 
C -2.374066 -8.951879 -4.651216 -8.008653 -6.329934 -6.329934 
C -8.008653 -4.651216 -8.951879 -2.374066 -8.951879 0 
C -8.951879 2.374066 -8.008653 4.651216 -6.329934 6.329934 
C -4.651216 8.008653 -2.374066 8.951879 0 8.951879 
z
" style="stroke: #000000"/>
    </defs>
    <g clip-path="url(#p98e9afd750)">
     <use xlink:href="#m43c9662a4a" x="361.641519" y="207.910071" style="stroke: #000000"/>
    </g>
   </g>
   <g id="line2d_9">
    <defs>
     <path id="m9283eafed7" d="M 0 8.942234 
C 2.371508 8.942234 4.646205 8.000024 6.323115 6.323115 
C 8.000024 4.646205 8.942234 2.371508 8.942234 0 
C 8.942234 -2.371508 8.000024 -4.646205 6.323115 -6.323115 
C 4.646205 -8.000024 2.371508 -8.942234 0 -8.942234 
C -2.371508 -8.942234 -4.646205 -8.000024 -6.323115 -6.323115 
C -8.000024 -4.646205 -8.942234 -2.371508 -8.942234 0 
C -8.942234 2.371508 -8.000024 4.646205 -6.323115 6.323115 
C -4.646205 8.000024 -2.371508 8.942234 0 8.942234 
z
" style="stroke: #000000"/>
    </defs>
    <g clip-path="url(#p98e9afd750)">
     <use xlink:href="#m9283eafed7" x="273.88104" y="165.579177" style="stroke: #000000"/>
    </g>
   </g>
   <g id="line2d_10">
    <defs>
     <path id="m7e8a6aaec8" d="M 0 8.853835 
C 2.348064 8.853835 4.600274 7.920939 6.260606 6.260606 
C 7.920939 4.600274 8.853835 2.348064 8.853835 0 
C 8.853835 -2.348064 7.920939 -4.600274 6.260606 -6.260606 
C 4.600274 -7.920939 2.348064 -8.853835 0 -8.853835 
C -2.348064 -8.853835 -4.600274 -7.920939 -6.260606 -6.260606 
C -7.920939 -4.600274 -8.853835 -2.348064 -8.853835 0 
C -8.853835 2.348064 -7.920939 4.600274 -6.260606 6.260606 
C -4.600274 7.920939 -2.348064 8.853835 0 8.853835 
z
" style="stroke: #000000"/>
    </defs>
    <g clip-path="url(#p98e9afd750)">
     <use xlink:href="#m7e8a6aaec8" x="464.11896" y="277.775455" style="stroke: #000000"/>
    </g>
   </g>
  </g>
 </g>
 <defs>
  <clipPath id="p98e9afd750">
   <path d="M 264.369144 320.4 
L 264.369144 43.2 
L 473.630856 43.2 
L 473.630856 320.4 
L 264.369144 320.4 
"/>
  </clipPath>
 </defs>
</svg>
