<?xml version="1.0" encoding="utf-8" standalone="no"?>
<!DOCTYPE svg PUBLIC "-//W3C//DTD SVG 1.1//EN"
  "http://www.w3.org/Graphics/SVG/1.1/DTD/svg11.dtd">
<svg xmlns:xlink="http://www.w3.org/1999/xlink" width="720pt" height="360pt" viewBox="0 0 720 360" xmlns="http://www.w3.org/2000/svg" version="1.1">
 <metadata>
  <rdf:RDF xmlns:dc="http://purl.org/dc/elements/1.1/" xmlns:cc="http://creativecommons.org/ns#" xmlns:rdf="http://www.w3.org/1999/02/22-rdf-syntax-ns#">
   <cc:Work>
    <dc:type rdf:resource="http://purl.org/dc/dcmitype/StillImage"/>
    <dc:date>2023-11-30T21:30:46.213527</dc:date>
    <dc:format>image/svg+xml</dc:format>
    <dc:creator>
     <cc:Agent>
      <dc:title>Matplotlib v3.8.1, https://matplotlib.org/</dc:title>
     </cc:Agent>
    </dc:creator>
   </cc:Work>
  </rdf:RDF>
 </metadata>
 <defs>
  <style type="text/css">*{stroke-linejoin: round; stroke-linecap: butt}</style>
 </defs>
 <g id="figure_1">
  <g id="patch_1">
   <path d="M 0 360 
L 720 360 
L 720 0 
L 0 0 
z
" style="fill: #ffffff"/>
  </g>
  <g id="axes_1">
   <g id="patch_2">
    <path d="M 351.204686 320.4 
L 351.204686 43.2 
L 386.795314 43.2 
L 386.795314 320.4 
L 351.204686 320.4 
" style="fill: #ffffff"/>
   </g>
   <g id="line2d_1">
    <defs>
     <path id="m1f552aba9c" d="M 0 11.102885 
C 2.944519 11.102885 5.768835 9.933015 7.850925 7.850925 
C 9.933015 5.768835 11.102885 2.944519 11.102885 0 
C 11.102885 -2.944519 9.933015 -5.768835 7.850925 -7.850925 
C 5.768835 -9.933015 2.944519 -11.102885 0 -11.102885 
C -2.944519 -11.102885 -5.768835 -9.933015 -7.850925 -7.850925 
C -9.933015 -5.768835 -11.102885 -2.944519 -11.102885 0 
C -11.102885 2.944519 -9.933015 5.768835 -7.850925 7.850925 
C -5.768835 9.933015 -2.944519 11.102885 0 11.102885 
z
" style="stroke: #000000"/>
    </defs>
    <g clip-path="url(#pfc23f0bf73)">
     <use xlink:href="#m1f552aba9c" x="382.171194" y="188.081948" style="stroke: #000000"/>
    </g>
   </g>
   <g id="line2d_2">
    <defs>
     <path id="m5cc9fc21d9" d="M 0 9.557902 
C 2.534785 9.557902 4.966093 8.550821 6.758457 6.758457 
C 8.550821 4.966093 9.557902 2.534785 9.557902 0 
C 9.557902 -2.534785 8.550821 -4.966093 6.758457 -6.758457 
C 4.966093 -8.550821 2.534785 -9.557902 0 -9.557902 
C -2.534785 -9.557902 -4.966093 -8.550821 -6.758457 -6.758457 
C -8.550821 -4.966093 -9.557902 -2.534785 -9.557902 0 
C -9.557902 2.534785 -8.550821 4.966093 -6.758457 6.758457 
C -4.966093 8.550821 -2.534785 9.557902 0 9.557902 
z
" style="stroke: #000000"/>
    </defs>
    <g clip-path="url(#pfc23f0bf73)">
     <use xlink:href="#m5cc9fc21d9" x="383.033145" y="190.278855" style="stroke: #000000"/>
    </g>
   </g>
   <g id="line2d_3">
    <defs>
     <path id="m14d94e3faa" d="M 0 9.213916 
C 2.443559 9.213916 4.787365 8.24308 6.515223 6.515223 
C 8.24308 4.787365 9.213916 2.443559 9.213916 0 
C 9.213916 -2.443559 8.24308 -4.787365 6.515223 -6.515223 
C 4.787365 -8.24308 2.443559 -9.213916 0 -9.213916 
C -2.443559 -9.213916 -4.787365 -8.24308 -6.515223 -6.515223 
C -8.24308 -4.787365 -9.213916 -2.443559 -9.213916 0 
C -9.213916 2.443559 -8.24308 4.787365 -6.515223 6.515223 
C -4.787365 8.24308 -2.443559 9.213916 0 9.213916 
z
" style="stroke: #000000"/>
    </defs>
    <g clip-path="url(#pfc23f0bf73)">
     <use xlink:href="#m14d94e3faa" x="385.177558" y="55.8" style="stroke: #000000"/>
    </g>
   </g>
   <g id="line2d_4">
    <defs>
     <path id="m2d3eb2b9a4" d="M 0 9.084081 
C 2.409127 9.084081 4.719906 8.126925 6.423416 6.423416 
C 8.126925 4.719906 9.084081 2.409127 9.084081 0 
C 9.084081 -2.409127 8.126925 -4.719906 6.423416 -6.423416 
C 4.719906 -8.126925 2.409127 -9.084081 0 -9.084081 
C -2.409127 -9.084081 -4.719906 -8.126925 -6.423416 -6.423416 
C -8.126925 -4.719906 -9.084081 -2.409127 -9.084081 0 
C -9.084081 2.409127 -8.126925 4.719906 -6.423416 6.423416 
C -4.719906 8.126925 -2.409127 9.084081 0 9.084081 
z
" style="stroke: #000000"/>
    </defs>
    <g clip-path="url(#pfc23f0bf73)">
     <use xlink:href="#m2d3eb2b9a4" x="371.428797" y="181.96467" style="stroke: #000000"/>
    </g>
   </g>
   <g id="line2d_5">
    <defs>
     <path id="mc6e82362a4" d="M 0 9.053815 
C 2.4011 9.053815 4.70418 8.099848 6.402014 6.402014 
C 8.099848 4.70418 9.053815 2.4011 9.053815 0 
C 9.053815 -2.4011 8.099848 -4.70418 6.402014 -6.402014 
C 4.70418 -8.099848 2.4011 -9.053815 0 -9.053815 
C -2.4011 -9.053815 -4.70418 -8.099848 -6.402014 -6.402014 
C -8.099848 -4.70418 -9.053815 -2.4011 -9.053815 0 
C -9.053815 2.4011 -8.099848 4.70418 -6.402014 6.402014 
C -4.70418 8.099848 -2.4011 9.053815 0 9.053815 
z
" style="stroke: #000000"/>
    </defs>
    <g clip-path="url(#pfc23f0bf73)">
     <use xlink:href="#mc6e82362a4" x="370.503836" y="182.125993" style="stroke: #000000"/>
    </g>
   </g>
   <g id="line2d_6">
    <defs>
     <path id="m1b690e366d" d="M 0 8.974301 
C 2.380012 8.974301 4.662866 8.028712 6.345789 6.345789 
C 8.028712 4.662866 8.974301 2.380012 8.974301 0 
C 8.974301 -2.380012 8.028712 -4.662866 6.345789 -6.345789 
C 4.662866 -8.028712 2.380012 -8.974301 0 -8.974301 
C -2.380012 -8.974301 -4.662866 -8.028712 -6.345789 -6.345789 
C -8.028712 -4.662866 -8.974301 -2.380012 -8.974301 0 
C -8.974301 2.380012 -8.028712 4.662866 -6.345789 6.345789 
C -4.662866 8.028712 -2.380012 8.974301 0 8.974301 
z
" style="stroke: #000000"/>
    </defs>
    <g clip-path="url(#pfc23f0bf73)">
     <use xlink:href="#m1b690e366d" x="352.822442" y="235.365251" style="stroke: #000000"/>
    </g>
   </g>
   <g id="line2d_7">
    <defs>
     <path id="m3dfb3fc58a" d="M 0 8.965377 
C 2.377646 8.965377 4.65823 8.020729 6.339479 6.339479 
C 8.020729 4.65823 8.965377 2.377646 8.965377 0 
C 8.965377 -2.377646 8.020729 -4.65823 6.339479 -6.339479 
C 4.65823 -8.020729 2.377646 -8.965377 0 -8.965377 
C -2.377646 -8.965377 -4.65823 -8.020729 -6.339479 -6.339479 
C -8.020729 -4.65823 -8.965377 -2.377646 -8.965377 0 
C -8.965377 2.377646 -8.020729 4.65823 -6.339479 6.339479 
C -4.65823 8.020729 -2.377646 8.965377 0 8.965377 
z
" style="stroke: #000000"/>
    </defs>
    <g clip-path="url(#pfc23f0bf73)">
     <use xlink:href="#m3dfb3fc58a" x="381.560934" y="190.001521" style="stroke: #000000"/>
    </g>
   </g>
   <g id="line2d_8">
    <defs>
     <path id="m5d7e783230" d="M 0 8.953865 
C 2.374593 8.953865 4.652248 8.010429 6.331339 6.331339 
C 8.010429 4.652248 8.953865 2.374593 8.953865 0 
C 8.953865 -2.374593 8.010429 -4.652248 6.331339 -6.331339 
C 4.652248 -8.010429 2.374593 -8.953865 0 -8.953865 
C -2.374593 -8.953865 -4.652248 -8.010429 -6.331339 -6.331339 
C -8.010429 -4.652248 -8.953865 -2.374593 -8.953865 0 
C -8.953865 2.374593 -8.010429 4.652248 -6.331339 6.331339 
C -4.652248 8.010429 -2.374593 8.953865 0 8.953865 
z
" style="stroke: #000000"/>
    </defs>
    <g clip-path="url(#pfc23f0bf73)">
     <use xlink:href="#m5d7e783230" x="354.89671" y="307.8" style="stroke: #000000"/>
    </g>
   </g>
   <g id="line2d_9">
    <defs>
     <path id="m95e5e7fb96" d="M 0 8.930695 
C 2.368448 8.930695 4.640209 7.989701 6.314955 6.314955 
C 7.989701 4.640209 8.930695 2.368448 8.930695 0 
C 8.930695 -2.368448 7.989701 -4.640209 6.314955 -6.314955 
C 4.640209 -7.989701 2.368448 -8.930695 0 -8.930695 
C -2.368448 -8.930695 -4.640209 -7.989701 -6.314955 -6.314955 
C -7.989701 -4.640209 -8.930695 -2.368448 -8.930695 0 
C -8.930695 2.368448 -7.989701 4.640209 -6.314955 6.314955 
C -4.640209 7.989701 -2.368448 8.930695 0 8.930695 
z
" style="stroke: #000000"/>
    </defs>
    <g clip-path="url(#pfc23f0bf73)">
     <use xlink:href="#m95e5e7fb96" x="358.985921" y="265.527895" style="stroke: #000000"/>
    </g>
   </g>
   <g id="line2d_10">
    <defs>
     <path id="mce280bdb58" d="M 0 8.8852 
C 2.356382 8.8852 4.616571 7.948999 6.282785 6.282785 
C 7.948999 4.616571 8.8852 2.356382 8.8852 0 
C 8.8852 -2.356382 7.948999 -4.616571 6.282785 -6.282785 
C 4.616571 -7.948999 2.356382 -8.8852 0 -8.8852 
C -2.356382 -8.8852 -4.616571 -7.948999 -6.282785 -6.282785 
C -7.948999 -4.616571 -8.8852 -2.356382 -8.8852 0 
C -8.8852 2.356382 -7.948999 4.616571 -6.282785 6.282785 
C -4.616571 7.948999 -2.356382 8.8852 0 8.8852 
z
" style="stroke: #000000"/>
    </defs>
    <g clip-path="url(#pfc23f0bf73)">
     <use xlink:href="#mce280bdb58" x="353.619835" y="236.873456" style="stroke: #000000"/>
    </g>
   </g>
  </g>
 </g>
 <defs>
  <clipPath id="pfc23f0bf73">
   <path d="M 351.204686 320.4 
L 351.204686 43.2 
L 386.795314 43.2 
L 386.795314 320.4 
L 351.204686 320.4 
"/>
  </clipPath>
 </defs>
</svg>
