<?xml version="1.0" encoding="utf-8" standalone="no"?>
<!DOCTYPE svg PUBLIC "-//W3C//DTD SVG 1.1//EN"
  "http://www.w3.org/Graphics/SVG/1.1/DTD/svg11.dtd">
<svg xmlns:xlink="http://www.w3.org/1999/xlink" width="720pt" height="360pt" viewBox="0 0 720 360" xmlns="http://www.w3.org/2000/svg" version="1.1">
 <metadata>
  <rdf:RDF xmlns:dc="http://purl.org/dc/elements/1.1/" xmlns:cc="http://creativecommons.org/ns#" xmlns:rdf="http://www.w3.org/1999/02/22-rdf-syntax-ns#">
   <cc:Work>
    <dc:type rdf:resource="http://purl.org/dc/dcmitype/StillImage"/>
    <dc:date>2023-11-30T21:30:46.256268</dc:date>
    <dc:format>image/svg+xml</dc:format>
    <dc:creator>
     <cc:Agent>
      <dc:title>Matplotlib v3.8.1, https://matplotlib.org/</dc:title>
     </cc:Agent>
    </dc:creator>
   </cc:Work>
  </rdf:RDF>
 </metadata>
 <defs>
  <style type="text/css">*{stroke-linejoin: round; stroke-linecap: butt}</style>
 </defs>
 <g id="figure_1">
  <g id="patch_1">
   <path d="M 0 360 
L 720 360 
L 720 0 
L 0 0 
z
" style="fill: #ffffff"/>
  </g>
  <g id="axes_1">
   <g id="patch_2">
    <path d="M 279.444837 320.4 
L 279.444837 43.2 
L 458.555163 43.2 
L 458.555163 320.4 
L 279.444837 320.4 
" style="fill: #ffffff"/>
   </g>
   <g id="line2d_1">
    <defs>
     <path id="m6172d0e9db" d="M 0 10.175868 
C 2.698672 10.175868 5.287176 9.103674 7.195425 7.195425 
C 9.103674 5.287176 10.175868 2.698672 10.175868 0 
C 10.175868 -2.698672 9.103674 -5.287176 7.195425 -7.195425 
C 5.287176 -9.103674 2.698672 -10.175868 0 -10.175868 
C -2.698672 -10.175868 -5.287176 -9.103674 -7.195425 -7.195425 
C -9.103674 -5.287176 -10.175868 -2.698672 -10.175868 0 
C -10.175868 2.698672 -9.103674 5.287176 -7.195425 7.195425 
C -5.287176 9.103674 -2.698672 10.175868 0 10.175868 
z
" style="stroke: #000000"/>
    </defs>
    <g clip-path="url(#pb2da23bd3f)">
     <use xlink:href="#m6172d0e9db" x="287.586215" y="302.272258" style="stroke: #000000"/>
    </g>
   </g>
   <g id="line2d_2">
    <defs>
     <path id="me07adc559d" d="M 0 10.15469 
C 2.693055 10.15469 5.276173 9.084728 7.18045 7.18045 
C 9.084728 5.276173 10.15469 2.693055 10.15469 0 
C 10.15469 -2.693055 9.084728 -5.276173 7.18045 -7.18045 
C 5.276173 -9.084728 2.693055 -10.15469 0 -10.15469 
C -2.693055 -10.15469 -5.276173 -9.084728 -7.18045 -7.18045 
C -9.084728 -5.276173 -10.15469 -2.693055 -10.15469 0 
C -10.15469 2.693055 -9.084728 5.276173 -7.18045 7.18045 
C -5.276173 9.084728 -2.693055 10.15469 0 10.15469 
z
" style="stroke: #000000"/>
    </defs>
    <g clip-path="url(#pb2da23bd3f)">
     <use xlink:href="#me07adc559d" x="342.991335" y="307.8" style="stroke: #000000"/>
    </g>
   </g>
   <g id="line2d_3">
    <defs>
     <path id="m17aafb3177" d="M 0 9.368472 
C 2.484548 9.368472 4.867669 8.381351 6.62451 6.62451 
C 8.381351 4.867669 9.368472 2.484548 9.368472 0 
C 9.368472 -2.484548 8.381351 -4.867669 6.62451 -6.62451 
C 4.867669 -8.381351 2.484548 -9.368472 0 -9.368472 
C -2.484548 -9.368472 -4.867669 -8.381351 -6.62451 -6.62451 
C -8.381351 -4.867669 -9.368472 -2.484548 -9.368472 0 
C -9.368472 2.484548 -8.381351 4.867669 -6.62451 6.62451 
C -4.867669 8.381351 -2.484548 9.368472 0 9.368472 
z
" style="stroke: #000000"/>
    </defs>
    <g clip-path="url(#pb2da23bd3f)">
     <use xlink:href="#m17aafb3177" x="400.495098" y="141.595452" style="stroke: #000000"/>
    </g>
   </g>
   <g id="line2d_4">
    <defs>
     <path id="mf608324ddb" d="M 0 9.366236 
C 2.483955 9.366236 4.866508 8.37935 6.622929 6.622929 
C 8.37935 4.866508 9.366236 2.483955 9.366236 0 
C 9.366236 -2.483955 8.37935 -4.866508 6.622929 -6.622929 
C 4.866508 -8.37935 2.483955 -9.366236 0 -9.366236 
C -2.483955 -9.366236 -4.866508 -8.37935 -6.622929 -6.622929 
C -8.37935 -4.866508 -9.366236 -2.483955 -9.366236 0 
C -9.366236 2.483955 -8.37935 4.866508 -6.622929 6.622929 
C -4.866508 8.37935 -2.483955 9.366236 0 9.366236 
z
" style="stroke: #000000"/>
    </defs>
    <g clip-path="url(#pb2da23bd3f)">
     <use xlink:href="#mf608324ddb" x="450.413785" y="55.8" style="stroke: #000000"/>
    </g>
   </g>
   <g id="line2d_5">
    <defs>
     <path id="m9ad79a63e6" d="M 0 9.293618 
C 2.464696 9.293618 4.828777 8.314384 6.57158 6.57158 
C 8.314384 4.828777 9.293618 2.464696 9.293618 0 
C 9.293618 -2.464696 8.314384 -4.828777 6.57158 -6.57158 
C 4.828777 -8.314384 2.464696 -9.293618 0 -9.293618 
C -2.464696 -9.293618 -4.828777 -8.314384 -6.57158 -6.57158 
C -8.314384 -4.828777 -9.293618 -2.464696 -9.293618 0 
C -9.293618 2.464696 -8.314384 4.828777 -6.57158 6.57158 
C -4.828777 8.314384 -2.464696 9.293618 0 9.293618 
z
" style="stroke: #000000"/>
    </defs>
    <g clip-path="url(#pb2da23bd3f)">
     <use xlink:href="#m9ad79a63e6" x="301.088766" y="244.002825" style="stroke: #000000"/>
    </g>
   </g>
   <g id="line2d_6">
    <defs>
     <path id="mea464afbc5" d="M 0 9.143725 
C 2.424944 9.143725 4.750896 8.180285 6.46559 6.46559 
C 8.180285 4.750896 9.143725 2.424944 9.143725 0 
C 9.143725 -2.424944 8.180285 -4.750896 6.46559 -6.46559 
C 4.750896 -8.180285 2.424944 -9.143725 0 -9.143725 
C -2.424944 -9.143725 -4.750896 -8.180285 -6.46559 -6.46559 
C -8.180285 -4.750896 -9.143725 -2.424944 -9.143725 0 
C -9.143725 2.424944 -8.180285 4.750896 -6.46559 6.46559 
C -4.750896 8.180285 -2.424944 9.143725 0 9.143725 
z
" style="stroke: #000000"/>
    </defs>
    <g clip-path="url(#pb2da23bd3f)">
     <use xlink:href="#mea464afbc5" x="428.565265" y="101.832133" style="stroke: #000000"/>
    </g>
   </g>
   <g id="line2d_7">
    <defs>
     <path id="ma40e1a2bd3" d="M 0 9.074757 
C 2.406654 9.074757 4.715061 8.118583 6.416822 6.416822 
C 8.118583 4.715061 9.074757 2.406654 9.074757 0 
C 9.074757 -2.406654 8.118583 -4.715061 6.416822 -6.416822 
C 4.715061 -8.118583 2.406654 -9.074757 0 -9.074757 
C -2.406654 -9.074757 -4.715061 -8.118583 -6.416822 -6.416822 
C -8.118583 -4.715061 -9.074757 -2.406654 -9.074757 0 
C -9.074757 2.406654 -8.118583 4.715061 -6.416822 6.416822 
C -4.715061 8.118583 -2.406654 9.074757 0 9.074757 
z
" style="stroke: #000000"/>
    </defs>
    <g clip-path="url(#pb2da23bd3f)">
     <use xlink:href="#ma40e1a2bd3" x="309.392243" y="258.711724" style="stroke: #000000"/>
    </g>
   </g>
   <g id="line2d_8">
    <defs>
     <path id="m991bed8ff2" d="M 0 9.035165 
C 2.396154 9.035165 4.69449 8.083163 6.388827 6.388827 
C 8.083163 4.69449 9.035165 2.396154 9.035165 0 
C 9.035165 -2.396154 8.083163 -4.69449 6.388827 -6.388827 
C 4.69449 -8.083163 2.396154 -9.035165 0 -9.035165 
C -2.396154 -9.035165 -4.69449 -8.083163 -6.388827 -6.388827 
C -8.083163 -4.69449 -9.035165 -2.396154 -9.035165 0 
C -9.035165 2.396154 -8.083163 4.69449 -6.388827 6.388827 
C -4.69449 8.083163 -2.396154 9.035165 0 9.035165 
z
" style="stroke: #000000"/>
    </defs>
    <g clip-path="url(#pb2da23bd3f)">
     <use xlink:href="#m991bed8ff2" x="412.862577" y="97.150096" style="stroke: #000000"/>
    </g>
   </g>
   <g id="line2d_9">
    <defs>
     <path id="mdbcf55bd23" d="M 0 8.909884 
C 2.362929 8.909884 4.629396 7.971082 6.300239 6.300239 
C 7.971082 4.629396 8.909884 2.362929 8.909884 0 
C 8.909884 -2.362929 7.971082 -4.629396 6.300239 -6.300239 
C 4.629396 -7.971082 2.362929 -8.909884 0 -8.909884 
C -2.362929 -8.909884 -4.629396 -7.971082 -6.300239 -6.300239 
C -7.971082 -4.629396 -8.909884 -2.362929 -8.909884 0 
C -8.909884 2.362929 -7.971082 4.629396 -6.300239 6.300239 
C -4.629396 7.971082 -2.362929 8.909884 0 8.909884 
z
" style="stroke: #000000"/>
    </defs>
    <g clip-path="url(#pb2da23bd3f)">
     <use xlink:href="#mdbcf55bd23" x="406.212031" y="202.178669" style="stroke: #000000"/>
    </g>
   </g>
   <g id="line2d_10">
    <defs>
     <path id="m205d3206b2" d="M 0 8.867355 
C 2.35165 8.867355 4.607299 7.933034 6.270167 6.270167 
C 7.933034 4.607299 8.867355 2.35165 8.867355 0 
C 8.867355 -2.35165 7.933034 -4.607299 6.270167 -6.270167 
C 4.607299 -7.933034 2.35165 -8.867355 0 -8.867355 
C -2.35165 -8.867355 -4.607299 -7.933034 -6.270167 -6.270167 
C -7.933034 -4.607299 -8.867355 -2.35165 -8.867355 0 
C -8.867355 2.35165 -7.933034 4.607299 -6.270167 6.270167 
C -4.607299 7.933034 -2.35165 8.867355 0 8.867355 
z
" style="stroke: #000000"/>
    </defs>
    <g clip-path="url(#pb2da23bd3f)">
     <use xlink:href="#m205d3206b2" x="409.265077" y="286.162295" style="stroke: #000000"/>
    </g>
   </g>
  </g>
 </g>
 <defs>
  <clipPath id="pb2da23bd3f">
   <path d="M 279.444837 320.4 
L 279.444837 43.2 
L 458.555163 43.2 
L 458.555163 320.4 
L 279.444837 320.4 
"/>
  </clipPath>
 </defs>
</svg>
