<?xml version="1.0" encoding="utf-8" standalone="no"?>
<!DOCTYPE svg PUBLIC "-//W3C//DTD SVG 1.1//EN"
  "http://www.w3.org/Graphics/SVG/1.1/DTD/svg11.dtd">
<svg xmlns:xlink="http://www.w3.org/1999/xlink" width="720pt" height="360pt" viewBox="0 0 720 360" xmlns="http://www.w3.org/2000/svg" version="1.1">
 <metadata>
  <rdf:RDF xmlns:dc="http://purl.org/dc/elements/1.1/" xmlns:cc="http://creativecommons.org/ns#" xmlns:rdf="http://www.w3.org/1999/02/22-rdf-syntax-ns#">
   <cc:Work>
    <dc:type rdf:resource="http://purl.org/dc/dcmitype/StillImage"/>
    <dc:date>2023-11-30T21:30:45.825842</dc:date>
    <dc:format>image/svg+xml</dc:format>
    <dc:creator>
     <cc:Agent>
      <dc:title>Matplotlib v3.8.1, https://matplotlib.org/</dc:title>
     </cc:Agent>
    </dc:creator>
   </cc:Work>
  </rdf:RDF>
 </metadata>
 <defs>
  <style type="text/css">*{stroke-linejoin: round; stroke-linecap: butt}</style>
 </defs>
 <g id="figure_1">
  <g id="patch_1">
   <path d="M 0 360 
L 720 360 
L 720 0 
L 0 0 
z
" style="fill: #ffffff"/>
  </g>
  <g id="axes_1">
   <g id="patch_2">
    <path d="M 250.496405 320.4 
L 250.496405 43.2 
L 487.503595 43.2 
L 487.503595 320.4 
L 250.496405 320.4 
" style="fill: #ffffff"/>
   </g>
   <g id="line2d_1">
    <defs>
     <path id="md6871dd680" d="M 0 12.205771 
C 3.237008 12.205771 6.341873 10.919694 8.630783 8.630783 
C 10.919694 6.341873 12.205771 3.237008 12.205771 0 
C 12.205771 -3.237008 10.919694 -6.341873 8.630783 -8.630783 
C 6.341873 -10.919694 3.237008 -12.205771 0 -12.205771 
C -3.237008 -12.205771 -6.341873 -10.919694 -8.630783 -8.630783 
C -10.919694 -6.341873 -12.205771 -3.237008 -12.205771 0 
C -12.205771 3.237008 -10.919694 6.341873 -8.630783 8.630783 
C -6.341873 10.919694 -3.237008 12.205771 0 12.205771 
z
" style="stroke: #000000"/>
    </defs>
    <g clip-path="url(#p25430d9027)">
     <use xlink:href="#md6871dd680" x="476.730541" y="187.747077" style="stroke: #000000"/>
    </g>
   </g>
   <g id="line2d_2">
    <defs>
     <path id="mf6889602e0" d="M 0 12.088256 
C 3.205843 12.088256 6.280815 10.814561 8.547688 8.547688 
C 10.814561 6.280815 12.088256 3.205843 12.088256 0 
C 12.088256 -3.205843 10.814561 -6.280815 8.547688 -8.547688 
C 6.280815 -10.814561 3.205843 -12.088256 0 -12.088256 
C -3.205843 -12.088256 -6.280815 -10.814561 -8.547688 -8.547688 
C -10.814561 -6.280815 -12.088256 -3.205843 -12.088256 0 
C -12.088256 3.205843 -10.814561 6.280815 -8.547688 8.547688 
C -6.280815 10.814561 -3.205843 12.088256 0 12.088256 
z
" style="stroke: #000000"/>
    </defs>
    <g clip-path="url(#p25430d9027)">
     <use xlink:href="#mf6889602e0" x="414.032165" y="55.8" style="stroke: #000000"/>
    </g>
   </g>
   <g id="line2d_3">
    <defs>
     <path id="mf5397a6059" d="M 0 12.030195 
C 3.190445 12.030195 6.250647 10.762618 8.506632 8.506632 
C 10.762618 6.250647 12.030195 3.190445 12.030195 0 
C 12.030195 -3.190445 10.762618 -6.250647 8.506632 -8.506632 
C 6.250647 -10.762618 3.190445 -12.030195 0 -12.030195 
C -3.190445 -12.030195 -6.250647 -10.762618 -8.506632 -8.506632 
C -10.762618 -6.250647 -12.030195 -3.190445 -12.030195 0 
C -12.030195 3.190445 -10.762618 6.250647 -8.506632 8.506632 
C -6.250647 10.762618 -3.190445 12.030195 0 12.030195 
z
" style="stroke: #000000"/>
    </defs>
    <g clip-path="url(#p25430d9027)">
     <use xlink:href="#mf5397a6059" x="385.179165" y="307.8" style="stroke: #000000"/>
    </g>
   </g>
   <g id="line2d_4">
    <defs>
     <path id="m11d38539e6" d="M 0 11.970132 
C 3.174516 11.970132 6.21944 10.708883 8.464161 8.464161 
C 10.708883 6.21944 11.970132 3.174516 11.970132 0 
C 11.970132 -3.174516 10.708883 -6.21944 8.464161 -8.464161 
C 6.21944 -10.708883 3.174516 -11.970132 0 -11.970132 
C -3.174516 -11.970132 -6.21944 -10.708883 -8.464161 -8.464161 
C -10.708883 -6.21944 -11.970132 -3.174516 -11.970132 0 
C -11.970132 3.174516 -10.708883 6.21944 -8.464161 8.464161 
C -6.21944 10.708883 -3.174516 11.970132 0 11.970132 
z
" style="stroke: #000000"/>
    </defs>
    <g clip-path="url(#p25430d9027)">
     <use xlink:href="#m11d38539e6" x="375.041286" y="300.166468" style="stroke: #000000"/>
    </g>
   </g>
   <g id="line2d_5">
    <defs>
     <path id="m97d5c25a83" d="M 0 11.846871 
C 3.141827 11.846871 6.155396 10.59861 8.377003 8.377003 
C 10.59861 6.155396 11.846871 3.141827 11.846871 0 
C 11.846871 -3.141827 10.59861 -6.155396 8.377003 -8.377003 
C 6.155396 -10.59861 3.141827 -11.846871 0 -11.846871 
C -3.141827 -11.846871 -6.155396 -10.59861 -8.377003 -8.377003 
C -10.59861 -6.155396 -11.846871 -3.141827 -11.846871 0 
C -11.846871 3.141827 -10.59861 6.155396 -8.377003 8.377003 
C -6.155396 10.59861 -3.141827 11.846871 0 11.846871 
z
" style="stroke: #000000"/>
    </defs>
    <g clip-path="url(#p25430d9027)">
     <use xlink:href="#m97d5c25a83" x="261.269459" y="195.732439" style="stroke: #000000"/>
    </g>
   </g>
   <g id="line2d_6">
    <defs>
     <path id="m6d80b957ab" d="M 0 11.701399 
C 3.103247 11.701399 6.079811 10.468465 8.274138 8.274138 
C 10.468465 6.079811 11.701399 3.103247 11.701399 0 
C 11.701399 -3.103247 10.468465 -6.079811 8.274138 -8.274138 
C 6.079811 -10.468465 3.103247 -11.701399 0 -11.701399 
C -3.103247 -11.701399 -6.079811 -10.468465 -8.274138 -8.274138 
C -10.468465 -6.079811 -11.701399 -3.103247 -11.701399 0 
C -11.701399 3.103247 -10.468465 6.079811 -8.274138 8.274138 
C -6.079811 10.468465 -3.103247 11.701399 0 11.701399 
z
" style="stroke: #000000"/>
    </defs>
    <g clip-path="url(#p25430d9027)">
     <use xlink:href="#m6d80b957ab" x="423.688609" y="68.042608" style="stroke: #000000"/>
    </g>
   </g>
   <g id="line2d_7">
    <defs>
     <path id="md49a92cabe" d="M 0 11.654533 
C 3.090818 11.654533 6.055461 10.426538 8.240999 8.240999 
C 10.426538 6.055461 11.654533 3.090818 11.654533 0 
C 11.654533 -3.090818 10.426538 -6.055461 8.240999 -8.240999 
C 6.055461 -10.426538 3.090818 -11.654533 0 -11.654533 
C -3.090818 -11.654533 -6.055461 -10.426538 -8.240999 -8.240999 
C -10.426538 -6.055461 -11.654533 -3.090818 -11.654533 0 
C -11.654533 3.090818 -10.426538 6.055461 -8.240999 8.240999 
C -6.055461 10.426538 -3.090818 11.654533 0 11.654533 
z
" style="stroke: #000000"/>
    </defs>
    <g clip-path="url(#p25430d9027)">
     <use xlink:href="#md49a92cabe" x="387.636761" y="196.926331" style="stroke: #000000"/>
    </g>
   </g>
   <g id="line2d_8">
    <defs>
     <path id="mb53a93e26b" d="M 0 11.600665 
C 3.076532 11.600665 6.027472 10.378346 8.202909 8.202909 
C 10.378346 6.027472 11.600665 3.076532 11.600665 0 
C 11.600665 -3.076532 10.378346 -6.027472 8.202909 -8.202909 
C 6.027472 -10.378346 3.076532 -11.600665 0 -11.600665 
C -3.076532 -11.600665 -6.027472 -10.378346 -8.202909 -8.202909 
C -10.378346 -6.027472 -11.600665 -3.076532 -11.600665 0 
C -11.600665 3.076532 -10.378346 6.027472 -8.202909 8.202909 
C -6.027472 10.378346 -3.076532 11.600665 0 11.600665 
z
" style="stroke: #000000"/>
    </defs>
    <g clip-path="url(#p25430d9027)">
     <use xlink:href="#mb53a93e26b" x="381.219161" y="301.487983" style="stroke: #000000"/>
    </g>
   </g>
   <g id="line2d_9">
    <defs>
     <path id="m7e8c3199b5" d="M 0 11.597302 
C 3.07564 11.597302 6.025724 10.375337 8.200531 8.200531 
C 10.375337 6.025724 11.597302 3.07564 11.597302 0 
C 11.597302 -3.07564 10.375337 -6.025724 8.200531 -8.200531 
C 6.025724 -10.375337 3.07564 -11.597302 0 -11.597302 
C -3.07564 -11.597302 -6.025724 -10.375337 -8.200531 -8.200531 
C -10.375337 -6.025724 -11.597302 -3.07564 -11.597302 0 
C -11.597302 3.07564 -10.375337 6.025724 -8.200531 8.200531 
C -6.025724 10.375337 -3.07564 11.597302 0 11.597302 
z
" style="stroke: #000000"/>
    </defs>
    <g clip-path="url(#p25430d9027)">
     <use xlink:href="#m7e8c3199b5" x="321.503797" y="143.231075" style="stroke: #000000"/>
    </g>
   </g>
   <g id="line2d_10">
    <defs>
     <path id="m0e8303f3e0" d="M 0 11.575538 
C 3.069869 11.575538 6.014416 10.355866 8.185141 8.185141 
C 10.355866 6.014416 11.575538 3.069869 11.575538 0 
C 11.575538 -3.069869 10.355866 -6.014416 8.185141 -8.185141 
C 6.014416 -10.355866 3.069869 -11.575538 0 -11.575538 
C -3.069869 -11.575538 -6.014416 -10.355866 -8.185141 -8.185141 
C -10.355866 -6.014416 -11.575538 -3.069869 -11.575538 0 
C -11.575538 3.069869 -10.355866 6.014416 -8.185141 8.185141 
C -6.014416 10.355866 -3.069869 11.575538 0 11.575538 
z
" style="stroke: #000000"/>
    </defs>
    <g clip-path="url(#p25430d9027)">
     <use xlink:href="#m0e8303f3e0" x="443.524683" y="175.590385" style="stroke: #000000"/>
    </g>
   </g>
  </g>
 </g>
 <defs>
  <clipPath id="p25430d9027">
   <path d="M 250.496405 320.4 
L 250.496405 43.2 
L 487.503595 43.2 
L 487.503595 320.4 
L 250.496405 320.4 
"/>
  </clipPath>
 </defs>
</svg>
