<?xml version="1.0" encoding="utf-8" standalone="no"?>
<!DOCTYPE svg PUBLIC "-//W3C//DTD SVG 1.1//EN"
  "http://www.w3.org/Graphics/SVG/1.1/DTD/svg11.dtd">
<svg xmlns:xlink="http://www.w3.org/1999/xlink" width="720pt" height="360pt" viewBox="0 0 720 360" xmlns="http://www.w3.org/2000/svg" version="1.1">
 <metadata>
  <rdf:RDF xmlns:dc="http://purl.org/dc/elements/1.1/" xmlns:cc="http://creativecommons.org/ns#" xmlns:rdf="http://www.w3.org/1999/02/22-rdf-syntax-ns#">
   <cc:Work>
    <dc:type rdf:resource="http://purl.org/dc/dcmitype/StillImage"/>
    <dc:date>2023-11-30T21:30:45.869533</dc:date>
    <dc:format>image/svg+xml</dc:format>
    <dc:creator>
     <cc:Agent>
      <dc:title>Matplotlib v3.8.1, https://matplotlib.org/</dc:title>
     </cc:Agent>
    </dc:creator>
   </cc:Work>
  </rdf:RDF>
 </metadata>
 <defs>
  <style type="text/css">*{stroke-linejoin: round; stroke-linecap: butt}</style>
 </defs>
 <g id="figure_1">
  <g id="patch_1">
   <path d="M 0 360 
L 720 360 
L 720 0 
L 0 0 
z
" style="fill: #ffffff"/>
  </g>
  <g id="axes_1">
   <g id="patch_2">
    <path d="M 297.867776 320.4 
L 297.867776 43.2 
L 440.132224 43.2 
L 440.132224 320.4 
L 297.867776 320.4 
" style="fill: #ffffff"/>
   </g>
   <g id="line2d_1">
    <defs>
     <path id="m72c571845d" d="M 0 11.435808 
C 3.032812 11.435808 5.941816 10.230859 8.086338 8.086338 
C 10.230859 5.941816 11.435808 3.032812 11.435808 0 
C 11.435808 -3.032812 10.230859 -5.941816 8.086338 -8.086338 
C 5.941816 -10.230859 3.032812 -11.435808 0 -11.435808 
C -3.032812 -11.435808 -5.941816 -10.230859 -8.086338 -8.086338 
C -10.230859 -5.941816 -11.435808 -3.032812 -11.435808 0 
C -11.435808 3.032812 -10.230859 5.941816 -8.086338 8.086338 
C -5.941816 10.230859 -3.032812 11.435808 0 11.435808 
z
" style="stroke: #000000"/>
    </defs>
    <g clip-path="url(#p0e46546919)">
     <use xlink:href="#m72c571845d" x="382.96213" y="270.18695" style="stroke: #000000"/>
    </g>
   </g>
   <g id="line2d_2">
    <defs>
     <path id="md730176f8b" d="M 0 10.595158 
C 2.809869 10.595158 5.505031 9.478785 7.491908 7.491908 
C 9.478785 5.505031 10.595158 2.809869 10.595158 0 
C 10.595158 -2.809869 9.478785 -5.505031 7.491908 -7.491908 
C 5.505031 -9.478785 2.809869 -10.595158 0 -10.595158 
C -2.809869 -10.595158 -5.505031 -9.478785 -7.491908 -7.491908 
C -9.478785 -5.505031 -10.595158 -2.809869 -10.595158 0 
C -10.595158 2.809869 -9.478785 5.505031 -7.491908 7.491908 
C -5.505031 9.478785 -2.809869 10.595158 0 10.595158 
z
" style="stroke: #000000"/>
    </defs>
    <g clip-path="url(#p0e46546919)">
     <use xlink:href="#md730176f8b" x="304.334342" y="307.8" style="stroke: #000000"/>
    </g>
   </g>
   <g id="line2d_3">
    <defs>
     <path id="m9f6b333ac0" d="M 0 10.465777 
C 2.775557 10.465777 5.437807 9.363037 7.400422 7.400422 
C 9.363037 5.437807 10.465777 2.775557 10.465777 0 
C 10.465777 -2.775557 9.363037 -5.437807 7.400422 -7.400422 
C 5.437807 -9.363037 2.775557 -10.465777 0 -10.465777 
C -2.775557 -10.465777 -5.437807 -9.363037 -7.400422 -7.400422 
C -9.363037 -5.437807 -10.465777 -2.775557 -10.465777 0 
C -10.465777 2.775557 -9.363037 5.437807 -7.400422 7.400422 
C -5.437807 9.363037 -2.775557 10.465777 0 10.465777 
z
" style="stroke: #000000"/>
    </defs>
    <g clip-path="url(#p0e46546919)">
     <use xlink:href="#m9f6b333ac0" x="335.225245" y="217.398563" style="stroke: #000000"/>
    </g>
   </g>
   <g id="line2d_4">
    <defs>
     <path id="m611760951b" d="M 0 10.101091 
C 2.678841 10.101091 5.248323 9.036776 7.14255 7.14255 
C 9.036776 5.248323 10.101091 2.678841 10.101091 0 
C 10.101091 -2.678841 9.036776 -5.248323 7.14255 -7.14255 
C 5.248323 -9.036776 2.678841 -10.101091 0 -10.101091 
C -2.678841 -10.101091 -5.248323 -9.036776 -7.14255 -7.14255 
C -9.036776 -5.248323 -10.101091 -2.678841 -10.101091 0 
C -10.101091 2.678841 -9.036776 5.248323 -7.14255 7.14255 
C -5.248323 9.036776 -2.678841 10.101091 0 10.101091 
z
" style="stroke: #000000"/>
    </defs>
    <g clip-path="url(#p0e46546919)">
     <use xlink:href="#m611760951b" x="360.425762" y="64.680149" style="stroke: #000000"/>
    </g>
   </g>
   <g id="line2d_5">
    <defs>
     <path id="m151404d225" d="M 0 9.901354 
C 2.62587 9.901354 5.144544 8.858085 7.001314 7.001314 
C 8.858085 5.144544 9.901354 2.62587 9.901354 0 
C 9.901354 -2.62587 8.858085 -5.144544 7.001314 -7.001314 
C 5.144544 -8.858085 2.62587 -9.901354 0 -9.901354 
C -2.62587 -9.901354 -5.144544 -8.858085 -7.001314 -7.001314 
C -8.858085 -5.144544 -9.901354 -2.62587 -9.901354 0 
C -9.901354 2.62587 -8.858085 5.144544 -7.001314 7.001314 
C -5.144544 8.858085 -2.62587 9.901354 0 9.901354 
z
" style="stroke: #000000"/>
    </defs>
    <g clip-path="url(#p0e46546919)">
     <use xlink:href="#m151404d225" x="336.808593" y="83.207241" style="stroke: #000000"/>
    </g>
   </g>
   <g id="line2d_6">
    <defs>
     <path id="md4113aff32" d="M 0 9.783877 
C 2.594714 9.783877 5.083505 8.752986 6.918246 6.918246 
C 8.752986 5.083505 9.783877 2.594714 9.783877 0 
C 9.783877 -2.594714 8.752986 -5.083505 6.918246 -6.918246 
C 5.083505 -8.752986 2.594714 -9.783877 0 -9.783877 
C -2.594714 -9.783877 -5.083505 -8.752986 -6.918246 -6.918246 
C -8.752986 -5.083505 -9.783877 -2.594714 -9.783877 0 
C -9.783877 2.594714 -8.752986 5.083505 -6.918246 6.918246 
C -5.083505 8.752986 -2.594714 9.783877 0 9.783877 
z
" style="stroke: #000000"/>
    </defs>
    <g clip-path="url(#p0e46546919)">
     <use xlink:href="#md4113aff32" x="433.665658" y="164.443877" style="stroke: #000000"/>
    </g>
   </g>
   <g id="line2d_7">
    <defs>
     <path id="m8b363dcb0e" d="M 0 9.574252 
C 2.539121 9.574252 4.974589 8.565448 6.770018 6.770018 
C 8.565448 4.974589 9.574252 2.539121 9.574252 0 
C 9.574252 -2.539121 8.565448 -4.974589 6.770018 -6.770018 
C 4.974589 -8.565448 2.539121 -9.574252 0 -9.574252 
C -2.539121 -9.574252 -4.974589 -8.565448 -6.770018 -6.770018 
C -8.565448 -4.974589 -9.574252 -2.539121 -9.574252 0 
C -9.574252 2.539121 -8.565448 4.974589 -6.770018 6.770018 
C -4.974589 8.565448 -2.539121 9.574252 0 9.574252 
z
" style="stroke: #000000"/>
    </defs>
    <g clip-path="url(#p0e46546919)">
     <use xlink:href="#m8b363dcb0e" x="413.950966" y="189.25149" style="stroke: #000000"/>
    </g>
   </g>
   <g id="line2d_8">
    <defs>
     <path id="mb80d520fa0" d="M 0 9.507321 
C 2.521371 9.507321 4.939813 8.50557 6.722691 6.722691 
C 8.50557 4.939813 9.507321 2.521371 9.507321 0 
C 9.507321 -2.521371 8.50557 -4.939813 6.722691 -6.722691 
C 4.939813 -8.50557 2.521371 -9.507321 0 -9.507321 
C -2.521371 -9.507321 -4.939813 -8.50557 -6.722691 -6.722691 
C -8.50557 -4.939813 -9.507321 -2.521371 -9.507321 0 
C -9.507321 2.521371 -8.50557 4.939813 -6.722691 6.722691 
C -4.939813 8.50557 -2.521371 9.507321 0 9.507321 
z
" style="stroke: #000000"/>
    </defs>
    <g clip-path="url(#p0e46546919)">
     <use xlink:href="#mb80d520fa0" x="345.900198" y="275.670325" style="stroke: #000000"/>
    </g>
   </g>
   <g id="line2d_9">
    <defs>
     <path id="m44f8dd9ccc" d="M 0 9.464619 
C 2.510046 9.464619 4.917626 8.467367 6.692496 6.692496 
C 8.467367 4.917626 9.464619 2.510046 9.464619 0 
C 9.464619 -2.510046 8.467367 -4.917626 6.692496 -6.692496 
C 4.917626 -8.467367 2.510046 -9.464619 0 -9.464619 
C -2.510046 -9.464619 -4.917626 -8.467367 -6.692496 -6.692496 
C -8.467367 -4.917626 -9.464619 -2.510046 -9.464619 0 
C -9.464619 2.510046 -8.467367 4.917626 -6.692496 6.692496 
C -4.917626 8.467367 -2.510046 9.464619 0 9.464619 
z
" style="stroke: #000000"/>
    </defs>
    <g clip-path="url(#p0e46546919)">
     <use xlink:href="#m44f8dd9ccc" x="379.18368" y="55.8" style="stroke: #000000"/>
    </g>
   </g>
   <g id="line2d_10">
    <defs>
     <path id="mbf0cba8296" d="M 0 9.452588 
C 2.506856 9.452588 4.911374 8.456603 6.683989 6.683989 
C 8.456603 4.911374 9.452588 2.506856 9.452588 0 
C 9.452588 -2.506856 8.456603 -4.911374 6.683989 -6.683989 
C 4.911374 -8.456603 2.506856 -9.452588 0 -9.452588 
C -2.506856 -9.452588 -4.911374 -8.456603 -6.683989 -6.683989 
C -8.456603 -4.911374 -9.452588 -2.506856 -9.452588 0 
C -9.452588 2.506856 -8.456603 4.911374 -6.683989 6.683989 
C -4.911374 8.456603 -2.506856 9.452588 0 9.452588 
z
" style="stroke: #000000"/>
    </defs>
    <g clip-path="url(#p0e46546919)">
     <use xlink:href="#mbf0cba8296" x="324.986156" y="136.819637" style="stroke: #000000"/>
    </g>
   </g>
  </g>
 </g>
 <defs>
  <clipPath id="p0e46546919">
   <path d="M 297.867776 320.4 
L 297.867776 43.2 
L 440.132224 43.2 
L 440.132224 320.4 
L 297.867776 320.4 
"/>
  </clipPath>
 </defs>
</svg>
