<?xml version="1.0" encoding="utf-8" standalone="no"?>
<!DOCTYPE svg PUBLIC "-//W3C//DTD SVG 1.1//EN"
  "http://www.w3.org/Graphics/SVG/1.1/DTD/svg11.dtd">
<svg xmlns:xlink="http://www.w3.org/1999/xlink" width="720pt" height="360pt" viewBox="0 0 720 360" xmlns="http://www.w3.org/2000/svg" version="1.1">
 <metadata>
  <rdf:RDF xmlns:dc="http://purl.org/dc/elements/1.1/" xmlns:cc="http://creativecommons.org/ns#" xmlns:rdf="http://www.w3.org/1999/02/22-rdf-syntax-ns#">
   <cc:Work>
    <dc:type rdf:resource="http://purl.org/dc/dcmitype/StillImage"/>
    <dc:date>2023-11-30T21:30:45.915128</dc:date>
    <dc:format>image/svg+xml</dc:format>
    <dc:creator>
     <cc:Agent>
      <dc:title>Matplotlib v3.8.1, https://matplotlib.org/</dc:title>
     </cc:Agent>
    </dc:creator>
   </cc:Work>
  </rdf:RDF>
 </metadata>
 <defs>
  <style type="text/css">*{stroke-linejoin: round; stroke-linecap: butt}</style>
 </defs>
 <g id="figure_1">
  <g id="patch_1">
   <path d="M 0 360 
L 720 360 
L 720 0 
L 0 0 
z
" style="fill: #ffffff"/>
  </g>
  <g id="axes_1">
   <g id="patch_2">
    <path d="M 108.704527 320.4 
L 108.704527 43.2 
L 629.295473 43.2 
L 629.295473 320.4 
L 108.704527 320.4 
" style="fill: #ffffff"/>
   </g>
   <g id="line2d_1">
    <defs>
     <path id="md16fca25f0" d="M 0 9.176918 
C 2.433747 9.176918 4.768142 8.20998 6.489061 6.489061 
C 8.20998 4.768142 9.176918 2.433747 9.176918 0 
C 9.176918 -2.433747 8.20998 -4.768142 6.489061 -6.489061 
C 4.768142 -8.20998 2.433747 -9.176918 0 -9.176918 
C -2.433747 -9.176918 -4.768142 -8.20998 -6.489061 -6.489061 
C -8.20998 -4.768142 -9.176918 -2.433747 -9.176918 0 
C -9.176918 2.433747 -8.20998 4.768142 -6.489061 6.489061 
C -4.768142 8.20998 -2.433747 9.176918 0 9.176918 
z
" style="stroke: #000000"/>
    </defs>
    <g clip-path="url(#p04bf468e42)">
     <use xlink:href="#md16fca25f0" x="399.248998" y="195.418946" style="stroke: #000000"/>
    </g>
   </g>
   <g id="line2d_2">
    <defs>
     <path id="mcc3e085669" d="M 0 7.97247 
C 2.114324 7.97247 4.142335 7.132441 5.637388 5.637388 
C 7.132441 4.142335 7.97247 2.114324 7.97247 0 
C 7.97247 -2.114324 7.132441 -4.142335 5.637388 -5.637388 
C 4.142335 -7.132441 2.114324 -7.97247 0 -7.97247 
C -2.114324 -7.97247 -4.142335 -7.132441 -5.637388 -5.637388 
C -7.132441 -4.142335 -7.97247 -2.114324 -7.97247 0 
C -7.97247 2.114324 -7.132441 4.142335 -5.637388 5.637388 
C -4.142335 7.132441 -2.114324 7.97247 0 7.97247 
z
" style="stroke: #000000"/>
    </defs>
    <g clip-path="url(#p04bf468e42)">
     <use xlink:href="#mcc3e085669" x="605.632248" y="184.007789" style="stroke: #000000"/>
    </g>
   </g>
   <g id="line2d_3">
    <defs>
     <path id="mabeb5eb809" d="M 0 7.88559 
C 2.091283 7.88559 4.097194 7.054714 5.575954 5.575954 
C 7.054714 4.097194 7.88559 2.091283 7.88559 0 
C 7.88559 -2.091283 7.054714 -4.097194 5.575954 -5.575954 
C 4.097194 -7.054714 2.091283 -7.88559 0 -7.88559 
C -2.091283 -7.88559 -4.097194 -7.054714 -5.575954 -5.575954 
C -7.054714 -4.097194 -7.88559 -2.091283 -7.88559 0 
C -7.88559 2.091283 -7.054714 4.097194 -5.575954 5.575954 
C -4.097194 7.054714 -2.091283 7.88559 0 7.88559 
z
" style="stroke: #000000"/>
    </defs>
    <g clip-path="url(#p04bf468e42)">
     <use xlink:href="#mabeb5eb809" x="390.561106" y="183.399508" style="stroke: #000000"/>
    </g>
   </g>
   <g id="line2d_4">
    <defs>
     <path id="m9b80a7047e" d="M 0 7.767744 
C 2.06003 7.767744 4.035963 6.949286 5.492624 5.492624 
C 6.949286 4.035963 7.767744 2.06003 7.767744 0 
C 7.767744 -2.06003 6.949286 -4.035963 5.492624 -5.492624 
C 4.035963 -6.949286 2.06003 -7.767744 0 -7.767744 
C -2.06003 -7.767744 -4.035963 -6.949286 -5.492624 -5.492624 
C -6.949286 -4.035963 -7.767744 -2.06003 -7.767744 0 
C -7.767744 2.06003 -6.949286 4.035963 -5.492624 5.492624 
C -4.035963 6.949286 -2.06003 7.767744 0 7.767744 
z
" style="stroke: #000000"/>
    </defs>
    <g clip-path="url(#p04bf468e42)">
     <use xlink:href="#m9b80a7047e" x="373.967606" y="178.936614" style="stroke: #000000"/>
    </g>
   </g>
   <g id="line2d_5">
    <defs>
     <path id="mfa0a0a339e" d="M 0 7.7349 
C 2.05132 7.7349 4.018899 6.919902 5.469401 5.469401 
C 6.919902 4.018899 7.7349 2.05132 7.7349 0 
C 7.7349 -2.05132 6.919902 -4.018899 5.469401 -5.469401 
C 4.018899 -6.919902 2.05132 -7.7349 0 -7.7349 
C -2.05132 -7.7349 -4.018899 -6.919902 -5.469401 -5.469401 
C -6.919902 -4.018899 -7.7349 -2.05132 -7.7349 0 
C -7.7349 2.05132 -6.919902 4.018899 -5.469401 5.469401 
C -4.018899 6.919902 -2.05132 7.7349 0 7.7349 
z
" style="stroke: #000000"/>
    </defs>
    <g clip-path="url(#p04bf468e42)">
     <use xlink:href="#mfa0a0a339e" x="132.367752" y="55.8" style="stroke: #000000"/>
    </g>
   </g>
   <g id="line2d_6">
    <defs>
     <path id="m3dd5073e22" d="M 0 7.63848 
C 2.025749 7.63848 3.968801 6.833642 5.401221 5.401221 
C 6.833642 3.968801 7.63848 2.025749 7.63848 0 
C 7.63848 -2.025749 6.833642 -3.968801 5.401221 -5.401221 
C 3.968801 -6.833642 2.025749 -7.63848 0 -7.63848 
C -2.025749 -7.63848 -3.968801 -6.833642 -5.401221 -5.401221 
C -6.833642 -3.968801 -7.63848 -2.025749 -7.63848 0 
C -7.63848 2.025749 -6.833642 3.968801 -5.401221 5.401221 
C -3.968801 6.833642 -2.025749 7.63848 0 7.63848 
z
" style="stroke: #000000"/>
    </defs>
    <g clip-path="url(#p04bf468e42)">
     <use xlink:href="#m3dd5073e22" x="441.965288" y="214.269453" style="stroke: #000000"/>
    </g>
   </g>
   <g id="line2d_7">
    <defs>
     <path id="m44a08727a3" d="M 0 7.560827 
C 2.005155 7.560827 3.928454 6.764171 5.346312 5.346312 
C 6.764171 3.928454 7.560827 2.005155 7.560827 0 
C 7.560827 -2.005155 6.764171 -3.928454 5.346312 -5.346312 
C 3.928454 -6.764171 2.005155 -7.560827 0 -7.560827 
C -2.005155 -7.560827 -3.928454 -6.764171 -5.346312 -5.346312 
C -6.764171 -3.928454 -7.560827 -2.005155 -7.560827 0 
C -7.560827 2.005155 -6.764171 3.928454 -5.346312 5.346312 
C -3.928454 6.764171 -2.005155 7.560827 0 7.560827 
z
" style="stroke: #000000"/>
    </defs>
    <g clip-path="url(#p04bf468e42)">
     <use xlink:href="#m44a08727a3" x="250.561706" y="186.756909" style="stroke: #000000"/>
    </g>
   </g>
   <g id="line2d_8">
    <defs>
     <path id="m3ff0dc40ed" d="M 0 7.545015 
C 2.000961 7.545015 3.920238 6.750024 5.335131 5.335131 
C 6.750024 3.920238 7.545015 2.000961 7.545015 0 
C 7.545015 -2.000961 6.750024 -3.920238 5.335131 -5.335131 
C 3.920238 -6.750024 2.000961 -7.545015 0 -7.545015 
C -2.000961 -7.545015 -3.920238 -6.750024 -5.335131 -5.335131 
C -6.750024 -3.920238 -7.545015 -2.000961 -7.545015 0 
C -7.545015 2.000961 -6.750024 3.920238 -5.335131 5.335131 
C -3.920238 6.750024 -2.000961 7.545015 0 7.545015 
z
" style="stroke: #000000"/>
    </defs>
    <g clip-path="url(#p04bf468e42)">
     <use xlink:href="#m3ff0dc40ed" x="475.349336" y="307.8" style="stroke: #000000"/>
    </g>
   </g>
   <g id="line2d_9">
    <defs>
     <path id="m3fcb629895" d="M 0 7.538971 
C 1.999359 7.538971 3.917098 6.744618 5.330858 5.330858 
C 6.744618 3.917098 7.538971 1.999359 7.538971 0 
C 7.538971 -1.999359 6.744618 -3.917098 5.330858 -5.330858 
C 3.917098 -6.744618 1.999359 -7.538971 0 -7.538971 
C -1.999359 -7.538971 -3.917098 -6.744618 -5.330858 -5.330858 
C -6.744618 -3.917098 -7.538971 -1.999359 -7.538971 0 
C -7.538971 1.999359 -6.744618 3.917098 -5.330858 5.330858 
C -3.917098 6.744618 -1.999359 7.538971 0 7.538971 
z
" style="stroke: #000000"/>
    </defs>
    <g clip-path="url(#p04bf468e42)">
     <use xlink:href="#m3fcb629895" x="408.585181" y="199.28051" style="stroke: #000000"/>
    </g>
   </g>
   <g id="line2d_10">
    <defs>
     <path id="mbb2bcb31bf" d="M 0 7.536066 
C 1.998588 7.536066 3.915588 6.742019 5.328804 5.328804 
C 6.742019 3.915588 7.536066 1.998588 7.536066 0 
C 7.536066 -1.998588 6.742019 -3.915588 5.328804 -5.328804 
C 3.915588 -6.742019 1.998588 -7.536066 0 -7.536066 
C -1.998588 -7.536066 -3.915588 -6.742019 -5.328804 -5.328804 
C -6.742019 -3.915588 -7.536066 -1.998588 -7.536066 0 
C -7.536066 1.998588 -6.742019 3.915588 -5.328804 5.328804 
C -3.915588 6.742019 -1.998588 7.536066 0 7.536066 
z
" style="stroke: #000000"/>
    </defs>
    <g clip-path="url(#p04bf468e42)">
     <use xlink:href="#mbb2bcb31bf" x="405.934872" y="189.732505" style="stroke: #000000"/>
    </g>
   </g>
  </g>
 </g>
 <defs>
  <clipPath id="p04bf468e42">
   <path d="M 108.704527 320.4 
L 108.704527 43.2 
L 629.295473 43.2 
L 629.295473 320.4 
L 108.704527 320.4 
"/>
  </clipPath>
 </defs>
</svg>
