<?xml version="1.0" encoding="utf-8" standalone="no"?>
<!DOCTYPE svg PUBLIC "-//W3C//DTD SVG 1.1//EN"
  "http://www.w3.org/Graphics/SVG/1.1/DTD/svg11.dtd">
<svg xmlns:xlink="http://www.w3.org/1999/xlink" width="572.4pt" height="273.248773pt" viewBox="0 0 572.4 273.248773" xmlns="http://www.w3.org/2000/svg" version="1.1">
 <metadata>
  <rdf:RDF xmlns:dc="http://purl.org/dc/elements/1.1/" xmlns:cc="http://creativecommons.org/ns#" xmlns:rdf="http://www.w3.org/1999/02/22-rdf-syntax-ns#">
   <cc:Work>
    <dc:type rdf:resource="http://purl.org/dc/dcmitype/StillImage"/>
    <dc:date>2023-11-30T20:51:28.980895</dc:date>
    <dc:format>image/svg+xml</dc:format>
    <dc:creator>
     <cc:Agent>
      <dc:title>Matplotlib v3.8.1, https://matplotlib.org/</dc:title>
     </cc:Agent>
    </dc:creator>
   </cc:Work>
  </rdf:RDF>
 </metadata>
 <defs>
  <style type="text/css">*{stroke-linejoin: round; stroke-linecap: butt}</style>
 </defs>
 <g id="figure_1">
  <g id="patch_1">
   <path d="M 0 273.248773 
L 572.4 273.248773 
L 572.4 0 
L 0 0 
z
" style="fill: #ffffff"/>
  </g>
  <g id="axes_1">
   <g id="patch_2">
    <path d="M 7.2 266.048773 
L 7.2 7.2 
L 565.2 7.2 
L 565.2 266.048773 
L 7.2 266.048773 
" style="fill: #ffffff"/>
   </g>
   <g id="line2d_1">
    <defs>
     <path id="m10c25b8b8a" d="M 0 3 
C 0.795609 3 1.55874 2.683901 2.12132 2.12132 
C 2.683901 1.55874 3 0.795609 3 0 
C 3 -0.795609 2.683901 -1.55874 2.12132 -2.12132 
C 1.55874 -2.683901 0.795609 -3 0 -3 
C -0.795609 -3 -1.55874 -2.683901 -2.12132 -2.12132 
C -2.683901 -1.55874 -3 -0.795609 -3 0 
C -3 0.795609 -2.683901 1.55874 -2.12132 2.12132 
C -1.55874 2.683901 -0.795609 3 0 3 
z
" style="stroke: #000000"/>
    </defs>
    <g clip-path="url(#p48f2a4e171)">
     <use xlink:href="#m10c25b8b8a" x="32.563636" y="18.965853" style="stroke: #000000"/>
    </g>
   </g>
   <g id="line2d_2">
    <g clip-path="url(#p48f2a4e171)">
     <use xlink:href="#m10c25b8b8a" x="496.172217" y="254.28292" style="stroke: #000000"/>
    </g>
   </g>
   <g id="line2d_3">
    <g clip-path="url(#p48f2a4e171)">
     <use xlink:href="#m10c25b8b8a" x="348.366784" y="152.078174" style="stroke: #000000"/>
    </g>
   </g>
   <g id="line2d_4">
    <g clip-path="url(#p48f2a4e171)">
     <use xlink:href="#m10c25b8b8a" x="465.314571" y="189.280862" style="stroke: #000000"/>
    </g>
   </g>
   <g id="line2d_5">
    <g clip-path="url(#p48f2a4e171)">
     <use xlink:href="#m10c25b8b8a" x="539.836364" y="245.031461" style="stroke: #000000"/>
    </g>
   </g>
   <g id="line2d_6">
    <g clip-path="url(#p48f2a4e171)">
     <use xlink:href="#m10c25b8b8a" x="203.565868" y="74.330563" style="stroke: #000000"/>
    </g>
   </g>
   <g id="line2d_7">
    <g clip-path="url(#p48f2a4e171)">
     <use xlink:href="#m10c25b8b8a" x="34.214035" y="22.399767" style="stroke: #000000"/>
    </g>
   </g>
   <g id="line2d_8">
    <g clip-path="url(#p48f2a4e171)">
     <use xlink:href="#m10c25b8b8a" x="32.98861" y="26.219894" style="stroke: #000000"/>
    </g>
   </g>
   <g id="line2d_9">
    <g clip-path="url(#p48f2a4e171)">
     <use xlink:href="#m10c25b8b8a" x="416.661752" y="183.67767" style="stroke: #000000"/>
    </g>
   </g>
   <g id="line2d_10">
    <g clip-path="url(#p48f2a4e171)">
     <use xlink:href="#m10c25b8b8a" x="438.405436" y="227.817836" style="stroke: #000000"/>
    </g>
   </g>
  </g>
 </g>
 <defs>
  <clipPath id="p48f2a4e171">
   <path d="M 7.2 266.048773 
L 7.2 7.2 
L 565.2 7.2 
L 565.2 266.048773 
L 7.2 266.048773 
"/>
  </clipPath>
 </defs>
</svg>
