<?xml version="1.0" encoding="utf-8" standalone="no"?>
<!DOCTYPE svg PUBLIC "-//W3C//DTD SVG 1.1//EN"
  "http://www.w3.org/Graphics/SVG/1.1/DTD/svg11.dtd">
<svg xmlns:xlink="http://www.w3.org/1999/xlink" width="720pt" height="360pt" viewBox="0 0 720 360" xmlns="http://www.w3.org/2000/svg" version="1.1">
 <metadata>
  <rdf:RDF xmlns:dc="http://purl.org/dc/elements/1.1/" xmlns:cc="http://creativecommons.org/ns#" xmlns:rdf="http://www.w3.org/1999/02/22-rdf-syntax-ns#">
   <cc:Work>
    <dc:type rdf:resource="http://purl.org/dc/dcmitype/StillImage"/>
    <dc:date>2023-11-30T21:30:45.955289</dc:date>
    <dc:format>image/svg+xml</dc:format>
    <dc:creator>
     <cc:Agent>
      <dc:title>Matplotlib v3.8.1, https://matplotlib.org/</dc:title>
     </cc:Agent>
    </dc:creator>
   </cc:Work>
  </rdf:RDF>
 </metadata>
 <defs>
  <style type="text/css">*{stroke-linejoin: round; stroke-linecap: butt}</style>
 </defs>
 <g id="figure_1">
  <g id="patch_1">
   <path d="M 0 360 
L 720 360 
L 720 0 
L 0 0 
z
" style="fill: #ffffff"/>
  </g>
  <g id="axes_1">
   <g id="patch_2">
    <path d="M 90 311.224387 
L 90 52.375613 
L 648 52.375613 
L 648 311.224387 
L 90 311.224387 
" style="fill: #ffffff"/>
   </g>
   <g id="line2d_1">
    <defs>
     <path id="mdf730e3f4d" d="M 0 10.522576 
C 2.79062 10.522576 5.467319 9.413851 7.440585 7.440585 
C 9.413851 5.467319 10.522576 2.79062 10.522576 0 
C 10.522576 -2.79062 9.413851 -5.467319 7.440585 -7.440585 
C 5.467319 -9.413851 2.79062 -10.522576 0 -10.522576 
C -2.79062 -10.522576 -5.467319 -9.413851 -7.440585 -7.440585 
C -9.413851 -5.467319 -10.522576 -2.79062 -10.522576 0 
C -10.522576 2.79062 -9.413851 5.467319 -7.440585 7.440585 
C -5.467319 9.413851 -2.79062 10.522576 0 10.522576 
z
" style="stroke: #000000"/>
    </defs>
    <g clip-path="url(#pc91ede3357)">
     <use xlink:href="#mdf730e3f4d" x="115.363636" y="64.141467" style="stroke: #000000"/>
    </g>
   </g>
   <g id="line2d_2">
    <defs>
     <path id="m4a2c9d6a6d" d="M 0 9.542189 
C 2.530618 9.542189 4.957929 8.536764 6.747346 6.747346 
C 8.536764 4.957929 9.542189 2.530618 9.542189 0 
C 9.542189 -2.530618 8.536764 -4.957929 6.747346 -6.747346 
C 4.957929 -8.536764 2.530618 -9.542189 0 -9.542189 
C -2.530618 -9.542189 -4.957929 -8.536764 -6.747346 -6.747346 
C -8.536764 -4.957929 -9.542189 -2.530618 -9.542189 0 
C -9.542189 2.530618 -8.536764 4.957929 -6.747346 6.747346 
C -4.957929 8.536764 -2.530618 9.542189 0 9.542189 
z
" style="stroke: #000000"/>
    </defs>
    <g clip-path="url(#pc91ede3357)">
     <use xlink:href="#m4a2c9d6a6d" x="578.972217" y="299.458533" style="stroke: #000000"/>
    </g>
   </g>
   <g id="line2d_3">
    <defs>
     <path id="mdcb56b3e70" d="M 0 9.203457 
C 2.440785 9.203457 4.781931 8.233723 6.507827 6.507827 
C 8.233723 4.781931 9.203457 2.440785 9.203457 0 
C 9.203457 -2.440785 8.233723 -4.781931 6.507827 -6.507827 
C 4.781931 -8.233723 2.440785 -9.203457 0 -9.203457 
C -2.440785 -9.203457 -4.781931 -8.233723 -6.507827 -6.507827 
C -8.233723 -4.781931 -9.203457 -2.440785 -9.203457 0 
C -9.203457 2.440785 -8.233723 4.781931 -6.507827 6.507827 
C -4.781931 8.233723 -2.440785 9.203457 0 9.203457 
z
" style="stroke: #000000"/>
    </defs>
    <g clip-path="url(#pc91ede3357)">
     <use xlink:href="#mdcb56b3e70" x="431.166784" y="197.253788" style="stroke: #000000"/>
    </g>
   </g>
   <g id="line2d_4">
    <defs>
     <path id="ma2a4be524b" d="M 0 9.141831 
C 2.424442 9.141831 4.749912 8.17859 6.464251 6.464251 
C 8.17859 4.749912 9.141831 2.424442 9.141831 0 
C 9.141831 -2.424442 8.17859 -4.749912 6.464251 -6.464251 
C 4.749912 -8.17859 2.424442 -9.141831 0 -9.141831 
C -2.424442 -9.141831 -4.749912 -8.17859 -6.464251 -6.464251 
C -8.17859 -4.749912 -9.141831 -2.424442 -9.141831 0 
C -9.141831 2.424442 -8.17859 4.749912 -6.464251 6.464251 
C -4.749912 8.17859 -2.424442 9.141831 0 9.141831 
z
" style="stroke: #000000"/>
    </defs>
    <g clip-path="url(#pc91ede3357)">
     <use xlink:href="#ma2a4be524b" x="548.114571" y="234.456475" style="stroke: #000000"/>
    </g>
   </g>
   <g id="line2d_5">
    <defs>
     <path id="me82fbc2b91" d="M 0 9.028747 
C 2.394452 9.028747 4.691155 8.077422 6.384288 6.384288 
C 8.077422 4.691155 9.028747 2.394452 9.028747 0 
C 9.028747 -2.394452 8.077422 -4.691155 6.384288 -6.384288 
C 4.691155 -8.077422 2.394452 -9.028747 0 -9.028747 
C -2.394452 -9.028747 -4.691155 -8.077422 -6.384288 -6.384288 
C -8.077422 -4.691155 -9.028747 -2.394452 -9.028747 0 
C -9.028747 2.394452 -8.077422 4.691155 -6.384288 6.384288 
C -4.691155 8.077422 -2.394452 9.028747 0 9.028747 
z
" style="stroke: #000000"/>
    </defs>
    <g clip-path="url(#pc91ede3357)">
     <use xlink:href="#me82fbc2b91" x="622.636364" y="290.207075" style="stroke: #000000"/>
    </g>
   </g>
   <g id="line2d_6">
    <defs>
     <path id="m2d39fb41aa" d="M 0 8.967263 
C 2.378146 8.967263 4.659209 8.022416 6.340812 6.340812 
C 8.022416 4.659209 8.967263 2.378146 8.967263 0 
C 8.967263 -2.378146 8.022416 -4.659209 6.340812 -6.340812 
C 4.659209 -8.022416 2.378146 -8.967263 0 -8.967263 
C -2.378146 -8.967263 -4.659209 -8.022416 -6.340812 -6.340812 
C -8.022416 -4.659209 -8.967263 -2.378146 -8.967263 0 
C -8.967263 2.378146 -8.022416 4.659209 -6.340812 6.340812 
C -4.659209 8.022416 -2.378146 8.967263 0 8.967263 
z
" style="stroke: #000000"/>
    </defs>
    <g clip-path="url(#pc91ede3357)">
     <use xlink:href="#m2d39fb41aa" x="286.365868" y="119.506177" style="stroke: #000000"/>
    </g>
   </g>
   <g id="line2d_7">
    <defs>
     <path id="mcaf8685581" d="M 0 8.8971 
C 2.359539 8.8971 4.622754 7.959645 6.2912 6.2912 
C 7.959645 4.622754 8.8971 2.359539 8.8971 0 
C 8.8971 -2.359539 7.959645 -4.622754 6.2912 -6.2912 
C 4.622754 -7.959645 2.359539 -8.8971 0 -8.8971 
C -2.359539 -8.8971 -4.622754 -7.959645 -6.2912 -6.2912 
C -7.959645 -4.622754 -8.8971 -2.359539 -8.8971 0 
C -8.8971 2.359539 -7.959645 4.622754 -6.2912 6.2912 
C -4.622754 7.959645 -2.359539 8.8971 0 8.8971 
z
" style="stroke: #000000"/>
    </defs>
    <g clip-path="url(#pc91ede3357)">
     <use xlink:href="#mcaf8685581" x="117.014035" y="67.575381" style="stroke: #000000"/>
    </g>
   </g>
   <g id="line2d_8">
    <defs>
     <path id="me9d1decf7c" d="M 0 8.8402 
C 2.344449 8.8402 4.59319 7.908741 6.250966 6.250966 
C 7.908741 4.59319 8.8402 2.344449 8.8402 0 
C 8.8402 -2.344449 7.908741 -4.59319 6.250966 -6.250966 
C 4.59319 -7.908741 2.344449 -8.8402 0 -8.8402 
C -2.344449 -8.8402 -4.59319 -7.908741 -6.250966 -6.250966 
C -7.908741 -4.59319 -8.8402 -2.344449 -8.8402 0 
C -8.8402 2.344449 -7.908741 4.59319 -6.250966 6.250966 
C -4.59319 7.908741 -2.344449 8.8402 0 8.8402 
z
" style="stroke: #000000"/>
    </defs>
    <g clip-path="url(#pc91ede3357)">
     <use xlink:href="#me9d1decf7c" x="115.78861" y="71.395507" style="stroke: #000000"/>
    </g>
   </g>
   <g id="line2d_9">
    <defs>
     <path id="m3dc11f66f5" d="M 0 8.81799 
C 2.338558 8.81799 4.58165 7.888871 6.235261 6.235261 
C 7.888871 4.58165 8.81799 2.338558 8.81799 0 
C 8.81799 -2.338558 7.888871 -4.58165 6.235261 -6.235261 
C 4.58165 -7.888871 2.338558 -8.81799 0 -8.81799 
C -2.338558 -8.81799 -4.58165 -7.888871 -6.235261 -6.235261 
C -7.888871 -4.58165 -8.81799 -2.338558 -8.81799 0 
C -8.81799 2.338558 -7.888871 4.58165 -6.235261 6.235261 
C -4.58165 7.888871 -2.338558 8.81799 0 8.81799 
z
" style="stroke: #000000"/>
    </defs>
    <g clip-path="url(#pc91ede3357)">
     <use xlink:href="#m3dc11f66f5" x="499.461752" y="228.853284" style="stroke: #000000"/>
    </g>
   </g>
   <g id="line2d_10">
    <defs>
     <path id="m055e4231e6" d="M 0 8.777748 
C 2.327886 8.777748 4.560741 7.852869 6.206805 6.206805 
C 7.852869 4.560741 8.777748 2.327886 8.777748 0 
C 8.777748 -2.327886 7.852869 -4.560741 6.206805 -6.206805 
C 4.560741 -7.852869 2.327886 -8.777748 0 -8.777748 
C -2.327886 -8.777748 -4.560741 -7.852869 -6.206805 -6.206805 
C -7.852869 -4.560741 -8.777748 -2.327886 -8.777748 0 
C -8.777748 2.327886 -7.852869 4.560741 -6.206805 6.206805 
C -4.560741 7.852869 -2.327886 8.777748 0 8.777748 
z
" style="stroke: #000000"/>
    </defs>
    <g clip-path="url(#pc91ede3357)">
     <use xlink:href="#m055e4231e6" x="521.205436" y="272.99345" style="stroke: #000000"/>
    </g>
   </g>
  </g>
 </g>
 <defs>
  <clipPath id="pc91ede3357">
   <path d="M 90 311.224387 
L 90 52.375613 
L 648 52.375613 
L 648 311.224387 
L 90 311.224387 
"/>
  </clipPath>
 </defs>
</svg>
