<?xml version="1.0" encoding="utf-8" standalone="no"?>
<!DOCTYPE svg PUBLIC "-//W3C//DTD SVG 1.1//EN"
  "http://www.w3.org/Graphics/SVG/1.1/DTD/svg11.dtd">
<svg xmlns:xlink="http://www.w3.org/1999/xlink" width="720pt" height="360pt" viewBox="0 0 720 360" xmlns="http://www.w3.org/2000/svg" version="1.1">
 <metadata>
  <rdf:RDF xmlns:dc="http://purl.org/dc/elements/1.1/" xmlns:cc="http://creativecommons.org/ns#" xmlns:rdf="http://www.w3.org/1999/02/22-rdf-syntax-ns#">
   <cc:Work>
    <dc:type rdf:resource="http://purl.org/dc/dcmitype/StillImage"/>
    <dc:date>2023-11-30T21:30:45.997707</dc:date>
    <dc:format>image/svg+xml</dc:format>
    <dc:creator>
     <cc:Agent>
      <dc:title>Matplotlib v3.8.1, https://matplotlib.org/</dc:title>
     </cc:Agent>
    </dc:creator>
   </cc:Work>
  </rdf:RDF>
 </metadata>
 <defs>
  <style type="text/css">*{stroke-linejoin: round; stroke-linecap: butt}</style>
 </defs>
 <g id="figure_1">
  <g id="patch_1">
   <path d="M 0 360 
L 720 360 
L 720 0 
L 0 0 
z
" style="fill: #ffffff"/>
  </g>
  <g id="axes_1">
   <g id="patch_2">
    <path d="M 229.793478 320.4 
L 229.793478 43.2 
L 508.206522 43.2 
L 508.206522 320.4 
L 229.793478 320.4 
" style="fill: #ffffff"/>
   </g>
   <g id="line2d_1">
    <defs>
     <path id="m03c796f7ad" d="M 0 8.395308 
C 2.226462 8.395308 4.362033 7.510725 5.936379 5.936379 
C 7.510725 4.362033 8.395308 2.226462 8.395308 0 
C 8.395308 -2.226462 7.510725 -4.362033 5.936379 -5.936379 
C 4.362033 -7.510725 2.226462 -8.395308 0 -8.395308 
C -2.226462 -8.395308 -4.362033 -7.510725 -5.936379 -5.936379 
C -7.510725 -4.362033 -8.395308 -2.226462 -8.395308 0 
C -8.395308 2.226462 -7.510725 4.362033 -5.936379 5.936379 
C -4.362033 7.510725 -2.226462 8.395308 0 8.395308 
z
" style="stroke: #000000"/>
    </defs>
    <g clip-path="url(#p431b095f10)">
     <use xlink:href="#m03c796f7ad" x="421.468093" y="302.660354" style="stroke: #000000"/>
    </g>
   </g>
   <g id="line2d_2">
    <defs>
     <path id="m343b23cda6" d="M 0 8.053813 
C 2.135896 8.053813 4.184599 7.205212 5.694906 5.694906 
C 7.205212 4.184599 8.053813 2.135896 8.053813 0 
C 8.053813 -2.135896 7.205212 -4.184599 5.694906 -5.694906 
C 4.184599 -7.205212 2.135896 -8.053813 0 -8.053813 
C -2.135896 -8.053813 -4.184599 -7.205212 -5.694906 -5.694906 
C -7.205212 -4.184599 -8.053813 -2.135896 -8.053813 0 
C -8.053813 2.135896 -7.205212 4.184599 -5.694906 5.694906 
C -4.184599 7.205212 -2.135896 8.053813 0 8.053813 
z
" style="stroke: #000000"/>
    </defs>
    <g clip-path="url(#p431b095f10)">
     <use xlink:href="#m343b23cda6" x="242.448616" y="55.8" style="stroke: #000000"/>
    </g>
   </g>
   <g id="line2d_3">
    <defs>
     <path id="m487cac605d" d="M 0 7.036401 
C 1.866075 7.036401 3.655972 6.295002 4.975487 4.975487 
C 6.295002 3.655972 7.036401 1.866075 7.036401 0 
C 7.036401 -1.866075 6.295002 -3.655972 4.975487 -4.975487 
C 3.655972 -6.295002 1.866075 -7.036401 0 -7.036401 
C -1.866075 -7.036401 -3.655972 -6.295002 -4.975487 -4.975487 
C -6.295002 -3.655972 -7.036401 -1.866075 -7.036401 0 
C -7.036401 1.866075 -6.295002 3.655972 -4.975487 4.975487 
C -3.655972 6.295002 -1.866075 7.036401 0 7.036401 
z
" style="stroke: #000000"/>
    </defs>
    <g clip-path="url(#p431b095f10)">
     <use xlink:href="#m487cac605d" x="495.551384" y="92.782846" style="stroke: #000000"/>
    </g>
   </g>
   <g id="line2d_4">
    <defs>
     <path id="m6272949710" d="M 0 6.953023 
C 1.843963 6.953023 3.612651 6.220408 4.916529 4.916529 
C 6.220408 3.612651 6.953023 1.843963 6.953023 0 
C 6.953023 -1.843963 6.220408 -3.612651 4.916529 -4.916529 
C 3.612651 -6.220408 1.843963 -6.953023 0 -6.953023 
C -1.843963 -6.953023 -3.612651 -6.220408 -4.916529 -4.916529 
C -6.220408 -3.612651 -6.953023 -1.843963 -6.953023 0 
C -6.953023 1.843963 -6.220408 3.612651 -4.916529 4.916529 
C -3.612651 6.220408 -1.843963 6.953023 0 6.953023 
z
" style="stroke: #000000"/>
    </defs>
    <g clip-path="url(#p431b095f10)">
     <use xlink:href="#m6272949710" x="326.232434" y="307.8" style="stroke: #000000"/>
    </g>
   </g>
   <g id="line2d_5">
    <defs>
     <path id="m46834071f8" d="M 0 6.60602 
C 1.751937 6.60602 3.432355 5.909968 4.671162 4.671162 
C 5.909968 3.432355 6.60602 1.751937 6.60602 0 
C 6.60602 -1.751937 5.909968 -3.432355 4.671162 -4.671162 
C 3.432355 -5.909968 1.751937 -6.60602 0 -6.60602 
C -1.751937 -6.60602 -3.432355 -5.909968 -4.671162 -4.671162 
C -5.909968 -3.432355 -6.60602 -1.751937 -6.60602 0 
C -6.60602 1.751937 -5.909968 3.432355 -4.671162 4.671162 
C -3.432355 5.909968 -1.751937 6.60602 0 6.60602 
z
" style="stroke: #000000"/>
    </defs>
    <g clip-path="url(#p431b095f10)">
     <use xlink:href="#m46834071f8" x="414.866515" y="277.335127" style="stroke: #000000"/>
    </g>
   </g>
   <g id="line2d_6">
    <defs>
     <path id="ma1bbe7e14b" d="M 0 6.594912 
C 1.748991 6.594912 3.426584 5.900031 4.663307 4.663307 
C 5.900031 3.426584 6.594912 1.748991 6.594912 0 
C 6.594912 -1.748991 5.900031 -3.426584 4.663307 -4.663307 
C 3.426584 -5.900031 1.748991 -6.594912 0 -6.594912 
C -1.748991 -6.594912 -3.426584 -5.900031 -4.663307 -4.663307 
C -5.900031 -3.426584 -6.594912 -1.748991 -6.594912 0 
C -6.594912 1.748991 -5.900031 3.426584 -4.663307 4.663307 
C -3.426584 5.900031 -1.748991 6.594912 0 6.594912 
z
" style="stroke: #000000"/>
    </defs>
    <g clip-path="url(#p431b095f10)">
     <use xlink:href="#ma1bbe7e14b" x="419.237484" y="276.811576" style="stroke: #000000"/>
    </g>
   </g>
   <g id="line2d_7">
    <defs>
     <path id="mfe840ec5aa" d="M 0 6.499824 
C 1.723773 6.499824 3.377178 5.814961 4.59607 4.59607 
C 5.814961 3.377178 6.499824 1.723773 6.499824 0 
C 6.499824 -1.723773 5.814961 -3.377178 4.59607 -4.59607 
C 3.377178 -5.814961 1.723773 -6.499824 0 -6.499824 
C -1.723773 -6.499824 -3.377178 -5.814961 -4.59607 -4.59607 
C -5.814961 -3.377178 -6.499824 -1.723773 -6.499824 0 
C -6.499824 1.723773 -5.814961 3.377178 -4.59607 4.59607 
C -3.377178 5.814961 -1.723773 6.499824 0 6.499824 
z
" style="stroke: #000000"/>
    </defs>
    <g clip-path="url(#p431b095f10)">
     <use xlink:href="#mfe840ec5aa" x="301.581095" y="307.102732" style="stroke: #000000"/>
    </g>
   </g>
   <g id="line2d_8">
    <defs>
     <path id="ma0da4b0583" d="M 0 6.476371 
C 1.717554 6.476371 3.364992 5.793979 4.579486 4.579486 
C 5.793979 3.364992 6.476371 1.717554 6.476371 0 
C 6.476371 -1.717554 5.793979 -3.364992 4.579486 -4.579486 
C 3.364992 -5.793979 1.717554 -6.476371 0 -6.476371 
C -1.717554 -6.476371 -3.364992 -5.793979 -4.579486 -4.579486 
C -5.793979 -3.364992 -6.476371 -1.717554 -6.476371 0 
C -6.476371 1.717554 -5.793979 3.364992 -4.579486 4.579486 
C -3.364992 5.793979 -1.717554 6.476371 0 6.476371 
z
" style="stroke: #000000"/>
    </defs>
    <g clip-path="url(#p431b095f10)">
     <use xlink:href="#ma0da4b0583" x="400.638913" y="281.519399" style="stroke: #000000"/>
    </g>
   </g>
   <g id="line2d_9">
    <defs>
     <path id="m48232751c8" d="M 0 6.329106 
C 1.678498 6.329106 3.288476 5.662231 4.475354 4.475354 
C 5.662231 3.288476 6.329106 1.678498 6.329106 0 
C 6.329106 -1.678498 5.662231 -3.288476 4.475354 -4.475354 
C 3.288476 -5.662231 1.678498 -6.329106 0 -6.329106 
C -1.678498 -6.329106 -3.288476 -5.662231 -4.475354 -4.475354 
C -5.662231 -3.288476 -6.329106 -1.678498 -6.329106 0 
C -6.329106 1.678498 -5.662231 3.288476 -4.475354 4.475354 
C -3.288476 5.662231 -1.678498 6.329106 0 6.329106 
z
" style="stroke: #000000"/>
    </defs>
    <g clip-path="url(#p431b095f10)">
     <use xlink:href="#m48232751c8" x="392.273825" y="259.063641" style="stroke: #000000"/>
    </g>
   </g>
   <g id="line2d_10">
    <defs>
     <path id="m6cd8c783b6" d="M 0 6.295995 
C 1.669717 6.295995 3.271272 5.632609 4.451941 4.451941 
C 5.632609 3.271272 6.295995 1.669717 6.295995 0 
C 6.295995 -1.669717 5.632609 -3.271272 4.451941 -4.451941 
C 3.271272 -5.632609 1.669717 -6.295995 0 -6.295995 
C -1.669717 -6.295995 -3.271272 -5.632609 -4.451941 -4.451941 
C -5.632609 -3.271272 -6.295995 -1.669717 -6.295995 0 
C -6.295995 1.669717 -5.632609 3.271272 -4.451941 4.451941 
C -3.271272 5.632609 -1.669717 6.295995 0 6.295995 
z
" style="stroke: #000000"/>
    </defs>
    <g clip-path="url(#p431b095f10)">
     <use xlink:href="#m6cd8c783b6" x="490.732829" y="72.882182" style="stroke: #000000"/>
    </g>
   </g>
  </g>
 </g>
 <defs>
  <clipPath id="p431b095f10">
   <path d="M 229.793478 320.4 
L 229.793478 43.2 
L 508.206522 43.2 
L 508.206522 320.4 
L 229.793478 320.4 
"/>
  </clipPath>
 </defs>
</svg>
