<?xml version="1.0" encoding="utf-8" standalone="no"?>
<!DOCTYPE svg PUBLIC "-//W3C//DTD SVG 1.1//EN"
  "http://www.w3.org/Graphics/SVG/1.1/DTD/svg11.dtd">
<svg xmlns:xlink="http://www.w3.org/1999/xlink" width="720pt" height="360pt" viewBox="0 0 720 360" xmlns="http://www.w3.org/2000/svg" version="1.1">
 <metadata>
  <rdf:RDF xmlns:dc="http://purl.org/dc/elements/1.1/" xmlns:cc="http://creativecommons.org/ns#" xmlns:rdf="http://www.w3.org/1999/02/22-rdf-syntax-ns#">
   <cc:Work>
    <dc:type rdf:resource="http://purl.org/dc/dcmitype/StillImage"/>
    <dc:date>2023-11-30T21:30:46.041545</dc:date>
    <dc:format>image/svg+xml</dc:format>
    <dc:creator>
     <cc:Agent>
      <dc:title>Matplotlib v3.8.1, https://matplotlib.org/</dc:title>
     </cc:Agent>
    </dc:creator>
   </cc:Work>
  </rdf:RDF>
 </metadata>
 <defs>
  <style type="text/css">*{stroke-linejoin: round; stroke-linecap: butt}</style>
 </defs>
 <g id="figure_1">
  <g id="patch_1">
   <path d="M 0 360 
L 720 360 
L 720 0 
L 0 0 
z
" style="fill: #ffffff"/>
  </g>
  <g id="axes_1">
   <g id="patch_2">
    <path d="M 103.824304 320.4 
L 103.824304 43.2 
L 634.175696 43.2 
L 634.175696 320.4 
L 103.824304 320.4 
" style="fill: #ffffff"/>
   </g>
   <g id="line2d_1">
    <defs>
     <path id="m7cfe507c1b" d="M 0 8.806452 
C 2.335498 8.806452 4.575655 7.878549 6.227102 6.227102 
C 7.878549 4.575655 8.806452 2.335498 8.806452 0 
C 8.806452 -2.335498 7.878549 -4.575655 6.227102 -6.227102 
C 4.575655 -7.878549 2.335498 -8.806452 0 -8.806452 
C -2.335498 -8.806452 -4.575655 -7.878549 -6.227102 -6.227102 
C -7.878549 -4.575655 -8.806452 -2.335498 -8.806452 0 
C -8.806452 2.335498 -7.878549 4.575655 -6.227102 6.227102 
C -4.575655 7.878549 -2.335498 8.806452 0 8.806452 
z
" style="stroke: #000000"/>
    </defs>
    <g clip-path="url(#p2c1fc3c84d)">
     <use xlink:href="#m7cfe507c1b" x="426.617869" y="118.200884" style="stroke: #000000"/>
    </g>
   </g>
   <g id="line2d_2">
    <defs>
     <path id="m1c22444838" d="M 0 8.61629 
C 2.285067 8.61629 4.476851 7.708423 6.092637 6.092637 
C 7.708423 4.476851 8.61629 2.285067 8.61629 0 
C 8.61629 -2.285067 7.708423 -4.476851 6.092637 -6.092637 
C 4.476851 -7.708423 2.285067 -8.61629 0 -8.61629 
C -2.285067 -8.61629 -4.476851 -7.708423 -6.092637 -6.092637 
C -7.708423 -4.476851 -8.61629 -2.285067 -8.61629 0 
C -8.61629 2.285067 -7.708423 4.476851 -6.092637 6.092637 
C -4.476851 7.708423 -2.285067 8.61629 0 8.61629 
z
" style="stroke: #000000"/>
    </defs>
    <g clip-path="url(#p2c1fc3c84d)">
     <use xlink:href="#m1c22444838" x="322.913969" y="307.8" style="stroke: #000000"/>
    </g>
   </g>
   <g id="line2d_3">
    <defs>
     <path id="m8d819b262d" d="M 0 8.067865 
C 2.139623 8.067865 4.1919 7.217784 5.704842 5.704842 
C 7.217784 4.1919 8.067865 2.139623 8.067865 0 
C 8.067865 -2.139623 7.217784 -4.1919 5.704842 -5.704842 
C 4.1919 -7.217784 2.139623 -8.067865 0 -8.067865 
C -2.139623 -8.067865 -4.1919 -7.217784 -5.704842 -5.704842 
C -7.217784 -4.1919 -8.067865 -2.139623 -8.067865 0 
C -8.067865 2.139623 -7.217784 4.1919 -5.704842 5.704842 
C -4.1919 7.217784 -2.139623 8.067865 0 8.067865 
z
" style="stroke: #000000"/>
    </defs>
    <g clip-path="url(#p2c1fc3c84d)">
     <use xlink:href="#m8d819b262d" x="508.974518" y="215.758337" style="stroke: #000000"/>
    </g>
   </g>
   <g id="line2d_4">
    <defs>
     <path id="maa25accd63" d="M 0 8.025615 
C 2.128418 8.025615 4.169948 7.179986 5.674967 5.674967 
C 7.179986 4.169948 8.025615 2.128418 8.025615 0 
C 8.025615 -2.128418 7.179986 -4.169948 5.674967 -5.674967 
C 4.169948 -7.179986 2.128418 -8.025615 0 -8.025615 
C -2.128418 -8.025615 -4.169948 -7.179986 -5.674967 -5.674967 
C -7.179986 -4.169948 -8.025615 -2.128418 -8.025615 0 
C -8.025615 2.128418 -7.179986 4.169948 -5.674967 5.674967 
C -4.169948 7.179986 -2.128418 8.025615 0 8.025615 
z
" style="stroke: #000000"/>
    </defs>
    <g clip-path="url(#p2c1fc3c84d)">
     <use xlink:href="#maa25accd63" x="416.967742" y="128.512138" style="stroke: #000000"/>
    </g>
   </g>
   <g id="line2d_5">
    <defs>
     <path id="mc1f4181c04" d="M 0 7.688046 
C 2.038894 7.688046 3.994554 6.877985 5.436269 5.436269 
C 6.877985 3.994554 7.688046 2.038894 7.688046 0 
C 7.688046 -2.038894 6.877985 -3.994554 5.436269 -5.436269 
C 3.994554 -6.877985 2.038894 -7.688046 0 -7.688046 
C -2.038894 -7.688046 -3.994554 -6.877985 -5.436269 -5.436269 
C -6.877985 -3.994554 -7.688046 -2.038894 -7.688046 0 
C -7.688046 2.038894 -6.877985 3.994554 -5.436269 5.436269 
C -3.994554 6.877985 -2.038894 7.688046 0 7.688046 
z
" style="stroke: #000000"/>
    </defs>
    <g clip-path="url(#p2c1fc3c84d)">
     <use xlink:href="#mc1f4181c04" x="610.068814" y="137.713527" style="stroke: #000000"/>
    </g>
   </g>
   <g id="line2d_6">
    <defs>
     <path id="m560c1480e5" d="M 0 7.643874 
C 2.027179 7.643874 3.971603 6.838467 5.405035 5.405035 
C 6.838467 3.971603 7.643874 2.027179 7.643874 0 
C 7.643874 -2.027179 6.838467 -3.971603 5.405035 -5.405035 
C 3.971603 -6.838467 2.027179 -7.643874 0 -7.643874 
C -2.027179 -7.643874 -3.971603 -6.838467 -5.405035 -5.405035 
C -6.838467 -3.971603 -7.643874 -2.027179 -7.643874 0 
C -7.643874 2.027179 -6.838467 3.971603 -5.405035 5.405035 
C -3.971603 6.838467 -2.027179 7.643874 0 7.643874 
z
" style="stroke: #000000"/>
    </defs>
    <g clip-path="url(#p2c1fc3c84d)">
     <use xlink:href="#m560c1480e5" x="414.281853" y="140.553105" style="stroke: #000000"/>
    </g>
   </g>
   <g id="line2d_7">
    <defs>
     <path id="m1c844fa938" d="M 0 7.567093 
C 2.006816 7.567093 3.931709 6.769776 5.350743 5.350743 
C 6.769776 3.931709 7.567093 2.006816 7.567093 0 
C 7.567093 -2.006816 6.769776 -3.931709 5.350743 -5.350743 
C 3.931709 -6.769776 2.006816 -7.567093 0 -7.567093 
C -2.006816 -7.567093 -3.931709 -6.769776 -5.350743 -5.350743 
C -6.769776 -3.931709 -7.567093 -2.006816 -7.567093 0 
C -7.567093 2.006816 -6.769776 3.931709 -5.350743 5.350743 
C -3.931709 6.769776 -2.006816 7.567093 0 7.567093 
z
" style="stroke: #000000"/>
    </defs>
    <g clip-path="url(#p2c1fc3c84d)">
     <use xlink:href="#m1c844fa938" x="127.931186" y="272.098124" style="stroke: #000000"/>
    </g>
   </g>
   <g id="line2d_8">
    <defs>
     <path id="m0eba28fbb6" d="M 0 7.35233 
C 1.949861 7.35233 3.820123 6.577642 5.198882 5.198882 
C 6.577642 3.820123 7.35233 1.949861 7.35233 0 
C 7.35233 -1.949861 6.577642 -3.820123 5.198882 -5.198882 
C 3.820123 -6.577642 1.949861 -7.35233 0 -7.35233 
C -1.949861 -7.35233 -3.820123 -6.577642 -5.198882 -5.198882 
C -6.577642 -3.820123 -7.35233 -1.949861 -7.35233 0 
C -7.35233 1.949861 -6.577642 3.820123 -5.198882 5.198882 
C -3.820123 6.577642 -1.949861 7.35233 0 7.35233 
z
" style="stroke: #000000"/>
    </defs>
    <g clip-path="url(#p2c1fc3c84d)">
     <use xlink:href="#m0eba28fbb6" x="411.707215" y="55.8" style="stroke: #000000"/>
    </g>
   </g>
   <g id="line2d_9">
    <defs>
     <path id="m67c0e13d1a" d="M 0 7.277504 
C 1.930017 7.277504 3.781245 6.5107 5.145973 5.145973 
C 6.5107 3.781245 7.277504 1.930017 7.277504 0 
C 7.277504 -1.930017 6.5107 -3.781245 5.145973 -5.145973 
C 3.781245 -6.5107 1.930017 -7.277504 0 -7.277504 
C -1.930017 -7.277504 -3.781245 -6.5107 -5.145973 -5.145973 
C -6.5107 -3.781245 -7.277504 -1.930017 -7.277504 0 
C -7.277504 1.930017 -6.5107 3.781245 -5.145973 5.145973 
C -3.781245 6.5107 -1.930017 7.277504 0 7.277504 
z
" style="stroke: #000000"/>
    </defs>
    <g clip-path="url(#p2c1fc3c84d)">
     <use xlink:href="#m67c0e13d1a" x="308.750279" y="109.148633" style="stroke: #000000"/>
    </g>
   </g>
   <g id="line2d_10">
    <defs>
     <path id="mda2e19c499" d="M 0 7.251913 
C 1.92323 7.251913 3.767948 6.487806 5.127877 5.127877 
C 6.487806 3.767948 7.251913 1.92323 7.251913 0 
C 7.251913 -1.92323 6.487806 -3.767948 5.127877 -5.127877 
C 3.767948 -6.487806 1.92323 -7.251913 0 -7.251913 
C -1.92323 -7.251913 -3.767948 -6.487806 -5.127877 -5.127877 
C -6.487806 -3.767948 -7.251913 -1.92323 -7.251913 0 
C -7.251913 1.92323 -6.487806 3.767948 -5.127877 5.127877 
C -3.767948 6.487806 -1.92323 7.251913 0 7.251913 
z
" style="stroke: #000000"/>
    </defs>
    <g clip-path="url(#p2c1fc3c84d)">
     <use xlink:href="#mda2e19c499" x="308.705779" y="302.739591" style="stroke: #000000"/>
    </g>
   </g>
  </g>
 </g>
 <defs>
  <clipPath id="p2c1fc3c84d">
   <path d="M 103.824304 320.4 
L 103.824304 43.2 
L 634.175696 43.2 
L 634.175696 320.4 
L 103.824304 320.4 
"/>
  </clipPath>
 </defs>
</svg>
