<?xml version="1.0" encoding="utf-8" standalone="no"?>
<!DOCTYPE svg PUBLIC "-//W3C//DTD SVG 1.1//EN"
  "http://www.w3.org/Graphics/SVG/1.1/DTD/svg11.dtd">
<svg xmlns:xlink="http://www.w3.org/1999/xlink" width="720pt" height="360pt" viewBox="0 0 720 360" xmlns="http://www.w3.org/2000/svg" version="1.1">
 <metadata>
  <rdf:RDF xmlns:dc="http://purl.org/dc/elements/1.1/" xmlns:cc="http://creativecommons.org/ns#" xmlns:rdf="http://www.w3.org/1999/02/22-rdf-syntax-ns#">
   <cc:Work>
    <dc:type rdf:resource="http://purl.org/dc/dcmitype/StillImage"/>
    <dc:date>2023-11-30T21:30:46.087096</dc:date>
    <dc:format>image/svg+xml</dc:format>
    <dc:creator>
     <cc:Agent>
      <dc:title>Matplotlib v3.8.1, https://matplotlib.org/</dc:title>
     </cc:Agent>
    </dc:creator>
   </cc:Work>
  </rdf:RDF>
 </metadata>
 <defs>
  <style type="text/css">*{stroke-linejoin: round; stroke-linecap: butt}</style>
 </defs>
 <g id="figure_1">
  <g id="patch_1">
   <path d="M 0 360 
L 720 360 
L 720 0 
L 0 0 
z
" style="fill: #ffffff"/>
  </g>
  <g id="axes_1">
   <g id="patch_2">
    <path d="M 123.958977 320.4 
L 123.958977 43.2 
L 614.041023 43.2 
L 614.041023 320.4 
L 123.958977 320.4 
" style="fill: #ffffff"/>
   </g>
   <g id="line2d_1">
    <defs>
     <path id="m6923b3678d" d="M 0 10.07631 
C 2.672269 10.07631 5.235448 9.014606 7.125027 7.125027 
C 9.014606 5.235448 10.07631 2.672269 10.07631 0 
C 10.07631 -2.672269 9.014606 -5.235448 7.125027 -7.125027 
C 5.235448 -9.014606 2.672269 -10.07631 0 -10.07631 
C -2.672269 -10.07631 -5.235448 -9.014606 -7.125027 -7.125027 
C -9.014606 -5.235448 -10.07631 -2.672269 -10.07631 0 
C -10.07631 2.672269 -9.014606 5.235448 -7.125027 7.125027 
C -5.235448 9.014606 -2.672269 10.07631 0 10.07631 
z
" style="stroke: #000000"/>
    </defs>
    <g clip-path="url(#pd8447b0060)">
     <use xlink:href="#m6923b3678d" x="240.998888" y="152.371395" style="stroke: #000000"/>
    </g>
   </g>
   <g id="line2d_2">
    <defs>
     <path id="ma29fd1a054" d="M 0 9.266807 
C 2.457586 9.266807 4.814847 8.290398 6.552622 6.552622 
C 8.290398 4.814847 9.266807 2.457586 9.266807 0 
C 9.266807 -2.457586 8.290398 -4.814847 6.552622 -6.552622 
C 4.814847 -8.290398 2.457586 -9.266807 0 -9.266807 
C -2.457586 -9.266807 -4.814847 -8.290398 -6.552622 -6.552622 
C -8.290398 -4.814847 -9.266807 -2.457586 -9.266807 0 
C -9.266807 2.457586 -8.290398 4.814847 -6.552622 6.552622 
C -4.814847 8.290398 -2.457586 9.266807 0 9.266807 
z
" style="stroke: #000000"/>
    </defs>
    <g clip-path="url(#pd8447b0060)">
     <use xlink:href="#ma29fd1a054" x="439.688103" y="277.269647" style="stroke: #000000"/>
    </g>
   </g>
   <g id="line2d_3">
    <defs>
     <path id="m14d03156c0" d="M 0 9.046998 
C 2.399292 9.046998 4.700638 8.093749 6.397193 6.397193 
C 8.093749 4.700638 9.046998 2.399292 9.046998 0 
C 9.046998 -2.399292 8.093749 -4.700638 6.397193 -6.397193 
C 4.700638 -8.093749 2.399292 -9.046998 0 -9.046998 
C -2.399292 -9.046998 -4.700638 -8.093749 -6.397193 -6.397193 
C -8.093749 -4.700638 -9.046998 -2.399292 -9.046998 0 
C -9.046998 2.399292 -8.093749 4.700638 -6.397193 6.397193 
C -4.700638 8.093749 -2.399292 9.046998 0 9.046998 
z
" style="stroke: #000000"/>
    </defs>
    <g clip-path="url(#pd8447b0060)">
     <use xlink:href="#m14d03156c0" x="591.764567" y="188.05351" style="stroke: #000000"/>
    </g>
   </g>
   <g id="line2d_4">
    <defs>
     <path id="mac992cb7e0" d="M 0 8.682196 
C 2.302545 8.682196 4.511094 7.767385 6.139239 6.139239 
C 7.767385 4.511094 8.682196 2.302545 8.682196 0 
C 8.682196 -2.302545 7.767385 -4.511094 6.139239 -6.139239 
C 4.511094 -7.767385 2.302545 -8.682196 0 -8.682196 
C -2.302545 -8.682196 -4.511094 -7.767385 -6.139239 -6.139239 
C -7.767385 -4.511094 -8.682196 -2.302545 -8.682196 0 
C -8.682196 2.302545 -7.767385 4.511094 -6.139239 6.139239 
C -4.511094 7.767385 -2.302545 8.682196 0 8.682196 
z
" style="stroke: #000000"/>
    </defs>
    <g clip-path="url(#pd8447b0060)">
     <use xlink:href="#mac992cb7e0" x="146.235433" y="200.286616" style="stroke: #000000"/>
    </g>
   </g>
   <g id="line2d_5">
    <defs>
     <path id="m5ae23c772d" d="M 0 8.325806 
C 2.20803 8.325806 4.325921 7.448547 5.887234 5.887234 
C 7.448547 4.325921 8.325806 2.20803 8.325806 0 
C 8.325806 -2.20803 7.448547 -4.325921 5.887234 -5.887234 
C 4.325921 -7.448547 2.20803 -8.325806 0 -8.325806 
C -2.20803 -8.325806 -4.325921 -7.448547 -5.887234 -5.887234 
C -7.448547 -4.325921 -8.325806 -2.20803 -8.325806 0 
C -8.325806 2.20803 -7.448547 4.325921 -5.887234 5.887234 
C -4.325921 7.448547 -2.20803 8.325806 0 8.325806 
z
" style="stroke: #000000"/>
    </defs>
    <g clip-path="url(#pd8447b0060)">
     <use xlink:href="#m5ae23c772d" x="298.722502" y="55.8" style="stroke: #000000"/>
    </g>
   </g>
   <g id="line2d_6">
    <defs>
     <path id="m59741fa7f9" d="M 0 8.301183 
C 2.201499 8.301183 4.313127 7.426518 5.869823 5.869823 
C 7.426518 4.313127 8.301183 2.201499 8.301183 0 
C 8.301183 -2.201499 7.426518 -4.313127 5.869823 -5.869823 
C 4.313127 -7.426518 2.201499 -8.301183 0 -8.301183 
C -2.201499 -8.301183 -4.313127 -7.426518 -5.869823 -5.869823 
C -7.426518 -4.313127 -8.301183 -2.201499 -8.301183 0 
C -8.301183 2.201499 -7.426518 4.313127 -5.869823 5.869823 
C -4.313127 7.426518 -2.201499 8.301183 0 8.301183 
z
" style="stroke: #000000"/>
    </defs>
    <g clip-path="url(#pd8447b0060)">
     <use xlink:href="#m59741fa7f9" x="498.171154" y="221.555516" style="stroke: #000000"/>
    </g>
   </g>
   <g id="line2d_7">
    <defs>
     <path id="m4602cfb3f1" d="M 0 8.255776 
C 2.189457 8.255776 4.289535 7.385895 5.837715 5.837715 
C 7.385895 4.289535 8.255776 2.189457 8.255776 0 
C 8.255776 -2.189457 7.385895 -4.289535 5.837715 -5.837715 
C 4.289535 -7.385895 2.189457 -8.255776 0 -8.255776 
C -2.189457 -8.255776 -4.289535 -7.385895 -5.837715 -5.837715 
C -7.385895 -4.289535 -8.255776 -2.189457 -8.255776 0 
C -8.255776 2.189457 -7.385895 4.289535 -5.837715 5.837715 
C -4.289535 7.385895 -2.189457 8.255776 0 8.255776 
z
" style="stroke: #000000"/>
    </defs>
    <g clip-path="url(#pd8447b0060)">
     <use xlink:href="#m4602cfb3f1" x="245.866193" y="307.8" style="stroke: #000000"/>
    </g>
   </g>
   <g id="line2d_8">
    <defs>
     <path id="m61d80cbe12" d="M 0 8.233588 
C 2.183573 8.233588 4.278007 7.366045 5.822026 5.822026 
C 7.366045 4.278007 8.233588 2.183573 8.233588 0 
C 8.233588 -2.183573 7.366045 -4.278007 5.822026 -5.822026 
C 4.278007 -7.366045 2.183573 -8.233588 0 -8.233588 
C -2.183573 -8.233588 -4.278007 -7.366045 -5.822026 -5.822026 
C -7.366045 -4.278007 -8.233588 -2.183573 -8.233588 0 
C -8.233588 2.183573 -7.366045 4.278007 -5.822026 5.822026 
C -4.278007 7.366045 -2.183573 8.233588 0 8.233588 
z
" style="stroke: #000000"/>
    </defs>
    <g clip-path="url(#pd8447b0060)">
     <use xlink:href="#m61d80cbe12" x="369.268438" y="135.238474" style="stroke: #000000"/>
    </g>
   </g>
   <g id="line2d_9">
    <defs>
     <path id="m62dd1f36bd" d="M 0 8.23185 
C 2.183112 8.23185 4.277104 7.36449 5.820797 5.820797 
C 7.36449 4.277104 8.23185 2.183112 8.23185 0 
C 8.23185 -2.183112 7.36449 -4.277104 5.820797 -5.820797 
C 4.277104 -7.36449 2.183112 -8.23185 0 -8.23185 
C -2.183112 -8.23185 -4.277104 -7.36449 -5.820797 -5.820797 
C -7.36449 -4.277104 -8.23185 -2.183112 -8.23185 0 
C -8.23185 2.183112 -7.36449 4.277104 -5.820797 5.820797 
C -4.277104 7.36449 -2.183112 8.23185 0 8.23185 
z
" style="stroke: #000000"/>
    </defs>
    <g clip-path="url(#pd8447b0060)">
     <use xlink:href="#m62dd1f36bd" x="205.707752" y="71.02511" style="stroke: #000000"/>
    </g>
   </g>
   <g id="line2d_10">
    <defs>
     <path id="m288b282701" d="M 0 8.216866 
C 2.179138 8.216866 4.269318 7.351085 5.810202 5.810202 
C 7.351085 4.269318 8.216866 2.179138 8.216866 0 
C 8.216866 -2.179138 7.351085 -4.269318 5.810202 -5.810202 
C 4.269318 -7.351085 2.179138 -8.216866 0 -8.216866 
C -2.179138 -8.216866 -4.269318 -7.351085 -5.810202 -5.810202 
C -7.351085 -4.269318 -8.216866 -2.179138 -8.216866 0 
C -8.216866 2.179138 -7.351085 4.269318 -5.810202 5.810202 
C -4.269318 7.351085 -2.179138 8.216866 0 8.216866 
z
" style="stroke: #000000"/>
    </defs>
    <g clip-path="url(#pd8447b0060)">
     <use xlink:href="#m288b282701" x="364.164944" y="159.045078" style="stroke: #000000"/>
    </g>
   </g>
  </g>
 </g>
 <defs>
  <clipPath id="pd8447b0060">
   <path d="M 123.958977 320.4 
L 123.958977 43.2 
L 614.041023 43.2 
L 614.041023 320.4 
L 123.958977 320.4 
"/>
  </clipPath>
 </defs>
</svg>
