<?xml version="1.0" encoding="utf-8" standalone="no"?>
<!DOCTYPE svg PUBLIC "-//W3C//DTD SVG 1.1//EN"
  "http://www.w3.org/Graphics/SVG/1.1/DTD/svg11.dtd">
<svg xmlns:xlink="http://www.w3.org/1999/xlink" width="720pt" height="360pt" viewBox="0 0 720 360" xmlns="http://www.w3.org/2000/svg" version="1.1">
 <metadata>
  <rdf:RDF xmlns:dc="http://purl.org/dc/elements/1.1/" xmlns:cc="http://creativecommons.org/ns#" xmlns:rdf="http://www.w3.org/1999/02/22-rdf-syntax-ns#">
   <cc:Work>
    <dc:type rdf:resource="http://purl.org/dc/dcmitype/StillImage"/>
    <dc:date>2023-11-30T21:30:44.656543</dc:date>
    <dc:format>image/svg+xml</dc:format>
    <dc:creator>
     <cc:Agent>
      <dc:title>Matplotlib v3.8.1, https://matplotlib.org/</dc:title>
     </cc:Agent>
    </dc:creator>
   </cc:Work>
  </rdf:RDF>
 </metadata>
 <defs>
  <style type="text/css">*{stroke-linejoin: round; stroke-linecap: butt}</style>
 </defs>
 <g id="figure_1">
  <g id="patch_1">
   <path d="M 0 360 
L 720 360 
L 720 0 
L 0 0 
z
" style="fill: #ffffff"/>
  </g>
  <g id="axes_1">
   <g id="patch_2">
    <path d="M 261.615602 320.4 
L 261.615602 43.2 
L 476.384398 43.2 
L 476.384398 320.4 
L 261.615602 320.4 
" style="fill: #ffffff"/>
   </g>
   <g id="line2d_1">
    <defs>
     <path id="meecb2bc492" d="M 0 10.854122 
C 2.878547 10.854122 5.639583 9.710463 7.675023 7.675023 
C 9.710463 5.639583 10.854122 2.878547 10.854122 0 
C 10.854122 -2.878547 9.710463 -5.639583 7.675023 -7.675023 
C 5.639583 -9.710463 2.878547 -10.854122 0 -10.854122 
C -2.878547 -10.854122 -5.639583 -9.710463 -7.675023 -7.675023 
C -9.710463 -5.639583 -10.854122 -2.878547 -10.854122 0 
C -10.854122 2.878547 -9.710463 5.639583 -7.675023 7.675023 
C -5.639583 9.710463 -2.878547 10.854122 0 10.854122 
z
" style="stroke: #000000"/>
    </defs>
    <g clip-path="url(#p095cd75124)">
     <use xlink:href="#meecb2bc492" x="466.62218" y="105.914444" style="stroke: #000000"/>
    </g>
   </g>
   <g id="line2d_2">
    <defs>
     <path id="m7bda2a4708" d="M 0 10.407685 
C 2.76015 10.407685 5.407623 9.311065 7.359344 7.359344 
C 9.311065 5.407623 10.407685 2.76015 10.407685 0 
C 10.407685 -2.76015 9.311065 -5.407623 7.359344 -7.359344 
C 5.407623 -9.311065 2.76015 -10.407685 0 -10.407685 
C -2.76015 -10.407685 -5.407623 -9.311065 -7.359344 -7.359344 
C -9.311065 -5.407623 -10.407685 -2.76015 -10.407685 0 
C -10.407685 2.76015 -9.311065 5.407623 -7.359344 7.359344 
C -5.407623 9.311065 -2.76015 10.407685 0 10.407685 
z
" style="stroke: #000000"/>
    </defs>
    <g clip-path="url(#p095cd75124)">
     <use xlink:href="#m7bda2a4708" x="366.047513" y="55.8" style="stroke: #000000"/>
    </g>
   </g>
   <g id="line2d_3">
    <defs>
     <path id="mcff43b7961" d="M 0 10.132721 
C 2.687229 10.132721 5.264758 9.065073 7.164915 7.164915 
C 9.065073 5.264758 10.132721 2.687229 10.132721 0 
C 10.132721 -2.687229 9.065073 -5.264758 7.164915 -7.164915 
C 5.264758 -9.065073 2.687229 -10.132721 0 -10.132721 
C -2.687229 -10.132721 -5.264758 -9.065073 -7.164915 -7.164915 
C -9.065073 -5.264758 -10.132721 -2.687229 -10.132721 0 
C -10.132721 2.687229 -9.065073 5.264758 -7.164915 7.164915 
C -5.264758 9.065073 -2.687229 10.132721 0 10.132721 
z
" style="stroke: #000000"/>
    </defs>
    <g clip-path="url(#p095cd75124)">
     <use xlink:href="#mcff43b7961" x="412.618377" y="307.8" style="stroke: #000000"/>
    </g>
   </g>
   <g id="line2d_4">
    <defs>
     <path id="m98180dd116" d="M 0 9.938885 
C 2.635823 9.938885 5.164044 8.891661 7.027853 7.027853 
C 8.891661 5.164044 9.938885 2.635823 9.938885 0 
C 9.938885 -2.635823 8.891661 -5.164044 7.027853 -7.027853 
C 5.164044 -8.891661 2.635823 -9.938885 0 -9.938885 
C -2.635823 -9.938885 -5.164044 -8.891661 -7.027853 -7.027853 
C -8.891661 -5.164044 -9.938885 -2.635823 -9.938885 0 
C -9.938885 2.635823 -8.891661 5.164044 -7.027853 7.027853 
C -5.164044 8.891661 -2.635823 9.938885 0 9.938885 
z
" style="stroke: #000000"/>
    </defs>
    <g clip-path="url(#p095cd75124)">
     <use xlink:href="#m98180dd116" x="276.493796" y="181.325953" style="stroke: #000000"/>
    </g>
   </g>
   <g id="line2d_5">
    <defs>
     <path id="mbc4ae43e3a" d="M 0 9.655041 
C 2.560547 9.655041 5.016565 8.637725 6.827145 6.827145 
C 8.637725 5.016565 9.655041 2.560547 9.655041 0 
C 9.655041 -2.560547 8.637725 -5.016565 6.827145 -6.827145 
C 5.016565 -8.637725 2.560547 -9.655041 0 -9.655041 
C -2.560547 -9.655041 -5.016565 -8.637725 -6.827145 -6.827145 
C -8.637725 -5.016565 -9.655041 -2.560547 -9.655041 0 
C -9.655041 2.560547 -8.637725 5.016565 -6.827145 6.827145 
C -5.016565 8.637725 -2.560547 9.655041 0 9.655041 
z
" style="stroke: #000000"/>
    </defs>
    <g clip-path="url(#p095cd75124)">
     <use xlink:href="#mbc4ae43e3a" x="327.529073" y="219.081312" style="stroke: #000000"/>
    </g>
   </g>
   <g id="line2d_6">
    <defs>
     <path id="m19eb068281" d="M 0 9.632846 
C 2.554661 9.632846 5.005033 8.617869 6.811451 6.811451 
C 8.617869 5.005033 9.632846 2.554661 9.632846 0 
C 9.632846 -2.554661 8.617869 -5.005033 6.811451 -6.811451 
C 5.005033 -8.617869 2.554661 -9.632846 0 -9.632846 
C -2.554661 -9.632846 -5.005033 -8.617869 -6.811451 -6.811451 
C -8.617869 -5.005033 -9.632846 -2.554661 -9.632846 0 
C -9.632846 2.554661 -8.617869 5.005033 -6.811451 6.811451 
C -5.005033 8.617869 -2.554661 9.632846 0 9.632846 
z
" style="stroke: #000000"/>
    </defs>
    <g clip-path="url(#p095cd75124)">
     <use xlink:href="#m19eb068281" x="342.033266" y="279.264908" style="stroke: #000000"/>
    </g>
   </g>
   <g id="line2d_7">
    <defs>
     <path id="m821c58a8a9" d="M 0 9.621564 
C 2.551669 9.621564 4.999171 8.607775 6.803473 6.803473 
C 8.607775 4.999171 9.621564 2.551669 9.621564 0 
C 9.621564 -2.551669 8.607775 -4.999171 6.803473 -6.803473 
C 4.999171 -8.607775 2.551669 -9.621564 0 -9.621564 
C -2.551669 -9.621564 -4.999171 -8.607775 -6.803473 -6.803473 
C -8.607775 -4.999171 -9.621564 -2.551669 -9.621564 0 
C -9.621564 2.551669 -8.607775 4.999171 -6.803473 6.803473 
C -4.999171 8.607775 -2.551669 9.621564 0 9.621564 
z
" style="stroke: #000000"/>
    </defs>
    <g clip-path="url(#p095cd75124)">
     <use xlink:href="#m821c58a8a9" x="271.37782" y="167.853026" style="stroke: #000000"/>
    </g>
   </g>
   <g id="line2d_8">
    <defs>
     <path id="m653ce367bb" d="M 0 9.594282 
C 2.544433 9.594282 4.984996 8.583368 6.784182 6.784182 
C 8.583368 4.984996 9.594282 2.544433 9.594282 0 
C 9.594282 -2.544433 8.583368 -4.984996 6.784182 -6.784182 
C 4.984996 -8.583368 2.544433 -9.594282 0 -9.594282 
C -2.544433 -9.594282 -4.984996 -8.583368 -6.784182 -6.784182 
C -8.583368 -4.984996 -9.594282 -2.544433 -9.594282 0 
C -9.594282 2.544433 -8.583368 4.984996 -6.784182 6.784182 
C -4.984996 8.583368 -2.544433 9.594282 0 9.594282 
z
" style="stroke: #000000"/>
    </defs>
    <g clip-path="url(#p095cd75124)">
     <use xlink:href="#m653ce367bb" x="434.623491" y="164.112323" style="stroke: #000000"/>
    </g>
   </g>
   <g id="line2d_9">
    <g clip-path="url(#p095cd75124)">
     <use xlink:href="#m653ce367bb" x="434.522548" y="163.445112" style="stroke: #000000"/>
    </g>
   </g>
   <g id="line2d_10">
    <defs>
     <path id="m6a4baa70d8" d="M 0 9.588941 
C 2.543017 9.588941 4.982221 8.57859 6.780405 6.780405 
C 8.57859 4.982221 9.588941 2.543017 9.588941 0 
C 9.588941 -2.543017 8.57859 -4.982221 6.780405 -6.780405 
C 4.982221 -8.57859 2.543017 -9.588941 0 -9.588941 
C -2.543017 -9.588941 -4.982221 -8.57859 -6.780405 -6.780405 
C -8.57859 -4.982221 -9.588941 -2.543017 -9.588941 0 
C -9.588941 2.543017 -8.57859 4.982221 -6.780405 6.780405 
C -4.982221 8.57859 -2.543017 9.588941 0 9.588941 
z
" style="stroke: #000000"/>
    </defs>
    <g clip-path="url(#p095cd75124)">
     <use xlink:href="#m6a4baa70d8" x="278.326648" y="156.818546" style="stroke: #000000"/>
    </g>
   </g>
  </g>
 </g>
 <defs>
  <clipPath id="p095cd75124">
   <path d="M 261.615602 320.4 
L 261.615602 43.2 
L 476.384398 43.2 
L 476.384398 320.4 
L 261.615602 320.4 
"/>
  </clipPath>
 </defs>
</svg>
