<?xml version="1.0" encoding="utf-8" standalone="no"?>
<!DOCTYPE svg PUBLIC "-//W3C//DTD SVG 1.1//EN"
  "http://www.w3.org/Graphics/SVG/1.1/DTD/svg11.dtd">
<svg xmlns:xlink="http://www.w3.org/1999/xlink" width="720pt" height="360pt" viewBox="0 0 720 360" xmlns="http://www.w3.org/2000/svg" version="1.1">
 <metadata>
  <rdf:RDF xmlns:dc="http://purl.org/dc/elements/1.1/" xmlns:cc="http://creativecommons.org/ns#" xmlns:rdf="http://www.w3.org/1999/02/22-rdf-syntax-ns#">
   <cc:Work>
    <dc:type rdf:resource="http://purl.org/dc/dcmitype/StillImage"/>
    <dc:date>2023-11-30T21:30:44.695561</dc:date>
    <dc:format>image/svg+xml</dc:format>
    <dc:creator>
     <cc:Agent>
      <dc:title>Matplotlib v3.8.1, https://matplotlib.org/</dc:title>
     </cc:Agent>
    </dc:creator>
   </cc:Work>
  </rdf:RDF>
 </metadata>
 <defs>
  <style type="text/css">*{stroke-linejoin: round; stroke-linecap: butt}</style>
 </defs>
 <g id="figure_1">
  <g id="patch_1">
   <path d="M 0 360 
L 720 360 
L 720 0 
L 0 0 
z
" style="fill: #ffffff"/>
  </g>
  <g id="axes_1">
   <g id="patch_2">
    <path d="M 179.257167 320.4 
L 179.257167 43.2 
L 558.742833 43.2 
L 558.742833 320.4 
L 179.257167 320.4 
" style="fill: #ffffff"/>
   </g>
   <g id="line2d_1">
    <defs>
     <path id="mbb5d78e78f" d="M 0 9.625468 
C 2.552704 9.625468 5.0012 8.611268 6.806234 6.806234 
C 8.611268 5.0012 9.625468 2.552704 9.625468 0 
C 9.625468 -2.552704 8.611268 -5.0012 6.806234 -6.806234 
C 5.0012 -8.611268 2.552704 -9.625468 0 -9.625468 
C -2.552704 -9.625468 -5.0012 -8.611268 -6.806234 -6.806234 
C -8.611268 -5.0012 -9.625468 -2.552704 -9.625468 0 
C -9.625468 2.552704 -8.611268 5.0012 -6.806234 6.806234 
C -5.0012 8.611268 -2.552704 9.625468 0 9.625468 
z
" style="stroke: #000000"/>
    </defs>
    <g clip-path="url(#p56b7e8361e)">
     <use xlink:href="#mbb5d78e78f" x="507.447093" y="191.172581" style="stroke: #000000"/>
    </g>
   </g>
   <g id="line2d_2">
    <defs>
     <path id="m3a9f77eb26" d="M 0 7.873585 
C 2.088099 7.873585 4.090956 7.043975 5.567465 5.567465 
C 7.043975 4.090956 7.873585 2.088099 7.873585 0 
C 7.873585 -2.088099 7.043975 -4.090956 5.567465 -5.567465 
C 4.090956 -7.043975 2.088099 -7.873585 0 -7.873585 
C -2.088099 -7.873585 -4.090956 -7.043975 -5.567465 -5.567465 
C -7.043975 -4.090956 -7.873585 -2.088099 -7.873585 0 
C -7.873585 2.088099 -7.043975 4.090956 -5.567465 5.567465 
C -4.090956 7.043975 -2.088099 7.873585 0 7.873585 
z
" style="stroke: #000000"/>
    </defs>
    <g clip-path="url(#p56b7e8361e)">
     <use xlink:href="#m3a9f77eb26" x="404.6974" y="295.462287" style="stroke: #000000"/>
    </g>
   </g>
   <g id="line2d_3">
    <defs>
     <path id="m1f0b19cc49" d="M 0 7.218941 
C 1.914486 7.218941 3.750816 6.458308 5.104562 5.104562 
C 6.458308 3.750816 7.218941 1.914486 7.218941 0 
C 7.218941 -1.914486 6.458308 -3.750816 5.104562 -5.104562 
C 3.750816 -6.458308 1.914486 -7.218941 0 -7.218941 
C -1.914486 -7.218941 -3.750816 -6.458308 -5.104562 -5.104562 
C -6.458308 -3.750816 -7.218941 -1.914486 -7.218941 0 
C -7.218941 1.914486 -6.458308 3.750816 -5.104562 5.104562 
C -3.750816 6.458308 -1.914486 7.218941 0 7.218941 
z
" style="stroke: #000000"/>
    </defs>
    <g clip-path="url(#p56b7e8361e)">
     <use xlink:href="#m1f0b19cc49" x="445.015246" y="143.263496" style="stroke: #000000"/>
    </g>
   </g>
   <g id="line2d_4">
    <defs>
     <path id="mdc7e4f6b8f" d="M 0 7.058862 
C 1.872032 7.058862 3.667643 6.315096 4.991369 4.991369 
C 6.315096 3.667643 7.058862 1.872032 7.058862 0 
C 7.058862 -1.872032 6.315096 -3.667643 4.991369 -4.991369 
C 3.667643 -6.315096 1.872032 -7.058862 0 -7.058862 
C -1.872032 -7.058862 -3.667643 -6.315096 -4.991369 -4.991369 
C -6.315096 -3.667643 -7.058862 -1.872032 -7.058862 0 
C -7.058862 1.872032 -6.315096 3.667643 -4.991369 4.991369 
C -3.667643 6.315096 -1.872032 7.058862 0 7.058862 
z
" style="stroke: #000000"/>
    </defs>
    <g clip-path="url(#p56b7e8361e)">
     <use xlink:href="#mdc7e4f6b8f" x="541.493485" y="100.053282" style="stroke: #000000"/>
    </g>
   </g>
   <g id="line2d_5">
    <defs>
     <path id="m281a4cf0a9" d="M 0 6.778013 
C 1.79755 6.778013 3.521719 6.063839 4.792779 4.792779 
C 6.063839 3.521719 6.778013 1.79755 6.778013 0 
C 6.778013 -1.79755 6.063839 -3.521719 4.792779 -4.792779 
C 3.521719 -6.063839 1.79755 -6.778013 0 -6.778013 
C -1.79755 -6.778013 -3.521719 -6.063839 -4.792779 -4.792779 
C -6.063839 -3.521719 -6.778013 -1.79755 -6.778013 0 
C -6.778013 1.79755 -6.063839 3.521719 -4.792779 4.792779 
C -3.521719 6.063839 -1.79755 6.778013 0 6.778013 
z
" style="stroke: #000000"/>
    </defs>
    <g clip-path="url(#p56b7e8361e)">
     <use xlink:href="#m281a4cf0a9" x="323.265899" y="307.8" style="stroke: #000000"/>
    </g>
   </g>
   <g id="line2d_6">
    <defs>
     <path id="mabd8b4a6a1" d="M 0 6.278492 
C 1.665076 6.278492 3.262178 5.616951 4.439565 4.439565 
C 5.616951 3.262178 6.278492 1.665076 6.278492 0 
C 6.278492 -1.665076 5.616951 -3.262178 4.439565 -4.439565 
C 3.262178 -5.616951 1.665076 -6.278492 0 -6.278492 
C -1.665076 -6.278492 -3.262178 -5.616951 -4.439565 -4.439565 
C -5.616951 -3.262178 -6.278492 -1.665076 -6.278492 0 
C -6.278492 1.665076 -5.616951 3.262178 -4.439565 4.439565 
C -3.262178 5.616951 -1.665076 6.278492 0 6.278492 
z
" style="stroke: #000000"/>
    </defs>
    <g clip-path="url(#p56b7e8361e)">
     <use xlink:href="#mabd8b4a6a1" x="437.822078" y="206.25856" style="stroke: #000000"/>
    </g>
   </g>
   <g id="line2d_7">
    <defs>
     <path id="mebe2327839" d="M 0 5.89068 
C 1.562227 5.89068 3.060679 5.270001 4.16534 4.16534 
C 5.270001 3.060679 5.89068 1.562227 5.89068 0 
C 5.89068 -1.562227 5.270001 -3.060679 4.16534 -4.16534 
C 3.060679 -5.270001 1.562227 -5.89068 0 -5.89068 
C -1.562227 -5.89068 -3.060679 -5.270001 -4.16534 -4.16534 
C -5.270001 -3.060679 -5.89068 -1.562227 -5.89068 0 
C -5.89068 1.562227 -5.270001 3.060679 -4.16534 4.16534 
C -3.060679 5.270001 -1.562227 5.89068 0 5.89068 
z
" style="stroke: #000000"/>
    </defs>
    <g clip-path="url(#p56b7e8361e)">
     <use xlink:href="#mebe2327839" x="456.232596" y="258.296262" style="stroke: #000000"/>
    </g>
   </g>
   <g id="line2d_8">
    <defs>
     <path id="m74e74706c6" d="M 0 5.484333 
C 1.454462 5.484333 2.849549 4.906469 3.878009 3.878009 
C 4.906469 2.849549 5.484333 1.454462 5.484333 0 
C 5.484333 -1.454462 4.906469 -2.849549 3.878009 -3.878009 
C 2.849549 -4.906469 1.454462 -5.484333 0 -5.484333 
C -1.454462 -5.484333 -2.849549 -4.906469 -3.878009 -3.878009 
C -4.906469 -2.849549 -5.484333 -1.454462 -5.484333 0 
C -5.484333 1.454462 -4.906469 2.849549 -3.878009 3.878009 
C -2.849549 4.906469 -1.454462 5.484333 0 5.484333 
z
" style="stroke: #000000"/>
    </defs>
    <g clip-path="url(#p56b7e8361e)">
     <use xlink:href="#m74e74706c6" x="473.060997" y="230.944814" style="stroke: #000000"/>
    </g>
   </g>
   <g id="line2d_9">
    <defs>
     <path id="md0207b9f70" d="M 0 5.435953 
C 1.441631 5.435953 2.824412 4.863186 3.843799 3.843799 
C 4.863186 2.824412 5.435953 1.441631 5.435953 0 
C 5.435953 -1.441631 4.863186 -2.824412 3.843799 -3.843799 
C 2.824412 -4.863186 1.441631 -5.435953 0 -5.435953 
C -1.441631 -5.435953 -2.824412 -4.863186 -3.843799 -3.843799 
C -4.863186 -2.824412 -5.435953 -1.441631 -5.435953 0 
C -5.435953 1.441631 -4.863186 2.824412 -3.843799 3.843799 
C -2.824412 4.863186 -1.441631 5.435953 0 5.435953 
z
" style="stroke: #000000"/>
    </defs>
    <g clip-path="url(#p56b7e8361e)">
     <use xlink:href="#md0207b9f70" x="348.57264" y="55.8" style="stroke: #000000"/>
    </g>
   </g>
   <g id="line2d_10">
    <defs>
     <path id="m5408502108" d="M 0 5.426655 
C 1.439166 5.426655 2.819581 4.854868 3.837224 3.837224 
C 4.854868 2.819581 5.426655 1.439166 5.426655 0 
C 5.426655 -1.439166 4.854868 -2.819581 3.837224 -3.837224 
C 2.819581 -4.854868 1.439166 -5.426655 0 -5.426655 
C -1.439166 -5.426655 -2.819581 -4.854868 -3.837224 -3.837224 
C -4.854868 -2.819581 -5.426655 -1.439166 -5.426655 0 
C -5.426655 1.439166 -4.854868 2.819581 -3.837224 3.837224 
C -2.819581 4.854868 -1.439166 5.426655 0 5.426655 
z
" style="stroke: #000000"/>
    </defs>
    <g clip-path="url(#p56b7e8361e)">
     <use xlink:href="#m5408502108" x="196.506515" y="160.609467" style="stroke: #000000"/>
    </g>
   </g>
  </g>
 </g>
 <defs>
  <clipPath id="p56b7e8361e">
   <path d="M 179.257167 320.4 
L 179.257167 43.2 
L 558.742833 43.2 
L 558.742833 320.4 
L 179.257167 320.4 
"/>
  </clipPath>
 </defs>
</svg>
