<?xml version="1.0" encoding="utf-8" standalone="no"?>
<!DOCTYPE svg PUBLIC "-//W3C//DTD SVG 1.1//EN"
  "http://www.w3.org/Graphics/SVG/1.1/DTD/svg11.dtd">
<svg xmlns:xlink="http://www.w3.org/1999/xlink" width="720pt" height="360pt" viewBox="0 0 720 360" xmlns="http://www.w3.org/2000/svg" version="1.1">
 <metadata>
  <rdf:RDF xmlns:dc="http://purl.org/dc/elements/1.1/" xmlns:cc="http://creativecommons.org/ns#" xmlns:rdf="http://www.w3.org/1999/02/22-rdf-syntax-ns#">
   <cc:Work>
    <dc:type rdf:resource="http://purl.org/dc/dcmitype/StillImage"/>
    <dc:date>2023-11-30T21:30:44.736911</dc:date>
    <dc:format>image/svg+xml</dc:format>
    <dc:creator>
     <cc:Agent>
      <dc:title>Matplotlib v3.8.1, https://matplotlib.org/</dc:title>
     </cc:Agent>
    </dc:creator>
   </cc:Work>
  </rdf:RDF>
 </metadata>
 <defs>
  <style type="text/css">*{stroke-linejoin: round; stroke-linecap: butt}</style>
 </defs>
 <g id="figure_1">
  <g id="patch_1">
   <path d="M 0 360 
L 720 360 
L 720 0 
L 0 0 
z
" style="fill: #ffffff"/>
  </g>
  <g id="axes_1">
   <g id="patch_2">
    <path d="M 176.759953 320.4 
L 176.759953 43.2 
L 561.240047 43.2 
L 561.240047 320.4 
L 176.759953 320.4 
" style="fill: #ffffff"/>
   </g>
   <g id="line2d_1">
    <defs>
     <path id="m8d6c21829a" d="M 0 10.068866 
C 2.670294 10.068866 5.23158 9.007947 7.119763 7.119763 
C 9.007947 5.23158 10.068866 2.670294 10.068866 0 
C 10.068866 -2.670294 9.007947 -5.23158 7.119763 -7.119763 
C 5.23158 -9.007947 2.670294 -10.068866 0 -10.068866 
C -2.670294 -10.068866 -5.23158 -9.007947 -7.119763 -7.119763 
C -9.007947 -5.23158 -10.068866 -2.670294 -10.068866 0 
C -10.068866 2.670294 -9.007947 5.23158 -7.119763 7.119763 
C -5.23158 9.007947 -2.670294 10.068866 0 10.068866 
z
" style="stroke: #000000"/>
    </defs>
    <g clip-path="url(#p1f73af7fbf)">
     <use xlink:href="#m8d6c21829a" x="543.763679" y="265.848701" style="stroke: #000000"/>
    </g>
   </g>
   <g id="line2d_2">
    <defs>
     <path id="me6c847a7b6" d="M 0 9.060994 
C 2.403004 9.060994 4.70791 8.106271 6.407091 6.407091 
C 8.106271 4.70791 9.060994 2.403004 9.060994 0 
C 9.060994 -2.403004 8.106271 -4.70791 6.407091 -6.407091 
C 4.70791 -8.106271 2.403004 -9.060994 0 -9.060994 
C -2.403004 -9.060994 -4.70791 -8.106271 -6.407091 -6.407091 
C -8.106271 -4.70791 -9.060994 -2.403004 -9.060994 0 
C -9.060994 2.403004 -8.106271 4.70791 -6.407091 6.407091 
C -4.70791 8.106271 -2.403004 9.060994 0 9.060994 
z
" style="stroke: #000000"/>
    </defs>
    <g clip-path="url(#p1f73af7fbf)">
     <use xlink:href="#me6c847a7b6" x="343.684787" y="193.103298" style="stroke: #000000"/>
    </g>
   </g>
   <g id="line2d_3">
    <defs>
     <path id="m289f70e30b" d="M 0 8.732273 
C 2.315826 8.732273 4.537113 7.812186 6.174649 6.174649 
C 7.812186 4.537113 8.732273 2.315826 8.732273 0 
C 8.732273 -2.315826 7.812186 -4.537113 6.174649 -6.174649 
C 4.537113 -7.812186 2.315826 -8.732273 0 -8.732273 
C -2.315826 -8.732273 -4.537113 -7.812186 -6.174649 -6.174649 
C -7.812186 -4.537113 -8.732273 -2.315826 -8.732273 0 
C -8.732273 2.315826 -7.812186 4.537113 -6.174649 6.174649 
C -4.537113 7.812186 -2.315826 8.732273 0 8.732273 
z
" style="stroke: #000000"/>
    </defs>
    <g clip-path="url(#p1f73af7fbf)">
     <use xlink:href="#m289f70e30b" x="358.770764" y="307.8" style="stroke: #000000"/>
    </g>
   </g>
   <g id="line2d_4">
    <defs>
     <path id="m3191cecba4" d="M 0 8.562515 
C 2.270806 8.562515 4.44891 7.660314 6.054612 6.054612 
C 7.660314 4.44891 8.562515 2.270806 8.562515 0 
C 8.562515 -2.270806 7.660314 -4.44891 6.054612 -6.054612 
C 4.44891 -7.660314 2.270806 -8.562515 0 -8.562515 
C -2.270806 -8.562515 -4.44891 -7.660314 -6.054612 -6.054612 
C -7.660314 -4.44891 -8.562515 -2.270806 -8.562515 0 
C -8.562515 2.270806 -7.660314 4.44891 -6.054612 6.054612 
C -4.44891 7.660314 -2.270806 8.562515 0 8.562515 
z
" style="stroke: #000000"/>
    </defs>
    <g clip-path="url(#p1f73af7fbf)">
     <use xlink:href="#m3191cecba4" x="318.869182" y="55.8" style="stroke: #000000"/>
    </g>
   </g>
   <g id="line2d_5">
    <defs>
     <path id="m761099b476" d="M 0 8.268048 
C 2.192712 8.268048 4.295911 7.396874 5.846393 5.846393 
C 7.396874 4.295911 8.268048 2.192712 8.268048 0 
C 8.268048 -2.192712 7.396874 -4.295911 5.846393 -5.846393 
C 4.295911 -7.396874 2.192712 -8.268048 0 -8.268048 
C -2.192712 -8.268048 -4.295911 -7.396874 -5.846393 -5.846393 
C -7.396874 -4.295911 -8.268048 -2.192712 -8.268048 0 
C -8.268048 2.192712 -7.396874 4.295911 -5.846393 5.846393 
C -4.295911 7.396874 -2.192712 8.268048 0 8.268048 
z
" style="stroke: #000000"/>
    </defs>
    <g clip-path="url(#p1f73af7fbf)">
     <use xlink:href="#m761099b476" x="541.138183" y="265.331428" style="stroke: #000000"/>
    </g>
   </g>
   <g id="line2d_6">
    <defs>
     <path id="m872be5d6f9" d="M 0 8.064833 
C 2.138819 8.064833 4.190325 7.215071 5.702698 5.702698 
C 7.215071 4.190325 8.064833 2.138819 8.064833 0 
C 8.064833 -2.138819 7.215071 -4.190325 5.702698 -5.702698 
C 4.190325 -7.215071 2.138819 -8.064833 0 -8.064833 
C -2.138819 -8.064833 -4.190325 -7.215071 -5.702698 -5.702698 
C -7.215071 -4.190325 -8.064833 -2.138819 -8.064833 0 
C -8.064833 2.138819 -7.215071 4.190325 -5.702698 5.702698 
C -4.190325 7.215071 -2.138819 8.064833 0 8.064833 
z
" style="stroke: #000000"/>
    </defs>
    <g clip-path="url(#p1f73af7fbf)">
     <use xlink:href="#m872be5d6f9" x="194.236321" y="296.69114" style="stroke: #000000"/>
    </g>
   </g>
   <g id="line2d_7">
    <defs>
     <path id="mca8abb1afe" d="M 0 7.969273 
C 2.113476 7.969273 4.140674 7.12958 5.635127 5.635127 
C 7.12958 4.140674 7.969273 2.113476 7.969273 0 
C 7.969273 -2.113476 7.12958 -4.140674 5.635127 -5.635127 
C 4.140674 -7.12958 2.113476 -7.969273 0 -7.969273 
C -2.113476 -7.969273 -4.140674 -7.12958 -5.635127 -5.635127 
C -7.12958 -4.140674 -7.969273 -2.113476 -7.969273 0 
C -7.969273 2.113476 -7.12958 4.140674 -5.635127 5.635127 
C -4.140674 7.12958 -2.113476 7.969273 0 7.969273 
z
" style="stroke: #000000"/>
    </defs>
    <g clip-path="url(#p1f73af7fbf)">
     <use xlink:href="#mca8abb1afe" x="328.869006" y="146.641052" style="stroke: #000000"/>
    </g>
   </g>
   <g id="line2d_8">
    <defs>
     <path id="m77850eb8a3" d="M 0 7.955778 
C 2.109897 7.955778 4.133662 7.117507 5.625585 5.625585 
C 7.117507 4.133662 7.955778 2.109897 7.955778 0 
C 7.955778 -2.109897 7.117507 -4.133662 5.625585 -5.625585 
C 4.133662 -7.117507 2.109897 -7.955778 0 -7.955778 
C -2.109897 -7.955778 -4.133662 -7.117507 -5.625585 -5.625585 
C -7.117507 -4.133662 -7.955778 -2.109897 -7.955778 0 
C -7.955778 2.109897 -7.117507 4.133662 -5.625585 5.625585 
C -4.133662 7.117507 -2.109897 7.955778 0 7.955778 
z
" style="stroke: #000000"/>
    </defs>
    <g clip-path="url(#p1f73af7fbf)">
     <use xlink:href="#m77850eb8a3" x="280.9278" y="293.680928" style="stroke: #000000"/>
    </g>
   </g>
   <g id="line2d_9">
    <defs>
     <path id="m6212daab45" d="M 0 7.949147 
C 2.108138 7.949147 4.130217 7.111575 5.620896 5.620896 
C 7.111575 4.130217 7.949147 2.108138 7.949147 0 
C 7.949147 -2.108138 7.111575 -4.130217 5.620896 -5.620896 
C 4.130217 -7.111575 2.108138 -7.949147 0 -7.949147 
C -2.108138 -7.949147 -4.130217 -7.111575 -5.620896 -5.620896 
C -7.111575 -4.130217 -7.949147 -2.108138 -7.949147 0 
C -7.949147 2.108138 -7.111575 4.130217 -5.620896 5.620896 
C -4.130217 7.111575 -2.108138 7.949147 0 7.949147 
z
" style="stroke: #000000"/>
    </defs>
    <g clip-path="url(#p1f73af7fbf)">
     <use xlink:href="#m6212daab45" x="313.060804" y="238.007474" style="stroke: #000000"/>
    </g>
   </g>
   <g id="line2d_10">
    <defs>
     <path id="me215e4fc03" d="M 0 7.939121 
C 2.10548 7.939121 4.125008 7.102605 5.613806 5.613806 
C 7.102605 4.125008 7.939121 2.10548 7.939121 0 
C 7.939121 -2.10548 7.102605 -4.125008 5.613806 -5.613806 
C 4.125008 -7.102605 2.10548 -7.939121 0 -7.939121 
C -2.10548 -7.939121 -4.125008 -7.102605 -5.613806 -5.613806 
C -7.102605 -4.125008 -7.939121 -2.10548 -7.939121 0 
C -7.939121 2.10548 -7.102605 4.125008 -5.613806 5.613806 
C -4.125008 7.102605 -2.10548 7.939121 0 7.939121 
z
" style="stroke: #000000"/>
    </defs>
    <g clip-path="url(#p1f73af7fbf)">
     <use xlink:href="#me215e4fc03" x="286.326634" y="260.834945" style="stroke: #000000"/>
    </g>
   </g>
  </g>
 </g>
 <defs>
  <clipPath id="p1f73af7fbf">
   <path d="M 176.759953 320.4 
L 176.759953 43.2 
L 561.240047 43.2 
L 561.240047 320.4 
L 176.759953 320.4 
"/>
  </clipPath>
 </defs>
</svg>
