<?xml version="1.0" encoding="utf-8" standalone="no"?>
<!DOCTYPE svg PUBLIC "-//W3C//DTD SVG 1.1//EN"
  "http://www.w3.org/Graphics/SVG/1.1/DTD/svg11.dtd">
<svg xmlns:xlink="http://www.w3.org/1999/xlink" width="720pt" height="360pt" viewBox="0 0 720 360" xmlns="http://www.w3.org/2000/svg" version="1.1">
 <metadata>
  <rdf:RDF xmlns:dc="http://purl.org/dc/elements/1.1/" xmlns:cc="http://creativecommons.org/ns#" xmlns:rdf="http://www.w3.org/1999/02/22-rdf-syntax-ns#">
   <cc:Work>
    <dc:type rdf:resource="http://purl.org/dc/dcmitype/StillImage"/>
    <dc:date>2023-11-30T21:30:52.462499</dc:date>
    <dc:format>image/svg+xml</dc:format>
    <dc:creator>
     <cc:Agent>
      <dc:title>Matplotlib v3.8.1, https://matplotlib.org/</dc:title>
     </cc:Agent>
    </dc:creator>
   </cc:Work>
  </rdf:RDF>
 </metadata>
 <defs>
  <style type="text/css">*{stroke-linejoin: round; stroke-linecap: butt}</style>
 </defs>
 <g id="figure_1">
  <g id="patch_1">
   <path d="M 0 360 
L 720 360 
L 720 0 
L 0 0 
z
" style="fill: #ffffff"/>
  </g>
  <g id="axes_1">
   <g id="patch_2">
    <path d="M 292.573485 320.4 
L 292.573485 43.2 
L 445.426515 43.2 
L 445.426515 320.4 
L 292.573485 320.4 
" style="fill: #ffffff"/>
   </g>
   <g id="line2d_1">
    <defs>
     <path id="me080fd73c2" d="M 0 7.00823 
C 1.858604 7.00823 3.641335 6.269799 4.955567 4.955567 
C 6.269799 3.641335 7.00823 1.858604 7.00823 0 
C 7.00823 -1.858604 6.269799 -3.641335 4.955567 -4.955567 
C 3.641335 -6.269799 1.858604 -7.00823 0 -7.00823 
C -1.858604 -7.00823 -3.641335 -6.269799 -4.955567 -4.955567 
C -6.269799 -3.641335 -7.00823 -1.858604 -7.00823 0 
C -7.00823 1.858604 -6.269799 3.641335 -4.955567 4.955567 
C -3.641335 6.269799 -1.858604 7.00823 0 7.00823 
z
" style="stroke: #000000"/>
    </defs>
    <g clip-path="url(#p585e9058b0)">
     <use xlink:href="#me080fd73c2" x="346.966431" y="258.515065" style="stroke: #000000"/>
    </g>
   </g>
   <g id="line2d_2">
    <defs>
     <path id="mb3943ffe5f" d="M 0 5.913671 
C 1.568324 5.913671 3.072625 5.29057 4.181597 4.181597 
C 5.29057 3.072625 5.913671 1.568324 5.913671 0 
C 5.913671 -1.568324 5.29057 -3.072625 4.181597 -4.181597 
C 3.072625 -5.29057 1.568324 -5.913671 0 -5.913671 
C -1.568324 -5.913671 -3.072625 -5.29057 -4.181597 -4.181597 
C -5.29057 -3.072625 -5.913671 -1.568324 -5.913671 0 
C -5.913671 1.568324 -5.29057 3.072625 -4.181597 4.181597 
C -3.072625 5.29057 -1.568324 5.913671 0 5.913671 
z
" style="stroke: #000000"/>
    </defs>
    <g clip-path="url(#p585e9058b0)">
     <use xlink:href="#mb3943ffe5f" x="299.52135" y="55.8" style="stroke: #000000"/>
    </g>
   </g>
   <g id="line2d_3">
    <defs>
     <path id="m875e8b59ae" d="M 0 5.691312 
C 1.509354 5.691312 2.957091 5.091639 4.024365 4.024365 
C 5.091639 2.957091 5.691312 1.509354 5.691312 0 
C 5.691312 -1.509354 5.091639 -2.957091 4.024365 -4.024365 
C 2.957091 -5.091639 1.509354 -5.691312 0 -5.691312 
C -1.509354 -5.691312 -2.957091 -5.091639 -4.024365 -4.024365 
C -5.091639 -2.957091 -5.691312 -1.509354 -5.691312 0 
C -5.691312 1.509354 -5.091639 2.957091 -4.024365 4.024365 
C -2.957091 5.091639 -1.509354 5.691312 0 5.691312 
z
" style="stroke: #000000"/>
    </defs>
    <g clip-path="url(#p585e9058b0)">
     <use xlink:href="#m875e8b59ae" x="421.155321" y="88.590467" style="stroke: #000000"/>
    </g>
   </g>
   <g id="line2d_4">
    <defs>
     <path id="mb39046ebb0" d="M 0 5.674641 
C 1.504932 5.674641 2.948429 5.076725 4.012577 4.012577 
C 5.076725 2.948429 5.674641 1.504932 5.674641 0 
C 5.674641 -1.504932 5.076725 -2.948429 4.012577 -4.012577 
C 2.948429 -5.076725 1.504932 -5.674641 0 -5.674641 
C -1.504932 -5.674641 -2.948429 -5.076725 -4.012577 -4.012577 
C -5.076725 -2.948429 -5.674641 -1.504932 -5.674641 0 
C -5.674641 1.504932 -5.076725 2.948429 -4.012577 4.012577 
C -2.948429 5.076725 -1.504932 5.674641 0 5.674641 
z
" style="stroke: #000000"/>
    </defs>
    <g clip-path="url(#p585e9058b0)">
     <use xlink:href="#mb39046ebb0" x="396.908254" y="307.8" style="stroke: #000000"/>
    </g>
   </g>
   <g id="line2d_5">
    <defs>
     <path id="mdc6ddf9ecb" d="M 0 5.605336 
C 1.486552 5.605336 2.91242 5.014722 3.963571 3.963571 
C 5.014722 2.91242 5.605336 1.486552 5.605336 0 
C 5.605336 -1.486552 5.014722 -2.91242 3.963571 -3.963571 
C 2.91242 -5.014722 1.486552 -5.605336 0 -5.605336 
C -1.486552 -5.605336 -2.91242 -5.014722 -3.963571 -3.963571 
C -5.014722 -2.91242 -5.605336 -1.486552 -5.605336 0 
C -5.605336 1.486552 -5.014722 2.91242 -3.963571 3.963571 
C -2.91242 5.014722 -1.486552 5.605336 0 5.605336 
z
" style="stroke: #000000"/>
    </defs>
    <g clip-path="url(#p585e9058b0)">
     <use xlink:href="#mdc6ddf9ecb" x="340.721081" y="213.956566" style="stroke: #000000"/>
    </g>
   </g>
   <g id="line2d_6">
    <defs>
     <path id="mf73f56c5ac" d="M 0 5.546709 
C 1.471004 5.546709 2.881958 4.962273 3.922115 3.922115 
C 4.962273 2.881958 5.546709 1.471004 5.546709 0 
C 5.546709 -1.471004 4.962273 -2.881958 3.922115 -3.922115 
C 2.881958 -4.962273 1.471004 -5.546709 0 -5.546709 
C -1.471004 -5.546709 -2.881958 -4.962273 -3.922115 -3.922115 
C -4.962273 -2.881958 -5.546709 -1.471004 -5.546709 0 
C -5.546709 1.471004 -4.962273 2.881958 -3.922115 3.922115 
C -2.881958 4.962273 -1.471004 5.546709 0 5.546709 
z
" style="stroke: #000000"/>
    </defs>
    <g clip-path="url(#p585e9058b0)">
     <use xlink:href="#mf73f56c5ac" x="322.026991" y="183.299071" style="stroke: #000000"/>
    </g>
   </g>
   <g id="line2d_7">
    <defs>
     <path id="m769b96e277" d="M 0 5.458686 
C 1.44766 5.458686 2.836223 4.883524 3.859874 3.859874 
C 4.883524 2.836223 5.458686 1.44766 5.458686 0 
C 5.458686 -1.44766 4.883524 -2.836223 3.859874 -3.859874 
C 2.836223 -4.883524 1.44766 -5.458686 0 -5.458686 
C -1.44766 -5.458686 -2.836223 -4.883524 -3.859874 -3.859874 
C -4.883524 -2.836223 -5.458686 -1.44766 -5.458686 0 
C -5.458686 1.44766 -4.883524 2.836223 -3.859874 3.859874 
C -2.836223 4.883524 -1.44766 5.458686 0 5.458686 
z
" style="stroke: #000000"/>
    </defs>
    <g clip-path="url(#p585e9058b0)">
     <use xlink:href="#m769b96e277" x="396.908254" y="67.495747" style="stroke: #000000"/>
    </g>
   </g>
   <g id="line2d_8">
    <defs>
     <path id="m44d726e7ac" d="M 0 5.234312 
C 1.388156 5.234312 2.719643 4.682792 3.701218 3.701218 
C 4.682792 2.719643 5.234312 1.388156 5.234312 0 
C 5.234312 -1.388156 4.682792 -2.719643 3.701218 -3.701218 
C 2.719643 -4.682792 1.388156 -5.234312 0 -5.234312 
C -1.388156 -5.234312 -2.719643 -4.682792 -3.701218 -3.701218 
C -4.682792 -2.719643 -5.234312 -1.388156 -5.234312 0 
C -5.234312 1.388156 -4.682792 2.719643 -3.701218 3.701218 
C -2.719643 4.682792 -1.388156 5.234312 0 5.234312 
z
" style="stroke: #000000"/>
    </defs>
    <g clip-path="url(#p585e9058b0)">
     <use xlink:href="#m44d726e7ac" x="367.436914" y="307.50467" style="stroke: #000000"/>
    </g>
   </g>
   <g id="line2d_9">
    <defs>
     <path id="m204bdf315a" d="M 0 5.232783 
C 1.38775 5.232783 2.718849 4.681424 3.700136 3.700136 
C 4.681424 2.718849 5.232783 1.38775 5.232783 0 
C 5.232783 -1.38775 4.681424 -2.718849 3.700136 -3.700136 
C 2.718849 -4.681424 1.38775 -5.232783 0 -5.232783 
C -1.38775 -5.232783 -2.718849 -4.681424 -3.700136 -3.700136 
C -4.681424 -2.718849 -5.232783 -1.38775 -5.232783 0 
C -5.232783 1.38775 -4.681424 2.718849 -3.700136 3.700136 
C -2.718849 4.681424 -1.38775 5.232783 0 5.232783 
z
" style="stroke: #000000"/>
    </defs>
    <g clip-path="url(#p585e9058b0)">
     <use xlink:href="#m204bdf315a" x="313.193982" y="161.100324" style="stroke: #000000"/>
    </g>
   </g>
   <g id="line2d_10">
    <defs>
     <path id="meac4871fb0" d="M 0 5.219396 
C 1.3842 5.219396 2.711893 4.669447 3.69067 3.69067 
C 4.669447 2.711893 5.219396 1.3842 5.219396 0 
C 5.219396 -1.3842 4.669447 -2.711893 3.69067 -3.69067 
C 2.711893 -4.669447 1.3842 -5.219396 0 -5.219396 
C -1.3842 -5.219396 -2.711893 -4.669447 -3.69067 -3.69067 
C -4.669447 -2.711893 -5.219396 -1.3842 -5.219396 0 
C -5.219396 1.3842 -4.669447 2.711893 -3.69067 3.69067 
C -2.711893 4.669447 -1.3842 5.219396 0 5.219396 
z
" style="stroke: #000000"/>
    </defs>
    <g clip-path="url(#p585e9058b0)">
     <use xlink:href="#meac4871fb0" x="438.47865" y="155.995366" style="stroke: #000000"/>
    </g>
   </g>
  </g>
 </g>
 <defs>
  <clipPath id="p585e9058b0">
   <path d="M 292.573485 320.4 
L 292.573485 43.2 
L 445.426515 43.2 
L 445.426515 320.4 
L 292.573485 320.4 
"/>
  </clipPath>
 </defs>
</svg>
