<?xml version="1.0" encoding="utf-8" standalone="no"?>
<!DOCTYPE svg PUBLIC "-//W3C//DTD SVG 1.1//EN"
  "http://www.w3.org/Graphics/SVG/1.1/DTD/svg11.dtd">
<svg xmlns:xlink="http://www.w3.org/1999/xlink" width="720pt" height="360pt" viewBox="0 0 720 360" xmlns="http://www.w3.org/2000/svg" version="1.1">
 <metadata>
  <rdf:RDF xmlns:dc="http://purl.org/dc/elements/1.1/" xmlns:cc="http://creativecommons.org/ns#" xmlns:rdf="http://www.w3.org/1999/02/22-rdf-syntax-ns#">
   <cc:Work>
    <dc:type rdf:resource="http://purl.org/dc/dcmitype/StillImage"/>
    <dc:date>2023-11-30T21:30:44.781795</dc:date>
    <dc:format>image/svg+xml</dc:format>
    <dc:creator>
     <cc:Agent>
      <dc:title>Matplotlib v3.8.1, https://matplotlib.org/</dc:title>
     </cc:Agent>
    </dc:creator>
   </cc:Work>
  </rdf:RDF>
 </metadata>
 <defs>
  <style type="text/css">*{stroke-linejoin: round; stroke-linecap: butt}</style>
 </defs>
 <g id="figure_1">
  <g id="patch_1">
   <path d="M 0 360 
L 720 360 
L 720 0 
L 0 0 
z
" style="fill: #ffffff"/>
  </g>
  <g id="axes_1">
   <g id="patch_2">
    <path d="M 204.004558 320.4 
L 204.004558 43.2 
L 533.995442 43.2 
L 533.995442 320.4 
L 204.004558 320.4 
" style="fill: #ffffff"/>
   </g>
   <g id="line2d_1">
    <defs>
     <path id="m8652d09896" d="M 0 10.535173 
C 2.79396 10.535173 5.473864 9.42512 7.449492 7.449492 
C 9.42512 5.473864 10.535173 2.79396 10.535173 0 
C 10.535173 -2.79396 9.42512 -5.473864 7.449492 -7.449492 
C 5.473864 -9.42512 2.79396 -10.535173 0 -10.535173 
C -2.79396 -10.535173 -5.473864 -9.42512 -7.449492 -7.449492 
C -9.42512 -5.473864 -10.535173 -2.79396 -10.535173 0 
C -10.535173 2.79396 -9.42512 5.473864 -7.449492 7.449492 
C -5.473864 9.42512 -2.79396 10.535173 0 10.535173 
z
" style="stroke: #000000"/>
    </defs>
    <g clip-path="url(#p365f617452)">
     <use xlink:href="#m8652d09896" x="359.016399" y="297.738485" style="stroke: #000000"/>
    </g>
   </g>
   <g id="line2d_2">
    <defs>
     <path id="m80a6b99656" d="M 0 10.097302 
C 2.677836 10.097302 5.246355 9.033387 7.139871 7.139871 
C 9.033387 5.246355 10.097302 2.677836 10.097302 0 
C 10.097302 -2.677836 9.033387 -5.246355 7.139871 -7.139871 
C 5.246355 -9.033387 2.677836 -10.097302 0 -10.097302 
C -2.677836 -10.097302 -5.246355 -9.033387 -7.139871 -7.139871 
C -9.033387 -5.246355 -10.097302 -2.677836 -10.097302 0 
C -10.097302 2.677836 -9.033387 5.246355 -7.139871 7.139871 
C -5.246355 9.033387 -2.677836 10.097302 0 10.097302 
z
" style="stroke: #000000"/>
    </defs>
    <g clip-path="url(#p365f617452)">
     <use xlink:href="#m80a6b99656" x="219.004144" y="118.55058" style="stroke: #000000"/>
    </g>
   </g>
   <g id="line2d_3">
    <defs>
     <path id="md9435d80c9" d="M 0 9.709805 
C 2.57507 9.709805 5.045019 8.686719 6.865869 6.865869 
C 8.686719 5.045019 9.709805 2.57507 9.709805 0 
C 9.709805 -2.57507 8.686719 -5.045019 6.865869 -6.865869 
C 5.045019 -8.686719 2.57507 -9.709805 0 -9.709805 
C -2.57507 -9.709805 -5.045019 -8.686719 -6.865869 -6.865869 
C -8.686719 -5.045019 -9.709805 -2.57507 -9.709805 0 
C -9.709805 2.57507 -8.686719 5.045019 -6.865869 6.865869 
C -5.045019 8.686719 -2.57507 9.709805 0 9.709805 
z
" style="stroke: #000000"/>
    </defs>
    <g clip-path="url(#p365f617452)">
     <use xlink:href="#md9435d80c9" x="340.281054" y="292.60711" style="stroke: #000000"/>
    </g>
   </g>
   <g id="line2d_4">
    <defs>
     <path id="ma174c4b7bb" d="M 0 9.708499 
C 2.574724 9.708499 5.044341 8.68555 6.864945 6.864945 
C 8.68555 5.044341 9.708499 2.574724 9.708499 0 
C 9.708499 -2.574724 8.68555 -5.044341 6.864945 -6.864945 
C 5.044341 -8.68555 2.574724 -9.708499 0 -9.708499 
C -2.574724 -9.708499 -5.044341 -8.68555 -6.864945 -6.864945 
C -8.68555 -5.044341 -9.708499 -2.574724 -9.708499 0 
C -9.708499 2.574724 -8.68555 5.044341 -6.864945 6.864945 
C -5.044341 8.68555 -2.574724 9.708499 0 9.708499 
z
" style="stroke: #000000"/>
    </defs>
    <g clip-path="url(#p365f617452)">
     <use xlink:href="#ma174c4b7bb" x="365.14958" y="294.709728" style="stroke: #000000"/>
    </g>
   </g>
   <g id="line2d_5">
    <defs>
     <path id="m531f3e3390" d="M 0 8.866653 
C 2.351464 8.866653 4.606935 7.932407 6.269671 6.269671 
C 7.932407 4.606935 8.866653 2.351464 8.866653 0 
C 8.866653 -2.351464 7.932407 -4.606935 6.269671 -6.269671 
C 4.606935 -7.932407 2.351464 -8.866653 0 -8.866653 
C -2.351464 -8.866653 -4.606935 -7.932407 -6.269671 -6.269671 
C -7.932407 -4.606935 -8.866653 -2.351464 -8.866653 0 
C -8.866653 2.351464 -7.932407 4.606935 -6.269671 6.269671 
C -4.606935 7.932407 -2.351464 8.866653 0 8.866653 
z
" style="stroke: #000000"/>
    </defs>
    <g clip-path="url(#p365f617452)">
     <use xlink:href="#m531f3e3390" x="460.571436" y="301.013075" style="stroke: #000000"/>
    </g>
   </g>
   <g id="line2d_6">
    <defs>
     <path id="mc6c19729f8" d="M 0 8.834629 
C 2.342971 8.834629 4.590296 7.903757 6.247026 6.247026 
C 7.903757 4.590296 8.834629 2.342971 8.834629 0 
C 8.834629 -2.342971 7.903757 -4.590296 6.247026 -6.247026 
C 4.590296 -7.903757 2.342971 -8.834629 0 -8.834629 
C -2.342971 -8.834629 -4.590296 -7.903757 -6.247026 -6.247026 
C -7.903757 -4.590296 -8.834629 -2.342971 -8.834629 0 
C -8.834629 2.342971 -7.903757 4.590296 -6.247026 6.247026 
C -4.590296 7.903757 -2.342971 8.834629 0 8.834629 
z
" style="stroke: #000000"/>
    </defs>
    <g clip-path="url(#p365f617452)">
     <use xlink:href="#mc6c19729f8" x="518.995856" y="305.856864" style="stroke: #000000"/>
    </g>
   </g>
   <g id="line2d_7">
    <defs>
     <path id="m53365d494b" d="M 0 8.711312 
C 2.310267 8.711312 4.526222 7.793433 6.159828 6.159828 
C 7.793433 4.526222 8.711312 2.310267 8.711312 0 
C 8.711312 -2.310267 7.793433 -4.526222 6.159828 -6.159828 
C 4.526222 -7.793433 2.310267 -8.711312 0 -8.711312 
C -2.310267 -8.711312 -4.526222 -7.793433 -6.159828 -6.159828 
C -7.793433 -4.526222 -8.711312 -2.310267 -8.711312 0 
C -8.711312 2.310267 -7.793433 4.526222 -6.159828 6.159828 
C -4.526222 7.793433 -2.310267 8.711312 0 8.711312 
z
" style="stroke: #000000"/>
    </defs>
    <g clip-path="url(#p365f617452)">
     <use xlink:href="#m53365d494b" x="349.78096" y="300.741422" style="stroke: #000000"/>
    </g>
   </g>
   <g id="line2d_8">
    <defs>
     <path id="m77c6d27d66" d="M 0 8.616477 
C 2.285117 8.616477 4.476948 7.708591 6.09277 6.09277 
C 7.708591 4.476948 8.616477 2.285117 8.616477 0 
C 8.616477 -2.285117 7.708591 -4.476948 6.09277 -6.09277 
C 4.476948 -7.708591 2.285117 -8.616477 0 -8.616477 
C -2.285117 -8.616477 -4.476948 -7.708591 -6.09277 -6.09277 
C -7.708591 -4.476948 -8.616477 -2.285117 -8.616477 0 
C -8.616477 2.285117 -7.708591 4.476948 -6.09277 6.09277 
C -4.476948 7.708591 -2.285117 8.616477 0 8.616477 
z
" style="stroke: #000000"/>
    </defs>
    <g clip-path="url(#p365f617452)">
     <use xlink:href="#m77c6d27d66" x="322.881959" y="307.8" style="stroke: #000000"/>
    </g>
   </g>
   <g id="line2d_9">
    <defs>
     <path id="m27ae4180ea" d="M 0 8.577809 
C 2.274862 8.577809 4.456857 7.673997 6.065427 6.065427 
C 7.673997 4.456857 8.577809 2.274862 8.577809 0 
C 8.577809 -2.274862 7.673997 -4.456857 6.065427 -6.065427 
C 4.456857 -7.673997 2.274862 -8.577809 0 -8.577809 
C -2.274862 -8.577809 -4.456857 -7.673997 -6.065427 -6.065427 
C -7.673997 -4.456857 -8.577809 -2.274862 -8.577809 0 
C -8.577809 2.274862 -7.673997 4.456857 -6.065427 6.065427 
C -4.456857 7.673997 -2.274862 8.577809 0 8.577809 
z
" style="stroke: #000000"/>
    </defs>
    <g clip-path="url(#p365f617452)">
     <use xlink:href="#m27ae4180ea" x="220.505686" y="55.8" style="stroke: #000000"/>
    </g>
   </g>
   <g id="line2d_10">
    <defs>
     <path id="m47271ea699" d="M 0 8.464421 
C 2.244791 8.464421 4.397943 7.572556 5.98525 5.98525 
C 7.572556 4.397943 8.464421 2.244791 8.464421 0 
C 8.464421 -2.244791 7.572556 -4.397943 5.98525 -5.98525 
C 4.397943 -7.572556 2.244791 -8.464421 0 -8.464421 
C -2.244791 -8.464421 -4.397943 -7.572556 -5.98525 -5.98525 
C -7.572556 -4.397943 -8.464421 -2.244791 -8.464421 0 
C -8.464421 2.244791 -7.572556 4.397943 -5.98525 5.98525 
C -4.397943 7.572556 -2.244791 8.464421 0 8.464421 
z
" style="stroke: #000000"/>
    </defs>
    <g clip-path="url(#p365f617452)">
     <use xlink:href="#m47271ea699" x="296.332681" y="146.181452" style="stroke: #000000"/>
    </g>
   </g>
  </g>
 </g>
 <defs>
  <clipPath id="p365f617452">
   <path d="M 204.004558 320.4 
L 204.004558 43.2 
L 533.995442 43.2 
L 533.995442 320.4 
L 204.004558 320.4 
"/>
  </clipPath>
 </defs>
</svg>
