<?xml version="1.0" encoding="utf-8" standalone="no"?>
<!DOCTYPE svg PUBLIC "-//W3C//DTD SVG 1.1//EN"
  "http://www.w3.org/Graphics/SVG/1.1/DTD/svg11.dtd">
<svg xmlns:xlink="http://www.w3.org/1999/xlink" width="720pt" height="360pt" viewBox="0 0 720 360" xmlns="http://www.w3.org/2000/svg" version="1.1">
 <metadata>
  <rdf:RDF xmlns:dc="http://purl.org/dc/elements/1.1/" xmlns:cc="http://creativecommons.org/ns#" xmlns:rdf="http://www.w3.org/1999/02/22-rdf-syntax-ns#">
   <cc:Work>
    <dc:type rdf:resource="http://purl.org/dc/dcmitype/StillImage"/>
    <dc:date>2023-11-30T21:30:44.821320</dc:date>
    <dc:format>image/svg+xml</dc:format>
    <dc:creator>
     <cc:Agent>
      <dc:title>Matplotlib v3.8.1, https://matplotlib.org/</dc:title>
     </cc:Agent>
    </dc:creator>
   </cc:Work>
  </rdf:RDF>
 </metadata>
 <defs>
  <style type="text/css">*{stroke-linejoin: round; stroke-linecap: butt}</style>
 </defs>
 <g id="figure_1">
  <g id="patch_1">
   <path d="M 0 360 
L 720 360 
L 720 0 
L 0 0 
z
" style="fill: #ffffff"/>
  </g>
  <g id="axes_1">
   <g id="patch_2">
    <path d="M 90 262.015397 
L 90 101.584603 
L 648 101.584603 
L 648 262.015397 
L 90 262.015397 
" style="fill: #ffffff"/>
   </g>
   <g id="line2d_1">
    <defs>
     <path id="mfcc7e24c74" d="M 0 10.457683 
C 2.77341 10.457683 5.433602 9.355796 7.394699 7.394699 
C 9.355796 5.433602 10.457683 2.77341 10.457683 0 
C 10.457683 -2.77341 9.355796 -5.433602 7.394699 -7.394699 
C 5.433602 -9.355796 2.77341 -10.457683 0 -10.457683 
C -2.77341 -10.457683 -5.433602 -9.355796 -7.394699 -7.394699 
C -9.355796 -5.433602 -10.457683 -2.77341 -10.457683 0 
C -10.457683 2.77341 -9.355796 5.433602 -7.394699 7.394699 
C -5.433602 9.355796 -2.77341 10.457683 0 10.457683 
z
" style="stroke: #000000"/>
    </defs>
    <g clip-path="url(#p9782fde277)">
     <use xlink:href="#mfcc7e24c74" x="330.973003" y="120.958682" style="stroke: #000000"/>
    </g>
   </g>
   <g id="line2d_2">
    <defs>
     <path id="mb672da8f1a" d="M 0 9.792544 
C 2.597013 9.792544 5.088009 8.760739 6.924374 6.924374 
C 8.760739 5.088009 9.792544 2.597013 9.792544 0 
C 9.792544 -2.597013 8.760739 -5.088009 6.924374 -6.924374 
C 5.088009 -8.760739 2.597013 -9.792544 0 -9.792544 
C -2.597013 -9.792544 -5.088009 -8.760739 -6.924374 -6.924374 
C -8.760739 -5.088009 -9.792544 -2.597013 -9.792544 0 
C -9.792544 2.597013 -8.760739 5.088009 -6.924374 6.924374 
C -5.088009 8.760739 -2.597013 9.792544 0 9.792544 
z
" style="stroke: #000000"/>
    </defs>
    <g clip-path="url(#p9782fde277)">
     <use xlink:href="#mb672da8f1a" x="353.540141" y="118.501997" style="stroke: #000000"/>
    </g>
   </g>
   <g id="line2d_3">
    <defs>
     <path id="me5504cbc35" d="M 0 9.650571 
C 2.559361 9.650571 5.014242 8.633726 6.823984 6.823984 
C 8.633726 5.014242 9.650571 2.559361 9.650571 0 
C 9.650571 -2.559361 8.633726 -5.014242 6.823984 -6.823984 
C 5.014242 -8.633726 2.559361 -9.650571 0 -9.650571 
C -2.559361 -9.650571 -5.014242 -8.633726 -6.823984 -6.823984 
C -8.633726 -5.014242 -9.650571 -2.559361 -9.650571 0 
C -9.650571 2.559361 -8.633726 5.014242 -6.823984 6.823984 
C -5.014242 8.633726 -2.559361 9.650571 0 9.650571 
z
" style="stroke: #000000"/>
    </defs>
    <g clip-path="url(#p9782fde277)">
     <use xlink:href="#me5504cbc35" x="115.363636" y="194.793474" style="stroke: #000000"/>
    </g>
   </g>
   <g id="line2d_4">
    <defs>
     <path id="m2fe56f2637" d="M 0 9.63744 
C 2.555879 9.63744 5.00742 8.621979 6.814699 6.814699 
C 8.621979 5.00742 9.63744 2.555879 9.63744 0 
C 9.63744 -2.555879 8.621979 -5.00742 6.814699 -6.814699 
C 5.00742 -8.621979 2.555879 -9.63744 0 -9.63744 
C -2.555879 -9.63744 -5.00742 -8.621979 -6.814699 -6.814699 
C -8.621979 -5.00742 -9.63744 -2.555879 -9.63744 0 
C -9.63744 2.555879 -8.621979 5.00742 -6.814699 6.814699 
C -5.00742 8.621979 -2.555879 9.63744 0 9.63744 
z
" style="stroke: #000000"/>
    </defs>
    <g clip-path="url(#p9782fde277)">
     <use xlink:href="#m2fe56f2637" x="622.636364" y="215.689136" style="stroke: #000000"/>
    </g>
   </g>
   <g id="line2d_5">
    <defs>
     <path id="me8495feaa9" d="M 0 9.38994 
C 2.490241 9.38994 4.878824 8.400557 6.63969 6.63969 
C 8.400557 4.878824 9.38994 2.490241 9.38994 0 
C 9.38994 -2.490241 8.400557 -4.878824 6.63969 -6.63969 
C 4.878824 -8.400557 2.490241 -9.38994 0 -9.38994 
C -2.490241 -9.38994 -4.878824 -8.400557 -6.63969 -6.63969 
C -8.400557 -4.878824 -9.38994 -2.490241 -9.38994 0 
C -9.38994 2.490241 -8.400557 4.878824 -6.63969 6.63969 
C -4.878824 8.400557 -2.490241 9.38994 0 9.38994 
z
" style="stroke: #000000"/>
    </defs>
    <g clip-path="url(#p9782fde277)">
     <use xlink:href="#me8495feaa9" x="535.227865" y="147.316393" style="stroke: #000000"/>
    </g>
   </g>
   <g id="line2d_6">
    <defs>
     <path id="m7e9a75a05f" d="M 0 9.116257 
C 2.41766 9.116257 4.736624 8.155711 6.446167 6.446167 
C 8.155711 4.736624 9.116257 2.41766 9.116257 0 
C 9.116257 -2.41766 8.155711 -4.736624 6.446167 -6.446167 
C 4.736624 -8.155711 2.41766 -9.116257 0 -9.116257 
C -2.41766 -9.116257 -4.736624 -8.155711 -6.446167 -6.446167 
C -8.155711 -4.736624 -9.116257 -2.41766 -9.116257 0 
C -9.116257 2.41766 -8.155711 4.736624 -6.446167 6.446167 
C -4.736624 8.155711 -2.41766 9.116257 0 9.116257 
z
" style="stroke: #000000"/>
    </defs>
    <g clip-path="url(#p9782fde277)">
     <use xlink:href="#m7e9a75a05f" x="483.883009" y="254.723088" style="stroke: #000000"/>
    </g>
   </g>
   <g id="line2d_7">
    <defs>
     <path id="m9867364b07" d="M 0 9.069011 
C 2.40513 9.069011 4.712075 8.113443 6.412759 6.412759 
C 8.113443 4.712075 9.069011 2.40513 9.069011 0 
C 9.069011 -2.40513 8.113443 -4.712075 6.412759 -6.412759 
C 4.712075 -8.113443 2.40513 -9.069011 0 -9.069011 
C -2.40513 -9.069011 -4.712075 -8.113443 -6.412759 -6.412759 
C -8.113443 -4.712075 -9.069011 -2.40513 -9.069011 0 
C -9.069011 2.40513 -8.113443 4.712075 -6.412759 6.412759 
C -4.712075 8.113443 -2.40513 9.069011 0 9.069011 
z
" style="stroke: #000000"/>
    </defs>
    <g clip-path="url(#p9782fde277)">
     <use xlink:href="#m9867364b07" x="465.681519" y="159.75204" style="stroke: #000000"/>
    </g>
   </g>
   <g id="line2d_8">
    <defs>
     <path id="m1527b8c2b2" d="M 0 9.049589 
C 2.399979 9.049589 4.701984 8.096067 6.399026 6.399026 
C 8.096067 4.701984 9.049589 2.399979 9.049589 0 
C 9.049589 -2.399979 8.096067 -4.701984 6.399026 -6.399026 
C 4.701984 -8.096067 2.399979 -9.049589 0 -9.049589 
C -2.399979 -9.049589 -4.701984 -8.096067 -6.399026 -6.399026 
C -8.096067 -4.701984 -9.049589 -2.399979 -9.049589 0 
C -9.049589 2.399979 -8.096067 4.701984 -6.399026 6.399026 
C -4.701984 8.096067 -2.399979 9.049589 0 9.049589 
z
" style="stroke: #000000"/>
    </defs>
    <g clip-path="url(#p9782fde277)">
     <use xlink:href="#m1527b8c2b2" x="509.714972" y="204.942398" style="stroke: #000000"/>
    </g>
   </g>
   <g id="line2d_9">
    <defs>
     <path id="m770e8d4609" d="M 0 9.036189 
C 2.396425 9.036189 4.695022 8.084079 6.389551 6.389551 
C 8.084079 4.695022 9.036189 2.396425 9.036189 0 
C 9.036189 -2.396425 8.084079 -4.695022 6.389551 -6.389551 
C 4.695022 -8.084079 2.396425 -9.036189 0 -9.036189 
C -2.396425 -9.036189 -4.695022 -8.084079 -6.389551 -6.389551 
C -8.084079 -4.695022 -9.036189 -2.396425 -9.036189 0 
C -9.036189 2.396425 -8.084079 4.695022 -6.389551 6.389551 
C -4.695022 8.084079 -2.396425 9.036189 0 9.036189 
z
" style="stroke: #000000"/>
    </defs>
    <g clip-path="url(#p9782fde277)">
     <use xlink:href="#m770e8d4609" x="336.500276" y="121.397517" style="stroke: #000000"/>
    </g>
   </g>
   <g id="line2d_10">
    <defs>
     <path id="m3056bec639" d="M 0 8.828139 
C 2.34125 8.828139 4.586923 7.897951 6.242437 6.242437 
C 7.897951 4.586923 8.828139 2.34125 8.828139 0 
C 8.828139 -2.34125 7.897951 -4.586923 6.242437 -6.242437 
C 4.586923 -7.897951 2.34125 -8.828139 0 -8.828139 
C -2.34125 -8.828139 -4.586923 -7.897951 -6.242437 -6.242437 
C -7.897951 -4.586923 -8.828139 -2.34125 -8.828139 0 
C -8.828139 2.34125 -7.897951 4.586923 -6.242437 6.242437 
C -4.586923 7.897951 -2.34125 8.828139 0 8.828139 
z
" style="stroke: #000000"/>
    </defs>
    <g clip-path="url(#p9782fde277)">
     <use xlink:href="#m3056bec639" x="601.934427" y="108.876912" style="stroke: #000000"/>
    </g>
   </g>
  </g>
 </g>
 <defs>
  <clipPath id="p9782fde277">
   <path d="M 90 262.015397 
L 90 101.584603 
L 648 101.584603 
L 648 262.015397 
L 90 262.015397 
"/>
  </clipPath>
 </defs>
</svg>
