<?xml version="1.0" encoding="utf-8" standalone="no"?>
<!DOCTYPE svg PUBLIC "-//W3C//DTD SVG 1.1//EN"
  "http://www.w3.org/Graphics/SVG/1.1/DTD/svg11.dtd">
<svg xmlns:xlink="http://www.w3.org/1999/xlink" width="720pt" height="360pt" viewBox="0 0 720 360" xmlns="http://www.w3.org/2000/svg" version="1.1">
 <metadata>
  <rdf:RDF xmlns:dc="http://purl.org/dc/elements/1.1/" xmlns:cc="http://creativecommons.org/ns#" xmlns:rdf="http://www.w3.org/1999/02/22-rdf-syntax-ns#">
   <cc:Work>
    <dc:type rdf:resource="http://purl.org/dc/dcmitype/StillImage"/>
    <dc:date>2023-11-30T21:30:44.863325</dc:date>
    <dc:format>image/svg+xml</dc:format>
    <dc:creator>
     <cc:Agent>
      <dc:title>Matplotlib v3.8.1, https://matplotlib.org/</dc:title>
     </cc:Agent>
    </dc:creator>
   </cc:Work>
  </rdf:RDF>
 </metadata>
 <defs>
  <style type="text/css">*{stroke-linejoin: round; stroke-linecap: butt}</style>
 </defs>
 <g id="figure_1">
  <g id="patch_1">
   <path d="M 0 360 
L 720 360 
L 720 0 
L 0 0 
z
" style="fill: #ffffff"/>
  </g>
  <g id="axes_1">
   <g id="patch_2">
    <path d="M 287.953321 320.4 
L 287.953321 43.2 
L 450.046679 43.2 
L 450.046679 320.4 
L 287.953321 320.4 
" style="fill: #ffffff"/>
   </g>
   <g id="line2d_1">
    <defs>
     <path id="mb131c026d3" d="M 0 10.703753 
C 2.838668 10.703753 5.561454 9.575938 7.568696 7.568696 
C 9.575938 5.561454 10.703753 2.838668 10.703753 0 
C 10.703753 -2.838668 9.575938 -5.561454 7.568696 -7.568696 
C 5.561454 -9.575938 2.838668 -10.703753 0 -10.703753 
C -2.838668 -10.703753 -5.561454 -9.575938 -7.568696 -7.568696 
C -9.575938 -5.561454 -10.703753 -2.838668 -10.703753 0 
C -10.703753 2.838668 -9.575938 5.561454 -7.568696 7.568696 
C -5.561454 9.575938 -2.838668 10.703753 0 10.703753 
z
" style="stroke: #000000"/>
    </defs>
    <g clip-path="url(#pc8b7f540ff)">
     <use xlink:href="#mb131c026d3" x="442.678799" y="55.8" style="stroke: #000000"/>
    </g>
   </g>
   <g id="line2d_2">
    <defs>
     <path id="mf3b86843a2" d="M 0 10.688559 
C 2.834639 10.688559 5.55356 9.562345 7.557953 7.557953 
C 9.562345 5.55356 10.688559 2.834639 10.688559 0 
C 10.688559 -2.834639 9.562345 -5.55356 7.557953 -7.557953 
C 5.55356 -9.562345 2.834639 -10.688559 0 -10.688559 
C -2.834639 -10.688559 -5.55356 -9.562345 -7.557953 -7.557953 
C -9.562345 -5.55356 -10.688559 -2.834639 -10.688559 0 
C -10.688559 2.834639 -9.562345 5.55356 -7.557953 7.557953 
C -5.55356 9.562345 -2.834639 10.688559 0 10.688559 
z
" style="stroke: #000000"/>
    </defs>
    <g clip-path="url(#pc8b7f540ff)">
     <use xlink:href="#mf3b86843a2" x="350.990495" y="187.391547" style="stroke: #000000"/>
    </g>
   </g>
   <g id="line2d_3">
    <defs>
     <path id="m4899f210ad" d="M 0 9.640464 
C 2.556681 9.640464 5.008991 8.624683 6.816837 6.816837 
C 8.624683 5.008991 9.640464 2.556681 9.640464 0 
C 9.640464 -2.556681 8.624683 -5.008991 6.816837 -6.816837 
C 5.008991 -8.624683 2.556681 -9.640464 0 -9.640464 
C -2.556681 -9.640464 -5.008991 -8.624683 -6.816837 -6.816837 
C -8.624683 -5.008991 -9.640464 -2.556681 -9.640464 0 
C -9.640464 2.556681 -8.624683 5.008991 -6.816837 6.816837 
C -5.008991 8.624683 -2.556681 9.640464 0 9.640464 
z
" style="stroke: #000000"/>
    </defs>
    <g clip-path="url(#pc8b7f540ff)">
     <use xlink:href="#m4899f210ad" x="410.376464" y="234.566032" style="stroke: #000000"/>
    </g>
   </g>
   <g id="line2d_4">
    <defs>
     <path id="ma7c8289210" d="M 0 9.403409 
C 2.493813 9.403409 4.885822 8.412606 6.649214 6.649214 
C 8.412606 4.885822 9.403409 2.493813 9.403409 0 
C 9.403409 -2.493813 8.412606 -4.885822 6.649214 -6.649214 
C 4.885822 -8.412606 2.493813 -9.403409 0 -9.403409 
C -2.493813 -9.403409 -4.885822 -8.412606 -6.649214 -6.649214 
C -8.412606 -4.885822 -9.403409 -2.493813 -9.403409 0 
C -9.403409 2.493813 -8.412606 4.885822 -6.649214 6.649214 
C -4.885822 8.412606 -2.493813 9.403409 0 9.403409 
z
" style="stroke: #000000"/>
    </defs>
    <g clip-path="url(#pc8b7f540ff)">
     <use xlink:href="#ma7c8289210" x="398.870129" y="57.3522" style="stroke: #000000"/>
    </g>
   </g>
   <g id="line2d_5">
    <defs>
     <path id="m49b1242fb1" d="M 0 9.281565 
C 2.4615 9.281565 4.822514 8.3036 6.563057 6.563057 
C 8.3036 4.822514 9.281565 2.4615 9.281565 0 
C 9.281565 -2.4615 8.3036 -4.822514 6.563057 -6.563057 
C 4.822514 -8.3036 2.4615 -9.281565 0 -9.281565 
C -2.4615 -9.281565 -4.822514 -8.3036 -6.563057 -6.563057 
C -8.3036 -4.822514 -9.281565 -2.4615 -9.281565 0 
C -9.281565 2.4615 -8.3036 4.822514 -6.563057 6.563057 
C -4.822514 8.3036 -2.4615 9.281565 0 9.281565 
z
" style="stroke: #000000"/>
    </defs>
    <g clip-path="url(#pc8b7f540ff)">
     <use xlink:href="#m49b1242fb1" x="436.495567" y="123.997807" style="stroke: #000000"/>
    </g>
   </g>
   <g id="line2d_6">
    <defs>
     <path id="mfa936b4b66" d="M 0 9.147905 
C 2.426053 9.147905 4.753067 8.184024 6.468545 6.468545 
C 8.184024 4.753067 9.147905 2.426053 9.147905 0 
C 9.147905 -2.426053 8.184024 -4.753067 6.468545 -6.468545 
C 4.753067 -8.184024 2.426053 -9.147905 0 -9.147905 
C -2.426053 -9.147905 -4.753067 -8.184024 -6.468545 -6.468545 
C -8.184024 -4.753067 -9.147905 -2.426053 -9.147905 0 
C -9.147905 2.426053 -8.184024 4.753067 -6.468545 6.468545 
C -4.753067 8.184024 -2.426053 9.147905 0 9.147905 
z
" style="stroke: #000000"/>
    </defs>
    <g clip-path="url(#pc8b7f540ff)">
     <use xlink:href="#mfa936b4b66" x="312.716424" y="110.982197" style="stroke: #000000"/>
    </g>
   </g>
   <g id="line2d_7">
    <defs>
     <path id="mf69a3366ab" d="M 0 9.134154 
C 2.422406 9.134154 4.745923 8.171722 6.458823 6.458823 
C 8.171722 4.745923 9.134154 2.422406 9.134154 0 
C 9.134154 -2.422406 8.171722 -4.745923 6.458823 -6.458823 
C 4.745923 -8.171722 2.422406 -9.134154 0 -9.134154 
C -2.422406 -9.134154 -4.745923 -8.171722 -6.458823 -6.458823 
C -8.171722 -4.745923 -9.134154 -2.422406 -9.134154 0 
C -9.134154 2.422406 -8.171722 4.745923 -6.458823 6.458823 
C -4.745923 8.171722 -2.422406 9.134154 0 9.134154 
z
" style="stroke: #000000"/>
    </defs>
    <g clip-path="url(#pc8b7f540ff)">
     <use xlink:href="#mf69a3366ab" x="353.079862" y="186.027695" style="stroke: #000000"/>
    </g>
   </g>
   <g id="line2d_8">
    <defs>
     <path id="m5ab7d004d4" d="M 0 9.070709 
C 2.40558 9.070709 4.712958 8.114962 6.41396 6.41396 
C 8.114962 4.712958 9.070709 2.40558 9.070709 0 
C 9.070709 -2.40558 8.114962 -4.712958 6.41396 -6.41396 
C 4.712958 -8.114962 2.40558 -9.070709 0 -9.070709 
C -2.40558 -9.070709 -4.712958 -8.114962 -6.41396 -6.41396 
C -8.114962 -4.712958 -9.070709 -2.40558 -9.070709 0 
C -9.070709 2.40558 -8.114962 4.712958 -6.41396 6.41396 
C -4.712958 8.114962 -2.40558 9.070709 0 9.070709 
z
" style="stroke: #000000"/>
    </defs>
    <g clip-path="url(#pc8b7f540ff)">
     <use xlink:href="#m5ab7d004d4" x="345.984637" y="258.557029" style="stroke: #000000"/>
    </g>
   </g>
   <g id="line2d_9">
    <defs>
     <path id="ma135d66ef0" d="M 0 9.032206 
C 2.395369 9.032206 4.692952 8.080515 6.386734 6.386734 
C 8.080515 4.692952 9.032206 2.395369 9.032206 0 
C 9.032206 -2.395369 8.080515 -4.692952 6.386734 -6.386734 
C 4.692952 -8.080515 2.395369 -9.032206 0 -9.032206 
C -2.395369 -9.032206 -4.692952 -8.080515 -6.386734 -6.386734 
C -8.080515 -4.692952 -9.032206 -2.395369 -9.032206 0 
C -9.032206 2.395369 -8.080515 4.692952 -6.386734 6.386734 
C -4.692952 8.080515 -2.395369 9.032206 0 9.032206 
z
" style="stroke: #000000"/>
    </defs>
    <g clip-path="url(#pc8b7f540ff)">
     <use xlink:href="#ma135d66ef0" x="396.92625" y="307.8" style="stroke: #000000"/>
    </g>
   </g>
   <g id="line2d_10">
    <defs>
     <path id="mac6db42579" d="M 0 9.005859 
C 2.388382 9.005859 4.679263 8.056945 6.368104 6.368104 
C 8.056945 4.679263 9.005859 2.388382 9.005859 0 
C 9.005859 -2.388382 8.056945 -4.679263 6.368104 -6.368104 
C 4.679263 -8.056945 2.388382 -9.005859 0 -9.005859 
C -2.388382 -9.005859 -4.679263 -8.056945 -6.368104 -6.368104 
C -8.056945 -4.679263 -9.005859 -2.388382 -9.005859 0 
C -9.005859 2.388382 -8.056945 4.679263 -6.368104 6.368104 
C -4.679263 8.056945 -2.388382 9.005859 0 9.005859 
z
" style="stroke: #000000"/>
    </defs>
    <g clip-path="url(#pc8b7f540ff)">
     <use xlink:href="#mac6db42579" x="295.321201" y="104.79523" style="stroke: #000000"/>
    </g>
   </g>
  </g>
 </g>
 <defs>
  <clipPath id="pc8b7f540ff">
   <path d="M 287.953321 320.4 
L 287.953321 43.2 
L 450.046679 43.2 
L 450.046679 320.4 
L 287.953321 320.4 
"/>
  </clipPath>
 </defs>
</svg>
