<?xml version="1.0" encoding="utf-8" standalone="no"?>
<!DOCTYPE svg PUBLIC "-//W3C//DTD SVG 1.1//EN"
  "http://www.w3.org/Graphics/SVG/1.1/DTD/svg11.dtd">
<svg xmlns:xlink="http://www.w3.org/1999/xlink" width="720pt" height="360pt" viewBox="0 0 720 360" xmlns="http://www.w3.org/2000/svg" version="1.1">
 <metadata>
  <rdf:RDF xmlns:dc="http://purl.org/dc/elements/1.1/" xmlns:cc="http://creativecommons.org/ns#" xmlns:rdf="http://www.w3.org/1999/02/22-rdf-syntax-ns#">
   <cc:Work>
    <dc:type rdf:resource="http://purl.org/dc/dcmitype/StillImage"/>
    <dc:date>2023-11-30T21:30:44.903379</dc:date>
    <dc:format>image/svg+xml</dc:format>
    <dc:creator>
     <cc:Agent>
      <dc:title>Matplotlib v3.8.1, https://matplotlib.org/</dc:title>
     </cc:Agent>
    </dc:creator>
   </cc:Work>
  </rdf:RDF>
 </metadata>
 <defs>
  <style type="text/css">*{stroke-linejoin: round; stroke-linecap: butt}</style>
 </defs>
 <g id="figure_1">
  <g id="patch_1">
   <path d="M 0 360 
L 720 360 
L 720 0 
L 0 0 
z
" style="fill: #ffffff"/>
  </g>
  <g id="axes_1">
   <g id="patch_2">
    <path d="M 90 296.311835 
L 90 67.288165 
L 648 67.288165 
L 648 296.311835 
L 90 296.311835 
" style="fill: #ffffff"/>
   </g>
   <g id="line2d_1">
    <defs>
     <path id="m79111a386a" d="M 0 9.293964 
C 2.464788 9.293964 4.828957 8.314693 6.571825 6.571825 
C 8.314693 4.828957 9.293964 2.464788 9.293964 0 
C 9.293964 -2.464788 8.314693 -4.828957 6.571825 -6.571825 
C 4.828957 -8.314693 2.464788 -9.293964 0 -9.293964 
C -2.464788 -9.293964 -4.828957 -8.314693 -6.571825 -6.571825 
C -8.314693 -4.828957 -9.293964 -2.464788 -9.293964 0 
C -9.293964 2.464788 -8.314693 4.828957 -6.571825 6.571825 
C -4.828957 8.314693 -2.464788 9.293964 0 9.293964 
z
" style="stroke: #000000"/>
    </defs>
    <g clip-path="url(#p2843c597c4)">
     <use xlink:href="#m79111a386a" x="316.680609" y="82.651746" style="stroke: #000000"/>
    </g>
   </g>
   <g id="line2d_2">
    <defs>
     <path id="m3bd33e7a80" d="M 0 8.240016 
C 2.185278 8.240016 4.281347 7.371796 5.826571 5.826571 
C 7.371796 4.281347 8.240016 2.185278 8.240016 0 
C 8.240016 -2.185278 7.371796 -4.281347 5.826571 -5.826571 
C 4.281347 -7.371796 2.185278 -8.240016 0 -8.240016 
C -2.185278 -8.240016 -4.281347 -7.371796 -5.826571 -5.826571 
C -7.371796 -4.281347 -8.240016 -2.185278 -8.240016 0 
C -8.240016 2.185278 -7.371796 4.281347 -5.826571 5.826571 
C -4.281347 7.371796 -2.185278 8.240016 0 8.240016 
z
" style="stroke: #000000"/>
    </defs>
    <g clip-path="url(#p2843c597c4)">
     <use xlink:href="#m3bd33e7a80" x="492.198214" y="264.44877" style="stroke: #000000"/>
    </g>
   </g>
   <g id="line2d_3">
    <defs>
     <path id="made92475ca" d="M 0 7.865792 
C 2.086032 7.865792 4.086907 7.037003 5.561955 5.561955 
C 7.037003 4.086907 7.865792 2.086032 7.865792 0 
C 7.865792 -2.086032 7.037003 -4.086907 5.561955 -5.561955 
C 4.086907 -7.037003 2.086032 -7.865792 0 -7.865792 
C -2.086032 -7.865792 -4.086907 -7.037003 -5.561955 -5.561955 
C -7.037003 -4.086907 -7.865792 -2.086032 -7.865792 0 
C -7.865792 2.086032 -7.037003 4.086907 -5.561955 5.561955 
C -4.086907 7.037003 -2.086032 7.865792 0 7.865792 
z
" style="stroke: #000000"/>
    </defs>
    <g clip-path="url(#p2843c597c4)">
     <use xlink:href="#made92475ca" x="622.636364" y="93.083476" style="stroke: #000000"/>
    </g>
   </g>
   <g id="line2d_4">
    <defs>
     <path id="m280838f641" d="M 0 7.647974 
C 2.028266 7.647974 3.973733 6.842135 5.407934 5.407934 
C 6.842135 3.973733 7.647974 2.028266 7.647974 0 
C 7.647974 -2.028266 6.842135 -3.973733 5.407934 -5.407934 
C 3.973733 -6.842135 2.028266 -7.647974 0 -7.647974 
C -2.028266 -7.647974 -3.973733 -6.842135 -5.407934 -5.407934 
C -6.842135 -3.973733 -7.647974 -2.028266 -7.647974 0 
C -7.647974 2.028266 -6.842135 3.973733 -5.407934 5.407934 
C -3.973733 6.842135 -2.028266 7.647974 0 7.647974 
z
" style="stroke: #000000"/>
    </defs>
    <g clip-path="url(#p2843c597c4)">
     <use xlink:href="#m280838f641" x="293.852887" y="263.557177" style="stroke: #000000"/>
    </g>
   </g>
   <g id="line2d_5">
    <defs>
     <path id="m3a44b4b3f4" d="M 0 7.633375 
C 2.024395 7.633375 3.966148 6.829074 5.397611 5.397611 
C 6.829074 3.966148 7.633375 2.024395 7.633375 0 
C 7.633375 -2.024395 6.829074 -3.966148 5.397611 -5.397611 
C 3.966148 -6.829074 2.024395 -7.633375 0 -7.633375 
C -2.024395 -7.633375 -3.966148 -6.829074 -5.397611 -5.397611 
C -6.829074 -3.966148 -7.633375 -2.024395 -7.633375 0 
C -7.633375 2.024395 -6.829074 3.966148 -5.397611 5.397611 
C -3.966148 6.829074 -2.024395 7.633375 0 7.633375 
z
" style="stroke: #000000"/>
    </defs>
    <g clip-path="url(#p2843c597c4)">
     <use xlink:href="#m3a44b4b3f4" x="310.657195" y="93.022413" style="stroke: #000000"/>
    </g>
   </g>
   <g id="line2d_6">
    <defs>
     <path id="m7d8b72761b" d="M 0 7.555649 
C 2.003782 7.555649 3.925763 6.759538 5.342651 5.342651 
C 6.759538 3.925763 7.555649 2.003782 7.555649 0 
C 7.555649 -2.003782 6.759538 -3.925763 5.342651 -5.342651 
C 3.925763 -6.759538 2.003782 -7.555649 0 -7.555649 
C -2.003782 -7.555649 -3.925763 -6.759538 -5.342651 -5.342651 
C -6.759538 -3.925763 -7.555649 -2.003782 -7.555649 0 
C -7.555649 2.003782 -6.759538 3.925763 -5.342651 5.342651 
C -3.925763 6.759538 -2.003782 7.555649 0 7.555649 
z
" style="stroke: #000000"/>
    </defs>
    <g clip-path="url(#p2843c597c4)">
     <use xlink:href="#m7d8b72761b" x="540.981097" y="89.3505" style="stroke: #000000"/>
    </g>
   </g>
   <g id="line2d_7">
    <defs>
     <path id="m9d4be982f8" d="M 0 7.043731 
C 1.868019 7.043731 3.659781 6.301559 4.98067 4.98067 
C 6.301559 3.659781 7.043731 1.868019 7.043731 0 
C 7.043731 -1.868019 6.301559 -3.659781 4.98067 -4.98067 
C 3.659781 -6.301559 1.868019 -7.043731 0 -7.043731 
C -1.868019 -7.043731 -3.659781 -6.301559 -4.98067 -4.98067 
C -6.301559 -3.659781 -7.043731 -1.868019 -7.043731 0 
C -7.043731 1.868019 -6.301559 3.659781 -4.98067 4.98067 
C -3.659781 6.301559 -1.868019 7.043731 0 7.043731 
z
" style="stroke: #000000"/>
    </defs>
    <g clip-path="url(#p2843c597c4)">
     <use xlink:href="#m9d4be982f8" x="391.147128" y="267.283693" style="stroke: #000000"/>
    </g>
   </g>
   <g id="line2d_8">
    <defs>
     <path id="m719b575fd2" d="M 0 7.010794 
C 1.859284 7.010794 3.642667 6.272092 4.95738 4.95738 
C 6.272092 3.642667 7.010794 1.859284 7.010794 0 
C 7.010794 -1.859284 6.272092 -3.642667 4.95738 -4.95738 
C 3.642667 -6.272092 1.859284 -7.010794 0 -7.010794 
C -1.859284 -7.010794 -3.642667 -6.272092 -4.95738 -4.95738 
C -6.272092 -3.642667 -7.010794 -1.859284 -7.010794 0 
C -7.010794 1.859284 -6.272092 3.642667 -4.95738 4.95738 
C -3.642667 6.272092 -1.859284 7.010794 0 7.010794 
z
" style="stroke: #000000"/>
    </defs>
    <g clip-path="url(#p2843c597c4)">
     <use xlink:href="#m719b575fd2" x="337.033444" y="77.698332" style="stroke: #000000"/>
    </g>
   </g>
   <g id="line2d_9">
    <defs>
     <path id="mbb1db12413" d="M 0 6.935616 
C 1.839347 6.935616 3.603606 6.204836 4.904221 4.904221 
C 6.204836 3.603606 6.935616 1.839347 6.935616 0 
C 6.935616 -1.839347 6.204836 -3.603606 4.904221 -4.904221 
C 3.603606 -6.204836 1.839347 -6.935616 0 -6.935616 
C -1.839347 -6.935616 -3.603606 -6.204836 -4.904221 -4.904221 
C -6.204836 -3.603606 -6.935616 -1.839347 -6.935616 0 
C -6.935616 1.839347 -6.204836 3.603606 -4.904221 4.904221 
C -3.603606 6.204836 -1.839347 6.935616 0 6.935616 
z
" style="stroke: #000000"/>
    </defs>
    <g clip-path="url(#p2843c597c4)">
     <use xlink:href="#mbb1db12413" x="459.32494" y="98.459763" style="stroke: #000000"/>
    </g>
   </g>
   <g id="line2d_10">
    <defs>
     <path id="m7c20c02f89" d="M 0 6.816214 
C 1.807681 6.816214 3.541567 6.098014 4.819791 4.819791 
C 6.098014 3.541567 6.816214 1.807681 6.816214 0 
C 6.816214 -1.807681 6.098014 -3.541567 4.819791 -4.819791 
C 3.541567 -6.098014 1.807681 -6.816214 0 -6.816214 
C -1.807681 -6.816214 -3.541567 -6.098014 -4.819791 -4.819791 
C -6.098014 -3.541567 -6.816214 -1.807681 -6.816214 0 
C -6.816214 1.807681 -6.098014 3.541567 -4.819791 4.819791 
C -3.541567 6.098014 -1.807681 6.816214 0 6.816214 
z
" style="stroke: #000000"/>
    </defs>
    <g clip-path="url(#p2843c597c4)">
     <use xlink:href="#m7c20c02f89" x="115.363636" y="285.901668" style="stroke: #000000"/>
    </g>
   </g>
  </g>
 </g>
 <defs>
  <clipPath id="p2843c597c4">
   <path d="M 90 296.311835 
L 90 67.288165 
L 648 67.288165 
L 648 296.311835 
L 90 296.311835 
"/>
  </clipPath>
 </defs>
</svg>
