<?xml version="1.0" encoding="utf-8" standalone="no"?>
<!DOCTYPE svg PUBLIC "-//W3C//DTD SVG 1.1//EN"
  "http://www.w3.org/Graphics/SVG/1.1/DTD/svg11.dtd">
<svg xmlns:xlink="http://www.w3.org/1999/xlink" width="720pt" height="360pt" viewBox="0 0 720 360" xmlns="http://www.w3.org/2000/svg" version="1.1">
 <metadata>
  <rdf:RDF xmlns:dc="http://purl.org/dc/elements/1.1/" xmlns:cc="http://creativecommons.org/ns#" xmlns:rdf="http://www.w3.org/1999/02/22-rdf-syntax-ns#">
   <cc:Work>
    <dc:type rdf:resource="http://purl.org/dc/dcmitype/StillImage"/>
    <dc:date>2023-11-30T21:30:44.946280</dc:date>
    <dc:format>image/svg+xml</dc:format>
    <dc:creator>
     <cc:Agent>
      <dc:title>Matplotlib v3.8.1, https://matplotlib.org/</dc:title>
     </cc:Agent>
    </dc:creator>
   </cc:Work>
  </rdf:RDF>
 </metadata>
 <defs>
  <style type="text/css">*{stroke-linejoin: round; stroke-linecap: butt}</style>
 </defs>
 <g id="figure_1">
  <g id="patch_1">
   <path d="M 0 360 
L 720 360 
L 720 0 
L 0 0 
z
" style="fill: #ffffff"/>
  </g>
  <g id="axes_1">
   <g id="patch_2">
    <path d="M 126.739531 320.4 
L 126.739531 43.2 
L 611.260469 43.2 
L 611.260469 320.4 
L 126.739531 320.4 
" style="fill: #ffffff"/>
   </g>
   <g id="line2d_1">
    <defs>
     <path id="md494b8f201" d="M 0 11.597821 
C 3.075778 11.597821 6.025994 10.375801 8.200898 8.200898 
C 10.375801 6.025994 11.597821 3.075778 11.597821 0 
C 11.597821 -3.075778 10.375801 -6.025994 8.200898 -8.200898 
C 6.025994 -10.375801 3.075778 -11.597821 0 -11.597821 
C -3.075778 -11.597821 -6.025994 -10.375801 -8.200898 -8.200898 
C -10.375801 -6.025994 -11.597821 -3.075778 -11.597821 0 
C -11.597821 3.075778 -10.375801 6.025994 -8.200898 8.200898 
C -6.025994 10.375801 -3.075778 11.597821 0 11.597821 
z
" style="stroke: #000000"/>
    </defs>
    <g clip-path="url(#p1e3b6db1a7)">
     <use xlink:href="#md494b8f201" x="373.830032" y="290.558936" style="stroke: #000000"/>
    </g>
   </g>
   <g id="line2d_2">
    <defs>
     <path id="md799e5f26a" d="M 0 11.163801 
C 2.960675 11.163801 5.800486 9.987513 7.894 7.894 
C 9.987513 5.800486 11.163801 2.960675 11.163801 0 
C 11.163801 -2.960675 9.987513 -5.800486 7.894 -7.894 
C 5.800486 -9.987513 2.960675 -11.163801 0 -11.163801 
C -2.960675 -11.163801 -5.800486 -9.987513 -7.894 -7.894 
C -9.987513 -5.800486 -11.163801 -2.960675 -11.163801 0 
C -11.163801 2.960675 -9.987513 5.800486 -7.894 7.894 
C -5.800486 9.987513 -2.960675 11.163801 0 11.163801 
z
" style="stroke: #000000"/>
    </defs>
    <g clip-path="url(#p1e3b6db1a7)">
     <use xlink:href="#md799e5f26a" x="148.76321" y="68.279245" style="stroke: #000000"/>
    </g>
   </g>
   <g id="line2d_3">
    <defs>
     <path id="m625fd0a57b" d="M 0 11.029162 
C 2.924968 11.029162 5.730531 9.86706 7.798796 7.798796 
C 9.86706 5.730531 11.029162 2.924968 11.029162 0 
C 11.029162 -2.924968 9.86706 -5.730531 7.798796 -7.798796 
C 5.730531 -9.86706 2.924968 -11.029162 0 -11.029162 
C -2.924968 -11.029162 -5.730531 -9.86706 -7.798796 -7.798796 
C -9.86706 -5.730531 -11.029162 -2.924968 -11.029162 0 
C -11.029162 2.924968 -9.86706 5.730531 -7.798796 7.798796 
C -5.730531 9.86706 -2.924968 11.029162 0 11.029162 
z
" style="stroke: #000000"/>
    </defs>
    <g clip-path="url(#p1e3b6db1a7)">
     <use xlink:href="#m625fd0a57b" x="366.901784" y="300.87404" style="stroke: #000000"/>
    </g>
   </g>
   <g id="line2d_4">
    <defs>
     <path id="m5c99908c60" d="M 0 10.121123 
C 2.684153 10.121123 5.258732 9.054698 7.156715 7.156715 
C 9.054698 5.258732 10.121123 2.684153 10.121123 0 
C 10.121123 -2.684153 9.054698 -5.258732 7.156715 -7.156715 
C 5.258732 -9.054698 2.684153 -10.121123 0 -10.121123 
C -2.684153 -10.121123 -5.258732 -9.054698 -7.156715 -7.156715 
C -9.054698 -5.258732 -10.121123 -2.684153 -10.121123 0 
C -10.121123 2.684153 -9.054698 5.258732 -7.156715 7.156715 
C -5.258732 9.054698 -2.684153 10.121123 0 10.121123 
z
" style="stroke: #000000"/>
    </defs>
    <g clip-path="url(#p1e3b6db1a7)">
     <use xlink:href="#m5c99908c60" x="373.975144" y="278.435075" style="stroke: #000000"/>
    </g>
   </g>
   <g id="line2d_5">
    <defs>
     <path id="m6196ff9834" d="M 0 9.787034 
C 2.595552 9.787034 5.085146 8.755811 6.920478 6.920478 
C 8.755811 5.085146 9.787034 2.595552 9.787034 0 
C 9.787034 -2.595552 8.755811 -5.085146 6.920478 -6.920478 
C 5.085146 -8.755811 2.595552 -9.787034 0 -9.787034 
C -2.595552 -9.787034 -5.085146 -8.755811 -6.920478 -6.920478 
C -8.755811 -5.085146 -9.787034 -2.595552 -9.787034 0 
C -9.787034 2.595552 -8.755811 5.085146 -6.920478 6.920478 
C -5.085146 8.755811 -2.595552 9.787034 0 9.787034 
z
" style="stroke: #000000"/>
    </defs>
    <g clip-path="url(#p1e3b6db1a7)">
     <use xlink:href="#m6196ff9834" x="551.377778" y="55.8" style="stroke: #000000"/>
    </g>
   </g>
   <g id="line2d_6">
    <defs>
     <path id="mf9d0d4e8a2" d="M 0 9.708026 
C 2.574598 9.708026 5.044095 8.685127 6.864611 6.864611 
C 8.685127 5.044095 9.708026 2.574598 9.708026 0 
C 9.708026 -2.574598 8.685127 -5.044095 6.864611 -6.864611 
C 5.044095 -8.685127 2.574598 -9.708026 0 -9.708026 
C -2.574598 -9.708026 -5.044095 -8.685127 -6.864611 -6.864611 
C -8.685127 -5.044095 -9.708026 -2.574598 -9.708026 0 
C -9.708026 2.574598 -8.685127 5.044095 -6.864611 6.864611 
C -5.044095 8.685127 -2.574598 9.708026 0 9.708026 
z
" style="stroke: #000000"/>
    </defs>
    <g clip-path="url(#p1e3b6db1a7)">
     <use xlink:href="#mf9d0d4e8a2" x="589.23679" y="307.8" style="stroke: #000000"/>
    </g>
   </g>
   <g id="line2d_7">
    <defs>
     <path id="m3465f07fc8" d="M 0 9.675191 
C 2.565891 9.675191 5.027035 8.655752 6.841393 6.841393 
C 8.655752 5.027035 9.675191 2.565891 9.675191 0 
C 9.675191 -2.565891 8.655752 -5.027035 6.841393 -6.841393 
C 5.027035 -8.655752 2.565891 -9.675191 0 -9.675191 
C -2.565891 -9.675191 -5.027035 -8.655752 -6.841393 -6.841393 
C -8.655752 -5.027035 -9.675191 -2.565891 -9.675191 0 
C -9.675191 2.565891 -8.655752 5.027035 -6.841393 6.841393 
C -5.027035 8.655752 -2.565891 9.675191 0 9.675191 
z
" style="stroke: #000000"/>
    </defs>
    <g clip-path="url(#p1e3b6db1a7)">
     <use xlink:href="#m3465f07fc8" x="382.322451" y="289.775233" style="stroke: #000000"/>
    </g>
   </g>
   <g id="line2d_8">
    <defs>
     <path id="mf77439bad6" d="M 0 9.623224 
C 2.552109 9.623224 5.000034 8.609261 6.804647 6.804647 
C 8.609261 5.000034 9.623224 2.552109 9.623224 0 
C 9.623224 -2.552109 8.609261 -5.000034 6.804647 -6.804647 
C 5.000034 -8.609261 2.552109 -9.623224 0 -9.623224 
C -2.552109 -9.623224 -5.000034 -8.609261 -6.804647 -6.804647 
C -8.609261 -5.000034 -9.623224 -2.552109 -9.623224 0 
C -9.623224 2.552109 -8.609261 5.000034 -6.804647 6.804647 
C -5.000034 8.609261 -2.552109 9.623224 0 9.623224 
z
" style="stroke: #000000"/>
    </defs>
    <g clip-path="url(#p1e3b6db1a7)">
     <use xlink:href="#mf77439bad6" x="395.937656" y="100.717097" style="stroke: #000000"/>
    </g>
   </g>
   <g id="line2d_9">
    <defs>
     <path id="m15a6cfa1b9" d="M 0 9.588318 
C 2.542852 9.588318 4.981897 8.578032 6.779965 6.779965 
C 8.578032 4.981897 9.588318 2.542852 9.588318 0 
C 9.588318 -2.542852 8.578032 -4.981897 6.779965 -6.779965 
C 4.981897 -8.578032 2.542852 -9.588318 0 -9.588318 
C -2.542852 -9.588318 -4.981897 -8.578032 -6.779965 -6.779965 
C -8.578032 -4.981897 -9.588318 -2.542852 -9.588318 0 
C -9.588318 2.542852 -8.578032 4.981897 -6.779965 6.779965 
C -4.981897 8.578032 -2.542852 9.588318 0 9.588318 
z
" style="stroke: #000000"/>
    </defs>
    <g clip-path="url(#p1e3b6db1a7)">
     <use xlink:href="#m15a6cfa1b9" x="359.863858" y="113.594834" style="stroke: #000000"/>
    </g>
   </g>
   <g id="line2d_10">
    <defs>
     <path id="m3d898ba44e" d="M 0 9.568667 
C 2.53764 9.568667 4.971687 8.560452 6.766069 6.766069 
C 8.560452 4.971687 9.568667 2.53764 9.568667 0 
C 9.568667 -2.53764 8.560452 -4.971687 6.766069 -6.766069 
C 4.971687 -8.560452 2.53764 -9.568667 0 -9.568667 
C -2.53764 -9.568667 -4.971687 -8.560452 -6.766069 -6.766069 
C -8.560452 -4.971687 -9.568667 -2.53764 -9.568667 0 
C -9.568667 2.53764 -8.560452 4.971687 -6.766069 6.766069 
C -4.971687 8.560452 -2.53764 9.568667 0 9.568667 
z
" style="stroke: #000000"/>
    </defs>
    <g clip-path="url(#p1e3b6db1a7)">
     <use xlink:href="#m3d898ba44e" x="332.026002" y="149.231275" style="stroke: #000000"/>
    </g>
   </g>
  </g>
 </g>
 <defs>
  <clipPath id="p1e3b6db1a7">
   <path d="M 126.739531 320.4 
L 126.739531 43.2 
L 611.260469 43.2 
L 611.260469 320.4 
L 126.739531 320.4 
"/>
  </clipPath>
 </defs>
</svg>
