<?xml version="1.0" encoding="utf-8" standalone="no"?>
<!DOCTYPE svg PUBLIC "-//W3C//DTD SVG 1.1//EN"
  "http://www.w3.org/Graphics/SVG/1.1/DTD/svg11.dtd">
<svg xmlns:xlink="http://www.w3.org/1999/xlink" width="720pt" height="360pt" viewBox="0 0 720 360" xmlns="http://www.w3.org/2000/svg" version="1.1">
 <metadata>
  <rdf:RDF xmlns:dc="http://purl.org/dc/elements/1.1/" xmlns:cc="http://creativecommons.org/ns#" xmlns:rdf="http://www.w3.org/1999/02/22-rdf-syntax-ns#">
   <cc:Work>
    <dc:type rdf:resource="http://purl.org/dc/dcmitype/StillImage"/>
    <dc:date>2023-11-30T21:30:44.988609</dc:date>
    <dc:format>image/svg+xml</dc:format>
    <dc:creator>
     <cc:Agent>
      <dc:title>Matplotlib v3.8.1, https://matplotlib.org/</dc:title>
     </cc:Agent>
    </dc:creator>
   </cc:Work>
  </rdf:RDF>
 </metadata>
 <defs>
  <style type="text/css">*{stroke-linejoin: round; stroke-linecap: butt}</style>
 </defs>
 <g id="figure_1">
  <g id="patch_1">
   <path d="M 0 360 
L 720 360 
L 720 0 
L 0 0 
z
" style="fill: #ffffff"/>
  </g>
  <g id="axes_1">
   <g id="patch_2">
    <path d="M 117.798935 320.4 
L 117.798935 43.2 
L 620.201065 43.2 
L 620.201065 320.4 
L 117.798935 320.4 
" style="fill: #ffffff"/>
   </g>
   <g id="line2d_1">
    <defs>
     <path id="m88ba1472f9" d="M 0 9.55258 
C 2.533374 9.55258 4.963328 8.54606 6.754694 6.754694 
C 8.54606 4.963328 9.55258 2.533374 9.55258 0 
C 9.55258 -2.533374 8.54606 -4.963328 6.754694 -6.754694 
C 4.963328 -8.54606 2.533374 -9.55258 0 -9.55258 
C -2.533374 -9.55258 -4.963328 -8.54606 -6.754694 -6.754694 
C -8.54606 -4.963328 -9.55258 -2.533374 -9.55258 0 
C -9.55258 2.533374 -8.54606 4.963328 -6.754694 6.754694 
C -4.963328 8.54606 -2.533374 9.55258 0 9.55258 
z
" style="stroke: #000000"/>
    </defs>
    <g clip-path="url(#pbddcd2613b)">
     <use xlink:href="#m88ba1472f9" x="259.605851" y="96.051734" style="stroke: #000000"/>
    </g>
   </g>
   <g id="line2d_2">
    <defs>
     <path id="m7e8f88af68" d="M 0 8.095385 
C 2.146921 8.095385 4.206199 7.242404 5.724302 5.724302 
C 7.242404 4.206199 8.095385 2.146921 8.095385 0 
C 8.095385 -2.146921 7.242404 -4.206199 5.724302 -5.724302 
C 4.206199 -7.242404 2.146921 -8.095385 0 -8.095385 
C -2.146921 -8.095385 -4.206199 -7.242404 -5.724302 -5.724302 
C -7.242404 -4.206199 -8.095385 -2.146921 -8.095385 0 
C -8.095385 2.146921 -7.242404 4.206199 -5.724302 5.724302 
C -4.206199 7.242404 -2.146921 8.095385 0 8.095385 
z
" style="stroke: #000000"/>
    </defs>
    <g clip-path="url(#pbddcd2613b)">
     <use xlink:href="#m7e8f88af68" x="216.958442" y="55.8" style="stroke: #000000"/>
    </g>
   </g>
   <g id="line2d_3">
    <defs>
     <path id="mbc2bfcc723" d="M 0 7.247834 
C 1.922148 7.247834 3.765829 6.484156 5.124992 5.124992 
C 6.484156 3.765829 7.247834 1.922148 7.247834 0 
C 7.247834 -1.922148 6.484156 -3.765829 5.124992 -5.124992 
C 3.765829 -6.484156 1.922148 -7.247834 0 -7.247834 
C -1.922148 -7.247834 -3.765829 -6.484156 -5.124992 -5.124992 
C -6.484156 -3.765829 -7.247834 -1.922148 -7.247834 0 
C -7.247834 1.922148 -6.484156 3.765829 -5.124992 5.124992 
C -3.765829 6.484156 -1.922148 7.247834 0 7.247834 
z
" style="stroke: #000000"/>
    </defs>
    <g clip-path="url(#pbddcd2613b)">
     <use xlink:href="#mbc2bfcc723" x="307.747739" y="71.349351" style="stroke: #000000"/>
    </g>
   </g>
   <g id="line2d_4">
    <defs>
     <path id="m8e0cebd351" d="M 0 7.189317 
C 1.906629 7.189317 3.735424 6.431805 5.083615 5.083615 
C 6.431805 3.735424 7.189317 1.906629 7.189317 0 
C 7.189317 -1.906629 6.431805 -3.735424 5.083615 -5.083615 
C 3.735424 -6.431805 1.906629 -7.189317 0 -7.189317 
C -1.906629 -7.189317 -3.735424 -6.431805 -5.083615 -5.083615 
C -6.431805 -3.735424 -7.189317 -1.906629 -7.189317 0 
C -7.189317 1.906629 -6.431805 3.735424 -5.083615 5.083615 
C -3.735424 6.431805 -1.906629 7.189317 0 7.189317 
z
" style="stroke: #000000"/>
    </defs>
    <g clip-path="url(#pbddcd2613b)">
     <use xlink:href="#m8e0cebd351" x="597.364605" y="307.8" style="stroke: #000000"/>
    </g>
   </g>
   <g id="line2d_5">
    <defs>
     <path id="mdcf44f683f" d="M 0 7.059065 
C 1.872086 7.059065 3.667748 6.315277 4.991513 4.991513 
C 6.315277 3.667748 7.059065 1.872086 7.059065 0 
C 7.059065 -1.872086 6.315277 -3.667748 4.991513 -4.991513 
C 3.667748 -6.315277 1.872086 -7.059065 0 -7.059065 
C -1.872086 -7.059065 -3.667748 -6.315277 -4.991513 -4.991513 
C -6.315277 -3.667748 -7.059065 -1.872086 -7.059065 0 
C -7.059065 1.872086 -6.315277 3.667748 -4.991513 4.991513 
C -3.667748 6.315277 -1.872086 7.059065 0 7.059065 
z
" style="stroke: #000000"/>
    </defs>
    <g clip-path="url(#pbddcd2613b)">
     <use xlink:href="#mdcf44f683f" x="249.266225" y="137.217466" style="stroke: #000000"/>
    </g>
   </g>
   <g id="line2d_6">
    <defs>
     <path id="m89314fd8ff" d="M 0 6.978007 
C 1.850589 6.978007 3.625632 6.24276 4.934196 4.934196 
C 6.24276 3.625632 6.978007 1.850589 6.978007 0 
C 6.978007 -1.850589 6.24276 -3.625632 4.934196 -4.934196 
C 3.625632 -6.24276 1.850589 -6.978007 0 -6.978007 
C -1.850589 -6.978007 -3.625632 -6.24276 -4.934196 -4.934196 
C -6.24276 -3.625632 -6.978007 -1.850589 -6.978007 0 
C -6.978007 1.850589 -6.24276 3.625632 -4.934196 4.934196 
C -3.625632 6.24276 -1.850589 6.978007 0 6.978007 
z
" style="stroke: #000000"/>
    </defs>
    <g clip-path="url(#pbddcd2613b)">
     <use xlink:href="#m89314fd8ff" x="140.635395" y="117.267943" style="stroke: #000000"/>
    </g>
   </g>
   <g id="line2d_7">
    <defs>
     <path id="mcef9ed1671" d="M 0 6.836544 
C 1.813073 6.836544 3.552131 6.116203 4.834167 4.834167 
C 6.116203 3.552131 6.836544 1.813073 6.836544 0 
C 6.836544 -1.813073 6.116203 -3.552131 4.834167 -4.834167 
C 3.552131 -6.116203 1.813073 -6.836544 0 -6.836544 
C -1.813073 -6.836544 -3.552131 -6.116203 -4.834167 -4.834167 
C -6.116203 -3.552131 -6.836544 -1.813073 -6.836544 0 
C -6.836544 1.813073 -6.116203 3.552131 -4.834167 4.834167 
C -3.552131 6.116203 -1.813073 6.836544 0 6.836544 
z
" style="stroke: #000000"/>
    </defs>
    <g clip-path="url(#pbddcd2613b)">
     <use xlink:href="#mcef9ed1671" x="299.113939" y="141.119179" style="stroke: #000000"/>
    </g>
   </g>
   <g id="line2d_8">
    <defs>
     <path id="m2d3b003cc5" d="M 0 6.72946 
C 1.784674 6.72946 3.496492 6.020401 4.758447 4.758447 
C 6.020401 3.496492 6.72946 1.784674 6.72946 0 
C 6.72946 -1.784674 6.020401 -3.496492 4.758447 -4.758447 
C 3.496492 -6.020401 1.784674 -6.72946 0 -6.72946 
C -1.784674 -6.72946 -3.496492 -6.020401 -4.758447 -4.758447 
C -6.020401 -3.496492 -6.72946 -1.784674 -6.72946 0 
C -6.72946 1.784674 -6.020401 3.496492 -4.758447 4.758447 
C -3.496492 6.020401 -1.784674 6.72946 0 6.72946 
z
" style="stroke: #000000"/>
    </defs>
    <g clip-path="url(#pbddcd2613b)">
     <use xlink:href="#m2d3b003cc5" x="504.609572" y="224.2571" style="stroke: #000000"/>
    </g>
   </g>
   <g id="line2d_9">
    <defs>
     <path id="m74b14f4dff" d="M 0 6.70998 
C 1.779508 6.70998 3.486371 6.002974 4.744672 4.744672 
C 6.002974 3.486371 6.70998 1.779508 6.70998 0 
C 6.70998 -1.779508 6.002974 -3.486371 4.744672 -4.744672 
C 3.486371 -6.002974 1.779508 -6.70998 0 -6.70998 
C -1.779508 -6.70998 -3.486371 -6.002974 -4.744672 -4.744672 
C -6.002974 -3.486371 -6.70998 -1.779508 -6.70998 0 
C -6.70998 1.779508 -6.002974 3.486371 -4.744672 4.744672 
C -3.486371 6.002974 -1.779508 6.70998 0 6.70998 
z
" style="stroke: #000000"/>
    </defs>
    <g clip-path="url(#pbddcd2613b)">
     <use xlink:href="#m74b14f4dff" x="269.865641" y="120.538307" style="stroke: #000000"/>
    </g>
   </g>
   <g id="line2d_10">
    <defs>
     <path id="m081bd2bc5f" d="M 0 6.556383 
C 1.738773 6.556383 3.406564 5.865561 4.636063 4.636063 
C 5.865561 3.406564 6.556383 1.738773 6.556383 0 
C 6.556383 -1.738773 5.865561 -3.406564 4.636063 -4.636063 
C 3.406564 -5.865561 1.738773 -6.556383 0 -6.556383 
C -1.738773 -6.556383 -3.406564 -5.865561 -4.636063 -4.636063 
C -5.865561 -3.406564 -6.556383 -1.738773 -6.556383 0 
C -6.556383 1.738773 -5.865561 3.406564 -4.636063 4.636063 
C -3.406564 5.865561 -1.738773 6.556383 0 6.556383 
z
" style="stroke: #000000"/>
    </defs>
    <g clip-path="url(#pbddcd2613b)">
     <use xlink:href="#m081bd2bc5f" x="166.558974" y="76.85227" style="stroke: #000000"/>
    </g>
   </g>
  </g>
 </g>
 <defs>
  <clipPath id="pbddcd2613b">
   <path d="M 117.798935 320.4 
L 117.798935 43.2 
L 620.201065 43.2 
L 620.201065 320.4 
L 117.798935 320.4 
"/>
  </clipPath>
 </defs>
</svg>
