<?xml version="1.0" encoding="utf-8" standalone="no"?>
<!DOCTYPE svg PUBLIC "-//W3C//DTD SVG 1.1//EN"
  "http://www.w3.org/Graphics/SVG/1.1/DTD/svg11.dtd">
<svg xmlns:xlink="http://www.w3.org/1999/xlink" width="720pt" height="360pt" viewBox="0 0 720 360" xmlns="http://www.w3.org/2000/svg" version="1.1">
 <metadata>
  <rdf:RDF xmlns:dc="http://purl.org/dc/elements/1.1/" xmlns:cc="http://creativecommons.org/ns#" xmlns:rdf="http://www.w3.org/1999/02/22-rdf-syntax-ns#">
   <cc:Work>
    <dc:type rdf:resource="http://purl.org/dc/dcmitype/StillImage"/>
    <dc:date>2023-11-30T21:30:45.030010</dc:date>
    <dc:format>image/svg+xml</dc:format>
    <dc:creator>
     <cc:Agent>
      <dc:title>Matplotlib v3.8.1, https://matplotlib.org/</dc:title>
     </cc:Agent>
    </dc:creator>
   </cc:Work>
  </rdf:RDF>
 </metadata>
 <defs>
  <style type="text/css">*{stroke-linejoin: round; stroke-linecap: butt}</style>
 </defs>
 <g id="figure_1">
  <g id="patch_1">
   <path d="M 0 360 
L 720 360 
L 720 0 
L 0 0 
z
" style="fill: #ffffff"/>
  </g>
  <g id="axes_1">
   <g id="patch_2">
    <path d="M 235.09347 320.4 
L 235.09347 43.2 
L 502.90653 43.2 
L 502.90653 320.4 
L 235.09347 320.4 
" style="fill: #ffffff"/>
   </g>
   <g id="line2d_1">
    <defs>
     <path id="m361572089c" d="M 0 10.817322 
C 2.868787 10.817322 5.620463 9.677541 7.649002 7.649002 
C 9.677541 5.620463 10.817322 2.868787 10.817322 0 
C 10.817322 -2.868787 9.677541 -5.620463 7.649002 -7.649002 
C 5.620463 -9.677541 2.868787 -10.817322 0 -10.817322 
C -2.868787 -10.817322 -5.620463 -9.677541 -7.649002 -7.649002 
C -9.677541 -5.620463 -10.817322 -2.868787 -10.817322 0 
C -10.817322 2.868787 -9.677541 5.620463 -7.649002 7.649002 
C -5.620463 9.677541 -2.868787 10.817322 0 10.817322 
z
" style="stroke: #000000"/>
    </defs>
    <g clip-path="url(#p999ea7c8d4)">
     <use xlink:href="#m361572089c" x="405.108668" y="107.113341" style="stroke: #000000"/>
    </g>
   </g>
   <g id="line2d_2">
    <defs>
     <path id="mb0c34cefca" d="M 0 10.313934 
C 2.735287 10.313934 5.358913 9.227193 7.293053 7.293053 
C 9.227193 5.358913 10.313934 2.735287 10.313934 0 
C 10.313934 -2.735287 9.227193 -5.358913 7.293053 -7.293053 
C 5.358913 -9.227193 2.735287 -10.313934 0 -10.313934 
C -2.735287 -10.313934 -5.358913 -9.227193 -7.293053 -7.293053 
C -9.227193 -5.358913 -10.313934 -2.735287 -10.313934 0 
C -10.313934 2.735287 -9.227193 5.358913 -7.293053 7.293053 
C -5.358913 9.227193 -2.735287 10.313934 0 10.313934 
z
" style="stroke: #000000"/>
    </defs>
    <g clip-path="url(#p999ea7c8d4)">
     <use xlink:href="#mb0c34cefca" x="484.112026" y="89.840932" style="stroke: #000000"/>
    </g>
   </g>
   <g id="line2d_3">
    <defs>
     <path id="m6b6a3e2e41" d="M 0 9.795514 
C 2.597801 9.795514 5.089552 8.763397 6.926474 6.926474 
C 8.763397 5.089552 9.795514 2.597801 9.795514 0 
C 9.795514 -2.597801 8.763397 -5.089552 6.926474 -6.926474 
C 5.089552 -8.763397 2.597801 -9.795514 0 -9.795514 
C -2.597801 -9.795514 -5.089552 -8.763397 -6.926474 -6.926474 
C -8.763397 -5.089552 -9.795514 -2.597801 -9.795514 0 
C -9.795514 2.597801 -8.763397 5.089552 -6.926474 6.926474 
C -5.089552 8.763397 -2.597801 9.795514 0 9.795514 
z
" style="stroke: #000000"/>
    </defs>
    <g clip-path="url(#p999ea7c8d4)">
     <use xlink:href="#m6b6a3e2e41" x="449.8955" y="123.6196" style="stroke: #000000"/>
    </g>
   </g>
   <g id="line2d_4">
    <defs>
     <path id="m31bc4978d0" d="M 0 9.692066 
C 2.570366 9.692066 5.035802 8.670849 6.853326 6.853326 
C 8.670849 5.035802 9.692066 2.570366 9.692066 0 
C 9.692066 -2.570366 8.670849 -5.035802 6.853326 -6.853326 
C 5.035802 -8.670849 2.570366 -9.692066 0 -9.692066 
C -2.570366 -9.692066 -5.035802 -8.670849 -6.853326 -6.853326 
C -8.670849 -5.035802 -9.692066 -2.570366 -9.692066 0 
C -9.692066 2.570366 -8.670849 5.035802 -6.853326 6.853326 
C -5.035802 8.670849 -2.570366 9.692066 0 9.692066 
z
" style="stroke: #000000"/>
    </defs>
    <g clip-path="url(#p999ea7c8d4)">
     <use xlink:href="#m31bc4978d0" x="374.504849" y="159.453187" style="stroke: #000000"/>
    </g>
   </g>
   <g id="line2d_5">
    <defs>
     <path id="mffefb6c3ed" d="M 0 9.682587 
C 2.567852 9.682587 5.030877 8.662368 6.846623 6.846623 
C 8.662368 5.030877 9.682587 2.567852 9.682587 0 
C 9.682587 -2.567852 8.662368 -5.030877 6.846623 -6.846623 
C 5.030877 -8.662368 2.567852 -9.682587 0 -9.682587 
C -2.567852 -9.682587 -5.030877 -8.662368 -6.846623 -6.846623 
C -8.662368 -5.030877 -9.682587 -2.567852 -9.682587 0 
C -9.682587 2.567852 -8.662368 5.030877 -6.846623 6.846623 
C -5.030877 8.662368 -2.567852 9.682587 0 9.682587 
z
" style="stroke: #000000"/>
    </defs>
    <g clip-path="url(#p999ea7c8d4)">
     <use xlink:href="#mffefb6c3ed" x="443.187651" y="85.047561" style="stroke: #000000"/>
    </g>
   </g>
   <g id="line2d_6">
    <defs>
     <path id="mdce3151667" d="M 0 9.57093 
C 2.53824 9.57093 4.972863 8.562477 6.76767 6.76767 
C 8.562477 4.972863 9.57093 2.53824 9.57093 0 
C 9.57093 -2.53824 8.562477 -4.972863 6.76767 -6.76767 
C 4.972863 -8.562477 2.53824 -9.57093 0 -9.57093 
C -2.53824 -9.57093 -4.972863 -8.562477 -6.76767 -6.76767 
C -8.562477 -4.972863 -9.57093 -2.53824 -9.57093 0 
C -9.57093 2.53824 -8.562477 4.972863 -6.76767 6.76767 
C -4.972863 8.562477 -2.53824 9.57093 0 9.57093 
z
" style="stroke: #000000"/>
    </defs>
    <g clip-path="url(#p999ea7c8d4)">
     <use xlink:href="#mdce3151667" x="395.434259" y="170.596672" style="stroke: #000000"/>
    </g>
   </g>
   <g id="line2d_7">
    <defs>
     <path id="m81593deb37" d="M 0 9.406186 
C 2.49455 9.406186 4.887265 8.415091 6.651178 6.651178 
C 8.415091 4.887265 9.406186 2.49455 9.406186 0 
C 9.406186 -2.49455 8.415091 -4.887265 6.651178 -6.651178 
C 4.887265 -8.415091 2.49455 -9.406186 0 -9.406186 
C -2.49455 -9.406186 -4.887265 -8.415091 -6.651178 -6.651178 
C -8.415091 -4.887265 -9.406186 -2.49455 -9.406186 0 
C -9.406186 2.49455 -8.415091 4.887265 -6.651178 6.651178 
C -4.887265 8.415091 -2.49455 9.406186 0 9.406186 
z
" style="stroke: #000000"/>
    </defs>
    <g clip-path="url(#p999ea7c8d4)">
     <use xlink:href="#m81593deb37" x="439.781701" y="149.205903" style="stroke: #000000"/>
    </g>
   </g>
   <g id="line2d_8">
    <defs>
     <path id="m55d67633eb" d="M 0 9.322037 
C 2.472233 9.322037 4.843543 8.339809 6.591676 6.591676 
C 8.339809 4.843543 9.322037 2.472233 9.322037 0 
C 9.322037 -2.472233 8.339809 -4.843543 6.591676 -6.591676 
C 4.843543 -8.339809 2.472233 -9.322037 0 -9.322037 
C -2.472233 -9.322037 -4.843543 -8.339809 -6.591676 -6.591676 
C -8.339809 -4.843543 -9.322037 -2.472233 -9.322037 0 
C -9.322037 2.472233 -8.339809 4.843543 -6.591676 6.591676 
C -4.843543 8.339809 -2.472233 9.322037 0 9.322037 
z
" style="stroke: #000000"/>
    </defs>
    <g clip-path="url(#p999ea7c8d4)">
     <use xlink:href="#m55d67633eb" x="490.733209" y="121.957961" style="stroke: #000000"/>
    </g>
   </g>
   <g id="line2d_9">
    <defs>
     <path id="m4572f50fd3" d="M 0 9.265001 
C 2.457107 9.265001 4.813908 8.288782 6.551345 6.551345 
C 8.288782 4.813908 9.265001 2.457107 9.265001 0 
C 9.265001 -2.457107 8.288782 -4.813908 6.551345 -6.551345 
C 4.813908 -8.288782 2.457107 -9.265001 0 -9.265001 
C -2.457107 -9.265001 -4.813908 -8.288782 -6.551345 -6.551345 
C -8.288782 -4.813908 -9.265001 -2.457107 -9.265001 0 
C -9.265001 2.457107 -8.288782 4.813908 -6.551345 6.551345 
C -4.813908 8.288782 -2.457107 9.265001 0 9.265001 
z
" style="stroke: #000000"/>
    </defs>
    <g clip-path="url(#p999ea7c8d4)">
     <use xlink:href="#m4572f50fd3" x="247.266791" y="307.8" style="stroke: #000000"/>
    </g>
   </g>
   <g id="line2d_10">
    <defs>
     <path id="mdb058228ee" d="M 0 9.199835 
C 2.439825 9.199835 4.780049 8.230482 6.505266 6.505266 
C 8.230482 4.780049 9.199835 2.439825 9.199835 0 
C 9.199835 -2.439825 8.230482 -4.780049 6.505266 -6.505266 
C 4.780049 -8.230482 2.439825 -9.199835 0 -9.199835 
C -2.439825 -9.199835 -4.780049 -8.230482 -6.505266 -6.505266 
C -8.230482 -4.780049 -9.199835 -2.439825 -9.199835 0 
C -9.199835 2.439825 -8.230482 4.780049 -6.505266 6.505266 
C -4.780049 8.230482 -2.439825 9.199835 0 9.199835 
z
" style="stroke: #000000"/>
    </defs>
    <g clip-path="url(#p999ea7c8d4)">
     <use xlink:href="#mdb058228ee" x="415.585031" y="55.8" style="stroke: #000000"/>
    </g>
   </g>
  </g>
 </g>
 <defs>
  <clipPath id="p999ea7c8d4">
   <path d="M 235.09347 320.4 
L 235.09347 43.2 
L 502.90653 43.2 
L 502.90653 320.4 
L 235.09347 320.4 
"/>
  </clipPath>
 </defs>
</svg>
