<?xml version="1.0" encoding="utf-8" standalone="no"?>
<!DOCTYPE svg PUBLIC "-//W3C//DTD SVG 1.1//EN"
  "http://www.w3.org/Graphics/SVG/1.1/DTD/svg11.dtd">
<svg xmlns:xlink="http://www.w3.org/1999/xlink" width="720pt" height="360pt" viewBox="0 0 720 360" xmlns="http://www.w3.org/2000/svg" version="1.1">
 <metadata>
  <rdf:RDF xmlns:dc="http://purl.org/dc/elements/1.1/" xmlns:cc="http://creativecommons.org/ns#" xmlns:rdf="http://www.w3.org/1999/02/22-rdf-syntax-ns#">
   <cc:Work>
    <dc:type rdf:resource="http://purl.org/dc/dcmitype/StillImage"/>
    <dc:date>2023-11-30T21:30:45.743963</dc:date>
    <dc:format>image/svg+xml</dc:format>
    <dc:creator>
     <cc:Agent>
      <dc:title>Matplotlib v3.8.1, https://matplotlib.org/</dc:title>
     </cc:Agent>
    </dc:creator>
   </cc:Work>
  </rdf:RDF>
 </metadata>
 <defs>
  <style type="text/css">*{stroke-linejoin: round; stroke-linecap: butt}</style>
 </defs>
 <g id="figure_1">
  <g id="patch_1">
   <path d="M 0 360 
L 720 360 
L 720 0 
L 0 0 
z
" style="fill: #ffffff"/>
  </g>
  <g id="axes_1">
   <g id="patch_2">
    <path d="M 241.812463 320.4 
L 241.812463 43.2 
L 496.187537 43.2 
L 496.187537 320.4 
L 241.812463 320.4 
" style="fill: #ffffff"/>
   </g>
   <g id="line2d_1">
    <defs>
     <path id="m6a60b80eee" d="M 0 10.697525 
C 2.837017 10.697525 5.558219 9.570366 7.564292 7.564292 
C 9.570366 5.558219 10.697525 2.837017 10.697525 0 
C 10.697525 -2.837017 9.570366 -5.558219 7.564292 -7.564292 
C 5.558219 -9.570366 2.837017 -10.697525 0 -10.697525 
C -2.837017 -10.697525 -5.558219 -9.570366 -7.564292 -7.564292 
C -9.570366 -5.558219 -10.697525 -2.837017 -10.697525 0 
C -10.697525 2.837017 -9.570366 5.558219 -7.564292 7.564292 
C -5.558219 9.570366 -2.837017 10.697525 0 10.697525 
z
" style="stroke: #000000"/>
    </defs>
    <g clip-path="url(#pfc8cc7f89b)">
     <use xlink:href="#m6a60b80eee" x="327.510321" y="231.453882" style="stroke: #000000"/>
    </g>
   </g>
   <g id="line2d_2">
    <defs>
     <path id="m0b72832712" d="M 0 9.440833 
C 2.503738 9.440833 4.905267 8.446088 6.675677 6.675677 
C 8.446088 4.905267 9.440833 2.503738 9.440833 0 
C 9.440833 -2.503738 8.446088 -4.905267 6.675677 -6.675677 
C 4.905267 -8.446088 2.503738 -9.440833 0 -9.440833 
C -2.503738 -9.440833 -4.905267 -8.446088 -6.675677 -6.675677 
C -8.446088 -4.905267 -9.440833 -2.503738 -9.440833 0 
C -9.440833 2.503738 -8.446088 4.905267 -6.675677 6.675677 
C -4.905267 8.446088 -2.503738 9.440833 0 9.440833 
z
" style="stroke: #000000"/>
    </defs>
    <g clip-path="url(#pfc8cc7f89b)">
     <use xlink:href="#m0b72832712" x="484.625033" y="218.773945" style="stroke: #000000"/>
    </g>
   </g>
   <g id="line2d_3">
    <defs>
     <path id="m7f1c524686" d="M 0 9.378729 
C 2.487268 9.378729 4.872999 8.390527 6.631763 6.631763 
C 8.390527 4.872999 9.378729 2.487268 9.378729 0 
C 9.378729 -2.487268 8.390527 -4.872999 6.631763 -6.631763 
C 4.872999 -8.390527 2.487268 -9.378729 0 -9.378729 
C -2.487268 -9.378729 -4.872999 -8.390527 -6.631763 -6.631763 
C -8.390527 -4.872999 -9.378729 -2.487268 -9.378729 0 
C -9.378729 2.487268 -8.390527 4.872999 -6.631763 6.631763 
C -4.872999 8.390527 -2.487268 9.378729 0 9.378729 
z
" style="stroke: #000000"/>
    </defs>
    <g clip-path="url(#pfc8cc7f89b)">
     <use xlink:href="#m7f1c524686" x="277.883887" y="91.253409" style="stroke: #000000"/>
    </g>
   </g>
   <g id="line2d_4">
    <defs>
     <path id="ma7d07e59d5" d="M 0 9.36849 
C 2.484553 9.36849 4.867679 8.381367 6.624523 6.624523 
C 8.381367 4.867679 9.36849 2.484553 9.36849 0 
C 9.36849 -2.484553 8.381367 -4.867679 6.624523 -6.624523 
C 4.867679 -8.381367 2.484553 -9.36849 0 -9.36849 
C -2.484553 -9.36849 -4.867679 -8.381367 -6.624523 -6.624523 
C -8.381367 -4.867679 -9.36849 -2.484553 -9.36849 0 
C -9.36849 2.484553 -8.381367 4.867679 -6.624523 6.624523 
C -4.867679 8.381367 -2.484553 9.36849 0 9.36849 
z
" style="stroke: #000000"/>
    </defs>
    <g clip-path="url(#pfc8cc7f89b)">
     <use xlink:href="#ma7d07e59d5" x="355.745623" y="55.8" style="stroke: #000000"/>
    </g>
   </g>
   <g id="line2d_5">
    <defs>
     <path id="mee8d83030f" d="M 0 9.365698 
C 2.483812 9.365698 4.866228 8.378869 6.622548 6.622548 
C 8.378869 4.866228 9.365698 2.483812 9.365698 0 
C 9.365698 -2.483812 8.378869 -4.866228 6.622548 -6.622548 
C 4.866228 -8.378869 2.483812 -9.365698 0 -9.365698 
C -2.483812 -9.365698 -4.866228 -8.378869 -6.622548 -6.622548 
C -8.378869 -4.866228 -9.365698 -2.483812 -9.365698 0 
C -9.365698 2.483812 -8.378869 4.866228 -6.622548 6.622548 
C -4.866228 8.378869 -2.483812 9.365698 0 9.365698 
z
" style="stroke: #000000"/>
    </defs>
    <g clip-path="url(#pfc8cc7f89b)">
     <use xlink:href="#mee8d83030f" x="347.659067" y="249.962531" style="stroke: #000000"/>
    </g>
   </g>
   <g id="line2d_6">
    <defs>
     <path id="m5711ed190e" d="M 0 9.310727 
C 2.469234 9.310727 4.837666 8.32969 6.583678 6.583678 
C 8.32969 4.837666 9.310727 2.469234 9.310727 0 
C 9.310727 -2.469234 8.32969 -4.837666 6.583678 -6.583678 
C 4.837666 -8.32969 2.469234 -9.310727 0 -9.310727 
C -2.469234 -9.310727 -4.837666 -8.32969 -6.583678 -6.583678 
C -8.32969 -4.837666 -9.310727 -2.469234 -9.310727 0 
C -9.310727 2.469234 -8.32969 4.837666 -6.583678 6.583678 
C -4.837666 8.32969 -2.469234 9.310727 0 9.310727 
z
" style="stroke: #000000"/>
    </defs>
    <g clip-path="url(#pfc8cc7f89b)">
     <use xlink:href="#m5711ed190e" x="317.023111" y="307.8" style="stroke: #000000"/>
    </g>
   </g>
   <g id="line2d_7">
    <defs>
     <path id="mfe21b990df" d="M 0 9.172271 
C 2.432515 9.172271 4.765728 8.205823 6.485775 6.485775 
C 8.205823 4.765728 9.172271 2.432515 9.172271 0 
C 9.172271 -2.432515 8.205823 -4.765728 6.485775 -6.485775 
C 4.765728 -8.205823 2.432515 -9.172271 0 -9.172271 
C -2.432515 -9.172271 -4.765728 -8.205823 -6.485775 -6.485775 
C -8.205823 -4.765728 -9.172271 -2.432515 -9.172271 0 
C -9.172271 2.432515 -8.205823 4.765728 -6.485775 6.485775 
C -4.765728 8.205823 -2.432515 9.172271 0 9.172271 
z
" style="stroke: #000000"/>
    </defs>
    <g clip-path="url(#pfc8cc7f89b)">
     <use xlink:href="#mfe21b990df" x="274.9417" y="130.894978" style="stroke: #000000"/>
    </g>
   </g>
   <g id="line2d_8">
    <defs>
     <path id="m76e4580681" d="M 0 9.039766 
C 2.397374 9.039766 4.69688 8.087279 6.39208 6.39208 
C 8.087279 4.69688 9.039766 2.397374 9.039766 0 
C 9.039766 -2.397374 8.087279 -4.69688 6.39208 -6.39208 
C 4.69688 -8.087279 2.397374 -9.039766 0 -9.039766 
C -2.397374 -9.039766 -4.69688 -8.087279 -6.39208 -6.39208 
C -8.087279 -4.69688 -9.039766 -2.397374 -9.039766 0 
C -9.039766 2.397374 -8.087279 4.69688 -6.39208 6.39208 
C -4.69688 8.087279 -2.397374 9.039766 0 9.039766 
z
" style="stroke: #000000"/>
    </defs>
    <g clip-path="url(#pfc8cc7f89b)">
     <use xlink:href="#m76e4580681" x="448.423731" y="209.283968" style="stroke: #000000"/>
    </g>
   </g>
   <g id="line2d_9">
    <defs>
     <path id="m9ffd1e5ec5" d="M 0 8.986061 
C 2.383131 8.986061 4.668976 8.039233 6.354105 6.354105 
C 8.039233 4.668976 8.986061 2.383131 8.986061 0 
C 8.986061 -2.383131 8.039233 -4.668976 6.354105 -6.354105 
C 4.668976 -8.039233 2.383131 -8.986061 0 -8.986061 
C -2.383131 -8.986061 -4.668976 -8.039233 -6.354105 -6.354105 
C -8.039233 -4.668976 -8.986061 -2.383131 -8.986061 0 
C -8.986061 2.383131 -8.039233 4.668976 -6.354105 6.354105 
C -4.668976 8.039233 -2.383131 8.986061 0 8.986061 
z
" style="stroke: #000000"/>
    </defs>
    <g clip-path="url(#pfc8cc7f89b)">
     <use xlink:href="#m9ffd1e5ec5" x="361.872271" y="148.978124" style="stroke: #000000"/>
    </g>
   </g>
   <g id="line2d_10">
    <defs>
     <path id="ma5a2989622" d="M 0 8.933395 
C 2.369164 8.933395 4.641612 7.992116 6.316864 6.316864 
C 7.992116 4.641612 8.933395 2.369164 8.933395 0 
C 8.933395 -2.369164 7.992116 -4.641612 6.316864 -6.316864 
C 4.641612 -7.992116 2.369164 -8.933395 0 -8.933395 
C -2.369164 -8.933395 -4.641612 -7.992116 -6.316864 -6.316864 
C -7.992116 -4.641612 -8.933395 -2.369164 -8.933395 0 
C -8.933395 2.369164 -7.992116 4.641612 -6.316864 6.316864 
C -4.641612 7.992116 -2.369164 8.933395 0 8.933395 
z
" style="stroke: #000000"/>
    </defs>
    <g clip-path="url(#pfc8cc7f89b)">
     <use xlink:href="#ma5a2989622" x="253.374967" y="284.060023" style="stroke: #000000"/>
    </g>
   </g>
  </g>
 </g>
 <defs>
  <clipPath id="pfc8cc7f89b">
   <path d="M 241.812463 320.4 
L 241.812463 43.2 
L 496.187537 43.2 
L 496.187537 320.4 
L 241.812463 320.4 
"/>
  </clipPath>
 </defs>
</svg>
