<?xml version="1.0" encoding="utf-8" standalone="no"?>
<!DOCTYPE svg PUBLIC "-//W3C//DTD SVG 1.1//EN"
  "http://www.w3.org/Graphics/SVG/1.1/DTD/svg11.dtd">
<svg xmlns:xlink="http://www.w3.org/1999/xlink" width="720pt" height="360pt" viewBox="0 0 720 360" xmlns="http://www.w3.org/2000/svg" version="1.1">
 <metadata>
  <rdf:RDF xmlns:dc="http://purl.org/dc/elements/1.1/" xmlns:cc="http://creativecommons.org/ns#" xmlns:rdf="http://www.w3.org/1999/02/22-rdf-syntax-ns#">
   <cc:Work>
    <dc:type rdf:resource="http://purl.org/dc/dcmitype/StillImage"/>
    <dc:date>2023-11-30T21:30:44.493154</dc:date>
    <dc:format>image/svg+xml</dc:format>
    <dc:creator>
     <cc:Agent>
      <dc:title>Matplotlib v3.8.1, https://matplotlib.org/</dc:title>
     </cc:Agent>
    </dc:creator>
   </cc:Work>
  </rdf:RDF>
 </metadata>
 <defs>
  <style type="text/css">*{stroke-linejoin: round; stroke-linecap: butt}</style>
 </defs>
 <g id="figure_1">
  <g id="patch_1">
   <path d="M 0 360 
L 720 360 
L 720 0 
L 0 0 
z
" style="fill: #ffffff"/>
  </g>
  <g id="axes_1">
   <g id="patch_2">
    <path d="M 291.437198 320.4 
L 291.437198 43.2 
L 446.562802 43.2 
L 446.562802 320.4 
L 291.437198 320.4 
" style="fill: #ffffff"/>
   </g>
   <g id="line2d_1">
    <defs>
     <path id="m8b009f157b" d="M 0 9.664812 
C 2.563138 9.664812 5.021642 8.646466 6.834054 6.834054 
C 8.646466 5.021642 9.664812 2.563138 9.664812 0 
C 9.664812 -2.563138 8.646466 -5.021642 6.834054 -6.834054 
C 5.021642 -8.646466 2.563138 -9.664812 0 -9.664812 
C -2.563138 -9.664812 -5.021642 -8.646466 -6.834054 -6.834054 
C -8.646466 -5.021642 -9.664812 -2.563138 -9.664812 0 
C -9.664812 2.563138 -8.646466 5.021642 -6.834054 6.834054 
C -5.021642 8.646466 -2.563138 9.664812 0 9.664812 
z
" style="stroke: #000000"/>
    </defs>
    <g clip-path="url(#p474ae3f907)">
     <use xlink:href="#m8b009f157b" x="373.91166" y="307.8" style="stroke: #000000"/>
    </g>
   </g>
   <g id="line2d_2">
    <defs>
     <path id="m0016506245" d="M 0 8.985033 
C 2.382859 8.985033 4.668442 8.038313 6.353378 6.353378 
C 8.038313 4.668442 8.985033 2.382859 8.985033 0 
C 8.985033 -2.382859 8.038313 -4.668442 6.353378 -6.353378 
C 4.668442 -8.038313 2.382859 -8.985033 0 -8.985033 
C -2.382859 -8.985033 -4.668442 -8.038313 -6.353378 -6.353378 
C -8.038313 -4.668442 -8.985033 -2.382859 -8.985033 0 
C -8.985033 2.382859 -8.038313 4.668442 -6.353378 6.353378 
C -4.668442 8.038313 -2.382859 8.985033 0 8.985033 
z
" style="stroke: #000000"/>
    </defs>
    <g clip-path="url(#p474ae3f907)">
     <use xlink:href="#m0016506245" x="367.13411" y="306.085632" style="stroke: #000000"/>
    </g>
   </g>
   <g id="line2d_3">
    <defs>
     <path id="m1d08b65de4" d="M 0 8.949194 
C 2.373354 8.949194 4.649821 8.006251 6.328036 6.328036 
C 8.006251 4.649821 8.949194 2.373354 8.949194 0 
C 8.949194 -2.373354 8.006251 -4.649821 6.328036 -6.328036 
C 4.649821 -8.006251 2.373354 -8.949194 0 -8.949194 
C -2.373354 -8.949194 -4.649821 -8.006251 -6.328036 -6.328036 
C -8.006251 -4.649821 -8.949194 -2.373354 -8.949194 0 
C -8.949194 2.373354 -8.006251 4.649821 -6.328036 6.328036 
C -4.649821 8.006251 -2.373354 8.949194 0 8.949194 
z
" style="stroke: #000000"/>
    </defs>
    <g clip-path="url(#p474ae3f907)">
     <use xlink:href="#m1d08b65de4" x="346.434649" y="242.611766" style="stroke: #000000"/>
    </g>
   </g>
   <g id="line2d_4">
    <defs>
     <path id="m087109f0da" d="M 0 8.838808 
C 2.344079 8.838808 4.592467 7.907496 6.249981 6.249981 
C 7.907496 4.592467 8.838808 2.344079 8.838808 0 
C 8.838808 -2.344079 7.907496 -4.592467 6.249981 -6.249981 
C 4.592467 -7.907496 2.344079 -8.838808 0 -8.838808 
C -2.344079 -8.838808 -4.592467 -7.907496 -6.249981 -6.249981 
C -7.907496 -4.592467 -8.838808 -2.344079 -8.838808 0 
C -8.838808 2.344079 -7.907496 4.592467 -6.249981 6.249981 
C -4.592467 7.907496 -2.344079 8.838808 0 8.838808 
z
" style="stroke: #000000"/>
    </defs>
    <g clip-path="url(#p474ae3f907)">
     <use xlink:href="#m087109f0da" x="386.658238" y="55.8" style="stroke: #000000"/>
    </g>
   </g>
   <g id="line2d_5">
    <defs>
     <path id="madfbaa8773" d="M 0 8.787674 
C 2.330518 8.787674 4.565898 7.861749 6.213824 6.213824 
C 7.861749 4.565898 8.787674 2.330518 8.787674 0 
C 8.787674 -2.330518 7.861749 -4.565898 6.213824 -6.213824 
C 4.565898 -7.861749 2.330518 -8.787674 0 -8.787674 
C -2.330518 -8.787674 -4.565898 -7.861749 -6.213824 -6.213824 
C -7.861749 -4.565898 -8.787674 -2.330518 -8.787674 0 
C -8.787674 2.330518 -7.861749 4.565898 -6.213824 6.213824 
C -4.565898 7.861749 -2.330518 8.787674 0 8.787674 
z
" style="stroke: #000000"/>
    </defs>
    <g clip-path="url(#p474ae3f907)">
     <use xlink:href="#madfbaa8773" x="310.101959" y="294.200965" style="stroke: #000000"/>
    </g>
   </g>
   <g id="line2d_6">
    <defs>
     <path id="mcf11d50e91" d="M 0 8.768044 
C 2.325312 8.768044 4.555699 7.844187 6.199943 6.199943 
C 7.844187 4.555699 8.768044 2.325312 8.768044 0 
C 8.768044 -2.325312 7.844187 -4.555699 6.199943 -6.199943 
C 4.555699 -7.844187 2.325312 -8.768044 0 -8.768044 
C -2.325312 -8.768044 -4.555699 -7.844187 -6.199943 -6.199943 
C -7.844187 -4.555699 -8.768044 -2.325312 -8.768044 0 
C -8.768044 2.325312 -7.844187 4.555699 -6.199943 6.199943 
C -4.555699 7.844187 -2.325312 8.768044 0 8.768044 
z
" style="stroke: #000000"/>
    </defs>
    <g clip-path="url(#p474ae3f907)">
     <use xlink:href="#mcf11d50e91" x="376.437" y="301.804048" style="stroke: #000000"/>
    </g>
   </g>
   <g id="line2d_7">
    <defs>
     <path id="mba2f2aaf5a" d="M 0 8.570245 
C 2.272856 8.570245 4.452927 7.66723 6.060078 6.060078 
C 7.66723 4.452927 8.570245 2.272856 8.570245 0 
C 8.570245 -2.272856 7.66723 -4.452927 6.060078 -6.060078 
C 4.452927 -7.66723 2.272856 -8.570245 0 -8.570245 
C -2.272856 -8.570245 -4.452927 -7.66723 -6.060078 -6.060078 
C -7.66723 -4.452927 -8.570245 -2.272856 -8.570245 0 
C -8.570245 2.272856 -7.66723 4.452927 -6.060078 6.060078 
C -4.452927 7.66723 -2.272856 8.570245 0 8.570245 
z
" style="stroke: #000000"/>
    </defs>
    <g clip-path="url(#p474ae3f907)">
     <use xlink:href="#mba2f2aaf5a" x="392.705272" y="204.990084" style="stroke: #000000"/>
    </g>
   </g>
   <g id="line2d_8">
    <defs>
     <path id="mb66215a1f4" d="M 0 8.445643 
C 2.239811 8.445643 4.388186 7.555756 5.971971 5.971971 
C 7.555756 4.388186 8.445643 2.239811 8.445643 0 
C 8.445643 -2.239811 7.555756 -4.388186 5.971971 -5.971971 
C 4.388186 -7.555756 2.239811 -8.445643 0 -8.445643 
C -2.239811 -8.445643 -4.388186 -7.555756 -5.971971 -5.971971 
C -7.555756 -4.388186 -8.445643 -2.239811 -8.445643 0 
C -8.445643 2.239811 -7.555756 4.388186 -5.971971 5.971971 
C -4.388186 7.555756 -2.239811 8.445643 0 8.445643 
z
" style="stroke: #000000"/>
    </defs>
    <g clip-path="url(#p474ae3f907)">
     <use xlink:href="#mb66215a1f4" x="439.511638" y="171.230827" style="stroke: #000000"/>
    </g>
   </g>
   <g id="line2d_9">
    <defs>
     <path id="m26123168d9" d="M 0 8.436902 
C 2.237493 8.436902 4.383645 7.547937 5.965791 5.965791 
C 7.547937 4.383645 8.436902 2.237493 8.436902 0 
C 8.436902 -2.237493 7.547937 -4.383645 5.965791 -5.965791 
C 4.383645 -7.547937 2.237493 -8.436902 0 -8.436902 
C -2.237493 -8.436902 -4.383645 -7.547937 -5.965791 -5.965791 
C -7.547937 -4.383645 -8.436902 -2.237493 -8.436902 0 
C -8.436902 2.237493 -7.547937 4.383645 -5.965791 5.965791 
C -4.383645 7.547937 -2.237493 8.436902 0 8.436902 
z
" style="stroke: #000000"/>
    </defs>
    <g clip-path="url(#p474ae3f907)">
     <use xlink:href="#m26123168d9" x="391.284678" y="268.256376" style="stroke: #000000"/>
    </g>
   </g>
   <g id="line2d_10">
    <defs>
     <path id="m405efca83c" d="M 0 8.174675 
C 2.167949 8.174675 4.247397 7.31334 5.780368 5.780368 
C 7.31334 4.247397 8.174675 2.167949 8.174675 0 
C 8.174675 -2.167949 7.31334 -4.247397 5.780368 -5.780368 
C 4.247397 -7.31334 2.167949 -8.174675 0 -8.174675 
C -2.167949 -8.174675 -4.247397 -7.31334 -5.780368 -5.780368 
C -7.31334 -4.247397 -8.174675 -2.167949 -8.174675 0 
C -8.174675 2.167949 -7.31334 4.247397 -5.780368 5.780368 
C -4.247397 7.31334 -2.167949 8.174675 0 8.174675 
z
" style="stroke: #000000"/>
    </defs>
    <g clip-path="url(#p474ae3f907)">
     <use xlink:href="#m405efca83c" x="298.488362" y="243.40164" style="stroke: #000000"/>
    </g>
   </g>
  </g>
 </g>
 <defs>
  <clipPath id="p474ae3f907">
   <path d="M 291.437198 320.4 
L 291.437198 43.2 
L 446.562802 43.2 
L 446.562802 320.4 
L 291.437198 320.4 
"/>
  </clipPath>
 </defs>
</svg>
