<?xml version="1.0" encoding="utf-8" standalone="no"?>
<!DOCTYPE svg PUBLIC "-//W3C//DTD SVG 1.1//EN"
  "http://www.w3.org/Graphics/SVG/1.1/DTD/svg11.dtd">
<svg xmlns:xlink="http://www.w3.org/1999/xlink" width="720pt" height="360pt" viewBox="0 0 720 360" xmlns="http://www.w3.org/2000/svg" version="1.1">
 <metadata>
  <rdf:RDF xmlns:dc="http://purl.org/dc/elements/1.1/" xmlns:cc="http://creativecommons.org/ns#" xmlns:rdf="http://www.w3.org/1999/02/22-rdf-syntax-ns#">
   <cc:Work>
    <dc:type rdf:resource="http://purl.org/dc/dcmitype/StillImage"/>
    <dc:date>2023-11-30T21:30:53.600005</dc:date>
    <dc:format>image/svg+xml</dc:format>
    <dc:creator>
     <cc:Agent>
      <dc:title>Matplotlib v3.8.1, https://matplotlib.org/</dc:title>
     </cc:Agent>
    </dc:creator>
   </cc:Work>
  </rdf:RDF>
 </metadata>
 <defs>
  <style type="text/css">*{stroke-linejoin: round; stroke-linecap: butt}</style>
 </defs>
 <g id="figure_1">
  <g id="patch_1">
   <path d="M 0 360 
L 720 360 
L 720 0 
L 0 0 
z
" style="fill: #ffffff"/>
  </g>
  <g id="axes_1">
   <g id="patch_2">
    <path d="M 90 186.842608 
L 90 176.757392 
L 648 176.757392 
L 648 186.842608 
L 90 186.842608 
" style="fill: #ffffff"/>
   </g>
   <g id="line2d_1">
    <defs>
     <path id="m078620fe9b" d="M 0 8.245018 
C 2.186604 8.245018 4.283945 7.376271 5.830108 5.830108 
C 7.376271 4.283945 8.245018 2.186604 8.245018 0 
C 8.245018 -2.186604 7.376271 -4.283945 5.830108 -5.830108 
C 4.283945 -7.376271 2.186604 -8.245018 0 -8.245018 
C -2.186604 -8.245018 -4.283945 -7.376271 -5.830108 -5.830108 
C -7.376271 -4.283945 -8.245018 -2.186604 -8.245018 0 
C -8.245018 2.186604 -7.376271 4.283945 -5.830108 5.830108 
C -4.283945 7.376271 -2.186604 8.245018 0 8.245018 
z
" style="stroke: #000000"/>
    </defs>
    <g clip-path="url(#pd5dfd37795)">
     <use xlink:href="#m078620fe9b" x="645.695351" y="186.115032" style="stroke: #000000"/>
    </g>
   </g>
   <g id="line2d_2">
    <defs>
     <path id="m64411018fe" d="M 0 8.119715 
C 2.153374 8.119715 4.218841 7.264171 5.741506 5.741506 
C 7.264171 4.218841 8.119715 2.153374 8.119715 0 
C 8.119715 -2.153374 7.264171 -4.218841 5.741506 -5.741506 
C 4.218841 -7.264171 2.153374 -8.119715 0 -8.119715 
C -2.153374 -8.119715 -4.218841 -7.264171 -5.741506 -5.741506 
C -7.264171 -4.218841 -8.119715 -2.153374 -8.119715 0 
C -8.119715 2.153374 -7.264171 4.218841 -5.741506 5.741506 
C -4.218841 7.264171 -2.153374 8.119715 0 8.119715 
z
" style="stroke: #000000"/>
    </defs>
    <g clip-path="url(#pd5dfd37795)">
     <use xlink:href="#m64411018fe" x="645.55923" y="186.222528" style="stroke: #000000"/>
    </g>
   </g>
   <g id="line2d_3">
    <defs>
     <path id="m60d8750399" d="M 0 7.840029 
C 2.0792 7.840029 4.073521 7.013954 5.543737 5.543737 
C 7.013954 4.073521 7.840029 2.0792 7.840029 0 
C 7.840029 -2.0792 7.013954 -4.073521 5.543737 -5.543737 
C 4.073521 -7.013954 2.0792 -7.840029 0 -7.840029 
C -2.0792 -7.840029 -4.073521 -7.013954 -5.543737 -5.543737 
C -7.013954 -4.073521 -7.840029 -2.0792 -7.840029 0 
C -7.840029 2.0792 -7.013954 4.073521 -5.543737 5.543737 
C -4.073521 7.013954 -2.0792 7.840029 0 7.840029 
z
" style="stroke: #000000"/>
    </defs>
    <g clip-path="url(#pd5dfd37795)">
     <use xlink:href="#m60d8750399" x="644.048259" y="185.380822" style="stroke: #000000"/>
    </g>
   </g>
   <g id="line2d_4">
    <defs>
     <path id="m5731ff8ad2" d="M 0 7.683929 
C 2.037802 7.683929 3.992415 6.874302 5.433358 5.433358 
C 6.874302 3.992415 7.683929 2.037802 7.683929 0 
C 7.683929 -2.037802 6.874302 -3.992415 5.433358 -5.433358 
C 3.992415 -6.874302 2.037802 -7.683929 0 -7.683929 
C -2.037802 -7.683929 -3.992415 -6.874302 -5.433358 -5.433358 
C -6.874302 -3.992415 -7.683929 -2.037802 -7.683929 0 
C -7.683929 2.037802 -6.874302 3.992415 -5.433358 5.433358 
C -3.992415 6.874302 -2.037802 7.683929 0 7.683929 
z
" style="stroke: #000000"/>
    </defs>
    <g clip-path="url(#pd5dfd37795)">
     <use xlink:href="#m5731ff8ad2" x="643.995063" y="185.681997" style="stroke: #000000"/>
    </g>
   </g>
   <g id="line2d_5">
    <defs>
     <path id="m7166926209" d="M 0 7.38528 
C 1.958599 7.38528 3.837243 6.607121 5.222182 5.222182 
C 6.607121 3.837243 7.38528 1.958599 7.38528 0 
C 7.38528 -1.958599 6.607121 -3.837243 5.222182 -5.222182 
C 3.837243 -6.607121 1.958599 -7.38528 0 -7.38528 
C -1.958599 -7.38528 -3.837243 -6.607121 -5.222182 -5.222182 
C -6.607121 -3.837243 -7.38528 -1.958599 -7.38528 0 
C -7.38528 1.958599 -6.607121 3.837243 -5.222182 5.222182 
C -3.837243 6.607121 -1.958599 7.38528 0 7.38528 
z
" style="stroke: #000000"/>
    </defs>
    <g clip-path="url(#pd5dfd37795)">
     <use xlink:href="#m7166926209" x="647.01499" y="183.473773" style="stroke: #000000"/>
    </g>
   </g>
   <g id="line2d_6">
    <defs>
     <path id="m88a2522740" d="M 0 7.052586 
C 1.870368 7.052586 3.664382 6.309481 4.986931 4.986931 
C 6.309481 3.664382 7.052586 1.870368 7.052586 0 
C 7.052586 -1.870368 6.309481 -3.664382 4.986931 -4.986931 
C 3.664382 -6.309481 1.870368 -7.052586 0 -7.052586 
C -1.870368 -7.052586 -3.664382 -6.309481 -4.986931 -4.986931 
C -6.309481 -3.664382 -7.052586 -1.870368 -7.052586 0 
C -7.052586 1.870368 -6.309481 3.664382 -4.986931 4.986931 
C -3.664382 6.309481 -1.870368 7.052586 0 7.052586 
z
" style="stroke: #000000"/>
    </defs>
    <g clip-path="url(#pd5dfd37795)">
     <use xlink:href="#m88a2522740" x="644.13571" y="186.232644" style="stroke: #000000"/>
    </g>
   </g>
   <g id="line2d_7">
    <defs>
     <path id="mb661224a61" d="M 0 6.916692 
C 1.834328 6.916692 3.593774 6.187906 4.89084 4.89084 
C 6.187906 3.593774 6.916692 1.834328 6.916692 0 
C 6.916692 -1.834328 6.187906 -3.593774 4.89084 -4.89084 
C 3.593774 -6.187906 1.834328 -6.916692 0 -6.916692 
C -1.834328 -6.916692 -3.593774 -6.187906 -4.89084 -4.89084 
C -6.187906 -3.593774 -6.916692 -1.834328 -6.916692 0 
C -6.916692 1.834328 -6.187906 3.593774 -4.89084 4.89084 
C -3.593774 6.187906 -1.834328 6.916692 0 6.916692 
z
" style="stroke: #000000"/>
    </defs>
    <g clip-path="url(#pd5dfd37795)">
     <use xlink:href="#mb661224a61" x="644.394808" y="185.247405" style="stroke: #000000"/>
    </g>
   </g>
   <g id="line2d_8">
    <defs>
     <path id="m5c669951b9" d="M 0 6.51473 
C 1.727727 6.51473 3.384923 5.828297 4.60661 4.60661 
C 5.828297 3.384923 6.51473 1.727727 6.51473 0 
C 6.51473 -1.727727 5.828297 -3.384923 4.60661 -4.60661 
C 3.384923 -5.828297 1.727727 -6.51473 0 -6.51473 
C -1.727727 -6.51473 -3.384923 -5.828297 -4.60661 -4.60661 
C -5.828297 -3.384923 -6.51473 -1.727727 -6.51473 0 
C -6.51473 1.727727 -5.828297 3.384923 -4.60661 4.60661 
C -3.384923 5.828297 -1.727727 6.51473 0 6.51473 
z
" style="stroke: #000000"/>
    </defs>
    <g clip-path="url(#pd5dfd37795)">
     <use xlink:href="#m5c669951b9" x="646.940838" y="186.10881" style="stroke: #000000"/>
    </g>
   </g>
   <g id="line2d_9"/>
   <g id="line2d_10"/>
  </g>
 </g>
 <defs>
  <clipPath id="pd5dfd37795">
   <path d="M 90 186.842608 
L 90 176.757392 
L 648 176.757392 
L 648 186.842608 
L 90 186.842608 
"/>
  </clipPath>
 </defs>
</svg>
