<?xml version="1.0" encoding="utf-8" standalone="no"?>
<!DOCTYPE svg PUBLIC "-//W3C//DTD SVG 1.1//EN"
  "http://www.w3.org/Graphics/SVG/1.1/DTD/svg11.dtd">
<svg xmlns:xlink="http://www.w3.org/1999/xlink" width="720pt" height="360pt" viewBox="0 0 720 360" xmlns="http://www.w3.org/2000/svg" version="1.1">
 <metadata>
  <rdf:RDF xmlns:dc="http://purl.org/dc/elements/1.1/" xmlns:cc="http://creativecommons.org/ns#" xmlns:rdf="http://www.w3.org/1999/02/22-rdf-syntax-ns#">
   <cc:Work>
    <dc:type rdf:resource="http://purl.org/dc/dcmitype/StillImage"/>
    <dc:date>2023-11-30T21:30:44.535554</dc:date>
    <dc:format>image/svg+xml</dc:format>
    <dc:creator>
     <cc:Agent>
      <dc:title>Matplotlib v3.8.1, https://matplotlib.org/</dc:title>
     </cc:Agent>
    </dc:creator>
   </cc:Work>
  </rdf:RDF>
 </metadata>
 <defs>
  <style type="text/css">*{stroke-linejoin: round; stroke-linecap: butt}</style>
 </defs>
 <g id="figure_1">
  <g id="patch_1">
   <path d="M 0 360 
L 720 360 
L 720 0 
L 0 0 
z
" style="fill: #ffffff"/>
  </g>
  <g id="axes_1">
   <g id="patch_2">
    <path d="M 90 231.708199 
L 90 131.891801 
L 648 131.891801 
L 648 231.708199 
L 90 231.708199 
" style="fill: #ffffff"/>
   </g>
   <g id="line2d_1">
    <defs>
     <path id="mc80b3bc7aa" d="M 0 6.879164 
C 1.824376 6.879164 3.574275 6.154332 4.864303 4.864303 
C 6.154332 3.574275 6.879164 1.824376 6.879164 0 
C 6.879164 -1.824376 6.154332 -3.574275 4.864303 -4.864303 
C 3.574275 -6.154332 1.824376 -6.879164 0 -6.879164 
C -1.824376 -6.879164 -3.574275 -6.154332 -4.864303 -4.864303 
C -6.154332 -3.574275 -6.879164 -1.824376 -6.879164 0 
C -6.879164 1.824376 -6.154332 3.574275 -4.864303 4.864303 
C -3.574275 6.154332 -1.824376 6.879164 0 6.879164 
z
" style="stroke: #000000"/>
    </defs>
    <g clip-path="url(#p23e35ea199)">
     <use xlink:href="#mc80b3bc7aa" x="395.022092" y="183.938291" style="stroke: #000000"/>
    </g>
   </g>
   <g id="line2d_2">
    <defs>
     <path id="ma5a3f7aa49" d="M 0 6.620917 
C 1.755888 6.620917 3.440095 5.923296 4.681695 4.681695 
C 5.923296 3.440095 6.620917 1.755888 6.620917 0 
C 6.620917 -1.755888 5.923296 -3.440095 4.681695 -4.681695 
C 3.440095 -5.923296 1.755888 -6.620917 0 -6.620917 
C -1.755888 -6.620917 -3.440095 -5.923296 -4.681695 -4.681695 
C -5.923296 -3.440095 -6.620917 -1.755888 -6.620917 0 
C -6.620917 1.755888 -5.923296 3.440095 -4.681695 4.681695 
C -3.440095 5.923296 -1.755888 6.620917 0 6.620917 
z
" style="stroke: #000000"/>
    </defs>
    <g clip-path="url(#p23e35ea199)">
     <use xlink:href="#ma5a3f7aa49" x="622.636364" y="227.17109" style="stroke: #000000"/>
    </g>
   </g>
   <g id="line2d_3">
    <defs>
     <path id="m2fad325e83" d="M 0 6.42392 
C 1.703644 6.42392 3.33774 5.747055 4.542398 4.542398 
C 5.747055 3.33774 6.42392 1.703644 6.42392 0 
C 6.42392 -1.703644 5.747055 -3.33774 4.542398 -4.542398 
C 3.33774 -5.747055 1.703644 -6.42392 0 -6.42392 
C -1.703644 -6.42392 -3.33774 -5.747055 -4.542398 -4.542398 
C -5.747055 -3.33774 -6.42392 -1.703644 -6.42392 0 
C -6.42392 1.703644 -5.747055 3.33774 -4.542398 4.542398 
C -3.33774 5.747055 -1.703644 6.42392 0 6.42392 
z
" style="stroke: #000000"/>
    </defs>
    <g clip-path="url(#p23e35ea199)">
     <use xlink:href="#m2fad325e83" x="115.363636" y="141.556413" style="stroke: #000000"/>
    </g>
   </g>
   <g id="line2d_4">
    <defs>
     <path id="mcaf73d09cf" d="M 0 6.284334 
C 1.666625 6.284334 3.265214 5.622177 4.443695 4.443695 
C 5.622177 3.265214 6.284334 1.666625 6.284334 0 
C 6.284334 -1.666625 5.622177 -3.265214 4.443695 -4.443695 
C 3.265214 -5.622177 1.666625 -6.284334 0 -6.284334 
C -1.666625 -6.284334 -3.265214 -5.622177 -4.443695 -4.443695 
C -5.622177 -3.265214 -6.284334 -1.666625 -6.284334 0 
C -6.284334 1.666625 -5.622177 3.265214 -4.443695 4.443695 
C -3.265214 5.622177 -1.666625 6.284334 0 6.284334 
z
" style="stroke: #000000"/>
    </defs>
    <g clip-path="url(#p23e35ea199)">
     <use xlink:href="#mcaf73d09cf" x="524.761571" y="193.786027" style="stroke: #000000"/>
    </g>
   </g>
   <g id="line2d_5">
    <defs>
     <path id="m171929341c" d="M 0 6.236092 
C 1.653831 6.236092 3.240148 5.579018 4.409583 4.409583 
C 5.579018 3.240148 6.236092 1.653831 6.236092 0 
C 6.236092 -1.653831 5.579018 -3.240148 4.409583 -4.409583 
C 3.240148 -5.579018 1.653831 -6.236092 0 -6.236092 
C -1.653831 -6.236092 -3.240148 -5.579018 -4.409583 -4.409583 
C -5.579018 -3.240148 -6.236092 -1.653831 -6.236092 0 
C -6.236092 1.653831 -5.579018 3.240148 -4.409583 4.409583 
C -3.240148 5.579018 -1.653831 6.236092 0 6.236092 
z
" style="stroke: #000000"/>
    </defs>
    <g clip-path="url(#p23e35ea199)">
     <use xlink:href="#m171929341c" x="524.757494" y="193.786027" style="stroke: #000000"/>
    </g>
   </g>
   <g id="line2d_6">
    <defs>
     <path id="m685a5603fd" d="M 0 4.980001 
C 1.320712 4.980001 2.587508 4.455277 3.521392 3.521392 
C 4.455277 2.587508 4.980001 1.320712 4.980001 0 
C 4.980001 -1.320712 4.455277 -2.587508 3.521392 -3.521392 
C 2.587508 -4.455277 1.320712 -4.980001 0 -4.980001 
C -1.320712 -4.980001 -2.587508 -4.455277 -3.521392 -3.521392 
C -4.455277 -2.587508 -4.980001 -1.320712 -4.980001 0 
C -4.980001 1.320712 -4.455277 2.587508 -3.521392 3.521392 
C -2.587508 4.455277 -1.320712 4.980001 0 4.980001 
z
" style="stroke: #000000"/>
    </defs>
    <g clip-path="url(#p23e35ea199)">
     <use xlink:href="#m685a5603fd" x="409.951555" y="193.27153" style="stroke: #000000"/>
    </g>
   </g>
   <g id="line2d_7">
    <defs>
     <path id="ma36f74eb68" d="M 0 4.66209 
C 1.236401 4.66209 2.422328 4.170863 3.296596 3.296596 
C 4.170863 2.422328 4.66209 1.236401 4.66209 0 
C 4.66209 -1.236401 4.170863 -2.422328 3.296596 -3.296596 
C 2.422328 -4.170863 1.236401 -4.66209 0 -4.66209 
C -1.236401 -4.66209 -2.422328 -4.170863 -3.296596 -3.296596 
C -4.170863 -2.422328 -4.66209 -1.236401 -4.66209 0 
C -4.66209 1.236401 -4.170863 2.422328 -3.296596 3.296596 
C -2.422328 4.170863 -1.236401 4.66209 0 4.66209 
z
" style="stroke: #000000"/>
    </defs>
    <g clip-path="url(#p23e35ea199)">
     <use xlink:href="#ma36f74eb68" x="503.42672" y="217.737478" style="stroke: #000000"/>
    </g>
   </g>
   <g id="line2d_8">
    <defs>
     <path id="mb4aa3bd911" d="M 0 4.623964 
C 1.22629 4.623964 2.402518 4.136754 3.269636 3.269636 
C 4.136754 2.402518 4.623964 1.22629 4.623964 0 
C 4.623964 -1.22629 4.136754 -2.402518 3.269636 -3.269636 
C 2.402518 -4.136754 1.22629 -4.623964 0 -4.623964 
C -1.22629 -4.623964 -2.402518 -4.136754 -3.269636 -3.269636 
C -4.136754 -2.402518 -4.623964 -1.22629 -4.623964 0 
C -4.623964 1.22629 -4.136754 2.402518 -3.269636 3.269636 
C -2.402518 4.136754 -1.22629 4.623964 0 4.623964 
z
" style="stroke: #000000"/>
    </defs>
    <g clip-path="url(#p23e35ea199)">
     <use xlink:href="#mb4aa3bd911" x="405.172994" y="158.455215" style="stroke: #000000"/>
    </g>
   </g>
   <g id="line2d_9">
    <defs>
     <path id="m64b1eb879a" d="M 0 3.877444 
C 1.02831 3.877444 2.014642 3.468892 2.741767 2.741767 
C 3.468892 2.014642 3.877444 1.02831 3.877444 0 
C 3.877444 -1.02831 3.468892 -2.014642 2.741767 -2.741767 
C 2.014642 -3.468892 1.02831 -3.877444 0 -3.877444 
C -1.02831 -3.877444 -2.014642 -3.468892 -2.741767 -2.741767 
C -3.468892 -2.014642 -3.877444 -1.02831 -3.877444 0 
C -3.877444 1.02831 -3.468892 2.014642 -2.741767 2.741767 
C -2.014642 3.468892 -1.02831 3.877444 0 3.877444 
z
" style="stroke: #000000"/>
    </defs>
    <g clip-path="url(#p23e35ea199)">
     <use xlink:href="#m64b1eb879a" x="164.250583" y="136.42891" style="stroke: #000000"/>
    </g>
   </g>
   <g id="line2d_10"/>
  </g>
 </g>
 <defs>
  <clipPath id="p23e35ea199">
   <path d="M 90 231.708199 
L 90 131.891801 
L 648 131.891801 
L 648 231.708199 
L 90 231.708199 
"/>
  </clipPath>
 </defs>
</svg>
