<?xml version="1.0" encoding="utf-8" standalone="no"?>
<!DOCTYPE svg PUBLIC "-//W3C//DTD SVG 1.1//EN"
  "http://www.w3.org/Graphics/SVG/1.1/DTD/svg11.dtd">
<svg xmlns:xlink="http://www.w3.org/1999/xlink" width="720pt" height="360pt" viewBox="0 0 720 360" xmlns="http://www.w3.org/2000/svg" version="1.1">
 <metadata>
  <rdf:RDF xmlns:dc="http://purl.org/dc/elements/1.1/" xmlns:cc="http://creativecommons.org/ns#" xmlns:rdf="http://www.w3.org/1999/02/22-rdf-syntax-ns#">
   <cc:Work>
    <dc:type rdf:resource="http://purl.org/dc/dcmitype/StillImage"/>
    <dc:date>2023-11-30T21:30:44.574340</dc:date>
    <dc:format>image/svg+xml</dc:format>
    <dc:creator>
     <cc:Agent>
      <dc:title>Matplotlib v3.8.1, https://matplotlib.org/</dc:title>
     </cc:Agent>
    </dc:creator>
   </cc:Work>
  </rdf:RDF>
 </metadata>
 <defs>
  <style type="text/css">*{stroke-linejoin: round; stroke-linecap: butt}</style>
 </defs>
 <g id="figure_1">
  <g id="patch_1">
   <path d="M 0 360 
L 720 360 
L 720 0 
L 0 0 
z
" style="fill: #ffffff"/>
  </g>
  <g id="axes_1">
   <g id="patch_2">
    <path d="M 307.97422 320.4 
L 307.97422 43.2 
L 430.02578 43.2 
L 430.02578 320.4 
L 307.97422 320.4 
" style="fill: #ffffff"/>
   </g>
   <g id="line2d_1">
    <defs>
     <path id="m37092e3ffc" d="M 0 6.84418 
C 1.815098 6.84418 3.556098 6.123034 4.839566 4.839566 
C 6.123034 3.556098 6.84418 1.815098 6.84418 0 
C 6.84418 -1.815098 6.123034 -3.556098 4.839566 -4.839566 
C 3.556098 -6.123034 1.815098 -6.84418 0 -6.84418 
C -1.815098 -6.84418 -3.556098 -6.123034 -4.839566 -4.839566 
C -6.123034 -3.556098 -6.84418 -1.815098 -6.84418 0 
C -6.84418 1.815098 -6.123034 3.556098 -4.839566 4.839566 
C -3.556098 6.123034 -1.815098 6.84418 0 6.84418 
z
" style="stroke: #000000"/>
    </defs>
    <g clip-path="url(#pe3c7eedd5d)">
     <use xlink:href="#m37092e3ffc" x="396.274152" y="133.064983" style="stroke: #000000"/>
    </g>
   </g>
   <g id="line2d_2">
    <defs>
     <path id="m06802b6bdc" d="M 0 6.145873 
C 1.629905 6.145873 3.193272 5.498305 4.345789 4.345789 
C 5.498305 3.193272 6.145873 1.629905 6.145873 0 
C 6.145873 -1.629905 5.498305 -3.193272 4.345789 -4.345789 
C 3.193272 -5.498305 1.629905 -6.145873 0 -6.145873 
C -1.629905 -6.145873 -3.193272 -5.498305 -4.345789 -4.345789 
C -5.498305 -3.193272 -6.145873 -1.629905 -6.145873 0 
C -6.145873 1.629905 -5.498305 3.193272 -4.345789 4.345789 
C -3.193272 5.498305 -1.629905 6.145873 0 6.145873 
z
" style="stroke: #000000"/>
    </defs>
    <g clip-path="url(#pe3c7eedd5d)">
     <use xlink:href="#m06802b6bdc" x="424.477981" y="61.569789" style="stroke: #000000"/>
    </g>
   </g>
   <g id="line2d_3">
    <defs>
     <path id="m642cf2f99a" d="M 0 6.086682 
C 1.614207 6.086682 3.162518 5.445351 4.303934 4.303934 
C 5.445351 3.162518 6.086682 1.614207 6.086682 0 
C 6.086682 -1.614207 5.445351 -3.162518 4.303934 -4.303934 
C 3.162518 -5.445351 1.614207 -6.086682 0 -6.086682 
C -1.614207 -6.086682 -3.162518 -5.445351 -4.303934 -4.303934 
C -5.445351 -3.162518 -6.086682 -1.614207 -6.086682 0 
C -6.086682 1.614207 -5.445351 3.162518 -4.303934 4.303934 
C -3.162518 5.445351 -1.614207 6.086682 0 6.086682 
z
" style="stroke: #000000"/>
    </defs>
    <g clip-path="url(#pe3c7eedd5d)">
     <use xlink:href="#m642cf2f99a" x="394.786976" y="125.064506" style="stroke: #000000"/>
    </g>
   </g>
   <g id="line2d_4">
    <defs>
     <path id="m3ad2c2e8f3" d="M 0 5.645297 
C 1.49715 5.645297 2.933183 5.050473 3.991828 3.991828 
C 5.050473 2.933183 5.645297 1.49715 5.645297 0 
C 5.645297 -1.49715 5.050473 -2.933183 3.991828 -3.991828 
C 2.933183 -5.050473 1.49715 -5.645297 0 -5.645297 
C -1.49715 -5.645297 -2.933183 -5.050473 -3.991828 -3.991828 
C -5.050473 -2.933183 -5.645297 -1.49715 -5.645297 0 
C -5.645297 1.49715 -5.050473 2.933183 -3.991828 3.991828 
C -2.933183 5.050473 -1.49715 5.645297 0 5.645297 
z
" style="stroke: #000000"/>
    </defs>
    <g clip-path="url(#pe3c7eedd5d)">
     <use xlink:href="#m3ad2c2e8f3" x="396.289595" y="137.591581" style="stroke: #000000"/>
    </g>
   </g>
   <g id="line2d_5">
    <defs>
     <path id="m701100b4fc" d="M 0 5.295761 
C 1.404452 5.295761 2.751571 4.737766 3.744669 3.744669 
C 4.737766 2.751571 5.295761 1.404452 5.295761 0 
C 5.295761 -1.404452 4.737766 -2.751571 3.744669 -3.744669 
C 2.751571 -4.737766 1.404452 -5.295761 0 -5.295761 
C -1.404452 -5.295761 -2.751571 -4.737766 -3.744669 -3.744669 
C -4.737766 -2.751571 -5.295761 -1.404452 -5.295761 0 
C -5.295761 1.404452 -4.737766 2.751571 -3.744669 3.744669 
C -2.751571 4.737766 -1.404452 5.295761 0 5.295761 
z
" style="stroke: #000000"/>
    </defs>
    <g clip-path="url(#pe3c7eedd5d)">
     <use xlink:href="#m701100b4fc" x="389.740154" y="55.8" style="stroke: #000000"/>
    </g>
   </g>
   <g id="line2d_6">
    <defs>
     <path id="m47aa5cf9b7" d="M 0 5.206814 
C 1.380863 5.206814 2.705356 4.658191 3.681773 3.681773 
C 4.658191 2.705356 5.206814 1.380863 5.206814 0 
C 5.206814 -1.380863 4.658191 -2.705356 3.681773 -3.681773 
C 2.705356 -4.658191 1.380863 -5.206814 0 -5.206814 
C -1.380863 -5.206814 -2.705356 -4.658191 -3.681773 -3.681773 
C -4.658191 -2.705356 -5.206814 -1.380863 -5.206814 0 
C -5.206814 1.380863 -4.658191 2.705356 -3.681773 3.681773 
C -2.705356 4.658191 -1.380863 5.206814 0 5.206814 
z
" style="stroke: #000000"/>
    </defs>
    <g clip-path="url(#pe3c7eedd5d)">
     <use xlink:href="#m47aa5cf9b7" x="390.06446" y="307.8" style="stroke: #000000"/>
    </g>
   </g>
   <g id="line2d_7">
    <defs>
     <path id="mce3c837097" d="M 0 5.154738 
C 1.367053 5.154738 2.678298 4.611602 3.64495 3.64495 
C 4.611602 2.678298 5.154738 1.367053 5.154738 0 
C 5.154738 -1.367053 4.611602 -2.678298 3.64495 -3.64495 
C 2.678298 -4.611602 1.367053 -5.154738 0 -5.154738 
C -1.367053 -5.154738 -2.678298 -4.611602 -3.64495 -3.64495 
C -4.611602 -2.678298 -5.154738 -1.367053 -5.154738 0 
C -5.154738 1.367053 -4.611602 2.678298 -3.64495 3.64495 
C -2.678298 4.611602 -1.367053 5.154738 0 5.154738 
z
" style="stroke: #000000"/>
    </defs>
    <g clip-path="url(#pe3c7eedd5d)">
     <use xlink:href="#mce3c837097" x="334.305413" y="85.701758" style="stroke: #000000"/>
    </g>
   </g>
   <g id="line2d_8">
    <defs>
     <path id="mb01e97c336" d="M 0 5.089332 
C 1.349707 5.089332 2.644315 4.553088 3.598701 3.598701 
C 4.553088 2.644315 5.089332 1.349707 5.089332 0 
C 5.089332 -1.349707 4.553088 -2.644315 3.598701 -3.598701 
C 2.644315 -4.553088 1.349707 -5.089332 0 -5.089332 
C -1.349707 -5.089332 -2.644315 -4.553088 -3.598701 -3.598701 
C -4.553088 -2.644315 -5.089332 -1.349707 -5.089332 0 
C -5.089332 1.349707 -4.553088 2.644315 -3.598701 3.598701 
C -2.644315 4.553088 -1.349707 5.089332 0 5.089332 
z
" style="stroke: #000000"/>
    </defs>
    <g clip-path="url(#pe3c7eedd5d)">
     <use xlink:href="#mb01e97c336" x="399.608328" y="96.876977" style="stroke: #000000"/>
    </g>
   </g>
   <g id="line2d_9">
    <defs>
     <path id="m6f0f4653b8" d="M 0 5.083082 
C 1.348049 5.083082 2.641067 4.547496 3.594281 3.594281 
C 4.547496 2.641067 5.083082 1.348049 5.083082 0 
C 5.083082 -1.348049 4.547496 -2.641067 3.594281 -3.594281 
C 2.641067 -4.547496 1.348049 -5.083082 0 -5.083082 
C -1.348049 -5.083082 -2.641067 -4.547496 -3.594281 -3.594281 
C -4.547496 -2.641067 -5.083082 -1.348049 -5.083082 0 
C -5.083082 1.348049 -4.547496 2.641067 -3.594281 3.594281 
C -2.641067 4.547496 -1.348049 5.083082 0 5.083082 
z
" style="stroke: #000000"/>
    </defs>
    <g clip-path="url(#pe3c7eedd5d)">
     <use xlink:href="#m6f0f4653b8" x="313.522019" y="112.574356" style="stroke: #000000"/>
    </g>
   </g>
   <g id="line2d_10">
    <defs>
     <path id="m2df1810839" d="M 0 5.062707 
C 1.342646 5.062707 2.630481 4.529268 3.579874 3.579874 
C 4.529268 2.630481 5.062707 1.342646 5.062707 0 
C 5.062707 -1.342646 4.529268 -2.630481 3.579874 -3.579874 
C 2.630481 -4.529268 1.342646 -5.062707 0 -5.062707 
C -1.342646 -5.062707 -2.630481 -4.529268 -3.579874 -3.579874 
C -4.529268 -2.630481 -5.062707 -1.342646 -5.062707 0 
C -5.062707 1.342646 -4.529268 2.630481 -3.579874 3.579874 
C -2.630481 4.529268 -1.342646 5.062707 0 5.062707 
z
" style="stroke: #000000"/>
    </defs>
    <g clip-path="url(#pe3c7eedd5d)">
     <use xlink:href="#m2df1810839" x="404.562492" y="97.932152" style="stroke: #000000"/>
    </g>
   </g>
  </g>
 </g>
 <defs>
  <clipPath id="pe3c7eedd5d">
   <path d="M 307.97422 320.4 
L 307.97422 43.2 
L 430.02578 43.2 
L 430.02578 320.4 
L 307.97422 320.4 
"/>
  </clipPath>
 </defs>
</svg>
