<?xml version="1.0" encoding="utf-8" standalone="no"?>
<!DOCTYPE svg PUBLIC "-//W3C//DTD SVG 1.1//EN"
  "http://www.w3.org/Graphics/SVG/1.1/DTD/svg11.dtd">
<svg xmlns:xlink="http://www.w3.org/1999/xlink" width="304.259465pt" height="291.6pt" viewBox="0 0 304.259465 291.6" xmlns="http://www.w3.org/2000/svg" version="1.1">
 <metadata>
  <rdf:RDF xmlns:dc="http://purl.org/dc/elements/1.1/" xmlns:cc="http://creativecommons.org/ns#" xmlns:rdf="http://www.w3.org/1999/02/22-rdf-syntax-ns#">
   <cc:Work>
    <dc:type rdf:resource="http://purl.org/dc/dcmitype/StillImage"/>
    <dc:date>2023-11-30T20:51:27.327296</dc:date>
    <dc:format>image/svg+xml</dc:format>
    <dc:creator>
     <cc:Agent>
      <dc:title>Matplotlib v3.8.1, https://matplotlib.org/</dc:title>
     </cc:Agent>
    </dc:creator>
   </cc:Work>
  </rdf:RDF>
 </metadata>
 <defs>
  <style type="text/css">*{stroke-linejoin: round; stroke-linecap: butt}</style>
 </defs>
 <g id="figure_1">
  <g id="patch_1">
   <path d="M 0 291.6 
L 304.259465 291.6 
L 304.259465 0 
L 0 0 
z
" style="fill: #ffffff"/>
  </g>
  <g id="axes_1">
   <g id="patch_2">
    <path d="M 7.2 284.4 
L 7.2 7.2 
L 297.059465 7.2 
L 297.059465 284.4 
L 7.2 284.4 
" style="fill: #ffffff"/>
   </g>
   <g id="line2d_1">
    <defs>
     <path id="me4a8eb2ae3" d="M 0 3 
C 0.795609 3 1.55874 2.683901 2.12132 2.12132 
C 2.683901 1.55874 3 0.795609 3 0 
C 3 -0.795609 2.683901 -1.55874 2.12132 -2.12132 
C 1.55874 -2.683901 0.795609 -3 0 -3 
C -0.795609 -3 -1.55874 -2.683901 -2.12132 -2.12132 
C -2.683901 -1.55874 -3 -0.795609 -3 0 
C -3 0.795609 -2.683901 1.55874 -2.12132 2.12132 
C -1.55874 2.683901 -0.795609 3 0 3 
z
" style="stroke: #000000"/>
    </defs>
    <g clip-path="url(#pa48e5d78eb)">
     <use xlink:href="#me4a8eb2ae3" x="130.953438" y="45.275309" style="stroke: #000000"/>
    </g>
   </g>
   <g id="line2d_2">
    <g clip-path="url(#pa48e5d78eb)">
     <use xlink:href="#me4a8eb2ae3" x="216.880816" y="271.8" style="stroke: #000000"/>
    </g>
   </g>
   <g id="line2d_3">
    <g clip-path="url(#pa48e5d78eb)">
     <use xlink:href="#me4a8eb2ae3" x="201.738315" y="174.673691" style="stroke: #000000"/>
    </g>
   </g>
   <g id="line2d_4">
    <g clip-path="url(#pa48e5d78eb)">
     <use xlink:href="#me4a8eb2ae3" x="105.30419" y="259.846783" style="stroke: #000000"/>
    </g>
   </g>
   <g id="line2d_5">
    <g clip-path="url(#pa48e5d78eb)">
     <use xlink:href="#me4a8eb2ae3" x="270.297553" y="255.988046" style="stroke: #000000"/>
    </g>
   </g>
   <g id="line2d_6">
    <g clip-path="url(#pa48e5d78eb)">
     <use xlink:href="#me4a8eb2ae3" x="20.37543" y="114.41396" style="stroke: #000000"/>
    </g>
   </g>
   <g id="line2d_7">
    <g clip-path="url(#pa48e5d78eb)">
     <use xlink:href="#me4a8eb2ae3" x="283.884034" y="56.816528" style="stroke: #000000"/>
    </g>
   </g>
   <g id="line2d_8">
    <g clip-path="url(#pa48e5d78eb)">
     <use xlink:href="#me4a8eb2ae3" x="47.943987" y="211.131065" style="stroke: #000000"/>
    </g>
   </g>
   <g id="line2d_9">
    <g clip-path="url(#pa48e5d78eb)">
     <use xlink:href="#me4a8eb2ae3" x="174.240602" y="259.586665" style="stroke: #000000"/>
    </g>
   </g>
   <g id="line2d_10">
    <g clip-path="url(#pa48e5d78eb)">
     <use xlink:href="#me4a8eb2ae3" x="95.546123" y="19.8" style="stroke: #000000"/>
    </g>
   </g>
  </g>
 </g>
 <defs>
  <clipPath id="pa48e5d78eb">
   <path d="M 7.2 284.4 
L 7.2 7.2 
L 297.059465 7.2 
L 297.059465 284.4 
L 7.2 284.4 
"/>
  </clipPath>
 </defs>
</svg>
