<?xml version="1.0" encoding="utf-8" standalone="no"?>
<!DOCTYPE svg PUBLIC "-//W3C//DTD SVG 1.1//EN"
  "http://www.w3.org/Graphics/SVG/1.1/DTD/svg11.dtd">
<svg xmlns:xlink="http://www.w3.org/1999/xlink" width="720pt" height="360pt" viewBox="0 0 720 360" xmlns="http://www.w3.org/2000/svg" version="1.1">
 <metadata>
  <rdf:RDF xmlns:dc="http://purl.org/dc/elements/1.1/" xmlns:cc="http://creativecommons.org/ns#" xmlns:rdf="http://www.w3.org/1999/02/22-rdf-syntax-ns#">
   <cc:Work>
    <dc:type rdf:resource="http://purl.org/dc/dcmitype/StillImage"/>
    <dc:date>2023-11-30T21:30:44.617043</dc:date>
    <dc:format>image/svg+xml</dc:format>
    <dc:creator>
     <cc:Agent>
      <dc:title>Matplotlib v3.8.1, https://matplotlib.org/</dc:title>
     </cc:Agent>
    </dc:creator>
   </cc:Work>
  </rdf:RDF>
 </metadata>
 <defs>
  <style type="text/css">*{stroke-linejoin: round; stroke-linecap: butt}</style>
 </defs>
 <g id="figure_1">
  <g id="patch_1">
   <path d="M 0 360 
L 720 360 
L 720 0 
L 0 0 
z
" style="fill: #ffffff"/>
  </g>
  <g id="axes_1">
   <g id="patch_2">
    <path d="M 224.070268 320.4 
L 224.070268 43.2 
L 513.929732 43.2 
L 513.929732 320.4 
L 224.070268 320.4 
" style="fill: #ffffff"/>
   </g>
   <g id="line2d_1">
    <defs>
     <path id="maf4c47e7da" d="M 0 10.514101 
C 2.788372 10.514101 5.462915 9.406269 7.434592 7.434592 
C 9.406269 5.462915 10.514101 2.788372 10.514101 0 
C 10.514101 -2.788372 9.406269 -5.462915 7.434592 -7.434592 
C 5.462915 -9.406269 2.788372 -10.514101 0 -10.514101 
C -2.788372 -10.514101 -5.462915 -9.406269 -7.434592 -7.434592 
C -9.406269 -5.462915 -10.514101 -2.788372 -10.514101 0 
C -10.514101 2.788372 -9.406269 5.462915 -7.434592 7.434592 
C -5.462915 9.406269 -2.788372 10.514101 0 10.514101 
z
" style="stroke: #000000"/>
    </defs>
    <g clip-path="url(#p182953fda5)">
     <use xlink:href="#maf4c47e7da" x="347.823706" y="81.275309" style="stroke: #000000"/>
    </g>
   </g>
   <g id="line2d_2">
    <defs>
     <path id="m87076fc101" d="M 0 9.865935 
C 2.616476 9.865935 5.126141 8.826398 6.976269 6.976269 
C 8.826398 5.126141 9.865935 2.616476 9.865935 0 
C 9.865935 -2.616476 8.826398 -5.126141 6.976269 -6.976269 
C 5.126141 -8.826398 2.616476 -9.865935 0 -9.865935 
C -2.616476 -9.865935 -5.126141 -8.826398 -6.976269 -6.976269 
C -8.826398 -5.126141 -9.865935 -2.616476 -9.865935 0 
C -9.865935 2.616476 -8.826398 5.126141 -6.976269 6.976269 
C -5.126141 8.826398 -2.616476 9.865935 0 9.865935 
z
" style="stroke: #000000"/>
    </defs>
    <g clip-path="url(#p182953fda5)">
     <use xlink:href="#m87076fc101" x="433.751084" y="307.8" style="stroke: #000000"/>
    </g>
   </g>
   <g id="line2d_3">
    <defs>
     <path id="m59c26a9d81" d="M 0 9.498184 
C 2.518948 9.498184 4.935065 8.497396 6.716231 6.716231 
C 8.497396 4.935065 9.498184 2.518948 9.498184 0 
C 9.498184 -2.518948 8.497396 -4.935065 6.716231 -6.716231 
C 4.935065 -8.497396 2.518948 -9.498184 0 -9.498184 
C -2.518948 -9.498184 -4.935065 -8.497396 -6.716231 -6.716231 
C -8.497396 -4.935065 -9.498184 -2.518948 -9.498184 0 
C -9.498184 2.518948 -8.497396 4.935065 -6.716231 6.716231 
C -4.935065 8.497396 -2.518948 9.498184 0 9.498184 
z
" style="stroke: #000000"/>
    </defs>
    <g clip-path="url(#p182953fda5)">
     <use xlink:href="#m59c26a9d81" x="418.608582" y="210.673691" style="stroke: #000000"/>
    </g>
   </g>
   <g id="line2d_4">
    <defs>
     <path id="m13e546a059" d="M 0 9.456296 
C 2.507839 9.456296 4.913301 8.459921 6.686611 6.686611 
C 8.459921 4.913301 9.456296 2.507839 9.456296 0 
C 9.456296 -2.507839 8.459921 -4.913301 6.686611 -6.686611 
C 4.913301 -8.459921 2.507839 -9.456296 0 -9.456296 
C -2.507839 -9.456296 -4.913301 -8.459921 -6.686611 -6.686611 
C -8.459921 -4.913301 -9.456296 -2.507839 -9.456296 0 
C -9.456296 2.507839 -8.459921 4.913301 -6.686611 6.686611 
C -4.913301 8.459921 -2.507839 9.456296 0 9.456296 
z
" style="stroke: #000000"/>
    </defs>
    <g clip-path="url(#p182953fda5)">
     <use xlink:href="#m13e546a059" x="322.174457" y="295.846783" style="stroke: #000000"/>
    </g>
   </g>
   <g id="line2d_5">
    <defs>
     <path id="m988174228f" d="M 0 9.19323 
C 2.438073 9.19323 4.776617 8.224573 6.500595 6.500595 
C 8.224573 4.776617 9.19323 2.438073 9.19323 0 
C 9.19323 -2.438073 8.224573 -4.776617 6.500595 -6.500595 
C 4.776617 -8.224573 2.438073 -9.19323 0 -9.19323 
C -2.438073 -9.19323 -4.776617 -8.224573 -6.500595 -6.500595 
C -8.224573 -4.776617 -9.19323 -2.438073 -9.19323 0 
C -9.19323 2.438073 -8.224573 4.776617 -6.500595 6.500595 
C -4.776617 8.224573 -2.438073 9.19323 0 9.19323 
z
" style="stroke: #000000"/>
    </defs>
    <g clip-path="url(#p182953fda5)">
     <use xlink:href="#m988174228f" x="487.16782" y="291.988046" style="stroke: #000000"/>
    </g>
   </g>
   <g id="line2d_6">
    <defs>
     <path id="m6fb51e994e" d="M 0 9.141166 
C 2.424266 9.141166 4.749566 8.177995 6.463781 6.463781 
C 8.177995 4.749566 9.141166 2.424266 9.141166 0 
C 9.141166 -2.424266 8.177995 -4.749566 6.463781 -6.463781 
C 4.749566 -8.177995 2.424266 -9.141166 0 -9.141166 
C -2.424266 -9.141166 -4.749566 -8.177995 -6.463781 -6.463781 
C -8.177995 -4.749566 -9.141166 -2.424266 -9.141166 0 
C -9.141166 2.424266 -8.177995 4.749566 -6.463781 6.463781 
C -4.749566 8.177995 -2.424266 9.141166 0 9.141166 
z
" style="stroke: #000000"/>
    </defs>
    <g clip-path="url(#p182953fda5)">
     <use xlink:href="#m6fb51e994e" x="237.245698" y="150.41396" style="stroke: #000000"/>
    </g>
   </g>
   <g id="line2d_7">
    <defs>
     <path id="mf8aa264933" d="M 0 9.034132 
C 2.39588 9.034132 4.693953 8.082239 6.388096 6.388096 
C 8.082239 4.693953 9.034132 2.39588 9.034132 0 
C 9.034132 -2.39588 8.082239 -4.693953 6.388096 -6.388096 
C 4.693953 -8.082239 2.39588 -9.034132 0 -9.034132 
C -2.39588 -9.034132 -4.693953 -8.082239 -6.388096 -6.388096 
C -8.082239 -4.693953 -9.034132 -2.39588 -9.034132 0 
C -9.034132 2.39588 -8.082239 4.693953 -6.388096 6.388096 
C -4.693953 8.082239 -2.39588 9.034132 0 9.034132 
z
" style="stroke: #000000"/>
    </defs>
    <g clip-path="url(#p182953fda5)">
     <use xlink:href="#mf8aa264933" x="500.754302" y="92.816528" style="stroke: #000000"/>
    </g>
   </g>
   <g id="line2d_8">
    <defs>
     <path id="mbf9e366ae9" d="M 0 8.996732 
C 2.385961 8.996732 4.674521 8.048779 6.36165 6.36165 
C 8.048779 4.674521 8.996732 2.385961 8.996732 0 
C 8.996732 -2.385961 8.048779 -4.674521 6.36165 -6.36165 
C 4.674521 -8.048779 2.385961 -8.996732 0 -8.996732 
C -2.385961 -8.996732 -4.674521 -8.048779 -6.36165 -6.36165 
C -8.048779 -4.674521 -8.996732 -2.385961 -8.996732 0 
C -8.996732 2.385961 -8.048779 4.674521 -6.36165 6.36165 
C -4.674521 8.048779 -2.385961 8.996732 0 8.996732 
z
" style="stroke: #000000"/>
    </defs>
    <g clip-path="url(#p182953fda5)">
     <use xlink:href="#mbf9e366ae9" x="264.814255" y="247.131065" style="stroke: #000000"/>
    </g>
   </g>
   <g id="line2d_9">
    <defs>
     <path id="mb1c0f9fa3a" d="M 0 8.960726 
C 2.376412 8.960726 4.655813 8.016567 6.33619 6.33619 
C 8.016567 4.655813 8.960726 2.376412 8.960726 0 
C 8.960726 -2.376412 8.016567 -4.655813 6.33619 -6.33619 
C 4.655813 -8.016567 2.376412 -8.960726 0 -8.960726 
C -2.376412 -8.960726 -4.655813 -8.016567 -6.33619 -6.33619 
C -8.016567 -4.655813 -8.960726 -2.376412 -8.960726 0 
C -8.960726 2.376412 -8.016567 4.655813 -6.33619 6.33619 
C -4.655813 8.016567 -2.376412 8.960726 0 8.960726 
z
" style="stroke: #000000"/>
    </defs>
    <g clip-path="url(#p182953fda5)">
     <use xlink:href="#mb1c0f9fa3a" x="391.110869" y="295.586665" style="stroke: #000000"/>
    </g>
   </g>
   <g id="line2d_10">
    <defs>
     <path id="m3efa098938" d="M 0 8.91954 
C 2.36549 8.91954 4.634414 7.979721 6.307067 6.307067 
C 7.979721 4.634414 8.91954 2.36549 8.91954 0 
C 8.91954 -2.36549 7.979721 -4.634414 6.307067 -6.307067 
C 4.634414 -7.979721 2.36549 -8.91954 0 -8.91954 
C -2.36549 -8.91954 -4.634414 -7.979721 -6.307067 -6.307067 
C -7.979721 -4.634414 -8.91954 -2.36549 -8.91954 0 
C -8.91954 2.36549 -7.979721 4.634414 -6.307067 6.307067 
C -4.634414 7.979721 -2.36549 8.91954 0 8.91954 
z
" style="stroke: #000000"/>
    </defs>
    <g clip-path="url(#p182953fda5)">
     <use xlink:href="#m3efa098938" x="312.416391" y="55.8" style="stroke: #000000"/>
    </g>
   </g>
  </g>
 </g>
 <defs>
  <clipPath id="p182953fda5">
   <path d="M 224.070268 320.4 
L 224.070268 43.2 
L 513.929732 43.2 
L 513.929732 320.4 
L 224.070268 320.4 
"/>
  </clipPath>
 </defs>
</svg>
