<?xml version="1.0" encoding="utf-8" standalone="no"?>
<!DOCTYPE svg PUBLIC "-//W3C//DTD SVG 1.1//EN"
  "http://www.w3.org/Graphics/SVG/1.1/DTD/svg11.dtd">
<svg xmlns:xlink="http://www.w3.org/1999/xlink" width="720pt" height="360pt" viewBox="0 0 720 360" xmlns="http://www.w3.org/2000/svg" version="1.1">
 <metadata>
  <rdf:RDF xmlns:dc="http://purl.org/dc/elements/1.1/" xmlns:cc="http://creativecommons.org/ns#" xmlns:rdf="http://www.w3.org/1999/02/22-rdf-syntax-ns#">
   <cc:Work>
    <dc:type rdf:resource="http://purl.org/dc/dcmitype/StillImage"/>
    <dc:date>2023-11-30T21:30:45.784793</dc:date>
    <dc:format>image/svg+xml</dc:format>
    <dc:creator>
     <cc:Agent>
      <dc:title>Matplotlib v3.8.1, https://matplotlib.org/</dc:title>
     </cc:Agent>
    </dc:creator>
   </cc:Work>
  </rdf:RDF>
 </metadata>
 <defs>
  <style type="text/css">*{stroke-linejoin: round; stroke-linecap: butt}</style>
 </defs>
 <g id="figure_1">
  <g id="patch_1">
   <path d="M 0 360 
L 720 360 
L 720 0 
L 0 0 
z
" style="fill: #ffffff"/>
  </g>
  <g id="axes_1">
   <g id="patch_2">
    <path d="M 221.224162 320.4 
L 221.224162 43.2 
L 516.775838 43.2 
L 516.775838 320.4 
L 221.224162 320.4 
" style="fill: #ffffff"/>
   </g>
   <g id="line2d_1">
    <defs>
     <path id="m2717937137" d="M 0 9.570551 
C 2.53814 9.570551 4.972666 8.562137 6.767401 6.767401 
C 8.562137 4.972666 9.570551 2.53814 9.570551 0 
C 9.570551 -2.53814 8.562137 -4.972666 6.767401 -6.767401 
C 4.972666 -8.562137 2.53814 -9.570551 0 -9.570551 
C -2.53814 -9.570551 -4.972666 -8.562137 -6.767401 -6.767401 
C -8.562137 -4.972666 -9.570551 -2.53814 -9.570551 0 
C -9.570551 2.53814 -8.562137 4.972666 -6.767401 6.767401 
C -4.972666 8.562137 -2.53814 9.570551 0 9.570551 
z
" style="stroke: #000000"/>
    </defs>
    <g clip-path="url(#pb91c7cf728)">
     <use xlink:href="#m2717937137" x="272.260658" y="122.898118" style="stroke: #000000"/>
    </g>
   </g>
   <g id="line2d_2">
    <defs>
     <path id="m79c8bffab1" d="M 0 8.368069 
C 2.219238 8.368069 4.34788 7.486356 5.917118 5.917118 
C 7.486356 4.34788 8.368069 2.219238 8.368069 0 
C 8.368069 -2.219238 7.486356 -4.34788 5.917118 -5.917118 
C 4.34788 -7.486356 2.219238 -8.368069 0 -8.368069 
C -2.219238 -8.368069 -4.34788 -7.486356 -5.917118 -5.917118 
C -7.486356 -4.34788 -8.368069 -2.219238 -8.368069 0 
C -8.368069 2.219238 -7.486356 4.34788 -5.917118 5.917118 
C -4.34788 7.486356 -2.219238 8.368069 0 8.368069 
z
" style="stroke: #000000"/>
    </defs>
    <g clip-path="url(#pb91c7cf728)">
     <use xlink:href="#m79c8bffab1" x="234.658329" y="184.686665" style="stroke: #000000"/>
    </g>
   </g>
   <g id="line2d_3">
    <defs>
     <path id="m6812c2f539" d="M 0 7.695488 
C 2.040867 7.695488 3.99842 6.884642 5.441531 5.441531 
C 6.884642 3.99842 7.695488 2.040867 7.695488 0 
C 7.695488 -2.040867 6.884642 -3.99842 5.441531 -5.441531 
C 3.99842 -6.884642 2.040867 -7.695488 0 -7.695488 
C -2.040867 -7.695488 -3.99842 -6.884642 -5.441531 -5.441531 
C -6.884642 -3.99842 -7.695488 -2.040867 -7.695488 0 
C -7.695488 2.040867 -6.884642 3.99842 -5.441531 5.441531 
C -3.99842 6.884642 -2.040867 7.695488 0 7.695488 
z
" style="stroke: #000000"/>
    </defs>
    <g clip-path="url(#pb91c7cf728)">
     <use xlink:href="#m6812c2f539" x="503.341671" y="235.495552" style="stroke: #000000"/>
    </g>
   </g>
   <g id="line2d_4">
    <defs>
     <path id="m7146d81584" d="M 0 7.456982 
C 1.977615 7.456982 3.874498 6.671268 5.272883 5.272883 
C 6.671268 3.874498 7.456982 1.977615 7.456982 0 
C 7.456982 -1.977615 6.671268 -3.874498 5.272883 -5.272883 
C 3.874498 -6.671268 1.977615 -7.456982 0 -7.456982 
C -1.977615 -7.456982 -3.874498 -6.671268 -5.272883 -5.272883 
C -6.671268 -3.874498 -7.456982 -1.977615 -7.456982 0 
C -7.456982 1.977615 -6.671268 3.874498 -5.272883 5.272883 
C -3.874498 6.671268 -1.977615 7.456982 0 7.456982 
z
" style="stroke: #000000"/>
    </defs>
    <g clip-path="url(#pb91c7cf728)">
     <use xlink:href="#m7146d81584" x="391.201068" y="55.8" style="stroke: #000000"/>
    </g>
   </g>
   <g id="line2d_5">
    <defs>
     <path id="m0c9aa02770" d="M 0 7.439983 
C 1.973107 7.439983 3.865665 6.656059 5.260862 5.260862 
C 6.656059 3.865665 7.439983 1.973107 7.439983 0 
C 7.439983 -1.973107 6.656059 -3.865665 5.260862 -5.260862 
C 3.865665 -6.656059 1.973107 -7.439983 0 -7.439983 
C -1.973107 -7.439983 -3.865665 -6.656059 -5.260862 -5.260862 
C -6.656059 -3.865665 -7.439983 -1.973107 -7.439983 0 
C -7.439983 1.973107 -6.656059 3.865665 -5.260862 5.260862 
C -3.865665 6.656059 -1.973107 7.439983 0 7.439983 
z
" style="stroke: #000000"/>
    </defs>
    <g clip-path="url(#pb91c7cf728)">
     <use xlink:href="#m0c9aa02770" x="481.807546" y="231.780976" style="stroke: #000000"/>
    </g>
   </g>
   <g id="line2d_6">
    <defs>
     <path id="m5f40a99853" d="M 0 7.227856 
C 1.91685 7.227856 3.755449 6.466284 5.110866 5.110866 
C 6.466284 3.755449 7.227856 1.91685 7.227856 0 
C 7.227856 -1.91685 6.466284 -3.755449 5.110866 -5.110866 
C 3.755449 -6.466284 1.91685 -7.227856 0 -7.227856 
C -1.91685 -7.227856 -3.755449 -6.466284 -5.110866 -5.110866 
C -6.466284 -3.755449 -7.227856 -1.91685 -7.227856 0 
C -7.227856 1.91685 -6.466284 3.755449 -5.110866 5.110866 
C -3.755449 6.466284 -1.91685 7.227856 0 7.227856 
z
" style="stroke: #000000"/>
    </defs>
    <g clip-path="url(#pb91c7cf728)">
     <use xlink:href="#m5f40a99853" x="361.916517" y="248.569595" style="stroke: #000000"/>
    </g>
   </g>
   <g id="line2d_7">
    <defs>
     <path id="mda46ec7a97" d="M 0 7.169194 
C 1.901292 7.169194 3.724969 6.413803 5.069386 5.069386 
C 6.413803 3.724969 7.169194 1.901292 7.169194 0 
C 7.169194 -1.901292 6.413803 -3.724969 5.069386 -5.069386 
C 3.724969 -6.413803 1.901292 -7.169194 0 -7.169194 
C -1.901292 -7.169194 -3.724969 -6.413803 -5.069386 -5.069386 
C -6.413803 -3.724969 -7.169194 -1.901292 -7.169194 0 
C -7.169194 1.901292 -6.413803 3.724969 -5.069386 5.069386 
C -3.724969 6.413803 -1.901292 7.169194 0 7.169194 
z
" style="stroke: #000000"/>
    </defs>
    <g clip-path="url(#pb91c7cf728)">
     <use xlink:href="#mda46ec7a97" x="316.294074" y="183.617834" style="stroke: #000000"/>
    </g>
   </g>
   <g id="line2d_8">
    <defs>
     <path id="mf6bdf4417b" d="M 0 7.120619 
C 1.88841 7.120619 3.69973 6.370346 5.035038 5.035038 
C 6.370346 3.69973 7.120619 1.88841 7.120619 0 
C 7.120619 -1.88841 6.370346 -3.69973 5.035038 -5.035038 
C 3.69973 -6.370346 1.88841 -7.120619 0 -7.120619 
C -1.88841 -7.120619 -3.69973 -6.370346 -5.035038 -5.035038 
C -6.370346 -3.69973 -7.120619 -1.88841 -7.120619 0 
C -7.120619 1.88841 -6.370346 3.69973 -5.035038 5.035038 
C -3.69973 6.370346 -1.88841 7.120619 0 7.120619 
z
" style="stroke: #000000"/>
    </defs>
    <g clip-path="url(#pb91c7cf728)">
     <use xlink:href="#mf6bdf4417b" x="357.76714" y="307.8" style="stroke: #000000"/>
    </g>
   </g>
   <g id="line2d_9">
    <defs>
     <path id="m7056ebee3d" d="M 0 6.992877 
C 1.854533 6.992877 3.633358 6.256063 4.94471 4.94471 
C 6.256063 3.633358 6.992877 1.854533 6.992877 0 
C 6.992877 -1.854533 6.256063 -3.633358 4.94471 -4.94471 
C 3.633358 -6.256063 1.854533 -6.992877 0 -6.992877 
C -1.854533 -6.992877 -3.633358 -6.256063 -4.94471 -4.94471 
C -6.256063 -3.633358 -6.992877 -1.854533 -6.992877 0 
C -6.992877 1.854533 -6.256063 3.633358 -4.94471 4.94471 
C -3.633358 6.256063 -1.854533 6.992877 0 6.992877 
z
" style="stroke: #000000"/>
    </defs>
    <g clip-path="url(#pb91c7cf728)">
     <use xlink:href="#m7056ebee3d" x="440.699285" y="207.884356" style="stroke: #000000"/>
    </g>
   </g>
   <g id="line2d_10">
    <defs>
     <path id="mdaadb8cc79" d="M 0 6.864173 
C 1.8204 6.864173 3.566486 6.14092 4.853703 4.853703 
C 6.14092 3.566486 6.864173 1.8204 6.864173 0 
C 6.864173 -1.8204 6.14092 -3.566486 4.853703 -4.853703 
C 3.566486 -6.14092 1.8204 -6.864173 0 -6.864173 
C -1.8204 -6.864173 -3.566486 -6.14092 -4.853703 -4.853703 
C -6.14092 -3.566486 -6.864173 -1.8204 -6.864173 0 
C -6.864173 1.8204 -6.14092 3.566486 -4.853703 4.853703 
C -3.566486 6.14092 -1.8204 6.864173 0 6.864173 
z
" style="stroke: #000000"/>
    </defs>
    <g clip-path="url(#pb91c7cf728)">
     <use xlink:href="#mdaadb8cc79" x="463.091149" y="112.816061" style="stroke: #000000"/>
    </g>
   </g>
  </g>
 </g>
 <defs>
  <clipPath id="pb91c7cf728">
   <path d="M 221.224162 320.4 
L 221.224162 43.2 
L 516.775838 43.2 
L 516.775838 320.4 
L 221.224162 320.4 
"/>
  </clipPath>
 </defs>
</svg>
