<?xml version="1.0" encoding="utf-8" standalone="no"?>
<!DOCTYPE svg PUBLIC "-//W3C//DTD SVG 1.1//EN"
  "http://www.w3.org/Graphics/SVG/1.1/DTD/svg11.dtd">
<svg xmlns:xlink="http://www.w3.org/1999/xlink" width="720pt" height="360pt" viewBox="0 0 720 360" xmlns="http://www.w3.org/2000/svg" version="1.1">
 <metadata>
  <rdf:RDF xmlns:dc="http://purl.org/dc/elements/1.1/" xmlns:cc="http://creativecommons.org/ns#" xmlns:rdf="http://www.w3.org/1999/02/22-rdf-syntax-ns#">
   <cc:Work>
    <dc:type rdf:resource="http://purl.org/dc/dcmitype/StillImage"/>
    <dc:date>2023-11-30T21:30:45.069978</dc:date>
    <dc:format>image/svg+xml</dc:format>
    <dc:creator>
     <cc:Agent>
      <dc:title>Matplotlib v3.8.1, https://matplotlib.org/</dc:title>
     </cc:Agent>
    </dc:creator>
   </cc:Work>
  </rdf:RDF>
 </metadata>
 <defs>
  <style type="text/css">*{stroke-linejoin: round; stroke-linecap: butt}</style>
 </defs>
 <g id="figure_1">
  <g id="patch_1">
   <path d="M 0 360 
L 720 360 
L 720 0 
L 0 0 
z
" style="fill: #ffffff"/>
  </g>
  <g id="axes_1">
   <g id="patch_2">
    <path d="M 293.526133 320.4 
L 293.526133 43.2 
L 444.473867 43.2 
L 444.473867 320.4 
L 293.526133 320.4 
" style="fill: #ffffff"/>
   </g>
   <g id="line2d_1">
    <defs>
     <path id="mcbb3a89976" d="M 0 11.547694 
C 3.062484 11.547694 5.999949 10.330956 8.165453 8.165453 
C 10.330956 5.999949 11.547694 3.062484 11.547694 0 
C 11.547694 -3.062484 10.330956 -5.999949 8.165453 -8.165453 
C 5.999949 -10.330956 3.062484 -11.547694 0 -11.547694 
C -3.062484 -11.547694 -5.999949 -10.330956 -8.165453 -8.165453 
C -10.330956 -5.999949 -11.547694 -3.062484 -11.547694 0 
C -11.547694 3.062484 -10.330956 5.999949 -8.165453 8.165453 
C -5.999949 10.330956 -3.062484 11.547694 0 11.547694 
z
" style="stroke: #000000"/>
    </defs>
    <g clip-path="url(#p4231d65779)">
     <use xlink:href="#mcbb3a89976" x="437.612607" y="304.964977" style="stroke: #000000"/>
    </g>
   </g>
   <g id="line2d_2">
    <defs>
     <path id="m63b8cc9ae1" d="M 0 10.063408 
C 2.668847 10.063408 5.228744 9.003064 7.115904 7.115904 
C 9.003064 5.228744 10.063408 2.668847 10.063408 0 
C 10.063408 -2.668847 9.003064 -5.228744 7.115904 -7.115904 
C 5.228744 -9.003064 2.668847 -10.063408 0 -10.063408 
C -2.668847 -10.063408 -5.228744 -9.003064 -7.115904 -7.115904 
C -9.003064 -5.228744 -10.063408 -2.668847 -10.063408 0 
C -10.063408 2.668847 -9.003064 5.228744 -7.115904 7.115904 
C -5.228744 9.003064 -2.668847 10.063408 0 10.063408 
z
" style="stroke: #000000"/>
    </defs>
    <g clip-path="url(#p4231d65779)">
     <use xlink:href="#m63b8cc9ae1" x="378.692868" y="252.620327" style="stroke: #000000"/>
    </g>
   </g>
   <g id="line2d_3">
    <defs>
     <path id="ma809c85e37" d="M 0 9.860439 
C 2.615019 9.860439 5.123285 8.821481 6.972383 6.972383 
C 8.821481 5.123285 9.860439 2.615019 9.860439 0 
C 9.860439 -2.615019 8.821481 -5.123285 6.972383 -6.972383 
C 5.123285 -8.821481 2.615019 -9.860439 0 -9.860439 
C -2.615019 -9.860439 -5.123285 -8.821481 -6.972383 -6.972383 
C -8.821481 -5.123285 -9.860439 -2.615019 -9.860439 0 
C -9.860439 2.615019 -8.821481 5.123285 -6.972383 6.972383 
C -5.123285 8.821481 -2.615019 9.860439 0 9.860439 
z
" style="stroke: #000000"/>
    </defs>
    <g clip-path="url(#p4231d65779)">
     <use xlink:href="#ma809c85e37" x="342.887492" y="201.531011" style="stroke: #000000"/>
    </g>
   </g>
   <g id="line2d_4">
    <defs>
     <path id="mc5cd68d639" d="M 0 9.628375 
C 2.553475 9.628375 5.00271 8.613869 6.808289 6.808289 
C 8.613869 5.00271 9.628375 2.553475 9.628375 0 
C 9.628375 -2.553475 8.613869 -5.00271 6.808289 -6.808289 
C 5.00271 -8.613869 2.553475 -9.628375 0 -9.628375 
C -2.553475 -9.628375 -5.00271 -8.613869 -6.808289 -6.808289 
C -8.613869 -5.00271 -9.628375 -2.553475 -9.628375 0 
C -9.628375 2.553475 -8.613869 5.00271 -6.808289 6.808289 
C -5.00271 8.613869 -2.553475 9.628375 0 9.628375 
z
" style="stroke: #000000"/>
    </defs>
    <g clip-path="url(#p4231d65779)">
     <use xlink:href="#mc5cd68d639" x="300.387393" y="60.938657" style="stroke: #000000"/>
    </g>
   </g>
   <g id="line2d_5">
    <defs>
     <path id="md5d54001c4" d="M 0 9.543012 
C 2.530836 9.543012 4.958357 8.5375 6.747929 6.747929 
C 8.5375 4.958357 9.543012 2.530836 9.543012 0 
C 9.543012 -2.530836 8.5375 -4.958357 6.747929 -6.747929 
C 4.958357 -8.5375 2.530836 -9.543012 0 -9.543012 
C -2.530836 -9.543012 -4.958357 -8.5375 -6.747929 -6.747929 
C -8.5375 -4.958357 -9.543012 -2.530836 -9.543012 0 
C -9.543012 2.530836 -8.5375 4.958357 -6.747929 6.747929 
C -4.958357 8.5375 -2.530836 9.543012 0 9.543012 
z
" style="stroke: #000000"/>
    </defs>
    <g clip-path="url(#p4231d65779)">
     <use xlink:href="#md5d54001c4" x="393.104224" y="203.065166" style="stroke: #000000"/>
    </g>
   </g>
   <g id="line2d_6">
    <defs>
     <path id="m5abcdba8e2" d="M 0 9.488924 
C 2.516492 9.488924 4.930254 8.489111 6.709682 6.709682 
C 8.489111 4.930254 9.488924 2.516492 9.488924 0 
C 9.488924 -2.516492 8.489111 -4.930254 6.709682 -6.709682 
C 4.930254 -8.489111 2.516492 -9.488924 0 -9.488924 
C -2.516492 -9.488924 -4.930254 -8.489111 -6.709682 -6.709682 
C -8.489111 -4.930254 -9.488924 -2.516492 -9.488924 0 
C -9.488924 2.516492 -8.489111 4.930254 -6.709682 6.709682 
C -4.930254 8.489111 -2.516492 9.488924 0 9.488924 
z
" style="stroke: #000000"/>
    </defs>
    <g clip-path="url(#p4231d65779)">
     <use xlink:href="#m5abcdba8e2" x="390.382562" y="179.98289" style="stroke: #000000"/>
    </g>
   </g>
   <g id="line2d_7">
    <defs>
     <path id="m80b059f1ef" d="M 0 9.475131 
C 2.512834 9.475131 4.923087 8.476772 6.69993 6.69993 
C 8.476772 4.923087 9.475131 2.512834 9.475131 0 
C 9.475131 -2.512834 8.476772 -4.923087 6.69993 -6.69993 
C 4.923087 -8.476772 2.512834 -9.475131 0 -9.475131 
C -2.512834 -9.475131 -4.923087 -8.476772 -6.69993 -6.69993 
C -8.476772 -4.923087 -9.475131 -2.512834 -9.475131 0 
C -9.475131 2.512834 -8.476772 4.923087 -6.69993 6.69993 
C -4.923087 8.476772 -2.512834 9.475131 0 9.475131 
z
" style="stroke: #000000"/>
    </defs>
    <g clip-path="url(#p4231d65779)">
     <use xlink:href="#m80b059f1ef" x="335.629507" y="55.8" style="stroke: #000000"/>
    </g>
   </g>
   <g id="line2d_8">
    <defs>
     <path id="ma5f2bbd0ec" d="M 0 9.414779 
C 2.496829 9.414779 4.89173 8.422779 6.657254 6.657254 
C 8.422779 4.89173 9.414779 2.496829 9.414779 0 
C 9.414779 -2.496829 8.422779 -4.89173 6.657254 -6.657254 
C 4.89173 -8.422779 2.496829 -9.414779 0 -9.414779 
C -2.496829 -9.414779 -4.89173 -8.422779 -6.657254 -6.657254 
C -8.422779 -4.89173 -9.414779 -2.496829 -9.414779 0 
C -9.414779 2.496829 -8.422779 4.89173 -6.657254 6.657254 
C -4.89173 8.422779 -2.496829 9.414779 0 9.414779 
z
" style="stroke: #000000"/>
    </defs>
    <g clip-path="url(#p4231d65779)">
     <use xlink:href="#ma5f2bbd0ec" x="355.550608" y="307.8" style="stroke: #000000"/>
    </g>
   </g>
   <g id="line2d_9">
    <defs>
     <path id="m8380459493" d="M 0 9.385422 
C 2.489043 9.385422 4.876476 8.396515 6.636496 6.636496 
C 8.396515 4.876476 9.385422 2.489043 9.385422 0 
C 9.385422 -2.489043 8.396515 -4.876476 6.636496 -6.636496 
C 4.876476 -8.396515 2.489043 -9.385422 0 -9.385422 
C -2.489043 -9.385422 -4.876476 -8.396515 -6.636496 -6.636496 
C -8.396515 -4.876476 -9.385422 -2.489043 -9.385422 0 
C -9.385422 2.489043 -8.396515 4.876476 -6.636496 6.636496 
C -4.876476 8.396515 -2.489043 9.385422 0 9.385422 
z
" style="stroke: #000000"/>
    </defs>
    <g clip-path="url(#p4231d65779)">
     <use xlink:href="#m8380459493" x="336.176828" y="306.4829" style="stroke: #000000"/>
    </g>
   </g>
   <g id="line2d_10">
    <defs>
     <path id="m5d5aa1e5a4" d="M 0 9.296688 
C 2.465511 9.296688 4.830372 8.317131 6.573751 6.573751 
C 8.317131 4.830372 9.296688 2.465511 9.296688 0 
C 9.296688 -2.465511 8.317131 -4.830372 6.573751 -6.573751 
C 4.830372 -8.317131 2.465511 -9.296688 0 -9.296688 
C -2.465511 -9.296688 -4.830372 -8.317131 -6.573751 -6.573751 
C -8.317131 -4.830372 -9.296688 -2.465511 -9.296688 0 
C -9.296688 2.465511 -8.317131 4.830372 -6.573751 6.573751 
C -4.830372 8.317131 -2.465511 9.296688 0 9.296688 
z
" style="stroke: #000000"/>
    </defs>
    <g clip-path="url(#p4231d65779)">
     <use xlink:href="#m5d5aa1e5a4" x="367.480752" y="197.616358" style="stroke: #000000"/>
    </g>
   </g>
  </g>
 </g>
 <defs>
  <clipPath id="p4231d65779">
   <path d="M 293.526133 320.4 
L 293.526133 43.2 
L 444.473867 43.2 
L 444.473867 320.4 
L 293.526133 320.4 
"/>
  </clipPath>
 </defs>
</svg>
