<?xml version="1.0" encoding="utf-8" standalone="no"?>
<!DOCTYPE svg PUBLIC "-//W3C//DTD SVG 1.1//EN"
  "http://www.w3.org/Graphics/SVG/1.1/DTD/svg11.dtd">
<svg xmlns:xlink="http://www.w3.org/1999/xlink" width="720pt" height="360pt" viewBox="0 0 720 360" xmlns="http://www.w3.org/2000/svg" version="1.1">
 <metadata>
  <rdf:RDF xmlns:dc="http://purl.org/dc/elements/1.1/" xmlns:cc="http://creativecommons.org/ns#" xmlns:rdf="http://www.w3.org/1999/02/22-rdf-syntax-ns#">
   <cc:Work>
    <dc:type rdf:resource="http://purl.org/dc/dcmitype/StillImage"/>
    <dc:date>2023-11-30T21:30:45.117944</dc:date>
    <dc:format>image/svg+xml</dc:format>
    <dc:creator>
     <cc:Agent>
      <dc:title>Matplotlib v3.8.1, https://matplotlib.org/</dc:title>
     </cc:Agent>
    </dc:creator>
   </cc:Work>
  </rdf:RDF>
 </metadata>
 <defs>
  <style type="text/css">*{stroke-linejoin: round; stroke-linecap: butt}</style>
 </defs>
 <g id="figure_1">
  <g id="patch_1">
   <path d="M 0 360 
L 720 360 
L 720 0 
L 0 0 
z
" style="fill: #ffffff"/>
  </g>
  <g id="axes_1">
   <g id="patch_2">
    <path d="M 90 317.836038 
L 90 45.763962 
L 648 45.763962 
L 648 317.836038 
L 90 317.836038 
" style="fill: #ffffff"/>
   </g>
   <g id="line2d_1">
    <defs>
     <path id="mf6621034b8" d="M 0 10.000635 
C 2.652199 10.000635 5.196128 8.946905 7.071517 7.071517 
C 8.946905 5.196128 10.000635 2.652199 10.000635 0 
C 10.000635 -2.652199 8.946905 -5.196128 7.071517 -7.071517 
C 5.196128 -8.946905 2.652199 -10.000635 0 -10.000635 
C -2.652199 -10.000635 -5.196128 -8.946905 -7.071517 -7.071517 
C -8.946905 -5.196128 -10.000635 -2.652199 -10.000635 0 
C -10.000635 2.652199 -8.946905 5.196128 -7.071517 7.071517 
C -5.196128 8.946905 -2.652199 10.000635 0 10.000635 
z
" style="stroke: #000000"/>
    </defs>
    <g clip-path="url(#pf2299492d6)">
     <use xlink:href="#mf6621034b8" x="604.196325" y="283.199944" style="stroke: #000000"/>
    </g>
   </g>
   <g id="line2d_2">
    <defs>
     <path id="mbc6eb3b3be" d="M 0 8.696448 
C 2.306325 8.696448 4.518499 7.780135 6.149317 6.149317 
C 7.780135 4.518499 8.696448 2.306325 8.696448 0 
C 8.696448 -2.306325 7.780135 -4.518499 6.149317 -6.149317 
C 4.518499 -7.780135 2.306325 -8.696448 0 -8.696448 
C -2.306325 -8.696448 -4.518499 -7.780135 -6.149317 -6.149317 
C -7.780135 -4.518499 -8.696448 -2.306325 -8.696448 0 
C -8.696448 2.306325 -7.780135 4.518499 -6.149317 6.149317 
C -4.518499 7.780135 -2.306325 8.696448 0 8.696448 
z
" style="stroke: #000000"/>
    </defs>
    <g clip-path="url(#pf2299492d6)">
     <use xlink:href="#mbc6eb3b3be" x="197.330385" y="291.989362" style="stroke: #000000"/>
    </g>
   </g>
   <g id="line2d_3">
    <defs>
     <path id="m1b467fab60" d="M 0 8.522378 
C 2.260161 8.522378 4.428056 7.624407 6.026232 6.026232 
C 7.624407 4.428056 8.522378 2.260161 8.522378 0 
C 8.522378 -2.260161 7.624407 -4.428056 6.026232 -6.026232 
C 4.428056 -7.624407 2.260161 -8.522378 0 -8.522378 
C -2.260161 -8.522378 -4.428056 -7.624407 -6.026232 -6.026232 
C -7.624407 -4.428056 -8.522378 -2.260161 -8.522378 0 
C -8.522378 2.260161 -7.624407 4.428056 -6.026232 6.026232 
C -4.428056 7.624407 -2.260161 8.522378 0 8.522378 
z
" style="stroke: #000000"/>
    </defs>
    <g clip-path="url(#pf2299492d6)">
     <use xlink:href="#m1b467fab60" x="332.20003" y="185.412784" style="stroke: #000000"/>
    </g>
   </g>
   <g id="line2d_4">
    <defs>
     <path id="m5360d4da04" d="M 0 8.494636 
C 2.252804 8.494636 4.413642 7.599588 6.006615 6.006615 
C 7.599588 4.413642 8.494636 2.252804 8.494636 0 
C 8.494636 -2.252804 7.599588 -4.413642 6.006615 -6.006615 
C 4.413642 -7.599588 2.252804 -8.494636 0 -8.494636 
C -2.252804 -8.494636 -4.413642 -7.599588 -6.006615 -6.006615 
C -7.599588 -4.413642 -8.494636 -2.252804 -8.494636 0 
C -8.494636 2.252804 -7.599588 4.413642 -6.006615 6.006615 
C -4.413642 7.599588 -2.252804 8.494636 0 8.494636 
z
" style="stroke: #000000"/>
    </defs>
    <g clip-path="url(#pf2299492d6)">
     <use xlink:href="#m5360d4da04" x="622.636364" y="305.469125" style="stroke: #000000"/>
    </g>
   </g>
   <g id="line2d_5">
    <defs>
     <path id="maa031abf31" d="M 0 7.998943 
C 2.121344 7.998943 4.15609 7.156124 5.656107 5.656107 
C 7.156124 4.15609 7.998943 2.121344 7.998943 0 
C 7.998943 -2.121344 7.156124 -4.15609 5.656107 -5.656107 
C 4.15609 -7.156124 2.121344 -7.998943 0 -7.998943 
C -2.121344 -7.998943 -4.15609 -7.156124 -5.656107 -5.656107 
C -7.156124 -4.15609 -7.998943 -2.121344 -7.998943 0 
C -7.998943 2.121344 -7.156124 4.15609 -5.656107 5.656107 
C -4.15609 7.156124 -2.121344 7.998943 0 7.998943 
z
" style="stroke: #000000"/>
    </defs>
    <g clip-path="url(#pf2299492d6)">
     <use xlink:href="#maa031abf31" x="115.363636" y="58.130875" style="stroke: #000000"/>
    </g>
   </g>
   <g id="line2d_6">
    <defs>
     <path id="m0227b6b7cc" d="M 0 7.737708 
C 2.052064 7.737708 4.020358 6.922415 5.471386 5.471386 
C 6.922415 4.020358 7.737708 2.052064 7.737708 0 
C 7.737708 -2.052064 6.922415 -4.020358 5.471386 -5.471386 
C 4.020358 -6.922415 2.052064 -7.737708 0 -7.737708 
C -2.052064 -7.737708 -4.020358 -6.922415 -5.471386 -5.471386 
C -6.922415 -4.020358 -7.737708 -2.052064 -7.737708 0 
C -7.737708 2.052064 -6.922415 4.020358 -5.471386 5.471386 
C -4.020358 6.922415 -2.052064 7.737708 0 7.737708 
z
" style="stroke: #000000"/>
    </defs>
    <g clip-path="url(#pf2299492d6)">
     <use xlink:href="#m0227b6b7cc" x="512.911648" y="233.870274" style="stroke: #000000"/>
    </g>
   </g>
   <g id="line2d_7">
    <defs>
     <path id="m5759bb543f" d="M 0 7.670394 
C 2.034212 7.670394 3.985383 6.862193 5.423788 5.423788 
C 6.862193 3.985383 7.670394 2.034212 7.670394 0 
C 7.670394 -2.034212 6.862193 -3.985383 5.423788 -5.423788 
C 3.985383 -6.862193 2.034212 -7.670394 0 -7.670394 
C -2.034212 -7.670394 -3.985383 -6.862193 -5.423788 -5.423788 
C -6.862193 -3.985383 -7.670394 -2.034212 -7.670394 0 
C -7.670394 2.034212 -6.862193 3.985383 -5.423788 5.423788 
C -3.985383 6.862193 -2.034212 7.670394 0 7.670394 
z
" style="stroke: #000000"/>
    </defs>
    <g clip-path="url(#pf2299492d6)">
     <use xlink:href="#m5759bb543f" x="202.406418" y="206.82362" style="stroke: #000000"/>
    </g>
   </g>
   <g id="line2d_8">
    <defs>
     <path id="m7fa33c03b0" d="M 0 7.670325 
C 2.034194 7.670325 3.985346 6.862131 5.423739 5.423739 
C 6.862131 3.985346 7.670325 2.034194 7.670325 0 
C 7.670325 -2.034194 6.862131 -3.985346 5.423739 -5.423739 
C 3.985346 -6.862131 2.034194 -7.670325 0 -7.670325 
C -2.034194 -7.670325 -3.985346 -6.862131 -5.423739 -5.423739 
C -6.862131 -3.985346 -7.670325 -2.034194 -7.670325 0 
C -7.670325 2.034194 -6.862131 3.985346 -5.423739 5.423739 
C -3.985346 6.862131 -2.034194 7.670325 0 7.670325 
z
" style="stroke: #000000"/>
    </defs>
    <g clip-path="url(#pf2299492d6)">
     <use xlink:href="#m7fa33c03b0" x="227.461067" y="144.093292" style="stroke: #000000"/>
    </g>
   </g>
   <g id="line2d_9">
    <defs>
     <path id="m3bac1377a6" d="M 0 7.486961 
C 1.985565 7.486961 3.890074 6.698087 5.294081 5.294081 
C 6.698087 3.890074 7.486961 1.985565 7.486961 0 
C 7.486961 -1.985565 6.698087 -3.890074 5.294081 -5.294081 
C 3.890074 -6.698087 1.985565 -7.486961 0 -7.486961 
C -1.985565 -7.486961 -3.890074 -6.698087 -5.294081 -5.294081 
C -6.698087 -3.890074 -7.486961 -1.985565 -7.486961 0 
C -7.486961 1.985565 -6.698087 3.890074 -5.294081 5.294081 
C -3.890074 6.698087 -1.985565 7.486961 0 7.486961 
z
" style="stroke: #000000"/>
    </defs>
    <g clip-path="url(#pf2299492d6)">
     <use xlink:href="#m3bac1377a6" x="494.198225" y="192.304695" style="stroke: #000000"/>
    </g>
   </g>
   <g id="line2d_10">
    <defs>
     <path id="me332ad9b50" d="M 0 7.405612 
C 1.963991 7.405612 3.847807 6.62531 5.236559 5.236559 
C 6.62531 3.847807 7.405612 1.963991 7.405612 0 
C 7.405612 -1.963991 6.62531 -3.847807 5.236559 -5.236559 
C 3.847807 -6.62531 1.963991 -7.405612 0 -7.405612 
C -1.963991 -7.405612 -3.847807 -6.62531 -5.236559 -5.236559 
C -6.62531 -3.847807 -7.405612 -1.963991 -7.405612 0 
C -7.405612 1.963991 -6.62531 3.847807 -5.236559 5.236559 
C -3.847807 6.62531 -1.963991 7.405612 0 7.405612 
z
" style="stroke: #000000"/>
    </defs>
    <g clip-path="url(#pf2299492d6)">
     <use xlink:href="#me332ad9b50" x="286.497929" y="204.947455" style="stroke: #000000"/>
    </g>
   </g>
  </g>
 </g>
 <defs>
  <clipPath id="pf2299492d6">
   <path d="M 90 317.836038 
L 90 45.763962 
L 648 45.763962 
L 648 317.836038 
L 90 317.836038 
"/>
  </clipPath>
 </defs>
</svg>
