<?xml version="1.0" encoding="utf-8" standalone="no"?>
<!DOCTYPE svg PUBLIC "-//W3C//DTD SVG 1.1//EN"
  "http://www.w3.org/Graphics/SVG/1.1/DTD/svg11.dtd">
<svg xmlns:xlink="http://www.w3.org/1999/xlink" width="720pt" height="360pt" viewBox="0 0 720 360" xmlns="http://www.w3.org/2000/svg" version="1.1">
 <metadata>
  <rdf:RDF xmlns:dc="http://purl.org/dc/elements/1.1/" xmlns:cc="http://creativecommons.org/ns#" xmlns:rdf="http://www.w3.org/1999/02/22-rdf-syntax-ns#">
   <cc:Work>
    <dc:type rdf:resource="http://purl.org/dc/dcmitype/StillImage"/>
    <dc:date>2023-11-30T21:30:45.159317</dc:date>
    <dc:format>image/svg+xml</dc:format>
    <dc:creator>
     <cc:Agent>
      <dc:title>Matplotlib v3.8.1, https://matplotlib.org/</dc:title>
     </cc:Agent>
    </dc:creator>
   </cc:Work>
  </rdf:RDF>
 </metadata>
 <defs>
  <style type="text/css">*{stroke-linejoin: round; stroke-linecap: butt}</style>
 </defs>
 <g id="figure_1">
  <g id="patch_1">
   <path d="M 0 360 
L 720 360 
L 720 0 
L 0 0 
z
" style="fill: #ffffff"/>
  </g>
  <g id="axes_1">
   <g id="patch_2">
    <path d="M 158.448439 320.4 
L 158.448439 43.2 
L 579.551561 43.2 
L 579.551561 320.4 
L 158.448439 320.4 
" style="fill: #ffffff"/>
   </g>
   <g id="line2d_1">
    <defs>
     <path id="mdc8ac62102" d="M 0 7.954747 
C 2.109624 7.954747 4.133127 7.116585 5.624856 5.624856 
C 7.116585 4.133127 7.954747 2.109624 7.954747 0 
C 7.954747 -2.109624 7.116585 -4.133127 5.624856 -5.624856 
C 4.133127 -7.116585 2.109624 -7.954747 0 -7.954747 
C -2.109624 -7.954747 -4.133127 -7.116585 -5.624856 -5.624856 
C -7.116585 -4.133127 -7.954747 -2.109624 -7.954747 0 
C -7.954747 2.109624 -7.116585 4.133127 -5.624856 5.624856 
C -4.133127 7.116585 -2.109624 7.954747 0 7.954747 
z
" style="stroke: #000000"/>
    </defs>
    <g clip-path="url(#p75e1aa125f)">
     <use xlink:href="#mdc8ac62102" x="548.343662" y="188.667676" style="stroke: #000000"/>
    </g>
   </g>
   <g id="line2d_2">
    <defs>
     <path id="m2e89b315b1" d="M 0 7.342785 
C 1.947329 7.342785 3.815163 6.569103 5.192133 5.192133 
C 6.569103 3.815163 7.342785 1.947329 7.342785 0 
C 7.342785 -1.947329 6.569103 -3.815163 5.192133 -5.192133 
C 3.815163 -6.569103 1.947329 -7.342785 0 -7.342785 
C -1.947329 -7.342785 -3.815163 -6.569103 -5.192133 -5.192133 
C -6.569103 -3.815163 -7.342785 -1.947329 -7.342785 0 
C -7.342785 1.947329 -6.569103 3.815163 -5.192133 5.192133 
C -3.815163 6.569103 -1.947329 7.342785 0 7.342785 
z
" style="stroke: #000000"/>
    </defs>
    <g clip-path="url(#p75e1aa125f)">
     <use xlink:href="#m2e89b315b1" x="550.114046" y="203.849233" style="stroke: #000000"/>
    </g>
   </g>
   <g id="line2d_3">
    <defs>
     <path id="m6d34481923" d="M 0 7.283978 
C 1.931734 7.283978 3.784608 6.516492 5.15055 5.15055 
C 6.516492 3.784608 7.283978 1.931734 7.283978 0 
C 7.283978 -1.931734 6.516492 -3.784608 5.15055 -5.15055 
C 3.784608 -6.516492 1.931734 -7.283978 0 -7.283978 
C -1.931734 -7.283978 -3.784608 -6.516492 -5.15055 -5.15055 
C -6.516492 -3.784608 -7.283978 -1.931734 -7.283978 0 
C -7.283978 1.931734 -6.516492 3.784608 -5.15055 5.15055 
C -3.784608 6.516492 -1.931734 7.283978 0 7.283978 
z
" style="stroke: #000000"/>
    </defs>
    <g clip-path="url(#p75e1aa125f)">
     <use xlink:href="#m6d34481923" x="241.363125" y="86.069028" style="stroke: #000000"/>
    </g>
   </g>
   <g id="line2d_4">
    <defs>
     <path id="m0f2e470fb0" d="M 0 7.276275 
C 1.929691 7.276275 3.780606 6.5096 5.145103 5.145103 
C 6.5096 3.780606 7.276275 1.929691 7.276275 0 
C 7.276275 -1.929691 6.5096 -3.780606 5.145103 -5.145103 
C 3.780606 -6.5096 1.929691 -7.276275 0 -7.276275 
C -1.929691 -7.276275 -3.780606 -6.5096 -5.145103 -5.145103 
C -6.5096 -3.780606 -7.276275 -1.929691 -7.276275 0 
C -7.276275 1.929691 -6.5096 3.780606 -5.145103 5.145103 
C -3.780606 6.5096 -1.929691 7.276275 0 7.276275 
z
" style="stroke: #000000"/>
    </defs>
    <g clip-path="url(#p75e1aa125f)">
     <use xlink:href="#m0f2e470fb0" x="492.350302" y="147.24226" style="stroke: #000000"/>
    </g>
   </g>
   <g id="line2d_5">
    <defs>
     <path id="mcff8d49809" d="M 0 7.107994 
C 1.885062 7.107994 3.693171 6.359051 5.026111 5.026111 
C 6.359051 3.693171 7.107994 1.885062 7.107994 0 
C 7.107994 -1.885062 6.359051 -3.693171 5.026111 -5.026111 
C 3.693171 -6.359051 1.885062 -7.107994 0 -7.107994 
C -1.885062 -7.107994 -3.693171 -6.359051 -5.026111 -5.026111 
C -6.359051 -3.693171 -7.107994 -1.885062 -7.107994 0 
C -7.107994 1.885062 -6.359051 3.693171 -5.026111 5.026111 
C -3.693171 6.359051 -1.885062 7.107994 0 7.107994 
z
" style="stroke: #000000"/>
    </defs>
    <g clip-path="url(#p75e1aa125f)">
     <use xlink:href="#mcff8d49809" x="560.41051" y="191.674543" style="stroke: #000000"/>
    </g>
   </g>
   <g id="line2d_6">
    <defs>
     <path id="m515862ef3e" d="M 0 6.549509 
C 1.73695 6.549509 3.402993 5.859412 4.631203 4.631203 
C 5.859412 3.402993 6.549509 1.73695 6.549509 0 
C 6.549509 -1.73695 5.859412 -3.402993 4.631203 -4.631203 
C 3.402993 -5.859412 1.73695 -6.549509 0 -6.549509 
C -1.73695 -6.549509 -3.402993 -5.859412 -4.631203 -4.631203 
C -5.859412 -3.402993 -6.549509 -1.73695 -6.549509 0 
C -6.549509 1.73695 -5.859412 3.402993 -4.631203 4.631203 
C -3.402993 5.859412 -1.73695 6.549509 0 6.549509 
z
" style="stroke: #000000"/>
    </defs>
    <g clip-path="url(#p75e1aa125f)">
     <use xlink:href="#m515862ef3e" x="540.923618" y="192.488514" style="stroke: #000000"/>
    </g>
   </g>
   <g id="line2d_7">
    <defs>
     <path id="m521db1c415" d="M 0 6.261536 
C 1.660579 6.261536 3.253368 5.601781 4.427575 4.427575 
C 5.601781 3.253368 6.261536 1.660579 6.261536 0 
C 6.261536 -1.660579 5.601781 -3.253368 4.427575 -4.427575 
C 3.253368 -5.601781 1.660579 -6.261536 0 -6.261536 
C -1.660579 -6.261536 -3.253368 -5.601781 -4.427575 -4.427575 
C -5.601781 -3.253368 -6.261536 -1.660579 -6.261536 0 
C -6.261536 1.660579 -5.601781 3.253368 -4.427575 4.427575 
C -3.253368 5.601781 -1.660579 6.261536 0 6.261536 
z
" style="stroke: #000000"/>
    </defs>
    <g clip-path="url(#p75e1aa125f)">
     <use xlink:href="#m521db1c415" x="286.652724" y="55.8" style="stroke: #000000"/>
    </g>
   </g>
   <g id="line2d_8">
    <defs>
     <path id="mb6ac228506" d="M 0 6.107311 
C 1.619678 6.107311 3.173236 5.463806 4.318521 4.318521 
C 5.463806 3.173236 6.107311 1.619678 6.107311 0 
C 6.107311 -1.619678 5.463806 -3.173236 4.318521 -4.318521 
C 3.173236 -5.463806 1.619678 -6.107311 0 -6.107311 
C -1.619678 -6.107311 -3.173236 -5.463806 -4.318521 -4.318521 
C -5.463806 -3.173236 -6.107311 -1.619678 -6.107311 0 
C -6.107311 1.619678 -5.463806 3.173236 -4.318521 4.318521 
C -3.173236 5.463806 -1.619678 6.107311 0 6.107311 
z
" style="stroke: #000000"/>
    </defs>
    <g clip-path="url(#p75e1aa125f)">
     <use xlink:href="#mb6ac228506" x="184.531639" y="148.605414" style="stroke: #000000"/>
    </g>
   </g>
   <g id="line2d_9">
    <defs>
     <path id="m855664f78a" d="M 0 5.972356 
C 1.583887 5.972356 3.103116 5.343071 4.223093 4.223093 
C 5.343071 3.103116 5.972356 1.583887 5.972356 0 
C 5.972356 -1.583887 5.343071 -3.103116 4.223093 -4.223093 
C 3.103116 -5.343071 1.583887 -5.972356 0 -5.972356 
C -1.583887 -5.972356 -3.103116 -5.343071 -4.223093 -4.223093 
C -5.343071 -3.103116 -5.972356 -1.583887 -5.972356 0 
C -5.972356 1.583887 -5.343071 3.103116 -4.223093 4.223093 
C -3.103116 5.343071 -1.583887 5.972356 0 5.972356 
z
" style="stroke: #000000"/>
    </defs>
    <g clip-path="url(#p75e1aa125f)">
     <use xlink:href="#m855664f78a" x="177.58949" y="307.8" style="stroke: #000000"/>
    </g>
   </g>
   <g id="line2d_10">
    <defs>
     <path id="md6c8395f12" d="M 0 5.817632 
C 1.542854 5.817632 3.022725 5.20465 4.113687 4.113687 
C 5.20465 3.022725 5.817632 1.542854 5.817632 0 
C 5.817632 -1.542854 5.20465 -3.022725 4.113687 -4.113687 
C 3.022725 -5.20465 1.542854 -5.817632 0 -5.817632 
C -1.542854 -5.817632 -3.022725 -5.20465 -4.113687 -4.113687 
C -5.20465 -3.022725 -5.817632 -1.542854 -5.817632 0 
C -5.817632 1.542854 -5.20465 3.022725 -4.113687 4.113687 
C -3.022725 5.20465 -1.542854 5.817632 0 5.817632 
z
" style="stroke: #000000"/>
    </defs>
    <g clip-path="url(#p75e1aa125f)">
     <use xlink:href="#md6c8395f12" x="435.484422" y="108.606627" style="stroke: #000000"/>
    </g>
   </g>
  </g>
 </g>
 <defs>
  <clipPath id="p75e1aa125f">
   <path d="M 158.448439 320.4 
L 158.448439 43.2 
L 579.551561 43.2 
L 579.551561 320.4 
L 158.448439 320.4 
"/>
  </clipPath>
 </defs>
</svg>
