<?xml version="1.0" encoding="utf-8" standalone="no"?>
<!DOCTYPE svg PUBLIC "-//W3C//DTD SVG 1.1//EN"
  "http://www.w3.org/Graphics/SVG/1.1/DTD/svg11.dtd">
<svg xmlns:xlink="http://www.w3.org/1999/xlink" width="720pt" height="360pt" viewBox="0 0 720 360" xmlns="http://www.w3.org/2000/svg" version="1.1">
 <metadata>
  <rdf:RDF xmlns:dc="http://purl.org/dc/elements/1.1/" xmlns:cc="http://creativecommons.org/ns#" xmlns:rdf="http://www.w3.org/1999/02/22-rdf-syntax-ns#">
   <cc:Work>
    <dc:type rdf:resource="http://purl.org/dc/dcmitype/StillImage"/>
    <dc:date>2023-11-30T21:30:45.199631</dc:date>
    <dc:format>image/svg+xml</dc:format>
    <dc:creator>
     <cc:Agent>
      <dc:title>Matplotlib v3.8.1, https://matplotlib.org/</dc:title>
     </cc:Agent>
    </dc:creator>
   </cc:Work>
  </rdf:RDF>
 </metadata>
 <defs>
  <style type="text/css">*{stroke-linejoin: round; stroke-linecap: butt}</style>
 </defs>
 <g id="figure_1">
  <g id="patch_1">
   <path d="M 0 360 
L 720 360 
L 720 0 
L 0 0 
z
" style="fill: #ffffff"/>
  </g>
  <g id="axes_1">
   <g id="patch_2">
    <path d="M 315.403172 320.4 
L 315.403172 43.2 
L 422.596828 43.2 
L 422.596828 320.4 
L 315.403172 320.4 
" style="fill: #ffffff"/>
   </g>
   <g id="line2d_1">
    <defs>
     <path id="m9a18be1e4f" d="M 0 10.452412 
C 2.772012 10.452412 5.430863 9.35108 7.390971 7.390971 
C 9.35108 5.430863 10.452412 2.772012 10.452412 0 
C 10.452412 -2.772012 9.35108 -5.430863 7.390971 -7.390971 
C 5.430863 -9.35108 2.772012 -10.452412 0 -10.452412 
C -2.772012 -10.452412 -5.430863 -9.35108 -7.390971 -7.390971 
C -9.35108 -5.430863 -10.452412 -2.772012 -10.452412 0 
C -10.452412 2.772012 -9.35108 5.430863 -7.390971 7.390971 
C -5.430863 9.35108 -2.772012 10.452412 0 10.452412 
z
" style="stroke: #000000"/>
    </defs>
    <g clip-path="url(#p85252d0db8)">
     <use xlink:href="#m9a18be1e4f" x="407.646545" y="271.126495" style="stroke: #000000"/>
    </g>
   </g>
   <g id="line2d_2">
    <defs>
     <path id="mc4a5f81455" d="M 0 10.24301 
C 2.716478 10.24301 5.322062 9.163742 7.242902 7.242902 
C 9.163742 5.322062 10.24301 2.716478 10.24301 0 
C 10.24301 -2.716478 9.163742 -5.322062 7.242902 -7.242902 
C 5.322062 -9.163742 2.716478 -10.24301 0 -10.24301 
C -2.716478 -10.24301 -5.322062 -9.163742 -7.242902 -7.242902 
C -9.163742 -5.322062 -10.24301 -2.716478 -10.24301 0 
C -10.24301 2.716478 -9.163742 5.322062 -7.242902 7.242902 
C -5.322062 9.163742 -2.716478 10.24301 0 10.24301 
z
" style="stroke: #000000"/>
    </defs>
    <g clip-path="url(#p85252d0db8)">
     <use xlink:href="#mc4a5f81455" x="327.868224" y="207.895524" style="stroke: #000000"/>
    </g>
   </g>
   <g id="line2d_3">
    <defs>
     <path id="m0dc53560b4" d="M 0 9.22998 
C 2.447819 9.22998 4.795712 8.257451 6.526581 6.526581 
C 8.257451 4.795712 9.22998 2.447819 9.22998 0 
C 9.22998 -2.447819 8.257451 -4.795712 6.526581 -6.526581 
C 4.795712 -8.257451 2.447819 -9.22998 0 -9.22998 
C -2.447819 -9.22998 -4.795712 -8.257451 -6.526581 -6.526581 
C -8.257451 -4.795712 -9.22998 -2.447819 -9.22998 0 
C -9.22998 2.447819 -8.257451 4.795712 -6.526581 6.526581 
C -4.795712 8.257451 -2.447819 9.22998 0 9.22998 
z
" style="stroke: #000000"/>
    </defs>
    <g clip-path="url(#p85252d0db8)">
     <use xlink:href="#m0dc53560b4" x="371.745658" y="55.8" style="stroke: #000000"/>
    </g>
   </g>
   <g id="line2d_4">
    <defs>
     <path id="mc020a8c784" d="M 0 8.914737 
C 2.364216 8.914737 4.631918 7.975425 6.303671 6.303671 
C 7.975425 4.631918 8.914737 2.364216 8.914737 0 
C 8.914737 -2.364216 7.975425 -4.631918 6.303671 -6.303671 
C 4.631918 -7.975425 2.364216 -8.914737 0 -8.914737 
C -2.364216 -8.914737 -4.631918 -7.975425 -6.303671 -6.303671 
C -7.975425 -4.631918 -8.914737 -2.364216 -8.914737 0 
C -8.914737 2.364216 -7.975425 4.631918 -6.303671 6.303671 
C -4.631918 7.975425 -2.364216 8.914737 0 8.914737 
z
" style="stroke: #000000"/>
    </defs>
    <g clip-path="url(#p85252d0db8)">
     <use xlink:href="#mc020a8c784" x="320.275611" y="307.8" style="stroke: #000000"/>
    </g>
   </g>
   <g id="line2d_5">
    <defs>
     <path id="mb90a1a641a" d="M 0 8.815322 
C 2.337851 8.815322 4.580264 7.886484 6.233374 6.233374 
C 7.886484 4.580264 8.815322 2.337851 8.815322 0 
C 8.815322 -2.337851 7.886484 -4.580264 6.233374 -6.233374 
C 4.580264 -7.886484 2.337851 -8.815322 0 -8.815322 
C -2.337851 -8.815322 -4.580264 -7.886484 -6.233374 -6.233374 
C -7.886484 -4.580264 -8.815322 -2.337851 -8.815322 0 
C -8.815322 2.337851 -7.886484 4.580264 -6.233374 6.233374 
C -4.580264 7.886484 -2.337851 8.815322 0 8.815322 
z
" style="stroke: #000000"/>
    </defs>
    <g clip-path="url(#p85252d0db8)">
     <use xlink:href="#mb90a1a641a" x="400.306535" y="263.220253" style="stroke: #000000"/>
    </g>
   </g>
   <g id="line2d_6">
    <defs>
     <path id="m6f1e055ee5" d="M 0 8.624589 
C 2.287268 8.624589 4.481163 7.715848 6.098505 6.098505 
C 7.715848 4.481163 8.624589 2.287268 8.624589 0 
C 8.624589 -2.287268 7.715848 -4.481163 6.098505 -6.098505 
C 4.481163 -7.715848 2.287268 -8.624589 0 -8.624589 
C -2.287268 -8.624589 -4.481163 -7.715848 -6.098505 -6.098505 
C -7.715848 -4.481163 -8.624589 -2.287268 -8.624589 0 
C -8.624589 2.287268 -7.715848 4.481163 -6.098505 6.098505 
C -4.481163 7.715848 -2.287268 8.624589 0 8.624589 
z
" style="stroke: #000000"/>
    </defs>
    <g clip-path="url(#p85252d0db8)">
     <use xlink:href="#m6f1e055ee5" x="417.724389" y="264.779566" style="stroke: #000000"/>
    </g>
   </g>
   <g id="line2d_7">
    <defs>
     <path id="m60c6d53294" d="M 0 8.567925 
C 2.27224 8.567925 4.451721 7.665154 6.058438 6.058438 
C 7.665154 4.451721 8.567925 2.27224 8.567925 0 
C 8.567925 -2.27224 7.665154 -4.451721 6.058438 -6.058438 
C 4.451721 -7.665154 2.27224 -8.567925 0 -8.567925 
C -2.27224 -8.567925 -4.451721 -7.665154 -6.058438 -6.058438 
C -7.665154 -4.451721 -8.567925 -2.27224 -8.567925 0 
C -8.567925 2.27224 -7.665154 4.451721 -6.058438 6.058438 
C -4.451721 7.665154 -2.27224 8.567925 0 8.567925 
z
" style="stroke: #000000"/>
    </defs>
    <g clip-path="url(#p85252d0db8)">
     <use xlink:href="#m60c6d53294" x="412.658362" y="269.585341" style="stroke: #000000"/>
    </g>
   </g>
   <g id="line2d_8">
    <defs>
     <path id="m156ae2e54b" d="M 0 8.562909 
C 2.27091 8.562909 4.449115 7.660666 6.054891 6.054891 
C 7.660666 4.449115 8.562909 2.27091 8.562909 0 
C 8.562909 -2.27091 7.660666 -4.449115 6.054891 -6.054891 
C 4.449115 -7.660666 2.27091 -8.562909 0 -8.562909 
C -2.27091 -8.562909 -4.449115 -7.660666 -6.054891 -6.054891 
C -7.660666 -4.449115 -8.562909 -2.27091 -8.562909 0 
C -8.562909 2.27091 -7.660666 4.449115 -6.054891 6.054891 
C -4.449115 7.660666 -2.27091 8.562909 0 8.562909 
z
" style="stroke: #000000"/>
    </defs>
    <g clip-path="url(#p85252d0db8)">
     <use xlink:href="#m156ae2e54b" x="348.983467" y="296.254025" style="stroke: #000000"/>
    </g>
   </g>
   <g id="line2d_9">
    <defs>
     <path id="mafdefaae59" d="M 0 8.541703 
C 2.265286 8.541703 4.438097 7.641696 6.039896 6.039896 
C 7.641696 4.438097 8.541703 2.265286 8.541703 0 
C 8.541703 -2.265286 7.641696 -4.438097 6.039896 -6.039896 
C 4.438097 -7.641696 2.265286 -8.541703 0 -8.541703 
C -2.265286 -8.541703 -4.438097 -7.641696 -6.039896 -6.039896 
C -7.641696 -4.438097 -8.541703 -2.265286 -8.541703 0 
C -8.541703 2.265286 -7.641696 4.438097 -6.039896 6.039896 
C -4.438097 7.641696 -2.265286 8.541703 0 8.541703 
z
" style="stroke: #000000"/>
    </defs>
    <g clip-path="url(#p85252d0db8)">
     <use xlink:href="#mafdefaae59" x="320.418678" y="306.205327" style="stroke: #000000"/>
    </g>
   </g>
   <g id="line2d_10">
    <defs>
     <path id="m3d761ed454" d="M 0 8.536406 
C 2.263881 8.536406 4.435345 7.636957 6.036151 6.036151 
C 7.636957 4.435345 8.536406 2.263881 8.536406 0 
C 8.536406 -2.263881 7.636957 -4.435345 6.036151 -6.036151 
C 4.435345 -7.636957 2.263881 -8.536406 0 -8.536406 
C -2.263881 -8.536406 -4.435345 -7.636957 -6.036151 -6.036151 
C -7.636957 -4.435345 -8.536406 -2.263881 -8.536406 0 
C -8.536406 2.263881 -7.636957 4.435345 -6.036151 6.036151 
C -4.435345 7.636957 -2.263881 8.536406 0 8.536406 
z
" style="stroke: #000000"/>
    </defs>
    <g clip-path="url(#p85252d0db8)">
     <use xlink:href="#m3d761ed454" x="325.435525" y="235.059243" style="stroke: #000000"/>
    </g>
   </g>
  </g>
 </g>
 <defs>
  <clipPath id="p85252d0db8">
   <path d="M 315.403172 320.4 
L 315.403172 43.2 
L 422.596828 43.2 
L 422.596828 320.4 
L 315.403172 320.4 
"/>
  </clipPath>
 </defs>
</svg>
