<?xml version="1.0" encoding="utf-8" standalone="no"?>
<!DOCTYPE svg PUBLIC "-//W3C//DTD SVG 1.1//EN"
  "http://www.w3.org/Graphics/SVG/1.1/DTD/svg11.dtd">
<svg xmlns:xlink="http://www.w3.org/1999/xlink" width="720pt" height="360pt" viewBox="0 0 720 360" xmlns="http://www.w3.org/2000/svg" version="1.1">
 <metadata>
  <rdf:RDF xmlns:dc="http://purl.org/dc/elements/1.1/" xmlns:cc="http://creativecommons.org/ns#" xmlns:rdf="http://www.w3.org/1999/02/22-rdf-syntax-ns#">
   <cc:Work>
    <dc:type rdf:resource="http://purl.org/dc/dcmitype/StillImage"/>
    <dc:date>2023-11-30T21:30:52.529201</dc:date>
    <dc:format>image/svg+xml</dc:format>
    <dc:creator>
     <cc:Agent>
      <dc:title>Matplotlib v3.8.1, https://matplotlib.org/</dc:title>
     </cc:Agent>
    </dc:creator>
   </cc:Work>
  </rdf:RDF>
 </metadata>
 <defs>
  <style type="text/css">*{stroke-linejoin: round; stroke-linecap: butt}</style>
 </defs>
 <g id="figure_1">
  <g id="patch_1">
   <path d="M 0 360 
L 720 360 
L 720 0 
L 0 0 
z
" style="fill: #ffffff"/>
  </g>
  <g id="axes_1">
   <g id="patch_2">
    <path d="M 278.278414 320.4 
L 278.278414 43.2 
L 459.721586 43.2 
L 459.721586 320.4 
L 278.278414 320.4 
" style="fill: #ffffff"/>
   </g>
   <g id="line2d_1">
    <defs>
     <path id="m4a5b1a3bd3" d="M 0 6.926606 
C 1.836957 6.926606 3.598925 6.196775 4.89785 4.89785 
C 6.196775 3.598925 6.926606 1.836957 6.926606 0 
C 6.926606 -1.836957 6.196775 -3.598925 4.89785 -4.89785 
C 3.598925 -6.196775 1.836957 -6.926606 0 -6.926606 
C -1.836957 -6.926606 -3.598925 -6.196775 -4.89785 -4.89785 
C -6.196775 -3.598925 -6.926606 -1.836957 -6.926606 0 
C -6.926606 1.836957 -6.196775 3.598925 -4.89785 4.89785 
C -3.598925 6.196775 -1.836957 6.926606 0 6.926606 
z
" style="stroke: #000000"/>
    </defs>
    <g clip-path="url(#p79f6620dc3)">
     <use xlink:href="#m4a5b1a3bd3" x="306.602705" y="230.753205" style="stroke: #000000"/>
    </g>
   </g>
   <g id="line2d_2">
    <defs>
     <path id="mfb8808675f" d="M 0 6.176022 
C 1.6379 6.176022 3.208937 5.525277 4.367107 4.367107 
C 5.525277 3.208937 6.176022 1.6379 6.176022 0 
C 6.176022 -1.6379 5.525277 -3.208937 4.367107 -4.367107 
C 3.208937 -5.525277 1.6379 -6.176022 0 -6.176022 
C -1.6379 -6.176022 -3.208937 -5.525277 -4.367107 -4.367107 
C -5.525277 -3.208937 -6.176022 -1.6379 -6.176022 0 
C -6.176022 1.6379 -5.525277 3.208937 -4.367107 4.367107 
C -3.208937 5.525277 -1.6379 6.176022 0 6.176022 
z
" style="stroke: #000000"/>
    </defs>
    <g clip-path="url(#p79f6620dc3)">
     <use xlink:href="#mfb8808675f" x="286.525831" y="162.243174" style="stroke: #000000"/>
    </g>
   </g>
   <g id="line2d_3">
    <defs>
     <path id="mca7fa4ef3c" d="M 0 6.053935 
C 1.605522 6.053935 3.145503 5.416055 4.280779 4.280779 
C 5.416055 3.145503 6.053935 1.605522 6.053935 0 
C 6.053935 -1.605522 5.416055 -3.145503 4.280779 -4.280779 
C 3.145503 -5.416055 1.605522 -6.053935 0 -6.053935 
C -1.605522 -6.053935 -3.145503 -5.416055 -4.280779 -4.280779 
C -5.416055 -3.145503 -6.053935 -1.605522 -6.053935 0 
C -6.053935 1.605522 -5.416055 3.145503 -4.280779 4.280779 
C -3.145503 5.416055 -1.605522 6.053935 0 6.053935 
z
" style="stroke: #000000"/>
    </defs>
    <g clip-path="url(#p79f6620dc3)">
     <use xlink:href="#mca7fa4ef3c" x="313.010255" y="99.418425" style="stroke: #000000"/>
    </g>
   </g>
   <g id="line2d_4">
    <defs>
     <path id="mf09eca38f1" d="M 0 5.827542 
C 1.545482 5.827542 3.027873 5.213515 4.120694 4.120694 
C 5.213515 3.027873 5.827542 1.545482 5.827542 0 
C 5.827542 -1.545482 5.213515 -3.027873 4.120694 -4.120694 
C 3.027873 -5.213515 1.545482 -5.827542 0 -5.827542 
C -1.545482 -5.827542 -3.027873 -5.213515 -4.120694 -4.120694 
C -5.213515 -3.027873 -5.827542 -1.545482 -5.827542 0 
C -5.827542 1.545482 -5.213515 3.027873 -4.120694 4.120694 
C -3.027873 5.213515 -1.545482 5.827542 0 5.827542 
z
" style="stroke: #000000"/>
    </defs>
    <g clip-path="url(#p79f6620dc3)">
     <use xlink:href="#mf09eca38f1" x="365.086515" y="307.8" style="stroke: #000000"/>
    </g>
   </g>
   <g id="line2d_5">
    <defs>
     <path id="m8d26854e8d" d="M 0 5.776815 
C 1.532029 5.776815 3.001517 5.168133 4.084825 4.084825 
C 5.168133 3.001517 5.776815 1.532029 5.776815 0 
C 5.776815 -1.532029 5.168133 -3.001517 4.084825 -4.084825 
C 3.001517 -5.168133 1.532029 -5.776815 0 -5.776815 
C -1.532029 -5.776815 -3.001517 -5.168133 -4.084825 -4.084825 
C -5.168133 -3.001517 -5.776815 -1.532029 -5.776815 0 
C -5.776815 1.532029 -5.168133 3.001517 -4.084825 4.084825 
C -3.001517 5.168133 -1.532029 5.776815 0 5.776815 
z
" style="stroke: #000000"/>
    </defs>
    <g clip-path="url(#p79f6620dc3)">
     <use xlink:href="#m8d26854e8d" x="294.855564" y="114.052466" style="stroke: #000000"/>
    </g>
   </g>
   <g id="line2d_6">
    <defs>
     <path id="ma47016439a" d="M 0 5.653885 
C 1.499428 5.653885 2.937645 5.058156 3.9979 3.9979 
C 5.058156 2.937645 5.653885 1.499428 5.653885 0 
C 5.653885 -1.499428 5.058156 -2.937645 3.9979 -3.9979 
C 2.937645 -5.058156 1.499428 -5.653885 0 -5.653885 
C -1.499428 -5.653885 -2.937645 -5.058156 -3.9979 -3.9979 
C -5.058156 -2.937645 -5.653885 -1.499428 -5.653885 0 
C -5.653885 1.499428 -5.058156 2.937645 -3.9979 3.9979 
C -2.937645 5.058156 -1.499428 5.653885 0 5.653885 
z
" style="stroke: #000000"/>
    </defs>
    <g clip-path="url(#p79f6620dc3)">
     <use xlink:href="#ma47016439a" x="294.500091" y="201.032759" style="stroke: #000000"/>
    </g>
   </g>
   <g id="line2d_7">
    <defs>
     <path id="m90e82d1623" d="M 0 5.477825 
C 1.452736 5.477825 2.846168 4.900647 3.873407 3.873407 
C 4.900647 2.846168 5.477825 1.452736 5.477825 0 
C 5.477825 -1.452736 4.900647 -2.846168 3.873407 -3.873407 
C 2.846168 -4.900647 1.452736 -5.477825 0 -5.477825 
C -1.452736 -5.477825 -2.846168 -4.900647 -3.873407 -3.873407 
C -4.900647 -2.846168 -5.477825 -1.452736 -5.477825 0 
C -5.477825 1.452736 -4.900647 2.846168 -3.873407 3.873407 
C -2.846168 4.900647 -1.452736 5.477825 0 5.477825 
z
" style="stroke: #000000"/>
    </defs>
    <g clip-path="url(#p79f6620dc3)">
     <use xlink:href="#m90e82d1623" x="451.474169" y="196.088687" style="stroke: #000000"/>
    </g>
   </g>
   <g id="line2d_8">
    <defs>
     <path id="m716b55b292" d="M 0 5.229716 
C 1.386937 5.229716 2.717255 4.67868 3.697968 3.697968 
C 4.67868 2.717255 5.229716 1.386937 5.229716 0 
C 5.229716 -1.386937 4.67868 -2.717255 3.697968 -3.697968 
C 2.717255 -4.67868 1.386937 -5.229716 0 -5.229716 
C -1.386937 -5.229716 -2.717255 -4.67868 -3.697968 -3.697968 
C -4.67868 -2.717255 -5.229716 -1.386937 -5.229716 0 
C -5.229716 1.386937 -4.67868 2.717255 -3.697968 3.697968 
C -2.717255 4.67868 -1.386937 5.229716 0 5.229716 
z
" style="stroke: #000000"/>
    </defs>
    <g clip-path="url(#p79f6620dc3)">
     <use xlink:href="#m716b55b292" x="302.448535" y="55.8" style="stroke: #000000"/>
    </g>
   </g>
   <g id="line2d_9">
    <defs>
     <path id="ma2ff7b703d" d="M 0 5.197767 
C 1.378464 5.197767 2.700655 4.650098 3.675376 3.675376 
C 4.650098 2.700655 5.197767 1.378464 5.197767 0 
C 5.197767 -1.378464 4.650098 -2.700655 3.675376 -3.675376 
C 2.700655 -4.650098 1.378464 -5.197767 0 -5.197767 
C -1.378464 -5.197767 -2.700655 -4.650098 -3.675376 -3.675376 
C -4.650098 -2.700655 -5.197767 -1.378464 -5.197767 0 
C -5.197767 1.378464 -4.650098 2.700655 -3.675376 3.675376 
C -2.700655 4.650098 -1.378464 5.197767 0 5.197767 
z
" style="stroke: #000000"/>
    </defs>
    <g clip-path="url(#p79f6620dc3)">
     <use xlink:href="#ma2ff7b703d" x="364.932847" y="303.701958" style="stroke: #000000"/>
    </g>
   </g>
   <g id="line2d_10">
    <defs>
     <path id="m3f8295e9b5" d="M 0 5.177125 
C 1.37299 5.177125 2.68993 4.63163 3.66078 3.66078 
C 4.63163 2.68993 5.177125 1.37299 5.177125 0 
C 5.177125 -1.37299 4.63163 -2.68993 3.66078 -3.66078 
C 2.68993 -4.63163 1.37299 -5.177125 0 -5.177125 
C -1.37299 -5.177125 -2.68993 -4.63163 -3.66078 -3.66078 
C -4.63163 -2.68993 -5.177125 -1.37299 -5.177125 0 
C -5.177125 1.37299 -4.63163 2.68993 -3.66078 3.66078 
C -2.68993 4.63163 -1.37299 5.177125 0 5.177125 
z
" style="stroke: #000000"/>
    </defs>
    <g clip-path="url(#p79f6620dc3)">
     <use xlink:href="#m3f8295e9b5" x="327.727481" y="280.466867" style="stroke: #000000"/>
    </g>
   </g>
  </g>
 </g>
 <defs>
  <clipPath id="p79f6620dc3">
   <path d="M 278.278414 320.4 
L 278.278414 43.2 
L 459.721586 43.2 
L 459.721586 320.4 
L 278.278414 320.4 
"/>
  </clipPath>
 </defs>
</svg>
