<?xml version="1.0" encoding="utf-8" standalone="no"?>
<!DOCTYPE svg PUBLIC "-//W3C//DTD SVG 1.1//EN"
  "http://www.w3.org/Graphics/SVG/1.1/DTD/svg11.dtd">
<svg xmlns:xlink="http://www.w3.org/1999/xlink" width="572.4pt" height="96.885191pt" viewBox="0 0 572.4 96.885191" xmlns="http://www.w3.org/2000/svg" version="1.1">
 <metadata>
  <rdf:RDF xmlns:dc="http://purl.org/dc/elements/1.1/" xmlns:cc="http://creativecommons.org/ns#" xmlns:rdf="http://www.w3.org/1999/02/22-rdf-syntax-ns#">
   <cc:Work>
    <dc:type rdf:resource="http://purl.org/dc/dcmitype/StillImage"/>
    <dc:date>2023-11-30T20:45:51.554413</dc:date>
    <dc:format>image/svg+xml</dc:format>
    <dc:creator>
     <cc:Agent>
      <dc:title>Matplotlib v3.8.1, https://matplotlib.org/</dc:title>
     </cc:Agent>
    </dc:creator>
   </cc:Work>
  </rdf:RDF>
 </metadata>
 <defs>
  <style type="text/css">*{stroke-linejoin: round; stroke-linecap: butt}</style>
 </defs>
 <g id="figure_1">
  <g id="patch_1">
   <path d="M 0 96.885191 
L 572.4 96.885191 
L 572.4 0 
L 0 0 
z
" style="fill: #ffffff"/>
  </g>
  <g id="axes_1">
   <g id="patch_2">
    <path d="M 7.2 89.685191 
L 7.2 7.2 
L 565.2 7.2 
L 565.2 89.685191 
L 7.2 89.685191 
" style="fill: #ffffff"/>
   </g>
   <g id="line2d_1">
    <defs>
     <path id="m3b04d3e9f0" d="M 0 3 
C 0.795609 3 1.55874 2.683901 2.12132 2.12132 
C 2.683901 1.55874 3 0.795609 3 0 
C 3 -0.795609 2.683901 -1.55874 2.12132 -2.12132 
C 1.55874 -2.683901 0.795609 -3 0 -3 
C -0.795609 -3 -1.55874 -2.683901 -2.12132 -2.12132 
C -2.683901 -1.55874 -3 -0.795609 -3 0 
C -3 0.795609 -2.683901 1.55874 -2.12132 2.12132 
C -1.55874 2.683901 -0.795609 3 0 3 
z
" style="stroke: #000000"/>
    </defs>
    <g clip-path="url(#pd8f7feb81e)">
     <use xlink:href="#m3b04d3e9f0" x="43.801429" y="37.34848" style="stroke: #000000"/>
    </g>
   </g>
   <g id="line2d_2">
    <g clip-path="url(#pd8f7feb81e)">
     <use xlink:href="#m3b04d3e9f0" x="49.562232" y="71.672319" style="stroke: #000000"/>
    </g>
   </g>
   <g id="line2d_3">
    <g clip-path="url(#pd8f7feb81e)">
     <use xlink:href="#m3b04d3e9f0" x="43.02044" y="29.177674" style="stroke: #000000"/>
    </g>
   </g>
   <g id="line2d_4">
    <g clip-path="url(#pd8f7feb81e)">
     <use xlink:href="#m3b04d3e9f0" x="63.93606" y="34.385102" style="stroke: #000000"/>
    </g>
   </g>
   <g id="line2d_5">
    <g clip-path="url(#pd8f7feb81e)">
     <use xlink:href="#m3b04d3e9f0" x="260.79973" y="10.949327" style="stroke: #000000"/>
    </g>
   </g>
   <g id="line2d_6">
    <g clip-path="url(#pd8f7feb81e)">
     <use xlink:href="#m3b04d3e9f0" x="92.949413" y="55.053021" style="stroke: #000000"/>
    </g>
   </g>
   <g id="line2d_7">
    <g clip-path="url(#pd8f7feb81e)">
     <use xlink:href="#m3b04d3e9f0" x="37.744736" y="43.10609" style="stroke: #000000"/>
    </g>
   </g>
   <g id="line2d_8">
    <g clip-path="url(#pd8f7feb81e)">
     <use xlink:href="#m3b04d3e9f0" x="539.836364" y="63.741549" style="stroke: #000000"/>
    </g>
   </g>
   <g id="line2d_9">
    <g clip-path="url(#pd8f7feb81e)">
     <use xlink:href="#m3b04d3e9f0" x="32.563636" y="85.935864" style="stroke: #000000"/>
    </g>
   </g>
   <g id="line2d_10">
    <g clip-path="url(#pd8f7feb81e)">
     <use xlink:href="#m3b04d3e9f0" x="274.219462" y="38.376674" style="stroke: #000000"/>
    </g>
   </g>
  </g>
 </g>
 <defs>
  <clipPath id="pd8f7feb81e">
   <path d="M 7.2 89.685191 
L 7.2 7.2 
L 565.2 7.2 
L 565.2 89.685191 
L 7.2 89.685191 
"/>
  </clipPath>
 </defs>
</svg>
