<?xml version="1.0" encoding="utf-8" standalone="no"?>
<!DOCTYPE svg PUBLIC "-//W3C//DTD SVG 1.1//EN"
  "http://www.w3.org/Graphics/SVG/1.1/DTD/svg11.dtd">
<svg xmlns:xlink="http://www.w3.org/1999/xlink" width="720pt" height="360pt" viewBox="0 0 720 360" xmlns="http://www.w3.org/2000/svg" version="1.1">
 <metadata>
  <rdf:RDF xmlns:dc="http://purl.org/dc/elements/1.1/" xmlns:cc="http://creativecommons.org/ns#" xmlns:rdf="http://www.w3.org/1999/02/22-rdf-syntax-ns#">
   <cc:Work>
    <dc:type rdf:resource="http://purl.org/dc/dcmitype/StillImage"/>
    <dc:date>2023-11-30T21:30:45.245809</dc:date>
    <dc:format>image/svg+xml</dc:format>
    <dc:creator>
     <cc:Agent>
      <dc:title>Matplotlib v3.8.1, https://matplotlib.org/</dc:title>
     </cc:Agent>
    </dc:creator>
   </cc:Work>
  </rdf:RDF>
 </metadata>
 <defs>
  <style type="text/css">*{stroke-linejoin: round; stroke-linecap: butt}</style>
 </defs>
 <g id="figure_1">
  <g id="patch_1">
   <path d="M 0 360 
L 720 360 
L 720 0 
L 0 0 
z
" style="fill: #ffffff"/>
  </g>
  <g id="axes_1">
   <g id="patch_2">
    <path d="M 90 223.042596 
L 90 140.557404 
L 648 140.557404 
L 648 223.042596 
L 90 223.042596 
" style="fill: #ffffff"/>
   </g>
   <g id="line2d_1">
    <defs>
     <path id="m4c6314649f" d="M 0 9.18759 
C 2.436577 9.18759 4.773687 8.219527 6.496607 6.496607 
C 8.219527 4.773687 9.18759 2.436577 9.18759 0 
C 9.18759 -2.436577 8.219527 -4.773687 6.496607 -6.496607 
C 4.773687 -8.219527 2.436577 -9.18759 0 -9.18759 
C -2.436577 -9.18759 -4.773687 -8.219527 -6.496607 -6.496607 
C -8.219527 -4.773687 -9.18759 -2.436577 -9.18759 0 
C -9.18759 2.436577 -8.219527 4.773687 -6.496607 6.496607 
C -4.773687 8.219527 -2.436577 9.18759 0 9.18759 
z
" style="stroke: #000000"/>
    </defs>
    <g clip-path="url(#p10f53eaea1)">
     <use xlink:href="#m4c6314649f" x="126.601429" y="170.705884" style="stroke: #000000"/>
    </g>
   </g>
   <g id="line2d_2">
    <defs>
     <path id="mbfdf5a9a5e" d="M 0 8.122823 
C 2.154198 8.122823 4.220455 7.266951 5.743703 5.743703 
C 7.266951 4.220455 8.122823 2.154198 8.122823 0 
C 8.122823 -2.154198 7.266951 -4.220455 5.743703 -5.743703 
C 4.220455 -7.266951 2.154198 -8.122823 0 -8.122823 
C -2.154198 -8.122823 -4.220455 -7.266951 -5.743703 -5.743703 
C -7.266951 -4.220455 -8.122823 -2.154198 -8.122823 0 
C -8.122823 2.154198 -7.266951 4.220455 -5.743703 5.743703 
C -4.220455 7.266951 -2.154198 8.122823 0 8.122823 
z
" style="stroke: #000000"/>
    </defs>
    <g clip-path="url(#p10f53eaea1)">
     <use xlink:href="#mbfdf5a9a5e" x="132.362232" y="205.029724" style="stroke: #000000"/>
    </g>
   </g>
   <g id="line2d_3">
    <defs>
     <path id="m3f69e213de" d="M 0 7.697683 
C 2.041449 7.697683 3.999561 6.886607 5.443084 5.443084 
C 6.886607 3.999561 7.697683 2.041449 7.697683 0 
C 7.697683 -2.041449 6.886607 -3.999561 5.443084 -5.443084 
C 3.999561 -6.886607 2.041449 -7.697683 0 -7.697683 
C -2.041449 -7.697683 -3.999561 -6.886607 -5.443084 -5.443084 
C -6.886607 -3.999561 -7.697683 -2.041449 -7.697683 0 
C -7.697683 2.041449 -6.886607 3.999561 -5.443084 5.443084 
C -3.999561 6.886607 -2.041449 7.697683 0 7.697683 
z
" style="stroke: #000000"/>
    </defs>
    <g clip-path="url(#p10f53eaea1)">
     <use xlink:href="#m3f69e213de" x="125.82044" y="162.535078" style="stroke: #000000"/>
    </g>
   </g>
   <g id="line2d_4">
    <defs>
     <path id="m2630df1eeb" d="M 0 7.539034 
C 1.999375 7.539034 3.91713 6.744674 5.330902 5.330902 
C 6.744674 3.91713 7.539034 1.999375 7.539034 0 
C 7.539034 -1.999375 6.744674 -3.91713 5.330902 -5.330902 
C 3.91713 -6.744674 1.999375 -7.539034 0 -7.539034 
C -1.999375 -7.539034 -3.91713 -6.744674 -5.330902 -5.330902 
C -6.744674 -3.91713 -7.539034 -1.999375 -7.539034 0 
C -7.539034 1.999375 -6.744674 3.91713 -5.330902 5.330902 
C -3.91713 6.744674 -1.999375 7.539034 0 7.539034 
z
" style="stroke: #000000"/>
    </defs>
    <g clip-path="url(#p10f53eaea1)">
     <use xlink:href="#m2630df1eeb" x="146.73606" y="167.742506" style="stroke: #000000"/>
    </g>
   </g>
   <g id="line2d_5">
    <defs>
     <path id="m716bfc0680" d="M 0 7.433157 
C 1.971296 7.433157 3.862118 6.649952 5.256035 5.256035 
C 6.649952 3.862118 7.433157 1.971296 7.433157 0 
C 7.433157 -1.971296 6.649952 -3.862118 5.256035 -5.256035 
C 3.862118 -6.649952 1.971296 -7.433157 0 -7.433157 
C -1.971296 -7.433157 -3.862118 -6.649952 -5.256035 -5.256035 
C -6.649952 -3.862118 -7.433157 -1.971296 -7.433157 0 
C -7.433157 1.971296 -6.649952 3.862118 -5.256035 5.256035 
C -3.862118 6.649952 -1.971296 7.433157 0 7.433157 
z
" style="stroke: #000000"/>
    </defs>
    <g clip-path="url(#p10f53eaea1)">
     <use xlink:href="#m716bfc0680" x="343.59973" y="144.306731" style="stroke: #000000"/>
    </g>
   </g>
   <g id="line2d_6">
    <defs>
     <path id="m7a700be1e5" d="M 0 7.298968 
C 1.935709 7.298968 3.792397 6.529903 5.16115 5.16115 
C 6.529903 3.792397 7.298968 1.935709 7.298968 0 
C 7.298968 -1.935709 6.529903 -3.792397 5.16115 -5.16115 
C 3.792397 -6.529903 1.935709 -7.298968 0 -7.298968 
C -1.935709 -7.298968 -3.792397 -6.529903 -5.16115 -5.16115 
C -6.529903 -3.792397 -7.298968 -1.935709 -7.298968 0 
C -7.298968 1.935709 -6.529903 3.792397 -5.16115 5.16115 
C -3.792397 6.529903 -1.935709 7.298968 0 7.298968 
z
" style="stroke: #000000"/>
    </defs>
    <g clip-path="url(#p10f53eaea1)">
     <use xlink:href="#m7a700be1e5" x="175.749413" y="188.410425" style="stroke: #000000"/>
    </g>
   </g>
   <g id="line2d_7">
    <defs>
     <path id="m918b2e3054" d="M 0 6.942658 
C 1.841214 6.942658 3.607265 6.211135 4.9092 4.9092 
C 6.211135 3.607265 6.942658 1.841214 6.942658 0 
C 6.942658 -1.841214 6.211135 -3.607265 4.9092 -4.9092 
C 3.607265 -6.211135 1.841214 -6.942658 0 -6.942658 
C -1.841214 -6.942658 -3.607265 -6.211135 -4.9092 -4.9092 
C -6.211135 -3.607265 -6.942658 -1.841214 -6.942658 0 
C -6.942658 1.841214 -6.211135 3.607265 -4.9092 4.9092 
C -3.607265 6.211135 -1.841214 6.942658 0 6.942658 
z
" style="stroke: #000000"/>
    </defs>
    <g clip-path="url(#p10f53eaea1)">
     <use xlink:href="#m918b2e3054" x="120.544736" y="176.463494" style="stroke: #000000"/>
    </g>
   </g>
   <g id="line2d_8">
    <defs>
     <path id="m5cf1834cca" d="M 0 6.905938 
C 1.831476 6.905938 3.588186 6.178285 4.883236 4.883236 
C 6.178285 3.588186 6.905938 1.831476 6.905938 0 
C 6.905938 -1.831476 6.178285 -3.588186 4.883236 -4.883236 
C 3.588186 -6.178285 1.831476 -6.905938 0 -6.905938 
C -1.831476 -6.905938 -3.588186 -6.178285 -4.883236 -4.883236 
C -6.178285 -3.588186 -6.905938 -1.831476 -6.905938 0 
C -6.905938 1.831476 -6.178285 3.588186 -4.883236 4.883236 
C -3.588186 6.178285 -1.831476 6.905938 0 6.905938 
z
" style="stroke: #000000"/>
    </defs>
    <g clip-path="url(#p10f53eaea1)">
     <use xlink:href="#m5cf1834cca" x="622.636364" y="197.098954" style="stroke: #000000"/>
    </g>
   </g>
   <g id="line2d_9">
    <defs>
     <path id="m68ed394bb0" d="M 0 6.891141 
C 1.827552 6.891141 3.580498 6.165047 4.872772 4.872772 
C 6.165047 3.580498 6.891141 1.827552 6.891141 0 
C 6.891141 -1.827552 6.165047 -3.580498 4.872772 -4.872772 
C 3.580498 -6.165047 1.827552 -6.891141 0 -6.891141 
C -1.827552 -6.891141 -3.580498 -6.165047 -4.872772 -4.872772 
C -6.165047 -3.580498 -6.891141 -1.827552 -6.891141 0 
C -6.891141 1.827552 -6.165047 3.580498 -4.872772 4.872772 
C -3.580498 6.165047 -1.827552 6.891141 0 6.891141 
z
" style="stroke: #000000"/>
    </defs>
    <g clip-path="url(#p10f53eaea1)">
     <use xlink:href="#m68ed394bb0" x="115.363636" y="219.293269" style="stroke: #000000"/>
    </g>
   </g>
   <g id="line2d_10">
    <defs>
     <path id="mca045eabbb" d="M 0 6.634417 
C 1.759468 6.634417 3.44711 5.935373 4.691241 4.691241 
C 5.935373 3.44711 6.634417 1.759468 6.634417 0 
C 6.634417 -1.759468 5.935373 -3.44711 4.691241 -4.691241 
C 3.44711 -5.935373 1.759468 -6.634417 0 -6.634417 
C -1.759468 -6.634417 -3.44711 -5.935373 -4.691241 -4.691241 
C -5.935373 -3.44711 -6.634417 -1.759468 -6.634417 0 
C -6.634417 1.759468 -5.935373 3.44711 -4.691241 4.691241 
C -3.44711 5.935373 -1.759468 6.634417 0 6.634417 
z
" style="stroke: #000000"/>
    </defs>
    <g clip-path="url(#p10f53eaea1)">
     <use xlink:href="#mca045eabbb" x="357.019462" y="171.734079" style="stroke: #000000"/>
    </g>
   </g>
  </g>
 </g>
 <defs>
  <clipPath id="p10f53eaea1">
   <path d="M 90 223.042596 
L 90 140.557404 
L 648 140.557404 
L 648 223.042596 
L 90 223.042596 
"/>
  </clipPath>
 </defs>
</svg>
