<?xml version="1.0" encoding="utf-8" standalone="no"?>
<!DOCTYPE svg PUBLIC "-//W3C//DTD SVG 1.1//EN"
  "http://www.w3.org/Graphics/SVG/1.1/DTD/svg11.dtd">
<svg xmlns:xlink="http://www.w3.org/1999/xlink" width="720pt" height="360pt" viewBox="0 0 720 360" xmlns="http://www.w3.org/2000/svg" version="1.1">
 <metadata>
  <rdf:RDF xmlns:dc="http://purl.org/dc/elements/1.1/" xmlns:cc="http://creativecommons.org/ns#" xmlns:rdf="http://www.w3.org/1999/02/22-rdf-syntax-ns#">
   <cc:Work>
    <dc:type rdf:resource="http://purl.org/dc/dcmitype/StillImage"/>
    <dc:date>2023-11-30T21:30:45.286817</dc:date>
    <dc:format>image/svg+xml</dc:format>
    <dc:creator>
     <cc:Agent>
      <dc:title>Matplotlib v3.8.1, https://matplotlib.org/</dc:title>
     </cc:Agent>
    </dc:creator>
   </cc:Work>
  </rdf:RDF>
 </metadata>
 <defs>
  <style type="text/css">*{stroke-linejoin: round; stroke-linecap: butt}</style>
 </defs>
 <g id="figure_1">
  <g id="patch_1">
   <path d="M 0 360 
L 720 360 
L 720 0 
L 0 0 
z
" style="fill: #ffffff"/>
  </g>
  <g id="axes_1">
   <g id="patch_2">
    <path d="M 145.063836 320.4 
L 145.063836 43.2 
L 592.936164 43.2 
L 592.936164 320.4 
L 145.063836 320.4 
" style="fill: #ffffff"/>
   </g>
   <g id="line2d_1">
    <defs>
     <path id="m18235b5039" d="M 0 10.417783 
C 2.762828 10.417783 5.41287 9.320099 7.366485 7.366485 
C 9.320099 5.41287 10.417783 2.762828 10.417783 0 
C 10.417783 -2.762828 9.320099 -5.41287 7.366485 -7.366485 
C 5.41287 -9.320099 2.762828 -10.417783 0 -10.417783 
C -2.762828 -10.417783 -5.41287 -9.320099 -7.366485 -7.366485 
C -9.320099 -5.41287 -10.417783 -2.762828 -10.417783 0 
C -10.417783 2.762828 -9.320099 5.41287 -7.366485 7.366485 
C -5.41287 9.320099 -2.762828 10.417783 0 10.417783 
z
" style="stroke: #000000"/>
    </defs>
    <g clip-path="url(#p51679e556a)">
     <use xlink:href="#m18235b5039" x="230.643044" y="182.291473" style="stroke: #000000"/>
    </g>
   </g>
   <g id="line2d_2">
    <defs>
     <path id="me1d7e861cf" d="M 0 10.376517 
C 2.751885 10.376517 5.39143 9.283182 7.337306 7.337306 
C 9.283182 5.39143 10.376517 2.751885 10.376517 0 
C 10.376517 -2.751885 9.283182 -5.39143 7.337306 -7.337306 
C 5.39143 -9.283182 2.751885 -10.376517 0 -10.376517 
C -2.751885 -10.376517 -5.39143 -9.283182 -7.337306 -7.337306 
C -9.283182 -5.39143 -10.376517 -2.751885 -10.376517 0 
C -10.376517 2.751885 -9.283182 5.39143 -7.337306 7.337306 
C -5.39143 9.283182 -2.751885 10.376517 0 10.376517 
z
" style="stroke: #000000"/>
    </defs>
    <g clip-path="url(#p51679e556a)">
     <use xlink:href="#me1d7e861cf" x="231.379592" y="182.082806" style="stroke: #000000"/>
    </g>
   </g>
   <g id="line2d_3">
    <defs>
     <path id="m6380c544e9" d="M 0 8.509062 
C 2.25663 8.509062 4.421137 7.612494 6.016815 6.016815 
C 7.612494 4.421137 8.509062 2.25663 8.509062 0 
C 8.509062 -2.25663 7.612494 -4.421137 6.016815 -6.016815 
C 4.421137 -7.612494 2.25663 -8.509062 0 -8.509062 
C -2.25663 -8.509062 -4.421137 -7.612494 -6.016815 -6.016815 
C -7.612494 -4.421137 -8.509062 -2.25663 -8.509062 0 
C -8.509062 2.25663 -7.612494 4.421137 -6.016815 6.016815 
C -4.421137 7.612494 -2.25663 8.509062 0 8.509062 
z
" style="stroke: #000000"/>
    </defs>
    <g clip-path="url(#p51679e556a)">
     <use xlink:href="#m6380c544e9" x="572.578331" y="307.8" style="stroke: #000000"/>
    </g>
   </g>
   <g id="line2d_4">
    <defs>
     <path id="m4d1856bd1d" d="M 0 8.418463 
C 2.232602 8.418463 4.374064 7.53144 5.952752 5.952752 
C 7.53144 4.374064 8.418463 2.232602 8.418463 0 
C 8.418463 -2.232602 7.53144 -4.374064 5.952752 -5.952752 
C 4.374064 -7.53144 2.232602 -8.418463 0 -8.418463 
C -2.232602 -8.418463 -4.374064 -7.53144 -5.952752 -5.952752 
C -7.53144 -4.374064 -8.418463 -2.232602 -8.418463 0 
C -8.418463 2.232602 -7.53144 4.374064 -5.952752 5.952752 
C -4.374064 7.53144 -2.232602 8.418463 0 8.418463 
z
" style="stroke: #000000"/>
    </defs>
    <g clip-path="url(#p51679e556a)">
     <use xlink:href="#m4d1856bd1d" x="288.360615" y="145.344664" style="stroke: #000000"/>
    </g>
   </g>
   <g id="line2d_5">
    <defs>
     <path id="m20baa21945" d="M 0 8.3994 
C 2.227547 8.3994 4.364159 7.514387 5.939273 5.939273 
C 7.514387 4.364159 8.3994 2.227547 8.3994 0 
C 8.3994 -2.227547 7.514387 -4.364159 5.939273 -5.939273 
C 4.364159 -7.514387 2.227547 -8.3994 0 -8.3994 
C -2.227547 -8.3994 -4.364159 -7.514387 -5.939273 -5.939273 
C -7.514387 -4.364159 -8.3994 -2.227547 -8.3994 0 
C -8.3994 2.227547 -7.514387 4.364159 -5.939273 5.939273 
C -4.364159 7.514387 -2.227547 8.3994 0 8.3994 
z
" style="stroke: #000000"/>
    </defs>
    <g clip-path="url(#p51679e556a)">
     <use xlink:href="#m20baa21945" x="538.329193" y="122.059269" style="stroke: #000000"/>
    </g>
   </g>
   <g id="line2d_6">
    <defs>
     <path id="mb85f81f17e" d="M 0 8.395219 
C 2.226438 8.395219 4.361987 7.510646 5.936316 5.936316 
C 7.510646 4.361987 8.395219 2.226438 8.395219 0 
C 8.395219 -2.226438 7.510646 -4.361987 5.936316 -5.936316 
C 4.361987 -7.510646 2.226438 -8.395219 0 -8.395219 
C -2.226438 -8.395219 -4.361987 -7.510646 -5.936316 -5.936316 
C -7.510646 -4.361987 -8.395219 -2.226438 -8.395219 0 
C -8.395219 2.226438 -7.510646 4.361987 -5.936316 5.936316 
C -4.361987 7.510646 -2.226438 8.395219 0 8.395219 
z
" style="stroke: #000000"/>
    </defs>
    <g clip-path="url(#p51679e556a)">
     <use xlink:href="#mb85f81f17e" x="165.421669" y="103.286789" style="stroke: #000000"/>
    </g>
   </g>
   <g id="line2d_7">
    <defs>
     <path id="mdd268c4c51" d="M 0 8.136069 
C 2.157711 8.136069 4.227338 7.278801 5.753069 5.753069 
C 7.278801 4.227338 8.136069 2.157711 8.136069 0 
C 8.136069 -2.157711 7.278801 -4.227338 5.753069 -5.753069 
C 4.227338 -7.278801 2.157711 -8.136069 0 -8.136069 
C -2.157711 -8.136069 -4.227338 -7.278801 -5.753069 -5.753069 
C -7.278801 -4.227338 -8.136069 -2.157711 -8.136069 0 
C -8.136069 2.157711 -7.278801 4.227338 -5.753069 5.753069 
C -4.227338 7.278801 -2.157711 8.136069 0 8.136069 
z
" style="stroke: #000000"/>
    </defs>
    <g clip-path="url(#p51679e556a)">
     <use xlink:href="#mdd268c4c51" x="480.197357" y="250.636301" style="stroke: #000000"/>
    </g>
   </g>
   <g id="line2d_8">
    <defs>
     <path id="m36c9a3fe11" d="M 0 8.117259 
C 2.152722 8.117259 4.217564 7.261973 5.739769 5.739769 
C 7.261973 4.217564 8.117259 2.152722 8.117259 0 
C 8.117259 -2.152722 7.261973 -4.217564 5.739769 -5.739769 
C 4.217564 -7.261973 2.152722 -8.117259 0 -8.117259 
C -2.152722 -8.117259 -4.217564 -7.261973 -5.739769 -5.739769 
C -7.261973 -4.217564 -8.117259 -2.152722 -8.117259 0 
C -8.117259 2.152722 -7.261973 4.217564 -5.739769 5.739769 
C -4.217564 7.261973 -2.152722 8.117259 0 8.117259 
z
" style="stroke: #000000"/>
    </defs>
    <g clip-path="url(#p51679e556a)">
     <use xlink:href="#m36c9a3fe11" x="251.927109" y="170.162384" style="stroke: #000000"/>
    </g>
   </g>
   <g id="line2d_9">
    <defs>
     <path id="m31bd38489f" d="M 0 7.919922 
C 2.100388 7.919922 4.115032 7.085429 5.60023 5.60023 
C 7.085429 4.115032 7.919922 2.100388 7.919922 0 
C 7.919922 -2.100388 7.085429 -4.115032 5.60023 -5.60023 
C 4.115032 -7.085429 2.100388 -7.919922 0 -7.919922 
C -2.100388 -7.919922 -4.115032 -7.085429 -5.60023 -5.60023 
C -7.085429 -4.115032 -7.919922 -2.100388 -7.919922 0 
C -7.919922 2.100388 -7.085429 4.115032 -5.60023 5.60023 
C -4.115032 7.085429 -2.100388 7.919922 0 7.919922 
z
" style="stroke: #000000"/>
    </defs>
    <g clip-path="url(#p51679e556a)">
     <use xlink:href="#m31bd38489f" x="329.25624" y="55.8" style="stroke: #000000"/>
    </g>
   </g>
   <g id="line2d_10">
    <defs>
     <path id="ma242456472" d="M 0 7.76172 
C 2.058432 7.76172 4.032833 6.943896 5.488365 5.488365 
C 6.943896 4.032833 7.76172 2.058432 7.76172 0 
C 7.76172 -2.058432 6.943896 -4.032833 5.488365 -5.488365 
C 4.032833 -6.943896 2.058432 -7.76172 0 -7.76172 
C -2.058432 -7.76172 -4.032833 -6.943896 -5.488365 -5.488365 
C -6.943896 -4.032833 -7.76172 -2.058432 -7.76172 0 
C -7.76172 2.058432 -6.943896 4.032833 -5.488365 5.488365 
C -4.032833 6.943896 -2.058432 7.76172 0 7.76172 
z
" style="stroke: #000000"/>
    </defs>
    <g clip-path="url(#p51679e556a)">
     <use xlink:href="#ma242456472" x="482.565686" y="207.049912" style="stroke: #000000"/>
    </g>
   </g>
  </g>
 </g>
 <defs>
  <clipPath id="p51679e556a">
   <path d="M 145.063836 320.4 
L 145.063836 43.2 
L 592.936164 43.2 
L 592.936164 320.4 
L 145.063836 320.4 
"/>
  </clipPath>
 </defs>
</svg>
