<?xml version="1.0" encoding="utf-8" standalone="no"?>
<!DOCTYPE svg PUBLIC "-//W3C//DTD SVG 1.1//EN"
  "http://www.w3.org/Graphics/SVG/1.1/DTD/svg11.dtd">
<svg xmlns:xlink="http://www.w3.org/1999/xlink" width="720pt" height="360pt" viewBox="0 0 720 360" xmlns="http://www.w3.org/2000/svg" version="1.1">
 <metadata>
  <rdf:RDF xmlns:dc="http://purl.org/dc/elements/1.1/" xmlns:cc="http://creativecommons.org/ns#" xmlns:rdf="http://www.w3.org/1999/02/22-rdf-syntax-ns#">
   <cc:Work>
    <dc:type rdf:resource="http://purl.org/dc/dcmitype/StillImage"/>
    <dc:date>2023-11-30T21:30:52.587718</dc:date>
    <dc:format>image/svg+xml</dc:format>
    <dc:creator>
     <cc:Agent>
      <dc:title>Matplotlib v3.8.1, https://matplotlib.org/</dc:title>
     </cc:Agent>
    </dc:creator>
   </cc:Work>
  </rdf:RDF>
 </metadata>
 <defs>
  <style type="text/css">*{stroke-linejoin: round; stroke-linecap: butt}</style>
 </defs>
 <g id="figure_1">
  <g id="patch_1">
   <path d="M 0 360 
L 720 360 
L 720 0 
L 0 0 
z
" style="fill: #ffffff"/>
  </g>
  <g id="axes_1">
   <g id="patch_2">
    <path d="M 205.902446 320.4 
L 205.902446 43.2 
L 532.097554 43.2 
L 532.097554 320.4 
L 205.902446 320.4 
" style="fill: #ffffff"/>
   </g>
   <g id="line2d_1">
    <defs>
     <path id="m17c020c78f" d="M 0 7.853828 
C 2.082859 7.853828 4.080691 7.026299 5.553495 5.553495 
C 7.026299 4.080691 7.853828 2.082859 7.853828 0 
C 7.853828 -2.082859 7.026299 -4.080691 5.553495 -5.553495 
C 4.080691 -7.026299 2.082859 -7.853828 0 -7.853828 
C -2.082859 -7.853828 -4.080691 -7.026299 -5.553495 -5.553495 
C -7.026299 -4.080691 -7.853828 -2.082859 -7.853828 0 
C -7.853828 2.082859 -7.026299 4.080691 -5.553495 5.553495 
C -4.080691 7.026299 -2.082859 7.853828 0 7.853828 
z
" style="stroke: #000000"/>
    </defs>
    <g clip-path="url(#p0e3a55c15f)">
     <use xlink:href="#m17c020c78f" x="383.101653" y="108.071848" style="stroke: #000000"/>
    </g>
   </g>
   <g id="line2d_2">
    <defs>
     <path id="m1998cf80e3" d="M 0 7.456211 
C 1.97741 7.456211 3.874097 6.670577 5.272337 5.272337 
C 6.670577 3.874097 7.456211 1.97741 7.456211 0 
C 7.456211 -1.97741 6.670577 -3.874097 5.272337 -5.272337 
C 3.874097 -6.670577 1.97741 -7.456211 0 -7.456211 
C -1.97741 -7.456211 -3.874097 -6.670577 -5.272337 -5.272337 
C -6.670577 -3.874097 -7.456211 -1.97741 -7.456211 0 
C -7.456211 1.97741 -6.670577 3.874097 -5.272337 5.272337 
C -3.874097 6.670577 -1.97741 7.456211 0 7.456211 
z
" style="stroke: #000000"/>
    </defs>
    <g clip-path="url(#p0e3a55c15f)">
     <use xlink:href="#m1998cf80e3" x="315.081914" y="112.996702" style="stroke: #000000"/>
    </g>
   </g>
   <g id="line2d_3">
    <defs>
     <path id="meba4310c70" d="M 0 7.404356 
C 1.963658 7.404356 3.847155 6.624187 5.235671 5.235671 
C 6.624187 3.847155 7.404356 1.963658 7.404356 0 
C 7.404356 -1.963658 6.624187 -3.847155 5.235671 -5.235671 
C 3.847155 -6.624187 1.963658 -7.404356 0 -7.404356 
C -1.963658 -7.404356 -3.847155 -6.624187 -5.235671 -5.235671 
C -6.624187 -3.847155 -7.404356 -1.963658 -7.404356 0 
C -7.404356 1.963658 -6.624187 3.847155 -5.235671 5.235671 
C -3.847155 6.624187 -1.963658 7.404356 0 7.404356 
z
" style="stroke: #000000"/>
    </defs>
    <g clip-path="url(#p0e3a55c15f)">
     <use xlink:href="#meba4310c70" x="393.267371" y="166.617558" style="stroke: #000000"/>
    </g>
   </g>
   <g id="line2d_4">
    <defs>
     <path id="m84fc172faa" d="M 0 7.304676 
C 1.937223 7.304676 3.795363 6.535009 5.165186 5.165186 
C 6.535009 3.795363 7.304676 1.937223 7.304676 0 
C 7.304676 -1.937223 6.535009 -3.795363 5.165186 -5.165186 
C 3.795363 -6.535009 1.937223 -7.304676 0 -7.304676 
C -1.937223 -7.304676 -3.795363 -6.535009 -5.165186 -5.165186 
C -6.535009 -3.795363 -7.304676 -1.937223 -7.304676 0 
C -7.304676 1.937223 -6.535009 3.795363 -5.165186 5.165186 
C -3.795363 6.535009 -1.937223 7.304676 0 7.304676 
z
" style="stroke: #000000"/>
    </defs>
    <g clip-path="url(#p0e3a55c15f)">
     <use xlink:href="#m84fc172faa" x="310.028681" y="179.363172" style="stroke: #000000"/>
    </g>
   </g>
   <g id="line2d_5">
    <defs>
     <path id="m90284a6979" d="M 0 7.240269 
C 1.920142 7.240269 3.761898 6.477388 5.119643 5.119643 
C 6.477388 3.761898 7.240269 1.920142 7.240269 0 
C 7.240269 -1.920142 6.477388 -3.761898 5.119643 -5.119643 
C 3.761898 -6.477388 1.920142 -7.240269 0 -7.240269 
C -1.920142 -7.240269 -3.761898 -6.477388 -5.119643 -5.119643 
C -6.477388 -3.761898 -7.240269 -1.920142 -7.240269 0 
C -7.240269 1.920142 -6.477388 3.761898 -5.119643 5.119643 
C -3.761898 6.477388 -1.920142 7.240269 0 7.240269 
z
" style="stroke: #000000"/>
    </defs>
    <g clip-path="url(#p0e3a55c15f)">
     <use xlink:href="#m90284a6979" x="488.136116" y="149.569358" style="stroke: #000000"/>
    </g>
   </g>
   <g id="line2d_6">
    <defs>
     <path id="mf1f4662949" d="M 0 7.23498 
C 1.918739 7.23498 3.75915 6.472657 5.115903 5.115903 
C 6.472657 3.75915 7.23498 1.918739 7.23498 0 
C 7.23498 -1.918739 6.472657 -3.75915 5.115903 -5.115903 
C 3.75915 -6.472657 1.918739 -7.23498 0 -7.23498 
C -1.918739 -7.23498 -3.75915 -6.472657 -5.115903 -5.115903 
C -6.472657 -3.75915 -7.23498 -1.918739 -7.23498 0 
C -7.23498 1.918739 -6.472657 3.75915 -5.115903 5.115903 
C -3.75915 6.472657 -1.918739 7.23498 0 7.23498 
z
" style="stroke: #000000"/>
    </defs>
    <g clip-path="url(#p0e3a55c15f)">
     <use xlink:href="#mf1f4662949" x="517.270504" y="56.676589" style="stroke: #000000"/>
    </g>
   </g>
   <g id="line2d_7">
    <defs>
     <path id="m602cdead2c" d="M 0 7.150784 
C 1.89641 7.150784 3.715403 6.397332 5.056368 5.056368 
C 6.397332 3.715403 7.150784 1.89641 7.150784 0 
C 7.150784 -1.89641 6.397332 -3.715403 5.056368 -5.056368 
C 3.715403 -6.397332 1.89641 -7.150784 0 -7.150784 
C -1.89641 -7.150784 -3.715403 -6.397332 -5.056368 -5.056368 
C -6.397332 -3.715403 -7.150784 -1.89641 -7.150784 0 
C -7.150784 1.89641 -6.397332 3.715403 -5.056368 5.056368 
C -3.715403 6.397332 -1.89641 7.150784 0 7.150784 
z
" style="stroke: #000000"/>
    </defs>
    <g clip-path="url(#p0e3a55c15f)">
     <use xlink:href="#m602cdead2c" x="220.729496" y="55.8" style="stroke: #000000"/>
    </g>
   </g>
   <g id="line2d_8">
    <defs>
     <path id="m07f5e22399" d="M 0 7.137407 
C 1.892863 7.137407 3.708453 6.385365 5.046909 5.046909 
C 6.385365 3.708453 7.137407 1.892863 7.137407 0 
C 7.137407 -1.892863 6.385365 -3.708453 5.046909 -5.046909 
C 3.708453 -6.385365 1.892863 -7.137407 0 -7.137407 
C -1.892863 -7.137407 -3.708453 -6.385365 -5.046909 -5.046909 
C -6.385365 -3.708453 -7.137407 -1.892863 -7.137407 0 
C -7.137407 1.892863 -6.385365 3.708453 -5.046909 5.046909 
C -3.708453 6.385365 -1.892863 7.137407 0 7.137407 
z
" style="stroke: #000000"/>
    </defs>
    <g clip-path="url(#p0e3a55c15f)">
     <use xlink:href="#m07f5e22399" x="333.009466" y="307.8" style="stroke: #000000"/>
    </g>
   </g>
   <g id="line2d_9">
    <defs>
     <path id="m93ff62968b" d="M 0 6.945037 
C 1.841845 6.945037 3.608501 6.213264 4.910883 4.910883 
C 6.213264 3.608501 6.945037 1.841845 6.945037 0 
C 6.945037 -1.841845 6.213264 -3.608501 4.910883 -4.910883 
C 3.608501 -6.213264 1.841845 -6.945037 0 -6.945037 
C -1.841845 -6.945037 -3.608501 -6.213264 -4.910883 -4.910883 
C -6.213264 -3.608501 -6.945037 -1.841845 -6.945037 0 
C -6.945037 1.841845 -6.213264 3.608501 -4.910883 4.910883 
C -3.608501 6.213264 -1.841845 6.945037 0 6.945037 
z
" style="stroke: #000000"/>
    </defs>
    <g clip-path="url(#p0e3a55c15f)">
     <use xlink:href="#m93ff62968b" x="356.802832" y="135.892771" style="stroke: #000000"/>
    </g>
   </g>
   <g id="line2d_10">
    <defs>
     <path id="m00da181396" d="M 0 6.931125 
C 1.838156 6.931125 3.601273 6.200818 4.901045 4.901045 
C 6.200818 3.601273 6.931125 1.838156 6.931125 0 
C 6.931125 -1.838156 6.200818 -3.601273 4.901045 -4.901045 
C 3.601273 -6.200818 1.838156 -6.931125 0 -6.931125 
C -1.838156 -6.931125 -3.601273 -6.200818 -4.901045 -4.901045 
C -6.200818 -3.601273 -6.931125 -1.838156 -6.931125 0 
C -6.931125 1.838156 -6.200818 3.601273 -4.901045 4.901045 
C -3.601273 6.200818 -1.838156 6.931125 0 6.931125 
z
" style="stroke: #000000"/>
    </defs>
    <g clip-path="url(#p0e3a55c15f)">
     <use xlink:href="#m00da181396" x="275.951096" y="110.288926" style="stroke: #000000"/>
    </g>
   </g>
  </g>
 </g>
 <defs>
  <clipPath id="p0e3a55c15f">
   <path d="M 205.902446 320.4 
L 205.902446 43.2 
L 532.097554 43.2 
L 532.097554 320.4 
L 205.902446 320.4 
"/>
  </clipPath>
 </defs>
</svg>
