<?xml version="1.0" encoding="utf-8" standalone="no"?>
<!DOCTYPE svg PUBLIC "-//W3C//DTD SVG 1.1//EN"
  "http://www.w3.org/Graphics/SVG/1.1/DTD/svg11.dtd">
<svg xmlns:xlink="http://www.w3.org/1999/xlink" width="720pt" height="360pt" viewBox="0 0 720 360" xmlns="http://www.w3.org/2000/svg" version="1.1">
 <metadata>
  <rdf:RDF xmlns:dc="http://purl.org/dc/elements/1.1/" xmlns:cc="http://creativecommons.org/ns#" xmlns:rdf="http://www.w3.org/1999/02/22-rdf-syntax-ns#">
   <cc:Work>
    <dc:type rdf:resource="http://purl.org/dc/dcmitype/StillImage"/>
    <dc:date>2023-11-30T21:30:45.327072</dc:date>
    <dc:format>image/svg+xml</dc:format>
    <dc:creator>
     <cc:Agent>
      <dc:title>Matplotlib v3.8.1, https://matplotlib.org/</dc:title>
     </cc:Agent>
    </dc:creator>
   </cc:Work>
  </rdf:RDF>
 </metadata>
 <defs>
  <style type="text/css">*{stroke-linejoin: round; stroke-linecap: butt}</style>
 </defs>
 <g id="figure_1">
  <g id="patch_1">
   <path d="M 0 360 
L 720 360 
L 720 0 
L 0 0 
z
" style="fill: #ffffff"/>
  </g>
  <g id="axes_1">
   <g id="patch_2">
    <path d="M 211.671687 320.4 
L 211.671687 43.2 
L 526.328313 43.2 
L 526.328313 320.4 
L 211.671687 320.4 
" style="fill: #ffffff"/>
   </g>
   <g id="line2d_1">
    <defs>
     <path id="m1896b3064c" d="M 0 8.700402 
C 2.307374 8.700402 4.520554 7.783673 6.152113 6.152113 
C 7.783673 4.520554 8.700402 2.307374 8.700402 0 
C 8.700402 -2.307374 7.783673 -4.520554 6.152113 -6.152113 
C 4.520554 -7.783673 2.307374 -8.700402 0 -8.700402 
C -2.307374 -8.700402 -4.520554 -7.783673 -6.152113 -6.152113 
C -7.783673 -4.520554 -8.700402 -2.307374 -8.700402 0 
C -8.700402 2.307374 -7.783673 4.520554 -6.152113 6.152113 
C -4.520554 7.783673 -2.307374 8.700402 0 8.700402 
z
" style="stroke: #000000"/>
    </defs>
    <g clip-path="url(#p47d72756b1)">
     <use xlink:href="#m1896b3064c" x="350.802027" y="249.723217" style="stroke: #000000"/>
    </g>
   </g>
   <g id="line2d_2">
    <defs>
     <path id="mef17418550" d="M 0 8.625427 
C 2.28749 8.625427 4.481598 7.716597 6.099098 6.099098 
C 7.716597 4.481598 8.625427 2.28749 8.625427 0 
C 8.625427 -2.28749 7.716597 -4.481598 6.099098 -6.099098 
C 4.481598 -7.716597 2.28749 -8.625427 0 -8.625427 
C -2.28749 -8.625427 -4.481598 -7.716597 -6.099098 -6.099098 
C -7.716597 -4.481598 -8.625427 -2.28749 -8.625427 0 
C -8.625427 2.28749 -7.716597 4.481598 -6.099098 6.099098 
C -4.481598 7.716597 -2.28749 8.625427 0 8.625427 
z
" style="stroke: #000000"/>
    </defs>
    <g clip-path="url(#p47d72756b1)">
     <use xlink:href="#mef17418550" x="249.370771" y="55.8" style="stroke: #000000"/>
    </g>
   </g>
   <g id="line2d_3">
    <defs>
     <path id="maec0b22046" d="M 0 7.299956 
C 1.935971 7.299956 3.79291 6.530787 5.161849 5.161849 
C 6.530787 3.79291 7.299956 1.935971 7.299956 0 
C 7.299956 -1.935971 6.530787 -3.79291 5.161849 -5.161849 
C 3.79291 -6.530787 1.935971 -7.299956 0 -7.299956 
C -1.935971 -7.299956 -3.79291 -6.530787 -5.161849 -5.161849 
C -6.530787 -3.79291 -7.299956 -1.935971 -7.299956 0 
C -7.299956 1.935971 -6.530787 3.79291 -5.161849 5.161849 
C -3.79291 6.530787 -1.935971 7.299956 0 7.299956 
z
" style="stroke: #000000"/>
    </defs>
    <g clip-path="url(#p47d72756b1)">
     <use xlink:href="#maec0b22046" x="512.025739" y="220.193502" style="stroke: #000000"/>
    </g>
   </g>
   <g id="line2d_4">
    <defs>
     <path id="m128bb83d11" d="M 0 6.725155 
C 1.783532 6.725155 3.494255 6.01655 4.755402 4.755402 
C 6.01655 3.494255 6.725155 1.783532 6.725155 0 
C 6.725155 -1.783532 6.01655 -3.494255 4.755402 -4.755402 
C 3.494255 -6.01655 1.783532 -6.725155 0 -6.725155 
C -1.783532 -6.725155 -3.494255 -6.01655 -4.755402 -4.755402 
C -6.01655 -3.494255 -6.725155 -1.783532 -6.725155 0 
C -6.725155 1.783532 -6.01655 3.494255 -4.755402 4.755402 
C -3.494255 6.01655 -1.783532 6.725155 0 6.725155 
z
" style="stroke: #000000"/>
    </defs>
    <g clip-path="url(#p47d72756b1)">
     <use xlink:href="#m128bb83d11" x="471.498997" y="307.8" style="stroke: #000000"/>
    </g>
   </g>
   <g id="line2d_5">
    <defs>
     <path id="mfc38fc5e80" d="M 0 6.657575 
C 1.765609 6.657575 3.459142 5.956091 4.707616 4.707616 
C 5.956091 3.459142 6.657575 1.765609 6.657575 0 
C 6.657575 -1.765609 5.956091 -3.459142 4.707616 -4.707616 
C 3.459142 -5.956091 1.765609 -6.657575 0 -6.657575 
C -1.765609 -6.657575 -3.459142 -5.956091 -4.707616 -4.707616 
C -5.956091 -3.459142 -6.657575 -1.765609 -6.657575 0 
C -6.657575 1.765609 -5.956091 3.459142 -4.707616 4.707616 
C -3.459142 5.956091 -1.765609 6.657575 0 6.657575 
z
" style="stroke: #000000"/>
    </defs>
    <g clip-path="url(#p47d72756b1)">
     <use xlink:href="#mfc38fc5e80" x="454.185311" y="249.529626" style="stroke: #000000"/>
    </g>
   </g>
   <g id="line2d_6">
    <defs>
     <path id="m4067cc13ad" d="M 0 6.539742 
C 1.73436 6.539742 3.397919 5.850674 4.624296 4.624296 
C 5.850674 3.397919 6.539742 1.73436 6.539742 0 
C 6.539742 -1.73436 5.850674 -3.397919 4.624296 -4.624296 
C 3.397919 -5.850674 1.73436 -6.539742 0 -6.539742 
C -1.73436 -6.539742 -3.397919 -5.850674 -4.624296 -4.624296 
C -5.850674 -3.397919 -6.539742 -1.73436 -6.539742 0 
C -6.539742 1.73436 -5.850674 3.397919 -4.624296 4.624296 
C -3.397919 5.850674 -1.73436 6.539742 0 6.539742 
z
" style="stroke: #000000"/>
    </defs>
    <g clip-path="url(#p47d72756b1)">
     <use xlink:href="#m4067cc13ad" x="225.974261" y="86.46623" style="stroke: #000000"/>
    </g>
   </g>
   <g id="line2d_7">
    <defs>
     <path id="md33c7279d1" d="M 0 6.523477 
C 1.730046 6.523477 3.389467 5.836122 4.612795 4.612795 
C 5.836122 3.389467 6.523477 1.730046 6.523477 0 
C 6.523477 -1.730046 5.836122 -3.389467 4.612795 -4.612795 
C 3.389467 -5.836122 1.730046 -6.523477 0 -6.523477 
C -1.730046 -6.523477 -3.389467 -5.836122 -4.612795 -4.612795 
C -5.836122 -3.389467 -6.523477 -1.730046 -6.523477 0 
C -6.523477 1.730046 -5.836122 3.389467 -4.612795 4.612795 
C -3.389467 5.836122 -1.730046 6.523477 0 6.523477 
z
" style="stroke: #000000"/>
    </defs>
    <g clip-path="url(#p47d72756b1)">
     <use xlink:href="#md33c7279d1" x="431.750386" y="293.46967" style="stroke: #000000"/>
    </g>
   </g>
   <g id="line2d_8">
    <defs>
     <path id="m1065152e19" d="M 0 6.321252 
C 1.676415 6.321252 3.284395 5.655205 4.4698 4.4698 
C 5.655205 3.284395 6.321252 1.676415 6.321252 0 
C 6.321252 -1.676415 5.655205 -3.284395 4.4698 -4.4698 
C 3.284395 -5.655205 1.676415 -6.321252 0 -6.321252 
C -1.676415 -6.321252 -3.284395 -5.655205 -4.4698 -4.4698 
C -5.655205 -3.284395 -6.321252 -1.676415 -6.321252 0 
C -6.321252 1.676415 -5.655205 3.284395 -4.4698 4.4698 
C -3.284395 5.655205 -1.676415 6.321252 0 6.321252 
z
" style="stroke: #000000"/>
    </defs>
    <g clip-path="url(#p47d72756b1)">
     <use xlink:href="#m1065152e19" x="510.307665" y="273.945015" style="stroke: #000000"/>
    </g>
   </g>
   <g id="line2d_9">
    <defs>
     <path id="m7b9ba59be1" d="M 0 6.252658 
C 1.658224 6.252658 3.248755 5.593838 4.421297 4.421297 
C 5.593838 3.248755 6.252658 1.658224 6.252658 0 
C 6.252658 -1.658224 5.593838 -3.248755 4.421297 -4.421297 
C 3.248755 -5.593838 1.658224 -6.252658 0 -6.252658 
C -1.658224 -6.252658 -3.248755 -5.593838 -4.421297 -4.421297 
C -5.593838 -3.248755 -6.252658 -1.658224 -6.252658 0 
C -6.252658 1.658224 -5.593838 3.248755 -4.421297 4.421297 
C -3.248755 5.593838 -1.658224 6.252658 0 6.252658 
z
" style="stroke: #000000"/>
    </defs>
    <g clip-path="url(#p47d72756b1)">
     <use xlink:href="#m7b9ba59be1" x="438.13828" y="221.841867" style="stroke: #000000"/>
    </g>
   </g>
   <g id="line2d_10">
    <defs>
     <path id="mb645888e5f" d="M 0 6.206153 
C 1.645891 6.206153 3.224592 5.552233 4.388413 4.388413 
C 5.552233 3.224592 6.206153 1.645891 6.206153 0 
C 6.206153 -1.645891 5.552233 -3.224592 4.388413 -4.388413 
C 3.224592 -5.552233 1.645891 -6.206153 0 -6.206153 
C -1.645891 -6.206153 -3.224592 -5.552233 -4.388413 -4.388413 
C -5.552233 -3.224592 -6.206153 -1.645891 -6.206153 0 
C -6.206153 1.645891 -5.552233 3.224592 -4.388413 4.388413 
C -3.224592 5.552233 -1.645891 6.206153 0 6.206153 
z
" style="stroke: #000000"/>
    </defs>
    <g clip-path="url(#p47d72756b1)">
     <use xlink:href="#mb645888e5f" x="254.696077" y="59.812483" style="stroke: #000000"/>
    </g>
   </g>
  </g>
 </g>
 <defs>
  <clipPath id="p47d72756b1">
   <path d="M 211.671687 320.4 
L 211.671687 43.2 
L 526.328313 43.2 
L 526.328313 320.4 
L 211.671687 320.4 
"/>
  </clipPath>
 </defs>
</svg>
