<?xml version="1.0" encoding="utf-8" standalone="no"?>
<!DOCTYPE svg PUBLIC "-//W3C//DTD SVG 1.1//EN"
  "http://www.w3.org/Graphics/SVG/1.1/DTD/svg11.dtd">
<svg xmlns:xlink="http://www.w3.org/1999/xlink" width="720pt" height="360pt" viewBox="0 0 720 360" xmlns="http://www.w3.org/2000/svg" version="1.1">
 <metadata>
  <rdf:RDF xmlns:dc="http://purl.org/dc/elements/1.1/" xmlns:cc="http://creativecommons.org/ns#" xmlns:rdf="http://www.w3.org/1999/02/22-rdf-syntax-ns#">
   <cc:Work>
    <dc:type rdf:resource="http://purl.org/dc/dcmitype/StillImage"/>
    <dc:date>2023-11-30T21:30:45.367380</dc:date>
    <dc:format>image/svg+xml</dc:format>
    <dc:creator>
     <cc:Agent>
      <dc:title>Matplotlib v3.8.1, https://matplotlib.org/</dc:title>
     </cc:Agent>
    </dc:creator>
   </cc:Work>
  </rdf:RDF>
 </metadata>
 <defs>
  <style type="text/css">*{stroke-linejoin: round; stroke-linecap: butt}</style>
 </defs>
 <g id="figure_1">
  <g id="patch_1">
   <path d="M 0 360 
L 720 360 
L 720 0 
L 0 0 
z
" style="fill: #ffffff"/>
  </g>
  <g id="axes_1">
   <g id="patch_2">
    <path d="M 298.708071 320.4 
L 298.708071 43.2 
L 439.291929 43.2 
L 439.291929 320.4 
L 298.708071 320.4 
" style="fill: #ffffff"/>
   </g>
   <g id="line2d_1">
    <defs>
     <path id="mc93eaa6434" d="M 0 9.670463 
C 2.564637 9.670463 5.024578 8.651522 6.83805 6.83805 
C 8.651522 5.024578 9.670463 2.564637 9.670463 0 
C 9.670463 -2.564637 8.651522 -5.024578 6.83805 -6.83805 
C 5.024578 -8.651522 2.564637 -9.670463 0 -9.670463 
C -2.564637 -9.670463 -5.024578 -8.651522 -6.83805 -6.83805 
C -8.651522 -5.024578 -9.670463 -2.564637 -9.670463 0 
C -9.670463 2.564637 -8.651522 5.024578 -6.83805 6.83805 
C -5.024578 8.651522 -2.564637 9.670463 0 9.670463 
z
" style="stroke: #000000"/>
    </defs>
    <g clip-path="url(#pa61ed4b23d)">
     <use xlink:href="#mc93eaa6434" x="379.831527" y="184.196654" style="stroke: #000000"/>
    </g>
   </g>
   <g id="line2d_2">
    <defs>
     <path id="m3fa5eb533f" d="M 0 9.138832 
C 2.423647 9.138832 4.748353 8.175907 6.46213 6.46213 
C 8.175907 4.748353 9.138832 2.423647 9.138832 0 
C 9.138832 -2.423647 8.175907 -4.748353 6.46213 -6.46213 
C 4.748353 -8.175907 2.423647 -9.138832 0 -9.138832 
C -2.423647 -9.138832 -4.748353 -8.175907 -6.46213 -6.46213 
C -8.175907 -4.748353 -9.138832 -2.423647 -9.138832 0 
C -9.138832 2.423647 -8.175907 4.748353 -6.46213 6.46213 
C -4.748353 8.175907 -2.423647 9.138832 0 9.138832 
z
" style="stroke: #000000"/>
    </defs>
    <g clip-path="url(#pa61ed4b23d)">
     <use xlink:href="#m3fa5eb533f" x="349.952461" y="55.8" style="stroke: #000000"/>
    </g>
   </g>
   <g id="line2d_3">
    <defs>
     <path id="m090f2c8741" d="M 0 8.679201 
C 2.301751 8.679201 4.509538 7.764706 6.137122 6.137122 
C 7.764706 4.509538 8.679201 2.301751 8.679201 0 
C 8.679201 -2.301751 7.764706 -4.509538 6.137122 -6.137122 
C 4.509538 -7.764706 2.301751 -8.679201 0 -8.679201 
C -2.301751 -8.679201 -4.509538 -7.764706 -6.137122 -6.137122 
C -7.764706 -4.509538 -8.679201 -2.301751 -8.679201 0 
C -8.679201 2.301751 -7.764706 4.509538 -6.137122 6.137122 
C -4.509538 7.764706 -2.301751 8.679201 0 8.679201 
z
" style="stroke: #000000"/>
    </defs>
    <g clip-path="url(#pa61ed4b23d)">
     <use xlink:href="#m090f2c8741" x="305.098246" y="171.826788" style="stroke: #000000"/>
    </g>
   </g>
   <g id="line2d_4">
    <defs>
     <path id="mb3c1ff7f32" d="M 0 8.660299 
C 2.296738 8.660299 4.499717 7.747795 6.123756 6.123756 
C 7.747795 4.499717 8.660299 2.296738 8.660299 0 
C 8.660299 -2.296738 7.747795 -4.499717 6.123756 -6.123756 
C 4.499717 -7.747795 2.296738 -8.660299 0 -8.660299 
C -2.296738 -8.660299 -4.499717 -7.747795 -6.123756 -6.123756 
C -7.747795 -4.499717 -8.660299 -2.296738 -8.660299 0 
C -8.660299 2.296738 -7.747795 4.499717 -6.123756 6.123756 
C -4.499717 7.747795 -2.296738 8.660299 0 8.660299 
z
" style="stroke: #000000"/>
    </defs>
    <g clip-path="url(#pa61ed4b23d)">
     <use xlink:href="#mb3c1ff7f32" x="376.770439" y="186.172717" style="stroke: #000000"/>
    </g>
   </g>
   <g id="line2d_5">
    <defs>
     <path id="mb0bee4a763" d="M 0 8.58237 
C 2.276071 8.58237 4.459227 7.678077 6.068652 6.068652 
C 7.678077 4.459227 8.58237 2.276071 8.58237 0 
C 8.58237 -2.276071 7.678077 -4.459227 6.068652 -6.068652 
C 4.459227 -7.678077 2.276071 -8.58237 0 -8.58237 
C -2.276071 -8.58237 -4.459227 -7.678077 -6.068652 -6.068652 
C -7.678077 -4.459227 -8.58237 -2.276071 -8.58237 0 
C -8.58237 2.276071 -7.678077 4.459227 -6.068652 6.068652 
C -4.459227 7.678077 -2.276071 8.58237 0 8.58237 
z
" style="stroke: #000000"/>
    </defs>
    <g clip-path="url(#pa61ed4b23d)">
     <use xlink:href="#mb0bee4a763" x="330.710534" y="104.978469" style="stroke: #000000"/>
    </g>
   </g>
   <g id="line2d_6">
    <defs>
     <path id="m8e4ce5dbc8" d="M 0 8.547441 
C 2.266808 8.547441 4.441078 7.646829 6.043953 6.043953 
C 7.646829 4.441078 8.547441 2.266808 8.547441 0 
C 8.547441 -2.266808 7.646829 -4.441078 6.043953 -6.043953 
C 4.441078 -7.646829 2.266808 -8.547441 0 -8.547441 
C -2.266808 -8.547441 -4.441078 -7.646829 -6.043953 -6.043953 
C -7.646829 -4.441078 -8.547441 -2.266808 -8.547441 0 
C -8.547441 2.266808 -7.646829 4.441078 -6.043953 6.043953 
C -4.441078 7.646829 -2.266808 8.547441 0 8.547441 
z
" style="stroke: #000000"/>
    </defs>
    <g clip-path="url(#pa61ed4b23d)">
     <use xlink:href="#m8e4ce5dbc8" x="378.482999" y="182.698107" style="stroke: #000000"/>
    </g>
   </g>
   <g id="line2d_7">
    <defs>
     <path id="m1f07c6235a" d="M 0 8.532724 
C 2.262905 8.532724 4.433432 7.633662 6.033547 6.033547 
C 7.633662 4.433432 8.532724 2.262905 8.532724 0 
C 8.532724 -2.262905 7.633662 -4.433432 6.033547 -6.033547 
C 4.433432 -7.633662 2.262905 -8.532724 0 -8.532724 
C -2.262905 -8.532724 -4.433432 -7.633662 -6.033547 -6.033547 
C -7.633662 -4.433432 -8.532724 -2.262905 -8.532724 0 
C -8.532724 2.262905 -7.633662 4.433432 -6.033547 6.033547 
C -4.433432 7.633662 -2.262905 8.532724 0 8.532724 
z
" style="stroke: #000000"/>
    </defs>
    <g clip-path="url(#pa61ed4b23d)">
     <use xlink:href="#m1f07c6235a" x="432.901754" y="307.8" style="stroke: #000000"/>
    </g>
   </g>
   <g id="line2d_8">
    <defs>
     <path id="ma79bb6caf1" d="M 0 8.309436 
C 2.203688 8.309436 4.317416 7.433902 5.875659 5.875659 
C 7.433902 4.317416 8.309436 2.203688 8.309436 0 
C 8.309436 -2.203688 7.433902 -4.317416 5.875659 -5.875659 
C 4.317416 -7.433902 2.203688 -8.309436 0 -8.309436 
C -2.203688 -8.309436 -4.317416 -7.433902 -5.875659 -5.875659 
C -7.433902 -4.317416 -8.309436 -2.203688 -8.309436 0 
C -8.309436 2.203688 -7.433902 4.317416 -5.875659 5.875659 
C -4.317416 7.433902 -2.203688 8.309436 0 8.309436 
z
" style="stroke: #000000"/>
    </defs>
    <g clip-path="url(#pa61ed4b23d)">
     <use xlink:href="#ma79bb6caf1" x="378.787795" y="185.795397" style="stroke: #000000"/>
    </g>
   </g>
   <g id="line2d_9">
    <defs>
     <path id="md26b130326" d="M 0 8.300094 
C 2.201211 8.300094 4.312562 7.425544 5.869053 5.869053 
C 7.425544 4.312562 8.300094 2.201211 8.300094 0 
C 8.300094 -2.201211 7.425544 -4.312562 5.869053 -5.869053 
C 4.312562 -7.425544 2.201211 -8.300094 0 -8.300094 
C -2.201211 -8.300094 -4.312562 -7.425544 -5.869053 -5.869053 
C -7.425544 -4.312562 -8.300094 -2.201211 -8.300094 0 
C -8.300094 2.201211 -7.425544 4.312562 -5.869053 5.869053 
C -4.312562 7.425544 -2.201211 8.300094 0 8.300094 
z
" style="stroke: #000000"/>
    </defs>
    <g clip-path="url(#pa61ed4b23d)">
     <use xlink:href="#md26b130326" x="380.037349" y="179.47708" style="stroke: #000000"/>
    </g>
   </g>
   <g id="line2d_10">
    <defs>
     <path id="mcdfd9e15b4" d="M 0 8.240892 
C 2.18551 8.240892 4.281802 7.372579 5.82719 5.82719 
C 7.372579 4.281802 8.240892 2.18551 8.240892 0 
C 8.240892 -2.18551 7.372579 -4.281802 5.82719 -5.82719 
C 4.281802 -7.372579 2.18551 -8.240892 0 -8.240892 
C -2.18551 -8.240892 -4.281802 -7.372579 -5.82719 -5.82719 
C -7.372579 -4.281802 -8.240892 -2.18551 -8.240892 0 
C -8.240892 2.18551 -7.372579 4.281802 -5.82719 5.82719 
C -4.281802 7.372579 -2.18551 8.240892 0 8.240892 
z
" style="stroke: #000000"/>
    </defs>
    <g clip-path="url(#pa61ed4b23d)">
     <use xlink:href="#mcdfd9e15b4" x="350.680524" y="58.806328" style="stroke: #000000"/>
    </g>
   </g>
  </g>
 </g>
 <defs>
  <clipPath id="pa61ed4b23d">
   <path d="M 298.708071 320.4 
L 298.708071 43.2 
L 439.291929 43.2 
L 439.291929 320.4 
L 298.708071 320.4 
"/>
  </clipPath>
 </defs>
</svg>
