<?xml version="1.0" encoding="utf-8" standalone="no"?>
<!DOCTYPE svg PUBLIC "-//W3C//DTD SVG 1.1//EN"
  "http://www.w3.org/Graphics/SVG/1.1/DTD/svg11.dtd">
<svg xmlns:xlink="http://www.w3.org/1999/xlink" width="720pt" height="360pt" viewBox="0 0 720 360" xmlns="http://www.w3.org/2000/svg" version="1.1">
 <metadata>
  <rdf:RDF xmlns:dc="http://purl.org/dc/elements/1.1/" xmlns:cc="http://creativecommons.org/ns#" xmlns:rdf="http://www.w3.org/1999/02/22-rdf-syntax-ns#">
   <cc:Work>
    <dc:type rdf:resource="http://purl.org/dc/dcmitype/StillImage"/>
    <dc:date>2023-11-30T21:30:45.411212</dc:date>
    <dc:format>image/svg+xml</dc:format>
    <dc:creator>
     <cc:Agent>
      <dc:title>Matplotlib v3.8.1, https://matplotlib.org/</dc:title>
     </cc:Agent>
    </dc:creator>
   </cc:Work>
  </rdf:RDF>
 </metadata>
 <defs>
  <style type="text/css">*{stroke-linejoin: round; stroke-linecap: butt}</style>
 </defs>
 <g id="figure_1">
  <g id="patch_1">
   <path d="M 0 360 
L 720 360 
L 720 0 
L 0 0 
z
" style="fill: #ffffff"/>
  </g>
  <g id="axes_1">
   <g id="patch_2">
    <path d="M 183.560031 320.4 
L 183.560031 43.2 
L 554.439969 43.2 
L 554.439969 320.4 
L 183.560031 320.4 
" style="fill: #ffffff"/>
   </g>
   <g id="line2d_1">
    <defs>
     <path id="m16a2751766" d="M 0 9.962124 
C 2.641986 9.962124 5.176119 8.912452 7.044286 7.044286 
C 8.912452 5.176119 9.962124 2.641986 9.962124 0 
C 9.962124 -2.641986 8.912452 -5.176119 7.044286 -7.044286 
C 5.176119 -8.912452 2.641986 -9.962124 0 -9.962124 
C -2.641986 -9.962124 -5.176119 -8.912452 -7.044286 -7.044286 
C -8.912452 -5.176119 -9.962124 -2.641986 -9.962124 0 
C -9.962124 2.641986 -8.912452 5.176119 -7.044286 7.044286 
C -5.176119 8.912452 -2.641986 9.962124 0 9.962124 
z
" style="stroke: #000000"/>
    </defs>
    <g clip-path="url(#p374fa44c80)">
     <use xlink:href="#m16a2751766" x="409.253328" y="233.348539" style="stroke: #000000"/>
    </g>
   </g>
   <g id="line2d_2">
    <defs>
     <path id="me594ee4d61" d="M 0 9.619088 
C 2.551012 9.619088 4.997885 8.60556 6.801722 6.801722 
C 8.60556 4.997885 9.619088 2.551012 9.619088 0 
C 9.619088 -2.551012 8.60556 -4.997885 6.801722 -6.801722 
C 4.997885 -8.60556 2.551012 -9.619088 0 -9.619088 
C -2.551012 -9.619088 -4.997885 -8.60556 -6.801722 -6.801722 
C -8.60556 -4.997885 -9.619088 -2.551012 -9.619088 0 
C -9.619088 2.551012 -8.60556 4.997885 -6.801722 6.801722 
C -4.997885 8.60556 -2.551012 9.619088 0 9.619088 
z
" style="stroke: #000000"/>
    </defs>
    <g clip-path="url(#p374fa44c80)">
     <use xlink:href="#me594ee4d61" x="394.253547" y="258.018862" style="stroke: #000000"/>
    </g>
   </g>
   <g id="line2d_3">
    <defs>
     <path id="m95f263a58e" d="M 0 9.414635 
C 2.49679 9.414635 4.891655 8.42265 6.657152 6.657152 
C 8.42265 4.891655 9.414635 2.49679 9.414635 0 
C 9.414635 -2.49679 8.42265 -4.891655 6.657152 -6.657152 
C 4.891655 -8.42265 2.49679 -9.414635 0 -9.414635 
C -2.49679 -9.414635 -4.891655 -8.42265 -6.657152 -6.657152 
C -8.42265 -4.891655 -9.414635 -2.49679 -9.414635 0 
C -9.414635 2.49679 -8.42265 4.891655 -6.657152 6.657152 
C -4.891655 8.42265 -2.49679 9.414635 0 9.414635 
z
" style="stroke: #000000"/>
    </defs>
    <g clip-path="url(#p374fa44c80)">
     <use xlink:href="#m95f263a58e" x="389.749663" y="235.472496" style="stroke: #000000"/>
    </g>
   </g>
   <g id="line2d_4">
    <defs>
     <path id="me60ed9dc0c" d="M 0 8.847016 
C 2.346256 8.847016 4.596731 7.914838 6.255785 6.255785 
C 7.914838 4.596731 8.847016 2.346256 8.847016 0 
C 8.847016 -2.346256 7.914838 -4.596731 6.255785 -6.255785 
C 4.596731 -7.914838 2.346256 -8.847016 0 -8.847016 
C -2.346256 -8.847016 -4.596731 -7.914838 -6.255785 -6.255785 
C -7.914838 -4.596731 -8.847016 -2.346256 -8.847016 0 
C -8.847016 2.346256 -7.914838 4.596731 -6.255785 6.255785 
C -4.596731 7.914838 -2.346256 8.847016 0 8.847016 
z
" style="stroke: #000000"/>
    </defs>
    <g clip-path="url(#p374fa44c80)">
     <use xlink:href="#me60ed9dc0c" x="438.857996" y="55.8" style="stroke: #000000"/>
    </g>
   </g>
   <g id="line2d_5">
    <defs>
     <path id="mf6e89d66a6" d="M 0 8.731646 
C 2.31566 8.731646 4.536788 7.811625 6.174206 6.174206 
C 7.811625 4.536788 8.731646 2.31566 8.731646 0 
C 8.731646 -2.31566 7.811625 -4.536788 6.174206 -6.174206 
C 4.536788 -7.811625 2.31566 -8.731646 0 -8.731646 
C -2.31566 -8.731646 -4.536788 -7.811625 -6.174206 -6.174206 
C -7.811625 -4.536788 -8.731646 -2.31566 -8.731646 0 
C -8.731646 2.31566 -7.811625 4.536788 -6.174206 6.174206 
C -4.536788 7.811625 -2.31566 8.731646 0 8.731646 
z
" style="stroke: #000000"/>
    </defs>
    <g clip-path="url(#p374fa44c80)">
     <use xlink:href="#mf6e89d66a6" x="200.41821" y="191.917132" style="stroke: #000000"/>
    </g>
   </g>
   <g id="line2d_6">
    <defs>
     <path id="mcc55cd0452" d="M 0 8.643139 
C 2.292187 8.643139 4.490801 7.732443 6.111622 6.111622 
C 7.732443 4.490801 8.643139 2.292187 8.643139 0 
C 8.643139 -2.292187 7.732443 -4.490801 6.111622 -6.111622 
C 4.490801 -7.732443 2.292187 -8.643139 0 -8.643139 
C -2.292187 -8.643139 -4.490801 -7.732443 -6.111622 -6.111622 
C -7.732443 -4.490801 -8.643139 -2.292187 -8.643139 0 
C -8.643139 2.292187 -7.732443 4.490801 -6.111622 6.111622 
C -4.490801 7.732443 -2.292187 8.643139 0 8.643139 
z
" style="stroke: #000000"/>
    </defs>
    <g clip-path="url(#p374fa44c80)">
     <use xlink:href="#mcc55cd0452" x="518.24024" y="234.629329" style="stroke: #000000"/>
    </g>
   </g>
   <g id="line2d_7">
    <defs>
     <path id="ma7e17cbbc3" d="M 0 8.627044 
C 2.287919 8.627044 4.482438 7.718044 6.100241 6.100241 
C 7.718044 4.482438 8.627044 2.287919 8.627044 0 
C 8.627044 -2.287919 7.718044 -4.482438 6.100241 -6.100241 
C 4.482438 -7.718044 2.287919 -8.627044 0 -8.627044 
C -2.287919 -8.627044 -4.482438 -7.718044 -6.100241 -6.100241 
C -7.718044 -4.482438 -8.627044 -2.287919 -8.627044 0 
C -8.627044 2.287919 -7.718044 4.482438 -6.100241 6.100241 
C -4.482438 7.718044 -2.287919 8.627044 0 8.627044 
z
" style="stroke: #000000"/>
    </defs>
    <g clip-path="url(#p374fa44c80)">
     <use xlink:href="#ma7e17cbbc3" x="352.608733" y="305.832784" style="stroke: #000000"/>
    </g>
   </g>
   <g id="line2d_8">
    <defs>
     <path id="m24c575591d" d="M 0 8.622925 
C 2.286826 8.622925 4.480298 7.714359 6.097329 6.097329 
C 7.714359 4.480298 8.622925 2.286826 8.622925 0 
C 8.622925 -2.286826 7.714359 -4.480298 6.097329 -6.097329 
C 4.480298 -7.714359 2.286826 -8.622925 0 -8.622925 
C -2.286826 -8.622925 -4.480298 -7.714359 -6.097329 -6.097329 
C -7.714359 -4.480298 -8.622925 -2.286826 -8.622925 0 
C -8.622925 2.286826 -7.714359 4.480298 -6.097329 6.097329 
C -4.480298 7.714359 -2.286826 8.622925 0 8.622925 
z
" style="stroke: #000000"/>
    </defs>
    <g clip-path="url(#p374fa44c80)">
     <use xlink:href="#m24c575591d" x="404.892854" y="267.036483" style="stroke: #000000"/>
    </g>
   </g>
   <g id="line2d_9">
    <defs>
     <path id="mf7cbde569e" d="M 0 8.577216 
C 2.274704 8.577216 4.456549 7.673467 6.065008 6.065008 
C 7.673467 4.456549 8.577216 2.274704 8.577216 0 
C 8.577216 -2.274704 7.673467 -4.456549 6.065008 -6.065008 
C 4.456549 -7.673467 2.274704 -8.577216 0 -8.577216 
C -2.274704 -8.577216 -4.456549 -7.673467 -6.065008 -6.065008 
C -7.673467 -4.456549 -8.577216 -2.274704 -8.577216 0 
C -8.577216 2.274704 -7.673467 4.456549 -6.065008 6.065008 
C -4.456549 7.673467 -2.274704 8.577216 0 8.577216 
z
" style="stroke: #000000"/>
    </defs>
    <g clip-path="url(#p374fa44c80)">
     <use xlink:href="#mf7cbde569e" x="537.58179" y="307.8" style="stroke: #000000"/>
    </g>
   </g>
   <g id="line2d_10">
    <defs>
     <path id="mbbde02f900" d="M 0 8.555568 
C 2.268963 8.555568 4.445301 7.654099 6.0497 6.0497 
C 7.654099 4.445301 8.555568 2.268963 8.555568 0 
C 8.555568 -2.268963 7.654099 -4.445301 6.0497 -6.0497 
C 4.445301 -7.654099 2.268963 -8.555568 0 -8.555568 
C -2.268963 -8.555568 -4.445301 -7.654099 -6.0497 -6.0497 
C -7.654099 -4.445301 -8.555568 -2.268963 -8.555568 0 
C -8.555568 2.268963 -7.654099 4.445301 -6.0497 6.0497 
C -4.445301 7.654099 -2.268963 8.555568 0 8.555568 
z
" style="stroke: #000000"/>
    </defs>
    <g clip-path="url(#p374fa44c80)">
     <use xlink:href="#mbbde02f900" x="284.98813" y="168.705552" style="stroke: #000000"/>
    </g>
   </g>
  </g>
 </g>
 <defs>
  <clipPath id="p374fa44c80">
   <path d="M 183.560031 320.4 
L 183.560031 43.2 
L 554.439969 43.2 
L 554.439969 320.4 
L 183.560031 320.4 
"/>
  </clipPath>
 </defs>
</svg>
