<?xml version="1.0" encoding="utf-8" standalone="no"?>
<!DOCTYPE svg PUBLIC "-//W3C//DTD SVG 1.1//EN"
  "http://www.w3.org/Graphics/SVG/1.1/DTD/svg11.dtd">
<svg xmlns:xlink="http://www.w3.org/1999/xlink" width="720pt" height="360pt" viewBox="0 0 720 360" xmlns="http://www.w3.org/2000/svg" version="1.1">
 <metadata>
  <rdf:RDF xmlns:dc="http://purl.org/dc/elements/1.1/" xmlns:cc="http://creativecommons.org/ns#" xmlns:rdf="http://www.w3.org/1999/02/22-rdf-syntax-ns#">
   <cc:Work>
    <dc:type rdf:resource="http://purl.org/dc/dcmitype/StillImage"/>
    <dc:date>2023-11-30T21:30:45.451509</dc:date>
    <dc:format>image/svg+xml</dc:format>
    <dc:creator>
     <cc:Agent>
      <dc:title>Matplotlib v3.8.1, https://matplotlib.org/</dc:title>
     </cc:Agent>
    </dc:creator>
   </cc:Work>
  </rdf:RDF>
 </metadata>
 <defs>
  <style type="text/css">*{stroke-linejoin: round; stroke-linecap: butt}</style>
 </defs>
 <g id="figure_1">
  <g id="patch_1">
   <path d="M 0 360 
L 720 360 
L 720 0 
L 0 0 
z
" style="fill: #ffffff"/>
  </g>
  <g id="axes_1">
   <g id="patch_2">
    <path d="M 173.360323 320.4 
L 173.360323 43.2 
L 564.639677 43.2 
L 564.639677 320.4 
L 173.360323 320.4 
" style="fill: #ffffff"/>
   </g>
   <g id="line2d_1">
    <defs>
     <path id="m9f756eeb6c" d="M 0 7.72792 
C 2.049468 7.72792 4.015272 6.913658 5.464465 5.464465 
C 6.913658 4.015272 7.72792 2.049468 7.72792 0 
C 7.72792 -2.049468 6.913658 -4.015272 5.464465 -5.464465 
C 4.015272 -6.913658 2.049468 -7.72792 0 -7.72792 
C -2.049468 -7.72792 -4.015272 -6.913658 -5.464465 -5.464465 
C -6.913658 -4.015272 -7.72792 -2.049468 -7.72792 0 
C -7.72792 2.049468 -6.913658 4.015272 -5.464465 5.464465 
C -4.015272 6.913658 -2.049468 7.72792 0 7.72792 
z
" style="stroke: #000000"/>
    </defs>
    <g clip-path="url(#p65aae00593)">
     <use xlink:href="#m9f756eeb6c" x="465.529246" y="86.525113" style="stroke: #000000"/>
    </g>
   </g>
   <g id="line2d_2">
    <defs>
     <path id="m92e534a3d8" d="M 0 7.163074 
C 1.89967 7.163074 3.721789 6.408328 5.065058 5.065058 
C 6.408328 3.721789 7.163074 1.89967 7.163074 0 
C 7.163074 -1.89967 6.408328 -3.721789 5.065058 -5.065058 
C 3.721789 -6.408328 1.89967 -7.163074 0 -7.163074 
C -1.89967 -7.163074 -3.721789 -6.408328 -5.065058 -5.065058 
C -6.408328 -3.721789 -7.163074 -1.89967 -7.163074 0 
C -7.163074 1.89967 -6.408328 3.721789 -5.065058 5.065058 
C -3.721789 6.408328 -1.89967 7.163074 0 7.163074 
z
" style="stroke: #000000"/>
    </defs>
    <g clip-path="url(#p65aae00593)">
     <use xlink:href="#m92e534a3d8" x="546.854251" y="55.8" style="stroke: #000000"/>
    </g>
   </g>
   <g id="line2d_3">
    <defs>
     <path id="m9c4380836e" d="M 0 7.132441 
C 1.891546 7.132441 3.705873 6.380922 5.043398 5.043398 
C 6.380922 3.705873 7.132441 1.891546 7.132441 0 
C 7.132441 -1.891546 6.380922 -3.705873 5.043398 -5.043398 
C 3.705873 -6.380922 1.891546 -7.132441 0 -7.132441 
C -1.891546 -7.132441 -3.705873 -6.380922 -5.043398 -5.043398 
C -6.380922 -3.705873 -7.132441 -1.891546 -7.132441 0 
C -7.132441 1.891546 -6.380922 3.705873 -5.043398 5.043398 
C -3.705873 6.380922 -1.891546 7.132441 0 7.132441 
z
" style="stroke: #000000"/>
    </defs>
    <g clip-path="url(#p65aae00593)">
     <use xlink:href="#m9c4380836e" x="370.603476" y="137.011309" style="stroke: #000000"/>
    </g>
   </g>
   <g id="line2d_4">
    <g clip-path="url(#p65aae00593)">
     <use xlink:href="#m9c4380836e" x="370.685705" y="137.330609" style="stroke: #000000"/>
    </g>
   </g>
   <g id="line2d_5">
    <defs>
     <path id="m12ed9c3b02" d="M 0 6.945512 
C 1.841971 6.945512 3.608748 6.213689 4.911219 4.911219 
C 6.213689 3.608748 6.945512 1.841971 6.945512 0 
C 6.945512 -1.841971 6.213689 -3.608748 4.911219 -4.911219 
C 3.608748 -6.213689 1.841971 -6.945512 0 -6.945512 
C -1.841971 -6.945512 -3.608748 -6.213689 -4.911219 -4.911219 
C -6.213689 -3.608748 -6.945512 -1.841971 -6.945512 0 
C -6.945512 1.841971 -6.213689 3.608748 -4.911219 4.911219 
C -3.608748 6.213689 -1.841971 6.945512 0 6.945512 
z
" style="stroke: #000000"/>
    </defs>
    <g clip-path="url(#p65aae00593)">
     <use xlink:href="#m12ed9c3b02" x="403.018357" y="204.428257" style="stroke: #000000"/>
    </g>
   </g>
   <g id="line2d_6">
    <defs>
     <path id="m5dcbc25392" d="M 0 6.557847 
C 1.739161 6.557847 3.407325 5.866871 4.637098 4.637098 
C 5.866871 3.407325 6.557847 1.739161 6.557847 0 
C 6.557847 -1.739161 5.866871 -3.407325 4.637098 -4.637098 
C 3.407325 -5.866871 1.739161 -6.557847 0 -6.557847 
C -1.739161 -6.557847 -3.407325 -5.866871 -4.637098 -4.637098 
C -5.866871 -3.407325 -6.557847 -1.739161 -6.557847 0 
C -6.557847 1.739161 -5.866871 3.407325 -4.637098 4.637098 
C -3.407325 5.866871 -1.739161 6.557847 0 6.557847 
z
" style="stroke: #000000"/>
    </defs>
    <g clip-path="url(#p65aae00593)">
     <use xlink:href="#m5dcbc25392" x="399.597608" y="168.267848" style="stroke: #000000"/>
    </g>
   </g>
   <g id="line2d_7">
    <defs>
     <path id="mee01cc1c14" d="M 0 6.436434 
C 1.706962 6.436434 3.344241 5.75825 4.551246 4.551246 
C 5.75825 3.344241 6.436434 1.706962 6.436434 0 
C 6.436434 -1.706962 5.75825 -3.344241 4.551246 -4.551246 
C 3.344241 -5.75825 1.706962 -6.436434 0 -6.436434 
C -1.706962 -6.436434 -3.344241 -5.75825 -4.551246 -4.551246 
C -5.75825 -3.344241 -6.436434 -1.706962 -6.436434 0 
C -6.436434 1.706962 -5.75825 3.344241 -4.551246 4.551246 
C -3.344241 5.75825 -1.706962 6.436434 0 6.436434 
z
" style="stroke: #000000"/>
    </defs>
    <g clip-path="url(#p65aae00593)">
     <use xlink:href="#mee01cc1c14" x="191.145749" y="307.8" style="stroke: #000000"/>
    </g>
   </g>
   <g id="line2d_8">
    <defs>
     <path id="m09802ae328" d="M 0 6.368412 
C 1.688923 6.368412 3.308899 5.697396 4.503148 4.503148 
C 5.697396 3.308899 6.368412 1.688923 6.368412 0 
C 6.368412 -1.688923 5.697396 -3.308899 4.503148 -4.503148 
C 3.308899 -5.697396 1.688923 -6.368412 0 -6.368412 
C -1.688923 -6.368412 -3.308899 -5.697396 -4.503148 -4.503148 
C -5.697396 -3.308899 -6.368412 -1.688923 -6.368412 0 
C -6.368412 1.688923 -5.697396 3.308899 -4.503148 4.503148 
C -3.308899 5.697396 -1.688923 6.368412 0 6.368412 
z
" style="stroke: #000000"/>
    </defs>
    <g clip-path="url(#p65aae00593)">
     <use xlink:href="#m09802ae328" x="371.853365" y="169.208867" style="stroke: #000000"/>
    </g>
   </g>
   <g id="line2d_9">
    <defs>
     <path id="md4c28e8faa" d="M 0 6.368095 
C 1.688839 6.368095 3.308734 5.697113 4.502923 4.502923 
C 5.697113 3.308734 6.368095 1.688839 6.368095 0 
C 6.368095 -1.688839 5.697113 -3.308734 4.502923 -4.502923 
C 3.308734 -5.697113 1.688839 -6.368095 0 -6.368095 
C -1.688839 -6.368095 -3.308734 -5.697113 -4.502923 -4.502923 
C -5.697113 -3.308734 -6.368095 -1.688839 -6.368095 0 
C -6.368095 1.688839 -5.697113 3.308734 -4.502923 4.502923 
C -3.308734 5.697113 -1.688839 6.368095 0 6.368095 
z
" style="stroke: #000000"/>
    </defs>
    <g clip-path="url(#p65aae00593)">
     <use xlink:href="#md4c28e8faa" x="333.83043" y="204.764304" style="stroke: #000000"/>
    </g>
   </g>
   <g id="line2d_10">
    <defs>
     <path id="md4d4d7f77d" d="M 0 6.331445 
C 1.679119 6.331445 3.289692 5.664324 4.477008 4.477008 
C 5.664324 3.289692 6.331445 1.679119 6.331445 0 
C 6.331445 -1.679119 5.664324 -3.289692 4.477008 -4.477008 
C 3.289692 -5.664324 1.679119 -6.331445 0 -6.331445 
C -1.679119 -6.331445 -3.289692 -5.664324 -4.477008 -4.477008 
C -5.664324 -3.289692 -6.331445 -1.679119 -6.331445 0 
C -6.331445 1.679119 -5.664324 3.289692 -4.477008 4.477008 
C -3.289692 5.664324 -1.679119 6.331445 0 6.331445 
z
" style="stroke: #000000"/>
    </defs>
    <g clip-path="url(#p65aae00593)">
     <use xlink:href="#md4d4d7f77d" x="363.350831" y="268.053856" style="stroke: #000000"/>
    </g>
   </g>
  </g>
 </g>
 <defs>
  <clipPath id="p65aae00593">
   <path d="M 173.360323 320.4 
L 173.360323 43.2 
L 564.639677 43.2 
L 564.639677 320.4 
L 173.360323 320.4 
"/>
  </clipPath>
 </defs>
</svg>
