<?xml version="1.0" encoding="utf-8" standalone="no"?>
<!DOCTYPE svg PUBLIC "-//W3C//DTD SVG 1.1//EN"
  "http://www.w3.org/Graphics/SVG/1.1/DTD/svg11.dtd">
<svg xmlns:xlink="http://www.w3.org/1999/xlink" width="720pt" height="360pt" viewBox="0 0 720 360" xmlns="http://www.w3.org/2000/svg" version="1.1">
 <metadata>
  <rdf:RDF xmlns:dc="http://purl.org/dc/elements/1.1/" xmlns:cc="http://creativecommons.org/ns#" xmlns:rdf="http://www.w3.org/1999/02/22-rdf-syntax-ns#">
   <cc:Work>
    <dc:type rdf:resource="http://purl.org/dc/dcmitype/StillImage"/>
    <dc:date>2023-11-30T21:30:52.645966</dc:date>
    <dc:format>image/svg+xml</dc:format>
    <dc:creator>
     <cc:Agent>
      <dc:title>Matplotlib v3.8.1, https://matplotlib.org/</dc:title>
     </cc:Agent>
    </dc:creator>
   </cc:Work>
  </rdf:RDF>
 </metadata>
 <defs>
  <style type="text/css">*{stroke-linejoin: round; stroke-linecap: butt}</style>
 </defs>
 <g id="figure_1">
  <g id="patch_1">
   <path d="M 0 360 
L 720 360 
L 720 0 
L 0 0 
z
" style="fill: #ffffff"/>
  </g>
  <g id="axes_1">
   <g id="patch_2">
    <path d="M 103.001052 320.4 
L 103.001052 43.2 
L 634.998948 43.2 
L 634.998948 320.4 
L 103.001052 320.4 
" style="fill: #ffffff"/>
   </g>
   <g id="line2d_1">
    <defs>
     <path id="m19078ca04a" d="M 0 9.282902 
C 2.461855 9.282902 4.823209 8.304797 6.564003 6.564003 
C 8.304797 4.823209 9.282902 2.461855 9.282902 0 
C 9.282902 -2.461855 8.304797 -4.823209 6.564003 -6.564003 
C 4.823209 -8.304797 2.461855 -9.282902 0 -9.282902 
C -2.461855 -9.282902 -4.823209 -8.304797 -6.564003 -6.564003 
C -8.304797 -4.823209 -9.282902 -2.461855 -9.282902 0 
C -9.282902 2.461855 -8.304797 4.823209 -6.564003 6.564003 
C -4.823209 8.304797 -2.461855 9.282902 0 9.282902 
z
" style="stroke: #000000"/>
    </defs>
    <g clip-path="url(#p57d3900e71)">
     <use xlink:href="#m19078ca04a" x="268.462895" y="161.116344" style="stroke: #000000"/>
    </g>
   </g>
   <g id="line2d_2">
    <defs>
     <path id="m0372dd6e7e" d="M 0 7.229524 
C 1.917292 7.229524 3.756315 6.467775 5.112045 5.112045 
C 6.467775 3.756315 7.229524 1.917292 7.229524 0 
C 7.229524 -1.917292 6.467775 -3.756315 5.112045 -5.112045 
C 3.756315 -6.467775 1.917292 -7.229524 0 -7.229524 
C -1.917292 -7.229524 -3.756315 -6.467775 -5.112045 -5.112045 
C -6.467775 -3.756315 -7.229524 -1.917292 -7.229524 0 
C -7.229524 1.917292 -6.467775 3.756315 -5.112045 5.112045 
C -3.756315 6.467775 -1.917292 7.229524 0 7.229524 
z
" style="stroke: #000000"/>
    </defs>
    <g clip-path="url(#p57d3900e71)">
     <use xlink:href="#m0372dd6e7e" x="501.436579" y="84.690464" style="stroke: #000000"/>
    </g>
   </g>
   <g id="line2d_3">
    <defs>
     <path id="maaf36fa0e3" d="M 0 6.908442 
C 1.83214 6.908442 3.589487 6.180525 4.885006 4.885006 
C 6.180525 3.589487 6.908442 1.83214 6.908442 0 
C 6.908442 -1.83214 6.180525 -3.589487 4.885006 -4.885006 
C 3.589487 -6.180525 1.83214 -6.908442 0 -6.908442 
C -1.83214 -6.908442 -3.589487 -6.180525 -4.885006 -4.885006 
C -6.180525 -3.589487 -6.908442 -1.83214 -6.908442 0 
C -6.908442 1.83214 -6.180525 3.589487 -4.885006 4.885006 
C -3.589487 6.180525 -1.83214 6.908442 0 6.908442 
z
" style="stroke: #000000"/>
    </defs>
    <g clip-path="url(#p57d3900e71)">
     <use xlink:href="#maaf36fa0e3" x="610.817225" y="55.8" style="stroke: #000000"/>
    </g>
   </g>
   <g id="line2d_4">
    <defs>
     <path id="mdc476cb3e4" d="M 0 6.815645 
C 1.80753 6.815645 3.541272 6.097506 4.819389 4.819389 
C 6.097506 3.541272 6.815645 1.80753 6.815645 0 
C 6.815645 -1.80753 6.097506 -3.541272 4.819389 -4.819389 
C 3.541272 -6.097506 1.80753 -6.815645 0 -6.815645 
C -1.80753 -6.815645 -3.541272 -6.097506 -4.819389 -4.819389 
C -6.097506 -3.541272 -6.815645 -1.80753 -6.815645 0 
C -6.815645 1.80753 -6.097506 3.541272 -4.819389 4.819389 
C -3.541272 6.097506 -1.80753 6.815645 0 6.815645 
z
" style="stroke: #000000"/>
    </defs>
    <g clip-path="url(#p57d3900e71)">
     <use xlink:href="#mdc476cb3e4" x="305.840735" y="70.210119" style="stroke: #000000"/>
    </g>
   </g>
   <g id="line2d_5">
    <defs>
     <path id="m25a1248c73" d="M 0 6.697365 
C 1.776162 6.697365 3.479816 5.991689 4.735752 4.735752 
C 5.991689 3.479816 6.697365 1.776162 6.697365 0 
C 6.697365 -1.776162 5.991689 -3.479816 4.735752 -4.735752 
C 3.479816 -5.991689 1.776162 -6.697365 0 -6.697365 
C -1.776162 -6.697365 -3.479816 -5.991689 -4.735752 -4.735752 
C -5.991689 -3.479816 -6.697365 -1.776162 -6.697365 0 
C -6.697365 1.776162 -5.991689 3.479816 -4.735752 4.735752 
C -3.479816 5.991689 -1.776162 6.697365 0 6.697365 
z
" style="stroke: #000000"/>
    </defs>
    <g clip-path="url(#p57d3900e71)">
     <use xlink:href="#m25a1248c73" x="298.719605" y="233.510971" style="stroke: #000000"/>
    </g>
   </g>
   <g id="line2d_6">
    <defs>
     <path id="mbe26f4dda5" d="M 0 6.678432 
C 1.771141 6.678432 3.469979 5.974751 4.722365 4.722365 
C 5.974751 3.469979 6.678432 1.771141 6.678432 0 
C 6.678432 -1.771141 5.974751 -3.469979 4.722365 -4.722365 
C 3.469979 -5.974751 1.771141 -6.678432 0 -6.678432 
C -1.771141 -6.678432 -3.469979 -5.974751 -4.722365 -4.722365 
C -5.974751 -3.469979 -6.678432 -1.771141 -6.678432 0 
C -6.678432 1.771141 -5.974751 3.469979 -4.722365 4.722365 
C -3.469979 5.974751 -1.771141 6.678432 0 6.678432 
z
" style="stroke: #000000"/>
    </defs>
    <g clip-path="url(#p57d3900e71)">
     <use xlink:href="#mbe26f4dda5" x="127.182775" y="57.207239" style="stroke: #000000"/>
    </g>
   </g>
   <g id="line2d_7">
    <defs>
     <path id="me8b632e397" d="M 0 6.636534 
C 1.760029 6.636534 3.448209 5.937266 4.692738 4.692738 
C 5.937266 3.448209 6.636534 1.760029 6.636534 0 
C 6.636534 -1.760029 5.937266 -3.448209 4.692738 -4.692738 
C 3.448209 -5.937266 1.760029 -6.636534 0 -6.636534 
C -1.760029 -6.636534 -3.448209 -5.937266 -4.692738 -4.692738 
C -5.937266 -3.448209 -6.636534 -1.760029 -6.636534 0 
C -6.636534 1.760029 -5.937266 3.448209 -4.692738 4.692738 
C -3.448209 5.937266 -1.760029 6.636534 0 6.636534 
z
" style="stroke: #000000"/>
    </defs>
    <g clip-path="url(#p57d3900e71)">
     <use xlink:href="#me8b632e397" x="353.824353" y="307.8" style="stroke: #000000"/>
    </g>
   </g>
   <g id="line2d_8">
    <defs>
     <path id="m99d1380741" d="M 0 6.587229 
C 1.746953 6.587229 3.422591 5.893157 4.657874 4.657874 
C 5.893157 3.422591 6.587229 1.746953 6.587229 0 
C 6.587229 -1.746953 5.893157 -3.422591 4.657874 -4.657874 
C 3.422591 -5.893157 1.746953 -6.587229 0 -6.587229 
C -1.746953 -6.587229 -3.422591 -5.893157 -4.657874 -4.657874 
C -5.893157 -3.422591 -6.587229 -1.746953 -6.587229 0 
C -6.587229 1.746953 -5.893157 3.422591 -4.657874 4.657874 
C -3.422591 5.893157 -1.746953 6.587229 0 6.587229 
z
" style="stroke: #000000"/>
    </defs>
    <g clip-path="url(#p57d3900e71)">
     <use xlink:href="#m99d1380741" x="209.806294" y="307.590695" style="stroke: #000000"/>
    </g>
   </g>
   <g id="line2d_9">
    <defs>
     <path id="m0750cff9bf" d="M 0 6.466661 
C 1.714979 6.466661 3.359947 5.785293 4.57262 4.57262 
C 5.785293 3.359947 6.466661 1.714979 6.466661 0 
C 6.466661 -1.714979 5.785293 -3.359947 4.57262 -4.57262 
C 3.359947 -5.785293 1.714979 -6.466661 0 -6.466661 
C -1.714979 -6.466661 -3.359947 -5.785293 -4.57262 -4.57262 
C -5.785293 -3.359947 -6.466661 -1.714979 -6.466661 0 
C -6.466661 1.714979 -5.785293 3.359947 -4.57262 4.57262 
C -3.359947 5.785293 -1.714979 6.466661 0 6.466661 
z
" style="stroke: #000000"/>
    </defs>
    <g clip-path="url(#p57d3900e71)">
     <use xlink:href="#m0750cff9bf" x="337.852215" y="108.088162" style="stroke: #000000"/>
    </g>
   </g>
   <g id="line2d_10">
    <defs>
     <path id="m469e2cd7d8" d="M 0 6.462777 
C 1.713949 6.462777 3.357929 5.781818 4.569874 4.569874 
C 5.781818 3.357929 6.462777 1.713949 6.462777 0 
C 6.462777 -1.713949 5.781818 -3.357929 4.569874 -4.569874 
C 3.357929 -5.781818 1.713949 -6.462777 0 -6.462777 
C -1.713949 -6.462777 -3.357929 -5.781818 -4.569874 -4.569874 
C -5.781818 -3.357929 -6.462777 -1.713949 -6.462777 0 
C -6.462777 1.713949 -5.781818 3.357929 -4.569874 4.569874 
C -3.357929 5.781818 -1.713949 6.462777 0 6.462777 
z
" style="stroke: #000000"/>
    </defs>
    <g clip-path="url(#p57d3900e71)">
     <use xlink:href="#m469e2cd7d8" x="418.262982" y="230.494254" style="stroke: #000000"/>
    </g>
   </g>
  </g>
 </g>
 <defs>
  <clipPath id="p57d3900e71">
   <path d="M 103.001052 320.4 
L 103.001052 43.2 
L 634.998948 43.2 
L 634.998948 320.4 
L 103.001052 320.4 
"/>
  </clipPath>
 </defs>
</svg>
