<?xml version="1.0" encoding="utf-8" standalone="no"?>
<!DOCTYPE svg PUBLIC "-//W3C//DTD SVG 1.1//EN"
  "http://www.w3.org/Graphics/SVG/1.1/DTD/svg11.dtd">
<svg xmlns:xlink="http://www.w3.org/1999/xlink" width="720pt" height="360pt" viewBox="0 0 720 360" xmlns="http://www.w3.org/2000/svg" version="1.1">
 <metadata>
  <rdf:RDF xmlns:dc="http://purl.org/dc/elements/1.1/" xmlns:cc="http://creativecommons.org/ns#" xmlns:rdf="http://www.w3.org/1999/02/22-rdf-syntax-ns#">
   <cc:Work>
    <dc:type rdf:resource="http://purl.org/dc/dcmitype/StillImage"/>
    <dc:date>2023-11-30T21:30:53.739633</dc:date>
    <dc:format>image/svg+xml</dc:format>
    <dc:creator>
     <cc:Agent>
      <dc:title>Matplotlib v3.8.1, https://matplotlib.org/</dc:title>
     </cc:Agent>
    </dc:creator>
   </cc:Work>
  </rdf:RDF>
 </metadata>
 <defs>
  <style type="text/css">*{stroke-linejoin: round; stroke-linecap: butt}</style>
 </defs>
 <g id="figure_1">
  <g id="patch_1">
   <path d="M 0 360 
L 720 360 
L 720 0 
L 0 0 
z
" style="fill: #ffffff"/>
  </g>
  <g id="axes_1">
   <g id="patch_2">
    <path d="M 229.937991 320.4 
L 229.937991 43.2 
L 508.062009 43.2 
L 508.062009 320.4 
L 229.937991 320.4 
" style="fill: #ffffff"/>
   </g>
   <g id="line2d_1">
    <defs>
     <path id="m15c0b86200" d="M 0 8.921206 
C 2.365931 8.921206 4.635279 7.981211 6.308245 6.308245 
C 7.981211 4.635279 8.921206 2.365931 8.921206 0 
C 8.921206 -2.365931 7.981211 -4.635279 6.308245 -6.308245 
C 4.635279 -7.981211 2.365931 -8.921206 0 -8.921206 
C -2.365931 -8.921206 -4.635279 -7.981211 -6.308245 -6.308245 
C -7.981211 -4.635279 -8.921206 -2.365931 -8.921206 0 
C -8.921206 2.365931 -7.981211 4.635279 -6.308245 6.308245 
C -4.635279 7.981211 -2.365931 8.921206 0 8.921206 
z
" style="stroke: #000000"/>
    </defs>
    <g clip-path="url(#p5dc9fe4ea0)">
     <use xlink:href="#m15c0b86200" x="368.133509" y="113.903949" style="stroke: #000000"/>
    </g>
   </g>
   <g id="line2d_2">
    <defs>
     <path id="m5119613e30" d="M 0 7.723848 
C 2.048389 7.723848 4.013156 6.910015 5.461586 5.461586 
C 6.910015 4.013156 7.723848 2.048389 7.723848 0 
C 7.723848 -2.048389 6.910015 -4.013156 5.461586 -5.461586 
C 4.013156 -6.910015 2.048389 -7.723848 0 -7.723848 
C -2.048389 -7.723848 -4.013156 -6.910015 -5.461586 -5.461586 
C -6.910015 -4.013156 -7.723848 -2.048389 -7.723848 0 
C -7.723848 2.048389 -6.910015 4.013156 -5.461586 5.461586 
C -4.013156 6.910015 -2.048389 7.723848 0 7.723848 
z
" style="stroke: #000000"/>
    </defs>
    <g clip-path="url(#p5dc9fe4ea0)">
     <use xlink:href="#m5119613e30" x="348.964676" y="214.386942" style="stroke: #000000"/>
    </g>
   </g>
   <g id="line2d_3">
    <defs>
     <path id="m8c5f0dd341" d="M 0 7.548358 
C 2.001848 7.548358 3.921975 6.753015 5.337495 5.337495 
C 6.753015 3.921975 7.548358 2.001848 7.548358 0 
C 7.548358 -2.001848 6.753015 -3.921975 5.337495 -5.337495 
C 3.921975 -6.753015 2.001848 -7.548358 0 -7.548358 
C -2.001848 -7.548358 -3.921975 -6.753015 -5.337495 -5.337495 
C -6.753015 -3.921975 -7.548358 -2.001848 -7.548358 0 
C -7.548358 2.001848 -6.753015 3.921975 -5.337495 5.337495 
C -3.921975 6.753015 -2.001848 7.548358 0 7.548358 
z
" style="stroke: #000000"/>
    </defs>
    <g clip-path="url(#p5dc9fe4ea0)">
     <use xlink:href="#m8c5f0dd341" x="448.68249" y="184.142166" style="stroke: #000000"/>
    </g>
   </g>
   <g id="line2d_4">
    <defs>
     <path id="m38facd5795" d="M 0 6.801871 
C 1.803877 6.801871 3.534115 6.085183 4.809649 4.809649 
C 6.085183 3.534115 6.801871 1.803877 6.801871 0 
C 6.801871 -1.803877 6.085183 -3.534115 4.809649 -4.809649 
C 3.534115 -6.085183 1.803877 -6.801871 0 -6.801871 
C -1.803877 -6.801871 -3.534115 -6.085183 -4.809649 -4.809649 
C -6.085183 -3.534115 -6.801871 -1.803877 -6.801871 0 
C -6.801871 1.803877 -6.085183 3.534115 -4.809649 4.809649 
C -3.534115 6.085183 -1.803877 6.801871 0 6.801871 
z
" style="stroke: #000000"/>
    </defs>
    <g clip-path="url(#p5dc9fe4ea0)">
     <use xlink:href="#m38facd5795" x="323.651518" y="55.8" style="stroke: #000000"/>
    </g>
   </g>
   <g id="line2d_5">
    <defs>
     <path id="m08e427c7fc" d="M 0 6.722895 
C 1.782933 6.722895 3.493081 6.014529 4.753805 4.753805 
C 6.014529 3.493081 6.722895 1.782933 6.722895 0 
C 6.722895 -1.782933 6.014529 -3.493081 4.753805 -4.753805 
C 3.493081 -6.014529 1.782933 -6.722895 0 -6.722895 
C -1.782933 -6.722895 -3.493081 -6.014529 -4.753805 -4.753805 
C -6.014529 -3.493081 -6.722895 -1.782933 -6.722895 0 
C -6.722895 1.782933 -6.014529 3.493081 -4.753805 4.753805 
C -3.493081 6.014529 -1.782933 6.722895 0 6.722895 
z
" style="stroke: #000000"/>
    </defs>
    <g clip-path="url(#p5dc9fe4ea0)">
     <use xlink:href="#m08e427c7fc" x="309.233557" y="163.950183" style="stroke: #000000"/>
    </g>
   </g>
   <g id="line2d_6">
    <defs>
     <path id="m57260dad08" d="M 0 6.258342 
C 1.659732 6.258342 3.251709 5.598924 4.425316 4.425316 
C 5.598924 3.251709 6.258342 1.659732 6.258342 0 
C 6.258342 -1.659732 5.598924 -3.251709 4.425316 -4.425316 
C 3.251709 -5.598924 1.659732 -6.258342 0 -6.258342 
C -1.659732 -6.258342 -3.251709 -5.598924 -4.425316 -4.425316 
C -5.598924 -3.251709 -6.258342 -1.659732 -6.258342 0 
C -6.258342 1.659732 -5.598924 3.251709 -4.425316 4.425316 
C -3.251709 5.598924 -1.659732 6.258342 0 6.258342 
z
" style="stroke: #000000"/>
    </defs>
    <g clip-path="url(#p5dc9fe4ea0)">
     <use xlink:href="#m57260dad08" x="495.420008" y="231.750365" style="stroke: #000000"/>
    </g>
   </g>
   <g id="line2d_7">
    <defs>
     <path id="m1ccccee4c5" d="M 0 6.248801 
C 1.657201 6.248801 3.246751 5.590388 4.41857 4.41857 
C 5.590388 3.246751 6.248801 1.657201 6.248801 0 
C 6.248801 -1.657201 5.590388 -3.246751 4.41857 -4.41857 
C 3.246751 -5.590388 1.657201 -6.248801 0 -6.248801 
C -1.657201 -6.248801 -3.246751 -5.590388 -4.41857 -4.41857 
C -5.590388 -3.246751 -6.248801 -1.657201 -6.248801 0 
C -6.248801 1.657201 -5.590388 3.246751 -4.41857 4.41857 
C -3.246751 5.590388 -1.657201 6.248801 0 6.248801 
z
" style="stroke: #000000"/>
    </defs>
    <g clip-path="url(#p5dc9fe4ea0)">
     <use xlink:href="#m1ccccee4c5" x="446.174524" y="181.238523" style="stroke: #000000"/>
    </g>
   </g>
   <g id="line2d_8">
    <defs>
     <path id="m3aa5b76cfb" d="M 0 6.124557 
C 1.624251 6.124557 3.182196 5.479235 4.330716 4.330716 
C 5.479235 3.182196 6.124557 1.624251 6.124557 0 
C 6.124557 -1.624251 5.479235 -3.182196 4.330716 -4.330716 
C 3.182196 -5.479235 1.624251 -6.124557 0 -6.124557 
C -1.624251 -6.124557 -3.182196 -5.479235 -4.330716 -4.330716 
C -5.479235 -3.182196 -6.124557 -1.624251 -6.124557 0 
C -6.124557 1.624251 -5.479235 3.182196 -4.330716 4.330716 
C -3.182196 5.479235 -1.624251 6.124557 0 6.124557 
z
" style="stroke: #000000"/>
    </defs>
    <g clip-path="url(#p5dc9fe4ea0)">
     <use xlink:href="#m3aa5b76cfb" x="397.600524" y="129.405994" style="stroke: #000000"/>
    </g>
   </g>
   <g id="line2d_9">
    <defs>
     <path id="m15af3317b7" d="M 0 6.018259 
C 1.596061 6.018259 3.126966 5.384137 4.255551 4.255551 
C 5.384137 3.126966 6.018259 1.596061 6.018259 0 
C 6.018259 -1.596061 5.384137 -3.126966 4.255551 -4.255551 
C 3.126966 -5.384137 1.596061 -6.018259 0 -6.018259 
C -1.596061 -6.018259 -3.126966 -5.384137 -4.255551 -4.255551 
C -5.384137 -3.126966 -6.018259 -1.596061 -6.018259 0 
C -6.018259 1.596061 -5.384137 3.126966 -4.255551 4.255551 
C -3.126966 5.384137 -1.596061 6.018259 0 6.018259 
z
" style="stroke: #000000"/>
    </defs>
    <g clip-path="url(#p5dc9fe4ea0)">
     <use xlink:href="#m15af3317b7" x="242.579992" y="307.8" style="stroke: #000000"/>
    </g>
   </g>
   <g id="line2d_10">
    <defs>
     <path id="mff15f7ed2c" d="M 0 5.99753 
C 1.590564 5.99753 3.116196 5.365593 4.240894 4.240894 
C 5.365593 3.116196 5.99753 1.590564 5.99753 0 
C 5.99753 -1.590564 5.365593 -3.116196 4.240894 -4.240894 
C 3.116196 -5.365593 1.590564 -5.99753 0 -5.99753 
C -1.590564 -5.99753 -3.116196 -5.365593 -4.240894 -4.240894 
C -5.365593 -3.116196 -5.99753 -1.590564 -5.99753 0 
C -5.99753 1.590564 -5.365593 3.116196 -4.240894 4.240894 
C -3.116196 5.365593 -1.590564 5.99753 0 5.99753 
z
" style="stroke: #000000"/>
    </defs>
    <g clip-path="url(#p5dc9fe4ea0)">
     <use xlink:href="#mff15f7ed2c" x="333.531917" y="109.782192" style="stroke: #000000"/>
    </g>
   </g>
  </g>
 </g>
 <defs>
  <clipPath id="p5dc9fe4ea0">
   <path d="M 229.937991 320.4 
L 229.937991 43.2 
L 508.062009 43.2 
L 508.062009 320.4 
L 229.937991 320.4 
"/>
  </clipPath>
 </defs>
</svg>
