<?xml version="1.0" encoding="utf-8" standalone="no"?>
<!DOCTYPE svg PUBLIC "-//W3C//DTD SVG 1.1//EN"
  "http://www.w3.org/Graphics/SVG/1.1/DTD/svg11.dtd">
<svg xmlns:xlink="http://www.w3.org/1999/xlink" width="720pt" height="360pt" viewBox="0 0 720 360" xmlns="http://www.w3.org/2000/svg" version="1.1">
 <metadata>
  <rdf:RDF xmlns:dc="http://purl.org/dc/elements/1.1/" xmlns:cc="http://creativecommons.org/ns#" xmlns:rdf="http://www.w3.org/1999/02/22-rdf-syntax-ns#">
   <cc:Work>
    <dc:type rdf:resource="http://purl.org/dc/dcmitype/StillImage"/>
    <dc:date>2023-11-30T21:30:45.491933</dc:date>
    <dc:format>image/svg+xml</dc:format>
    <dc:creator>
     <cc:Agent>
      <dc:title>Matplotlib v3.8.1, https://matplotlib.org/</dc:title>
     </cc:Agent>
    </dc:creator>
   </cc:Work>
  </rdf:RDF>
 </metadata>
 <defs>
  <style type="text/css">*{stroke-linejoin: round; stroke-linecap: butt}</style>
 </defs>
 <g id="figure_1">
  <g id="patch_1">
   <path d="M 0 360 
L 720 360 
L 720 0 
L 0 0 
z
" style="fill: #ffffff"/>
  </g>
  <g id="axes_1">
   <g id="patch_2">
    <path d="M 167.945086 320.4 
L 167.945086 43.2 
L 570.054914 43.2 
L 570.054914 320.4 
L 167.945086 320.4 
" style="fill: #ffffff"/>
   </g>
   <g id="line2d_1">
    <defs>
     <path id="m667a535430" d="M 0 11.417545 
C 3.027968 11.417545 5.932326 10.21452 8.073423 8.073423 
C 10.21452 5.932326 11.417545 3.027968 11.417545 0 
C 11.417545 -3.027968 10.21452 -5.932326 8.073423 -8.073423 
C 5.932326 -10.21452 3.027968 -11.417545 0 -11.417545 
C -3.027968 -11.417545 -5.932326 -10.21452 -8.073423 -8.073423 
C -10.21452 -5.932326 -11.417545 -3.027968 -11.417545 0 
C -11.417545 3.027968 -10.21452 5.932326 -8.073423 8.073423 
C -5.932326 10.21452 -3.027968 11.417545 0 11.417545 
z
" style="stroke: #000000"/>
    </defs>
    <g clip-path="url(#pa24948ca97)">
     <use xlink:href="#m667a535430" x="452.978356" y="307.8" style="stroke: #000000"/>
    </g>
   </g>
   <g id="line2d_2">
    <defs>
     <path id="m46f69bd9ff" d="M 0 10.567573 
C 2.802553 10.567573 5.490698 9.454107 7.472403 7.472403 
C 9.454107 5.490698 10.567573 2.802553 10.567573 0 
C 10.567573 -2.802553 9.454107 -5.490698 7.472403 -7.472403 
C 5.490698 -9.454107 2.802553 -10.567573 0 -10.567573 
C -2.802553 -10.567573 -5.490698 -9.454107 -7.472403 -7.472403 
C -9.454107 -5.490698 -10.567573 -2.802553 -10.567573 0 
C -10.567573 2.802553 -9.454107 5.490698 -7.472403 7.472403 
C -5.490698 9.454107 -2.802553 10.567573 0 10.567573 
z
" style="stroke: #000000"/>
    </defs>
    <g clip-path="url(#pa24948ca97)">
     <use xlink:href="#m46f69bd9ff" x="464.325186" y="253.677256" style="stroke: #000000"/>
    </g>
   </g>
   <g id="line2d_3">
    <defs>
     <path id="meb18f920ce" d="M 0 9.93393 
C 2.634509 9.93393 5.16147 8.887228 7.024349 7.024349 
C 8.887228 5.16147 9.93393 2.634509 9.93393 0 
C 9.93393 -2.634509 8.887228 -5.16147 7.024349 -7.024349 
C 5.16147 -8.887228 2.634509 -9.93393 0 -9.93393 
C -2.634509 -9.93393 -5.16147 -8.887228 -7.024349 -7.024349 
C -8.887228 -5.16147 -9.93393 -2.634509 -9.93393 0 
C -9.93393 2.634509 -8.887228 5.16147 -7.024349 7.024349 
C -5.16147 8.887228 -2.634509 9.93393 0 9.93393 
z
" style="stroke: #000000"/>
    </defs>
    <g clip-path="url(#pa24948ca97)">
     <use xlink:href="#meb18f920ce" x="412.896732" y="294.84578" style="stroke: #000000"/>
    </g>
   </g>
   <g id="line2d_4">
    <defs>
     <path id="m98b6bee864" d="M 0 9.477094 
C 2.513355 9.477094 4.924107 8.478527 6.701317 6.701317 
C 8.478527 4.924107 9.477094 2.513355 9.477094 0 
C 9.477094 -2.513355 8.478527 -4.924107 6.701317 -6.701317 
C 4.924107 -8.478527 2.513355 -9.477094 0 -9.477094 
C -2.513355 -9.477094 -4.924107 -8.478527 -6.701317 -6.701317 
C -8.478527 -4.924107 -9.477094 -2.513355 -9.477094 0 
C -9.477094 2.513355 -8.478527 4.924107 -6.701317 6.701317 
C -4.924107 8.478527 -2.513355 9.477094 0 9.477094 
z
" style="stroke: #000000"/>
    </defs>
    <g clip-path="url(#pa24948ca97)">
     <use xlink:href="#m98b6bee864" x="186.222805" y="147.674466" style="stroke: #000000"/>
    </g>
   </g>
   <g id="line2d_5">
    <defs>
     <path id="m9dafab6c14" d="M 0 9.458827 
C 2.50851 9.458827 4.914616 8.462186 6.688401 6.688401 
C 8.462186 4.914616 9.458827 2.50851 9.458827 0 
C 9.458827 -2.50851 8.462186 -4.914616 6.688401 -6.688401 
C 4.914616 -8.462186 2.50851 -9.458827 0 -9.458827 
C -2.50851 -9.458827 -4.914616 -8.462186 -6.688401 -6.688401 
C -8.462186 -4.914616 -9.458827 -2.50851 -9.458827 0 
C -9.458827 2.50851 -8.462186 4.914616 -6.688401 6.688401 
C -4.914616 8.462186 -2.50851 9.458827 0 9.458827 
z
" style="stroke: #000000"/>
    </defs>
    <g clip-path="url(#pa24948ca97)">
     <use xlink:href="#m9dafab6c14" x="464.325186" y="159.565243" style="stroke: #000000"/>
    </g>
   </g>
   <g id="line2d_6">
    <defs>
     <path id="mb245ffca0b" d="M 0 9.369463 
C 2.484811 9.369463 4.868185 8.382238 6.625211 6.625211 
C 8.382238 4.868185 9.369463 2.484811 9.369463 0 
C 9.369463 -2.484811 8.382238 -4.868185 6.625211 -6.625211 
C 4.868185 -8.382238 2.484811 -9.369463 0 -9.369463 
C -2.484811 -9.369463 -4.868185 -8.382238 -6.625211 -6.625211 
C -8.382238 -4.868185 -9.369463 -2.484811 -9.369463 0 
C -9.369463 2.484811 -8.382238 4.868185 -6.625211 6.625211 
C -4.868185 8.382238 -2.484811 9.369463 0 9.369463 
z
" style="stroke: #000000"/>
    </defs>
    <g clip-path="url(#pa24948ca97)">
     <use xlink:href="#mb245ffca0b" x="482.97391" y="167.713254" style="stroke: #000000"/>
    </g>
   </g>
   <g id="line2d_7">
    <defs>
     <path id="m1de1bf670a" d="M 0 9.327718 
C 2.47374 9.327718 4.846495 8.344891 6.595693 6.595693 
C 8.344891 4.846495 9.327718 2.47374 9.327718 0 
C 9.327718 -2.47374 8.344891 -4.846495 6.595693 -6.595693 
C 4.846495 -8.344891 2.47374 -9.327718 0 -9.327718 
C -2.47374 -9.327718 -4.846495 -8.344891 -6.595693 -6.595693 
C -8.344891 -4.846495 -9.327718 -2.47374 -9.327718 0 
C -9.327718 2.47374 -8.344891 4.846495 -6.595693 6.595693 
C -4.846495 8.344891 -2.47374 9.327718 0 9.327718 
z
" style="stroke: #000000"/>
    </defs>
    <g clip-path="url(#pa24948ca97)">
     <use xlink:href="#m1de1bf670a" x="551.777195" y="237.839806" style="stroke: #000000"/>
    </g>
   </g>
   <g id="line2d_8">
    <defs>
     <path id="mba662ece02" d="M 0 9.169544 
C 2.431792 9.169544 4.764311 8.203383 6.483847 6.483847 
C 8.203383 4.764311 9.169544 2.431792 9.169544 0 
C 9.169544 -2.431792 8.203383 -4.764311 6.483847 -6.483847 
C 4.764311 -8.203383 2.431792 -9.169544 0 -9.169544 
C -2.431792 -9.169544 -4.764311 -8.203383 -6.483847 -6.483847 
C -8.203383 -4.764311 -9.169544 -2.431792 -9.169544 0 
C -9.169544 2.431792 -8.203383 4.764311 -6.483847 6.483847 
C -4.764311 8.203383 -2.431792 9.169544 0 9.169544 
z
" style="stroke: #000000"/>
    </defs>
    <g clip-path="url(#pa24948ca97)">
     <use xlink:href="#mba662ece02" x="405.804964" y="180.817136" style="stroke: #000000"/>
    </g>
   </g>
   <g id="line2d_9">
    <defs>
     <path id="m8ce88594d1" d="M 0 9.09586 
C 2.41225 9.09586 4.726026 8.137463 6.431744 6.431744 
C 8.137463 4.726026 9.09586 2.41225 9.09586 0 
C 9.09586 -2.41225 8.137463 -4.726026 6.431744 -6.431744 
C 4.726026 -8.137463 2.41225 -9.09586 0 -9.09586 
C -2.41225 -9.09586 -4.726026 -8.137463 -6.431744 -6.431744 
C -8.137463 -4.726026 -9.09586 -2.41225 -9.09586 0 
C -9.09586 2.41225 -8.137463 4.726026 -6.431744 6.431744 
C -4.726026 8.137463 -2.41225 9.09586 0 9.09586 
z
" style="stroke: #000000"/>
    </defs>
    <g clip-path="url(#pa24948ca97)">
     <use xlink:href="#m8ce88594d1" x="372.342324" y="176.45398" style="stroke: #000000"/>
    </g>
   </g>
   <g id="line2d_10">
    <defs>
     <path id="m5d60b9344f" d="M 0 9.053693 
C 2.401067 9.053693 4.704117 8.099739 6.401928 6.401928 
C 8.099739 4.704117 9.053693 2.401067 9.053693 0 
C 9.053693 -2.401067 8.099739 -4.704117 6.401928 -6.401928 
C 4.704117 -8.099739 2.401067 -9.053693 0 -9.053693 
C -2.401067 -9.053693 -4.704117 -8.099739 -6.401928 -6.401928 
C -8.099739 -4.704117 -9.053693 -2.401067 -9.053693 0 
C -9.053693 2.401067 -8.099739 4.704117 -6.401928 6.401928 
C -4.704117 8.099739 -2.401067 9.053693 0 9.053693 
z
" style="stroke: #000000"/>
    </defs>
    <g clip-path="url(#pa24948ca97)">
     <use xlink:href="#m5d60b9344f" x="226.632751" y="55.8" style="stroke: #000000"/>
    </g>
   </g>
  </g>
 </g>
 <defs>
  <clipPath id="pa24948ca97">
   <path d="M 167.945086 320.4 
L 167.945086 43.2 
L 570.054914 43.2 
L 570.054914 320.4 
L 167.945086 320.4 
"/>
  </clipPath>
 </defs>
</svg>
