<?xml version="1.0" encoding="utf-8" standalone="no"?>
<!DOCTYPE svg PUBLIC "-//W3C//DTD SVG 1.1//EN"
  "http://www.w3.org/Graphics/SVG/1.1/DTD/svg11.dtd">
<svg xmlns:xlink="http://www.w3.org/1999/xlink" width="720pt" height="360pt" viewBox="0 0 720 360" xmlns="http://www.w3.org/2000/svg" version="1.1">
 <metadata>
  <rdf:RDF xmlns:dc="http://purl.org/dc/elements/1.1/" xmlns:cc="http://creativecommons.org/ns#" xmlns:rdf="http://www.w3.org/1999/02/22-rdf-syntax-ns#">
   <cc:Work>
    <dc:type rdf:resource="http://purl.org/dc/dcmitype/StillImage"/>
    <dc:date>2023-11-30T21:30:45.532816</dc:date>
    <dc:format>image/svg+xml</dc:format>
    <dc:creator>
     <cc:Agent>
      <dc:title>Matplotlib v3.8.1, https://matplotlib.org/</dc:title>
     </cc:Agent>
    </dc:creator>
   </cc:Work>
  </rdf:RDF>
 </metadata>
 <defs>
  <style type="text/css">*{stroke-linejoin: round; stroke-linecap: butt}</style>
 </defs>
 <g id="figure_1">
  <g id="patch_1">
   <path d="M 0 360 
L 720 360 
L 720 0 
L 0 0 
z
" style="fill: #ffffff"/>
  </g>
  <g id="axes_1">
   <g id="patch_2">
    <path d="M 291.941593 320.4 
L 291.941593 43.2 
L 446.058407 43.2 
L 446.058407 320.4 
L 291.941593 320.4 
" style="fill: #ffffff"/>
   </g>
   <g id="line2d_1">
    <defs>
     <path id="m2707ba2262" d="M 0 9.849272 
C 2.612057 9.849272 5.117483 8.81149 6.964487 6.964487 
C 8.81149 5.117483 9.849272 2.612057 9.849272 0 
C 9.849272 -2.612057 8.81149 -5.117483 6.964487 -6.964487 
C 5.117483 -8.81149 2.612057 -9.849272 0 -9.849272 
C -2.612057 -9.849272 -5.117483 -8.81149 -6.964487 -6.964487 
C -8.81149 -5.117483 -9.849272 -2.612057 -9.849272 0 
C -9.849272 2.612057 -8.81149 5.117483 -6.964487 6.964487 
C -5.117483 8.81149 -2.612057 9.849272 0 9.849272 
z
" style="stroke: #000000"/>
    </defs>
    <g clip-path="url(#p529d4bf81e)">
     <use xlink:href="#m2707ba2262" x="378.461277" y="230.121673" style="stroke: #000000"/>
    </g>
   </g>
   <g id="line2d_2">
    <defs>
     <path id="m16b94195f9" d="M 0 9.805955 
C 2.60057 9.805955 5.094977 8.772738 6.933858 6.933858 
C 8.772738 5.094977 9.805955 2.60057 9.805955 0 
C 9.805955 -2.60057 8.772738 -5.094977 6.933858 -6.933858 
C 5.094977 -8.772738 2.60057 -9.805955 0 -9.805955 
C -2.60057 -9.805955 -5.094977 -8.772738 -6.933858 -6.933858 
C -8.772738 -5.094977 -9.805955 -2.60057 -9.805955 0 
C -9.805955 2.60057 -8.772738 5.094977 -6.933858 6.933858 
C -5.094977 8.772738 -2.60057 9.805955 0 9.805955 
z
" style="stroke: #000000"/>
    </defs>
    <g clip-path="url(#p529d4bf81e)">
     <use xlink:href="#m16b94195f9" x="298.946903" y="88.043229" style="stroke: #000000"/>
    </g>
   </g>
   <g id="line2d_3">
    <defs>
     <path id="m7a66507478" d="M 0 8.880282 
C 2.355078 8.880282 4.614016 7.944599 6.279308 6.279308 
C 7.944599 4.614016 8.880282 2.355078 8.880282 0 
C 8.880282 -2.355078 7.944599 -4.614016 6.279308 -6.279308 
C 4.614016 -7.944599 2.355078 -8.880282 0 -8.880282 
C -2.355078 -8.880282 -4.614016 -7.944599 -6.279308 -6.279308 
C -7.944599 -4.614016 -8.880282 -2.355078 -8.880282 0 
C -8.880282 2.355078 -7.944599 4.614016 -6.279308 6.279308 
C -4.614016 7.944599 -2.355078 8.880282 0 8.880282 
z
" style="stroke: #000000"/>
    </defs>
    <g clip-path="url(#p529d4bf81e)">
     <use xlink:href="#m7a66507478" x="419.72529" y="62.415336" style="stroke: #000000"/>
    </g>
   </g>
   <g id="line2d_4">
    <defs>
     <path id="mb2b80fbb2c" d="M 0 8.542887 
C 2.2656 8.542887 4.438712 7.642754 6.040733 6.040733 
C 7.642754 4.438712 8.542887 2.2656 8.542887 0 
C 8.542887 -2.2656 7.642754 -4.438712 6.040733 -6.040733 
C 4.438712 -7.642754 2.2656 -8.542887 0 -8.542887 
C -2.2656 -8.542887 -4.438712 -7.642754 -6.040733 -6.040733 
C -7.642754 -4.438712 -8.542887 -2.2656 -8.542887 0 
C -8.542887 2.2656 -7.642754 4.438712 -6.040733 6.040733 
C -4.438712 7.642754 -2.2656 8.542887 0 8.542887 
z
" style="stroke: #000000"/>
    </defs>
    <g clip-path="url(#p529d4bf81e)">
     <use xlink:href="#mb2b80fbb2c" x="305.942154" y="76.988312" style="stroke: #000000"/>
    </g>
   </g>
   <g id="line2d_5">
    <defs>
     <path id="md5f3b80e52" d="M 0 8.310647 
C 2.204009 8.310647 4.318045 7.434985 5.876515 5.876515 
C 7.434985 4.318045 8.310647 2.204009 8.310647 0 
C 8.310647 -2.204009 7.434985 -4.318045 5.876515 -5.876515 
C 4.318045 -7.434985 2.204009 -8.310647 0 -8.310647 
C -2.204009 -8.310647 -4.318045 -7.434985 -5.876515 -5.876515 
C -7.434985 -4.318045 -8.310647 -2.204009 -8.310647 0 
C -8.310647 2.204009 -7.434985 4.318045 -5.876515 5.876515 
C -4.318045 7.434985 -2.204009 8.310647 0 8.310647 
z
" style="stroke: #000000"/>
    </defs>
    <g clip-path="url(#p529d4bf81e)">
     <use xlink:href="#md5f3b80e52" x="320.813137" y="98.481112" style="stroke: #000000"/>
    </g>
   </g>
   <g id="line2d_6">
    <defs>
     <path id="mce956bd790" d="M 0 8.105649 
C 2.149643 8.105649 4.211532 7.251587 5.73156 5.73156 
C 7.251587 4.211532 8.105649 2.149643 8.105649 0 
C 8.105649 -2.149643 7.251587 -4.211532 5.73156 -5.73156 
C 4.211532 -7.251587 2.149643 -8.105649 0 -8.105649 
C -2.149643 -8.105649 -4.211532 -7.251587 -5.73156 -5.73156 
C -7.251587 -4.211532 -8.105649 -2.149643 -8.105649 0 
C -8.105649 2.149643 -7.251587 4.211532 -5.73156 5.73156 
C -4.211532 7.251587 -2.149643 8.105649 0 8.105649 
z
" style="stroke: #000000"/>
    </defs>
    <g clip-path="url(#p529d4bf81e)">
     <use xlink:href="#mce956bd790" x="380.014265" y="307.8" style="stroke: #000000"/>
    </g>
   </g>
   <g id="line2d_7">
    <defs>
     <path id="mb6c57e59d1" d="M 0 7.92158 
C 2.100828 7.92158 4.115894 7.086913 5.601403 5.601403 
C 7.086913 4.115894 7.92158 2.100828 7.92158 0 
C 7.92158 -2.100828 7.086913 -4.115894 5.601403 -5.601403 
C 4.115894 -7.086913 2.100828 -7.92158 0 -7.92158 
C -2.100828 -7.92158 -4.115894 -7.086913 -5.601403 -5.601403 
C -7.086913 -4.115894 -7.92158 -2.100828 -7.92158 0 
C -7.92158 2.100828 -7.086913 4.115894 -5.601403 5.601403 
C -4.115894 7.086913 -2.100828 7.92158 0 7.92158 
z
" style="stroke: #000000"/>
    </defs>
    <g clip-path="url(#p529d4bf81e)">
     <use xlink:href="#mb6c57e59d1" x="336.605417" y="193.29379" style="stroke: #000000"/>
    </g>
   </g>
   <g id="line2d_8">
    <defs>
     <path id="m12d9cdf68c" d="M 0 7.775584 
C 2.062109 7.775584 4.040037 6.956299 5.498168 5.498168 
C 6.956299 4.040037 7.775584 2.062109 7.775584 0 
C 7.775584 -2.062109 6.956299 -4.040037 5.498168 -5.498168 
C 4.040037 -6.956299 2.062109 -7.775584 0 -7.775584 
C -2.062109 -7.775584 -4.040037 -6.956299 -5.498168 -5.498168 
C -6.956299 -4.040037 -7.775584 -2.062109 -7.775584 0 
C -7.775584 2.062109 -6.956299 4.040037 -5.498168 5.498168 
C -4.040037 6.956299 -2.062109 7.775584 0 7.775584 
z
" style="stroke: #000000"/>
    </defs>
    <g clip-path="url(#p529d4bf81e)">
     <use xlink:href="#m12d9cdf68c" x="308.210411" y="55.8" style="stroke: #000000"/>
    </g>
   </g>
   <g id="line2d_9">
    <defs>
     <path id="m236910e84f" d="M 0 7.743983 
C 2.053728 7.743983 4.023618 6.928028 5.475823 5.475823 
C 6.928028 4.023618 7.743983 2.053728 7.743983 0 
C 7.743983 -2.053728 6.928028 -4.023618 5.475823 -5.475823 
C 4.023618 -6.928028 2.053728 -7.743983 0 -7.743983 
C -2.053728 -7.743983 -4.023618 -6.928028 -5.475823 -5.475823 
C -6.928028 -4.023618 -7.743983 -2.053728 -7.743983 0 
C -7.743983 2.053728 -6.928028 4.023618 -5.475823 5.475823 
C -4.023618 6.928028 -2.053728 7.743983 0 7.743983 
z
" style="stroke: #000000"/>
    </defs>
    <g clip-path="url(#p529d4bf81e)">
     <use xlink:href="#m236910e84f" x="309.474766" y="95.142008" style="stroke: #000000"/>
    </g>
   </g>
   <g id="line2d_10">
    <defs>
     <path id="m5e58cc20b5" d="M 0 7.725606 
C 2.048855 7.725606 4.014069 6.911587 5.462828 5.462828 
C 6.911587 4.014069 7.725606 2.048855 7.725606 0 
C 7.725606 -2.048855 6.911587 -4.014069 5.462828 -5.462828 
C 4.014069 -6.911587 2.048855 -7.725606 0 -7.725606 
C -2.048855 -7.725606 -4.014069 -6.911587 -5.462828 -5.462828 
C -6.911587 -4.014069 -7.725606 -2.048855 -7.725606 0 
C -7.725606 2.048855 -6.911587 4.014069 -5.462828 5.462828 
C -4.014069 6.911587 -2.048855 7.725606 0 7.725606 
z
" style="stroke: #000000"/>
    </defs>
    <g clip-path="url(#p529d4bf81e)">
     <use xlink:href="#m5e58cc20b5" x="439.053097" y="234.946968" style="stroke: #000000"/>
    </g>
   </g>
  </g>
 </g>
 <defs>
  <clipPath id="p529d4bf81e">
   <path d="M 291.941593 320.4 
L 291.941593 43.2 
L 446.058407 43.2 
L 446.058407 320.4 
L 291.941593 320.4 
"/>
  </clipPath>
 </defs>
</svg>
