<?xml version="1.0" encoding="utf-8" standalone="no"?>
<!DOCTYPE svg PUBLIC "-//W3C//DTD SVG 1.1//EN"
  "http://www.w3.org/Graphics/SVG/1.1/DTD/svg11.dtd">
<svg xmlns:xlink="http://www.w3.org/1999/xlink" width="720pt" height="360pt" viewBox="0 0 720 360" xmlns="http://www.w3.org/2000/svg" version="1.1">
 <metadata>
  <rdf:RDF xmlns:dc="http://purl.org/dc/elements/1.1/" xmlns:cc="http://creativecommons.org/ns#" xmlns:rdf="http://www.w3.org/1999/02/22-rdf-syntax-ns#">
   <cc:Work>
    <dc:type rdf:resource="http://purl.org/dc/dcmitype/StillImage"/>
    <dc:date>2023-11-30T21:30:45.576641</dc:date>
    <dc:format>image/svg+xml</dc:format>
    <dc:creator>
     <cc:Agent>
      <dc:title>Matplotlib v3.8.1, https://matplotlib.org/</dc:title>
     </cc:Agent>
    </dc:creator>
   </cc:Work>
  </rdf:RDF>
 </metadata>
 <defs>
  <style type="text/css">*{stroke-linejoin: round; stroke-linecap: butt}</style>
 </defs>
 <g id="figure_1">
  <g id="patch_1">
   <path d="M 0 360 
L 720 360 
L 720 0 
L 0 0 
z
" style="fill: #ffffff"/>
  </g>
  <g id="axes_1">
   <g id="patch_2">
    <path d="M 162.655323 320.4 
L 162.655323 43.2 
L 575.344677 43.2 
L 575.344677 320.4 
L 162.655323 320.4 
" style="fill: #ffffff"/>
   </g>
   <g id="line2d_1">
    <defs>
     <path id="m03bb38be08" d="M 0 9.66997 
C 2.564506 9.66997 5.024322 8.651081 6.837701 6.837701 
C 8.651081 5.024322 9.66997 2.564506 9.66997 0 
C 9.66997 -2.564506 8.651081 -5.024322 6.837701 -6.837701 
C 5.024322 -8.651081 2.564506 -9.66997 0 -9.66997 
C -2.564506 -9.66997 -5.024322 -8.651081 -6.837701 -6.837701 
C -8.651081 -5.024322 -9.66997 -2.564506 -9.66997 0 
C -9.66997 2.564506 -8.651081 5.024322 -6.837701 6.837701 
C -5.024322 8.651081 -2.564506 9.66997 0 9.66997 
z
" style="stroke: #000000"/>
    </defs>
    <g clip-path="url(#p5a4bc5387f)">
     <use xlink:href="#m03bb38be08" x="346.315845" y="57.645954" style="stroke: #000000"/>
    </g>
   </g>
   <g id="line2d_2">
    <defs>
     <path id="md26a08637a" d="M 0 8.596488 
C 2.279815 8.596488 4.466562 7.690708 6.078635 6.078635 
C 7.690708 4.466562 8.596488 2.279815 8.596488 0 
C 8.596488 -2.279815 7.690708 -4.466562 6.078635 -6.078635 
C 4.466562 -7.690708 2.279815 -8.596488 0 -8.596488 
C -2.279815 -8.596488 -4.466562 -7.690708 -6.078635 -6.078635 
C -7.690708 -4.466562 -8.596488 -2.279815 -8.596488 0 
C -8.596488 2.279815 -7.690708 4.466562 -6.078635 6.078635 
C -4.466562 7.690708 -2.279815 8.596488 0 8.596488 
z
" style="stroke: #000000"/>
    </defs>
    <g clip-path="url(#p5a4bc5387f)">
     <use xlink:href="#md26a08637a" x="382.020385" y="307.8" style="stroke: #000000"/>
    </g>
   </g>
   <g id="line2d_3">
    <defs>
     <path id="m01879a4c07" d="M 0 8.360102 
C 2.217125 8.360102 4.343741 7.479229 5.911485 5.911485 
C 7.479229 4.343741 8.360102 2.217125 8.360102 0 
C 8.360102 -2.217125 7.479229 -4.343741 5.911485 -5.911485 
C 4.343741 -7.479229 2.217125 -8.360102 0 -8.360102 
C -2.217125 -8.360102 -4.343741 -7.479229 -5.911485 -5.911485 
C -7.479229 -4.343741 -8.360102 -2.217125 -8.360102 0 
C -8.360102 2.217125 -7.479229 4.343741 -5.911485 5.911485 
C -4.343741 7.479229 -2.217125 8.360102 0 8.360102 
z
" style="stroke: #000000"/>
    </defs>
    <g clip-path="url(#p5a4bc5387f)">
     <use xlink:href="#m01879a4c07" x="227.429486" y="111.408458" style="stroke: #000000"/>
    </g>
   </g>
   <g id="line2d_4">
    <defs>
     <path id="m7f66b3e9ee" d="M 0 8.102438 
C 2.148792 8.102438 4.209864 7.248714 5.729289 5.729289 
C 7.248714 4.209864 8.102438 2.148792 8.102438 0 
C 8.102438 -2.148792 7.248714 -4.209864 5.729289 -5.729289 
C 4.209864 -7.248714 2.148792 -8.102438 0 -8.102438 
C -2.148792 -8.102438 -4.209864 -7.248714 -5.729289 -5.729289 
C -7.248714 -4.209864 -8.102438 -2.148792 -8.102438 0 
C -8.102438 2.148792 -7.248714 4.209864 -5.729289 5.729289 
C -4.209864 7.248714 -2.148792 8.102438 0 8.102438 
z
" style="stroke: #000000"/>
    </defs>
    <g clip-path="url(#p5a4bc5387f)">
     <use xlink:href="#m7f66b3e9ee" x="556.58607" y="86.732369" style="stroke: #000000"/>
    </g>
   </g>
   <g id="line2d_5">
    <defs>
     <path id="m124a11074a" d="M 0 8.019267 
C 2.126734 8.019267 4.16665 7.174306 5.670478 5.670478 
C 7.174306 4.16665 8.019267 2.126734 8.019267 0 
C 8.019267 -2.126734 7.174306 -4.16665 5.670478 -5.670478 
C 4.16665 -7.174306 2.126734 -8.019267 0 -8.019267 
C -2.126734 -8.019267 -4.16665 -7.174306 -5.670478 -5.670478 
C -7.174306 -4.16665 -8.019267 -2.126734 -8.019267 0 
C -8.019267 2.126734 -7.174306 4.16665 -5.670478 5.670478 
C -4.16665 7.174306 -2.126734 8.019267 0 8.019267 
z
" style="stroke: #000000"/>
    </defs>
    <g clip-path="url(#p5a4bc5387f)">
     <use xlink:href="#m124a11074a" x="288.029732" y="242.915759" style="stroke: #000000"/>
    </g>
   </g>
   <g id="line2d_6">
    <defs>
     <path id="mac64e0d3de" d="M 0 7.877679 
C 2.089185 7.877679 4.093083 7.047637 5.57036 5.57036 
C 7.047637 4.093083 7.877679 2.089185 7.877679 0 
C 7.877679 -2.089185 7.047637 -4.093083 5.57036 -5.57036 
C 4.093083 -7.047637 2.089185 -7.877679 0 -7.877679 
C -2.089185 -7.877679 -4.093083 -7.047637 -5.57036 -5.57036 
C -7.047637 -4.093083 -7.877679 -2.089185 -7.877679 0 
C -7.877679 2.089185 -7.047637 4.093083 -5.57036 5.57036 
C -4.093083 7.047637 -2.089185 7.877679 0 7.877679 
z
" style="stroke: #000000"/>
    </defs>
    <g clip-path="url(#p5a4bc5387f)">
     <use xlink:href="#mac64e0d3de" x="357.031775" y="55.8" style="stroke: #000000"/>
    </g>
   </g>
   <g id="line2d_7">
    <defs>
     <path id="m859c5fe26b" d="M 0 7.836171 
C 2.078177 7.836171 4.071517 7.010503 5.54101 5.54101 
C 7.010503 4.071517 7.836171 2.078177 7.836171 0 
C 7.836171 -2.078177 7.010503 -4.071517 5.54101 -5.54101 
C 4.071517 -7.010503 2.078177 -7.836171 0 -7.836171 
C -2.078177 -7.836171 -4.071517 -7.010503 -5.54101 -5.54101 
C -7.010503 -4.071517 -7.836171 -2.078177 -7.836171 0 
C -7.836171 2.078177 -7.010503 4.071517 -5.54101 5.54101 
C -4.071517 7.010503 -2.078177 7.836171 0 7.836171 
z
" style="stroke: #000000"/>
    </defs>
    <g clip-path="url(#p5a4bc5387f)">
     <use xlink:href="#m859c5fe26b" x="181.41393" y="161.516797" style="stroke: #000000"/>
    </g>
   </g>
   <g id="line2d_8">
    <defs>
     <path id="m3329d06da6" d="M 0 7.728915 
C 2.049732 7.728915 4.015789 6.914548 5.465168 5.465168 
C 6.914548 4.015789 7.728915 2.049732 7.728915 0 
C 7.728915 -2.049732 6.914548 -4.015789 5.465168 -5.465168 
C 4.015789 -6.914548 2.049732 -7.728915 0 -7.728915 
C -2.049732 -7.728915 -4.015789 -6.914548 -5.465168 -5.465168 
C -6.914548 -4.015789 -7.728915 -2.049732 -7.728915 0 
C -7.728915 2.049732 -6.914548 4.015789 -5.465168 5.465168 
C -4.015789 6.914548 -2.049732 7.728915 0 7.728915 
z
" style="stroke: #000000"/>
    </defs>
    <g clip-path="url(#p5a4bc5387f)">
     <use xlink:href="#m3329d06da6" x="504.068644" y="129.650215" style="stroke: #000000"/>
    </g>
   </g>
   <g id="line2d_9">
    <defs>
     <path id="mc19e7e6d43" d="M 0 7.676815 
C 2.035915 7.676815 3.988718 6.867937 5.428328 5.428328 
C 6.867937 3.988718 7.676815 2.035915 7.676815 0 
C 7.676815 -2.035915 6.867937 -3.988718 5.428328 -5.428328 
C 3.988718 -6.867937 2.035915 -7.676815 0 -7.676815 
C -2.035915 -7.676815 -3.988718 -6.867937 -5.428328 -5.428328 
C -6.867937 -3.988718 -7.676815 -2.035915 -7.676815 0 
C -7.676815 2.035915 -6.867937 3.988718 -5.428328 5.428328 
C -3.988718 6.867937 -2.035915 7.676815 0 7.676815 
z
" style="stroke: #000000"/>
    </defs>
    <g clip-path="url(#p5a4bc5387f)">
     <use xlink:href="#mc19e7e6d43" x="313.180928" y="93.278883" style="stroke: #000000"/>
    </g>
   </g>
   <g id="line2d_10">
    <defs>
     <path id="me537b0d913" d="M 0 7.587638 
C 2.012265 7.587638 3.942384 6.788157 5.365271 5.365271 
C 6.788157 3.942384 7.587638 2.012265 7.587638 0 
C 7.587638 -2.012265 6.788157 -3.942384 5.365271 -5.365271 
C 3.942384 -6.788157 2.012265 -7.587638 0 -7.587638 
C -2.012265 -7.587638 -3.942384 -6.788157 -5.365271 -5.365271 
C -6.788157 -3.942384 -7.587638 -2.012265 -7.587638 0 
C -7.587638 2.012265 -6.788157 3.942384 -5.365271 5.365271 
C -3.942384 6.788157 -2.012265 7.587638 0 7.587638 
z
" style="stroke: #000000"/>
    </defs>
    <g clip-path="url(#p5a4bc5387f)">
     <use xlink:href="#me537b0d913" x="346.281005" y="57.790993" style="stroke: #000000"/>
    </g>
   </g>
  </g>
 </g>
 <defs>
  <clipPath id="p5a4bc5387f">
   <path d="M 162.655323 320.4 
L 162.655323 43.2 
L 575.344677 43.2 
L 575.344677 320.4 
L 162.655323 320.4 
"/>
  </clipPath>
 </defs>
</svg>
