<?xml version="1.0" encoding="utf-8" standalone="no"?>
<!DOCTYPE svg PUBLIC "-//W3C//DTD SVG 1.1//EN"
  "http://www.w3.org/Graphics/SVG/1.1/DTD/svg11.dtd">
<svg xmlns:xlink="http://www.w3.org/1999/xlink" width="720pt" height="360pt" viewBox="0 0 720 360" xmlns="http://www.w3.org/2000/svg" version="1.1">
 <metadata>
  <rdf:RDF xmlns:dc="http://purl.org/dc/elements/1.1/" xmlns:cc="http://creativecommons.org/ns#" xmlns:rdf="http://www.w3.org/1999/02/22-rdf-syntax-ns#">
   <cc:Work>
    <dc:type rdf:resource="http://purl.org/dc/dcmitype/StillImage"/>
    <dc:date>2023-11-30T21:30:45.617555</dc:date>
    <dc:format>image/svg+xml</dc:format>
    <dc:creator>
     <cc:Agent>
      <dc:title>Matplotlib v3.8.1, https://matplotlib.org/</dc:title>
     </cc:Agent>
    </dc:creator>
   </cc:Work>
  </rdf:RDF>
 </metadata>
 <defs>
  <style type="text/css">*{stroke-linejoin: round; stroke-linecap: butt}</style>
 </defs>
 <g id="figure_1">
  <g id="patch_1">
   <path d="M 0 360 
L 720 360 
L 720 0 
L 0 0 
z
" style="fill: #ffffff"/>
  </g>
  <g id="axes_1">
   <g id="patch_2">
    <path d="M 252.037497 320.4 
L 252.037497 43.2 
L 485.962503 43.2 
L 485.962503 320.4 
L 252.037497 320.4 
" style="fill: #ffffff"/>
   </g>
   <g id="line2d_1">
    <defs>
     <path id="m333ee0afaa" d="M 0 10.11789 
C 2.683296 10.11789 5.257052 9.051805 7.154428 7.154428 
C 9.051805 5.257052 10.11789 2.683296 10.11789 0 
C 10.11789 -2.683296 9.051805 -5.257052 7.154428 -7.154428 
C 5.257052 -9.051805 2.683296 -10.11789 0 -10.11789 
C -2.683296 -10.11789 -5.257052 -9.051805 -7.154428 -7.154428 
C -9.051805 -5.257052 -10.11789 -2.683296 -10.11789 0 
C -10.11789 2.683296 -9.051805 5.257052 -7.154428 7.154428 
C -5.257052 9.051805 -2.683296 10.11789 0 10.11789 
z
" style="stroke: #000000"/>
    </defs>
    <g clip-path="url(#p5c40270577)">
     <use xlink:href="#m333ee0afaa" x="456.047623" y="257.335394" style="stroke: #000000"/>
    </g>
   </g>
   <g id="line2d_2">
    <defs>
     <path id="m5397aa6c7c" d="M 0 9.3771 
C 2.486836 9.3771 4.872152 8.389069 6.630611 6.630611 
C 8.389069 4.872152 9.3771 2.486836 9.3771 0 
C 9.3771 -2.486836 8.389069 -4.872152 6.630611 -6.630611 
C 4.872152 -8.389069 2.486836 -9.3771 0 -9.3771 
C -2.486836 -9.3771 -4.872152 -8.389069 -6.630611 -6.630611 
C -8.389069 -4.872152 -9.3771 -2.486836 -9.3771 0 
C -9.3771 2.486836 -8.389069 4.872152 -6.630611 6.630611 
C -4.872152 8.389069 -2.486836 9.3771 0 9.3771 
z
" style="stroke: #000000"/>
    </defs>
    <g clip-path="url(#p5c40270577)">
     <use xlink:href="#m5397aa6c7c" x="447.766512" y="257.673129" style="stroke: #000000"/>
    </g>
   </g>
   <g id="line2d_3">
    <defs>
     <path id="m9c568cf7ef" d="M 0 9.273344 
C 2.459319 9.273344 4.818243 8.296246 6.557244 6.557244 
C 8.296246 4.818243 9.273344 2.459319 9.273344 0 
C 9.273344 -2.459319 8.296246 -4.818243 6.557244 -6.557244 
C 4.818243 -8.296246 2.459319 -9.273344 0 -9.273344 
C -2.459319 -9.273344 -4.818243 -8.296246 -6.557244 -6.557244 
C -8.296246 -4.818243 -9.273344 -2.459319 -9.273344 0 
C -9.273344 2.459319 -8.296246 4.818243 -6.557244 6.557244 
C -4.818243 8.296246 -2.459319 9.273344 0 9.273344 
z
" style="stroke: #000000"/>
    </defs>
    <g clip-path="url(#p5c40270577)">
     <use xlink:href="#m9c568cf7ef" x="460.98668" y="257.15862" style="stroke: #000000"/>
    </g>
   </g>
   <g id="line2d_4">
    <defs>
     <path id="mb9dd1cd384" d="M 0 9.1121 
C 2.416557 9.1121 4.734464 8.151991 6.443228 6.443228 
C 8.151991 4.734464 9.1121 2.416557 9.1121 0 
C 9.1121 -2.416557 8.151991 -4.734464 6.443228 -6.443228 
C 4.734464 -8.151991 2.416557 -9.1121 0 -9.1121 
C -2.416557 -9.1121 -4.734464 -8.151991 -6.443228 -6.443228 
C -8.151991 -4.734464 -9.1121 -2.416557 -9.1121 0 
C -9.1121 2.416557 -8.151991 4.734464 -6.443228 6.443228 
C -4.734464 8.151991 -2.416557 9.1121 0 9.1121 
z
" style="stroke: #000000"/>
    </defs>
    <g clip-path="url(#p5c40270577)">
     <use xlink:href="#mb9dd1cd384" x="388.663698" y="55.8" style="stroke: #000000"/>
    </g>
   </g>
   <g id="line2d_5">
    <defs>
     <path id="m03f6459df5" d="M 0 9.055356 
C 2.401509 9.055356 4.704981 8.101227 6.403104 6.403104 
C 8.101227 4.704981 9.055356 2.401509 9.055356 0 
C 9.055356 -2.401509 8.101227 -4.704981 6.403104 -6.403104 
C 4.704981 -8.101227 2.401509 -9.055356 0 -9.055356 
C -2.401509 -9.055356 -4.704981 -8.101227 -6.403104 -6.403104 
C -8.101227 -4.704981 -9.055356 -2.401509 -9.055356 0 
C -9.055356 2.401509 -8.101227 4.704981 -6.403104 6.403104 
C -4.704981 8.101227 -2.401509 9.055356 0 9.055356 
z
" style="stroke: #000000"/>
    </defs>
    <g clip-path="url(#p5c40270577)">
     <use xlink:href="#m03f6459df5" x="463.385612" y="261.788801" style="stroke: #000000"/>
    </g>
   </g>
   <g id="line2d_6">
    <defs>
     <path id="mb11ba92afb" d="M 0 8.902897 
C 2.361076 8.902897 4.625766 7.964832 6.295299 6.295299 
C 7.964832 4.625766 8.902897 2.361076 8.902897 0 
C 8.902897 -2.361076 7.964832 -4.625766 6.295299 -6.295299 
C 4.625766 -7.964832 2.361076 -8.902897 0 -8.902897 
C -2.361076 -8.902897 -4.625766 -7.964832 -6.295299 -6.295299 
C -7.964832 -4.625766 -8.902897 -2.361076 -8.902897 0 
C -8.902897 2.361076 -7.964832 4.625766 -6.295299 6.295299 
C -4.625766 7.964832 -2.361076 8.902897 0 8.902897 
z
" style="stroke: #000000"/>
    </defs>
    <g clip-path="url(#p5c40270577)">
     <use xlink:href="#mb11ba92afb" x="471.47755" y="252.551993" style="stroke: #000000"/>
    </g>
   </g>
   <g id="line2d_7">
    <defs>
     <path id="m258ba77e59" d="M 0 8.536982 
C 2.264034 8.536982 4.435644 7.637472 6.036558 6.036558 
C 7.637472 4.435644 8.536982 2.264034 8.536982 0 
C 8.536982 -2.264034 7.637472 -4.435644 6.036558 -6.036558 
C 4.435644 -7.637472 2.264034 -8.536982 0 -8.536982 
C -2.264034 -8.536982 -4.435644 -7.637472 -6.036558 -6.036558 
C -7.637472 -4.435644 -8.536982 -2.264034 -8.536982 0 
C -8.536982 2.264034 -7.637472 4.435644 -6.036558 6.036558 
C -4.435644 7.637472 -2.264034 8.536982 0 8.536982 
z
" style="stroke: #000000"/>
    </defs>
    <g clip-path="url(#p5c40270577)">
     <use xlink:href="#m258ba77e59" x="429.100085" y="301.735379" style="stroke: #000000"/>
    </g>
   </g>
   <g id="line2d_8">
    <defs>
     <path id="m183499d525" d="M 0 8.520316 
C 2.259614 8.520316 4.426985 7.622562 6.024773 6.024773 
C 7.622562 4.426985 8.520316 2.259614 8.520316 0 
C 8.520316 -2.259614 7.622562 -4.426985 6.024773 -6.024773 
C 4.426985 -7.622562 2.259614 -8.520316 0 -8.520316 
C -2.259614 -8.520316 -4.426985 -7.622562 -6.024773 -6.024773 
C -7.622562 -4.426985 -8.520316 -2.259614 -8.520316 0 
C -8.520316 2.259614 -7.622562 4.426985 -6.024773 6.024773 
C -4.426985 7.622562 -2.259614 8.520316 0 8.520316 
z
" style="stroke: #000000"/>
    </defs>
    <g clip-path="url(#p5c40270577)">
     <use xlink:href="#m183499d525" x="475.329548" y="81.944489" style="stroke: #000000"/>
    </g>
   </g>
   <g id="line2d_9">
    <defs>
     <path id="mb8978bab43" d="M 0 8.516964 
C 2.258725 8.516964 4.425243 7.619563 6.022403 6.022403 
C 7.619563 4.425243 8.516964 2.258725 8.516964 0 
C 8.516964 -2.258725 7.619563 -4.425243 6.022403 -6.022403 
C 4.425243 -7.619563 2.258725 -8.516964 0 -8.516964 
C -2.258725 -8.516964 -4.425243 -7.619563 -6.022403 -6.022403 
C -7.619563 -4.425243 -8.516964 -2.258725 -8.516964 0 
C -8.516964 2.258725 -7.619563 4.425243 -6.022403 6.022403 
C -4.425243 7.619563 -2.258725 8.516964 0 8.516964 
z
" style="stroke: #000000"/>
    </defs>
    <g clip-path="url(#p5c40270577)">
     <use xlink:href="#mb8978bab43" x="415.660586" y="261.989968" style="stroke: #000000"/>
    </g>
   </g>
   <g id="line2d_10">
    <defs>
     <path id="mabf0e4ca86" d="M 0 8.470386 
C 2.246373 8.470386 4.401042 7.577893 5.989468 5.989468 
C 7.577893 4.401042 8.470386 2.246373 8.470386 0 
C 8.470386 -2.246373 7.577893 -4.401042 5.989468 -5.989468 
C 4.401042 -7.577893 2.246373 -8.470386 0 -8.470386 
C -2.246373 -8.470386 -4.401042 -7.577893 -5.989468 -5.989468 
C -7.577893 -4.401042 -8.470386 -2.246373 -8.470386 0 
C -8.470386 2.246373 -7.577893 4.401042 -5.989468 5.989468 
C -4.401042 7.577893 -2.246373 8.470386 0 8.470386 
z
" style="stroke: #000000"/>
    </defs>
    <g clip-path="url(#p5c40270577)">
     <use xlink:href="#mabf0e4ca86" x="262.670452" y="307.8" style="stroke: #000000"/>
    </g>
   </g>
  </g>
 </g>
 <defs>
  <clipPath id="p5c40270577">
   <path d="M 252.037497 320.4 
L 252.037497 43.2 
L 485.962503 43.2 
L 485.962503 320.4 
L 252.037497 320.4 
"/>
  </clipPath>
 </defs>
</svg>
