<?xml version="1.0" encoding="utf-8" standalone="no"?>
<!DOCTYPE svg PUBLIC "-//W3C//DTD SVG 1.1//EN"
  "http://www.w3.org/Graphics/SVG/1.1/DTD/svg11.dtd">
<svg xmlns:xlink="http://www.w3.org/1999/xlink" width="394.89998pt" height="291.6pt" viewBox="0 0 394.89998 291.6" xmlns="http://www.w3.org/2000/svg" version="1.1">
 <metadata>
  <rdf:RDF xmlns:dc="http://purl.org/dc/elements/1.1/" xmlns:cc="http://creativecommons.org/ns#" xmlns:rdf="http://www.w3.org/1999/02/22-rdf-syntax-ns#">
   <cc:Work>
    <dc:type rdf:resource="http://purl.org/dc/dcmitype/StillImage"/>
    <dc:date>2023-11-30T20:45:52.054694</dc:date>
    <dc:format>image/svg+xml</dc:format>
    <dc:creator>
     <cc:Agent>
      <dc:title>Matplotlib v3.8.1, https://matplotlib.org/</dc:title>
     </cc:Agent>
    </dc:creator>
   </cc:Work>
  </rdf:RDF>
 </metadata>
 <defs>
  <style type="text/css">*{stroke-linejoin: round; stroke-linecap: butt}</style>
 </defs>
 <g id="figure_1">
  <g id="patch_1">
   <path d="M 0 291.6 
L 394.89998 291.6 
L 394.89998 0 
L 0 0 
z
" style="fill: #ffffff"/>
  </g>
  <g id="axes_1">
   <g id="patch_2">
    <path d="M 7.2 284.4 
L 7.2 7.2 
L 387.69998 7.2 
L 387.69998 284.4 
L 7.2 284.4 
" style="fill: #ffffff"/>
   </g>
   <g id="line2d_1">
    <defs>
     <path id="m19b71f1812" d="M 0 3 
C 0.795609 3 1.55874 2.683901 2.12132 2.12132 
C 2.683901 1.55874 3 0.795609 3 0 
C 3 -0.795609 2.683901 -1.55874 2.12132 -2.12132 
C 1.55874 -2.683901 0.795609 -3 0 -3 
C -0.795609 -3 -1.55874 -2.683901 -2.12132 -2.12132 
C -2.683901 -1.55874 -3 -0.795609 -3 0 
C -3 0.795609 -2.683901 1.55874 -2.12132 2.12132 
C -1.55874 2.683901 -0.795609 3 0 3 
z
" style="stroke: #000000"/>
    </defs>
    <g clip-path="url(#p928cd23de7)">
     <use xlink:href="#m19b71f1812" x="143.595215" y="95.865074" style="stroke: #000000"/>
    </g>
   </g>
   <g id="line2d_2">
    <g clip-path="url(#p928cd23de7)">
     <use xlink:href="#m19b71f1812" x="362.584772" y="91.696905" style="stroke: #000000"/>
    </g>
   </g>
   <g id="line2d_3">
    <g clip-path="url(#p928cd23de7)">
     <use xlink:href="#m19b71f1812" x="237.478876" y="249.785017" style="stroke: #000000"/>
    </g>
   </g>
   <g id="line2d_4">
    <g clip-path="url(#p928cd23de7)">
     <use xlink:href="#m19b71f1812" x="290.855245" y="19.8" style="stroke: #000000"/>
    </g>
   </g>
   <g id="line2d_5">
    <g clip-path="url(#p928cd23de7)">
     <use xlink:href="#m19b71f1812" x="74.981047" y="271.8" style="stroke: #000000"/>
    </g>
   </g>
   <g id="line2d_6">
    <g clip-path="url(#p928cd23de7)">
     <use xlink:href="#m19b71f1812" x="143.222321" y="98.655708" style="stroke: #000000"/>
    </g>
   </g>
   <g id="line2d_7">
    <g clip-path="url(#p928cd23de7)">
     <use xlink:href="#m19b71f1812" x="149.107265" y="93.45982" style="stroke: #000000"/>
    </g>
   </g>
   <g id="line2d_8">
    <g clip-path="url(#p928cd23de7)">
     <use xlink:href="#m19b71f1812" x="24.495454" y="72.691233" style="stroke: #000000"/>
    </g>
   </g>
   <g id="line2d_9">
    <g clip-path="url(#p928cd23de7)">
     <use xlink:href="#m19b71f1812" x="143.981669" y="90.45795" style="stroke: #000000"/>
    </g>
   </g>
   <g id="line2d_10">
    <g clip-path="url(#p928cd23de7)">
     <use xlink:href="#m19b71f1812" x="370.404526" y="38.457502" style="stroke: #000000"/>
    </g>
   </g>
  </g>
 </g>
 <defs>
  <clipPath id="p928cd23de7">
   <path d="M 7.2 284.4 
L 7.2 7.2 
L 387.69998 7.2 
L 387.69998 284.4 
L 7.2 284.4 
"/>
  </clipPath>
 </defs>
</svg>
