<?xml version="1.0" encoding="utf-8" standalone="no"?>
<!DOCTYPE svg PUBLIC "-//W3C//DTD SVG 1.1//EN"
  "http://www.w3.org/Graphics/SVG/1.1/DTD/svg11.dtd">
<svg xmlns:xlink="http://www.w3.org/1999/xlink" width="720pt" height="360pt" viewBox="0 0 720 360" xmlns="http://www.w3.org/2000/svg" version="1.1">
 <metadata>
  <rdf:RDF xmlns:dc="http://purl.org/dc/elements/1.1/" xmlns:cc="http://creativecommons.org/ns#" xmlns:rdf="http://www.w3.org/1999/02/22-rdf-syntax-ns#">
   <cc:Work>
    <dc:type rdf:resource="http://purl.org/dc/dcmitype/StillImage"/>
    <dc:date>2023-11-30T21:30:45.657379</dc:date>
    <dc:format>image/svg+xml</dc:format>
    <dc:creator>
     <cc:Agent>
      <dc:title>Matplotlib v3.8.1, https://matplotlib.org/</dc:title>
     </cc:Agent>
    </dc:creator>
   </cc:Work>
  </rdf:RDF>
 </metadata>
 <defs>
  <style type="text/css">*{stroke-linejoin: round; stroke-linecap: butt}</style>
 </defs>
 <g id="figure_1">
  <g id="patch_1">
   <path d="M 0 360 
L 720 360 
L 720 0 
L 0 0 
z
" style="fill: #ffffff"/>
  </g>
  <g id="axes_1">
   <g id="patch_2">
    <path d="M 178.75001 320.4 
L 178.75001 43.2 
L 559.24999 43.2 
L 559.24999 320.4 
L 178.75001 320.4 
" style="fill: #ffffff"/>
   </g>
   <g id="line2d_1">
    <defs>
     <path id="me78aebe3b8" d="M 0 10.36576 
C 2.749032 10.36576 5.38584 9.273558 7.329699 7.329699 
C 9.273558 5.38584 10.36576 2.749032 10.36576 0 
C 10.36576 -2.749032 9.273558 -5.38584 7.329699 -7.329699 
C 5.38584 -9.273558 2.749032 -10.36576 0 -10.36576 
C -2.749032 -10.36576 -5.38584 -9.273558 -7.329699 -7.329699 
C -9.273558 -5.38584 -10.36576 -2.749032 -10.36576 0 
C -10.36576 2.749032 -9.273558 5.38584 -7.329699 7.329699 
C -5.38584 9.273558 -2.749032 10.36576 0 10.36576 
z
" style="stroke: #000000"/>
    </defs>
    <g clip-path="url(#p643b00a0b6)">
     <use xlink:href="#me78aebe3b8" x="315.145226" y="131.865074" style="stroke: #000000"/>
    </g>
   </g>
   <g id="line2d_2">
    <defs>
     <path id="m0228f1add0" d="M 0 8.813436 
C 2.33735 8.813436 4.579284 7.884796 6.23204 6.23204 
C 7.884796 4.579284 8.813436 2.33735 8.813436 0 
C 8.813436 -2.33735 7.884796 -4.579284 6.23204 -6.23204 
C 4.579284 -7.884796 2.33735 -8.813436 0 -8.813436 
C -2.33735 -8.813436 -4.579284 -7.884796 -6.23204 -6.23204 
C -7.884796 -4.579284 -8.813436 -2.33735 -8.813436 0 
C -8.813436 2.33735 -7.884796 4.579284 -6.23204 6.23204 
C -4.579284 7.884796 -2.33735 8.813436 0 8.813436 
z
" style="stroke: #000000"/>
    </defs>
    <g clip-path="url(#p643b00a0b6)">
     <use xlink:href="#m0228f1add0" x="534.134782" y="127.696905" style="stroke: #000000"/>
    </g>
   </g>
   <g id="line2d_3">
    <defs>
     <path id="ma6c435f15e" d="M 0 8.647306 
C 2.293292 8.647306 4.492966 7.736171 6.114569 6.114569 
C 7.736171 4.492966 8.647306 2.293292 8.647306 0 
C 8.647306 -2.293292 7.736171 -4.492966 6.114569 -6.114569 
C 4.492966 -7.736171 2.293292 -8.647306 0 -8.647306 
C -2.293292 -8.647306 -4.492966 -7.736171 -6.114569 -6.114569 
C -7.736171 -4.492966 -8.647306 -2.293292 -8.647306 0 
C -8.647306 2.293292 -7.736171 4.492966 -6.114569 6.114569 
C -4.492966 7.736171 -2.293292 8.647306 0 8.647306 
z
" style="stroke: #000000"/>
    </defs>
    <g clip-path="url(#p643b00a0b6)">
     <use xlink:href="#ma6c435f15e" x="409.028886" y="285.785017" style="stroke: #000000"/>
    </g>
   </g>
   <g id="line2d_4">
    <defs>
     <path id="m97430fe2b0" d="M 0 8.618726 
C 2.285713 8.618726 4.478117 7.710603 6.09436 6.09436 
C 7.710603 4.478117 8.618726 2.285713 8.618726 0 
C 8.618726 -2.285713 7.710603 -4.478117 6.09436 -6.09436 
C 4.478117 -7.710603 2.285713 -8.618726 0 -8.618726 
C -2.285713 -8.618726 -4.478117 -7.710603 -6.09436 -6.09436 
C -7.710603 -4.478117 -8.618726 -2.285713 -8.618726 0 
C -8.618726 2.285713 -7.710603 4.478117 -6.09436 6.09436 
C -4.478117 7.710603 -2.285713 8.618726 0 8.618726 
z
" style="stroke: #000000"/>
    </defs>
    <g clip-path="url(#p643b00a0b6)">
     <use xlink:href="#m97430fe2b0" x="462.405255" y="55.8" style="stroke: #000000"/>
    </g>
   </g>
   <g id="line2d_5">
    <defs>
     <path id="m84050f2bd4" d="M 0 8.574576 
C 2.274004 8.574576 4.455177 7.671104 6.063141 6.063141 
C 7.671104 4.455177 8.574576 2.274004 8.574576 0 
C 8.574576 -2.274004 7.671104 -4.455177 6.063141 -6.063141 
C 4.455177 -7.671104 2.274004 -8.574576 0 -8.574576 
C -2.274004 -8.574576 -4.455177 -7.671104 -6.063141 -6.063141 
C -7.671104 -4.455177 -8.574576 -2.274004 -8.574576 0 
C -8.574576 2.274004 -7.671104 4.455177 -6.063141 6.063141 
C -4.455177 7.671104 -2.274004 8.574576 0 8.574576 
z
" style="stroke: #000000"/>
    </defs>
    <g clip-path="url(#p643b00a0b6)">
     <use xlink:href="#m84050f2bd4" x="246.531057" y="307.8" style="stroke: #000000"/>
    </g>
   </g>
   <g id="line2d_6">
    <defs>
     <path id="m5330b62457" d="M 0 8.542622 
C 2.26553 8.542622 4.438574 7.642518 6.040546 6.040546 
C 7.642518 4.438574 8.542622 2.26553 8.542622 0 
C 8.542622 -2.26553 7.642518 -4.438574 6.040546 -6.040546 
C 4.438574 -7.642518 2.26553 -8.542622 0 -8.542622 
C -2.26553 -8.542622 -4.438574 -7.642518 -6.040546 -6.040546 
C -7.642518 -4.438574 -8.542622 -2.26553 -8.542622 0 
C -8.542622 2.26553 -7.642518 4.438574 -6.040546 6.040546 
C -4.438574 7.642518 -2.26553 8.542622 0 8.542622 
z
" style="stroke: #000000"/>
    </defs>
    <g clip-path="url(#p643b00a0b6)">
     <use xlink:href="#m5330b62457" x="314.772332" y="134.655708" style="stroke: #000000"/>
    </g>
   </g>
   <g id="line2d_7">
    <defs>
     <path id="ma62241454f" d="M 0 8.494082 
C 2.252657 8.494082 4.413354 7.599092 6.006223 6.006223 
C 7.599092 4.413354 8.494082 2.252657 8.494082 0 
C 8.494082 -2.252657 7.599092 -4.413354 6.006223 -6.006223 
C 4.413354 -7.599092 2.252657 -8.494082 0 -8.494082 
C -2.252657 -8.494082 -4.413354 -7.599092 -6.006223 -6.006223 
C -7.599092 -4.413354 -8.494082 -2.252657 -8.494082 0 
C -8.494082 2.252657 -7.599092 4.413354 -6.006223 6.006223 
C -4.413354 7.599092 -2.252657 8.494082 0 8.494082 
z
" style="stroke: #000000"/>
    </defs>
    <g clip-path="url(#p643b00a0b6)">
     <use xlink:href="#ma62241454f" x="320.657275" y="129.45982" style="stroke: #000000"/>
    </g>
   </g>
   <g id="line2d_8">
    <defs>
     <path id="mb26ae63e49" d="M 0 8.490193 
C 2.251625 8.490193 4.411333 7.595612 6.003473 6.003473 
C 7.595612 4.411333 8.490193 2.251625 8.490193 0 
C 8.490193 -2.251625 7.595612 -4.411333 6.003473 -6.003473 
C 4.411333 -7.595612 2.251625 -8.490193 0 -8.490193 
C -2.251625 -8.490193 -4.411333 -7.595612 -6.003473 -6.003473 
C -7.595612 -4.411333 -8.490193 -2.251625 -8.490193 0 
C -8.490193 2.251625 -7.595612 4.411333 -6.003473 6.003473 
C -4.411333 7.595612 -2.251625 8.490193 0 8.490193 
z
" style="stroke: #000000"/>
    </defs>
    <g clip-path="url(#p643b00a0b6)">
     <use xlink:href="#mb26ae63e49" x="196.045464" y="108.691233" style="stroke: #000000"/>
    </g>
   </g>
   <g id="line2d_9">
    <defs>
     <path id="m9fb2ce3344" d="M 0 8.458383 
C 2.243189 8.458383 4.394806 7.567154 5.98098 5.98098 
C 7.567154 4.394806 8.458383 2.243189 8.458383 0 
C 8.458383 -2.243189 7.567154 -4.394806 5.98098 -5.98098 
C 4.394806 -7.567154 2.243189 -8.458383 0 -8.458383 
C -2.243189 -8.458383 -4.394806 -7.567154 -5.98098 -5.98098 
C -7.567154 -4.394806 -8.458383 -2.243189 -8.458383 0 
C -8.458383 2.243189 -7.567154 4.394806 -5.98098 5.98098 
C -4.394806 7.567154 -2.243189 8.458383 0 8.458383 
z
" style="stroke: #000000"/>
    </defs>
    <g clip-path="url(#p643b00a0b6)">
     <use xlink:href="#m9fb2ce3344" x="315.531679" y="126.45795" style="stroke: #000000"/>
    </g>
   </g>
   <g id="line2d_10">
    <defs>
     <path id="mf22315c624" d="M 0 8.422316 
C 2.233624 8.422316 4.376066 7.534888 5.955477 5.955477 
C 7.534888 4.376066 8.422316 2.233624 8.422316 0 
C 8.422316 -2.233624 7.534888 -4.376066 5.955477 -5.955477 
C 4.376066 -7.534888 2.233624 -8.422316 0 -8.422316 
C -2.233624 -8.422316 -4.376066 -7.534888 -5.955477 -5.955477 
C -7.534888 -4.376066 -8.422316 -2.233624 -8.422316 0 
C -8.422316 2.233624 -7.534888 4.376066 -5.955477 5.955477 
C -4.376066 7.534888 -2.233624 8.422316 0 8.422316 
z
" style="stroke: #000000"/>
    </defs>
    <g clip-path="url(#p643b00a0b6)">
     <use xlink:href="#mf22315c624" x="541.954536" y="74.457502" style="stroke: #000000"/>
    </g>
   </g>
  </g>
 </g>
 <defs>
  <clipPath id="p643b00a0b6">
   <path d="M 178.75001 320.4 
L 178.75001 43.2 
L 559.24999 43.2 
L 559.24999 320.4 
L 178.75001 320.4 
"/>
  </clipPath>
 </defs>
</svg>
