<?xml version="1.0" encoding="utf-8" standalone="no"?>
<!DOCTYPE svg PUBLIC "-//W3C//DTD SVG 1.1//EN"
  "http://www.w3.org/Graphics/SVG/1.1/DTD/svg11.dtd">
<svg xmlns:xlink="http://www.w3.org/1999/xlink" width="720pt" height="360pt" viewBox="0 0 720 360" xmlns="http://www.w3.org/2000/svg" version="1.1">
 <metadata>
  <rdf:RDF xmlns:dc="http://purl.org/dc/elements/1.1/" xmlns:cc="http://creativecommons.org/ns#" xmlns:rdf="http://www.w3.org/1999/02/22-rdf-syntax-ns#">
   <cc:Work>
    <dc:type rdf:resource="http://purl.org/dc/dcmitype/StillImage"/>
    <dc:date>2023-11-30T21:30:45.697692</dc:date>
    <dc:format>image/svg+xml</dc:format>
    <dc:creator>
     <cc:Agent>
      <dc:title>Matplotlib v3.8.1, https://matplotlib.org/</dc:title>
     </cc:Agent>
    </dc:creator>
   </cc:Work>
  </rdf:RDF>
 </metadata>
 <defs>
  <style type="text/css">*{stroke-linejoin: round; stroke-linecap: butt}</style>
 </defs>
 <g id="figure_1">
  <g id="patch_1">
   <path d="M 0 360 
L 720 360 
L 720 0 
L 0 0 
z
" style="fill: #ffffff"/>
  </g>
  <g id="axes_1">
   <g id="patch_2">
    <path d="M 102.064578 320.4 
L 102.064578 43.2 
L 635.935422 43.2 
L 635.935422 320.4 
L 102.064578 320.4 
" style="fill: #ffffff"/>
   </g>
   <g id="line2d_1">
    <defs>
     <path id="md5346aff87" d="M 0 11.512913 
C 3.05326 11.512913 5.981878 10.29984 8.140859 8.140859 
C 10.29984 5.981878 11.512913 3.05326 11.512913 0 
C 11.512913 -3.05326 10.29984 -5.981878 8.140859 -8.140859 
C 5.981878 -10.29984 3.05326 -11.512913 0 -11.512913 
C -3.05326 -11.512913 -5.981878 -10.29984 -8.140859 -8.140859 
C -10.29984 -5.981878 -11.512913 -3.05326 -11.512913 0 
C -11.512913 3.05326 -10.29984 5.981878 -8.140859 8.140859 
C -5.981878 10.29984 -3.05326 11.512913 0 11.512913 
z
" style="stroke: #000000"/>
    </defs>
    <g clip-path="url(#p124ef48407)">
     <use xlink:href="#md5346aff87" x="317.482829" y="283.612499" style="stroke: #000000"/>
    </g>
   </g>
   <g id="line2d_2">
    <defs>
     <path id="m040bb28cd2" d="M 0 10.727393 
C 2.844938 10.727393 5.573738 9.597088 7.585413 7.585413 
C 9.597088 5.573738 10.727393 2.844938 10.727393 0 
C 10.727393 -2.844938 9.597088 -5.573738 7.585413 -7.585413 
C 5.573738 -9.597088 2.844938 -10.727393 0 -10.727393 
C -2.844938 -10.727393 -5.573738 -9.597088 -7.585413 -7.585413 
C -9.597088 -5.573738 -10.727393 -2.844938 -10.727393 0 
C -10.727393 2.844938 -9.597088 5.573738 -7.585413 7.585413 
C -5.573738 9.597088 -2.844938 10.727393 0 10.727393 
z
" style="stroke: #000000"/>
    </defs>
    <g clip-path="url(#p124ef48407)">
     <use xlink:href="#m040bb28cd2" x="455.514046" y="307.8" style="stroke: #000000"/>
    </g>
   </g>
   <g id="line2d_3">
    <defs>
     <path id="m8442ee77d7" d="M 0 10.645247 
C 2.823153 10.645247 5.531056 9.523597 7.527326 7.527326 
C 9.523597 5.531056 10.645247 2.823153 10.645247 0 
C 10.645247 -2.823153 9.523597 -5.531056 7.527326 -7.527326 
C 5.531056 -9.523597 2.823153 -10.645247 0 -10.645247 
C -2.823153 -10.645247 -5.531056 -9.523597 -7.527326 -7.527326 
C -9.523597 -5.531056 -10.645247 -2.823153 -10.645247 0 
C -10.645247 2.823153 -9.523597 5.531056 -7.527326 7.527326 
C -5.531056 9.523597 -2.823153 10.645247 0 10.645247 
z
" style="stroke: #000000"/>
    </defs>
    <g clip-path="url(#p124ef48407)">
     <use xlink:href="#m8442ee77d7" x="320.85946" y="284.086151" style="stroke: #000000"/>
    </g>
   </g>
   <g id="line2d_4">
    <defs>
     <path id="mdbca5d3f80" d="M 0 10.610454 
C 2.813925 10.610454 5.512978 9.49247 7.502724 7.502724 
C 9.49247 5.512978 10.610454 2.813925 10.610454 0 
C 10.610454 -2.813925 9.49247 -5.512978 7.502724 -7.502724 
C 5.512978 -9.49247 2.813925 -10.610454 0 -10.610454 
C -2.813925 -10.610454 -5.512978 -9.49247 -7.502724 -7.502724 
C -9.49247 -5.512978 -10.610454 -2.813925 -10.610454 0 
C -10.610454 2.813925 -9.49247 5.512978 -7.502724 7.502724 
C -5.512978 9.49247 -2.813925 10.610454 0 10.610454 
z
" style="stroke: #000000"/>
    </defs>
    <g clip-path="url(#p124ef48407)">
     <use xlink:href="#mdbca5d3f80" x="335.288264" y="300.150297" style="stroke: #000000"/>
    </g>
   </g>
   <g id="line2d_5">
    <defs>
     <path id="m8a2948bd18" d="M 0 10.60782 
C 2.813227 10.60782 5.51161 9.490113 7.500862 7.500862 
C 9.490113 5.51161 10.60782 2.813227 10.60782 0 
C 10.60782 -2.813227 9.490113 -5.51161 7.500862 -7.500862 
C 5.51161 -9.490113 2.813227 -10.60782 0 -10.60782 
C -2.813227 -10.60782 -5.51161 -9.490113 -7.500862 -7.500862 
C -9.490113 -5.51161 -10.60782 -2.813227 -10.60782 0 
C -10.60782 2.813227 -9.490113 5.51161 -7.500862 7.500862 
C -5.51161 9.490113 -2.813227 10.60782 0 10.60782 
z
" style="stroke: #000000"/>
    </defs>
    <g clip-path="url(#p124ef48407)">
     <use xlink:href="#m8a2948bd18" x="126.331434" y="55.8" style="stroke: #000000"/>
    </g>
   </g>
   <g id="line2d_6">
    <defs>
     <path id="m11c885212b" d="M 0 10.485845 
C 2.780879 10.485845 5.448234 9.38099 7.414612 7.414612 
C 9.38099 5.448234 10.485845 2.780879 10.485845 0 
C 10.485845 -2.780879 9.38099 -5.448234 7.414612 -7.414612 
C 5.448234 -9.38099 2.780879 -10.485845 0 -10.485845 
C -2.780879 -10.485845 -5.448234 -9.38099 -7.414612 -7.414612 
C -9.38099 -5.448234 -10.485845 -2.780879 -10.485845 0 
C -10.485845 2.780879 -9.38099 5.448234 -7.414612 7.414612 
C -5.448234 9.38099 -2.780879 10.485845 0 10.485845 
z
" style="stroke: #000000"/>
    </defs>
    <g clip-path="url(#p124ef48407)">
     <use xlink:href="#m11c885212b" x="316.862989" y="287.942857" style="stroke: #000000"/>
    </g>
   </g>
   <g id="line2d_7">
    <defs>
     <path id="med7bf97c05" d="M 0 10.433293 
C 2.766942 10.433293 5.420929 9.333976 7.377453 7.377453 
C 9.333976 5.420929 10.433293 2.766942 10.433293 0 
C 10.433293 -2.766942 9.333976 -5.420929 7.377453 -7.377453 
C 5.420929 -9.333976 2.766942 -10.433293 0 -10.433293 
C -2.766942 -10.433293 -5.420929 -9.333976 -7.377453 -7.377453 
C -9.333976 -5.420929 -10.433293 -2.766942 -10.433293 0 
C -10.433293 2.766942 -9.333976 5.420929 -7.377453 7.377453 
C -5.420929 9.333976 -2.766942 10.433293 0 10.433293 
z
" style="stroke: #000000"/>
    </defs>
    <g clip-path="url(#p124ef48407)">
     <use xlink:href="#med7bf97c05" x="312.454694" y="282.758665" style="stroke: #000000"/>
    </g>
   </g>
   <g id="line2d_8">
    <defs>
     <path id="m908a570306" d="M 0 10.335211 
C 2.74093 10.335211 5.369968 9.246228 7.308098 7.308098 
C 9.246228 5.369968 10.335211 2.74093 10.335211 0 
C 10.335211 -2.74093 9.246228 -5.369968 7.308098 -7.308098 
C 5.369968 -9.246228 2.74093 -10.335211 0 -10.335211 
C -2.74093 -10.335211 -5.369968 -9.246228 -7.308098 -7.308098 
C -9.246228 -5.369968 -10.335211 -2.74093 -10.335211 0 
C -10.335211 2.74093 -9.246228 5.369968 -7.308098 7.308098 
C -5.369968 9.246228 -2.74093 10.335211 0 10.335211 
z
" style="stroke: #000000"/>
    </defs>
    <g clip-path="url(#p124ef48407)">
     <use xlink:href="#m908a570306" x="268.416151" y="206.79056" style="stroke: #000000"/>
    </g>
   </g>
   <g id="line2d_9">
    <defs>
     <path id="m2c6f68557b" d="M 0 10.328557 
C 2.739165 10.328557 5.36651 9.240275 7.303392 7.303392 
C 9.240275 5.36651 10.328557 2.739165 10.328557 0 
C 10.328557 -2.739165 9.240275 -5.36651 7.303392 -7.303392 
C 5.36651 -9.240275 2.739165 -10.328557 0 -10.328557 
C -2.739165 -10.328557 -5.36651 -9.240275 -7.303392 -7.303392 
C -9.240275 -5.36651 -10.328557 -2.739165 -10.328557 0 
C -10.328557 2.739165 -9.240275 5.36651 -7.303392 7.303392 
C -5.36651 9.240275 -2.739165 10.328557 0 10.328557 
z
" style="stroke: #000000"/>
    </defs>
    <g clip-path="url(#p124ef48407)">
     <use xlink:href="#m2c6f68557b" x="401.056025" y="301.807288" style="stroke: #000000"/>
    </g>
   </g>
   <g id="line2d_10">
    <defs>
     <path id="m3295a04d66" d="M 0 10.220697 
C 2.710561 10.220697 5.310468 9.14378 7.227124 7.227124 
C 9.14378 5.310468 10.220697 2.710561 10.220697 0 
C 10.220697 -2.710561 9.14378 -5.310468 7.227124 -7.227124 
C 5.310468 -9.14378 2.710561 -10.220697 0 -10.220697 
C -2.710561 -10.220697 -5.310468 -9.14378 -7.227124 -7.227124 
C -9.14378 -5.310468 -10.220697 -2.710561 -10.220697 0 
C -10.220697 2.710561 -9.14378 5.310468 -7.227124 7.227124 
C -5.310468 9.14378 -2.710561 10.220697 0 10.220697 
z
" style="stroke: #000000"/>
    </defs>
    <g clip-path="url(#p124ef48407)">
     <use xlink:href="#m3295a04d66" x="611.668566" y="258.739746" style="stroke: #000000"/>
    </g>
   </g>
  </g>
 </g>
 <defs>
  <clipPath id="p124ef48407">
   <path d="M 102.064578 320.4 
L 102.064578 43.2 
L 635.935422 43.2 
L 635.935422 320.4 
L 102.064578 320.4 
"/>
  </clipPath>
 </defs>
</svg>
