<?xml version="1.0" encoding="utf-8" standalone="no"?>
<!DOCTYPE svg PUBLIC "-//W3C//DTD SVG 1.1//EN"
  "http://www.w3.org/Graphics/SVG/1.1/DTD/svg11.dtd">
<svg xmlns:xlink="http://www.w3.org/1999/xlink" width="720pt" height="360pt" viewBox="0 0 720 360" xmlns="http://www.w3.org/2000/svg" version="1.1">
 <metadata>
  <rdf:RDF xmlns:dc="http://purl.org/dc/elements/1.1/" xmlns:cc="http://creativecommons.org/ns#" xmlns:rdf="http://www.w3.org/1999/02/22-rdf-syntax-ns#">
   <cc:Work>
    <dc:type rdf:resource="http://purl.org/dc/dcmitype/StillImage"/>
    <dc:date>2023-11-30T21:30:49.621078</dc:date>
    <dc:format>image/svg+xml</dc:format>
    <dc:creator>
     <cc:Agent>
      <dc:title>Matplotlib v3.8.1, https://matplotlib.org/</dc:title>
     </cc:Agent>
    </dc:creator>
   </cc:Work>
  </rdf:RDF>
 </metadata>
 <defs>
  <style type="text/css">*{stroke-linejoin: round; stroke-linecap: butt}</style>
 </defs>
 <g id="figure_1">
  <g id="patch_1">
   <path d="M 0 360 
L 720 360 
L 720 0 
L 0 0 
z
" style="fill: #ffffff"/>
  </g>
  <g id="axes_1">
   <g id="patch_2">
    <path d="M 256.207343 320.4 
L 256.207343 43.2 
L 481.792657 43.2 
L 481.792657 320.4 
L 256.207343 320.4 
" style="fill: #ffffff"/>
   </g>
   <g id="line2d_1">
    <defs>
     <path id="mbab7c391d0" d="M 0 9.982912 
C 2.647499 9.982912 5.18692 8.931049 7.058985 7.058985 
C 8.931049 5.18692 9.982912 2.647499 9.982912 0 
C 9.982912 -2.647499 8.931049 -5.18692 7.058985 -7.058985 
C 5.18692 -8.931049 2.647499 -9.982912 0 -9.982912 
C -2.647499 -9.982912 -5.18692 -8.931049 -7.058985 -7.058985 
C -8.931049 -5.18692 -9.982912 -2.647499 -9.982912 0 
C -9.982912 2.647499 -8.931049 5.18692 -7.058985 7.058985 
C -5.18692 8.931049 -2.647499 9.982912 0 9.982912 
z
" style="stroke: #000000"/>
    </defs>
    <g clip-path="url(#pefd66234ea)">
     <use xlink:href="#mbab7c391d0" x="469.306945" y="137.098768" style="stroke: #000000"/>
    </g>
   </g>
   <g id="line2d_2">
    <defs>
     <path id="m884fd239e8" d="M 0 9.044306 
C 2.398578 9.044306 4.699239 8.091341 6.39529 6.39529 
C 8.091341 4.699239 9.044306 2.398578 9.044306 0 
C 9.044306 -2.398578 8.091341 -4.699239 6.39529 -6.39529 
C 4.699239 -8.091341 2.398578 -9.044306 0 -9.044306 
C -2.398578 -9.044306 -4.699239 -8.091341 -6.39529 -6.39529 
C -8.091341 -4.699239 -9.044306 -2.398578 -9.044306 0 
C -9.044306 2.398578 -8.091341 4.699239 -6.39529 6.39529 
C -4.699239 8.091341 -2.398578 9.044306 0 9.044306 
z
" style="stroke: #000000"/>
    </defs>
    <g clip-path="url(#pefd66234ea)">
     <use xlink:href="#m884fd239e8" x="462.602031" y="142.272196" style="stroke: #000000"/>
    </g>
   </g>
   <g id="line2d_3">
    <defs>
     <path id="m20c57c83b3" d="M 0 8.76928 
C 2.32564 8.76928 4.556341 7.845293 6.200817 6.200817 
C 7.845293 4.556341 8.76928 2.32564 8.76928 0 
C 8.76928 -2.32564 7.845293 -4.556341 6.200817 -6.200817 
C 4.556341 -7.845293 2.32564 -8.76928 0 -8.76928 
C -2.32564 -8.76928 -4.556341 -7.845293 -6.200817 -6.200817 
C -7.845293 -4.556341 -8.76928 -2.32564 -8.76928 0 
C -8.76928 2.32564 -7.845293 4.556341 -6.200817 6.200817 
C -4.556341 7.845293 -2.32564 8.76928 0 8.76928 
z
" style="stroke: #000000"/>
    </defs>
    <g clip-path="url(#pefd66234ea)">
     <use xlink:href="#m20c57c83b3" x="308.472986" y="307.8" style="stroke: #000000"/>
    </g>
   </g>
   <g id="line2d_4">
    <defs>
     <path id="m8023330330" d="M 0 8.261666 
C 2.191019 8.261666 4.292595 7.391165 5.84188 5.84188 
C 7.391165 4.292595 8.261666 2.191019 8.261666 0 
C 8.261666 -2.191019 7.391165 -4.292595 5.84188 -5.84188 
C 4.292595 -7.391165 2.191019 -8.261666 0 -8.261666 
C -2.191019 -8.261666 -4.292595 -7.391165 -5.84188 -5.84188 
C -7.391165 -4.292595 -8.261666 -2.191019 -8.261666 0 
C -8.261666 2.191019 -7.391165 4.292595 -5.84188 5.84188 
C -4.292595 7.391165 -2.191019 8.261666 0 8.261666 
z
" style="stroke: #000000"/>
    </defs>
    <g clip-path="url(#pefd66234ea)">
     <use xlink:href="#m8023330330" x="297.43688" y="217.296857" style="stroke: #000000"/>
    </g>
   </g>
   <g id="line2d_5">
    <defs>
     <path id="m75ba17237a" d="M 0 8.174373 
C 2.167869 8.174373 4.24724 7.313069 5.780154 5.780154 
C 7.313069 4.24724 8.174373 2.167869 8.174373 0 
C 8.174373 -2.167869 7.313069 -4.24724 5.780154 -5.780154 
C 4.24724 -7.313069 2.167869 -8.174373 0 -8.174373 
C -2.167869 -8.174373 -4.24724 -7.313069 -5.780154 -5.780154 
C -7.313069 -4.24724 -8.174373 -2.167869 -8.174373 0 
C -8.174373 2.167869 -7.313069 4.24724 -5.780154 5.780154 
C -4.24724 7.313069 -2.167869 8.174373 0 8.174373 
z
" style="stroke: #000000"/>
    </defs>
    <g clip-path="url(#pefd66234ea)">
     <use xlink:href="#m75ba17237a" x="266.461221" y="144.423437" style="stroke: #000000"/>
    </g>
   </g>
   <g id="line2d_6">
    <defs>
     <path id="mc6f31777db" d="M 0 8.146915 
C 2.160587 8.146915 4.232973 7.288505 5.760739 5.760739 
C 7.288505 4.232973 8.146915 2.160587 8.146915 0 
C 8.146915 -2.160587 7.288505 -4.232973 5.760739 -5.760739 
C 4.232973 -7.288505 2.160587 -8.146915 0 -8.146915 
C -2.160587 -8.146915 -4.232973 -7.288505 -5.760739 -5.760739 
C -7.288505 -4.232973 -8.146915 -2.160587 -8.146915 0 
C -8.146915 2.160587 -7.288505 4.232973 -5.760739 5.760739 
C -4.232973 7.288505 -2.160587 8.146915 0 8.146915 
z
" style="stroke: #000000"/>
    </defs>
    <g clip-path="url(#pefd66234ea)">
     <use xlink:href="#mc6f31777db" x="460.290566" y="142.798917" style="stroke: #000000"/>
    </g>
   </g>
   <g id="line2d_7">
    <defs>
     <path id="m65e96f93a7" d="M 0 7.853693 
C 2.082824 7.853693 4.080621 7.026178 5.5534 5.5534 
C 7.026178 4.080621 7.853693 2.082824 7.853693 0 
C 7.853693 -2.082824 7.026178 -4.080621 5.5534 -5.5534 
C 4.080621 -7.026178 2.082824 -7.853693 0 -7.853693 
C -2.082824 -7.853693 -4.080621 -7.026178 -5.5534 -5.5534 
C -7.026178 -4.080621 -7.853693 -2.082824 -7.853693 0 
C -7.853693 2.082824 -7.026178 4.080621 -5.5534 5.5534 
C -4.080621 7.026178 -2.082824 7.853693 0 7.853693 
z
" style="stroke: #000000"/>
    </defs>
    <g clip-path="url(#pefd66234ea)">
     <use xlink:href="#m65e96f93a7" x="406.829338" y="265.460938" style="stroke: #000000"/>
    </g>
   </g>
   <g id="line2d_8">
    <defs>
     <path id="m1c6a41f2c1" d="M 0 7.691633 
C 2.039845 7.691633 3.996418 6.881194 5.438806 5.438806 
C 6.881194 3.996418 7.691633 2.039845 7.691633 0 
C 7.691633 -2.039845 6.881194 -3.996418 5.438806 -5.438806 
C 3.996418 -6.881194 2.039845 -7.691633 0 -7.691633 
C -2.039845 -7.691633 -3.996418 -6.881194 -5.438806 -5.438806 
C -6.881194 -3.996418 -7.691633 -2.039845 -7.691633 0 
C -7.691633 2.039845 -6.881194 3.996418 -5.438806 5.438806 
C -3.996418 6.881194 -2.039845 7.691633 0 7.691633 
z
" style="stroke: #000000"/>
    </defs>
    <g clip-path="url(#pefd66234ea)">
     <use xlink:href="#m1c6a41f2c1" x="471.538779" y="121.758181" style="stroke: #000000"/>
    </g>
   </g>
   <g id="line2d_9">
    <defs>
     <path id="mdc3789f4e0" d="M 0 7.660911 
C 2.031697 7.660911 3.980455 6.853709 5.417082 5.417082 
C 6.853709 3.980455 7.660911 2.031697 7.660911 0 
C 7.660911 -2.031697 6.853709 -3.980455 5.417082 -5.417082 
C 3.980455 -6.853709 2.031697 -7.660911 0 -7.660911 
C -2.031697 -7.660911 -3.980455 -6.853709 -5.417082 -5.417082 
C -6.853709 -3.980455 -7.660911 -2.031697 -7.660911 0 
C -7.660911 2.031697 -6.853709 3.980455 -5.417082 5.417082 
C -3.980455 6.853709 -2.031697 7.660911 0 7.660911 
z
" style="stroke: #000000"/>
    </defs>
    <g clip-path="url(#pefd66234ea)">
     <use xlink:href="#mdc3789f4e0" x="462.148135" y="90.224579" style="stroke: #000000"/>
    </g>
   </g>
   <g id="line2d_10">
    <defs>
     <path id="m8aa3b92d83" d="M 0 7.625686 
C 2.022355 7.625686 3.962153 6.822195 5.392174 5.392174 
C 6.822195 3.962153 7.625686 2.022355 7.625686 0 
C 7.625686 -2.022355 6.822195 -3.962153 5.392174 -5.392174 
C 3.962153 -6.822195 2.022355 -7.625686 0 -7.625686 
C -2.022355 -7.625686 -3.962153 -6.822195 -5.392174 -5.392174 
C -6.822195 -3.962153 -7.625686 -2.022355 -7.625686 0 
C -7.625686 2.022355 -6.822195 3.962153 -5.392174 5.392174 
C -3.962153 6.822195 -2.022355 7.625686 0 7.625686 
z
" style="stroke: #000000"/>
    </defs>
    <g clip-path="url(#pefd66234ea)">
     <use xlink:href="#m8aa3b92d83" x="457.161075" y="55.8" style="stroke: #000000"/>
    </g>
   </g>
  </g>
 </g>
 <defs>
  <clipPath id="pefd66234ea">
   <path d="M 256.207343 320.4 
L 256.207343 43.2 
L 481.792657 43.2 
L 481.792657 320.4 
L 256.207343 320.4 
"/>
  </clipPath>
 </defs>
</svg>
