<?xml version="1.0" encoding="utf-8" standalone="no"?>
<!DOCTYPE svg PUBLIC "-//W3C//DTD SVG 1.1//EN"
  "http://www.w3.org/Graphics/SVG/1.1/DTD/svg11.dtd">
<svg xmlns:xlink="http://www.w3.org/1999/xlink" width="720pt" height="360pt" viewBox="0 0 720 360" xmlns="http://www.w3.org/2000/svg" version="1.1">
 <metadata>
  <rdf:RDF xmlns:dc="http://purl.org/dc/elements/1.1/" xmlns:cc="http://creativecommons.org/ns#" xmlns:rdf="http://www.w3.org/1999/02/22-rdf-syntax-ns#">
   <cc:Work>
    <dc:type rdf:resource="http://purl.org/dc/dcmitype/StillImage"/>
    <dc:date>2023-11-30T21:30:49.663557</dc:date>
    <dc:format>image/svg+xml</dc:format>
    <dc:creator>
     <cc:Agent>
      <dc:title>Matplotlib v3.8.1, https://matplotlib.org/</dc:title>
     </cc:Agent>
    </dc:creator>
   </cc:Work>
  </rdf:RDF>
 </metadata>
 <defs>
  <style type="text/css">*{stroke-linejoin: round; stroke-linecap: butt}</style>
 </defs>
 <g id="figure_1">
  <g id="patch_1">
   <path d="M 0 360 
L 720 360 
L 720 0 
L 0 0 
z
" style="fill: #ffffff"/>
  </g>
  <g id="axes_1">
   <g id="patch_2">
    <path d="M 305.060663 320.4 
L 305.060663 43.2 
L 432.939337 43.2 
L 432.939337 320.4 
L 305.060663 320.4 
" style="fill: #ffffff"/>
   </g>
   <g id="line2d_1">
    <defs>
     <path id="m30fdb7fd09" d="M 0 9.945151 
C 2.637485 9.945151 5.1673 8.897267 7.032283 7.032283 
C 8.897267 5.1673 9.945151 2.637485 9.945151 0 
C 9.945151 -2.637485 8.897267 -5.1673 7.032283 -7.032283 
C 5.1673 -8.897267 2.637485 -9.945151 0 -9.945151 
C -2.637485 -9.945151 -5.1673 -8.897267 -7.032283 -7.032283 
C -8.897267 -5.1673 -9.945151 -2.637485 -9.945151 0 
C -9.945151 2.637485 -8.897267 5.1673 -7.032283 7.032283 
C -5.1673 8.897267 -2.637485 9.945151 0 9.945151 
z
" style="stroke: #000000"/>
    </defs>
    <g clip-path="url(#p039342bfa8)">
     <use xlink:href="#m30fdb7fd09" x="426.457645" y="307.8" style="stroke: #000000"/>
    </g>
   </g>
   <g id="line2d_2">
    <defs>
     <path id="mad58b34864" d="M 0 9.361825 
C 2.482785 9.361825 4.864216 8.375404 6.61981 6.61981 
C 8.375404 4.864216 9.361825 2.482785 9.361825 0 
C 9.361825 -2.482785 8.375404 -4.864216 6.61981 -6.61981 
C 4.864216 -8.375404 2.482785 -9.361825 0 -9.361825 
C -2.482785 -9.361825 -4.864216 -8.375404 -6.61981 -6.61981 
C -8.375404 -4.864216 -9.361825 -2.482785 -9.361825 0 
C -9.361825 2.482785 -8.375404 4.864216 -6.61981 6.61981 
C -4.864216 8.375404 -2.482785 9.361825 0 9.361825 
z
" style="stroke: #000000"/>
    </defs>
    <g clip-path="url(#p039342bfa8)">
     <use xlink:href="#mad58b34864" x="337.575189" y="233.219939" style="stroke: #000000"/>
    </g>
   </g>
   <g id="line2d_3">
    <defs>
     <path id="m000d14d393" d="M 0 9.304822 
C 2.467668 9.304822 4.834598 8.324407 6.579503 6.579503 
C 8.324407 4.834598 9.304822 2.467668 9.304822 0 
C 9.304822 -2.467668 8.324407 -4.834598 6.579503 -6.579503 
C 4.834598 -8.324407 2.467668 -9.304822 0 -9.304822 
C -2.467668 -9.304822 -4.834598 -8.324407 -6.579503 -6.579503 
C -8.324407 -4.834598 -9.304822 -2.467668 -9.304822 0 
C -9.304822 2.467668 -8.324407 4.834598 -6.579503 6.579503 
C -4.834598 8.324407 -2.467668 9.304822 0 9.304822 
z
" style="stroke: #000000"/>
    </defs>
    <g clip-path="url(#p039342bfa8)">
     <use xlink:href="#m000d14d393" x="427.12667" y="304.707931" style="stroke: #000000"/>
    </g>
   </g>
   <g id="line2d_4">
    <defs>
     <path id="mee184904ec" d="M 0 9.061103 
C 2.403033 9.061103 4.707967 8.106368 6.407167 6.407167 
C 8.106368 4.707967 9.061103 2.403033 9.061103 0 
C 9.061103 -2.403033 8.106368 -4.707967 6.407167 -6.407167 
C 4.707967 -8.106368 2.403033 -9.061103 0 -9.061103 
C -2.403033 -9.061103 -4.707967 -8.106368 -6.407167 -6.407167 
C -8.106368 -4.707967 -9.061103 -2.403033 -9.061103 0 
C -9.061103 2.403033 -8.106368 4.707967 -6.407167 6.407167 
C -4.707967 8.106368 -2.403033 9.061103 0 9.061103 
z
" style="stroke: #000000"/>
    </defs>
    <g clip-path="url(#p039342bfa8)">
     <use xlink:href="#mee184904ec" x="379.986904" y="55.8" style="stroke: #000000"/>
    </g>
   </g>
   <g id="line2d_5">
    <defs>
     <path id="m6aa7848859" d="M 0 8.990003 
C 2.384177 8.990003 4.671025 8.042759 6.356892 6.356892 
C 8.042759 4.671025 8.990003 2.384177 8.990003 0 
C 8.990003 -2.384177 8.042759 -4.671025 6.356892 -6.356892 
C 4.671025 -8.042759 2.384177 -8.990003 0 -8.990003 
C -2.384177 -8.990003 -4.671025 -8.042759 -6.356892 -6.356892 
C -8.042759 -4.671025 -8.990003 -2.384177 -8.990003 0 
C -8.990003 2.384177 -8.042759 4.671025 -6.356892 6.356892 
C -4.671025 8.042759 -2.384177 8.990003 0 8.990003 
z
" style="stroke: #000000"/>
    </defs>
    <g clip-path="url(#p039342bfa8)">
     <use xlink:href="#m6aa7848859" x="339.374215" y="259.523355" style="stroke: #000000"/>
    </g>
   </g>
   <g id="line2d_6">
    <defs>
     <path id="maa0e130f9c" d="M 0 8.975898 
C 2.380436 8.975898 4.663696 8.030141 6.346919 6.346919 
C 8.030141 4.663696 8.975898 2.380436 8.975898 0 
C 8.975898 -2.380436 8.030141 -4.663696 6.346919 -6.346919 
C 4.663696 -8.030141 2.380436 -8.975898 0 -8.975898 
C -2.380436 -8.975898 -4.663696 -8.030141 -6.346919 -6.346919 
C -8.030141 -4.663696 -8.975898 -2.380436 -8.975898 0 
C -8.975898 2.380436 -8.030141 4.663696 -6.346919 6.346919 
C -4.663696 8.030141 -2.380436 8.975898 0 8.975898 
z
" style="stroke: #000000"/>
    </defs>
    <g clip-path="url(#p039342bfa8)">
     <use xlink:href="#maa0e130f9c" x="359.379702" y="231.736939" style="stroke: #000000"/>
    </g>
   </g>
   <g id="line2d_7">
    <defs>
     <path id="mba9ef9ff64" d="M 0 8.899985 
C 2.360304 8.899985 4.624253 7.962227 6.29324 6.29324 
C 7.962227 4.624253 8.899985 2.360304 8.899985 0 
C 8.899985 -2.360304 7.962227 -4.624253 6.29324 -6.29324 
C 4.624253 -7.962227 2.360304 -8.899985 0 -8.899985 
C -2.360304 -8.899985 -4.624253 -7.962227 -6.29324 -6.29324 
C -7.962227 -4.624253 -8.899985 -2.360304 -8.899985 0 
C -8.899985 2.360304 -7.962227 4.624253 -6.29324 6.29324 
C -4.624253 7.962227 -2.360304 8.899985 0 8.899985 
z
" style="stroke: #000000"/>
    </defs>
    <g clip-path="url(#p039342bfa8)">
     <use xlink:href="#mba9ef9ff64" x="353.760298" y="172.756269" style="stroke: #000000"/>
    </g>
   </g>
   <g id="line2d_8">
    <defs>
     <path id="m521990b950" d="M 0 8.895655 
C 2.359155 8.895655 4.622003 7.958352 6.290178 6.290178 
C 7.958352 4.622003 8.895655 2.359155 8.895655 0 
C 8.895655 -2.359155 7.958352 -4.622003 6.290178 -6.290178 
C 4.622003 -7.958352 2.359155 -8.895655 0 -8.895655 
C -2.359155 -8.895655 -4.622003 -7.958352 -6.290178 -6.290178 
C -7.958352 -4.622003 -8.895655 -2.359155 -8.895655 0 
C -8.895655 2.359155 -7.958352 4.622003 -6.290178 6.290178 
C -4.622003 7.958352 -2.359155 8.895655 0 8.895655 
z
" style="stroke: #000000"/>
    </defs>
    <g clip-path="url(#p039342bfa8)">
     <use xlink:href="#m521990b950" x="310.87333" y="302.2865" style="stroke: #000000"/>
    </g>
   </g>
   <g id="line2d_9">
    <defs>
     <path id="m485e93e429" d="M 0 8.855124 
C 2.348406 8.855124 4.600944 7.922092 6.261518 6.261518 
C 7.922092 4.600944 8.855124 2.348406 8.855124 0 
C 8.855124 -2.348406 7.922092 -4.600944 6.261518 -6.261518 
C 4.600944 -7.922092 2.348406 -8.855124 0 -8.855124 
C -2.348406 -8.855124 -4.600944 -7.922092 -6.261518 -6.261518 
C -7.922092 -4.600944 -8.855124 -2.348406 -8.855124 0 
C -8.855124 2.348406 -7.922092 4.600944 -6.261518 6.261518 
C -4.600944 7.922092 -2.348406 8.855124 0 8.855124 
z
" style="stroke: #000000"/>
    </defs>
    <g clip-path="url(#p039342bfa8)">
     <use xlink:href="#m485e93e429" x="348.432572" y="233.253479" style="stroke: #000000"/>
    </g>
   </g>
   <g id="line2d_10">
    <defs>
     <path id="me274fbf53c" d="M 0 8.791288 
C 2.331477 8.791288 4.567776 7.864982 6.216379 6.216379 
C 7.864982 4.567776 8.791288 2.331477 8.791288 0 
C 8.791288 -2.331477 7.864982 -4.567776 6.216379 -6.216379 
C 4.567776 -7.864982 2.331477 -8.791288 0 -8.791288 
C -2.331477 -8.791288 -4.567776 -7.864982 -6.216379 -6.216379 
C -7.864982 -4.567776 -8.791288 -2.331477 -8.791288 0 
C -8.791288 2.331477 -7.864982 4.567776 -6.216379 6.216379 
C -4.567776 7.864982 -2.331477 8.791288 0 8.791288 
z
" style="stroke: #000000"/>
    </defs>
    <g clip-path="url(#p039342bfa8)">
     <use xlink:href="#me274fbf53c" x="337.291669" y="250.112757" style="stroke: #000000"/>
    </g>
   </g>
  </g>
 </g>
 <defs>
  <clipPath id="p039342bfa8">
   <path d="M 305.060663 320.4 
L 305.060663 43.2 
L 432.939337 43.2 
L 432.939337 320.4 
L 305.060663 320.4 
"/>
  </clipPath>
 </defs>
</svg>
