<?xml version="1.0" encoding="utf-8" standalone="no"?>
<!DOCTYPE svg PUBLIC "-//W3C//DTD SVG 1.1//EN"
  "http://www.w3.org/Graphics/SVG/1.1/DTD/svg11.dtd">
<svg xmlns:xlink="http://www.w3.org/1999/xlink" width="720pt" height="360pt" viewBox="0 0 720 360" xmlns="http://www.w3.org/2000/svg" version="1.1">
 <metadata>
  <rdf:RDF xmlns:dc="http://purl.org/dc/elements/1.1/" xmlns:cc="http://creativecommons.org/ns#" xmlns:rdf="http://www.w3.org/1999/02/22-rdf-syntax-ns#">
   <cc:Work>
    <dc:type rdf:resource="http://purl.org/dc/dcmitype/StillImage"/>
    <dc:date>2023-11-30T21:30:52.714624</dc:date>
    <dc:format>image/svg+xml</dc:format>
    <dc:creator>
     <cc:Agent>
      <dc:title>Matplotlib v3.8.1, https://matplotlib.org/</dc:title>
     </cc:Agent>
    </dc:creator>
   </cc:Work>
  </rdf:RDF>
 </metadata>
 <defs>
  <style type="text/css">*{stroke-linejoin: round; stroke-linecap: butt}</style>
 </defs>
 <g id="figure_1">
  <g id="patch_1">
   <path d="M 0 360 
L 720 360 
L 720 0 
L 0 0 
z
" style="fill: #ffffff"/>
  </g>
  <g id="axes_1">
   <g id="patch_2">
    <path d="M 267.347223 320.4 
L 267.347223 43.2 
L 470.652777 43.2 
L 470.652777 320.4 
L 267.347223 320.4 
" style="fill: #ffffff"/>
   </g>
   <g id="line2d_1">
    <defs>
     <path id="mac25369465" d="M 0 7.339163 
C 1.946369 7.339163 3.813281 6.565862 5.189572 5.189572 
C 6.565862 3.813281 7.339163 1.946369 7.339163 0 
C 7.339163 -1.946369 6.565862 -3.813281 5.189572 -5.189572 
C 3.813281 -6.565862 1.946369 -7.339163 0 -7.339163 
C -1.946369 -7.339163 -3.813281 -6.565862 -5.189572 -5.189572 
C -6.565862 -3.813281 -7.339163 -1.946369 -7.339163 0 
C -7.339163 1.946369 -6.565862 3.813281 -5.189572 5.189572 
C -3.813281 6.565862 -1.946369 7.339163 0 7.339163 
z
" style="stroke: #000000"/>
    </defs>
    <g clip-path="url(#p9eba1f55bd)">
     <use xlink:href="#mac25369465" x="411.851518" y="242.819877" style="stroke: #000000"/>
    </g>
   </g>
   <g id="line2d_2">
    <defs>
     <path id="ma9c5a488b0" d="M 0 6.468871 
C 1.715565 6.468871 3.361095 5.78727 4.574182 4.574182 
C 5.78727 3.361095 6.468871 1.715565 6.468871 0 
C 6.468871 -1.715565 5.78727 -3.361095 4.574182 -4.574182 
C 3.361095 -5.78727 1.715565 -6.468871 0 -6.468871 
C -1.715565 -6.468871 -3.361095 -5.78727 -4.574182 -4.574182 
C -5.78727 -3.361095 -6.468871 -1.715565 -6.468871 0 
C -6.468871 1.715565 -5.78727 3.361095 -4.574182 4.574182 
C -3.361095 5.78727 -1.715565 6.468871 0 6.468871 
z
" style="stroke: #000000"/>
    </defs>
    <g clip-path="url(#p9eba1f55bd)">
     <use xlink:href="#ma9c5a488b0" x="461.411615" y="93.806955" style="stroke: #000000"/>
    </g>
   </g>
   <g id="line2d_3">
    <defs>
     <path id="m4047f71b12" d="M 0 6.196025 
C 1.643205 6.196025 3.21933 5.543172 4.381251 4.381251 
C 5.543172 3.21933 6.196025 1.643205 6.196025 0 
C 6.196025 -1.643205 5.543172 -3.21933 4.381251 -4.381251 
C 3.21933 -5.543172 1.643205 -6.196025 0 -6.196025 
C -1.643205 -6.196025 -3.21933 -5.543172 -4.381251 -4.381251 
C -5.543172 -3.21933 -6.196025 -1.643205 -6.196025 0 
C -6.196025 1.643205 -5.543172 3.21933 -4.381251 4.381251 
C -3.21933 5.543172 -1.643205 6.196025 0 6.196025 
z
" style="stroke: #000000"/>
    </defs>
    <g clip-path="url(#p9eba1f55bd)">
     <use xlink:href="#m4047f71b12" x="306.909643" y="180.704515" style="stroke: #000000"/>
    </g>
   </g>
   <g id="line2d_4">
    <defs>
     <path id="m28de07eedd" d="M 0 5.892931 
C 1.562823 5.892931 3.061848 5.272014 4.166931 4.166931 
C 5.272014 3.061848 5.892931 1.562823 5.892931 0 
C 5.892931 -1.562823 5.272014 -3.061848 4.166931 -4.166931 
C 3.061848 -5.272014 1.562823 -5.892931 0 -5.892931 
C -1.562823 -5.892931 -3.061848 -5.272014 -4.166931 -4.166931 
C -5.272014 -3.061848 -5.892931 -1.562823 -5.892931 0 
C -5.892931 1.562823 -5.272014 3.061848 -4.166931 4.166931 
C -3.061848 5.272014 -1.562823 5.892931 0 5.892931 
z
" style="stroke: #000000"/>
    </defs>
    <g clip-path="url(#p9eba1f55bd)">
     <use xlink:href="#m28de07eedd" x="276.588385" y="298.844886" style="stroke: #000000"/>
    </g>
   </g>
   <g id="line2d_5">
    <defs>
     <path id="m1e6bbf9d01" d="M 0 5.799259 
C 1.537981 5.799259 3.013178 5.188212 4.100695 4.100695 
C 5.188212 3.013178 5.799259 1.537981 5.799259 0 
C 5.799259 -1.537981 5.188212 -3.013178 4.100695 -4.100695 
C 3.013178 -5.188212 1.537981 -5.799259 0 -5.799259 
C -1.537981 -5.799259 -3.013178 -5.188212 -4.100695 -4.100695 
C -5.188212 -3.013178 -5.799259 -1.537981 -5.799259 0 
C -5.799259 1.537981 -5.188212 3.013178 -4.100695 4.100695 
C -3.013178 5.188212 -1.537981 5.799259 0 5.799259 
z
" style="stroke: #000000"/>
    </defs>
    <g clip-path="url(#p9eba1f55bd)">
     <use xlink:href="#m1e6bbf9d01" x="325.779573" y="307.8" style="stroke: #000000"/>
    </g>
   </g>
   <g id="line2d_6">
    <defs>
     <path id="me0856eeafc" d="M 0 5.394359 
C 1.430601 5.394359 2.8028 4.825975 3.814388 3.814388 
C 4.825975 2.8028 5.394359 1.430601 5.394359 0 
C 5.394359 -1.430601 4.825975 -2.8028 3.814388 -3.814388 
C 2.8028 -4.825975 1.430601 -5.394359 0 -5.394359 
C -1.430601 -5.394359 -2.8028 -4.825975 -3.814388 -3.814388 
C -4.825975 -2.8028 -5.394359 -1.430601 -5.394359 0 
C -5.394359 1.430601 -4.825975 2.8028 -3.814388 3.814388 
C -2.8028 4.825975 -1.430601 5.394359 0 5.394359 
z
" style="stroke: #000000"/>
    </defs>
    <g clip-path="url(#p9eba1f55bd)">
     <use xlink:href="#me0856eeafc" x="454.038496" y="173.735707" style="stroke: #000000"/>
    </g>
   </g>
   <g id="line2d_7"/>
   <g id="line2d_8"/>
   <g id="line2d_9"/>
   <g id="line2d_10"/>
  </g>
 </g>
 <defs>
  <clipPath id="p9eba1f55bd">
   <path d="M 267.347223 320.4 
L 267.347223 43.2 
L 470.652777 43.2 
L 470.652777 320.4 
L 267.347223 320.4 
"/>
  </clipPath>
 </defs>
</svg>
