<?xml version="1.0" encoding="utf-8" standalone="no"?>
<!DOCTYPE svg PUBLIC "-//W3C//DTD SVG 1.1//EN"
  "http://www.w3.org/Graphics/SVG/1.1/DTD/svg11.dtd">
<svg xmlns:xlink="http://www.w3.org/1999/xlink" width="720pt" height="360pt" viewBox="0 0 720 360" xmlns="http://www.w3.org/2000/svg" version="1.1">
 <metadata>
  <rdf:RDF xmlns:dc="http://purl.org/dc/elements/1.1/" xmlns:cc="http://creativecommons.org/ns#" xmlns:rdf="http://www.w3.org/1999/02/22-rdf-syntax-ns#">
   <cc:Work>
    <dc:type rdf:resource="http://purl.org/dc/dcmitype/StillImage"/>
    <dc:date>2023-11-30T21:30:49.705278</dc:date>
    <dc:format>image/svg+xml</dc:format>
    <dc:creator>
     <cc:Agent>
      <dc:title>Matplotlib v3.8.1, https://matplotlib.org/</dc:title>
     </cc:Agent>
    </dc:creator>
   </cc:Work>
  </rdf:RDF>
 </metadata>
 <defs>
  <style type="text/css">*{stroke-linejoin: round; stroke-linecap: butt}</style>
 </defs>
 <g id="figure_1">
  <g id="patch_1">
   <path d="M 0 360 
L 720 360 
L 720 0 
L 0 0 
z
" style="fill: #ffffff"/>
  </g>
  <g id="axes_1">
   <g id="patch_2">
    <path d="M 238.419031 320.4 
L 238.419031 43.2 
L 499.580969 43.2 
L 499.580969 320.4 
L 238.419031 320.4 
" style="fill: #ffffff"/>
   </g>
   <g id="line2d_1">
    <defs>
     <path id="ma1a7b22b10" d="M 0 11.798699 
C 3.129051 11.798699 6.130366 10.555513 8.34294 8.34294 
C 10.555513 6.130366 11.798699 3.129051 11.798699 0 
C 11.798699 -3.129051 10.555513 -6.130366 8.34294 -8.34294 
C 6.130366 -10.555513 3.129051 -11.798699 0 -11.798699 
C -3.129051 -11.798699 -6.130366 -10.555513 -8.34294 -8.34294 
C -10.555513 -6.130366 -11.798699 -3.129051 -11.798699 0 
C -11.798699 3.129051 -10.555513 6.130366 -8.34294 8.34294 
C -6.130366 10.555513 -3.129051 11.798699 0 11.798699 
z
" style="stroke: #000000"/>
    </defs>
    <g clip-path="url(#p64d548da95)">
     <use xlink:href="#ma1a7b22b10" x="254.734794" y="212.811018" style="stroke: #000000"/>
    </g>
   </g>
   <g id="line2d_2">
    <defs>
     <path id="m4bbcfdceb4" d="M 0 11.690762 
C 3.100426 11.690762 6.074285 10.45895 8.266617 8.266617 
C 10.45895 6.074285 11.690762 3.100426 11.690762 0 
C 11.690762 -3.100426 10.45895 -6.074285 8.266617 -8.266617 
C 6.074285 -10.45895 3.100426 -11.690762 0 -11.690762 
C -3.100426 -11.690762 -6.074285 -10.45895 -8.266617 -8.266617 
C -10.45895 -6.074285 -11.690762 -3.100426 -11.690762 0 
C -11.690762 3.100426 -10.45895 6.074285 -8.266617 8.266617 
C -6.074285 10.45895 -3.100426 11.690762 0 11.690762 
z
" style="stroke: #000000"/>
    </defs>
    <g clip-path="url(#p64d548da95)">
     <use xlink:href="#m4bbcfdceb4" x="320.183951" y="55.8" style="stroke: #000000"/>
    </g>
   </g>
   <g id="line2d_3">
    <defs>
     <path id="mb74b6d57a1" d="M 0 11.50472 
C 3.051087 11.50472 5.977621 10.29251 8.135065 8.135065 
C 10.29251 5.977621 11.50472 3.051087 11.50472 0 
C 11.50472 -3.051087 10.29251 -5.977621 8.135065 -8.135065 
C 5.977621 -10.29251 3.051087 -11.50472 0 -11.50472 
C -3.051087 -11.50472 -5.977621 -10.29251 -8.135065 -8.135065 
C -10.29251 -5.977621 -11.50472 -3.051087 -11.50472 0 
C -11.50472 3.051087 -10.29251 5.977621 -8.135065 8.135065 
C -5.977621 10.29251 -3.051087 11.50472 0 11.50472 
z
" style="stroke: #000000"/>
    </defs>
    <g clip-path="url(#p64d548da95)">
     <use xlink:href="#mb74b6d57a1" x="325.634937" y="307.8" style="stroke: #000000"/>
    </g>
   </g>
   <g id="line2d_4">
    <defs>
     <path id="mf778d84aea" d="M 0 11.349609 
C 3.009951 11.349609 5.897028 10.153742 8.025385 8.025385 
C 10.153742 5.897028 11.349609 3.009951 11.349609 0 
C 11.349609 -3.009951 10.153742 -5.897028 8.025385 -8.025385 
C 5.897028 -10.153742 3.009951 -11.349609 0 -11.349609 
C -3.009951 -11.349609 -5.897028 -10.153742 -8.025385 -8.025385 
C -10.153742 -5.897028 -11.349609 -3.009951 -11.349609 0 
C -11.349609 3.009951 -10.153742 5.897028 -8.025385 8.025385 
C -5.897028 10.153742 -3.009951 11.349609 0 11.349609 
z
" style="stroke: #000000"/>
    </defs>
    <g clip-path="url(#p64d548da95)">
     <use xlink:href="#mf778d84aea" x="338.617826" y="239.408874" style="stroke: #000000"/>
    </g>
   </g>
   <g id="line2d_5">
    <defs>
     <path id="md31d7a3151" d="M 0 11.300036 
C 2.996805 11.300036 5.871271 10.109393 7.990332 7.990332 
C 10.109393 5.871271 11.300036 2.996805 11.300036 0 
C 11.300036 -2.996805 10.109393 -5.871271 7.990332 -7.990332 
C 5.871271 -10.109393 2.996805 -11.300036 0 -11.300036 
C -2.996805 -11.300036 -5.871271 -10.109393 -7.990332 -7.990332 
C -10.109393 -5.871271 -11.300036 -2.996805 -11.300036 0 
C -11.300036 2.996805 -10.109393 5.871271 -7.990332 7.990332 
C -5.871271 10.109393 -2.996805 11.300036 0 11.300036 
z
" style="stroke: #000000"/>
    </defs>
    <g clip-path="url(#p64d548da95)">
     <use xlink:href="#md31d7a3151" x="250.290028" y="149.422306" style="stroke: #000000"/>
    </g>
   </g>
   <g id="line2d_6">
    <defs>
     <path id="m547d5f97e6" d="M 0 11.079206 
C 2.93824 11.079206 5.756533 9.911831 7.834182 7.834182 
C 9.911831 5.756533 11.079206 2.93824 11.079206 0 
C 11.079206 -2.93824 9.911831 -5.756533 7.834182 -7.834182 
C 5.756533 -9.911831 2.93824 -11.079206 0 -11.079206 
C -2.93824 -11.079206 -5.756533 -9.911831 -7.834182 -7.834182 
C -9.911831 -5.756533 -11.079206 -2.93824 -11.079206 0 
C -11.079206 2.93824 -9.911831 5.756533 -7.834182 7.834182 
C -5.756533 9.911831 -2.93824 11.079206 0 11.079206 
z
" style="stroke: #000000"/>
    </defs>
    <g clip-path="url(#p64d548da95)">
     <use xlink:href="#m547d5f97e6" x="366.039958" y="306.021027" style="stroke: #000000"/>
    </g>
   </g>
   <g id="line2d_7">
    <defs>
     <path id="mc7c7f22f7c" d="M 0 11.071507 
C 2.936198 11.071507 5.752532 9.904944 7.828738 7.828738 
C 9.904944 5.752532 11.071507 2.936198 11.071507 0 
C 11.071507 -2.936198 9.904944 -5.752532 7.828738 -7.828738 
C 5.752532 -9.904944 2.936198 -11.071507 0 -11.071507 
C -2.936198 -11.071507 -5.752532 -9.904944 -7.828738 -7.828738 
C -9.904944 -5.752532 -11.071507 -2.936198 -11.071507 0 
C -11.071507 2.936198 -9.904944 5.752532 -7.828738 7.828738 
C -5.752532 9.904944 -2.936198 11.071507 0 11.071507 
z
" style="stroke: #000000"/>
    </defs>
    <g clip-path="url(#p64d548da95)">
     <use xlink:href="#mc7c7f22f7c" x="487.709972" y="156.94016" style="stroke: #000000"/>
    </g>
   </g>
   <g id="line2d_8">
    <defs>
     <path id="me8c99b4302" d="M 0 11.065227 
C 2.934533 11.065227 5.749269 9.899325 7.824297 7.824297 
C 9.899325 5.749269 11.065227 2.934533 11.065227 0 
C 11.065227 -2.934533 9.899325 -5.749269 7.824297 -7.824297 
C 5.749269 -9.899325 2.934533 -11.065227 0 -11.065227 
C -2.934533 -11.065227 -5.749269 -9.899325 -7.824297 -7.824297 
C -9.899325 -5.749269 -11.065227 -2.934533 -11.065227 0 
C -11.065227 2.934533 -9.899325 5.749269 -7.824297 7.824297 
C -5.749269 9.899325 -2.934533 11.065227 0 11.065227 
z
" style="stroke: #000000"/>
    </defs>
    <g clip-path="url(#p64d548da95)">
     <use xlink:href="#me8c99b4302" x="253.946493" y="178.977684" style="stroke: #000000"/>
    </g>
   </g>
   <g id="line2d_9">
    <defs>
     <path id="m1022c60b5e" d="M 0 10.787587 
C 2.860902 10.787587 5.605013 9.650939 7.627976 7.627976 
C 9.650939 5.605013 10.787587 2.860902 10.787587 0 
C 10.787587 -2.860902 9.650939 -5.605013 7.627976 -7.627976 
C 5.605013 -9.650939 2.860902 -10.787587 0 -10.787587 
C -2.860902 -10.787587 -5.605013 -9.650939 -7.627976 -7.627976 
C -9.650939 -5.605013 -10.787587 -2.860902 -10.787587 0 
C -10.787587 2.860902 -9.650939 5.605013 -7.627976 7.627976 
C -5.605013 9.650939 -2.860902 10.787587 0 10.787587 
z
" style="stroke: #000000"/>
    </defs>
    <g clip-path="url(#p64d548da95)">
     <use xlink:href="#m1022c60b5e" x="269.374198" y="221.553685" style="stroke: #000000"/>
    </g>
   </g>
   <g id="line2d_10">
    <defs>
     <path id="m4a855aef92" d="M 0 10.714463 
C 2.841509 10.714463 5.567019 9.585519 7.576269 7.576269 
C 9.585519 5.567019 10.714463 2.841509 10.714463 0 
C 10.714463 -2.841509 9.585519 -5.567019 7.576269 -7.576269 
C 5.567019 -9.585519 2.841509 -10.714463 0 -10.714463 
C -2.841509 -10.714463 -5.567019 -9.585519 -7.576269 -7.576269 
C -9.585519 -5.567019 -10.714463 -2.841509 -10.714463 0 
C -10.714463 2.841509 -9.585519 5.567019 -7.576269 7.576269 
C -5.567019 9.585519 -2.841509 10.714463 0 10.714463 
z
" style="stroke: #000000"/>
    </defs>
    <g clip-path="url(#p64d548da95)">
     <use xlink:href="#m4a855aef92" x="367.112698" y="92.729131" style="stroke: #000000"/>
    </g>
   </g>
  </g>
 </g>
 <defs>
  <clipPath id="p64d548da95">
   <path d="M 238.419031 320.4 
L 238.419031 43.2 
L 499.580969 43.2 
L 499.580969 320.4 
L 238.419031 320.4 
"/>
  </clipPath>
 </defs>
</svg>
