<?xml version="1.0" encoding="utf-8" standalone="no"?>
<!DOCTYPE svg PUBLIC "-//W3C//DTD SVG 1.1//EN"
  "http://www.w3.org/Graphics/SVG/1.1/DTD/svg11.dtd">
<svg xmlns:xlink="http://www.w3.org/1999/xlink" width="720pt" height="360pt" viewBox="0 0 720 360" xmlns="http://www.w3.org/2000/svg" version="1.1">
 <metadata>
  <rdf:RDF xmlns:dc="http://purl.org/dc/elements/1.1/" xmlns:cc="http://creativecommons.org/ns#" xmlns:rdf="http://www.w3.org/1999/02/22-rdf-syntax-ns#">
   <cc:Work>
    <dc:type rdf:resource="http://purl.org/dc/dcmitype/StillImage"/>
    <dc:date>2023-11-30T21:30:49.747276</dc:date>
    <dc:format>image/svg+xml</dc:format>
    <dc:creator>
     <cc:Agent>
      <dc:title>Matplotlib v3.8.1, https://matplotlib.org/</dc:title>
     </cc:Agent>
    </dc:creator>
   </cc:Work>
  </rdf:RDF>
 </metadata>
 <defs>
  <style type="text/css">*{stroke-linejoin: round; stroke-linecap: butt}</style>
 </defs>
 <g id="figure_1">
  <g id="patch_1">
   <path d="M 0 360 
L 720 360 
L 720 0 
L 0 0 
z
" style="fill: #ffffff"/>
  </g>
  <g id="axes_1">
   <g id="patch_2">
    <path d="M 275.216402 320.4 
L 275.216402 43.2 
L 462.783598 43.2 
L 462.783598 320.4 
L 275.216402 320.4 
" style="fill: #ffffff"/>
   </g>
   <g id="line2d_1">
    <defs>
     <path id="m10ffafef72" d="M 0 11.391384 
C 3.02103 11.391384 5.918734 10.191116 8.054925 8.054925 
C 10.191116 5.918734 11.391384 3.02103 11.391384 0 
C 11.391384 -3.02103 10.191116 -5.918734 8.054925 -8.054925 
C 5.918734 -10.191116 3.02103 -11.391384 0 -11.391384 
C -3.02103 -11.391384 -5.918734 -10.191116 -8.054925 -8.054925 
C -10.191116 -5.918734 -11.391384 -3.02103 -11.391384 0 
C -11.391384 3.02103 -10.191116 5.918734 -8.054925 8.054925 
C -5.918734 10.191116 -3.02103 11.391384 0 11.391384 
z
" style="stroke: #000000"/>
    </defs>
    <g clip-path="url(#p7fe695d2da)">
     <use xlink:href="#m10ffafef72" x="330.641659" y="187.324938" style="stroke: #000000"/>
    </g>
   </g>
   <g id="line2d_2">
    <defs>
     <path id="mbc2d4a2231" d="M 0 10.489064 
C 2.781732 10.489064 5.449907 9.38387 7.416888 7.416888 
C 9.38387 5.449907 10.489064 2.781732 10.489064 0 
C 10.489064 -2.781732 9.38387 -5.449907 7.416888 -7.416888 
C 5.449907 -9.38387 2.781732 -10.489064 0 -10.489064 
C -2.781732 -10.489064 -5.449907 -9.38387 -7.416888 -7.416888 
C -9.38387 -5.449907 -10.489064 -2.781732 -10.489064 0 
C -10.489064 2.781732 -9.38387 5.449907 -7.416888 7.416888 
C -5.449907 9.38387 -2.781732 10.489064 0 10.489064 
z
" style="stroke: #000000"/>
    </defs>
    <g clip-path="url(#p7fe695d2da)">
     <use xlink:href="#mbc2d4a2231" x="283.742184" y="55.902475" style="stroke: #000000"/>
    </g>
   </g>
   <g id="line2d_3">
    <defs>
     <path id="m3485001e82" d="M 0 10.471347 
C 2.777034 10.471347 5.440701 9.36802 7.404361 7.404361 
C 9.36802 5.440701 10.471347 2.777034 10.471347 0 
C 10.471347 -2.777034 9.36802 -5.440701 7.404361 -7.404361 
C 5.440701 -9.36802 2.777034 -10.471347 0 -10.471347 
C -2.777034 -10.471347 -5.440701 -9.36802 -7.404361 -7.404361 
C -9.36802 -5.440701 -10.471347 -2.777034 -10.471347 0 
C -10.471347 2.777034 -9.36802 5.440701 -7.404361 7.404361 
C -5.440701 9.36802 -2.777034 10.471347 0 10.471347 
z
" style="stroke: #000000"/>
    </defs>
    <g clip-path="url(#p7fe695d2da)">
     <use xlink:href="#m3485001e82" x="454.257816" y="307.8" style="stroke: #000000"/>
    </g>
   </g>
   <g id="line2d_4">
    <defs>
     <path id="m845da1771c" d="M 0 10.341302 
C 2.742545 10.341302 5.373133 9.251677 7.312405 7.312405 
C 9.251677 5.373133 10.341302 2.742545 10.341302 0 
C 10.341302 -2.742545 9.251677 -5.373133 7.312405 -7.312405 
C 5.373133 -9.251677 2.742545 -10.341302 0 -10.341302 
C -2.742545 -10.341302 -5.373133 -9.251677 -7.312405 -7.312405 
C -9.251677 -5.373133 -10.341302 -2.742545 -10.341302 0 
C -10.341302 2.742545 -9.251677 5.373133 -7.312405 7.312405 
C -5.373133 9.251677 -2.742545 10.341302 0 10.341302 
z
" style="stroke: #000000"/>
    </defs>
    <g clip-path="url(#p7fe695d2da)">
     <use xlink:href="#m845da1771c" x="284.22518" y="55.8" style="stroke: #000000"/>
    </g>
   </g>
   <g id="line2d_5">
    <defs>
     <path id="ma47d410abe" d="M 0 10.310524 
C 2.734383 10.310524 5.357141 9.224142 7.290641 7.290641 
C 9.224142 5.357141 10.310524 2.734383 10.310524 0 
C 10.310524 -2.734383 9.224142 -5.357141 7.290641 -7.290641 
C 5.357141 -9.224142 2.734383 -10.310524 0 -10.310524 
C -2.734383 -10.310524 -5.357141 -9.224142 -7.290641 -7.290641 
C -9.224142 -5.357141 -10.310524 -2.734383 -10.310524 0 
C -10.310524 2.734383 -9.224142 5.357141 -7.290641 7.290641 
C -5.357141 9.224142 -2.734383 10.310524 0 10.310524 
z
" style="stroke: #000000"/>
    </defs>
    <g clip-path="url(#p7fe695d2da)">
     <use xlink:href="#ma47d410abe" x="316.559108" y="62.580551" style="stroke: #000000"/>
    </g>
   </g>
   <g id="line2d_6">
    <defs>
     <path id="m60b24e4ced" d="M 0 10.169632 
C 2.697018 10.169632 5.283936 9.098095 7.191016 7.191016 
C 9.098095 5.283936 10.169632 2.697018 10.169632 0 
C 10.169632 -2.697018 9.098095 -5.283936 7.191016 -7.191016 
C 5.283936 -9.098095 2.697018 -10.169632 0 -10.169632 
C -2.697018 -10.169632 -5.283936 -9.098095 -7.191016 -7.191016 
C -9.098095 -5.283936 -10.169632 -2.697018 -10.169632 0 
C -10.169632 2.697018 -9.098095 5.283936 -7.191016 7.191016 
C -5.283936 9.098095 -2.697018 10.169632 0 10.169632 
z
" style="stroke: #000000"/>
    </defs>
    <g clip-path="url(#p7fe695d2da)">
     <use xlink:href="#m60b24e4ced" x="453.002534" y="307.575875" style="stroke: #000000"/>
    </g>
   </g>
   <g id="line2d_7">
    <defs>
     <path id="m30bce7fbba" d="M 0 10.108475 
C 2.680799 10.108475 5.25216 9.043383 7.147771 7.147771 
C 9.043383 5.25216 10.108475 2.680799 10.108475 0 
C 10.108475 -2.680799 9.043383 -5.25216 7.147771 -7.147771 
C 5.25216 -9.043383 2.680799 -10.108475 0 -10.108475 
C -2.680799 -10.108475 -5.25216 -9.043383 -7.147771 -7.147771 
C -9.043383 -5.25216 -10.108475 -2.680799 -10.108475 0 
C -10.108475 2.680799 -9.043383 5.25216 -7.147771 7.147771 
C -5.25216 9.043383 -2.680799 10.108475 0 10.108475 
z
" style="stroke: #000000"/>
    </defs>
    <g clip-path="url(#p7fe695d2da)">
     <use xlink:href="#m30bce7fbba" x="317.027983" y="218.449861" style="stroke: #000000"/>
    </g>
   </g>
   <g id="line2d_8">
    <defs>
     <path id="m00f5234f81" d="M 0 9.987807 
C 2.648797 9.987807 5.189464 8.935429 7.062446 7.062446 
C 8.935429 5.189464 9.987807 2.648797 9.987807 0 
C 9.987807 -2.648797 8.935429 -5.189464 7.062446 -7.062446 
C 5.189464 -8.935429 2.648797 -9.987807 0 -9.987807 
C -2.648797 -9.987807 -5.189464 -8.935429 -7.062446 -7.062446 
C -8.935429 -5.189464 -9.987807 -2.648797 -9.987807 0 
C -9.987807 2.648797 -8.935429 5.189464 -7.062446 7.062446 
C -5.189464 8.935429 -2.648797 9.987807 0 9.987807 
z
" style="stroke: #000000"/>
    </defs>
    <g clip-path="url(#p7fe695d2da)">
     <use xlink:href="#m00f5234f81" x="330.32811" y="94.380686" style="stroke: #000000"/>
    </g>
   </g>
   <g id="line2d_9">
    <defs>
     <path id="m57f000628e" d="M 0 9.889784 
C 2.622801 9.889784 5.138532 8.847734 6.993133 6.993133 
C 8.847734 5.138532 9.889784 2.622801 9.889784 0 
C 9.889784 -2.622801 8.847734 -5.138532 6.993133 -6.993133 
C 5.138532 -8.847734 2.622801 -9.889784 0 -9.889784 
C -2.622801 -9.889784 -5.138532 -8.847734 -6.993133 -6.993133 
C -8.847734 -5.138532 -9.889784 -2.622801 -9.889784 0 
C -9.889784 2.622801 -8.847734 5.138532 -6.993133 6.993133 
C -5.138532 8.847734 -2.622801 9.889784 0 9.889784 
z
" style="stroke: #000000"/>
    </defs>
    <g clip-path="url(#p7fe695d2da)">
     <use xlink:href="#m57f000628e" x="322.817054" y="188.832256" style="stroke: #000000"/>
    </g>
   </g>
   <g id="line2d_10">
    <defs>
     <path id="m020e131b7e" d="M 0 9.872051 
C 2.618099 9.872051 5.129319 8.83187 6.980595 6.980595 
C 8.83187 5.129319 9.872051 2.618099 9.872051 0 
C 9.872051 -2.618099 8.83187 -5.129319 6.980595 -6.980595 
C 5.129319 -8.83187 2.618099 -9.872051 0 -9.872051 
C -2.618099 -9.872051 -5.129319 -8.83187 -6.980595 -6.980595 
C -8.83187 -5.129319 -9.872051 -2.618099 -9.872051 0 
C -9.872051 2.618099 -8.83187 5.129319 -6.980595 6.980595 
C -5.129319 8.83187 -2.618099 9.872051 0 9.872051 
z
" style="stroke: #000000"/>
    </defs>
    <g clip-path="url(#p7fe695d2da)">
     <use xlink:href="#m020e131b7e" x="368.007578" y="90.089474" style="stroke: #000000"/>
    </g>
   </g>
  </g>
 </g>
 <defs>
  <clipPath id="p7fe695d2da">
   <path d="M 275.216402 320.4 
L 275.216402 43.2 
L 462.783598 43.2 
L 462.783598 320.4 
L 275.216402 320.4 
"/>
  </clipPath>
 </defs>
</svg>
