<?xml version="1.0" encoding="utf-8" standalone="no"?>
<!DOCTYPE svg PUBLIC "-//W3C//DTD SVG 1.1//EN"
  "http://www.w3.org/Graphics/SVG/1.1/DTD/svg11.dtd">
<svg xmlns:xlink="http://www.w3.org/1999/xlink" width="720pt" height="360pt" viewBox="0 0 720 360" xmlns="http://www.w3.org/2000/svg" version="1.1">
 <metadata>
  <rdf:RDF xmlns:dc="http://purl.org/dc/elements/1.1/" xmlns:cc="http://creativecommons.org/ns#" xmlns:rdf="http://www.w3.org/1999/02/22-rdf-syntax-ns#">
   <cc:Work>
    <dc:type rdf:resource="http://purl.org/dc/dcmitype/StillImage"/>
    <dc:date>2023-11-30T21:30:49.795897</dc:date>
    <dc:format>image/svg+xml</dc:format>
    <dc:creator>
     <cc:Agent>
      <dc:title>Matplotlib v3.8.1, https://matplotlib.org/</dc:title>
     </cc:Agent>
    </dc:creator>
   </cc:Work>
  </rdf:RDF>
 </metadata>
 <defs>
  <style type="text/css">*{stroke-linejoin: round; stroke-linecap: butt}</style>
 </defs>
 <g id="figure_1">
  <g id="patch_1">
   <path d="M 0 360 
L 720 360 
L 720 0 
L 0 0 
z
" style="fill: #ffffff"/>
  </g>
  <g id="axes_1">
   <g id="patch_2">
    <path d="M 187.525124 320.4 
L 187.525124 43.2 
L 550.474876 43.2 
L 550.474876 320.4 
L 187.525124 320.4 
" style="fill: #ffffff"/>
   </g>
   <g id="line2d_1">
    <defs>
     <path id="m60d2f6040f" d="M 0 11.38509 
C 3.019361 11.38509 5.915463 10.185485 8.050474 8.050474 
C 10.185485 5.915463 11.38509 3.019361 11.38509 0 
C 11.38509 -3.019361 10.185485 -5.915463 8.050474 -8.050474 
C 5.915463 -10.185485 3.019361 -11.38509 0 -11.38509 
C -3.019361 -11.38509 -5.915463 -10.185485 -8.050474 -8.050474 
C -10.185485 -5.915463 -11.38509 -3.019361 -11.38509 0 
C -11.38509 3.019361 -10.185485 5.915463 -8.050474 8.050474 
C -5.915463 10.185485 -3.019361 11.38509 0 11.38509 
z
" style="stroke: #000000"/>
    </defs>
    <g clip-path="url(#pfb50aa4f66)">
     <use xlink:href="#m60d2f6040f" x="331.14964" y="129.413824" style="stroke: #000000"/>
    </g>
   </g>
   <g id="line2d_2">
    <defs>
     <path id="m6c97d2c26e" d="M 0 10.568849 
C 2.802892 10.568849 5.491361 9.455248 7.473305 7.473305 
C 9.455248 5.491361 10.568849 2.802892 10.568849 0 
C 10.568849 -2.802892 9.455248 -5.491361 7.473305 -7.473305 
C 5.491361 -9.455248 2.802892 -10.568849 0 -10.568849 
C -2.802892 -10.568849 -5.491361 -9.455248 -7.473305 -7.473305 
C -9.455248 -5.491361 -10.568849 -2.802892 -10.568849 0 
C -10.568849 2.802892 -9.455248 5.491361 -7.473305 7.473305 
C -5.491361 9.455248 -2.802892 10.568849 0 10.568849 
z
" style="stroke: #000000"/>
    </defs>
    <g clip-path="url(#pfb50aa4f66)">
     <use xlink:href="#m6c97d2c26e" x="533.97716" y="111.002983" style="stroke: #000000"/>
    </g>
   </g>
   <g id="line2d_3">
    <defs>
     <path id="meb36d96bf1" d="M 0 10.280598 
C 2.726446 10.280598 5.341592 9.197369 7.26948 7.26948 
C 9.197369 5.341592 10.280598 2.726446 10.280598 0 
C 10.280598 -2.726446 9.197369 -5.341592 7.26948 -7.26948 
C 5.341592 -9.197369 2.726446 -10.280598 0 -10.280598 
C -2.726446 -10.280598 -5.341592 -9.197369 -7.26948 -7.26948 
C -9.197369 -5.341592 -10.280598 -2.726446 -10.280598 0 
C -10.280598 2.726446 -9.197369 5.341592 -7.26948 7.26948 
C -5.341592 9.197369 -2.726446 10.280598 0 10.280598 
z
" style="stroke: #000000"/>
    </defs>
    <g clip-path="url(#pfb50aa4f66)">
     <use xlink:href="#meb36d96bf1" x="337.422449" y="220.136788" style="stroke: #000000"/>
    </g>
   </g>
   <g id="line2d_4">
    <defs>
     <path id="m82910fcd77" d="M 0 10.232853 
C 2.713784 10.232853 5.316784 9.154655 7.23572 7.23572 
C 9.154655 5.316784 10.232853 2.713784 10.232853 0 
C 10.232853 -2.713784 9.154655 -5.316784 7.23572 -7.23572 
C 5.316784 -9.154655 2.713784 -10.232853 0 -10.232853 
C -2.713784 -10.232853 -5.316784 -9.154655 -7.23572 -7.23572 
C -9.154655 -5.316784 -10.232853 -2.713784 -10.232853 0 
C -10.232853 2.713784 -9.154655 5.316784 -7.23572 7.23572 
C -5.316784 9.154655 -2.713784 10.232853 0 10.232853 
z
" style="stroke: #000000"/>
    </defs>
    <g clip-path="url(#pfb50aa4f66)">
     <use xlink:href="#m82910fcd77" x="320.493969" y="125.209427" style="stroke: #000000"/>
    </g>
   </g>
   <g id="line2d_5">
    <defs>
     <path id="m007ebf34c3" d="M 0 10.221084 
C 2.710663 10.221084 5.31067 9.144126 7.227398 7.227398 
C 9.144126 5.31067 10.221084 2.710663 10.221084 0 
C 10.221084 -2.710663 9.144126 -5.31067 7.227398 -7.227398 
C 5.31067 -9.144126 2.710663 -10.221084 0 -10.221084 
C -2.710663 -10.221084 -5.31067 -9.144126 -7.227398 -7.227398 
C -9.144126 -5.31067 -10.221084 -2.710663 -10.221084 0 
C -10.221084 2.710663 -9.144126 5.31067 -7.227398 7.227398 
C -5.31067 9.144126 -2.710663 10.221084 0 10.221084 
z
" style="stroke: #000000"/>
    </defs>
    <g clip-path="url(#pfb50aa4f66)">
     <use xlink:href="#m007ebf34c3" x="204.02284" y="55.8" style="stroke: #000000"/>
    </g>
   </g>
   <g id="line2d_6">
    <defs>
     <path id="m271f2a3baf" d="M 0 10.126715 
C 2.685636 10.126715 5.261637 9.059701 7.160669 7.160669 
C 9.059701 5.261637 10.126715 2.685636 10.126715 0 
C 10.126715 -2.685636 9.059701 -5.261637 7.160669 -7.160669 
C 5.261637 -9.059701 2.685636 -10.126715 0 -10.126715 
C -2.685636 -10.126715 -5.261637 -9.059701 -7.160669 -7.160669 
C -9.059701 -5.261637 -10.126715 -2.685636 -10.126715 0 
C -10.126715 2.685636 -9.059701 5.261637 -7.160669 7.160669 
C -5.261637 9.059701 -2.685636 10.126715 0 10.126715 
z
" style="stroke: #000000"/>
    </defs>
    <g clip-path="url(#pfb50aa4f66)">
     <use xlink:href="#m271f2a3baf" x="358.649283" y="307.8" style="stroke: #000000"/>
    </g>
   </g>
   <g id="line2d_7">
    <defs>
     <path id="mf1c72462e4" d="M 0 9.889784 
C 2.622801 9.889784 5.138532 8.847734 6.993133 6.993133 
C 8.847734 5.138532 9.889784 2.622801 9.889784 0 
C 9.889784 -2.622801 8.847734 -5.138532 6.993133 -6.993133 
C 5.138532 -8.847734 2.622801 -9.889784 0 -9.889784 
C -2.622801 -9.889784 -5.138532 -8.847734 -6.993133 -6.993133 
C -8.847734 -5.138532 -9.889784 -2.622801 -9.889784 0 
C -9.889784 2.622801 -8.847734 5.138532 -6.993133 6.993133 
C -5.138532 8.847734 -2.622801 9.889784 0 9.889784 
z
" style="stroke: #000000"/>
    </defs>
    <g clip-path="url(#pfb50aa4f66)">
     <use xlink:href="#mf1c72462e4" x="317.640213" y="161.233773" style="stroke: #000000"/>
    </g>
   </g>
   <g id="line2d_8">
    <defs>
     <path id="m4caf4135fb" d="M 0 9.840998 
C 2.609863 9.840998 5.113185 8.804089 6.958637 6.958637 
C 8.804089 5.113185 9.840998 2.609863 9.840998 0 
C 9.840998 -2.609863 8.804089 -5.113185 6.958637 -6.958637 
C 5.113185 -8.804089 2.609863 -9.840998 0 -9.840998 
C -2.609863 -9.840998 -5.113185 -8.804089 -6.958637 -6.958637 
C -8.804089 -5.113185 -9.840998 -2.609863 -9.840998 0 
C -9.840998 2.609863 -8.804089 5.113185 -6.958637 6.958637 
C -5.113185 8.804089 -2.609863 9.840998 0 9.840998 
z
" style="stroke: #000000"/>
    </defs>
    <g clip-path="url(#pfb50aa4f66)">
     <use xlink:href="#m4caf4135fb" x="263.311059" y="258.912384" style="stroke: #000000"/>
    </g>
   </g>
   <g id="line2d_9">
    <defs>
     <path id="m8b3c280662" d="M 0 9.793807 
C 2.597348 9.793807 5.088665 8.76187 6.925268 6.925268 
C 8.76187 5.088665 9.793807 2.597348 9.793807 0 
C 9.793807 -2.597348 8.76187 -5.088665 6.925268 -6.925268 
C 5.088665 -8.76187 2.597348 -9.793807 0 -9.793807 
C -2.597348 -9.793807 -5.088665 -8.76187 -6.925268 -6.925268 
C -8.76187 -5.088665 -9.793807 -2.597348 -9.793807 0 
C -9.793807 2.597348 -8.76187 5.088665 -6.925268 6.925268 
C -5.088665 8.76187 -2.597348 9.793807 0 9.793807 
z
" style="stroke: #000000"/>
    </defs>
    <g clip-path="url(#pfb50aa4f66)">
     <use xlink:href="#m8b3c280662" x="258.04419" y="157.103679" style="stroke: #000000"/>
    </g>
   </g>
   <g id="line2d_10">
    <defs>
     <path id="m0bd930594e" d="M 0 9.774158 
C 2.592137 9.774158 5.078456 8.744291 6.911373 6.911373 
C 8.744291 5.078456 9.774158 2.592137 9.774158 0 
C 9.774158 -2.592137 8.744291 -5.078456 6.911373 -6.911373 
C 5.078456 -8.744291 2.592137 -9.774158 0 -9.774158 
C -2.592137 -9.774158 -5.078456 -8.744291 -6.911373 -6.911373 
C -8.744291 -5.078456 -9.774158 -2.592137 -9.774158 0 
C -9.774158 2.592137 -8.744291 5.078456 -6.911373 6.911373 
C -5.078456 8.744291 -2.592137 9.774158 0 9.774158 
z
" style="stroke: #000000"/>
    </defs>
    <g clip-path="url(#pfb50aa4f66)">
     <use xlink:href="#m0bd930594e" x="222.942134" y="168.907172" style="stroke: #000000"/>
    </g>
   </g>
  </g>
 </g>
 <defs>
  <clipPath id="pfb50aa4f66">
   <path d="M 187.525124 320.4 
L 187.525124 43.2 
L 550.474876 43.2 
L 550.474876 320.4 
L 187.525124 320.4 
"/>
  </clipPath>
 </defs>
</svg>
