<?xml version="1.0" encoding="utf-8" standalone="no"?>
<!DOCTYPE svg PUBLIC "-//W3C//DTD SVG 1.1//EN"
  "http://www.w3.org/Graphics/SVG/1.1/DTD/svg11.dtd">
<svg xmlns:xlink="http://www.w3.org/1999/xlink" width="720pt" height="360pt" viewBox="0 0 720 360" xmlns="http://www.w3.org/2000/svg" version="1.1">
 <metadata>
  <rdf:RDF xmlns:dc="http://purl.org/dc/elements/1.1/" xmlns:cc="http://creativecommons.org/ns#" xmlns:rdf="http://www.w3.org/1999/02/22-rdf-syntax-ns#">
   <cc:Work>
    <dc:type rdf:resource="http://purl.org/dc/dcmitype/StillImage"/>
    <dc:date>2023-11-30T21:30:49.837760</dc:date>
    <dc:format>image/svg+xml</dc:format>
    <dc:creator>
     <cc:Agent>
      <dc:title>Matplotlib v3.8.1, https://matplotlib.org/</dc:title>
     </cc:Agent>
    </dc:creator>
   </cc:Work>
  </rdf:RDF>
 </metadata>
 <defs>
  <style type="text/css">*{stroke-linejoin: round; stroke-linecap: butt}</style>
 </defs>
 <g id="figure_1">
  <g id="patch_1">
   <path d="M 0 360 
L 720 360 
L 720 0 
L 0 0 
z
" style="fill: #ffffff"/>
  </g>
  <g id="axes_1">
   <g id="patch_2">
    <path d="M 218.065782 320.4 
L 218.065782 43.2 
L 519.934218 43.2 
L 519.934218 320.4 
L 218.065782 320.4 
" style="fill: #ffffff"/>
   </g>
   <g id="line2d_1">
    <defs>
     <path id="m910f11b012" d="M 0 8.42981 
C 2.235612 8.42981 4.37996 7.541592 5.960776 5.960776 
C 7.541592 4.37996 8.42981 2.235612 8.42981 0 
C 8.42981 -2.235612 7.541592 -4.37996 5.960776 -5.960776 
C 4.37996 -7.541592 2.235612 -8.42981 0 -8.42981 
C -2.235612 -8.42981 -4.37996 -7.541592 -5.960776 -5.960776 
C -7.541592 -4.37996 -8.42981 -2.235612 -8.42981 0 
C -8.42981 2.235612 -7.541592 4.37996 -5.960776 5.960776 
C -4.37996 7.541592 -2.235612 8.42981 0 8.42981 
z
" style="stroke: #000000"/>
    </defs>
    <g clip-path="url(#pbeb9e7d7ce)">
     <use xlink:href="#m910f11b012" x="272.694411" y="279.489481" style="stroke: #000000"/>
    </g>
   </g>
   <g id="line2d_2">
    <defs>
     <path id="me54febacb7" d="M 0 7.606096 
C 2.01716 7.606096 3.951974 6.80467 5.378322 5.378322 
C 6.80467 3.951974 7.606096 2.01716 7.606096 0 
C 7.606096 -2.01716 6.80467 -3.951974 5.378322 -5.378322 
C 3.951974 -6.80467 2.01716 -7.606096 0 -7.606096 
C -2.01716 -7.606096 -3.951974 -6.80467 -5.378322 -5.378322 
C -6.80467 -3.951974 -7.606096 -2.01716 -7.606096 0 
C -7.606096 2.01716 -6.80467 3.951974 -5.378322 5.378322 
C -3.951974 6.80467 -2.01716 7.606096 0 7.606096 
z
" style="stroke: #000000"/>
    </defs>
    <g clip-path="url(#pbeb9e7d7ce)">
     <use xlink:href="#me54febacb7" x="271.616853" y="282.737093" style="stroke: #000000"/>
    </g>
   </g>
   <g id="line2d_3">
    <defs>
     <path id="m60dac1266a" d="M 0 7.435664 
C 1.971961 7.435664 3.863421 6.652195 5.257808 5.257808 
C 6.652195 3.863421 7.435664 1.971961 7.435664 0 
C 7.435664 -1.971961 6.652195 -3.863421 5.257808 -5.257808 
C 3.863421 -6.652195 1.971961 -7.435664 0 -7.435664 
C -1.971961 -7.435664 -3.863421 -6.652195 -5.257808 -5.257808 
C -6.652195 -3.863421 -7.435664 -1.971961 -7.435664 0 
C -7.435664 1.971961 -6.652195 3.863421 -5.257808 5.257808 
C -3.863421 6.652195 -1.971961 7.435664 0 7.435664 
z
" style="stroke: #000000"/>
    </defs>
    <g clip-path="url(#pbeb9e7d7ce)">
     <use xlink:href="#m60dac1266a" x="270.098337" y="289.078538" style="stroke: #000000"/>
    </g>
   </g>
   <g id="line2d_4">
    <defs>
     <path id="me80ffcd070" d="M 0 7.133869 
C 1.891924 7.133869 3.706615 6.382199 5.044407 5.044407 
C 6.382199 3.706615 7.133869 1.891924 7.133869 0 
C 7.133869 -1.891924 6.382199 -3.706615 5.044407 -5.044407 
C 3.706615 -6.382199 1.891924 -7.133869 0 -7.133869 
C -1.891924 -7.133869 -3.706615 -6.382199 -5.044407 -5.044407 
C -6.382199 -3.706615 -7.133869 -1.891924 -7.133869 0 
C -7.133869 1.891924 -6.382199 3.706615 -5.044407 5.044407 
C -3.706615 6.382199 -1.891924 7.133869 0 7.133869 
z
" style="stroke: #000000"/>
    </defs>
    <g clip-path="url(#pbeb9e7d7ce)">
     <use xlink:href="#me80ffcd070" x="231.867416" y="298.726461" style="stroke: #000000"/>
    </g>
   </g>
   <g id="line2d_5">
    <defs>
     <path id="m37a51a5e60" d="M 0 7.11516 
C 1.886963 7.11516 3.696894 6.365462 5.031178 5.031178 
C 6.365462 3.696894 7.11516 1.886963 7.11516 0 
C 7.11516 -1.886963 6.365462 -3.696894 5.031178 -5.031178 
C 3.696894 -6.365462 1.886963 -7.11516 0 -7.11516 
C -1.886963 -7.11516 -3.696894 -6.365462 -5.031178 -5.031178 
C -6.365462 -3.696894 -7.11516 -1.886963 -7.11516 0 
C -7.11516 1.886963 -6.365462 3.696894 -5.031178 5.031178 
C -3.696894 6.365462 -1.886963 7.11516 0 7.11516 
z
" style="stroke: #000000"/>
    </defs>
    <g clip-path="url(#pbeb9e7d7ce)">
     <use xlink:href="#m37a51a5e60" x="506.212926" y="55.8" style="stroke: #000000"/>
    </g>
   </g>
   <g id="line2d_6">
    <defs>
     <path id="m9395fd39ef" d="M 0 6.979775 
C 1.851058 6.979775 3.62655 6.244342 4.935446 4.935446 
C 6.244342 3.62655 6.979775 1.851058 6.979775 0 
C 6.979775 -1.851058 6.244342 -3.62655 4.935446 -4.935446 
C 3.62655 -6.244342 1.851058 -6.979775 0 -6.979775 
C -1.851058 -6.979775 -3.62655 -6.244342 -4.935446 -4.935446 
C -6.244342 -3.62655 -6.979775 -1.851058 -6.979775 0 
C -6.979775 1.851058 -6.244342 3.62655 -4.935446 4.935446 
C -3.62655 6.244342 -1.851058 6.979775 0 6.979775 
z
" style="stroke: #000000"/>
    </defs>
    <g clip-path="url(#pbeb9e7d7ce)">
     <use xlink:href="#m9395fd39ef" x="231.787074" y="297.777697" style="stroke: #000000"/>
    </g>
   </g>
   <g id="line2d_7">
    <defs>
     <path id="m2342a2d9df" d="M 0 6.779808 
C 1.798026 6.779808 3.522652 6.065445 4.794048 4.794048 
C 6.065445 3.522652 6.779808 1.798026 6.779808 0 
C 6.779808 -1.798026 6.065445 -3.522652 4.794048 -4.794048 
C 3.522652 -6.065445 1.798026 -6.779808 0 -6.779808 
C -1.798026 -6.779808 -3.522652 -6.065445 -4.794048 -4.794048 
C -6.065445 -3.522652 -6.779808 -1.798026 -6.779808 0 
C -6.779808 1.798026 -6.065445 3.522652 -4.794048 4.794048 
C -3.522652 6.065445 -1.798026 6.779808 0 6.779808 
z
" style="stroke: #000000"/>
    </defs>
    <g clip-path="url(#pbeb9e7d7ce)">
     <use xlink:href="#m2342a2d9df" x="284.678793" y="275.107788" style="stroke: #000000"/>
    </g>
   </g>
   <g id="line2d_8">
    <defs>
     <path id="m31a18ca42e" d="M 0 6.739764 
C 1.787406 6.739764 3.501846 6.02962 4.765733 4.765733 
C 6.02962 3.501846 6.739764 1.787406 6.739764 0 
C 6.739764 -1.787406 6.02962 -3.501846 4.765733 -4.765733 
C 3.501846 -6.02962 1.787406 -6.739764 0 -6.739764 
C -1.787406 -6.739764 -3.501846 -6.02962 -4.765733 -4.765733 
C -6.02962 -3.501846 -6.739764 -1.787406 -6.739764 0 
C -6.739764 1.787406 -6.02962 3.501846 -4.765733 4.765733 
C -3.501846 6.02962 -1.787406 6.739764 0 6.739764 
z
" style="stroke: #000000"/>
    </defs>
    <g clip-path="url(#pbeb9e7d7ce)">
     <use xlink:href="#m31a18ca42e" x="271.003559" y="286.05909" style="stroke: #000000"/>
    </g>
   </g>
   <g id="line2d_9">
    <defs>
     <path id="mc00d382e69" d="M 0 6.567935 
C 1.741837 6.567935 3.412567 5.875896 4.644231 4.644231 
C 5.875896 3.412567 6.567935 1.741837 6.567935 0 
C 6.567935 -1.741837 5.875896 -3.412567 4.644231 -4.644231 
C 3.412567 -5.875896 1.741837 -6.567935 0 -6.567935 
C -1.741837 -6.567935 -3.412567 -5.875896 -4.644231 -4.644231 
C -5.875896 -3.412567 -6.567935 -1.741837 -6.567935 0 
C -6.567935 1.741837 -5.875896 3.412567 -4.644231 4.644231 
C -3.412567 5.875896 -1.741837 6.567935 0 6.567935 
z
" style="stroke: #000000"/>
    </defs>
    <g clip-path="url(#pbeb9e7d7ce)">
     <use xlink:href="#mc00d382e69" x="327.786016" y="307.8" style="stroke: #000000"/>
    </g>
   </g>
   <g id="line2d_10">
    <defs>
     <path id="m6a1807576e" d="M 0 6.427824 
C 1.704679 6.427824 3.339768 5.750548 4.545158 4.545158 
C 5.750548 3.339768 6.427824 1.704679 6.427824 0 
C 6.427824 -1.704679 5.750548 -3.339768 4.545158 -4.545158 
C 3.339768 -5.750548 1.704679 -6.427824 0 -6.427824 
C -1.704679 -6.427824 -3.339768 -5.750548 -4.545158 -4.545158 
C -5.750548 -3.339768 -6.427824 -1.704679 -6.427824 0 
C -6.427824 1.704679 -5.750548 3.339768 -4.545158 4.545158 
C -3.339768 5.750548 -1.704679 6.427824 0 6.427824 
z
" style="stroke: #000000"/>
    </defs>
    <g clip-path="url(#pbeb9e7d7ce)">
     <use xlink:href="#m6a1807576e" x="261.686393" y="253.242263" style="stroke: #000000"/>
    </g>
   </g>
  </g>
 </g>
 <defs>
  <clipPath id="pbeb9e7d7ce">
   <path d="M 218.065782 320.4 
L 218.065782 43.2 
L 519.934218 43.2 
L 519.934218 320.4 
L 218.065782 320.4 
"/>
  </clipPath>
 </defs>
</svg>
