<?xml version="1.0" encoding="utf-8" standalone="no"?>
<!DOCTYPE svg PUBLIC "-//W3C//DTD SVG 1.1//EN"
  "http://www.w3.org/Graphics/SVG/1.1/DTD/svg11.dtd">
<svg xmlns:xlink="http://www.w3.org/1999/xlink" width="720pt" height="360pt" viewBox="0 0 720 360" xmlns="http://www.w3.org/2000/svg" version="1.1">
 <metadata>
  <rdf:RDF xmlns:dc="http://purl.org/dc/elements/1.1/" xmlns:cc="http://creativecommons.org/ns#" xmlns:rdf="http://www.w3.org/1999/02/22-rdf-syntax-ns#">
   <cc:Work>
    <dc:type rdf:resource="http://purl.org/dc/dcmitype/StillImage"/>
    <dc:date>2023-11-30T21:30:48.045716</dc:date>
    <dc:format>image/svg+xml</dc:format>
    <dc:creator>
     <cc:Agent>
      <dc:title>Matplotlib v3.8.1, https://matplotlib.org/</dc:title>
     </cc:Agent>
    </dc:creator>
   </cc:Work>
  </rdf:RDF>
 </metadata>
 <defs>
  <style type="text/css">*{stroke-linejoin: round; stroke-linecap: butt}</style>
 </defs>
 <g id="figure_1">
  <g id="patch_1">
   <path d="M 0 360 
L 720 360 
L 720 0 
L 0 0 
z
" style="fill: #ffffff"/>
  </g>
  <g id="axes_1">
   <g id="patch_2">
    <path d="M 249.183988 320.4 
L 249.183988 43.2 
L 488.816012 43.2 
L 488.816012 320.4 
L 249.183988 320.4 
" style="fill: #ffffff"/>
   </g>
   <g id="line2d_1">
    <defs>
     <path id="m42049f1f27" d="M 0 10.572503 
C 2.803861 10.572503 5.49326 9.458518 7.475889 7.475889 
C 9.458518 5.49326 10.572503 2.803861 10.572503 0 
C 10.572503 -2.803861 9.458518 -5.49326 7.475889 -7.475889 
C 5.49326 -9.458518 2.803861 -10.572503 0 -10.572503 
C -2.803861 -10.572503 -5.49326 -9.458518 -7.475889 -7.475889 
C -9.458518 -5.49326 -10.572503 -2.803861 -10.572503 0 
C -10.572503 2.803861 -9.458518 5.49326 -7.475889 7.475889 
C -5.49326 9.458518 -2.803861 10.572503 0 10.572503 
z
" style="stroke: #000000"/>
    </defs>
    <g clip-path="url(#p53e7ed7073)">
     <use xlink:href="#m42049f1f27" x="374.52767" y="172.619319" style="stroke: #000000"/>
    </g>
   </g>
   <g id="line2d_2">
    <defs>
     <path id="mc8e7c030ea" d="M 0 10.193661 
C 2.703391 10.193661 5.296421 9.119593 7.208007 7.208007 
C 9.119593 5.296421 10.193661 2.703391 10.193661 0 
C 10.193661 -2.703391 9.119593 -5.296421 7.208007 -7.208007 
C 5.296421 -9.119593 2.703391 -10.193661 0 -10.193661 
C -2.703391 -10.193661 -5.296421 -9.119593 -7.208007 -7.208007 
C -9.119593 -5.296421 -10.193661 -2.703391 -10.193661 0 
C -10.193661 2.703391 -9.119593 5.296421 -7.208007 7.208007 
C -5.296421 9.119593 -2.703391 10.193661 0 10.193661 
z
" style="stroke: #000000"/>
    </defs>
    <g clip-path="url(#p53e7ed7073)">
     <use xlink:href="#mc8e7c030ea" x="295.724502" y="55.8" style="stroke: #000000"/>
    </g>
   </g>
   <g id="line2d_3">
    <defs>
     <path id="m2583b3fe45" d="M 0 9.896999 
C 2.624715 9.896999 5.142282 8.854189 6.998235 6.998235 
C 8.854189 5.142282 9.896999 2.624715 9.896999 0 
C 9.896999 -2.624715 8.854189 -5.142282 6.998235 -6.998235 
C 5.142282 -8.854189 2.624715 -9.896999 0 -9.896999 
C -2.624715 -9.896999 -5.142282 -8.854189 -6.998235 -6.998235 
C -8.854189 -5.142282 -9.896999 -2.624715 -9.896999 0 
C -9.896999 2.624715 -8.854189 5.142282 -6.998235 6.998235 
C -5.142282 8.854189 -2.624715 9.896999 0 9.896999 
z
" style="stroke: #000000"/>
    </defs>
    <g clip-path="url(#p53e7ed7073)">
     <use xlink:href="#m2583b3fe45" x="416.203568" y="205.365653" style="stroke: #000000"/>
    </g>
   </g>
   <g id="line2d_4">
    <defs>
     <path id="md1a548f936" d="M 0 9.846246 
C 2.611255 9.846246 5.115911 8.808784 6.962348 6.962348 
C 8.808784 5.115911 9.846246 2.611255 9.846246 0 
C 9.846246 -2.611255 8.808784 -5.115911 6.962348 -6.962348 
C 5.115911 -8.808784 2.611255 -9.846246 0 -9.846246 
C -2.611255 -9.846246 -5.115911 -8.808784 -6.962348 -6.962348 
C -8.808784 -5.115911 -9.846246 -2.611255 -9.846246 0 
C -9.846246 2.611255 -8.808784 5.115911 -6.962348 6.962348 
C -5.115911 8.808784 -2.611255 9.846246 0 9.846246 
z
" style="stroke: #000000"/>
    </defs>
    <g clip-path="url(#p53e7ed7073)">
     <use xlink:href="#md1a548f936" x="260.076353" y="69.029019" style="stroke: #000000"/>
    </g>
   </g>
   <g id="line2d_5">
    <defs>
     <path id="mf5ad646468" d="M 0 9.653108 
C 2.560034 9.653108 5.01556 8.635995 6.825778 6.825778 
C 8.635995 5.01556 9.653108 2.560034 9.653108 0 
C 9.653108 -2.560034 8.635995 -5.01556 6.825778 -6.825778 
C 5.01556 -8.635995 2.560034 -9.653108 0 -9.653108 
C -2.560034 -9.653108 -5.01556 -8.635995 -6.825778 -6.825778 
C -8.635995 -5.01556 -9.653108 -2.560034 -9.653108 0 
C -9.653108 2.560034 -8.635995 5.01556 -6.825778 6.825778 
C -5.01556 8.635995 -2.560034 9.653108 0 9.653108 
z
" style="stroke: #000000"/>
    </defs>
    <g clip-path="url(#p53e7ed7073)">
     <use xlink:href="#mf5ad646468" x="394.745978" y="289.131704" style="stroke: #000000"/>
    </g>
   </g>
   <g id="line2d_6">
    <defs>
     <path id="mb7f83da3a8" d="M 0 9.572969 
C 2.538781 9.572969 4.973922 8.5643 6.769111 6.769111 
C 8.5643 4.973922 9.572969 2.538781 9.572969 0 
C 9.572969 -2.538781 8.5643 -4.973922 6.769111 -6.769111 
C 4.973922 -8.5643 2.538781 -9.572969 0 -9.572969 
C -2.538781 -9.572969 -4.973922 -8.5643 -6.769111 -6.769111 
C -8.5643 -4.973922 -9.572969 -2.538781 -9.572969 0 
C -9.572969 2.538781 -8.5643 4.973922 -6.769111 6.769111 
C -4.973922 8.5643 -2.538781 9.572969 0 9.572969 
z
" style="stroke: #000000"/>
    </defs>
    <g clip-path="url(#p53e7ed7073)">
     <use xlink:href="#mb7f83da3a8" x="289.909547" y="91.18653" style="stroke: #000000"/>
    </g>
   </g>
   <g id="line2d_7">
    <defs>
     <path id="m4cdeb57c2d" d="M 0 9.295462 
C 2.465185 9.295462 4.829735 8.316033 6.572884 6.572884 
C 8.316033 4.829735 9.295462 2.465185 9.295462 0 
C 9.295462 -2.465185 8.316033 -4.829735 6.572884 -6.572884 
C 4.829735 -8.316033 2.465185 -9.295462 0 -9.295462 
C -2.465185 -9.295462 -4.829735 -8.316033 -6.572884 -6.572884 
C -8.316033 -4.829735 -9.295462 -2.465185 -9.295462 0 
C -9.295462 2.465185 -8.316033 4.829735 -6.572884 6.572884 
C -4.829735 8.316033 -2.465185 9.295462 0 9.295462 
z
" style="stroke: #000000"/>
    </defs>
    <g clip-path="url(#p53e7ed7073)">
     <use xlink:href="#m4cdeb57c2d" x="346.710685" y="88.238067" style="stroke: #000000"/>
    </g>
   </g>
   <g id="line2d_8">
    <defs>
     <path id="m34b21c1a7e" d="M 0 9.243007 
C 2.451274 9.243007 4.80248 8.269105 6.535793 6.535793 
C 8.269105 4.80248 9.243007 2.451274 9.243007 0 
C 9.243007 -2.451274 8.269105 -4.80248 6.535793 -6.535793 
C 4.80248 -8.269105 2.451274 -9.243007 0 -9.243007 
C -2.451274 -9.243007 -4.80248 -8.269105 -6.535793 -6.535793 
C -8.269105 -4.80248 -9.243007 -2.451274 -9.243007 0 
C -9.243007 2.451274 -8.269105 4.80248 -6.535793 6.535793 
C -4.80248 8.269105 -2.451274 9.243007 0 9.243007 
z
" style="stroke: #000000"/>
    </defs>
    <g clip-path="url(#p53e7ed7073)">
     <use xlink:href="#m34b21c1a7e" x="344.516555" y="111.776479" style="stroke: #000000"/>
    </g>
   </g>
   <g id="line2d_9">
    <defs>
     <path id="mebfa8bb1d9" d="M 0 9.135905 
C 2.42287 9.135905 4.746832 8.173288 6.46006 6.46006 
C 8.173288 4.746832 9.135905 2.42287 9.135905 0 
C 9.135905 -2.42287 8.173288 -4.746832 6.46006 -6.46006 
C 4.746832 -8.173288 2.42287 -9.135905 0 -9.135905 
C -2.42287 -9.135905 -4.746832 -8.173288 -6.46006 -6.46006 
C -8.173288 -4.746832 -9.135905 -2.42287 -9.135905 0 
C -9.135905 2.42287 -8.173288 4.746832 -6.46006 6.46006 
C -4.746832 8.173288 -2.42287 9.135905 0 9.135905 
z
" style="stroke: #000000"/>
    </defs>
    <g clip-path="url(#p53e7ed7073)">
     <use xlink:href="#mebfa8bb1d9" x="477.923647" y="196.959857" style="stroke: #000000"/>
    </g>
   </g>
   <g id="line2d_10">
    <defs>
     <path id="mb710d83d51" d="M 0 9.124633 
C 2.419881 9.124633 4.740976 8.163204 6.45209 6.45209 
C 8.163204 4.740976 9.124633 2.419881 9.124633 0 
C 9.124633 -2.419881 8.163204 -4.740976 6.45209 -6.45209 
C 4.740976 -8.163204 2.419881 -9.124633 0 -9.124633 
C -2.419881 -9.124633 -4.740976 -8.163204 -6.45209 -6.45209 
C -8.163204 -4.740976 -9.124633 -2.419881 -9.124633 0 
C -9.124633 2.419881 -8.163204 4.740976 -6.45209 6.45209 
C -4.740976 8.163204 -2.419881 9.124633 0 9.124633 
z
" style="stroke: #000000"/>
    </defs>
    <g clip-path="url(#p53e7ed7073)">
     <use xlink:href="#mb710d83d51" x="435.236443" y="307.8" style="stroke: #000000"/>
    </g>
   </g>
  </g>
 </g>
 <defs>
  <clipPath id="p53e7ed7073">
   <path d="M 249.183988 320.4 
L 249.183988 43.2 
L 488.816012 43.2 
L 488.816012 320.4 
L 249.183988 320.4 
"/>
  </clipPath>
 </defs>
</svg>
