<?xml version="1.0" encoding="utf-8" standalone="no"?>
<!DOCTYPE svg PUBLIC "-//W3C//DTD SVG 1.1//EN"
  "http://www.w3.org/Graphics/SVG/1.1/DTD/svg11.dtd">
<svg xmlns:xlink="http://www.w3.org/1999/xlink" width="720pt" height="360pt" viewBox="0 0 720 360" xmlns="http://www.w3.org/2000/svg" version="1.1">
 <metadata>
  <rdf:RDF xmlns:dc="http://purl.org/dc/elements/1.1/" xmlns:cc="http://creativecommons.org/ns#" xmlns:rdf="http://www.w3.org/1999/02/22-rdf-syntax-ns#">
   <cc:Work>
    <dc:type rdf:resource="http://purl.org/dc/dcmitype/StillImage"/>
    <dc:date>2023-11-30T21:30:48.294346</dc:date>
    <dc:format>image/svg+xml</dc:format>
    <dc:creator>
     <cc:Agent>
      <dc:title>Matplotlib v3.8.1, https://matplotlib.org/</dc:title>
     </cc:Agent>
    </dc:creator>
   </cc:Work>
  </rdf:RDF>
 </metadata>
 <defs>
  <style type="text/css">*{stroke-linejoin: round; stroke-linecap: butt}</style>
 </defs>
 <g id="figure_1">
  <g id="patch_1">
   <path d="M 0 360 
L 720 360 
L 720 0 
L 0 0 
z
" style="fill: #ffffff"/>
  </g>
  <g id="axes_1">
   <g id="patch_2">
    <path d="M 90 317.970635 
L 90 45.629365 
L 648 45.629365 
L 648 317.970635 
L 90 317.970635 
" style="fill: #ffffff"/>
   </g>
   <g id="line2d_1">
    <defs>
     <path id="m2626cbed0a" d="M 0 9.919384 
C 2.630651 9.919384 5.153912 8.874215 7.014064 7.014064 
C 8.874215 5.153912 9.919384 2.630651 9.919384 0 
C 9.919384 -2.630651 8.874215 -5.153912 7.014064 -7.014064 
C 5.153912 -8.874215 2.630651 -9.919384 0 -9.919384 
C -2.630651 -9.919384 -5.153912 -8.874215 -7.014064 -7.014064 
C -8.874215 -5.153912 -9.919384 -2.630651 -9.919384 0 
C -9.919384 2.630651 -8.874215 5.153912 -7.014064 7.014064 
C -5.153912 8.874215 -2.630651 9.919384 0 9.919384 
z
" style="stroke: #000000"/>
    </defs>
    <g clip-path="url(#p272e16f27f)">
     <use xlink:href="#m2626cbed0a" x="617.995312" y="279.64987" style="stroke: #000000"/>
    </g>
   </g>
   <g id="line2d_2">
    <defs>
     <path id="m4ccffa9fc7" d="M 0 9.577754 
C 2.54005 9.577754 4.976408 8.568581 6.772495 6.772495 
C 8.568581 4.976408 9.577754 2.54005 9.577754 0 
C 9.577754 -2.54005 8.568581 -4.976408 6.772495 -6.772495 
C 4.976408 -8.568581 2.54005 -9.577754 0 -9.577754 
C -2.54005 -9.577754 -4.976408 -8.568581 -6.772495 -6.772495 
C -8.568581 -4.976408 -9.577754 -2.54005 -9.577754 0 
C -9.577754 2.54005 -8.568581 4.976408 -6.772495 6.772495 
C -4.976408 8.568581 -2.54005 9.577754 0 9.577754 
z
" style="stroke: #000000"/>
    </defs>
    <g clip-path="url(#p272e16f27f)">
     <use xlink:href="#m4ccffa9fc7" x="622.636364" y="274.771474" style="stroke: #000000"/>
    </g>
   </g>
   <g id="line2d_3">
    <defs>
     <path id="m715e8ab4e5" d="M 0 8.572941 
C 2.273571 8.572941 4.454328 7.669642 6.061985 6.061985 
C 7.669642 4.454328 8.572941 2.273571 8.572941 0 
C 8.572941 -2.273571 7.669642 -4.454328 6.061985 -6.061985 
C 4.454328 -7.669642 2.273571 -8.572941 0 -8.572941 
C -2.273571 -8.572941 -4.454328 -7.669642 -6.061985 -6.061985 
C -7.669642 -4.454328 -8.572941 -2.273571 -8.572941 0 
C -8.572941 2.273571 -7.669642 4.454328 -6.061985 6.061985 
C -4.454328 7.669642 -2.273571 8.572941 0 8.572941 
z
" style="stroke: #000000"/>
    </defs>
    <g clip-path="url(#p272e16f27f)">
     <use xlink:href="#m715e8ab4e5" x="544.810532" y="282.42739" style="stroke: #000000"/>
    </g>
   </g>
   <g id="line2d_4">
    <defs>
     <path id="maa9b41a6a0" d="M 0 8.325175 
C 2.207862 8.325175 4.325594 7.447982 5.886788 5.886788 
C 7.447982 4.325594 8.325175 2.207862 8.325175 0 
C 8.325175 -2.207862 7.447982 -4.325594 5.886788 -5.886788 
C 4.325594 -7.447982 2.207862 -8.325175 0 -8.325175 
C -2.207862 -8.325175 -4.325594 -7.447982 -5.886788 -5.886788 
C -7.447982 -4.325594 -8.325175 -2.207862 -8.325175 0 
C -8.325175 2.207862 -7.447982 4.325594 -5.886788 5.886788 
C -4.325594 7.447982 -2.207862 8.325175 0 8.325175 
z
" style="stroke: #000000"/>
    </defs>
    <g clip-path="url(#p272e16f27f)">
     <use xlink:href="#maa9b41a6a0" x="576.306253" y="291.786235" style="stroke: #000000"/>
    </g>
   </g>
   <g id="line2d_5">
    <defs>
     <path id="m96a1e8595c" d="M 0 8.169264 
C 2.166514 8.169264 4.244585 7.308499 5.776542 5.776542 
C 7.308499 4.244585 8.169264 2.166514 8.169264 0 
C 8.169264 -2.166514 7.308499 -4.244585 5.776542 -5.776542 
C 4.244585 -7.308499 2.166514 -8.169264 0 -8.169264 
C -2.166514 -8.169264 -4.244585 -7.308499 -5.776542 -5.776542 
C -7.308499 -4.244585 -8.169264 -2.166514 -8.169264 0 
C -8.169264 2.166514 -7.308499 4.244585 -5.776542 5.776542 
C -4.244585 7.308499 -2.166514 8.169264 0 8.169264 
z
" style="stroke: #000000"/>
    </defs>
    <g clip-path="url(#p272e16f27f)">
     <use xlink:href="#m96a1e8595c" x="115.363636" y="58.008513" style="stroke: #000000"/>
    </g>
   </g>
   <g id="line2d_6">
    <defs>
     <path id="m420afb691e" d="M 0 7.761965 
C 2.058497 7.761965 4.032961 6.944115 5.488538 5.488538 
C 6.944115 4.032961 7.761965 2.058497 7.761965 0 
C 7.761965 -2.058497 6.944115 -4.032961 5.488538 -5.488538 
C 4.032961 -6.944115 2.058497 -7.761965 0 -7.761965 
C -2.058497 -7.761965 -4.032961 -6.944115 -5.488538 -5.488538 
C -6.944115 -4.032961 -7.761965 -2.058497 -7.761965 0 
C -7.761965 2.058497 -6.944115 4.032961 -5.488538 5.488538 
C -4.032961 6.944115 -2.058497 7.761965 0 7.761965 
z
" style="stroke: #000000"/>
    </defs>
    <g clip-path="url(#p272e16f27f)">
     <use xlink:href="#m420afb691e" x="299.259157" y="258.799099" style="stroke: #000000"/>
    </g>
   </g>
   <g id="line2d_7">
    <defs>
     <path id="m9f141eebbe" d="M 0 7.724897 
C 2.048667 7.724897 4.013701 6.910953 5.462327 5.462327 
C 6.910953 4.013701 7.724897 2.048667 7.724897 0 
C 7.724897 -2.048667 6.910953 -4.013701 5.462327 -5.462327 
C 4.013701 -6.910953 2.048667 -7.724897 0 -7.724897 
C -2.048667 -7.724897 -4.013701 -6.910953 -5.462327 -5.462327 
C -6.910953 -4.013701 -7.724897 -2.048667 -7.724897 0 
C -7.724897 2.048667 -6.910953 4.013701 -5.462327 5.462327 
C -4.013701 6.910953 -2.048667 7.724897 0 7.724897 
z
" style="stroke: #000000"/>
    </defs>
    <g clip-path="url(#p272e16f27f)">
     <use xlink:href="#m9f141eebbe" x="416.286016" y="294.810709" style="stroke: #000000"/>
    </g>
   </g>
   <g id="line2d_8">
    <defs>
     <path id="mf35dbc701c" d="M 0 7.333805 
C 1.944948 7.333805 3.810498 6.561069 5.185783 5.185783 
C 6.561069 3.810498 7.333805 1.944948 7.333805 0 
C 7.333805 -1.944948 6.561069 -3.810498 5.185783 -5.185783 
C 3.810498 -6.561069 1.944948 -7.333805 0 -7.333805 
C -1.944948 -7.333805 -3.810498 -6.561069 -5.185783 -5.185783 
C -6.561069 -3.810498 -7.333805 -1.944948 -7.333805 0 
C -7.333805 1.944948 -6.561069 3.810498 -5.185783 5.185783 
C -3.810498 6.561069 -1.944948 7.333805 0 7.333805 
z
" style="stroke: #000000"/>
    </defs>
    <g clip-path="url(#p272e16f27f)">
     <use xlink:href="#mf35dbc701c" x="477.111037" y="305.591487" style="stroke: #000000"/>
    </g>
   </g>
   <g id="line2d_9">
    <defs>
     <path id="m9eda1b0325" d="M 0 7.167311 
C 1.900793 7.167311 3.723991 6.412118 5.068054 5.068054 
C 6.412118 3.723991 7.167311 1.900793 7.167311 0 
C 7.167311 -1.900793 6.412118 -3.723991 5.068054 -5.068054 
C 3.723991 -6.412118 1.900793 -7.167311 0 -7.167311 
C -1.900793 -7.167311 -3.723991 -6.412118 -5.068054 -5.068054 
C -6.412118 -3.723991 -7.167311 -1.900793 -7.167311 0 
C -7.167311 1.900793 -6.412118 3.723991 -5.068054 5.068054 
C -3.723991 6.412118 -1.900793 7.167311 0 7.167311 
z
" style="stroke: #000000"/>
    </defs>
    <g clip-path="url(#p272e16f27f)">
     <use xlink:href="#m9eda1b0325" x="511.626344" y="214.35777" style="stroke: #000000"/>
    </g>
   </g>
   <g id="line2d_10">
    <defs>
     <path id="m6eb543c341" d="M 0 7.089682 
C 1.880206 7.089682 3.683656 6.342669 5.013163 5.013163 
C 6.342669 3.683656 7.089682 1.880206 7.089682 0 
C 7.089682 -1.880206 6.342669 -3.683656 5.013163 -5.013163 
C 3.683656 -6.342669 1.880206 -7.089682 0 -7.089682 
C -1.880206 -7.089682 -3.683656 -6.342669 -5.013163 -5.013163 
C -6.342669 -3.683656 -7.089682 -1.880206 -7.089682 0 
C -7.089682 1.880206 -6.342669 3.683656 -5.013163 5.013163 
C -3.683656 6.342669 -1.880206 7.089682 0 7.089682 
z
" style="stroke: #000000"/>
    </defs>
    <g clip-path="url(#p272e16f27f)">
     <use xlink:href="#m6eb543c341" x="615.449211" y="272.432541" style="stroke: #000000"/>
    </g>
   </g>
  </g>
 </g>
 <defs>
  <clipPath id="p272e16f27f">
   <path d="M 90 317.970635 
L 90 45.629365 
L 648 45.629365 
L 648 317.970635 
L 90 317.970635 
"/>
  </clipPath>
 </defs>
</svg>
