<?xml version="1.0" encoding="utf-8" standalone="no"?>
<!DOCTYPE svg PUBLIC "-//W3C//DTD SVG 1.1//EN"
  "http://www.w3.org/Graphics/SVG/1.1/DTD/svg11.dtd">
<svg xmlns:xlink="http://www.w3.org/1999/xlink" width="720pt" height="360pt" viewBox="0 0 720 360" xmlns="http://www.w3.org/2000/svg" version="1.1">
 <metadata>
  <rdf:RDF xmlns:dc="http://purl.org/dc/elements/1.1/" xmlns:cc="http://creativecommons.org/ns#" xmlns:rdf="http://www.w3.org/1999/02/22-rdf-syntax-ns#">
   <cc:Work>
    <dc:type rdf:resource="http://purl.org/dc/dcmitype/StillImage"/>
    <dc:date>2023-11-30T21:30:48.355386</dc:date>
    <dc:format>image/svg+xml</dc:format>
    <dc:creator>
     <cc:Agent>
      <dc:title>Matplotlib v3.8.1, https://matplotlib.org/</dc:title>
     </cc:Agent>
    </dc:creator>
   </cc:Work>
  </rdf:RDF>
 </metadata>
 <defs>
  <style type="text/css">*{stroke-linejoin: round; stroke-linecap: butt}</style>
 </defs>
 <g id="figure_1">
  <g id="patch_1">
   <path d="M 0 360 
L 720 360 
L 720 0 
L 0 0 
z
" style="fill: #ffffff"/>
  </g>
  <g id="axes_1">
   <g id="patch_2">
    <path d="M 253.059224 320.4 
L 253.059224 43.2 
L 484.940776 43.2 
L 484.940776 320.4 
L 253.059224 320.4 
" style="fill: #ffffff"/>
   </g>
   <g id="line2d_1">
    <defs>
     <path id="mf90890320e" d="M 0 10.141518 
C 2.689562 10.141518 5.269329 9.072944 7.171136 7.171136 
C 9.072944 5.269329 10.141518 2.689562 10.141518 0 
C 10.141518 -2.689562 9.072944 -5.269329 7.171136 -7.171136 
C 5.269329 -9.072944 2.689562 -10.141518 0 -10.141518 
C -2.689562 -10.141518 -5.269329 -9.072944 -7.171136 -7.171136 
C -9.072944 -5.269329 -10.141518 -2.689562 -10.141518 0 
C -10.141518 2.689562 -9.072944 5.269329 -7.171136 7.171136 
C -5.269329 9.072944 -2.689562 10.141518 0 10.141518 
z
" style="stroke: #000000"/>
    </defs>
    <g clip-path="url(#pa45eb4635d)">
     <use xlink:href="#mf90890320e" x="317.060569" y="147.405071" style="stroke: #000000"/>
    </g>
   </g>
   <g id="line2d_2">
    <defs>
     <path id="m0ed4507342" d="M 0 9.798177 
C 2.598507 9.798177 5.090935 8.765779 6.928357 6.928357 
C 8.765779 5.090935 9.798177 2.598507 9.798177 0 
C 9.798177 -2.598507 8.765779 -5.090935 6.928357 -6.928357 
C 5.090935 -8.765779 2.598507 -9.798177 0 -9.798177 
C -2.598507 -9.798177 -5.090935 -8.765779 -6.928357 -6.928357 
C -8.765779 -5.090935 -9.798177 -2.598507 -9.798177 0 
C -9.798177 2.598507 -8.765779 5.090935 -6.928357 6.928357 
C -5.090935 8.765779 -2.598507 9.798177 0 9.798177 
z
" style="stroke: #000000"/>
    </defs>
    <g clip-path="url(#pa45eb4635d)">
     <use xlink:href="#m0ed4507342" x="325.213377" y="139.536802" style="stroke: #000000"/>
    </g>
   </g>
   <g id="line2d_3">
    <defs>
     <path id="mbb7f79bec6" d="M 0 9.559122 
C 2.535109 9.559122 4.966727 8.551913 6.75932 6.75932 
C 8.551913 4.966727 9.559122 2.535109 9.559122 0 
C 9.559122 -2.535109 8.551913 -4.966727 6.75932 -6.75932 
C 4.966727 -8.551913 2.535109 -9.559122 0 -9.559122 
C -2.535109 -9.559122 -4.966727 -8.551913 -6.75932 -6.75932 
C -8.551913 -4.966727 -9.559122 -2.535109 -9.559122 0 
C -9.559122 2.535109 -8.551913 4.966727 -6.75932 6.75932 
C -4.966727 8.551913 -2.535109 9.559122 0 9.559122 
z
" style="stroke: #000000"/>
    </defs>
    <g clip-path="url(#pa45eb4635d)">
     <use xlink:href="#mbb7f79bec6" x="311.640003" y="107.106312" style="stroke: #000000"/>
    </g>
   </g>
   <g id="line2d_4">
    <defs>
     <path id="mc1b19e9e77" d="M 0 9.016577 
C 2.391224 9.016577 4.684832 8.066534 6.375683 6.375683 
C 8.066534 4.684832 9.016577 2.391224 9.016577 0 
C 9.016577 -2.391224 8.066534 -4.684832 6.375683 -6.375683 
C 4.684832 -8.066534 2.391224 -9.016577 0 -9.016577 
C -2.391224 -9.016577 -4.684832 -8.066534 -6.375683 -6.375683 
C -8.066534 -4.684832 -9.016577 -2.391224 -9.016577 0 
C -9.016577 2.391224 -8.066534 4.684832 -6.375683 6.375683 
C -4.684832 8.066534 -2.391224 9.016577 0 9.016577 
z
" style="stroke: #000000"/>
    </defs>
    <g clip-path="url(#pa45eb4635d)">
     <use xlink:href="#mc1b19e9e77" x="322.842201" y="143.218141" style="stroke: #000000"/>
    </g>
   </g>
   <g id="line2d_5">
    <defs>
     <path id="m67d1763c94" d="M 0 8.733663 
C 2.316195 8.733663 4.537836 7.81343 6.175633 6.175633 
C 7.81343 4.537836 8.733663 2.316195 8.733663 0 
C 8.733663 -2.316195 7.81343 -4.537836 6.175633 -6.175633 
C 4.537836 -7.81343 2.316195 -8.733663 0 -8.733663 
C -2.316195 -8.733663 -4.537836 -7.81343 -6.175633 -6.175633 
C -7.81343 -4.537836 -8.733663 -2.316195 -8.733663 0 
C -8.733663 2.316195 -7.81343 4.537836 -6.175633 6.175633 
C -4.537836 7.81343 -2.316195 8.733663 0 8.733663 
z
" style="stroke: #000000"/>
    </defs>
    <g clip-path="url(#pa45eb4635d)">
     <use xlink:href="#m67d1763c94" x="309.832388" y="147.453241" style="stroke: #000000"/>
    </g>
   </g>
   <g id="line2d_6">
    <defs>
     <path id="m63d95891dd" d="M 0 8.624177 
C 2.287158 8.624177 4.480949 7.715479 6.098214 6.098214 
C 7.715479 4.480949 8.624177 2.287158 8.624177 0 
C 8.624177 -2.287158 7.715479 -4.480949 6.098214 -6.098214 
C 4.480949 -7.715479 2.287158 -8.624177 0 -8.624177 
C -2.287158 -8.624177 -4.480949 -7.715479 -6.098214 -6.098214 
C -7.715479 -4.480949 -8.624177 -2.287158 -8.624177 0 
C -8.624177 2.287158 -7.715479 4.480949 -6.098214 6.098214 
C -4.480949 7.715479 -2.287158 8.624177 0 8.624177 
z
" style="stroke: #000000"/>
    </defs>
    <g clip-path="url(#pa45eb4635d)">
     <use xlink:href="#m63d95891dd" x="320.66154" y="106.892803" style="stroke: #000000"/>
    </g>
   </g>
   <g id="line2d_7">
    <defs>
     <path id="m32a59d8fce" d="M 0 8.468997 
C 2.246004 8.468997 4.40032 7.57665 5.988485 5.988485 
C 7.57665 4.40032 8.468997 2.246004 8.468997 0 
C 8.468997 -2.246004 7.57665 -4.40032 5.988485 -5.988485 
C 4.40032 -7.57665 2.246004 -8.468997 0 -8.468997 
C -2.246004 -8.468997 -4.40032 -7.57665 -5.988485 -5.988485 
C -7.57665 -4.40032 -8.468997 -2.246004 -8.468997 0 
C -8.468997 2.246004 -7.57665 4.40032 -5.988485 5.988485 
C -4.40032 7.57665 -2.246004 8.468997 0 8.468997 
z
" style="stroke: #000000"/>
    </defs>
    <g clip-path="url(#pa45eb4635d)">
     <use xlink:href="#m32a59d8fce" x="306.095089" y="122.059953" style="stroke: #000000"/>
    </g>
   </g>
   <g id="line2d_8">
    <defs>
     <path id="m08e749d4be" d="M 0 8.359501 
C 2.216965 8.359501 4.343428 7.478691 5.91106 5.91106 
C 7.478691 4.343428 8.359501 2.216965 8.359501 0 
C 8.359501 -2.216965 7.478691 -4.343428 5.91106 -5.91106 
C 4.343428 -7.478691 2.216965 -8.359501 0 -8.359501 
C -2.216965 -8.359501 -4.343428 -7.478691 -5.91106 -5.91106 
C -7.478691 -4.343428 -8.359501 -2.216965 -8.359501 0 
C -8.359501 2.216965 -7.478691 4.343428 -5.91106 5.91106 
C -4.343428 7.478691 -2.216965 8.359501 0 8.359501 
z
" style="stroke: #000000"/>
    </defs>
    <g clip-path="url(#pa45eb4635d)">
     <use xlink:href="#m08e749d4be" x="304.636562" y="141.785919" style="stroke: #000000"/>
    </g>
   </g>
   <g id="line2d_9">
    <defs>
     <path id="md385a67067" d="M 0 8.268192 
C 2.19275 8.268192 4.295986 7.397003 5.846495 5.846495 
C 7.397003 4.295986 8.268192 2.19275 8.268192 0 
C 8.268192 -2.19275 7.397003 -4.295986 5.846495 -5.846495 
C 4.295986 -7.397003 2.19275 -8.268192 0 -8.268192 
C -2.19275 -8.268192 -4.295986 -7.397003 -5.846495 -5.846495 
C -7.397003 -4.295986 -8.268192 -2.19275 -8.268192 0 
C -8.268192 2.19275 -7.397003 4.295986 -5.846495 5.846495 
C -4.295986 7.397003 -2.19275 8.268192 0 8.268192 
z
" style="stroke: #000000"/>
    </defs>
    <g clip-path="url(#pa45eb4635d)">
     <use xlink:href="#md385a67067" x="263.599295" y="307.8" style="stroke: #000000"/>
    </g>
   </g>
   <g id="line2d_10">
    <defs>
     <path id="m3c16f24ae8" d="M 0 8.187596 
C 2.171376 8.187596 4.25411 7.324899 5.789505 5.789505 
C 7.324899 4.25411 8.187596 2.171376 8.187596 0 
C 8.187596 -2.171376 7.324899 -4.25411 5.789505 -5.789505 
C 4.25411 -7.324899 2.171376 -8.187596 0 -8.187596 
C -2.171376 -8.187596 -4.25411 -7.324899 -5.789505 -5.789505 
C -7.324899 -4.25411 -8.187596 -2.171376 -8.187596 0 
C -8.187596 2.171376 -7.324899 4.25411 -5.789505 5.789505 
C -4.25411 7.324899 -2.171376 8.187596 0 8.187596 
z
" style="stroke: #000000"/>
    </defs>
    <g clip-path="url(#pa45eb4635d)">
     <use xlink:href="#m3c16f24ae8" x="474.400705" y="55.8" style="stroke: #000000"/>
    </g>
   </g>
  </g>
 </g>
 <defs>
  <clipPath id="pa45eb4635d">
   <path d="M 253.059224 320.4 
L 253.059224 43.2 
L 484.940776 43.2 
L 484.940776 320.4 
L 253.059224 320.4 
"/>
  </clipPath>
 </defs>
</svg>
