<?xml version="1.0" encoding="utf-8" standalone="no"?>
<!DOCTYPE svg PUBLIC "-//W3C//DTD SVG 1.1//EN"
  "http://www.w3.org/Graphics/SVG/1.1/DTD/svg11.dtd">
<svg xmlns:xlink="http://www.w3.org/1999/xlink" width="720pt" height="360pt" viewBox="0 0 720 360" xmlns="http://www.w3.org/2000/svg" version="1.1">
 <metadata>
  <rdf:RDF xmlns:dc="http://purl.org/dc/elements/1.1/" xmlns:cc="http://creativecommons.org/ns#" xmlns:rdf="http://www.w3.org/1999/02/22-rdf-syntax-ns#">
   <cc:Work>
    <dc:type rdf:resource="http://purl.org/dc/dcmitype/StillImage"/>
    <dc:date>2023-11-30T21:30:48.402760</dc:date>
    <dc:format>image/svg+xml</dc:format>
    <dc:creator>
     <cc:Agent>
      <dc:title>Matplotlib v3.8.1, https://matplotlib.org/</dc:title>
     </cc:Agent>
    </dc:creator>
   </cc:Work>
  </rdf:RDF>
 </metadata>
 <defs>
  <style type="text/css">*{stroke-linejoin: round; stroke-linecap: butt}</style>
 </defs>
 <g id="figure_1">
  <g id="patch_1">
   <path d="M 0 360 
L 720 360 
L 720 0 
L 0 0 
z
" style="fill: #ffffff"/>
  </g>
  <g id="axes_1">
   <g id="patch_2">
    <path d="M 243.24085 320.4 
L 243.24085 43.2 
L 494.75915 43.2 
L 494.75915 320.4 
L 243.24085 320.4 
" style="fill: #ffffff"/>
   </g>
   <g id="line2d_1">
    <defs>
     <path id="m42f8579228" d="M 0 11.495514 
C 3.048646 11.495514 5.972838 10.284274 8.128556 8.128556 
C 10.284274 5.972838 11.495514 3.048646 11.495514 0 
C 11.495514 -3.048646 10.284274 -5.972838 8.128556 -8.128556 
C 5.972838 -10.284274 3.048646 -11.495514 0 -11.495514 
C -3.048646 -11.495514 -5.972838 -10.284274 -8.128556 -8.128556 
C -10.284274 -5.972838 -11.495514 -3.048646 -11.495514 0 
C -11.495514 3.048646 -10.284274 5.972838 -8.128556 8.128556 
C -5.972838 10.284274 -3.048646 11.495514 0 11.495514 
z
" style="stroke: #000000"/>
    </defs>
    <g clip-path="url(#p238dd24424)">
     <use xlink:href="#m42f8579228" x="448.646034" y="254.918946" style="stroke: #000000"/>
    </g>
   </g>
   <g id="line2d_2">
    <defs>
     <path id="mb5761be747" d="M 0 10.921463 
C 2.896406 10.921463 5.674573 9.770709 7.722641 7.722641 
C 9.770709 5.674573 10.921463 2.896406 10.921463 0 
C 10.921463 -2.896406 9.770709 -5.674573 7.722641 -7.722641 
C 5.674573 -9.770709 2.896406 -10.921463 0 -10.921463 
C -2.896406 -10.921463 -5.674573 -9.770709 -7.722641 -7.722641 
C -9.770709 -5.674573 -10.921463 -2.896406 -10.921463 0 
C -10.921463 2.896406 -9.770709 5.674573 -7.722641 7.722641 
C -5.674573 9.770709 -2.896406 10.921463 0 10.921463 
z
" style="stroke: #000000"/>
    </defs>
    <g clip-path="url(#p238dd24424)">
     <use xlink:href="#mb5761be747" x="447.773736" y="261.475373" style="stroke: #000000"/>
    </g>
   </g>
   <g id="line2d_3">
    <defs>
     <path id="md18e802f83" d="M 0 10.696513 
C 2.836748 10.696513 5.557693 9.569461 7.563577 7.563577 
C 9.569461 5.557693 10.696513 2.836748 10.696513 0 
C 10.696513 -2.836748 9.569461 -5.557693 7.563577 -7.563577 
C 5.557693 -9.569461 2.836748 -10.696513 0 -10.696513 
C -2.836748 -10.696513 -5.557693 -9.569461 -7.563577 -7.563577 
C -9.569461 -5.557693 -10.696513 -2.836748 -10.696513 0 
C -10.696513 2.836748 -9.569461 5.557693 -7.563577 7.563577 
C -5.557693 9.569461 -2.836748 10.696513 0 10.696513 
z
" style="stroke: #000000"/>
    </defs>
    <g clip-path="url(#p238dd24424)">
     <use xlink:href="#md18e802f83" x="361.028757" y="280.287507" style="stroke: #000000"/>
    </g>
   </g>
   <g id="line2d_4">
    <defs>
     <path id="m9a32909625" d="M 0 10.531671 
C 2.793032 10.531671 5.472044 9.421988 7.447016 7.447016 
C 9.421988 5.472044 10.531671 2.793032 10.531671 0 
C 10.531671 -2.793032 9.421988 -5.472044 7.447016 -7.447016 
C 5.472044 -9.421988 2.793032 -10.531671 0 -10.531671 
C -2.793032 -10.531671 -5.472044 -9.421988 -7.447016 -7.447016 
C -9.421988 -5.472044 -10.531671 -2.793032 -10.531671 0 
C -10.531671 2.793032 -9.421988 5.472044 -7.447016 7.447016 
C -5.472044 9.421988 -2.793032 10.531671 0 10.531671 
z
" style="stroke: #000000"/>
    </defs>
    <g clip-path="url(#p238dd24424)">
     <use xlink:href="#m9a32909625" x="390.395967" y="267.901005" style="stroke: #000000"/>
    </g>
   </g>
   <g id="line2d_5">
    <defs>
     <path id="m442da2664b" d="M 0 10.456284 
C 2.773039 10.456284 5.432875 9.354544 7.393709 7.393709 
C 9.354544 5.432875 10.456284 2.773039 10.456284 0 
C 10.456284 -2.773039 9.354544 -5.432875 7.393709 -7.393709 
C 5.432875 -9.354544 2.773039 -10.456284 0 -10.456284 
C -2.773039 -10.456284 -5.432875 -9.354544 -7.393709 -7.393709 
C -9.354544 -5.432875 -10.456284 -2.773039 -10.456284 0 
C -10.456284 2.773039 -9.354544 5.432875 -7.393709 7.393709 
C -5.432875 9.354544 -2.773039 10.456284 0 10.456284 
z
" style="stroke: #000000"/>
    </defs>
    <g clip-path="url(#p238dd24424)">
     <use xlink:href="#m442da2664b" x="483.3265" y="55.8" style="stroke: #000000"/>
    </g>
   </g>
   <g id="line2d_6">
    <defs>
     <path id="mb15b565c6a" d="M 0 10.306416 
C 2.733294 10.306416 5.355006 9.220467 7.287737 7.287737 
C 9.220467 5.355006 10.306416 2.733294 10.306416 0 
C 10.306416 -2.733294 9.220467 -5.355006 7.287737 -7.287737 
C 5.355006 -9.220467 2.733294 -10.306416 0 -10.306416 
C -2.733294 -10.306416 -5.355006 -9.220467 -7.287737 -7.287737 
C -9.220467 -5.355006 -10.306416 -2.733294 -10.306416 0 
C -10.306416 2.733294 -9.220467 5.355006 -7.287737 7.287737 
C -5.355006 9.220467 -2.733294 10.306416 0 10.306416 
z
" style="stroke: #000000"/>
    </defs>
    <g clip-path="url(#p238dd24424)">
     <use xlink:href="#mb15b565c6a" x="254.6735" y="307.8" style="stroke: #000000"/>
    </g>
   </g>
   <g id="line2d_7">
    <defs>
     <path id="m60cc7e1c11" d="M 0 10.273326 
C 2.724518 10.273326 5.337814 9.190864 7.264339 7.264339 
C 9.190864 5.337814 10.273326 2.724518 10.273326 0 
C 10.273326 -2.724518 9.190864 -5.337814 7.264339 -7.264339 
C 5.337814 -9.190864 2.724518 -10.273326 0 -10.273326 
C -2.724518 -10.273326 -5.337814 -9.190864 -7.264339 -7.264339 
C -9.190864 -5.337814 -10.273326 -2.724518 -10.273326 0 
C -10.273326 2.724518 -9.190864 5.337814 -7.264339 7.264339 
C -5.337814 9.190864 -2.724518 10.273326 0 10.273326 
z
" style="stroke: #000000"/>
    </defs>
    <g clip-path="url(#p238dd24424)">
     <use xlink:href="#m60cc7e1c11" x="449.179534" y="259.245177" style="stroke: #000000"/>
    </g>
   </g>
   <g id="line2d_8">
    <defs>
     <path id="mce66a4c25f" d="M 0 10.268858 
C 2.723333 10.268858 5.335492 9.186866 7.261179 7.261179 
C 9.186866 5.335492 10.268858 2.723333 10.268858 0 
C 10.268858 -2.723333 9.186866 -5.335492 7.261179 -7.261179 
C 5.335492 -9.186866 2.723333 -10.268858 0 -10.268858 
C -2.723333 -10.268858 -5.335492 -9.186866 -7.261179 -7.261179 
C -9.186866 -5.335492 -10.268858 -2.723333 -10.268858 0 
C -10.268858 2.723333 -9.186866 5.335492 -7.261179 7.261179 
C -5.335492 9.186866 -2.723333 10.268858 0 10.268858 
z
" style="stroke: #000000"/>
    </defs>
    <g clip-path="url(#p238dd24424)">
     <use xlink:href="#mce66a4c25f" x="354.353621" y="280.349287" style="stroke: #000000"/>
    </g>
   </g>
   <g id="line2d_9">
    <defs>
     <path id="m5fab58e2c1" d="M 0 10.240606 
C 2.71584 10.240606 5.320813 9.161591 7.241202 7.241202 
C 9.161591 5.320813 10.240606 2.71584 10.240606 0 
C 10.240606 -2.71584 9.161591 -5.320813 7.241202 -7.241202 
C 5.320813 -9.161591 2.71584 -10.240606 0 -10.240606 
C -2.71584 -10.240606 -5.320813 -9.161591 -7.241202 -7.241202 
C -9.161591 -5.320813 -10.240606 -2.71584 -10.240606 0 
C -10.240606 2.71584 -9.161591 5.320813 -7.241202 7.241202 
C -5.320813 9.161591 -2.71584 10.240606 0 10.240606 
z
" style="stroke: #000000"/>
    </defs>
    <g clip-path="url(#p238dd24424)">
     <use xlink:href="#m5fab58e2c1" x="366.29203" y="271.982773" style="stroke: #000000"/>
    </g>
   </g>
   <g id="line2d_10">
    <defs>
     <path id="m3762448a39" d="M 0 10.168702 
C 2.696771 10.168702 5.283453 9.097263 7.190358 7.190358 
C 9.097263 5.283453 10.168702 2.696771 10.168702 0 
C 10.168702 -2.696771 9.097263 -5.283453 7.190358 -7.190358 
C 5.283453 -9.097263 2.696771 -10.168702 0 -10.168702 
C -2.696771 -10.168702 -5.283453 -9.097263 -7.190358 -7.190358 
C -9.097263 -5.283453 -10.168702 -2.696771 -10.168702 0 
C -10.168702 2.696771 -9.097263 5.283453 -7.190358 7.190358 
C -5.283453 9.097263 -2.696771 10.168702 0 10.168702 
z
" style="stroke: #000000"/>
    </defs>
    <g clip-path="url(#p238dd24424)">
     <use xlink:href="#m3762448a39" x="447.911137" y="249.308044" style="stroke: #000000"/>
    </g>
   </g>
  </g>
 </g>
 <defs>
  <clipPath id="p238dd24424">
   <path d="M 243.24085 320.4 
L 243.24085 43.2 
L 494.75915 43.2 
L 494.75915 320.4 
L 243.24085 320.4 
"/>
  </clipPath>
 </defs>
</svg>
