<?xml version="1.0" encoding="utf-8" standalone="no"?>
<!DOCTYPE svg PUBLIC "-//W3C//DTD SVG 1.1//EN"
  "http://www.w3.org/Graphics/SVG/1.1/DTD/svg11.dtd">
<svg xmlns:xlink="http://www.w3.org/1999/xlink" width="720pt" height="360pt" viewBox="0 0 720 360" xmlns="http://www.w3.org/2000/svg" version="1.1">
 <metadata>
  <rdf:RDF xmlns:dc="http://purl.org/dc/elements/1.1/" xmlns:cc="http://creativecommons.org/ns#" xmlns:rdf="http://www.w3.org/1999/02/22-rdf-syntax-ns#">
   <cc:Work>
    <dc:type rdf:resource="http://purl.org/dc/dcmitype/StillImage"/>
    <dc:date>2023-11-30T21:30:48.443141</dc:date>
    <dc:format>image/svg+xml</dc:format>
    <dc:creator>
     <cc:Agent>
      <dc:title>Matplotlib v3.8.1, https://matplotlib.org/</dc:title>
     </cc:Agent>
    </dc:creator>
   </cc:Work>
  </rdf:RDF>
 </metadata>
 <defs>
  <style type="text/css">*{stroke-linejoin: round; stroke-linecap: butt}</style>
 </defs>
 <g id="figure_1">
  <g id="patch_1">
   <path d="M 0 360 
L 720 360 
L 720 0 
L 0 0 
z
" style="fill: #ffffff"/>
  </g>
  <g id="axes_1">
   <g id="patch_2">
    <path d="M 233.936607 320.4 
L 233.936607 43.2 
L 504.063393 43.2 
L 504.063393 320.4 
L 233.936607 320.4 
" style="fill: #ffffff"/>
   </g>
   <g id="line2d_1">
    <defs>
     <path id="mdc3e9041b4" d="M 0 10.695644 
C 2.836518 10.695644 5.557241 9.568683 7.562962 7.562962 
C 9.568683 5.557241 10.695644 2.836518 10.695644 0 
C 10.695644 -2.836518 9.568683 -5.557241 7.562962 -7.562962 
C 5.557241 -9.568683 2.836518 -10.695644 0 -10.695644 
C -2.836518 -10.695644 -5.557241 -9.568683 -7.562962 -7.562962 
C -9.568683 -5.557241 -10.695644 -2.836518 -10.695644 0 
C -10.695644 2.836518 -9.568683 5.557241 -7.562962 7.562962 
C -5.557241 9.568683 -2.836518 10.695644 0 10.695644 
z
" style="stroke: #000000"/>
    </defs>
    <g clip-path="url(#p8aeca98eb6)">
     <use xlink:href="#mdc3e9041b4" x="349.436117" y="169.993278" style="stroke: #000000"/>
    </g>
   </g>
   <g id="line2d_2">
    <defs>
     <path id="m10f05cae2d" d="M 0 10.416369 
C 2.762453 10.416369 5.412136 9.318835 7.365485 7.365485 
C 9.318835 5.412136 10.416369 2.762453 10.416369 0 
C 10.416369 -2.762453 9.318835 -5.412136 7.365485 -7.365485 
C 5.412136 -9.318835 2.762453 -10.416369 0 -10.416369 
C -2.762453 -10.416369 -5.412136 -9.318835 -7.365485 -7.365485 
C -9.318835 -5.412136 -10.416369 -2.762453 -10.416369 0 
C -10.416369 2.762453 -9.318835 5.412136 -7.365485 7.365485 
C -5.412136 9.318835 -2.762453 10.416369 0 10.416369 
z
" style="stroke: #000000"/>
    </defs>
    <g clip-path="url(#p8aeca98eb6)">
     <use xlink:href="#m10f05cae2d" x="246.215097" y="92.133483" style="stroke: #000000"/>
    </g>
   </g>
   <g id="line2d_3">
    <defs>
     <path id="m5bb72b55cf" d="M 0 10.102294 
C 2.67916 10.102294 5.248949 9.037853 7.143401 7.143401 
C 9.037853 5.248949 10.102294 2.67916 10.102294 0 
C 10.102294 -2.67916 9.037853 -5.248949 7.143401 -7.143401 
C 5.248949 -9.037853 2.67916 -10.102294 0 -10.102294 
C -2.67916 -10.102294 -5.248949 -9.037853 -7.143401 -7.143401 
C -9.037853 -5.248949 -10.102294 -2.67916 -10.102294 0 
C -10.102294 2.67916 -9.037853 5.248949 -7.143401 7.143401 
C -5.248949 9.037853 -2.67916 10.102294 0 10.102294 
z
" style="stroke: #000000"/>
    </defs>
    <g clip-path="url(#p8aeca98eb6)">
     <use xlink:href="#m5bb72b55cf" x="491.784903" y="307.8" style="stroke: #000000"/>
    </g>
   </g>
   <g id="line2d_4">
    <defs>
     <path id="mcde78b60bc" d="M 0 9.451389 
C 2.506538 9.451389 4.910752 8.455531 6.683141 6.683141 
C 8.455531 4.910752 9.451389 2.506538 9.451389 0 
C 9.451389 -2.506538 8.455531 -4.910752 6.683141 -6.683141 
C 4.910752 -8.455531 2.506538 -9.451389 0 -9.451389 
C -2.506538 -9.451389 -4.910752 -8.455531 -6.683141 -6.683141 
C -8.455531 -4.910752 -9.451389 -2.506538 -9.451389 0 
C -9.451389 2.506538 -8.455531 4.910752 -6.683141 6.683141 
C -4.910752 8.455531 -2.506538 9.451389 0 9.451389 
z
" style="stroke: #000000"/>
    </defs>
    <g clip-path="url(#p8aeca98eb6)">
     <use xlink:href="#mcde78b60bc" x="356.646258" y="163.203346" style="stroke: #000000"/>
    </g>
   </g>
   <g id="line2d_5">
    <defs>
     <path id="mc4297c1a10" d="M 0 9.429872 
C 2.500831 9.429872 4.899572 8.436281 6.667926 6.667926 
C 8.436281 4.899572 9.429872 2.500831 9.429872 0 
C 9.429872 -2.500831 8.436281 -4.899572 6.667926 -6.667926 
C 4.899572 -8.436281 2.500831 -9.429872 0 -9.429872 
C -2.500831 -9.429872 -4.899572 -8.436281 -6.667926 -6.667926 
C -8.436281 -4.899572 -9.429872 -2.500831 -9.429872 0 
C -9.429872 2.500831 -8.436281 4.899572 -6.667926 6.667926 
C -4.899572 8.436281 -2.500831 9.429872 0 9.429872 
z
" style="stroke: #000000"/>
    </defs>
    <g clip-path="url(#p8aeca98eb6)">
     <use xlink:href="#mc4297c1a10" x="272.097604" y="80.404993" style="stroke: #000000"/>
    </g>
   </g>
   <g id="line2d_6">
    <defs>
     <path id="m172d791d67" d="M 0 9.197047 
C 2.439085 9.197047 4.778601 8.227988 6.503294 6.503294 
C 8.227988 4.778601 9.197047 2.439085 9.197047 0 
C 9.197047 -2.439085 8.227988 -4.778601 6.503294 -6.503294 
C 4.778601 -8.227988 2.439085 -9.197047 0 -9.197047 
C -2.439085 -9.197047 -4.778601 -8.227988 -6.503294 -6.503294 
C -8.227988 -4.778601 -9.197047 -2.439085 -9.197047 0 
C -9.197047 2.439085 -8.227988 4.778601 -6.503294 6.503294 
C -4.778601 8.227988 -2.439085 9.197047 0 9.197047 
z
" style="stroke: #000000"/>
    </defs>
    <g clip-path="url(#p8aeca98eb6)">
     <use xlink:href="#m172d791d67" x="246.686107" y="111.326075" style="stroke: #000000"/>
    </g>
   </g>
   <g id="line2d_7">
    <defs>
     <path id="meadfcf5459" d="M 0 9.152554 
C 2.427286 9.152554 4.755483 8.188184 6.471833 6.471833 
C 8.188184 4.755483 9.152554 2.427286 9.152554 0 
C 9.152554 -2.427286 8.188184 -4.755483 6.471833 -6.471833 
C 4.755483 -8.188184 2.427286 -9.152554 0 -9.152554 
C -2.427286 -9.152554 -4.755483 -8.188184 -6.471833 -6.471833 
C -8.188184 -4.755483 -9.152554 -2.427286 -9.152554 0 
C -9.152554 2.427286 -8.188184 4.755483 -6.471833 6.471833 
C -4.755483 8.188184 -2.427286 9.152554 0 9.152554 
z
" style="stroke: #000000"/>
    </defs>
    <g clip-path="url(#p8aeca98eb6)">
     <use xlink:href="#meadfcf5459" x="341.747967" y="168.152192" style="stroke: #000000"/>
    </g>
   </g>
   <g id="line2d_8">
    <defs>
     <path id="m099d022e1b" d="M 0 8.99381 
C 2.385186 8.99381 4.673002 8.046165 6.359584 6.359584 
C 8.046165 4.673002 8.99381 2.385186 8.99381 0 
C 8.99381 -2.385186 8.046165 -4.673002 6.359584 -6.359584 
C 4.673002 -8.046165 2.385186 -8.99381 0 -8.99381 
C -2.385186 -8.99381 -4.673002 -8.046165 -6.359584 -6.359584 
C -8.046165 -4.673002 -8.99381 -2.385186 -8.99381 0 
C -8.99381 2.385186 -8.046165 4.673002 -6.359584 6.359584 
C -4.673002 8.046165 -2.385186 8.99381 0 8.99381 
z
" style="stroke: #000000"/>
    </defs>
    <g clip-path="url(#p8aeca98eb6)">
     <use xlink:href="#m099d022e1b" x="312.214389" y="121.506735" style="stroke: #000000"/>
    </g>
   </g>
   <g id="line2d_9">
    <defs>
     <path id="mc97e366aec" d="M 0 8.804824 
C 2.335067 8.804824 4.574809 7.877092 6.225951 6.225951 
C 7.877092 4.574809 8.804824 2.335067 8.804824 0 
C 8.804824 -2.335067 7.877092 -4.574809 6.225951 -6.225951 
C 4.574809 -7.877092 2.335067 -8.804824 0 -8.804824 
C -2.335067 -8.804824 -4.574809 -7.877092 -6.225951 -6.225951 
C -7.877092 -4.574809 -8.804824 -2.335067 -8.804824 0 
C -8.804824 2.335067 -7.877092 4.574809 -6.225951 6.225951 
C -4.574809 7.877092 -2.335067 8.804824 0 8.804824 
z
" style="stroke: #000000"/>
    </defs>
    <g clip-path="url(#p8aeca98eb6)">
     <use xlink:href="#mc97e366aec" x="362.069364" y="157.570656" style="stroke: #000000"/>
    </g>
   </g>
   <g id="line2d_10">
    <defs>
     <path id="m6522ed182b" d="M 0 8.653596 
C 2.29496 8.653596 4.496234 7.741798 6.119016 6.119016 
C 7.741798 4.496234 8.653596 2.29496 8.653596 0 
C 8.653596 -2.29496 7.741798 -4.496234 6.119016 -6.119016 
C 4.496234 -7.741798 2.29496 -8.653596 0 -8.653596 
C -2.29496 -8.653596 -4.496234 -7.741798 -6.119016 -6.119016 
C -7.741798 -4.496234 -8.653596 -2.29496 -8.653596 0 
C -8.653596 2.29496 -7.741798 4.496234 -6.119016 6.119016 
C -4.496234 7.741798 -2.29496 8.653596 0 8.653596 
z
" style="stroke: #000000"/>
    </defs>
    <g clip-path="url(#p8aeca98eb6)">
     <use xlink:href="#m6522ed182b" x="258.911846" y="55.8" style="stroke: #000000"/>
    </g>
   </g>
  </g>
 </g>
 <defs>
  <clipPath id="p8aeca98eb6">
   <path d="M 233.936607 320.4 
L 233.936607 43.2 
L 504.063393 43.2 
L 504.063393 320.4 
L 233.936607 320.4 
"/>
  </clipPath>
 </defs>
</svg>
