<?xml version="1.0" encoding="utf-8" standalone="no"?>
<!DOCTYPE svg PUBLIC "-//W3C//DTD SVG 1.1//EN"
  "http://www.w3.org/Graphics/SVG/1.1/DTD/svg11.dtd">
<svg xmlns:xlink="http://www.w3.org/1999/xlink" width="720pt" height="360pt" viewBox="0 0 720 360" xmlns="http://www.w3.org/2000/svg" version="1.1">
 <metadata>
  <rdf:RDF xmlns:dc="http://purl.org/dc/elements/1.1/" xmlns:cc="http://creativecommons.org/ns#" xmlns:rdf="http://www.w3.org/1999/02/22-rdf-syntax-ns#">
   <cc:Work>
    <dc:type rdf:resource="http://purl.org/dc/dcmitype/StillImage"/>
    <dc:date>2023-11-30T21:30:48.489573</dc:date>
    <dc:format>image/svg+xml</dc:format>
    <dc:creator>
     <cc:Agent>
      <dc:title>Matplotlib v3.8.1, https://matplotlib.org/</dc:title>
     </cc:Agent>
    </dc:creator>
   </cc:Work>
  </rdf:RDF>
 </metadata>
 <defs>
  <style type="text/css">*{stroke-linejoin: round; stroke-linecap: butt}</style>
 </defs>
 <g id="figure_1">
  <g id="patch_1">
   <path d="M 0 360 
L 720 360 
L 720 0 
L 0 0 
z
" style="fill: #ffffff"/>
  </g>
  <g id="axes_1">
   <g id="patch_2">
    <path d="M 118.521465 320.4 
L 118.521465 43.2 
L 619.478535 43.2 
L 619.478535 320.4 
L 118.521465 320.4 
" style="fill: #ffffff"/>
   </g>
   <g id="line2d_1">
    <defs>
     <path id="m937a61e269" d="M 0 9.889784 
C 2.622801 9.889784 5.138532 8.847734 6.993133 6.993133 
C 8.847734 5.138532 9.889784 2.622801 9.889784 0 
C 9.889784 -2.622801 8.847734 -5.138532 6.993133 -6.993133 
C 5.138532 -8.847734 2.622801 -9.889784 0 -9.889784 
C -2.622801 -9.889784 -5.138532 -8.847734 -6.993133 -6.993133 
C -8.847734 -5.138532 -9.889784 -2.622801 -9.889784 0 
C -9.889784 2.622801 -8.847734 5.138532 -6.993133 6.993133 
C -5.138532 8.847734 -2.622801 9.889784 0 9.889784 
z
" style="stroke: #000000"/>
    </defs>
    <g clip-path="url(#pb21cda3d7d)">
     <use xlink:href="#m937a61e269" x="289.99721" y="55.8" style="stroke: #000000"/>
    </g>
   </g>
   <g id="line2d_2">
    <defs>
     <path id="m36045053fb" d="M 0 9.14872 
C 2.426269 9.14872 4.753491 8.184753 6.469122 6.469122 
C 8.184753 4.753491 9.14872 2.426269 9.14872 0 
C 9.14872 -2.426269 8.184753 -4.753491 6.469122 -6.469122 
C 4.753491 -8.184753 2.426269 -9.14872 0 -9.14872 
C -2.426269 -9.14872 -4.753491 -8.184753 -6.469122 -6.469122 
C -8.184753 -4.753491 -9.14872 -2.426269 -9.14872 0 
C -9.14872 2.426269 -8.184753 4.753491 -6.469122 6.469122 
C -4.753491 8.184753 -2.426269 9.14872 0 9.14872 
z
" style="stroke: #000000"/>
    </defs>
    <g clip-path="url(#pb21cda3d7d)">
     <use xlink:href="#m36045053fb" x="145.536946" y="307.8" style="stroke: #000000"/>
    </g>
   </g>
   <g id="line2d_3">
    <defs>
     <path id="m8d597f9697" d="M 0 8.455556 
C 2.24244 8.455556 4.393336 7.564625 5.978981 5.978981 
C 7.564625 4.393336 8.455556 2.24244 8.455556 0 
C 8.455556 -2.24244 7.564625 -4.393336 5.978981 -5.978981 
C 4.393336 -7.564625 2.24244 -8.455556 0 -8.455556 
C -2.24244 -8.455556 -4.393336 -7.564625 -5.978981 -5.978981 
C -7.564625 -4.393336 -8.455556 -2.24244 -8.455556 0 
C -8.455556 2.24244 -7.564625 4.393336 -5.978981 5.978981 
C -4.393336 7.564625 -2.24244 8.455556 0 8.455556 
z
" style="stroke: #000000"/>
    </defs>
    <g clip-path="url(#pb21cda3d7d)">
     <use xlink:href="#m8d597f9697" x="161.785197" y="264.86418" style="stroke: #000000"/>
    </g>
   </g>
   <g id="line2d_4">
    <defs>
     <path id="m1cf8e1d926" d="M 0 8.182067 
C 2.16991 8.182067 4.251237 7.319953 5.785595 5.785595 
C 7.319953 4.251237 8.182067 2.16991 8.182067 0 
C 8.182067 -2.16991 7.319953 -4.251237 5.785595 -5.785595 
C 4.251237 -7.319953 2.16991 -8.182067 0 -8.182067 
C -2.16991 -8.182067 -4.251237 -7.319953 -5.785595 -5.785595 
C -7.319953 -4.251237 -8.182067 -2.16991 -8.182067 0 
C -8.182067 2.16991 -7.319953 4.251237 -5.785595 5.785595 
C -4.251237 7.319953 -2.16991 8.182067 0 8.182067 
z
" style="stroke: #000000"/>
    </defs>
    <g clip-path="url(#pb21cda3d7d)">
     <use xlink:href="#m1cf8e1d926" x="596.707759" y="97.255885" style="stroke: #000000"/>
    </g>
   </g>
   <g id="line2d_5">
    <defs>
     <path id="m3ade522d4d" d="M 0 8.062263 
C 2.138137 8.062263 4.188989 7.212772 5.700881 5.700881 
C 7.212772 4.188989 8.062263 2.138137 8.062263 0 
C 8.062263 -2.138137 7.212772 -4.188989 5.700881 -5.700881 
C 4.188989 -7.212772 2.138137 -8.062263 0 -8.062263 
C -2.138137 -8.062263 -4.188989 -7.212772 -5.700881 -5.700881 
C -7.212772 -4.188989 -8.062263 -2.138137 -8.062263 0 
C -8.062263 2.138137 -7.212772 4.188989 -5.700881 5.700881 
C -4.188989 7.212772 -2.138137 8.062263 0 8.062263 
z
" style="stroke: #000000"/>
    </defs>
    <g clip-path="url(#pb21cda3d7d)">
     <use xlink:href="#m3ade522d4d" x="347.369263" y="58.875433" style="stroke: #000000"/>
    </g>
   </g>
   <g id="line2d_6">
    <defs>
     <path id="m65c5a3c722" d="M 0 7.796272 
C 2.067596 7.796272 4.050786 6.974808 5.512797 5.512797 
C 6.974808 4.050786 7.796272 2.067596 7.796272 0 
C 7.796272 -2.067596 6.974808 -4.050786 5.512797 -5.512797 
C 4.050786 -6.974808 2.067596 -7.796272 0 -7.796272 
C -2.067596 -7.796272 -4.050786 -6.974808 -5.512797 -5.512797 
C -6.974808 -4.050786 -7.796272 -2.067596 -7.796272 0 
C -7.796272 2.067596 -6.974808 4.050786 -5.512797 5.512797 
C -4.050786 6.974808 -2.067596 7.796272 0 7.796272 
z
" style="stroke: #000000"/>
    </defs>
    <g clip-path="url(#pb21cda3d7d)">
     <use xlink:href="#m65c5a3c722" x="186.030976" y="282.215443" style="stroke: #000000"/>
    </g>
   </g>
   <g id="line2d_7">
    <defs>
     <path id="m216c008a48" d="M 0 7.779554 
C 2.063162 7.779554 4.0421 6.959851 5.500975 5.500975 
C 6.959851 4.0421 7.779554 2.063162 7.779554 0 
C 7.779554 -2.063162 6.959851 -4.0421 5.500975 -5.500975 
C 4.0421 -6.959851 2.063162 -7.779554 0 -7.779554 
C -2.063162 -7.779554 -4.0421 -6.959851 -5.500975 -5.500975 
C -6.959851 -4.0421 -7.779554 -2.063162 -7.779554 0 
C -7.779554 2.063162 -6.959851 4.0421 -5.500975 5.500975 
C -4.0421 6.959851 -2.063162 7.779554 0 7.779554 
z
" style="stroke: #000000"/>
    </defs>
    <g clip-path="url(#pb21cda3d7d)">
     <use xlink:href="#m216c008a48" x="230.17542" y="61.911125" style="stroke: #000000"/>
    </g>
   </g>
   <g id="line2d_8">
    <defs>
     <path id="m1c52d086ca" d="M 0 7.693941 
C 2.040457 7.693941 3.997617 6.883259 5.440438 5.440438 
C 6.883259 3.997617 7.693941 2.040457 7.693941 0 
C 7.693941 -2.040457 6.883259 -3.997617 5.440438 -5.440438 
C 3.997617 -6.883259 2.040457 -7.693941 0 -7.693941 
C -2.040457 -7.693941 -3.997617 -6.883259 -5.440438 -5.440438 
C -6.883259 -3.997617 -7.693941 -2.040457 -7.693941 0 
C -7.693941 2.040457 -6.883259 3.997617 -5.440438 5.440438 
C -3.997617 6.883259 -2.040457 7.693941 0 7.693941 
z
" style="stroke: #000000"/>
    </defs>
    <g clip-path="url(#pb21cda3d7d)">
     <use xlink:href="#m1c52d086ca" x="418.780934" y="100.579288" style="stroke: #000000"/>
    </g>
   </g>
   <g id="line2d_9">
    <defs>
     <path id="m5cfa5dc733" d="M 0 7.664811 
C 2.032732 7.664811 3.982481 6.857198 5.41984 5.41984 
C 6.857198 3.982481 7.664811 2.032732 7.664811 0 
C 7.664811 -2.032732 6.857198 -3.982481 5.41984 -5.41984 
C 3.982481 -6.857198 2.032732 -7.664811 0 -7.664811 
C -2.032732 -7.664811 -3.982481 -6.857198 -5.41984 -5.41984 
C -6.857198 -3.982481 -7.664811 -2.032732 -7.664811 0 
C -7.664811 2.032732 -6.857198 3.982481 -5.41984 5.41984 
C -3.982481 6.857198 -2.032732 7.664811 0 7.664811 
z
" style="stroke: #000000"/>
    </defs>
    <g clip-path="url(#pb21cda3d7d)">
     <use xlink:href="#m5cfa5dc733" x="402.977796" y="211.996362" style="stroke: #000000"/>
    </g>
   </g>
   <g id="line2d_10">
    <defs>
     <path id="m073e19a43c" d="M 0 7.661879 
C 2.031954 7.661879 3.980958 6.854575 5.417767 5.417767 
C 6.854575 3.980958 7.661879 2.031954 7.661879 0 
C 7.661879 -2.031954 6.854575 -3.980958 5.417767 -5.417767 
C 3.980958 -6.854575 2.031954 -7.661879 0 -7.661879 
C -2.031954 -7.661879 -3.980958 -6.854575 -5.417767 -5.417767 
C -6.854575 -3.980958 -7.661879 -2.031954 -7.661879 0 
C -7.661879 2.031954 -6.854575 3.980958 -5.417767 5.417767 
C -3.980958 6.854575 -2.031954 7.661879 0 7.661879 
z
" style="stroke: #000000"/>
    </defs>
    <g clip-path="url(#pb21cda3d7d)">
     <use xlink:href="#m073e19a43c" x="141.292241" y="253.768579" style="stroke: #000000"/>
    </g>
   </g>
  </g>
 </g>
 <defs>
  <clipPath id="pb21cda3d7d">
   <path d="M 118.521465 320.4 
L 118.521465 43.2 
L 619.478535 43.2 
L 619.478535 320.4 
L 118.521465 320.4 
"/>
  </clipPath>
 </defs>
</svg>
