<?xml version="1.0" encoding="utf-8" standalone="no"?>
<!DOCTYPE svg PUBLIC "-//W3C//DTD SVG 1.1//EN"
  "http://www.w3.org/Graphics/SVG/1.1/DTD/svg11.dtd">
<svg xmlns:xlink="http://www.w3.org/1999/xlink" width="720pt" height="360pt" viewBox="0 0 720 360" xmlns="http://www.w3.org/2000/svg" version="1.1">
 <metadata>
  <rdf:RDF xmlns:dc="http://purl.org/dc/elements/1.1/" xmlns:cc="http://creativecommons.org/ns#" xmlns:rdf="http://www.w3.org/1999/02/22-rdf-syntax-ns#">
   <cc:Work>
    <dc:type rdf:resource="http://purl.org/dc/dcmitype/StillImage"/>
    <dc:date>2023-11-30T21:30:48.530472</dc:date>
    <dc:format>image/svg+xml</dc:format>
    <dc:creator>
     <cc:Agent>
      <dc:title>Matplotlib v3.8.1, https://matplotlib.org/</dc:title>
     </cc:Agent>
    </dc:creator>
   </cc:Work>
  </rdf:RDF>
 </metadata>
 <defs>
  <style type="text/css">*{stroke-linejoin: round; stroke-linecap: butt}</style>
 </defs>
 <g id="figure_1">
  <g id="patch_1">
   <path d="M 0 360 
L 720 360 
L 720 0 
L 0 0 
z
" style="fill: #ffffff"/>
  </g>
  <g id="axes_1">
   <g id="patch_2">
    <path d="M 239.300129 320.4 
L 239.300129 43.2 
L 498.699871 43.2 
L 498.699871 320.4 
L 239.300129 320.4 
" style="fill: #ffffff"/>
   </g>
   <g id="line2d_1">
    <defs>
     <path id="m48e1427cb1" d="M 0 10.292794 
C 2.729681 10.292794 5.347928 9.20828 7.278104 7.278104 
C 9.20828 5.347928 10.292794 2.729681 10.292794 0 
C 10.292794 -2.729681 9.20828 -5.347928 7.278104 -7.278104 
C 5.347928 -9.20828 2.729681 -10.292794 0 -10.292794 
C -2.729681 -10.292794 -5.347928 -9.20828 -7.278104 -7.278104 
C -9.20828 -5.347928 -10.292794 -2.729681 -10.292794 0 
C -10.292794 2.729681 -9.20828 5.347928 -7.278104 7.278104 
C -5.347928 9.20828 -2.729681 10.292794 0 10.292794 
z
" style="stroke: #000000"/>
    </defs>
    <g clip-path="url(#p1610b5a99b)">
     <use xlink:href="#m48e1427cb1" x="442.386682" y="229.325278" style="stroke: #000000"/>
    </g>
   </g>
   <g id="line2d_2">
    <defs>
     <path id="me260ef3dbd" d="M 0 9.843384 
C 2.610496 9.843384 5.114424 8.806223 6.960323 6.960323 
C 8.806223 5.114424 9.843384 2.610496 9.843384 0 
C 9.843384 -2.610496 8.806223 -5.114424 6.960323 -6.960323 
C 5.114424 -8.806223 2.610496 -9.843384 0 -9.843384 
C -2.610496 -9.843384 -5.114424 -8.806223 -6.960323 -6.960323 
C -8.806223 -5.114424 -9.843384 -2.610496 -9.843384 0 
C -9.843384 2.610496 -8.806223 5.114424 -6.960323 6.960323 
C -5.114424 8.806223 -2.610496 9.843384 0 9.843384 
z
" style="stroke: #000000"/>
    </defs>
    <g clip-path="url(#p1610b5a99b)">
     <use xlink:href="#me260ef3dbd" x="431.731225" y="276.421518" style="stroke: #000000"/>
    </g>
   </g>
   <g id="line2d_3">
    <defs>
     <path id="m926ea4551d" d="M 0 8.544741 
C 2.266092 8.544741 4.439675 7.644413 6.042044 6.042044 
C 7.644413 4.439675 8.544741 2.266092 8.544741 0 
C 8.544741 -2.266092 7.644413 -4.439675 6.042044 -6.042044 
C 4.439675 -7.644413 2.266092 -8.544741 0 -8.544741 
C -2.266092 -8.544741 -4.439675 -7.644413 -6.042044 -6.042044 
C -7.644413 -4.439675 -8.544741 -2.266092 -8.544741 0 
C -8.544741 2.266092 -7.644413 4.439675 -6.042044 6.042044 
C -4.439675 7.644413 -2.266092 8.544741 0 8.544741 
z
" style="stroke: #000000"/>
    </defs>
    <g clip-path="url(#p1610b5a99b)">
     <use xlink:href="#m926ea4551d" x="356.556707" y="80.420849" style="stroke: #000000"/>
    </g>
   </g>
   <g id="line2d_4">
    <defs>
     <path id="mfa73bffc4d" d="M 0 8.431827 
C 2.236147 8.431827 4.381008 7.543396 5.962202 5.962202 
C 7.543396 4.381008 8.431827 2.236147 8.431827 0 
C 8.431827 -2.236147 7.543396 -4.381008 5.962202 -5.962202 
C 4.381008 -7.543396 2.236147 -8.431827 0 -8.431827 
C -2.236147 -8.431827 -4.381008 -7.543396 -5.962202 -5.962202 
C -7.543396 -4.381008 -8.431827 -2.236147 -8.431827 0 
C -8.431827 2.236147 -7.543396 4.381008 -5.962202 5.962202 
C -4.381008 7.543396 -2.236147 8.431827 0 8.431827 
z
" style="stroke: #000000"/>
    </defs>
    <g clip-path="url(#p1610b5a99b)">
     <use xlink:href="#mfa73bffc4d" x="302.694728" y="101.926724" style="stroke: #000000"/>
    </g>
   </g>
   <g id="line2d_5">
    <defs>
     <path id="m6da6ce0d3b" d="M 0 8.134792 
C 2.157372 8.134792 4.226674 7.277659 5.752166 5.752166 
C 7.277659 4.226674 8.134792 2.157372 8.134792 0 
C 8.134792 -2.157372 7.277659 -4.226674 5.752166 -5.752166 
C 4.226674 -7.277659 2.157372 -8.134792 0 -8.134792 
C -2.157372 -8.134792 -4.226674 -7.277659 -5.752166 -5.752166 
C -7.277659 -4.226674 -8.134792 -2.157372 -8.134792 0 
C -8.134792 2.157372 -7.277659 4.226674 -5.752166 5.752166 
C -4.226674 7.277659 -2.157372 8.134792 0 8.134792 
z
" style="stroke: #000000"/>
    </defs>
    <g clip-path="url(#p1610b5a99b)">
     <use xlink:href="#m6da6ce0d3b" x="251.091027" y="55.8" style="stroke: #000000"/>
    </g>
   </g>
   <g id="line2d_6">
    <defs>
     <path id="mddf712d103" d="M 0 8.099654 
C 2.148053 8.099654 4.208417 7.246223 5.72732 5.72732 
C 7.246223 4.208417 8.099654 2.148053 8.099654 0 
C 8.099654 -2.148053 7.246223 -4.208417 5.72732 -5.72732 
C 4.208417 -7.246223 2.148053 -8.099654 0 -8.099654 
C -2.148053 -8.099654 -4.208417 -7.246223 -5.72732 -5.72732 
C -7.246223 -4.208417 -8.099654 -2.148053 -8.099654 0 
C -8.099654 2.148053 -7.246223 4.208417 -5.72732 5.72732 
C -4.208417 7.246223 -2.148053 8.099654 0 8.099654 
z
" style="stroke: #000000"/>
    </defs>
    <g clip-path="url(#p1610b5a99b)">
     <use xlink:href="#mddf712d103" x="422.110168" y="172.54987" style="stroke: #000000"/>
    </g>
   </g>
   <g id="line2d_7">
    <defs>
     <path id="m6fd546d5d8" d="M 0 8.07817 
C 2.142356 8.07817 4.197254 7.227003 5.712129 5.712129 
C 7.227003 4.197254 8.07817 2.142356 8.07817 0 
C 8.07817 -2.142356 7.227003 -4.197254 5.712129 -5.712129 
C 4.197254 -7.227003 2.142356 -8.07817 0 -8.07817 
C -2.142356 -8.07817 -4.197254 -7.227003 -5.712129 -5.712129 
C -7.227003 -4.197254 -8.07817 -2.142356 -8.07817 0 
C -8.07817 2.142356 -7.227003 4.197254 -5.712129 5.712129 
C -4.197254 7.227003 -2.142356 8.07817 0 8.07817 
z
" style="stroke: #000000"/>
    </defs>
    <g clip-path="url(#p1610b5a99b)">
     <use xlink:href="#m6fd546d5d8" x="329.641169" y="307.8" style="stroke: #000000"/>
    </g>
   </g>
   <g id="line2d_8">
    <defs>
     <path id="m05a16ba786" d="M 0 7.957087 
C 2.110244 7.957087 4.134342 7.118679 5.62651 5.62651 
C 7.118679 4.134342 7.957087 2.110244 7.957087 0 
C 7.957087 -2.110244 7.118679 -4.134342 5.62651 -5.62651 
C 4.134342 -7.118679 2.110244 -7.957087 0 -7.957087 
C -2.110244 -7.957087 -4.134342 -7.118679 -5.62651 -5.62651 
C -7.118679 -4.134342 -7.957087 -2.110244 -7.957087 0 
C -7.957087 2.110244 -7.118679 4.134342 -5.62651 5.62651 
C -4.134342 7.118679 -2.110244 7.957087 0 7.957087 
z
" style="stroke: #000000"/>
    </defs>
    <g clip-path="url(#p1610b5a99b)">
     <use xlink:href="#m05a16ba786" x="486.908973" y="193.756864" style="stroke: #000000"/>
    </g>
   </g>
   <g id="line2d_9">
    <defs>
     <path id="m5827a1ebd1" d="M 0 7.839699 
C 2.079112 7.839699 4.07335 7.013659 5.543504 5.543504 
C 7.013659 4.07335 7.839699 2.079112 7.839699 0 
C 7.839699 -2.079112 7.013659 -4.07335 5.543504 -5.543504 
C 4.07335 -7.013659 2.079112 -7.839699 0 -7.839699 
C -2.079112 -7.839699 -4.07335 -7.013659 -5.543504 -5.543504 
C -7.013659 -4.07335 -7.839699 -2.079112 -7.839699 0 
C -7.839699 2.079112 -7.013659 4.07335 -5.543504 5.543504 
C -4.07335 7.013659 -2.079112 7.839699 0 7.839699 
z
" style="stroke: #000000"/>
    </defs>
    <g clip-path="url(#p1610b5a99b)">
     <use xlink:href="#m5827a1ebd1" x="361.325355" y="148.659241" style="stroke: #000000"/>
    </g>
   </g>
   <g id="line2d_10">
    <defs>
     <path id="me1e3fb75d1" d="M 0 7.834041 
C 2.077612 7.834041 4.07041 7.008597 5.539503 5.539503 
C 7.008597 4.07041 7.834041 2.077612 7.834041 0 
C 7.834041 -2.077612 7.008597 -4.07041 5.539503 -5.539503 
C 4.07041 -7.008597 2.077612 -7.834041 0 -7.834041 
C -2.077612 -7.834041 -4.07041 -7.008597 -5.539503 -5.539503 
C -7.008597 -4.07041 -7.834041 -2.077612 -7.834041 0 
C -7.834041 2.077612 -7.008597 4.07041 -5.539503 5.539503 
C -4.07041 7.008597 -2.077612 7.834041 0 7.834041 
z
" style="stroke: #000000"/>
    </defs>
    <g clip-path="url(#p1610b5a99b)">
     <use xlink:href="#me1e3fb75d1" x="445.150774" y="235.849507" style="stroke: #000000"/>
    </g>
   </g>
  </g>
 </g>
 <defs>
  <clipPath id="p1610b5a99b">
   <path d="M 239.300129 320.4 
L 239.300129 43.2 
L 498.699871 43.2 
L 498.699871 320.4 
L 239.300129 320.4 
"/>
  </clipPath>
 </defs>
</svg>
