<?xml version="1.0" encoding="utf-8" standalone="no"?>
<!DOCTYPE svg PUBLIC "-//W3C//DTD SVG 1.1//EN"
  "http://www.w3.org/Graphics/SVG/1.1/DTD/svg11.dtd">
<svg xmlns:xlink="http://www.w3.org/1999/xlink" width="720pt" height="360pt" viewBox="0 0 720 360" xmlns="http://www.w3.org/2000/svg" version="1.1">
 <metadata>
  <rdf:RDF xmlns:dc="http://purl.org/dc/elements/1.1/" xmlns:cc="http://creativecommons.org/ns#" xmlns:rdf="http://www.w3.org/1999/02/22-rdf-syntax-ns#">
   <cc:Work>
    <dc:type rdf:resource="http://purl.org/dc/dcmitype/StillImage"/>
    <dc:date>2023-11-30T21:30:48.571713</dc:date>
    <dc:format>image/svg+xml</dc:format>
    <dc:creator>
     <cc:Agent>
      <dc:title>Matplotlib v3.8.1, https://matplotlib.org/</dc:title>
     </cc:Agent>
    </dc:creator>
   </cc:Work>
  </rdf:RDF>
 </metadata>
 <defs>
  <style type="text/css">*{stroke-linejoin: round; stroke-linecap: butt}</style>
 </defs>
 <g id="figure_1">
  <g id="patch_1">
   <path d="M 0 360 
L 720 360 
L 720 0 
L 0 0 
z
" style="fill: #ffffff"/>
  </g>
  <g id="axes_1">
   <g id="patch_2">
    <path d="M 90 183.555294 
L 90 180.044706 
L 648 180.044706 
L 648 183.555294 
L 90 183.555294 
" style="fill: #ffffff"/>
   </g>
   <g id="line2d_1">
    <defs>
     <path id="m86a1e6deb1" d="M 0 7.649461 
C 2.028661 7.649461 3.974506 6.843465 5.408986 5.408986 
C 6.843465 3.974506 7.649461 2.028661 7.649461 0 
C 7.649461 -2.028661 6.843465 -3.974506 5.408986 -5.408986 
C 3.974506 -6.843465 2.028661 -7.649461 0 -7.649461 
C -2.028661 -7.649461 -3.974506 -6.843465 -5.408986 -5.408986 
C -6.843465 -3.974506 -7.649461 -2.028661 -7.649461 0 
C -7.649461 2.028661 -6.843465 3.974506 -5.408986 5.408986 
C -3.974506 6.843465 -2.028661 7.649461 0 7.649461 
z
" style="stroke: #000000"/>
    </defs>
    <g clip-path="url(#pcfe7938ee4)">
     <use xlink:href="#m86a1e6deb1" x="636.930417" y="183.395721" style="stroke: #000000"/>
    </g>
   </g>
   <g id="line2d_2">
    <defs>
     <path id="m5ed5aaf237" d="M 0 6.805397 
C 1.804812 6.805397 3.535947 6.088338 4.812142 4.812142 
C 6.088338 3.535947 6.805397 1.804812 6.805397 0 
C 6.805397 -1.804812 6.088338 -3.535947 4.812142 -4.812142 
C 3.535947 -6.088338 1.804812 -6.805397 0 -6.805397 
C -1.804812 -6.805397 -3.535947 -6.088338 -4.812142 -4.812142 
C -6.088338 -3.535947 -6.805397 -1.804812 -6.805397 0 
C -6.805397 1.804812 -6.088338 3.535947 -4.812142 4.812142 
C -3.535947 6.088338 -1.804812 6.805397 0 6.805397 
z
" style="stroke: #000000"/>
    </defs>
    <g clip-path="url(#pcfe7938ee4)">
     <use xlink:href="#m5ed5aaf237" x="636.842293" y="183.348473" style="stroke: #000000"/>
    </g>
   </g>
   <g id="line2d_3">
    <defs>
     <path id="mc439602abb" d="M 0 6.295644 
C 1.669624 6.295644 3.27109 5.632295 4.451693 4.451693 
C 5.632295 3.27109 6.295644 1.669624 6.295644 0 
C 6.295644 -1.669624 5.632295 -3.27109 4.451693 -4.451693 
C 3.27109 -5.632295 1.669624 -6.295644 0 -6.295644 
C -1.669624 -6.295644 -3.27109 -5.632295 -4.451693 -4.451693 
C -5.632295 -3.27109 -6.295644 -1.669624 -6.295644 0 
C -6.295644 1.669624 -5.632295 3.27109 -4.451693 4.451693 
C -3.27109 5.632295 -1.669624 6.295644 0 6.295644 
z
" style="stroke: #000000"/>
    </defs>
    <g clip-path="url(#pcfe7938ee4)">
     <use xlink:href="#mc439602abb" x="637.162415" y="183.333862" style="stroke: #000000"/>
    </g>
   </g>
   <g id="line2d_4">
    <defs>
     <path id="m0766f22332" d="M 0 5.97199 
C 1.58379 5.97199 3.102926 5.342743 4.222835 4.222835 
C 5.342743 3.102926 5.97199 1.58379 5.97199 0 
C 5.97199 -1.58379 5.342743 -3.102926 4.222835 -4.222835 
C 3.102926 -5.342743 1.58379 -5.97199 0 -5.97199 
C -1.58379 -5.97199 -3.102926 -5.342743 -4.222835 -4.222835 
C -5.342743 -3.102926 -5.97199 -1.58379 -5.97199 0 
C -5.97199 1.58379 -5.342743 3.102926 -4.222835 4.222835 
C -3.102926 5.342743 -1.58379 5.97199 0 5.97199 
z
" style="stroke: #000000"/>
    </defs>
    <g clip-path="url(#pcfe7938ee4)">
     <use xlink:href="#m0766f22332" x="636.985047" y="183.387437" style="stroke: #000000"/>
    </g>
   </g>
   <g id="line2d_5">
    <defs>
     <path id="mf43c202187" d="M 0 5.717053 
C 1.51618 5.717053 2.970466 5.114669 4.042567 4.042567 
C 5.114669 2.970466 5.717053 1.51618 5.717053 0 
C 5.717053 -1.51618 5.114669 -2.970466 4.042567 -4.042567 
C 2.970466 -5.114669 1.51618 -5.717053 0 -5.717053 
C -1.51618 -5.717053 -2.970466 -5.114669 -4.042567 -4.042567 
C -5.114669 -2.970466 -5.717053 -1.51618 -5.717053 0 
C -5.717053 1.51618 -5.114669 2.970466 -4.042567 4.042567 
C -2.970466 5.114669 -1.51618 5.717053 0 5.717053 
z
" style="stroke: #000000"/>
    </defs>
    <g clip-path="url(#pcfe7938ee4)">
     <use xlink:href="#mf43c202187" x="636.927674" y="183.393466" style="stroke: #000000"/>
    </g>
   </g>
   <g id="line2d_6">
    <defs>
     <path id="m72a68c5618" d="M 0 5.583709 
C 1.480817 5.583709 2.901183 4.995374 3.948279 3.948279 
C 4.995374 2.901183 5.583709 1.480817 5.583709 0 
C 5.583709 -1.480817 4.995374 -2.901183 3.948279 -3.948279 
C 2.901183 -4.995374 1.480817 -5.583709 0 -5.583709 
C -1.480817 -5.583709 -2.901183 -4.995374 -3.948279 -3.948279 
C -4.995374 -2.901183 -5.583709 -1.480817 -5.583709 0 
C -5.583709 1.480817 -4.995374 2.901183 -3.948279 3.948279 
C -2.901183 4.995374 -1.480817 5.583709 0 5.583709 
z
" style="stroke: #000000"/>
    </defs>
    <g clip-path="url(#pcfe7938ee4)">
     <use xlink:href="#m72a68c5618" x="637.094608" y="183.342882" style="stroke: #000000"/>
    </g>
   </g>
   <g id="line2d_7">
    <defs>
     <path id="m9cecec7362" d="M 0 5.524924 
C 1.465227 5.524924 2.870639 4.942783 3.906711 3.906711 
C 4.942783 2.870639 5.524924 1.465227 5.524924 0 
C 5.524924 -1.465227 4.942783 -2.870639 3.906711 -3.906711 
C 2.870639 -4.942783 1.465227 -5.524924 0 -5.524924 
C -1.465227 -5.524924 -2.870639 -4.942783 -3.906711 -3.906711 
C -4.942783 -2.870639 -5.524924 -1.465227 -5.524924 0 
C -5.524924 1.465227 -4.942783 2.870639 -3.906711 3.906711 
C -2.870639 4.942783 -1.465227 5.524924 0 5.524924 
z
" style="stroke: #000000"/>
    </defs>
    <g clip-path="url(#pcfe7938ee4)">
     <use xlink:href="#m9cecec7362" x="637.185616" y="183.312704" style="stroke: #000000"/>
    </g>
   </g>
   <g id="line2d_8">
    <defs>
     <path id="m315aca2c27" d="M 0 5.487207 
C 1.455224 5.487207 2.851042 4.909041 3.880041 3.880041 
C 4.909041 2.851042 5.487207 1.455224 5.487207 0 
C 5.487207 -1.455224 4.909041 -2.851042 3.880041 -3.880041 
C 2.851042 -4.909041 1.455224 -5.487207 0 -5.487207 
C -1.455224 -5.487207 -2.851042 -4.909041 -3.880041 -3.880041 
C -4.909041 -2.851042 -5.487207 -1.455224 -5.487207 0 
C -5.487207 1.455224 -4.909041 2.851042 -3.880041 3.880041 
C -2.851042 4.909041 -1.455224 5.487207 0 5.487207 
z
" style="stroke: #000000"/>
    </defs>
    <g clip-path="url(#pcfe7938ee4)">
     <use xlink:href="#m315aca2c27" x="637.222483" y="183.340721" style="stroke: #000000"/>
    </g>
   </g>
   <g id="line2d_9">
    <defs>
     <path id="ma580c64e87" d="M 0 5.439025 
C 1.442446 5.439025 2.826008 4.865935 3.845972 3.845972 
C 4.865935 2.826008 5.439025 1.442446 5.439025 0 
C 5.439025 -1.442446 4.865935 -2.826008 3.845972 -3.845972 
C 2.826008 -4.865935 1.442446 -5.439025 0 -5.439025 
C -1.442446 -5.439025 -2.826008 -4.865935 -3.845972 -3.845972 
C -4.865935 -2.826008 -5.439025 -1.442446 -5.439025 0 
C -5.439025 1.442446 -4.865935 2.826008 -3.845972 3.845972 
C -2.826008 4.865935 -1.442446 5.439025 0 5.439025 
z
" style="stroke: #000000"/>
    </defs>
    <g clip-path="url(#pcfe7938ee4)">
     <use xlink:href="#ma580c64e87" x="116.058213" y="182.31711" style="stroke: #000000"/>
    </g>
   </g>
   <g id="line2d_10">
    <defs>
     <path id="m1b97fd289c" d="M 0 5.420782 
C 1.437608 5.420782 2.816529 4.849614 3.833072 3.833072 
C 4.849614 2.816529 5.420782 1.437608 5.420782 0 
C 5.420782 -1.437608 4.849614 -2.816529 3.833072 -3.833072 
C 2.816529 -4.849614 1.437608 -5.420782 0 -5.420782 
C -1.437608 -5.420782 -2.816529 -4.849614 -3.833072 -3.833072 
C -4.849614 -2.816529 -5.420782 -1.437608 -5.420782 0 
C -5.420782 1.437608 -4.849614 2.816529 -3.833072 3.833072 
C -2.816529 4.849614 -1.437608 5.420782 0 5.420782 
z
" style="stroke: #000000"/>
    </defs>
    <g clip-path="url(#pcfe7938ee4)">
     <use xlink:href="#m1b97fd289c" x="636.940757" y="180.204279" style="stroke: #000000"/>
    </g>
   </g>
  </g>
 </g>
 <defs>
  <clipPath id="pcfe7938ee4">
   <path d="M 90 183.555294 
L 90 180.044706 
L 648 180.044706 
L 648 183.555294 
L 90 183.555294 
"/>
  </clipPath>
 </defs>
</svg>
