<?xml version="1.0" encoding="utf-8" standalone="no"?>
<!DOCTYPE svg PUBLIC "-//W3C//DTD SVG 1.1//EN"
  "http://www.w3.org/Graphics/SVG/1.1/DTD/svg11.dtd">
<svg xmlns:xlink="http://www.w3.org/1999/xlink" width="720pt" height="360pt" viewBox="0 0 720 360" xmlns="http://www.w3.org/2000/svg" version="1.1">
 <metadata>
  <rdf:RDF xmlns:dc="http://purl.org/dc/elements/1.1/" xmlns:cc="http://creativecommons.org/ns#" xmlns:rdf="http://www.w3.org/1999/02/22-rdf-syntax-ns#">
   <cc:Work>
    <dc:type rdf:resource="http://purl.org/dc/dcmitype/StillImage"/>
    <dc:date>2023-11-30T21:30:48.616096</dc:date>
    <dc:format>image/svg+xml</dc:format>
    <dc:creator>
     <cc:Agent>
      <dc:title>Matplotlib v3.8.1, https://matplotlib.org/</dc:title>
     </cc:Agent>
    </dc:creator>
   </cc:Work>
  </rdf:RDF>
 </metadata>
 <defs>
  <style type="text/css">*{stroke-linejoin: round; stroke-linecap: butt}</style>
 </defs>
 <g id="figure_1">
  <g id="patch_1">
   <path d="M 0 360 
L 720 360 
L 720 0 
L 0 0 
z
" style="fill: #ffffff"/>
  </g>
  <g id="axes_1">
   <g id="patch_2">
    <path d="M 90 313.080191 
L 90 50.519809 
L 648 50.519809 
L 648 313.080191 
L 90 313.080191 
" style="fill: #ffffff"/>
   </g>
   <g id="line2d_1">
    <defs>
     <path id="mfc0fbeabf5" d="M 0 7.693891 
C 2.040444 7.693891 3.997591 6.883214 5.440402 5.440402 
C 6.883214 3.997591 7.693891 2.040444 7.693891 0 
C 7.693891 -2.040444 6.883214 -3.997591 5.440402 -5.440402 
C 3.997591 -6.883214 2.040444 -7.693891 0 -7.693891 
C -2.040444 -7.693891 -3.997591 -6.883214 -5.440402 -5.440402 
C -6.883214 -3.997591 -7.693891 -2.040444 -7.693891 0 
C -7.693891 2.040444 -6.883214 3.997591 -5.440402 5.440402 
C -3.997591 6.883214 -2.040444 7.693891 0 7.693891 
z
" style="stroke: #000000"/>
    </defs>
    <g clip-path="url(#pf1bab9eb84)">
     <use xlink:href="#mfc0fbeabf5" x="115.363636" y="62.454372" style="stroke: #000000"/>
    </g>
   </g>
   <g id="line2d_2">
    <defs>
     <path id="mce424dfd37" d="M 0 7.263097 
C 1.926196 7.263097 3.773759 6.497811 5.135785 5.135785 
C 6.497811 3.773759 7.263097 1.926196 7.263097 0 
C 7.263097 -1.926196 6.497811 -3.773759 5.135785 -5.135785 
C 3.773759 -6.497811 1.926196 -7.263097 0 -7.263097 
C -1.926196 -7.263097 -3.773759 -6.497811 -5.135785 -5.135785 
C -6.497811 -3.773759 -7.263097 -1.926196 -7.263097 0 
C -7.263097 1.926196 -6.497811 3.773759 -5.135785 5.135785 
C -3.773759 6.497811 -1.926196 7.263097 0 7.263097 
z
" style="stroke: #000000"/>
    </defs>
    <g clip-path="url(#pf1bab9eb84)">
     <use xlink:href="#mce424dfd37" x="570.878552" y="250.244596" style="stroke: #000000"/>
    </g>
   </g>
   <g id="line2d_3">
    <defs>
     <path id="md367ff1b5b" d="M 0 6.934749 
C 1.839117 6.934749 3.603156 6.20406 4.903608 4.903608 
C 6.20406 3.603156 6.934749 1.839117 6.934749 0 
C 6.934749 -1.839117 6.20406 -3.603156 4.903608 -4.903608 
C 3.603156 -6.20406 1.839117 -6.934749 0 -6.934749 
C -1.839117 -6.934749 -3.603156 -6.20406 -4.903608 -4.903608 
C -6.20406 -3.603156 -6.934749 -1.839117 -6.934749 0 
C -6.934749 1.839117 -6.20406 3.603156 -4.903608 4.903608 
C -3.603156 6.20406 -1.839117 6.934749 0 6.934749 
z
" style="stroke: #000000"/>
    </defs>
    <g clip-path="url(#pf1bab9eb84)">
     <use xlink:href="#md367ff1b5b" x="309.76093" y="299.158174" style="stroke: #000000"/>
    </g>
   </g>
   <g id="line2d_4">
    <defs>
     <path id="maae3bbb588" d="M 0 6.91238 
C 1.833185 6.91238 3.591533 6.184048 4.887791 4.887791 
C 6.184048 3.591533 6.91238 1.833185 6.91238 0 
C 6.91238 -1.833185 6.184048 -3.591533 4.887791 -4.887791 
C 3.591533 -6.184048 1.833185 -6.91238 0 -6.91238 
C -1.833185 -6.91238 -3.591533 -6.184048 -4.887791 -4.887791 
C -6.184048 -3.591533 -6.91238 -1.833185 -6.91238 0 
C -6.91238 1.833185 -6.184048 3.591533 -4.887791 4.887791 
C -3.591533 6.184048 -1.833185 6.91238 0 6.91238 
z
" style="stroke: #000000"/>
    </defs>
    <g clip-path="url(#pf1bab9eb84)">
     <use xlink:href="#maae3bbb588" x="622.636364" y="288.262247" style="stroke: #000000"/>
    </g>
   </g>
   <g id="line2d_5">
    <defs>
     <path id="mb2910de1c6" d="M 0 6.80326 
C 1.804246 6.80326 3.534837 6.086426 4.810632 4.810632 
C 6.086426 3.534837 6.80326 1.804246 6.80326 0 
C 6.80326 -1.804246 6.086426 -3.534837 4.810632 -4.810632 
C 3.534837 -6.086426 1.804246 -6.80326 0 -6.80326 
C -1.804246 -6.80326 -3.534837 -6.086426 -4.810632 -4.810632 
C -6.086426 -3.534837 -6.80326 -1.804246 -6.80326 0 
C -6.80326 1.804246 -6.086426 3.534837 -4.810632 4.810632 
C -3.534837 6.086426 -1.804246 6.80326 0 6.80326 
z
" style="stroke: #000000"/>
    </defs>
    <g clip-path="url(#pf1bab9eb84)">
     <use xlink:href="#mb2910de1c6" x="596.86294" y="266.069124" style="stroke: #000000"/>
    </g>
   </g>
   <g id="line2d_6">
    <defs>
     <path id="md6d88d3bc7" d="M 0 6.703302 
C 1.777736 6.703302 3.482901 5.997 4.73995 4.73995 
C 5.997 3.482901 6.703302 1.777736 6.703302 0 
C 6.703302 -1.777736 5.997 -3.482901 4.73995 -4.73995 
C 3.482901 -5.997 1.777736 -6.703302 0 -6.703302 
C -1.777736 -6.703302 -3.482901 -5.997 -4.73995 -4.73995 
C -5.997 -3.482901 -6.703302 -1.777736 -6.703302 0 
C -6.703302 1.777736 -5.997 3.482901 -4.73995 4.73995 
C -3.482901 5.997 -1.777736 6.703302 0 6.703302 
z
" style="stroke: #000000"/>
    </defs>
    <g clip-path="url(#pf1bab9eb84)">
     <use xlink:href="#md6d88d3bc7" x="609.799407" y="301.145628" style="stroke: #000000"/>
    </g>
   </g>
   <g id="line2d_7">
    <defs>
     <path id="m15681954de" d="M 0 6.670412 
C 1.769014 6.670412 3.465812 5.967575 4.716693 4.716693 
C 5.967575 3.465812 6.670412 1.769014 6.670412 0 
C 6.670412 -1.769014 5.967575 -3.465812 4.716693 -4.716693 
C 3.465812 -5.967575 1.769014 -6.670412 0 -6.670412 
C -1.769014 -6.670412 -3.465812 -5.967575 -4.716693 -4.716693 
C -5.967575 -3.465812 -6.670412 -1.769014 -6.670412 0 
C -6.670412 1.769014 -5.967575 3.465812 -4.716693 4.716693 
C -3.465812 5.967575 -1.769014 6.670412 0 6.670412 
z
" style="stroke: #000000"/>
    </defs>
    <g clip-path="url(#pf1bab9eb84)">
     <use xlink:href="#m15681954de" x="522.010548" y="261.91349" style="stroke: #000000"/>
    </g>
   </g>
   <g id="line2d_8">
    <defs>
     <path id="m2a9116c7c0" d="M 0 6.656725 
C 1.765384 6.656725 3.4587 5.95533 4.707015 4.707015 
C 5.95533 3.4587 6.656725 1.765384 6.656725 0 
C 6.656725 -1.765384 5.95533 -3.4587 4.707015 -4.707015 
C 3.4587 -5.95533 1.765384 -6.656725 0 -6.656725 
C -1.765384 -6.656725 -3.4587 -5.95533 -4.707015 -4.707015 
C -5.95533 -3.4587 -6.656725 -1.765384 -6.656725 0 
C -6.656725 1.765384 -5.95533 3.4587 -4.707015 4.707015 
C -3.4587 5.95533 -1.765384 6.656725 0 6.656725 
z
" style="stroke: #000000"/>
    </defs>
    <g clip-path="url(#pf1bab9eb84)">
     <use xlink:href="#m2a9116c7c0" x="581.024723" y="237.630363" style="stroke: #000000"/>
    </g>
   </g>
   <g id="line2d_9">
    <defs>
     <path id="mfad3fdf33b" d="M 0 6.655945 
C 1.765177 6.655945 3.458295 5.954633 4.706464 4.706464 
C 5.954633 3.458295 6.655945 1.765177 6.655945 0 
C 6.655945 -1.765177 5.954633 -3.458295 4.706464 -4.706464 
C 3.458295 -5.954633 1.765177 -6.655945 0 -6.655945 
C -1.765177 -6.655945 -3.458295 -5.954633 -4.706464 -4.706464 
C -5.954633 -3.458295 -6.655945 -1.765177 -6.655945 0 
C -6.655945 1.765177 -5.954633 3.458295 -4.706464 4.706464 
C -3.458295 5.954633 -1.765177 6.655945 0 6.655945 
z
" style="stroke: #000000"/>
    </defs>
    <g clip-path="url(#pf1bab9eb84)">
     <use xlink:href="#mfad3fdf33b" x="575.026183" y="247.687645" style="stroke: #000000"/>
    </g>
   </g>
   <g id="line2d_10">
    <defs>
     <path id="mec3cb1f9d2" d="M 0 6.492743 
C 1.721896 6.492743 3.373499 5.808627 4.591063 4.591063 
C 5.808627 3.373499 6.492743 1.721896 6.492743 0 
C 6.492743 -1.721896 5.808627 -3.373499 4.591063 -4.591063 
C 3.373499 -5.808627 1.721896 -6.492743 0 -6.492743 
C -1.721896 -6.492743 -3.373499 -5.808627 -4.591063 -4.591063 
C -5.808627 -3.373499 -6.492743 -1.721896 -6.492743 0 
C -6.492743 1.721896 -5.808627 3.373499 -4.591063 4.591063 
C -3.373499 5.808627 -1.721896 6.492743 0 6.492743 
z
" style="stroke: #000000"/>
    </defs>
    <g clip-path="url(#pf1bab9eb84)">
     <use xlink:href="#mec3cb1f9d2" x="603.609805" y="275.736561" style="stroke: #000000"/>
    </g>
   </g>
  </g>
 </g>
 <defs>
  <clipPath id="pf1bab9eb84">
   <path d="M 90 313.080191 
L 90 50.519809 
L 648 50.519809 
L 648 313.080191 
L 90 313.080191 
"/>
  </clipPath>
 </defs>
</svg>
