<?xml version="1.0" encoding="utf-8" standalone="no"?>
<!DOCTYPE svg PUBLIC "-//W3C//DTD SVG 1.1//EN"
  "http://www.w3.org/Graphics/SVG/1.1/DTD/svg11.dtd">
<svg xmlns:xlink="http://www.w3.org/1999/xlink" width="720pt" height="360pt" viewBox="0 0 720 360" xmlns="http://www.w3.org/2000/svg" version="1.1">
 <metadata>
  <rdf:RDF xmlns:dc="http://purl.org/dc/elements/1.1/" xmlns:cc="http://creativecommons.org/ns#" xmlns:rdf="http://www.w3.org/1999/02/22-rdf-syntax-ns#">
   <cc:Work>
    <dc:type rdf:resource="http://purl.org/dc/dcmitype/StillImage"/>
    <dc:date>2023-11-30T21:30:48.657128</dc:date>
    <dc:format>image/svg+xml</dc:format>
    <dc:creator>
     <cc:Agent>
      <dc:title>Matplotlib v3.8.1, https://matplotlib.org/</dc:title>
     </cc:Agent>
    </dc:creator>
   </cc:Work>
  </rdf:RDF>
 </metadata>
 <defs>
  <style type="text/css">*{stroke-linejoin: round; stroke-linecap: butt}</style>
 </defs>
 <g id="figure_1">
  <g id="patch_1">
   <path d="M 0 360 
L 720 360 
L 720 0 
L 0 0 
z
" style="fill: #ffffff"/>
  </g>
  <g id="axes_1">
   <g id="patch_2">
    <path d="M 237.693345 320.4 
L 237.693345 43.2 
L 500.306655 43.2 
L 500.306655 320.4 
L 237.693345 320.4 
" style="fill: #ffffff"/>
   </g>
   <g id="line2d_1">
    <defs>
     <path id="m0037231c50" d="M 0 6.828715 
C 1.810996 6.828715 3.548063 6.109199 4.828631 4.828631 
C 6.109199 3.548063 6.828715 1.810996 6.828715 0 
C 6.828715 -1.810996 6.109199 -3.548063 4.828631 -4.828631 
C 3.548063 -6.109199 1.810996 -6.828715 0 -6.828715 
C -1.810996 -6.828715 -3.548063 -6.109199 -4.828631 -4.828631 
C -6.109199 -3.548063 -6.828715 -1.810996 -6.828715 0 
C -6.828715 1.810996 -6.109199 3.548063 -4.828631 4.828631 
C -3.548063 6.109199 -1.810996 6.828715 0 6.828715 
z
" style="stroke: #000000"/>
    </defs>
    <g clip-path="url(#p6a5c5c0fbc)">
     <use xlink:href="#m0037231c50" x="356.570254" y="155.405301" style="stroke: #000000"/>
    </g>
   </g>
   <g id="line2d_2">
    <defs>
     <path id="m35d622a57a" d="M 0 5.756617 
C 1.526673 5.756617 2.991022 5.150064 4.070543 4.070543 
C 5.150064 2.991022 5.756617 1.526673 5.756617 0 
C 5.756617 -1.526673 5.150064 -2.991022 4.070543 -4.070543 
C 2.991022 -5.150064 1.526673 -5.756617 0 -5.756617 
C -1.526673 -5.756617 -2.991022 -5.150064 -4.070543 -4.070543 
C -5.150064 -2.991022 -5.756617 -1.526673 -5.756617 0 
C -5.756617 1.526673 -5.150064 2.991022 -4.070543 4.070543 
C -2.991022 5.150064 -1.526673 5.756617 0 5.756617 
z
" style="stroke: #000000"/>
    </defs>
    <g clip-path="url(#p6a5c5c0fbc)">
     <use xlink:href="#m35d622a57a" x="462.428596" y="307.8" style="stroke: #000000"/>
    </g>
   </g>
   <g id="line2d_3">
    <defs>
     <path id="ma1230e21b5" d="M 0 5.663496 
C 1.501977 5.663496 2.942638 5.066754 4.004696 4.004696 
C 5.066754 2.942638 5.663496 1.501977 5.663496 0 
C 5.663496 -1.501977 5.066754 -2.942638 4.004696 -4.004696 
C 2.942638 -5.066754 1.501977 -5.663496 0 -5.663496 
C -1.501977 -5.663496 -2.942638 -5.066754 -4.004696 -4.004696 
C -5.066754 -2.942638 -5.663496 -1.501977 -5.663496 0 
C -5.663496 1.501977 -5.066754 2.942638 -4.004696 4.004696 
C -2.942638 5.066754 -1.501977 5.663496 0 5.663496 
z
" style="stroke: #000000"/>
    </defs>
    <g clip-path="url(#p6a5c5c0fbc)">
     <use xlink:href="#ma1230e21b5" x="488.369687" y="302.445572" style="stroke: #000000"/>
    </g>
   </g>
   <g id="line2d_4">
    <defs>
     <path id="m2db66399a2" d="M 0 5.632514 
C 1.49376 5.632514 2.926541 5.039037 3.982789 3.982789 
C 5.039037 2.926541 5.632514 1.49376 5.632514 0 
C 5.632514 -1.49376 5.039037 -2.926541 3.982789 -3.982789 
C 2.926541 -5.039037 1.49376 -5.632514 0 -5.632514 
C -1.49376 -5.632514 -2.926541 -5.039037 -3.982789 -3.982789 
C -5.039037 -2.926541 -5.632514 -1.49376 -5.632514 0 
C -5.632514 1.49376 -5.039037 2.926541 -3.982789 3.982789 
C -2.926541 5.039037 -1.49376 5.632514 0 5.632514 
z
" style="stroke: #000000"/>
    </defs>
    <g clip-path="url(#p6a5c5c0fbc)">
     <use xlink:href="#m2db66399a2" x="260.844341" y="55.8" style="stroke: #000000"/>
    </g>
   </g>
   <g id="line2d_5">
    <defs>
     <path id="ma0473826e8" d="M 0 5.593985 
C 1.483542 5.593985 2.906522 5.004568 3.955545 3.955545 
C 5.004568 2.906522 5.593985 1.483542 5.593985 0 
C 5.593985 -1.483542 5.004568 -2.906522 3.955545 -3.955545 
C 2.906522 -5.004568 1.483542 -5.593985 0 -5.593985 
C -1.483542 -5.593985 -2.906522 -5.004568 -3.955545 -3.955545 
C -5.004568 -2.906522 -5.593985 -1.483542 -5.593985 0 
C -5.593985 1.483542 -5.004568 2.906522 -3.955545 3.955545 
C -2.906522 5.004568 -1.483542 5.593985 0 5.593985 
z
" style="stroke: #000000"/>
    </defs>
    <g clip-path="url(#p6a5c5c0fbc)">
     <use xlink:href="#ma0473826e8" x="282.536907" y="128.021025" style="stroke: #000000"/>
    </g>
   </g>
   <g id="line2d_6">
    <defs>
     <path id="m6ecf70eed2" d="M 0 5.504214 
C 1.459735 5.504214 2.859879 4.924256 3.892067 3.892067 
C 4.924256 2.859879 5.504214 1.459735 5.504214 0 
C 5.504214 -1.459735 4.924256 -2.859879 3.892067 -3.892067 
C 2.859879 -4.924256 1.459735 -5.504214 0 -5.504214 
C -1.459735 -5.504214 -2.859879 -4.924256 -3.892067 -3.892067 
C -4.924256 -2.859879 -5.504214 -1.459735 -5.504214 0 
C -5.504214 1.459735 -4.924256 2.859879 -3.892067 3.892067 
C -2.859879 4.924256 -1.459735 5.504214 0 5.504214 
z
" style="stroke: #000000"/>
    </defs>
    <g clip-path="url(#p6a5c5c0fbc)">
     <use xlink:href="#m6ecf70eed2" x="332.178014" y="79.672971" style="stroke: #000000"/>
    </g>
   </g>
   <g id="line2d_7">
    <defs>
     <path id="m3e9a29cd65" d="M 0 5.362683 
C 1.4222 5.362683 2.786342 4.797637 3.79199 3.79199 
C 4.797637 2.786342 5.362683 1.4222 5.362683 0 
C 5.362683 -1.4222 4.797637 -2.786342 3.79199 -3.79199 
C 2.786342 -4.797637 1.4222 -5.362683 0 -5.362683 
C -1.4222 -5.362683 -2.786342 -4.797637 -3.79199 -3.79199 
C -4.797637 -2.786342 -5.362683 -1.4222 -5.362683 0 
C -5.362683 1.4222 -4.797637 2.786342 -3.79199 3.79199 
C -2.786342 4.797637 -1.4222 5.362683 0 5.362683 
z
" style="stroke: #000000"/>
    </defs>
    <g clip-path="url(#p6a5c5c0fbc)">
     <use xlink:href="#m3e9a29cd65" x="312.570772" y="151.01872" style="stroke: #000000"/>
    </g>
   </g>
   <g id="line2d_8">
    <defs>
     <path id="m041a0a75ee" d="M 0 5.293889 
C 1.403956 5.293889 2.750598 4.736091 3.743345 3.743345 
C 4.736091 2.750598 5.293889 1.403956 5.293889 0 
C 5.293889 -1.403956 4.736091 -2.750598 3.743345 -3.743345 
C 2.750598 -4.736091 1.403956 -5.293889 0 -5.293889 
C -1.403956 -5.293889 -2.750598 -4.736091 -3.743345 -3.743345 
C -4.736091 -2.750598 -5.293889 -1.403956 -5.293889 0 
C -5.293889 1.403956 -4.736091 2.750598 -3.743345 3.743345 
C -2.750598 4.736091 -1.403956 5.293889 0 5.293889 
z
" style="stroke: #000000"/>
    </defs>
    <g clip-path="url(#p6a5c5c0fbc)">
     <use xlink:href="#m041a0a75ee" x="450.297372" y="301.410663" style="stroke: #000000"/>
    </g>
   </g>
   <g id="line2d_9">
    <defs>
     <path id="m038fcfc439" d="M 0 4.811941 
C 1.276142 4.811941 2.500188 4.304924 3.402556 3.402556 
C 4.304924 2.500188 4.811941 1.276142 4.811941 0 
C 4.811941 -1.276142 4.304924 -2.500188 3.402556 -3.402556 
C 2.500188 -4.304924 1.276142 -4.811941 0 -4.811941 
C -1.276142 -4.811941 -2.500188 -4.304924 -3.402556 -3.402556 
C -4.304924 -2.500188 -4.811941 -1.276142 -4.811941 0 
C -4.811941 1.276142 -4.304924 2.500188 -3.402556 3.402556 
C -2.500188 4.304924 -1.276142 4.811941 0 4.811941 
z
" style="stroke: #000000"/>
    </defs>
    <g clip-path="url(#p6a5c5c0fbc)">
     <use xlink:href="#m038fcfc439" x="349.35382" y="106.30852" style="stroke: #000000"/>
    </g>
   </g>
   <g id="line2d_10">
    <defs>
     <path id="m0c4223a170" d="M 0 4.804589 
C 1.274192 4.804589 2.496368 4.298348 3.397358 3.397358 
C 4.298348 2.496368 4.804589 1.274192 4.804589 0 
C 4.804589 -1.274192 4.298348 -2.496368 3.397358 -3.397358 
C 2.496368 -4.298348 1.274192 -4.804589 0 -4.804589 
C -1.274192 -4.804589 -2.496368 -4.298348 -3.397358 -3.397358 
C -4.298348 -2.496368 -4.804589 -1.274192 -4.804589 0 
C -4.804589 1.274192 -4.298348 2.496368 -3.397358 3.397358 
C -2.496368 4.298348 -1.274192 4.804589 0 4.804589 
z
" style="stroke: #000000"/>
    </defs>
    <g clip-path="url(#p6a5c5c0fbc)">
     <use xlink:href="#m0c4223a170" x="249.630313" y="98.127291" style="stroke: #000000"/>
    </g>
   </g>
  </g>
 </g>
 <defs>
  <clipPath id="p6a5c5c0fbc">
   <path d="M 237.693345 320.4 
L 237.693345 43.2 
L 500.306655 43.2 
L 500.306655 320.4 
L 237.693345 320.4 
"/>
  </clipPath>
 </defs>
</svg>
