<?xml version="1.0" encoding="utf-8" standalone="no"?>
<!DOCTYPE svg PUBLIC "-//W3C//DTD SVG 1.1//EN"
  "http://www.w3.org/Graphics/SVG/1.1/DTD/svg11.dtd">
<svg xmlns:xlink="http://www.w3.org/1999/xlink" width="720pt" height="360pt" viewBox="0 0 720 360" xmlns="http://www.w3.org/2000/svg" version="1.1">
 <metadata>
  <rdf:RDF xmlns:dc="http://purl.org/dc/elements/1.1/" xmlns:cc="http://creativecommons.org/ns#" xmlns:rdf="http://www.w3.org/1999/02/22-rdf-syntax-ns#">
   <cc:Work>
    <dc:type rdf:resource="http://purl.org/dc/dcmitype/StillImage"/>
    <dc:date>2023-11-30T21:30:48.698406</dc:date>
    <dc:format>image/svg+xml</dc:format>
    <dc:creator>
     <cc:Agent>
      <dc:title>Matplotlib v3.8.1, https://matplotlib.org/</dc:title>
     </cc:Agent>
    </dc:creator>
   </cc:Work>
  </rdf:RDF>
 </metadata>
 <defs>
  <style type="text/css">*{stroke-linejoin: round; stroke-linecap: butt}</style>
 </defs>
 <g id="figure_1">
  <g id="patch_1">
   <path d="M 0 360 
L 720 360 
L 720 0 
L 0 0 
z
" style="fill: #ffffff"/>
  </g>
  <g id="axes_1">
   <g id="patch_2">
    <path d="M 218.932859 320.4 
L 218.932859 43.2 
L 519.067141 43.2 
L 519.067141 320.4 
L 218.932859 320.4 
" style="fill: #ffffff"/>
   </g>
   <g id="line2d_1">
    <defs>
     <path id="mabde2c5876" d="M 0 10.809763 
C 2.866783 10.809763 5.616535 9.670778 7.643657 7.643657 
C 9.670778 5.616535 10.809763 2.866783 10.809763 0 
C 10.809763 -2.866783 9.670778 -5.616535 7.643657 -7.643657 
C 5.616535 -9.670778 2.866783 -10.809763 0 -10.809763 
C -2.866783 -10.809763 -5.616535 -9.670778 -7.643657 -7.643657 
C -9.670778 -5.616535 -10.809763 -2.866783 -10.809763 0 
C -10.809763 2.866783 -9.670778 5.616535 -7.643657 7.643657 
C -5.616535 9.670778 -2.866783 10.809763 0 10.809763 
z
" style="stroke: #000000"/>
    </defs>
    <g clip-path="url(#pdf3d05cc20)">
     <use xlink:href="#mabde2c5876" x="301.387242" y="239.163172" style="stroke: #000000"/>
    </g>
   </g>
   <g id="line2d_2">
    <defs>
     <path id="md933cc997a" d="M 0 9.546318 
C 2.531713 9.546318 4.960075 8.540458 6.750266 6.750266 
C 8.540458 4.960075 9.546318 2.531713 9.546318 0 
C 9.546318 -2.531713 8.540458 -4.960075 6.750266 -6.750266 
C 4.960075 -8.540458 2.531713 -9.546318 0 -9.546318 
C -2.531713 -9.546318 -4.960075 -8.540458 -6.750266 -6.750266 
C -8.540458 -4.960075 -9.546318 -2.531713 -9.546318 0 
C -9.546318 2.531713 -8.540458 4.960075 -6.750266 6.750266 
C -4.960075 8.540458 -2.531713 9.546318 0 9.546318 
z
" style="stroke: #000000"/>
    </defs>
    <g clip-path="url(#pdf3d05cc20)">
     <use xlink:href="#md933cc997a" x="391.803276" y="181.25723" style="stroke: #000000"/>
    </g>
   </g>
   <g id="line2d_3">
    <defs>
     <path id="mdd0755f740" d="M 0 9.397755 
C 2.492314 9.397755 4.882884 8.407548 6.645216 6.645216 
C 8.407548 4.882884 9.397755 2.492314 9.397755 0 
C 9.397755 -2.492314 8.407548 -4.882884 6.645216 -6.645216 
C 4.882884 -8.407548 2.492314 -9.397755 0 -9.397755 
C -2.492314 -9.397755 -4.882884 -8.407548 -6.645216 -6.645216 
C -8.407548 -4.882884 -9.397755 -2.492314 -9.397755 0 
C -9.397755 2.492314 -8.407548 4.882884 -6.645216 6.645216 
C -4.882884 8.407548 -2.492314 9.397755 0 9.397755 
z
" style="stroke: #000000"/>
    </defs>
    <g clip-path="url(#pdf3d05cc20)">
     <use xlink:href="#mdd0755f740" x="283.805008" y="258.400911" style="stroke: #000000"/>
    </g>
   </g>
   <g id="line2d_4">
    <defs>
     <path id="m8e14d3d30f" d="M 0 9.368639 
C 2.484592 9.368639 4.867756 8.3815 6.624628 6.624628 
C 8.3815 4.867756 9.368639 2.484592 9.368639 0 
C 9.368639 -2.484592 8.3815 -4.867756 6.624628 -6.624628 
C 4.867756 -8.3815 2.484592 -9.368639 0 -9.368639 
C -2.484592 -9.368639 -4.867756 -8.3815 -6.624628 -6.624628 
C -8.3815 -4.867756 -9.368639 -2.484592 -9.368639 0 
C -9.368639 2.484592 -8.3815 4.867756 -6.624628 6.624628 
C -4.867756 8.3815 -2.484592 9.368639 0 9.368639 
z
" style="stroke: #000000"/>
    </defs>
    <g clip-path="url(#pdf3d05cc20)">
     <use xlink:href="#m8e14d3d30f" x="310.441682" y="213.210096" style="stroke: #000000"/>
    </g>
   </g>
   <g id="line2d_5">
    <defs>
     <path id="m22d7a5cf53" d="M 0 9.200379 
C 2.439969 9.200379 4.780332 8.230969 6.505651 6.505651 
C 8.230969 4.780332 9.200379 2.439969 9.200379 0 
C 9.200379 -2.439969 8.230969 -4.780332 6.505651 -6.505651 
C 4.780332 -8.230969 2.439969 -9.200379 0 -9.200379 
C -2.439969 -9.200379 -4.780332 -8.230969 -6.505651 -6.505651 
C -8.230969 -4.780332 -9.200379 -2.439969 -9.200379 0 
C -9.200379 2.439969 -8.230969 4.780332 -6.505651 6.505651 
C -4.780332 8.230969 -2.439969 9.200379 0 9.200379 
z
" style="stroke: #000000"/>
    </defs>
    <g clip-path="url(#pdf3d05cc20)">
     <use xlink:href="#m22d7a5cf53" x="396.657239" y="186.285227" style="stroke: #000000"/>
    </g>
   </g>
   <g id="line2d_6">
    <defs>
     <path id="m7536cc232f" d="M 0 9.183665 
C 2.435536 9.183665 4.771647 8.216016 6.493832 6.493832 
C 8.216016 4.771647 9.183665 2.435536 9.183665 0 
C 9.183665 -2.435536 8.216016 -4.771647 6.493832 -6.493832 
C 4.771647 -8.216016 2.435536 -9.183665 0 -9.183665 
C -2.435536 -9.183665 -4.771647 -8.216016 -6.493832 -6.493832 
C -8.216016 -4.771647 -9.183665 -2.435536 -9.183665 0 
C -9.183665 2.435536 -8.216016 4.771647 -6.493832 6.493832 
C -4.771647 8.216016 -2.435536 9.183665 0 9.183665 
z
" style="stroke: #000000"/>
    </defs>
    <g clip-path="url(#pdf3d05cc20)">
     <use xlink:href="#m7536cc232f" x="341.982548" y="307.8" style="stroke: #000000"/>
    </g>
   </g>
   <g id="line2d_7">
    <defs>
     <path id="m819ec42d5b" d="M 0 9.16432 
C 2.430406 9.16432 4.761596 8.198709 6.480153 6.480153 
C 8.198709 4.761596 9.16432 2.430406 9.16432 0 
C 9.16432 -2.430406 8.198709 -4.761596 6.480153 -6.480153 
C 4.761596 -8.198709 2.430406 -9.16432 0 -9.16432 
C -2.430406 -9.16432 -4.761596 -8.198709 -6.480153 -6.480153 
C -8.198709 -4.761596 -9.16432 -2.430406 -9.16432 0 
C -9.16432 2.430406 -8.198709 4.761596 -6.480153 6.480153 
C -4.761596 8.198709 -2.430406 9.16432 0 9.16432 
z
" style="stroke: #000000"/>
    </defs>
    <g clip-path="url(#pdf3d05cc20)">
     <use xlink:href="#m819ec42d5b" x="387.095942" y="231.419911" style="stroke: #000000"/>
    </g>
   </g>
   <g id="line2d_8">
    <defs>
     <path id="m295a61bdf6" d="M 0 9.159468 
C 2.429119 9.159468 4.759075 8.194368 6.476722 6.476722 
C 8.194368 4.759075 9.159468 2.429119 9.159468 0 
C 9.159468 -2.429119 8.194368 -4.759075 6.476722 -6.476722 
C 4.759075 -8.194368 2.429119 -9.159468 0 -9.159468 
C -2.429119 -9.159468 -4.759075 -8.194368 -6.476722 -6.476722 
C -8.194368 -4.759075 -9.159468 -2.429119 -9.159468 0 
C -9.159468 2.429119 -8.194368 4.759075 -6.476722 6.476722 
C -4.759075 8.194368 -2.429119 9.159468 0 9.159468 
z
" style="stroke: #000000"/>
    </defs>
    <g clip-path="url(#pdf3d05cc20)">
     <use xlink:href="#m295a61bdf6" x="505.424674" y="55.8" style="stroke: #000000"/>
    </g>
   </g>
   <g id="line2d_9">
    <defs>
     <path id="m9fb7fe0f59" d="M 0 9.121189 
C 2.418968 9.121189 4.739186 8.160123 6.449655 6.449655 
C 8.160123 4.739186 9.121189 2.418968 9.121189 0 
C 9.121189 -2.418968 8.160123 -4.739186 6.449655 -6.449655 
C 4.739186 -8.160123 2.418968 -9.121189 0 -9.121189 
C -2.418968 -9.121189 -4.739186 -8.160123 -6.449655 -6.449655 
C -8.160123 -4.739186 -9.121189 -2.418968 -9.121189 0 
C -9.121189 2.418968 -8.160123 4.739186 -6.449655 6.449655 
C -4.739186 8.160123 -2.418968 9.121189 0 9.121189 
z
" style="stroke: #000000"/>
    </defs>
    <g clip-path="url(#pdf3d05cc20)">
     <use xlink:href="#m9fb7fe0f59" x="301.463854" y="273.294167" style="stroke: #000000"/>
    </g>
   </g>
   <g id="line2d_10">
    <defs>
     <path id="m62086191b2" d="M 0 9.068138 
C 2.404898 9.068138 4.711622 8.112661 6.412142 6.412142 
C 8.112661 4.711622 9.068138 2.404898 9.068138 0 
C 9.068138 -2.404898 8.112661 -4.711622 6.412142 -6.412142 
C 4.711622 -8.112661 2.404898 -9.068138 0 -9.068138 
C -2.404898 -9.068138 -4.711622 -8.112661 -6.412142 -6.412142 
C -8.112661 -4.711622 -9.068138 -2.404898 -9.068138 0 
C -9.068138 2.404898 -8.112661 4.711622 -6.412142 6.412142 
C -4.711622 8.112661 -2.404898 9.068138 0 9.068138 
z
" style="stroke: #000000"/>
    </defs>
    <g clip-path="url(#pdf3d05cc20)">
     <use xlink:href="#m62086191b2" x="232.575326" y="169.233661" style="stroke: #000000"/>
    </g>
   </g>
  </g>
 </g>
 <defs>
  <clipPath id="pdf3d05cc20">
   <path d="M 218.932859 320.4 
L 218.932859 43.2 
L 519.067141 43.2 
L 519.067141 320.4 
L 218.932859 320.4 
"/>
  </clipPath>
 </defs>
</svg>
