<?xml version="1.0" encoding="utf-8" standalone="no"?>
<!DOCTYPE svg PUBLIC "-//W3C//DTD SVG 1.1//EN"
  "http://www.w3.org/Graphics/SVG/1.1/DTD/svg11.dtd">
<svg xmlns:xlink="http://www.w3.org/1999/xlink" width="720pt" height="360pt" viewBox="0 0 720 360" xmlns="http://www.w3.org/2000/svg" version="1.1">
 <metadata>
  <rdf:RDF xmlns:dc="http://purl.org/dc/elements/1.1/" xmlns:cc="http://creativecommons.org/ns#" xmlns:rdf="http://www.w3.org/1999/02/22-rdf-syntax-ns#">
   <cc:Work>
    <dc:type rdf:resource="http://purl.org/dc/dcmitype/StillImage"/>
    <dc:date>2023-11-30T21:30:48.739182</dc:date>
    <dc:format>image/svg+xml</dc:format>
    <dc:creator>
     <cc:Agent>
      <dc:title>Matplotlib v3.8.1, https://matplotlib.org/</dc:title>
     </cc:Agent>
    </dc:creator>
   </cc:Work>
  </rdf:RDF>
 </metadata>
 <defs>
  <style type="text/css">*{stroke-linejoin: round; stroke-linecap: butt}</style>
 </defs>
 <g id="figure_1">
  <g id="patch_1">
   <path d="M 0 360 
L 720 360 
L 720 0 
L 0 0 
z
" style="fill: #ffffff"/>
  </g>
  <g id="axes_1">
   <g id="patch_2">
    <path d="M 254.451803 320.4 
L 254.451803 43.2 
L 483.548197 43.2 
L 483.548197 320.4 
L 254.451803 320.4 
" style="fill: #ffffff"/>
   </g>
   <g id="line2d_1">
    <defs>
     <path id="m02e2b2d4c6" d="M 0 11.651516 
C 3.090018 11.651516 6.053893 10.423839 8.238866 8.238866 
C 10.423839 6.053893 11.651516 3.090018 11.651516 0 
C 11.651516 -3.090018 10.423839 -6.053893 8.238866 -8.238866 
C 6.053893 -10.423839 3.090018 -11.651516 0 -11.651516 
C -3.090018 -11.651516 -6.053893 -10.423839 -8.238866 -8.238866 
C -10.423839 -6.053893 -11.651516 -3.090018 -11.651516 0 
C -11.651516 3.090018 -10.423839 6.053893 -8.238866 8.238866 
C -6.053893 10.423839 -3.090018 11.651516 0 11.651516 
z
" style="stroke: #000000"/>
    </defs>
    <g clip-path="url(#p5f6e1b6c50)">
     <use xlink:href="#m02e2b2d4c6" x="286.657039" y="64.861523" style="stroke: #000000"/>
    </g>
   </g>
   <g id="line2d_2">
    <defs>
     <path id="mbfd462385c" d="M 0 10.905354 
C 2.892134 10.905354 5.666202 9.756297 7.71125 7.71125 
C 9.756297 5.666202 10.905354 2.892134 10.905354 0 
C 10.905354 -2.892134 9.756297 -5.666202 7.71125 -7.71125 
C 5.666202 -9.756297 2.892134 -10.905354 0 -10.905354 
C -2.892134 -10.905354 -5.666202 -9.756297 -7.71125 -7.71125 
C -9.756297 -5.666202 -10.905354 -2.892134 -10.905354 0 
C -10.905354 2.892134 -9.756297 5.666202 -7.71125 7.71125 
C -5.666202 9.756297 -2.892134 10.905354 0 10.905354 
z
" style="stroke: #000000"/>
    </defs>
    <g clip-path="url(#p5f6e1b6c50)">
     <use xlink:href="#mbfd462385c" x="450.275902" y="307.8" style="stroke: #000000"/>
    </g>
   </g>
   <g id="line2d_3">
    <defs>
     <path id="m10af93e9a6" d="M 0 10.747353 
C 2.850231 10.747353 5.584108 9.614944 7.599526 7.599526 
C 9.614944 5.584108 10.747353 2.850231 10.747353 0 
C 10.747353 -2.850231 9.614944 -5.584108 7.599526 -7.599526 
C 5.584108 -9.614944 2.850231 -10.747353 0 -10.747353 
C -2.850231 -10.747353 -5.584108 -9.614944 -7.599526 -7.599526 
C -9.614944 -5.584108 -10.747353 -2.850231 -10.747353 0 
C -10.747353 2.850231 -9.614944 5.584108 -7.599526 7.599526 
C -5.584108 9.614944 -2.850231 10.747353 0 10.747353 
z
" style="stroke: #000000"/>
    </defs>
    <g clip-path="url(#p5f6e1b6c50)">
     <use xlink:href="#m10af93e9a6" x="264.865276" y="75.827971" style="stroke: #000000"/>
    </g>
   </g>
   <g id="line2d_4">
    <defs>
     <path id="me928c8ebbc" d="M 0 10.645697 
C 2.823272 10.645697 5.53129 9.523999 7.527644 7.527644 
C 9.523999 5.53129 10.645697 2.823272 10.645697 0 
C 10.645697 -2.823272 9.523999 -5.53129 7.527644 -7.527644 
C 5.53129 -9.523999 2.823272 -10.645697 0 -10.645697 
C -2.823272 -10.645697 -5.53129 -9.523999 -7.527644 -7.527644 
C -9.523999 -5.53129 -10.645697 -2.823272 -10.645697 0 
C -10.645697 2.823272 -9.523999 5.53129 -7.527644 7.527644 
C -5.53129 9.523999 -2.823272 10.645697 0 10.645697 
z
" style="stroke: #000000"/>
    </defs>
    <g clip-path="url(#p5f6e1b6c50)">
     <use xlink:href="#me928c8ebbc" x="415.271112" y="232.855268" style="stroke: #000000"/>
    </g>
   </g>
   <g id="line2d_5">
    <defs>
     <path id="m8e77d42e59" d="M 0 10.253485 
C 2.719256 10.253485 5.327505 9.173114 7.250309 7.250309 
C 9.173114 5.327505 10.253485 2.719256 10.253485 0 
C 10.253485 -2.719256 9.173114 -5.327505 7.250309 -7.250309 
C 5.327505 -9.173114 2.719256 -10.253485 0 -10.253485 
C -2.719256 -10.253485 -5.327505 -9.173114 -7.250309 -7.250309 
C -9.173114 -5.327505 -10.253485 -2.719256 -10.253485 0 
C -10.253485 2.719256 -9.173114 5.327505 -7.250309 7.250309 
C -5.327505 9.173114 -2.719256 10.253485 0 10.253485 
z
" style="stroke: #000000"/>
    </defs>
    <g clip-path="url(#p5f6e1b6c50)">
     <use xlink:href="#m8e77d42e59" x="281.645532" y="302.651273" style="stroke: #000000"/>
    </g>
   </g>
   <g id="line2d_6">
    <defs>
     <path id="m88697180fe" d="M 0 10.243469 
C 2.7166 10.243469 5.3223 9.164152 7.243226 7.243226 
C 9.164152 5.3223 10.243469 2.7166 10.243469 0 
C 10.243469 -2.7166 9.164152 -5.3223 7.243226 -7.243226 
C 5.3223 -9.164152 2.7166 -10.243469 0 -10.243469 
C -2.7166 -10.243469 -5.3223 -9.164152 -7.243226 -7.243226 
C -9.164152 -5.3223 -10.243469 -2.7166 -10.243469 0 
C -10.243469 2.7166 -9.164152 5.3223 -7.243226 7.243226 
C -5.3223 9.164152 -2.7166 10.243469 0 10.243469 
z
" style="stroke: #000000"/>
    </defs>
    <g clip-path="url(#p5f6e1b6c50)">
     <use xlink:href="#m88697180fe" x="319.07792" y="185.792671" style="stroke: #000000"/>
    </g>
   </g>
   <g id="line2d_7">
    <defs>
     <path id="mdfbe0629e2" d="M 0 10.121717 
C 2.684311 10.121717 5.259041 9.055229 7.157135 7.157135 
C 9.055229 5.259041 10.121717 2.684311 10.121717 0 
C 10.121717 -2.684311 9.055229 -5.259041 7.157135 -7.157135 
C 5.259041 -9.055229 2.684311 -10.121717 0 -10.121717 
C -2.684311 -10.121717 -5.259041 -9.055229 -7.157135 -7.157135 
C -9.055229 -5.259041 -10.121717 -2.684311 -10.121717 0 
C -10.121717 2.684311 -9.055229 5.259041 -7.157135 7.157135 
C -5.259041 9.055229 -2.684311 10.121717 0 10.121717 
z
" style="stroke: #000000"/>
    </defs>
    <g clip-path="url(#p5f6e1b6c50)">
     <use xlink:href="#mdfbe0629e2" x="289.088625" y="92.351132" style="stroke: #000000"/>
    </g>
   </g>
   <g id="line2d_8">
    <defs>
     <path id="maef0ce6fea" d="M 0 10.016656 
C 2.656448 10.016656 5.204453 8.961238 7.082846 7.082846 
C 8.961238 5.204453 10.016656 2.656448 10.016656 0 
C 10.016656 -2.656448 8.961238 -5.204453 7.082846 -7.082846 
C 5.204453 -8.961238 2.656448 -10.016656 0 -10.016656 
C -2.656448 -10.016656 -5.204453 -8.961238 -7.082846 -7.082846 
C -8.961238 -5.204453 -10.016656 -2.656448 -10.016656 0 
C -10.016656 2.656448 -8.961238 5.204453 -7.082846 7.082846 
C -5.204453 8.961238 -2.656448 10.016656 0 10.016656 
z
" style="stroke: #000000"/>
    </defs>
    <g clip-path="url(#p5f6e1b6c50)">
     <use xlink:href="#maef0ce6fea" x="275.220849" y="55.8" style="stroke: #000000"/>
    </g>
   </g>
   <g id="line2d_9">
    <defs>
     <path id="m24e397f520" d="M 0 9.988461 
C 2.648971 9.988461 5.189803 8.936014 7.062909 7.062909 
C 8.936014 5.189803 9.988461 2.648971 9.988461 0 
C 9.988461 -2.648971 8.936014 -5.189803 7.062909 -7.062909 
C 5.189803 -8.936014 2.648971 -9.988461 0 -9.988461 
C -2.648971 -9.988461 -5.189803 -8.936014 -7.062909 -7.062909 
C -8.936014 -5.189803 -9.988461 -2.648971 -9.988461 0 
C -9.988461 2.648971 -8.936014 5.189803 -7.062909 7.062909 
C -5.189803 8.936014 -2.648971 9.988461 0 9.988461 
z
" style="stroke: #000000"/>
    </defs>
    <g clip-path="url(#p5f6e1b6c50)">
     <use xlink:href="#m24e397f520" x="299.367639" y="77.613464" style="stroke: #000000"/>
    </g>
   </g>
   <g id="line2d_10">
    <defs>
     <path id="ma786ecfab8" d="M 0 9.938488 
C 2.635718 9.938488 5.163838 8.891306 7.027572 7.027572 
C 8.891306 5.163838 9.938488 2.635718 9.938488 0 
C 9.938488 -2.635718 8.891306 -5.163838 7.027572 -7.027572 
C 5.163838 -8.891306 2.635718 -9.938488 0 -9.938488 
C -2.635718 -9.938488 -5.163838 -8.891306 -7.027572 -7.027572 
C -8.891306 -5.163838 -9.938488 -2.635718 -9.938488 0 
C -9.938488 2.635718 -8.891306 5.163838 -7.027572 7.027572 
C -5.163838 8.891306 -2.635718 9.938488 0 9.938488 
z
" style="stroke: #000000"/>
    </defs>
    <g clip-path="url(#p5f6e1b6c50)">
     <use xlink:href="#ma786ecfab8" x="473.134724" y="265.420177" style="stroke: #000000"/>
    </g>
   </g>
  </g>
 </g>
 <defs>
  <clipPath id="p5f6e1b6c50">
   <path d="M 254.451803 320.4 
L 254.451803 43.2 
L 483.548197 43.2 
L 483.548197 320.4 
L 254.451803 320.4 
"/>
  </clipPath>
 </defs>
</svg>
