<?xml version="1.0" encoding="utf-8" standalone="no"?>
<!DOCTYPE svg PUBLIC "-//W3C//DTD SVG 1.1//EN"
  "http://www.w3.org/Graphics/SVG/1.1/DTD/svg11.dtd">
<svg xmlns:xlink="http://www.w3.org/1999/xlink" width="720pt" height="360pt" viewBox="0 0 720 360" xmlns="http://www.w3.org/2000/svg" version="1.1">
 <metadata>
  <rdf:RDF xmlns:dc="http://purl.org/dc/elements/1.1/" xmlns:cc="http://creativecommons.org/ns#" xmlns:rdf="http://www.w3.org/1999/02/22-rdf-syntax-ns#">
   <cc:Work>
    <dc:type rdf:resource="http://purl.org/dc/dcmitype/StillImage"/>
    <dc:date>2023-11-30T21:30:48.786118</dc:date>
    <dc:format>image/svg+xml</dc:format>
    <dc:creator>
     <cc:Agent>
      <dc:title>Matplotlib v3.8.1, https://matplotlib.org/</dc:title>
     </cc:Agent>
    </dc:creator>
   </cc:Work>
  </rdf:RDF>
 </metadata>
 <defs>
  <style type="text/css">*{stroke-linejoin: round; stroke-linecap: butt}</style>
 </defs>
 <g id="figure_1">
  <g id="patch_1">
   <path d="M 0 360 
L 720 360 
L 720 0 
L 0 0 
z
" style="fill: #ffffff"/>
  </g>
  <g id="axes_1">
   <g id="patch_2">
    <path d="M 297.712131 320.4 
L 297.712131 43.2 
L 440.287869 43.2 
L 440.287869 320.4 
L 297.712131 320.4 
" style="fill: #ffffff"/>
   </g>
   <g id="line2d_1">
    <defs>
     <path id="md92969b99a" d="M 0 9.640933 
C 2.556805 9.640933 5.009235 8.625104 6.817169 6.817169 
C 8.625104 5.009235 9.640933 2.556805 9.640933 0 
C 9.640933 -2.556805 8.625104 -5.009235 6.817169 -6.817169 
C 5.009235 -8.625104 2.556805 -9.640933 0 -9.640933 
C -2.556805 -9.640933 -5.009235 -8.625104 -6.817169 -6.817169 
C -8.625104 -5.009235 -9.640933 -2.556805 -9.640933 0 
C -9.640933 2.556805 -8.625104 5.009235 -6.817169 6.817169 
C -5.009235 8.625104 -2.556805 9.640933 0 9.640933 
z
" style="stroke: #000000"/>
    </defs>
    <g clip-path="url(#p20a57763c9)">
     <use xlink:href="#md92969b99a" x="398.78177" y="307.8" style="stroke: #000000"/>
    </g>
   </g>
   <g id="line2d_2">
    <defs>
     <path id="maa9de88b2f" d="M 0 8.662604 
C 2.29735 8.662604 4.500915 7.749858 6.125386 6.125386 
C 7.749858 4.500915 8.662604 2.29735 8.662604 0 
C 8.662604 -2.29735 7.749858 -4.500915 6.125386 -6.125386 
C 4.500915 -7.749858 2.29735 -8.662604 0 -8.662604 
C -2.29735 -8.662604 -4.500915 -7.749858 -6.125386 -6.125386 
C -7.749858 -4.500915 -8.662604 -2.29735 -8.662604 0 
C -8.662604 2.29735 -7.749858 4.500915 -6.125386 6.125386 
C -4.500915 7.749858 -2.29735 8.662604 0 8.662604 
z
" style="stroke: #000000"/>
    </defs>
    <g clip-path="url(#p20a57763c9)">
     <use xlink:href="#maa9de88b2f" x="357.044256" y="87.634985" style="stroke: #000000"/>
    </g>
   </g>
   <g id="line2d_3">
    <defs>
     <path id="m2a4415ae61" d="M 0 8.585911 
C 2.27701 8.585911 4.461066 7.681245 6.071156 6.071156 
C 7.681245 4.461066 8.585911 2.27701 8.585911 0 
C 8.585911 -2.27701 7.681245 -4.461066 6.071156 -6.071156 
C 4.461066 -7.681245 2.27701 -8.585911 0 -8.585911 
C -2.27701 -8.585911 -4.461066 -7.681245 -6.071156 -6.071156 
C -7.681245 -4.461066 -8.585911 -2.27701 -8.585911 0 
C -8.585911 2.27701 -7.681245 4.461066 -6.071156 6.071156 
C -4.461066 7.681245 -2.27701 8.585911 0 8.585911 
z
" style="stroke: #000000"/>
    </defs>
    <g clip-path="url(#p20a57763c9)">
     <use xlink:href="#m2a4415ae61" x="392.907713" y="86.678554" style="stroke: #000000"/>
    </g>
   </g>
   <g id="line2d_4">
    <defs>
     <path id="m4eed060de4" d="M 0 8.543213 
C 2.265687 8.543213 4.438882 7.643046 6.040964 6.040964 
C 7.643046 4.438882 8.543213 2.265687 8.543213 0 
C 8.543213 -2.265687 7.643046 -4.438882 6.040964 -6.040964 
C 4.438882 -7.643046 2.265687 -8.543213 0 -8.543213 
C -2.265687 -8.543213 -4.438882 -7.643046 -6.040964 -6.040964 
C -7.643046 -4.438882 -8.543213 -2.265687 -8.543213 0 
C -8.543213 2.265687 -7.643046 4.438882 -6.040964 6.040964 
C -4.438882 7.643046 -2.265687 8.543213 0 8.543213 
z
" style="stroke: #000000"/>
    </defs>
    <g clip-path="url(#p20a57763c9)">
     <use xlink:href="#m4eed060de4" x="378.645382" y="152.716524" style="stroke: #000000"/>
    </g>
   </g>
   <g id="line2d_5">
    <defs>
     <path id="m68edaff17a" d="M 0 8.200423 
C 2.174778 8.200423 4.260775 7.336375 5.798575 5.798575 
C 7.336375 4.260775 8.200423 2.174778 8.200423 0 
C 8.200423 -2.174778 7.336375 -4.260775 5.798575 -5.798575 
C 4.260775 -7.336375 2.174778 -8.200423 0 -8.200423 
C -2.174778 -8.200423 -4.260775 -7.336375 -5.798575 -5.798575 
C -7.336375 -4.260775 -8.200423 -2.174778 -8.200423 0 
C -8.200423 2.174778 -7.336375 4.260775 -5.798575 5.798575 
C -4.260775 7.336375 -2.174778 8.200423 0 8.200423 
z
" style="stroke: #000000"/>
    </defs>
    <g clip-path="url(#p20a57763c9)">
     <use xlink:href="#m68edaff17a" x="304.192846" y="135.253676" style="stroke: #000000"/>
    </g>
   </g>
   <g id="line2d_6">
    <defs>
     <path id="m89c366ecf8" d="M 0 8.029704 
C 2.129502 8.029704 4.172073 7.183644 5.677858 5.677858 
C 7.183644 4.172073 8.029704 2.129502 8.029704 0 
C 8.029704 -2.129502 7.183644 -4.172073 5.677858 -5.677858 
C 4.172073 -7.183644 2.129502 -8.029704 0 -8.029704 
C -2.129502 -8.029704 -4.172073 -7.183644 -5.677858 -5.677858 
C -7.183644 -4.172073 -8.029704 -2.129502 -8.029704 0 
C -8.029704 2.129502 -7.183644 4.172073 -5.677858 5.677858 
C -4.172073 7.183644 -2.129502 8.029704 0 8.029704 
z
" style="stroke: #000000"/>
    </defs>
    <g clip-path="url(#p20a57763c9)">
     <use xlink:href="#m89c366ecf8" x="433.807154" y="303.02119" style="stroke: #000000"/>
    </g>
   </g>
   <g id="line2d_7">
    <defs>
     <path id="m409791a205" d="M 0 7.937118 
C 2.104948 7.937118 4.123967 7.100814 5.61239 5.61239 
C 7.100814 4.123967 7.937118 2.104948 7.937118 0 
C 7.937118 -2.104948 7.100814 -4.123967 5.61239 -5.61239 
C 4.123967 -7.100814 2.104948 -7.937118 0 -7.937118 
C -2.104948 -7.937118 -4.123967 -7.100814 -5.61239 -5.61239 
C -7.100814 -4.123967 -7.937118 -2.104948 -7.937118 0 
C -7.937118 2.104948 -7.100814 4.123967 -5.61239 5.61239 
C -4.123967 7.100814 -2.104948 7.937118 0 7.937118 
z
" style="stroke: #000000"/>
    </defs>
    <g clip-path="url(#p20a57763c9)">
     <use xlink:href="#m409791a205" x="319.081843" y="55.8" style="stroke: #000000"/>
    </g>
   </g>
   <g id="line2d_8">
    <defs>
     <path id="m81a0fe1e29" d="M 0 7.913572 
C 2.098704 7.913572 4.111733 7.079748 5.59574 5.59574 
C 7.079748 4.111733 7.913572 2.098704 7.913572 0 
C 7.913572 -2.098704 7.079748 -4.111733 5.59574 -5.59574 
C 4.111733 -7.079748 2.098704 -7.913572 0 -7.913572 
C -2.098704 -7.913572 -4.111733 -7.079748 -5.59574 -5.59574 
C -7.079748 -4.111733 -7.913572 -2.098704 -7.913572 0 
C -7.913572 2.098704 -7.079748 4.111733 -5.59574 5.59574 
C -4.111733 7.079748 -2.098704 7.913572 0 7.913572 
z
" style="stroke: #000000"/>
    </defs>
    <g clip-path="url(#p20a57763c9)">
     <use xlink:href="#m81a0fe1e29" x="391.442974" y="105.822404" style="stroke: #000000"/>
    </g>
   </g>
   <g id="line2d_9">
    <defs>
     <path id="m6d6d1aa5ee" d="M 0 7.834069 
C 2.077619 7.834069 4.070424 7.008622 5.539523 5.539523 
C 7.008622 4.070424 7.834069 2.077619 7.834069 0 
C 7.834069 -2.077619 7.008622 -4.070424 5.539523 -5.539523 
C 4.070424 -7.008622 2.077619 -7.834069 0 -7.834069 
C -2.077619 -7.834069 -4.070424 -7.008622 -5.539523 -5.539523 
C -7.008622 -4.070424 -7.834069 -2.077619 -7.834069 0 
C -7.834069 2.077619 -7.008622 4.070424 -5.539523 5.539523 
C -4.070424 7.008622 -2.077619 7.834069 0 7.834069 
z
" style="stroke: #000000"/>
    </defs>
    <g clip-path="url(#p20a57763c9)">
     <use xlink:href="#m6d6d1aa5ee" x="406.958638" y="248.570761" style="stroke: #000000"/>
    </g>
   </g>
   <g id="line2d_10">
    <defs>
     <path id="ma73004204d" d="M 0 7.660717 
C 2.031646 7.660717 3.980355 6.853536 5.416945 5.416945 
C 6.853536 3.980355 7.660717 2.031646 7.660717 0 
C 7.660717 -2.031646 6.853536 -3.980355 5.416945 -5.416945 
C 3.980355 -6.853536 2.031646 -7.660717 0 -7.660717 
C -2.031646 -7.660717 -3.980355 -6.853536 -5.416945 -5.416945 
C -6.853536 -3.980355 -7.660717 -2.031646 -7.660717 0 
C -7.660717 2.031646 -6.853536 3.980355 -5.416945 5.416945 
C -3.980355 6.853536 -2.031646 7.660717 0 7.660717 
z
" style="stroke: #000000"/>
    </defs>
    <g clip-path="url(#p20a57763c9)">
     <use xlink:href="#ma73004204d" x="394.795263" y="119.466935" style="stroke: #000000"/>
    </g>
   </g>
  </g>
 </g>
 <defs>
  <clipPath id="p20a57763c9">
   <path d="M 297.712131 320.4 
L 297.712131 43.2 
L 440.287869 43.2 
L 440.287869 320.4 
L 297.712131 320.4 
"/>
  </clipPath>
 </defs>
</svg>
