<?xml version="1.0" encoding="utf-8" standalone="no"?>
<!DOCTYPE svg PUBLIC "-//W3C//DTD SVG 1.1//EN"
  "http://www.w3.org/Graphics/SVG/1.1/DTD/svg11.dtd">
<svg xmlns:xlink="http://www.w3.org/1999/xlink" width="720pt" height="360pt" viewBox="0 0 720 360" xmlns="http://www.w3.org/2000/svg" version="1.1">
 <metadata>
  <rdf:RDF xmlns:dc="http://purl.org/dc/elements/1.1/" xmlns:cc="http://creativecommons.org/ns#" xmlns:rdf="http://www.w3.org/1999/02/22-rdf-syntax-ns#">
   <cc:Work>
    <dc:type rdf:resource="http://purl.org/dc/dcmitype/StillImage"/>
    <dc:date>2023-11-30T21:30:48.827779</dc:date>
    <dc:format>image/svg+xml</dc:format>
    <dc:creator>
     <cc:Agent>
      <dc:title>Matplotlib v3.8.1, https://matplotlib.org/</dc:title>
     </cc:Agent>
    </dc:creator>
   </cc:Work>
  </rdf:RDF>
 </metadata>
 <defs>
  <style type="text/css">*{stroke-linejoin: round; stroke-linecap: butt}</style>
 </defs>
 <g id="figure_1">
  <g id="patch_1">
   <path d="M 0 360 
L 720 360 
L 720 0 
L 0 0 
z
" style="fill: #ffffff"/>
  </g>
  <g id="axes_1">
   <g id="patch_2">
    <path d="M 90 313.411083 
L 90 50.188917 
L 648 50.188917 
L 648 313.411083 
L 90 313.411083 
" style="fill: #ffffff"/>
   </g>
   <g id="line2d_1">
    <defs>
     <path id="mdd128e0c86" d="M 0 10.457445 
C 2.773347 10.457445 5.433478 9.355583 7.39453 7.39453 
C 9.355583 5.433478 10.457445 2.773347 10.457445 0 
C 10.457445 -2.773347 9.355583 -5.433478 7.39453 -7.39453 
C 5.433478 -9.355583 2.773347 -10.457445 0 -10.457445 
C -2.773347 -10.457445 -5.433478 -9.355583 -7.39453 -7.39453 
C -9.355583 -5.433478 -10.457445 -2.773347 -10.457445 0 
C -10.457445 2.773347 -9.355583 5.433478 -7.39453 7.39453 
C -5.433478 9.355583 -2.773347 10.457445 0 10.457445 
z
" style="stroke: #000000"/>
    </defs>
    <g clip-path="url(#p7bbf282f55)">
     <use xlink:href="#mdd128e0c86" x="530.253337" y="280.505645" style="stroke: #000000"/>
    </g>
   </g>
   <g id="line2d_2">
    <defs>
     <path id="m2e32004735" d="M 0 10.097302 
C 2.677836 10.097302 5.246355 9.033387 7.139871 7.139871 
C 9.033387 5.246355 10.097302 2.677836 10.097302 0 
C 10.097302 -2.677836 9.033387 -5.246355 7.139871 -7.139871 
C 5.246355 -9.033387 2.677836 -10.097302 0 -10.097302 
C -2.677836 -10.097302 -5.246355 -9.033387 -7.139871 -7.139871 
C -9.033387 -5.246355 -10.097302 -2.677836 -10.097302 0 
C -10.097302 2.677836 -9.033387 5.246355 -7.139871 7.139871 
C -5.246355 9.033387 -2.677836 10.097302 0 10.097302 
z
" style="stroke: #000000"/>
    </defs>
    <g clip-path="url(#p7bbf282f55)">
     <use xlink:href="#m2e32004735" x="411.442729" y="301.44644" style="stroke: #000000"/>
    </g>
   </g>
   <g id="line2d_3">
    <defs>
     <path id="m0de5630516" d="M 0 9.466877 
C 2.510645 9.466877 4.918799 8.469387 6.694093 6.694093 
C 8.469387 4.918799 9.466877 2.510645 9.466877 0 
C 9.466877 -2.510645 8.469387 -4.918799 6.694093 -6.694093 
C 4.918799 -8.469387 2.510645 -9.466877 0 -9.466877 
C -2.510645 -9.466877 -4.918799 -8.469387 -6.694093 -6.694093 
C -8.469387 -4.918799 -9.466877 -2.510645 -9.466877 0 
C -9.466877 2.510645 -8.469387 4.918799 -6.694093 6.694093 
C -4.918799 8.469387 -2.510645 9.466877 0 9.466877 
z
" style="stroke: #000000"/>
    </defs>
    <g clip-path="url(#p7bbf282f55)">
     <use xlink:href="#m0de5630516" x="210.203849" y="114.043797" style="stroke: #000000"/>
    </g>
   </g>
   <g id="line2d_4">
    <defs>
     <path id="m2311473e54" d="M 0 9.462571 
C 2.509503 9.462571 4.916562 8.465535 6.691048 6.691048 
C 8.465535 4.916562 9.462571 2.509503 9.462571 0 
C 9.462571 -2.509503 8.465535 -4.916562 6.691048 -6.691048 
C 4.916562 -8.465535 2.509503 -9.462571 0 -9.462571 
C -2.509503 -9.462571 -4.916562 -8.465535 -6.691048 -6.691048 
C -8.465535 -4.916562 -9.462571 -2.509503 -9.462571 0 
C -9.462571 2.509503 -8.465535 4.916562 -6.691048 6.691048 
C -4.916562 8.465535 -2.509503 9.462571 0 9.462571 
z
" style="stroke: #000000"/>
    </defs>
    <g clip-path="url(#p7bbf282f55)">
     <use xlink:href="#m2311473e54" x="468.311198" y="126.091561" style="stroke: #000000"/>
    </g>
   </g>
   <g id="line2d_5">
    <defs>
     <path id="md0d217c04f" d="M 0 9.22511 
C 2.446528 9.22511 4.793182 8.253094 6.523138 6.523138 
C 8.253094 4.793182 9.22511 2.446528 9.22511 0 
C 9.22511 -2.446528 8.253094 -4.793182 6.523138 -6.523138 
C 4.793182 -8.253094 2.446528 -9.22511 0 -9.22511 
C -2.446528 -9.22511 -4.793182 -8.253094 -6.523138 -6.523138 
C -8.253094 -4.793182 -9.22511 -2.446528 -9.22511 0 
C -9.22511 2.446528 -8.253094 4.793182 -6.523138 6.523138 
C -4.793182 8.253094 -2.446528 9.22511 0 9.22511 
z
" style="stroke: #000000"/>
    </defs>
    <g clip-path="url(#p7bbf282f55)">
     <use xlink:href="#md0d217c04f" x="440.130525" y="288.2584" style="stroke: #000000"/>
    </g>
   </g>
   <g id="line2d_6">
    <defs>
     <path id="m6e37a81982" d="M 0 9.218325 
C 2.444728 9.218325 4.789656 8.247024 6.51834 6.51834 
C 8.247024 4.789656 9.218325 2.444728 9.218325 0 
C 9.218325 -2.444728 8.247024 -4.789656 6.51834 -6.51834 
C 4.789656 -8.247024 2.444728 -9.218325 0 -9.218325 
C -2.444728 -9.218325 -4.789656 -8.247024 -6.51834 -6.51834 
C -8.247024 -4.789656 -9.218325 -2.444728 -9.218325 0 
C -9.218325 2.444728 -8.247024 4.789656 -6.51834 6.51834 
C -4.789656 8.247024 -2.444728 9.218325 0 9.218325 
z
" style="stroke: #000000"/>
    </defs>
    <g clip-path="url(#p7bbf282f55)">
     <use xlink:href="#m6e37a81982" x="345.014423" y="244.415415" style="stroke: #000000"/>
    </g>
   </g>
   <g id="line2d_7">
    <defs>
     <path id="m23def6dc0b" d="M 0 9.199382 
C 2.439705 9.199382 4.779814 8.230077 6.504946 6.504946 
C 8.230077 4.779814 9.199382 2.439705 9.199382 0 
C 9.199382 -2.439705 8.230077 -4.779814 6.504946 -6.504946 
C 4.779814 -8.230077 2.439705 -9.199382 0 -9.199382 
C -2.439705 -9.199382 -4.779814 -8.230077 -6.504946 -6.504946 
C -8.230077 -4.779814 -9.199382 -2.439705 -9.199382 0 
C -9.199382 2.439705 -8.230077 4.779814 -6.504946 6.504946 
C -4.779814 8.230077 -2.439705 9.199382 0 9.199382 
z
" style="stroke: #000000"/>
    </defs>
    <g clip-path="url(#p7bbf282f55)">
     <use xlink:href="#m23def6dc0b" x="441.418388" y="91.006003" style="stroke: #000000"/>
    </g>
   </g>
   <g id="line2d_8">
    <defs>
     <path id="m4361b7c33f" d="M 0 9.166055 
C 2.430866 9.166055 4.762498 8.200262 6.48138 6.48138 
C 8.200262 4.762498 9.166055 2.430866 9.166055 0 
C 9.166055 -2.430866 8.200262 -4.762498 6.48138 -6.48138 
C 4.762498 -8.200262 2.430866 -9.166055 0 -9.166055 
C -2.430866 -9.166055 -4.762498 -8.200262 -6.48138 -6.48138 
C -8.200262 -4.762498 -9.166055 -2.430866 -9.166055 0 
C -9.166055 2.430866 -8.200262 4.762498 -6.48138 6.48138 
C -4.762498 8.200262 -2.430866 9.166055 0 9.166055 
z
" style="stroke: #000000"/>
    </defs>
    <g clip-path="url(#p7bbf282f55)">
     <use xlink:href="#m4361b7c33f" x="115.363636" y="89.629994" style="stroke: #000000"/>
    </g>
   </g>
   <g id="line2d_9">
    <defs>
     <path id="m6ceccd6fd3" d="M 0 9.163871 
C 2.430287 9.163871 4.761363 8.198307 6.479835 6.479835 
C 8.198307 4.761363 9.163871 2.430287 9.163871 0 
C 9.163871 -2.430287 8.198307 -4.761363 6.479835 -6.479835 
C 4.761363 -8.198307 2.430287 -9.163871 0 -9.163871 
C -2.430287 -9.163871 -4.761363 -8.198307 -6.479835 -6.479835 
C -8.198307 -4.761363 -9.163871 -2.430287 -9.163871 0 
C -9.163871 2.430287 -8.198307 4.761363 -6.479835 6.479835 
C -4.761363 8.198307 -2.430287 9.163871 0 9.163871 
z
" style="stroke: #000000"/>
    </defs>
    <g clip-path="url(#p7bbf282f55)">
     <use xlink:href="#m6ceccd6fd3" x="531.065254" y="62.15356" style="stroke: #000000"/>
    </g>
   </g>
   <g id="line2d_10">
    <defs>
     <path id="mf5a944d155" d="M 0 9.141752 
C 2.424421 9.141752 4.74987 8.17852 6.464195 6.464195 
C 8.17852 4.74987 9.141752 2.424421 9.141752 0 
C 9.141752 -2.424421 8.17852 -4.74987 6.464195 -6.464195 
C 4.74987 -8.17852 2.424421 -9.141752 0 -9.141752 
C -2.424421 -9.141752 -4.74987 -8.17852 -6.464195 -6.464195 
C -8.17852 -4.74987 -9.141752 -2.424421 -9.141752 0 
C -9.141752 2.424421 -8.17852 4.74987 -6.464195 6.464195 
C -4.74987 8.17852 -2.424421 9.141752 0 9.141752 
z
" style="stroke: #000000"/>
    </defs>
    <g clip-path="url(#p7bbf282f55)">
     <use xlink:href="#mf5a944d155" x="622.636364" y="121.830056" style="stroke: #000000"/>
    </g>
   </g>
  </g>
 </g>
 <defs>
  <clipPath id="p7bbf282f55">
   <path d="M 90 313.411083 
L 90 50.188917 
L 648 50.188917 
L 648 313.411083 
L 90 313.411083 
"/>
  </clipPath>
 </defs>
</svg>
