<?xml version="1.0" encoding="utf-8" standalone="no"?>
<!DOCTYPE svg PUBLIC "-//W3C//DTD SVG 1.1//EN"
  "http://www.w3.org/Graphics/SVG/1.1/DTD/svg11.dtd">
<svg xmlns:xlink="http://www.w3.org/1999/xlink" width="720pt" height="360pt" viewBox="0 0 720 360" xmlns="http://www.w3.org/2000/svg" version="1.1">
 <metadata>
  <rdf:RDF xmlns:dc="http://purl.org/dc/elements/1.1/" xmlns:cc="http://creativecommons.org/ns#" xmlns:rdf="http://www.w3.org/1999/02/22-rdf-syntax-ns#">
   <cc:Work>
    <dc:type rdf:resource="http://purl.org/dc/dcmitype/StillImage"/>
    <dc:date>2023-11-30T21:30:48.869246</dc:date>
    <dc:format>image/svg+xml</dc:format>
    <dc:creator>
     <cc:Agent>
      <dc:title>Matplotlib v3.8.1, https://matplotlib.org/</dc:title>
     </cc:Agent>
    </dc:creator>
   </cc:Work>
  </rdf:RDF>
 </metadata>
 <defs>
  <style type="text/css">*{stroke-linejoin: round; stroke-linecap: butt}</style>
 </defs>
 <g id="figure_1">
  <g id="patch_1">
   <path d="M 0 360 
L 720 360 
L 720 0 
L 0 0 
z
" style="fill: #ffffff"/>
  </g>
  <g id="axes_1">
   <g id="patch_2">
    <path d="M 278.187671 320.4 
L 278.187671 43.2 
L 459.812329 43.2 
L 459.812329 320.4 
L 278.187671 320.4 
" style="fill: #ffffff"/>
   </g>
   <g id="line2d_1">
    <defs>
     <path id="m2a5b157cf0" d="M 0 8.792936 
C 2.331914 8.792936 4.568633 7.866457 6.217545 6.217545 
C 7.866457 4.568633 8.792936 2.331914 8.792936 0 
C 8.792936 -2.331914 7.866457 -4.568633 6.217545 -6.217545 
C 4.568633 -7.866457 2.331914 -8.792936 0 -8.792936 
C -2.331914 -8.792936 -4.568633 -7.866457 -6.217545 -6.217545 
C -7.866457 -4.568633 -8.792936 -2.331914 -8.792936 0 
C -8.792936 2.331914 -7.866457 4.568633 -6.217545 6.217545 
C -4.568633 7.866457 -2.331914 8.792936 0 8.792936 
z
" style="stroke: #000000"/>
    </defs>
    <g clip-path="url(#p965d5297c1)">
     <use xlink:href="#m2a5b157cf0" x="313.11559" y="180.070993" style="stroke: #000000"/>
    </g>
   </g>
   <g id="line2d_2">
    <defs>
     <path id="ma417b5175d" d="M 0 8.470163 
C 2.246313 8.470163 4.400926 7.577693 5.989309 5.989309 
C 7.577693 4.400926 8.470163 2.246313 8.470163 0 
C 8.470163 -2.246313 7.577693 -4.400926 5.989309 -5.989309 
C 4.400926 -7.577693 2.246313 -8.470163 0 -8.470163 
C -2.246313 -8.470163 -4.400926 -7.577693 -5.989309 -5.989309 
C -7.577693 -4.400926 -8.470163 -2.246313 -8.470163 0 
C -8.470163 2.246313 -7.577693 4.400926 -5.989309 5.989309 
C -4.400926 7.577693 -2.246313 8.470163 0 8.470163 
z
" style="stroke: #000000"/>
    </defs>
    <g clip-path="url(#p965d5297c1)">
     <use xlink:href="#ma417b5175d" x="406.688318" y="242.96904" style="stroke: #000000"/>
    </g>
   </g>
   <g id="line2d_3">
    <defs>
     <path id="m58affe56e3" d="M 0 8.215332 
C 2.178732 8.215332 4.268521 7.349713 5.809117 5.809117 
C 7.349713 4.268521 8.215332 2.178732 8.215332 0 
C 8.215332 -2.178732 7.349713 -4.268521 5.809117 -5.809117 
C 4.268521 -7.349713 2.178732 -8.215332 0 -8.215332 
C -2.178732 -8.215332 -4.268521 -7.349713 -5.809117 -5.809117 
C -7.349713 -4.268521 -8.215332 -2.178732 -8.215332 0 
C -8.215332 2.178732 -7.349713 4.268521 -5.809117 5.809117 
C -4.268521 7.349713 -2.178732 8.215332 0 8.215332 
z
" style="stroke: #000000"/>
    </defs>
    <g clip-path="url(#p965d5297c1)">
     <use xlink:href="#m58affe56e3" x="451.556663" y="307.8" style="stroke: #000000"/>
    </g>
   </g>
   <g id="line2d_4">
    <defs>
     <path id="mba4e4bd374" d="M 0 8.187596 
C 2.171376 8.187596 4.25411 7.324899 5.789505 5.789505 
C 7.324899 4.25411 8.187596 2.171376 8.187596 0 
C 8.187596 -2.171376 7.324899 -4.25411 5.789505 -5.789505 
C 4.25411 -7.324899 2.171376 -8.187596 0 -8.187596 
C -2.171376 -8.187596 -4.25411 -7.324899 -5.789505 -5.789505 
C -7.324899 -4.25411 -8.187596 -2.171376 -8.187596 0 
C -8.187596 2.171376 -7.324899 4.25411 -5.789505 5.789505 
C -4.25411 7.324899 -2.171376 8.187596 0 8.187596 
z
" style="stroke: #000000"/>
    </defs>
    <g clip-path="url(#p965d5297c1)">
     <use xlink:href="#mba4e4bd374" x="409.651902" y="205.191449" style="stroke: #000000"/>
    </g>
   </g>
   <g id="line2d_5">
    <defs>
     <path id="m4e7783094d" d="M 0 7.76598 
C 2.059562 7.76598 4.035047 6.947707 5.491377 5.491377 
C 6.947707 4.035047 7.76598 2.059562 7.76598 0 
C 7.76598 -2.059562 6.947707 -4.035047 5.491377 -5.491377 
C 4.035047 -6.947707 2.059562 -7.76598 0 -7.76598 
C -2.059562 -7.76598 -4.035047 -6.947707 -5.491377 -5.491377 
C -6.947707 -4.035047 -7.76598 -2.059562 -7.76598 0 
C -7.76598 2.059562 -6.947707 4.035047 -5.491377 5.491377 
C -4.035047 6.947707 -2.059562 7.76598 0 7.76598 
z
" style="stroke: #000000"/>
    </defs>
    <g clip-path="url(#p965d5297c1)">
     <use xlink:href="#m4e7783094d" x="293.749298" y="92.448856" style="stroke: #000000"/>
    </g>
   </g>
   <g id="line2d_6">
    <defs>
     <path id="m3ba62c2ac6" d="M 0 7.757126 
C 2.057214 7.757126 4.030446 6.939786 5.485116 5.485116 
C 6.939786 4.030446 7.757126 2.057214 7.757126 0 
C 7.757126 -2.057214 6.939786 -4.030446 5.485116 -5.485116 
C 4.030446 -6.939786 2.057214 -7.757126 0 -7.757126 
C -2.057214 -7.757126 -4.030446 -6.939786 -5.485116 -5.485116 
C -6.939786 -4.030446 -7.757126 -2.057214 -7.757126 0 
C -7.757126 2.057214 -6.939786 4.030446 -5.485116 5.485116 
C -4.030446 6.939786 -2.057214 7.757126 0 7.757126 
z
" style="stroke: #000000"/>
    </defs>
    <g clip-path="url(#p965d5297c1)">
     <use xlink:href="#m3ba62c2ac6" x="375.65032" y="68.476459" style="stroke: #000000"/>
    </g>
   </g>
   <g id="line2d_7">
    <defs>
     <path id="mf3e2f21c45" d="M 0 7.597455 
C 2.014869 7.597455 3.947485 6.79694 5.372212 5.372212 
C 6.79694 3.947485 7.597455 2.014869 7.597455 0 
C 7.597455 -2.014869 6.79694 -3.947485 5.372212 -5.372212 
C 3.947485 -6.79694 2.014869 -7.597455 0 -7.597455 
C -2.014869 -7.597455 -3.947485 -6.79694 -5.372212 -5.372212 
C -6.79694 -3.947485 -7.597455 -2.014869 -7.597455 0 
C -7.597455 2.014869 -6.79694 3.947485 -5.372212 5.372212 
C -3.947485 6.79694 -2.014869 7.597455 0 7.597455 
z
" style="stroke: #000000"/>
    </defs>
    <g clip-path="url(#p965d5297c1)">
     <use xlink:href="#mf3e2f21c45" x="338.722372" y="112.728858" style="stroke: #000000"/>
    </g>
   </g>
   <g id="line2d_8">
    <defs>
     <path id="m25e4526bfa" d="M 0 7.304849 
C 1.937269 7.304849 3.795453 6.535164 5.165308 5.165308 
C 6.535164 3.795453 7.304849 1.937269 7.304849 0 
C 7.304849 -1.937269 6.535164 -3.795453 5.165308 -5.165308 
C 3.795453 -6.535164 1.937269 -7.304849 0 -7.304849 
C -1.937269 -7.304849 -3.795453 -6.535164 -5.165308 -5.165308 
C -6.535164 -3.795453 -7.304849 -1.937269 -7.304849 0 
C -7.304849 1.937269 -6.535164 3.795453 -5.165308 5.165308 
C -3.795453 6.535164 -1.937269 7.304849 0 7.304849 
z
" style="stroke: #000000"/>
    </defs>
    <g clip-path="url(#p965d5297c1)">
     <use xlink:href="#m25e4526bfa" x="286.443337" y="55.8" style="stroke: #000000"/>
    </g>
   </g>
   <g id="line2d_9">
    <g clip-path="url(#p965d5297c1)">
     <use xlink:href="#m25e4526bfa" x="306.530618" y="136.682672" style="stroke: #000000"/>
    </g>
   </g>
   <g id="line2d_10">
    <defs>
     <path id="m5f16468d0c" d="M 0 7.211558 
C 1.912528 7.211558 3.74698 6.451703 5.099342 5.099342 
C 6.451703 3.74698 7.211558 1.912528 7.211558 0 
C 7.211558 -1.912528 6.451703 -3.74698 5.099342 -5.099342 
C 3.74698 -6.451703 1.912528 -7.211558 0 -7.211558 
C -1.912528 -7.211558 -3.74698 -6.451703 -5.099342 -5.099342 
C -6.451703 -3.74698 -7.211558 -1.912528 -7.211558 0 
C -7.211558 1.912528 -6.451703 3.74698 -5.099342 5.099342 
C -3.74698 6.451703 -1.912528 7.211558 0 7.211558 
z
" style="stroke: #000000"/>
    </defs>
    <g clip-path="url(#p965d5297c1)">
     <use xlink:href="#m5f16468d0c" x="359.036422" y="160.714454" style="stroke: #000000"/>
    </g>
   </g>
  </g>
 </g>
 <defs>
  <clipPath id="p965d5297c1">
   <path d="M 278.187671 320.4 
L 278.187671 43.2 
L 459.812329 43.2 
L 459.812329 320.4 
L 278.187671 320.4 
"/>
  </clipPath>
 </defs>
</svg>
