<?xml version="1.0" encoding="utf-8" standalone="no"?>
<!DOCTYPE svg PUBLIC "-//W3C//DTD SVG 1.1//EN"
  "http://www.w3.org/Graphics/SVG/1.1/DTD/svg11.dtd">
<svg xmlns:xlink="http://www.w3.org/1999/xlink" width="720pt" height="360pt" viewBox="0 0 720 360" xmlns="http://www.w3.org/2000/svg" version="1.1">
 <metadata>
  <rdf:RDF xmlns:dc="http://purl.org/dc/elements/1.1/" xmlns:cc="http://creativecommons.org/ns#" xmlns:rdf="http://www.w3.org/1999/02/22-rdf-syntax-ns#">
   <cc:Work>
    <dc:type rdf:resource="http://purl.org/dc/dcmitype/StillImage"/>
    <dc:date>2023-11-30T21:30:48.911281</dc:date>
    <dc:format>image/svg+xml</dc:format>
    <dc:creator>
     <cc:Agent>
      <dc:title>Matplotlib v3.8.1, https://matplotlib.org/</dc:title>
     </cc:Agent>
    </dc:creator>
   </cc:Work>
  </rdf:RDF>
 </metadata>
 <defs>
  <style type="text/css">*{stroke-linejoin: round; stroke-linecap: butt}</style>
 </defs>
 <g id="figure_1">
  <g id="patch_1">
   <path d="M 0 360 
L 720 360 
L 720 0 
L 0 0 
z
" style="fill: #ffffff"/>
  </g>
  <g id="axes_1">
   <g id="patch_2">
    <path d="M 298.421158 320.4 
L 298.421158 43.2 
L 439.578842 43.2 
L 439.578842 320.4 
L 298.421158 320.4 
" style="fill: #ffffff"/>
   </g>
   <g id="line2d_1">
    <defs>
     <path id="mf2bbd880c2" d="M 0 10.434871 
C 2.76736 10.434871 5.421749 9.335387 7.378568 7.378568 
C 9.335387 5.421749 10.434871 2.76736 10.434871 0 
C 10.434871 -2.76736 9.335387 -5.421749 7.378568 -7.378568 
C 5.421749 -9.335387 2.76736 -10.434871 0 -10.434871 
C -2.76736 -10.434871 -5.421749 -9.335387 -7.378568 -7.378568 
C -9.335387 -5.421749 -10.434871 -2.76736 -10.434871 0 
C -10.434871 2.76736 -9.335387 5.421749 -7.378568 7.378568 
C -5.421749 9.335387 -2.76736 10.434871 0 10.434871 
z
" style="stroke: #000000"/>
    </defs>
    <g clip-path="url(#p59629873b6)">
     <use xlink:href="#mf2bbd880c2" x="360.593464" y="173.564651" style="stroke: #000000"/>
    </g>
   </g>
   <g id="line2d_2">
    <defs>
     <path id="mebd2d2bf2e" d="M 0 10.127752 
C 2.685911 10.127752 5.262176 9.060628 7.161402 7.161402 
C 9.060628 5.262176 10.127752 2.685911 10.127752 0 
C 10.127752 -2.685911 9.060628 -5.262176 7.161402 -7.161402 
C 5.262176 -9.060628 2.685911 -10.127752 0 -10.127752 
C -2.685911 -10.127752 -5.262176 -9.060628 -7.161402 -7.161402 
C -9.060628 -5.262176 -10.127752 -2.685911 -10.127752 0 
C -10.127752 2.685911 -9.060628 5.262176 -7.161402 7.161402 
C -5.262176 9.060628 -2.685911 10.127752 0 10.127752 
z
" style="stroke: #000000"/>
    </defs>
    <g clip-path="url(#p59629873b6)">
     <use xlink:href="#mebd2d2bf2e" x="357.288113" y="172.113022" style="stroke: #000000"/>
    </g>
   </g>
   <g id="line2d_3">
    <defs>
     <path id="m696b3bc7ca" d="M 0 8.90375 
C 2.361302 8.90375 4.626209 7.965595 6.295902 6.295902 
C 7.965595 4.626209 8.90375 2.361302 8.90375 0 
C 8.90375 -2.361302 7.965595 -4.626209 6.295902 -6.295902 
C 4.626209 -7.965595 2.361302 -8.90375 0 -8.90375 
C -2.361302 -8.90375 -4.626209 -7.965595 -6.295902 -6.295902 
C -7.965595 -4.626209 -8.90375 -2.361302 -8.90375 0 
C -8.90375 2.361302 -7.965595 4.626209 -6.295902 6.295902 
C -4.626209 7.965595 -2.361302 8.90375 0 8.90375 
z
" style="stroke: #000000"/>
    </defs>
    <g clip-path="url(#p59629873b6)">
     <use xlink:href="#m696b3bc7ca" x="422.673894" y="55.8" style="stroke: #000000"/>
    </g>
   </g>
   <g id="line2d_4">
    <defs>
     <path id="m0a79f984b8" d="M 0 8.659708 
C 2.296581 8.659708 4.49941 7.747267 6.123338 6.123338 
C 7.747267 4.49941 8.659708 2.296581 8.659708 0 
C 8.659708 -2.296581 7.747267 -4.49941 6.123338 -6.123338 
C 4.49941 -7.747267 2.296581 -8.659708 0 -8.659708 
C -2.296581 -8.659708 -4.49941 -7.747267 -6.123338 -6.123338 
C -7.747267 -4.49941 -8.659708 -2.296581 -8.659708 0 
C -8.659708 2.296581 -7.747267 4.49941 -6.123338 6.123338 
C -4.49941 7.747267 -2.296581 8.659708 0 8.659708 
z
" style="stroke: #000000"/>
    </defs>
    <g clip-path="url(#p59629873b6)">
     <use xlink:href="#m0a79f984b8" x="337.019282" y="246.392372" style="stroke: #000000"/>
    </g>
   </g>
   <g id="line2d_5">
    <defs>
     <path id="m85449a4315" d="M 0 8.522394 
C 2.260165 8.522394 4.428065 7.624421 6.026243 6.026243 
C 7.624421 4.428065 8.522394 2.260165 8.522394 0 
C 8.522394 -2.260165 7.624421 -4.428065 6.026243 -6.026243 
C 4.428065 -7.624421 2.260165 -8.522394 0 -8.522394 
C -2.260165 -8.522394 -4.428065 -7.624421 -6.026243 -6.026243 
C -7.624421 -4.428065 -8.522394 -2.260165 -8.522394 0 
C -8.522394 2.260165 -7.624421 4.428065 -6.026243 6.026243 
C -4.428065 7.624421 -2.260165 8.522394 0 8.522394 
z
" style="stroke: #000000"/>
    </defs>
    <g clip-path="url(#p59629873b6)">
     <use xlink:href="#m85449a4315" x="304.837417" y="307.8" style="stroke: #000000"/>
    </g>
   </g>
   <g id="line2d_6">
    <defs>
     <path id="mf63be06845" d="M 0 8.436343 
C 2.237344 8.436343 4.383354 7.547437 5.965396 5.965396 
C 7.547437 4.383354 8.436343 2.237344 8.436343 0 
C 8.436343 -2.237344 7.547437 -4.383354 5.965396 -5.965396 
C 4.383354 -7.547437 2.237344 -8.436343 0 -8.436343 
C -2.237344 -8.436343 -4.383354 -7.547437 -5.965396 -5.965396 
C -7.547437 -4.383354 -8.436343 -2.237344 -8.436343 0 
C -8.436343 2.237344 -7.547437 4.383354 -5.965396 5.965396 
C -4.383354 7.547437 -2.237344 8.436343 0 8.436343 
z
" style="stroke: #000000"/>
    </defs>
    <g clip-path="url(#p59629873b6)">
     <use xlink:href="#mf63be06845" x="357.389593" y="285.01351" style="stroke: #000000"/>
    </g>
   </g>
   <g id="line2d_7">
    <defs>
     <path id="m68ee17b7d1" d="M 0 8.293435 
C 2.199445 8.293435 4.309102 7.419586 5.864344 5.864344 
C 7.419586 4.309102 8.293435 2.199445 8.293435 0 
C 8.293435 -2.199445 7.419586 -4.309102 5.864344 -5.864344 
C 4.309102 -7.419586 2.199445 -8.293435 0 -8.293435 
C -2.199445 -8.293435 -4.309102 -7.419586 -5.864344 -5.864344 
C -7.419586 -4.309102 -8.293435 -2.199445 -8.293435 0 
C -8.293435 2.199445 -7.419586 4.309102 -5.864344 5.864344 
C -4.309102 7.419586 -2.199445 8.293435 0 8.293435 
z
" style="stroke: #000000"/>
    </defs>
    <g clip-path="url(#p59629873b6)">
     <use xlink:href="#m68ee17b7d1" x="356.990922" y="278.878241" style="stroke: #000000"/>
    </g>
   </g>
   <g id="line2d_8">
    <defs>
     <path id="m3a7f84f9ba" d="M 0 8.277744 
C 2.195283 8.277744 4.300949 7.405549 5.853249 5.853249 
C 7.405549 4.300949 8.277744 2.195283 8.277744 0 
C 8.277744 -2.195283 7.405549 -4.300949 5.853249 -5.853249 
C 4.300949 -7.405549 2.195283 -8.277744 0 -8.277744 
C -2.195283 -8.277744 -4.300949 -7.405549 -5.853249 -5.853249 
C -7.405549 -4.300949 -8.277744 -2.195283 -8.277744 0 
C -8.277744 2.195283 -7.405549 4.300949 -5.853249 5.853249 
C -4.300949 7.405549 -2.195283 8.277744 0 8.277744 
z
" style="stroke: #000000"/>
    </defs>
    <g clip-path="url(#p59629873b6)">
     <use xlink:href="#m3a7f84f9ba" x="381.65239" y="154.538764" style="stroke: #000000"/>
    </g>
   </g>
   <g id="line2d_9">
    <defs>
     <path id="m9e8ccc14a8" d="M 0 8.126942 
C 2.15529 8.126942 4.222596 7.270636 5.746616 5.746616 
C 7.270636 4.222596 8.126942 2.15529 8.126942 0 
C 8.126942 -2.15529 7.270636 -4.222596 5.746616 -5.746616 
C 4.222596 -7.270636 2.15529 -8.126942 0 -8.126942 
C -2.15529 -8.126942 -4.222596 -7.270636 -5.746616 -5.746616 
C -7.270636 -4.222596 -8.126942 -2.15529 -8.126942 0 
C -8.126942 2.15529 -7.270636 4.222596 -5.746616 5.746616 
C -4.222596 7.270636 -2.15529 8.126942 0 8.126942 
z
" style="stroke: #000000"/>
    </defs>
    <g clip-path="url(#p59629873b6)">
     <use xlink:href="#m9e8ccc14a8" x="433.162583" y="183.681581" style="stroke: #000000"/>
    </g>
   </g>
   <g id="line2d_10">
    <defs>
     <path id="m28c2801095" d="M 0 7.804835 
C 2.069866 7.804835 4.055235 6.982468 5.518852 5.518852 
C 6.982468 4.055235 7.804835 2.069866 7.804835 0 
C 7.804835 -2.069866 6.982468 -4.055235 5.518852 -5.518852 
C 4.055235 -6.982468 2.069866 -7.804835 0 -7.804835 
C -2.069866 -7.804835 -4.055235 -6.982468 -5.518852 -5.518852 
C -6.982468 -4.055235 -7.804835 -2.069866 -7.804835 0 
C -7.804835 2.069866 -6.982468 4.055235 -5.518852 5.518852 
C -4.055235 6.982468 -2.069866 7.804835 0 7.804835 
z
" style="stroke: #000000"/>
    </defs>
    <g clip-path="url(#p59629873b6)">
     <use xlink:href="#m28c2801095" x="336.549937" y="255.050304" style="stroke: #000000"/>
    </g>
   </g>
  </g>
 </g>
 <defs>
  <clipPath id="p59629873b6">
   <path d="M 298.421158 320.4 
L 298.421158 43.2 
L 439.578842 43.2 
L 439.578842 320.4 
L 298.421158 320.4 
"/>
  </clipPath>
 </defs>
</svg>
