<?xml version="1.0" encoding="utf-8" standalone="no"?>
<!DOCTYPE svg PUBLIC "-//W3C//DTD SVG 1.1//EN"
  "http://www.w3.org/Graphics/SVG/1.1/DTD/svg11.dtd">
<svg xmlns:xlink="http://www.w3.org/1999/xlink" width="720pt" height="360pt" viewBox="0 0 720 360" xmlns="http://www.w3.org/2000/svg" version="1.1">
 <metadata>
  <rdf:RDF xmlns:dc="http://purl.org/dc/elements/1.1/" xmlns:cc="http://creativecommons.org/ns#" xmlns:rdf="http://www.w3.org/1999/02/22-rdf-syntax-ns#">
   <cc:Work>
    <dc:type rdf:resource="http://purl.org/dc/dcmitype/StillImage"/>
    <dc:date>2023-11-30T21:30:52.770887</dc:date>
    <dc:format>image/svg+xml</dc:format>
    <dc:creator>
     <cc:Agent>
      <dc:title>Matplotlib v3.8.1, https://matplotlib.org/</dc:title>
     </cc:Agent>
    </dc:creator>
   </cc:Work>
  </rdf:RDF>
 </metadata>
 <defs>
  <style type="text/css">*{stroke-linejoin: round; stroke-linecap: butt}</style>
 </defs>
 <g id="figure_1">
  <g id="patch_1">
   <path d="M 0 360 
L 720 360 
L 720 0 
L 0 0 
z
" style="fill: #ffffff"/>
  </g>
  <g id="axes_1">
   <g id="patch_2">
    <path d="M 301.96906 320.4 
L 301.96906 43.2 
L 436.03094 43.2 
L 436.03094 320.4 
L 301.96906 320.4 
" style="fill: #ffffff"/>
   </g>
   <g id="line2d_1">
    <defs>
     <path id="m1a649b8172" d="M 0 7.143892 
C 1.894582 7.143892 3.711823 6.391167 5.051495 5.051495 
C 6.391167 3.711823 7.143892 1.894582 7.143892 0 
C 7.143892 -1.894582 6.391167 -3.711823 5.051495 -5.051495 
C 3.711823 -6.391167 1.894582 -7.143892 0 -7.143892 
C -1.894582 -7.143892 -3.711823 -6.391167 -5.051495 -5.051495 
C -6.391167 -3.711823 -7.143892 -1.894582 -7.143892 0 
C -7.143892 1.894582 -6.391167 3.711823 -5.051495 5.051495 
C -3.711823 6.391167 -1.894582 7.143892 0 7.143892 
z
" style="stroke: #000000"/>
    </defs>
    <g clip-path="url(#p2366e27e51)">
     <use xlink:href="#m1a649b8172" x="349.17527" y="106.929647" style="stroke: #000000"/>
    </g>
   </g>
   <g id="line2d_2">
    <defs>
     <path id="mcaec53a4d1" d="M 0 6.832057 
C 1.811883 6.832057 3.549799 6.112188 4.830994 4.830994 
C 6.112188 3.549799 6.832057 1.811883 6.832057 0 
C 6.832057 -1.811883 6.112188 -3.549799 4.830994 -4.830994 
C 3.549799 -6.112188 1.811883 -6.832057 0 -6.832057 
C -1.811883 -6.832057 -3.549799 -6.112188 -4.830994 -4.830994 
C -6.112188 -3.549799 -6.832057 -1.811883 -6.832057 0 
C -6.832057 1.811883 -6.112188 3.549799 -4.830994 4.830994 
C -3.549799 6.112188 -1.811883 6.832057 0 6.832057 
z
" style="stroke: #000000"/>
    </defs>
    <g clip-path="url(#p2366e27e51)">
     <use xlink:href="#mcaec53a4d1" x="371.465343" y="86.334186" style="stroke: #000000"/>
    </g>
   </g>
   <g id="line2d_3">
    <defs>
     <path id="mc384480595" d="M 0 6.079778 
C 1.612376 6.079778 3.15893 5.439174 4.299052 4.299052 
C 5.439174 3.15893 6.079778 1.612376 6.079778 0 
C 6.079778 -1.612376 5.439174 -3.15893 4.299052 -4.299052 
C 3.15893 -5.439174 1.612376 -6.079778 0 -6.079778 
C -1.612376 -6.079778 -3.15893 -5.439174 -4.299052 -4.299052 
C -5.439174 -3.15893 -6.079778 -1.612376 -6.079778 0 
C -6.079778 1.612376 -5.439174 3.15893 -4.299052 4.299052 
C -3.15893 5.439174 -1.612376 6.079778 0 6.079778 
z
" style="stroke: #000000"/>
    </defs>
    <g clip-path="url(#p2366e27e51)">
     <use xlink:href="#mc384480595" x="388.662953" y="307.8" style="stroke: #000000"/>
    </g>
   </g>
   <g id="line2d_4">
    <defs>
     <path id="m308071d660" d="M 0 5.867143 
C 1.555985 5.867143 3.048449 5.248944 4.148697 4.148697 
C 5.248944 3.048449 5.867143 1.555985 5.867143 0 
C 5.867143 -1.555985 5.248944 -3.048449 4.148697 -4.148697 
C 3.048449 -5.248944 1.555985 -5.867143 0 -5.867143 
C -1.555985 -5.867143 -3.048449 -5.248944 -4.148697 -4.148697 
C -5.248944 -3.048449 -5.867143 -1.555985 -5.867143 0 
C -5.867143 1.555985 -5.248944 3.048449 -4.148697 4.148697 
C -3.048449 5.248944 -1.555985 5.867143 0 5.867143 
z
" style="stroke: #000000"/>
    </defs>
    <g clip-path="url(#p2366e27e51)">
     <use xlink:href="#m308071d660" x="423.831891" y="235.839262" style="stroke: #000000"/>
    </g>
   </g>
   <g id="line2d_5">
    <defs>
     <path id="md247c14f84" d="M 0 5.755629 
C 1.526411 5.755629 2.990509 5.14918 4.069844 4.069844 
C 5.14918 2.990509 5.755629 1.526411 5.755629 0 
C 5.755629 -1.526411 5.14918 -2.990509 4.069844 -4.069844 
C 2.990509 -5.14918 1.526411 -5.755629 0 -5.755629 
C -1.526411 -5.755629 -2.990509 -5.14918 -4.069844 -4.069844 
C -5.14918 -2.990509 -5.755629 -1.526411 -5.755629 0 
C -5.755629 1.526411 -5.14918 2.990509 -4.069844 4.069844 
C -2.990509 5.14918 -1.526411 5.755629 0 5.755629 
z
" style="stroke: #000000"/>
    </defs>
    <g clip-path="url(#p2366e27e51)">
     <use xlink:href="#md247c14f84" x="313.682778" y="207.413363" style="stroke: #000000"/>
    </g>
   </g>
   <g id="line2d_6">
    <defs>
     <path id="m1b5fedb470" d="M 0 5.743669 
C 1.523239 5.743669 2.984295 5.13848 4.061387 4.061387 
C 5.13848 2.984295 5.743669 1.523239 5.743669 0 
C 5.743669 -1.523239 5.13848 -2.984295 4.061387 -4.061387 
C 2.984295 -5.13848 1.523239 -5.743669 0 -5.743669 
C -1.523239 -5.743669 -2.984295 -5.13848 -4.061387 -4.061387 
C -5.13848 -2.984295 -5.743669 -1.523239 -5.743669 0 
C -5.743669 1.523239 -5.13848 2.984295 -4.061387 4.061387 
C -2.984295 5.13848 -1.523239 5.743669 0 5.743669 
z
" style="stroke: #000000"/>
    </defs>
    <g clip-path="url(#p2366e27e51)">
     <use xlink:href="#m1b5fedb470" x="429.937218" y="165.705028" style="stroke: #000000"/>
    </g>
   </g>
   <g id="line2d_7">
    <defs>
     <path id="m3a46fb579c" d="M 0 5.603202 
C 1.485987 5.603202 2.911311 5.012813 3.962062 3.962062 
C 5.012813 2.911311 5.603202 1.485987 5.603202 0 
C 5.603202 -1.485987 5.012813 -2.911311 3.962062 -3.962062 
C 2.911311 -5.012813 1.485987 -5.603202 0 -5.603202 
C -1.485987 -5.603202 -2.911311 -5.012813 -3.962062 -3.962062 
C -5.012813 -2.911311 -5.603202 -1.485987 -5.603202 0 
C -5.603202 1.485987 -5.012813 2.911311 -3.962062 3.962062 
C -2.911311 5.012813 -1.485987 5.603202 0 5.603202 
z
" style="stroke: #000000"/>
    </defs>
    <g clip-path="url(#p2366e27e51)">
     <use xlink:href="#m3a46fb579c" x="388.662953" y="55.8" style="stroke: #000000"/>
    </g>
   </g>
   <g id="line2d_8">
    <defs>
     <path id="md37d527315" d="M 0 5.448545 
C 1.444971 5.448545 2.830954 4.874452 3.852703 3.852703 
C 4.874452 2.830954 5.448545 1.444971 5.448545 0 
C 5.448545 -1.444971 4.874452 -2.830954 3.852703 -3.852703 
C 2.830954 -4.874452 1.444971 -5.448545 0 -5.448545 
C -1.444971 -5.448545 -2.830954 -4.874452 -3.852703 -3.852703 
C -4.874452 -2.830954 -5.448545 -1.444971 -5.448545 0 
C -5.448545 1.444971 -4.874452 2.830954 -3.852703 3.852703 
C -2.830954 4.874452 -1.444971 5.448545 0 5.448545 
z
" style="stroke: #000000"/>
    </defs>
    <g clip-path="url(#p2366e27e51)">
     <use xlink:href="#md37d527315" x="425.822453" y="193.526156" style="stroke: #000000"/>
    </g>
   </g>
   <g id="line2d_9">
    <defs>
     <path id="m4f2e879b50" d="M 0 5.431706 
C 1.440505 5.431706 2.822205 4.859387 3.840796 3.840796 
C 4.859387 2.822205 5.431706 1.440505 5.431706 0 
C 5.431706 -1.440505 4.859387 -2.822205 3.840796 -3.840796 
C 2.822205 -4.859387 1.440505 -5.431706 0 -5.431706 
C -1.440505 -5.431706 -2.822205 -4.859387 -3.840796 -3.840796 
C -4.859387 -2.822205 -5.431706 -1.440505 -5.431706 0 
C -5.431706 1.440505 -4.859387 2.822205 -3.840796 3.840796 
C -2.822205 4.859387 -1.440505 5.431706 0 5.431706 
z
" style="stroke: #000000"/>
    </defs>
    <g clip-path="url(#p2366e27e51)">
     <use xlink:href="#m4f2e879b50" x="308.062782" y="174.237628" style="stroke: #000000"/>
    </g>
   </g>
   <g id="line2d_10">
    <defs>
     <path id="m7d964a0e75" d="M 0 5.147884 
C 1.365235 5.147884 2.674737 4.605471 3.640104 3.640104 
C 4.605471 2.674737 5.147884 1.365235 5.147884 0 
C 5.147884 -1.365235 4.605471 -2.674737 3.640104 -3.640104 
C 2.674737 -4.605471 1.365235 -5.147884 0 -5.147884 
C -1.365235 -5.147884 -2.674737 -4.605471 -3.640104 -3.640104 
C -4.605471 -2.674737 -5.147884 -1.365235 -5.147884 0 
C -5.147884 1.365235 -4.605471 2.674737 -3.640104 3.640104 
C -2.674737 4.605471 -1.365235 5.147884 0 5.147884 
z
" style="stroke: #000000"/>
    </defs>
    <g clip-path="url(#p2366e27e51)">
     <use xlink:href="#m7d964a0e75" x="326.209954" y="142.589176" style="stroke: #000000"/>
    </g>
   </g>
  </g>
 </g>
 <defs>
  <clipPath id="p2366e27e51">
   <path d="M 301.96906 320.4 
L 301.96906 43.2 
L 436.03094 43.2 
L 436.03094 320.4 
L 301.96906 320.4 
"/>
  </clipPath>
 </defs>
</svg>
