<?xml version="1.0" encoding="utf-8" standalone="no"?>
<!DOCTYPE svg PUBLIC "-//W3C//DTD SVG 1.1//EN"
  "http://www.w3.org/Graphics/SVG/1.1/DTD/svg11.dtd">
<svg xmlns:xlink="http://www.w3.org/1999/xlink" width="720pt" height="360pt" viewBox="0 0 720 360" xmlns="http://www.w3.org/2000/svg" version="1.1">
 <metadata>
  <rdf:RDF xmlns:dc="http://purl.org/dc/elements/1.1/" xmlns:cc="http://creativecommons.org/ns#" xmlns:rdf="http://www.w3.org/1999/02/22-rdf-syntax-ns#">
   <cc:Work>
    <dc:type rdf:resource="http://purl.org/dc/dcmitype/StillImage"/>
    <dc:date>2023-11-30T21:30:53.643663</dc:date>
    <dc:format>image/svg+xml</dc:format>
    <dc:creator>
     <cc:Agent>
      <dc:title>Matplotlib v3.8.1, https://matplotlib.org/</dc:title>
     </cc:Agent>
    </dc:creator>
   </cc:Work>
  </rdf:RDF>
 </metadata>
 <defs>
  <style type="text/css">*{stroke-linejoin: round; stroke-linecap: butt}</style>
 </defs>
 <g id="figure_1">
  <g id="patch_1">
   <path d="M 0 360 
L 720 360 
L 720 0 
L 0 0 
z
" style="fill: #ffffff"/>
  </g>
  <g id="axes_1">
   <g id="patch_2">
    <path d="M 344.570934 320.4 
L 344.570934 43.2 
L 393.429066 43.2 
L 393.429066 320.4 
L 344.570934 320.4 
" style="fill: #ffffff"/>
   </g>
   <g id="line2d_1">
    <defs>
     <path id="me5b620d6b5" d="M 0 6.244548 
C 1.656073 6.244548 3.244541 5.586583 4.415562 4.415562 
C 5.586583 3.244541 6.244548 1.656073 6.244548 0 
C 6.244548 -1.656073 5.586583 -3.244541 4.415562 -4.415562 
C 3.244541 -5.586583 1.656073 -6.244548 0 -6.244548 
C -1.656073 -6.244548 -3.244541 -5.586583 -4.415562 -4.415562 
C -5.586583 -3.244541 -6.244548 -1.656073 -6.244548 0 
C -6.244548 1.656073 -5.586583 3.244541 -4.415562 4.415562 
C -3.244541 5.586583 -1.656073 6.244548 0 6.244548 
z
" style="stroke: #000000"/>
    </defs>
    <g clip-path="url(#p3fa59e65d7)">
     <use xlink:href="#me5b620d6b5" x="352.972141" y="163.280158" style="stroke: #000000"/>
    </g>
   </g>
   <g id="line2d_2">
    <defs>
     <path id="m1d0800c0b6" d="M 0 6.17187 
C 1.636799 6.17187 3.20678 5.521563 4.364171 4.364171 
C 5.521563 3.20678 6.17187 1.636799 6.17187 0 
C 6.17187 -1.636799 5.521563 -3.20678 4.364171 -4.364171 
C 3.20678 -5.521563 1.636799 -6.17187 0 -6.17187 
C -1.636799 -6.17187 -3.20678 -5.521563 -4.364171 -4.364171 
C -5.521563 -3.20678 -6.17187 -1.636799 -6.17187 0 
C -6.17187 1.636799 -5.521563 3.20678 -4.364171 4.364171 
C -3.20678 5.521563 -1.636799 6.17187 0 6.17187 
z
" style="stroke: #000000"/>
    </defs>
    <g clip-path="url(#p3fa59e65d7)">
     <use xlink:href="#m1d0800c0b6" x="365.884726" y="197.799455" style="stroke: #000000"/>
    </g>
   </g>
   <g id="line2d_3">
    <defs>
     <path id="m9cb5b75731" d="M 0 6.099529 
C 1.617614 6.099529 3.169193 5.456845 4.313019 4.313019 
C 5.456845 3.169193 6.099529 1.617614 6.099529 0 
C 6.099529 -1.617614 5.456845 -3.169193 4.313019 -4.313019 
C 3.169193 -5.456845 1.617614 -6.099529 0 -6.099529 
C -1.617614 -6.099529 -3.169193 -5.456845 -4.313019 -4.313019 
C -5.456845 -3.169193 -6.099529 -1.617614 -6.099529 0 
C -6.099529 1.617614 -5.456845 3.169193 -4.313019 4.313019 
C -3.169193 5.456845 -1.617614 6.099529 0 6.099529 
z
" style="stroke: #000000"/>
    </defs>
    <g clip-path="url(#p3fa59e65d7)">
     <use xlink:href="#m9cb5b75731" x="372.516598" y="247.764227" style="stroke: #000000"/>
    </g>
   </g>
   <g id="line2d_4">
    <defs>
     <path id="m1ed07e3f6e" d="M 0 6.059471 
C 1.60699 6.059471 3.148379 5.421006 4.284693 4.284693 
C 5.421006 3.148379 6.059471 1.60699 6.059471 0 
C 6.059471 -1.60699 5.421006 -3.148379 4.284693 -4.284693 
C 3.148379 -5.421006 1.60699 -6.059471 0 -6.059471 
C -1.60699 -6.059471 -3.148379 -5.421006 -4.284693 -4.284693 
C -5.421006 -3.148379 -6.059471 -1.60699 -6.059471 0 
C -6.059471 1.60699 -5.421006 3.148379 -4.284693 4.284693 
C -3.148379 5.421006 -1.60699 6.059471 0 6.059471 
z
" style="stroke: #000000"/>
    </defs>
    <g clip-path="url(#p3fa59e65d7)">
     <use xlink:href="#m1ed07e3f6e" x="346.791758" y="307.8" style="stroke: #000000"/>
    </g>
   </g>
   <g id="line2d_5">
    <defs>
     <path id="m81ee3f8275" d="M 0 5.984513 
C 1.587111 5.984513 3.109433 5.353947 4.23169 4.23169 
C 5.353947 3.109433 5.984513 1.587111 5.984513 0 
C 5.984513 -1.587111 5.353947 -3.109433 4.23169 -4.23169 
C 3.109433 -5.353947 1.587111 -5.984513 0 -5.984513 
C -1.587111 -5.984513 -3.109433 -5.353947 -4.23169 -4.23169 
C -5.353947 -3.109433 -5.984513 -1.587111 -5.984513 0 
C -5.984513 1.587111 -5.353947 3.109433 -4.23169 4.23169 
C -3.109433 5.353947 -1.587111 5.984513 0 5.984513 
z
" style="stroke: #000000"/>
    </defs>
    <g clip-path="url(#p3fa59e65d7)">
     <use xlink:href="#m81ee3f8275" x="366.577009" y="95.977105" style="stroke: #000000"/>
    </g>
   </g>
   <g id="line2d_6">
    <defs>
     <path id="m52bf5a69e0" d="M 0 5.912281 
C 1.567955 5.912281 3.071902 5.289325 4.180614 4.180614 
C 5.289325 3.071902 5.912281 1.567955 5.912281 0 
C 5.912281 -1.567955 5.289325 -3.071902 4.180614 -4.180614 
C 3.071902 -5.289325 1.567955 -5.912281 0 -5.912281 
C -1.567955 -5.912281 -3.071902 -5.289325 -4.180614 -4.180614 
C -5.289325 -3.071902 -5.912281 -1.567955 -5.912281 0 
C -5.912281 1.567955 -5.289325 3.071902 -4.180614 4.180614 
C -3.071902 5.289325 -1.567955 5.912281 0 5.912281 
z
" style="stroke: #000000"/>
    </defs>
    <g clip-path="url(#p3fa59e65d7)">
     <use xlink:href="#m52bf5a69e0" x="388.619705" y="85.169035" style="stroke: #000000"/>
    </g>
   </g>
   <g id="line2d_7">
    <defs>
     <path id="mb899ce7e85" d="M 0 5.696695 
C 1.510781 5.696695 2.959888 5.096455 4.028172 4.028172 
C 5.096455 2.959888 5.696695 1.510781 5.696695 0 
C 5.696695 -1.510781 5.096455 -2.959888 4.028172 -4.028172 
C 2.959888 -5.096455 1.510781 -5.696695 0 -5.696695 
C -1.510781 -5.696695 -2.959888 -5.096455 -4.028172 -4.028172 
C -5.096455 -2.959888 -5.696695 -1.510781 -5.696695 0 
C -5.696695 1.510781 -5.096455 2.959888 -4.028172 4.028172 
C -2.959888 5.096455 -1.510781 5.696695 0 5.696695 
z
" style="stroke: #000000"/>
    </defs>
    <g clip-path="url(#p3fa59e65d7)">
     <use xlink:href="#mb899ce7e85" x="386.382326" y="232.141744" style="stroke: #000000"/>
    </g>
   </g>
   <g id="line2d_8">
    <defs>
     <path id="me5e3affc04" d="M 0 5.431706 
C 1.440505 5.431706 2.822205 4.859387 3.840796 3.840796 
C 4.859387 2.822205 5.431706 1.440505 5.431706 0 
C 5.431706 -1.440505 4.859387 -2.822205 3.840796 -3.840796 
C 2.822205 -4.859387 1.440505 -5.431706 0 -5.431706 
C -1.440505 -5.431706 -2.822205 -4.859387 -3.840796 -3.840796 
C -4.859387 -2.822205 -5.431706 -1.440505 -5.431706 0 
C -5.431706 1.440505 -4.859387 2.822205 -3.840796 3.840796 
C -2.822205 4.859387 -1.440505 5.431706 0 5.431706 
z
" style="stroke: #000000"/>
    </defs>
    <g clip-path="url(#p3fa59e65d7)">
     <use xlink:href="#me5e3affc04" x="369.757498" y="55.8" style="stroke: #000000"/>
    </g>
   </g>
   <g id="line2d_9">
    <defs>
     <path id="m2dd2221bef" d="M 0 5.154738 
C 1.367053 5.154738 2.678298 4.611602 3.64495 3.64495 
C 4.611602 2.678298 5.154738 1.367053 5.154738 0 
C 5.154738 -1.367053 4.611602 -2.678298 3.64495 -3.64495 
C 2.678298 -4.611602 1.367053 -5.154738 0 -5.154738 
C -1.367053 -5.154738 -2.678298 -4.611602 -3.64495 -3.64495 
C -4.611602 -2.678298 -5.154738 -1.367053 -5.154738 0 
C -5.154738 1.367053 -4.611602 2.678298 -3.64495 3.64495 
C -2.678298 4.611602 -1.367053 5.154738 0 5.154738 
z
" style="stroke: #000000"/>
    </defs>
    <g clip-path="url(#p3fa59e65d7)">
     <use xlink:href="#m2dd2221bef" x="353.654391" y="81.73782" style="stroke: #000000"/>
    </g>
   </g>
   <g id="line2d_10">
    <defs>
     <path id="m37129446bc" d="M 0 4.98649 
C 1.322433 4.98649 2.59088 4.461082 3.525981 3.525981 
C 4.461082 2.59088 4.98649 1.322433 4.98649 0 
C 4.98649 -1.322433 4.461082 -2.59088 3.525981 -3.525981 
C 2.59088 -4.461082 1.322433 -4.98649 0 -4.98649 
C -1.322433 -4.98649 -2.59088 -4.461082 -3.525981 -3.525981 
C -4.461082 -2.59088 -4.98649 -1.322433 -4.98649 0 
C -4.98649 1.322433 -4.461082 2.59088 -3.525981 3.525981 
C -2.59088 4.461082 -1.322433 4.98649 0 4.98649 
z
" style="stroke: #000000"/>
    </defs>
    <g clip-path="url(#p3fa59e65d7)">
     <use xlink:href="#m37129446bc" x="391.208242" y="65.757849" style="stroke: #000000"/>
    </g>
   </g>
  </g>
 </g>
 <defs>
  <clipPath id="p3fa59e65d7">
   <path d="M 344.570934 320.4 
L 344.570934 43.2 
L 393.429066 43.2 
L 393.429066 320.4 
L 344.570934 320.4 
"/>
  </clipPath>
 </defs>
</svg>
