<?xml version="1.0" encoding="utf-8" standalone="no"?>
<!DOCTYPE svg PUBLIC "-//W3C//DTD SVG 1.1//EN"
  "http://www.w3.org/Graphics/SVG/1.1/DTD/svg11.dtd">
<svg xmlns:xlink="http://www.w3.org/1999/xlink" width="720pt" height="360pt" viewBox="0 0 720 360" xmlns="http://www.w3.org/2000/svg" version="1.1">
 <metadata>
  <rdf:RDF xmlns:dc="http://purl.org/dc/elements/1.1/" xmlns:cc="http://creativecommons.org/ns#" xmlns:rdf="http://www.w3.org/1999/02/22-rdf-syntax-ns#">
   <cc:Work>
    <dc:type rdf:resource="http://purl.org/dc/dcmitype/StillImage"/>
    <dc:date>2023-11-30T21:30:48.957085</dc:date>
    <dc:format>image/svg+xml</dc:format>
    <dc:creator>
     <cc:Agent>
      <dc:title>Matplotlib v3.8.1, https://matplotlib.org/</dc:title>
     </cc:Agent>
    </dc:creator>
   </cc:Work>
  </rdf:RDF>
 </metadata>
 <defs>
  <style type="text/css">*{stroke-linejoin: round; stroke-linecap: butt}</style>
 </defs>
 <g id="figure_1">
  <g id="patch_1">
   <path d="M 0 360 
L 720 360 
L 720 0 
L 0 0 
z
" style="fill: #ffffff"/>
  </g>
  <g id="axes_1">
   <g id="patch_2">
    <path d="M 302.571767 320.4 
L 302.571767 43.2 
L 435.428233 43.2 
L 435.428233 320.4 
L 302.571767 320.4 
" style="fill: #ffffff"/>
   </g>
   <g id="line2d_1">
    <defs>
     <path id="mcd8c78b0e8" d="M 0 9.652856 
C 2.559967 9.652856 5.01543 8.63577 6.8256 6.8256 
C 8.63577 5.01543 9.652856 2.559967 9.652856 0 
C 9.652856 -2.559967 8.63577 -5.01543 6.8256 -6.8256 
C 5.01543 -8.63577 2.559967 -9.652856 0 -9.652856 
C -2.559967 -9.652856 -5.01543 -8.63577 -6.8256 -6.8256 
C -8.63577 -5.01543 -9.652856 -2.559967 -9.652856 0 
C -9.652856 2.559967 -8.63577 5.01543 -6.8256 6.8256 
C -5.01543 8.63577 -2.559967 9.652856 0 9.652856 
z
" style="stroke: #000000"/>
    </defs>
    <g clip-path="url(#p87c3d7d716)">
     <use xlink:href="#mcd8c78b0e8" x="309.727364" y="293.705582" style="stroke: #000000"/>
    </g>
   </g>
   <g id="line2d_2">
    <defs>
     <path id="m3e526afac2" d="M 0 8.873008 
C 2.353149 8.873008 4.610236 7.938092 6.274164 6.274164 
C 7.938092 4.610236 8.873008 2.353149 8.873008 0 
C 8.873008 -2.353149 7.938092 -4.610236 6.274164 -6.274164 
C 4.610236 -7.938092 2.353149 -8.873008 0 -8.873008 
C -2.353149 -8.873008 -4.610236 -7.938092 -6.274164 -6.274164 
C -7.938092 -4.610236 -8.873008 -2.353149 -8.873008 0 
C -8.873008 2.353149 -7.938092 4.610236 -6.274164 6.274164 
C -4.610236 7.938092 -2.353149 8.873008 0 8.873008 
z
" style="stroke: #000000"/>
    </defs>
    <g clip-path="url(#p87c3d7d716)">
     <use xlink:href="#m3e526afac2" x="311.676329" y="301.972156" style="stroke: #000000"/>
    </g>
   </g>
   <g id="line2d_3">
    <defs>
     <path id="m5807597226" d="M 0 8.787873 
C 2.330571 8.787873 4.566002 7.861927 6.213965 6.213965 
C 7.861927 4.566002 8.787873 2.330571 8.787873 0 
C 8.787873 -2.330571 7.861927 -4.566002 6.213965 -6.213965 
C 4.566002 -7.861927 2.330571 -8.787873 0 -8.787873 
C -2.330571 -8.787873 -4.566002 -7.861927 -6.213965 -6.213965 
C -7.861927 -4.566002 -8.787873 -2.330571 -8.787873 0 
C -8.787873 2.330571 -7.861927 4.566002 -6.213965 6.213965 
C -4.566002 7.861927 -2.330571 8.787873 0 8.787873 
z
" style="stroke: #000000"/>
    </defs>
    <g clip-path="url(#p87c3d7d716)">
     <use xlink:href="#m5807597226" x="316.474181" y="301.294688" style="stroke: #000000"/>
    </g>
   </g>
   <g id="line2d_4">
    <defs>
     <path id="m4f3d27b96c" d="M 0 8.683771 
C 2.302963 8.683771 4.511913 7.768794 6.140354 6.140354 
C 7.768794 4.511913 8.683771 2.302963 8.683771 0 
C 8.683771 -2.302963 7.768794 -4.511913 6.140354 -6.140354 
C 4.511913 -7.768794 2.302963 -8.683771 0 -8.683771 
C -2.302963 -8.683771 -4.511913 -7.768794 -6.140354 -6.140354 
C -7.768794 -4.511913 -8.683771 -2.302963 -8.683771 0 
C -8.683771 2.302963 -7.768794 4.511913 -6.140354 6.140354 
C -4.511913 7.768794 -2.302963 8.683771 0 8.683771 
z
" style="stroke: #000000"/>
    </defs>
    <g clip-path="url(#p87c3d7d716)">
     <use xlink:href="#m4f3d27b96c" x="323.489761" y="55.8" style="stroke: #000000"/>
    </g>
   </g>
   <g id="line2d_5">
    <defs>
     <path id="mb554e7175a" d="M 0 8.680256 
C 2.302031 8.680256 4.510086 7.76565 6.137868 6.137868 
C 7.76565 4.510086 8.680256 2.302031 8.680256 0 
C 8.680256 -2.302031 7.76565 -4.510086 6.137868 -6.137868 
C 4.510086 -7.76565 2.302031 -8.680256 0 -8.680256 
C -2.302031 -8.680256 -4.510086 -7.76565 -6.137868 -6.137868 
C -7.76565 -4.510086 -8.680256 -2.302031 -8.680256 0 
C -8.680256 2.302031 -7.76565 4.510086 -6.137868 6.137868 
C -4.510086 7.76565 -2.302031 8.680256 0 8.680256 
z
" style="stroke: #000000"/>
    </defs>
    <g clip-path="url(#p87c3d7d716)">
     <use xlink:href="#mb554e7175a" x="312.581453" y="307.8" style="stroke: #000000"/>
    </g>
   </g>
   <g id="line2d_6">
    <defs>
     <path id="ma49d2e3255" d="M 0 8.533087 
C 2.263001 8.533087 4.43362 7.633987 6.033803 6.033803 
C 7.633987 4.43362 8.533087 2.263001 8.533087 0 
C 8.533087 -2.263001 7.633987 -4.43362 6.033803 -6.033803 
C 4.43362 -7.633987 2.263001 -8.533087 0 -8.533087 
C -2.263001 -8.533087 -4.43362 -7.633987 -6.033803 -6.033803 
C -7.633987 -4.43362 -8.533087 -2.263001 -8.533087 0 
C -8.533087 2.263001 -7.633987 4.43362 -6.033803 6.033803 
C -4.43362 7.633987 -2.263001 8.533087 0 8.533087 
z
" style="stroke: #000000"/>
    </defs>
    <g clip-path="url(#p87c3d7d716)">
     <use xlink:href="#ma49d2e3255" x="308.610697" y="270.028517" style="stroke: #000000"/>
    </g>
   </g>
   <g id="line2d_7">
    <defs>
     <path id="m895859f809" d="M 0 8.425313 
C 2.234419 8.425313 4.377623 7.537569 5.957596 5.957596 
C 7.537569 4.377623 8.425313 2.234419 8.425313 0 
C 8.425313 -2.234419 7.537569 -4.377623 5.957596 -5.957596 
C 4.377623 -7.537569 2.234419 -8.425313 0 -8.425313 
C -2.234419 -8.425313 -4.377623 -7.537569 -5.957596 -5.957596 
C -7.537569 -4.377623 -8.425313 -2.234419 -8.425313 0 
C -8.425313 2.234419 -7.537569 4.377623 -5.957596 5.957596 
C -4.377623 7.537569 -2.234419 8.425313 0 8.425313 
z
" style="stroke: #000000"/>
    </defs>
    <g clip-path="url(#p87c3d7d716)">
     <use xlink:href="#m895859f809" x="314.306738" y="297.607885" style="stroke: #000000"/>
    </g>
   </g>
   <g id="line2d_8">
    <defs>
     <path id="mfdba1c17a6" d="M 0 8.410806 
C 2.230572 8.410806 4.370086 7.52459 5.947338 5.947338 
C 7.52459 4.370086 8.410806 2.230572 8.410806 0 
C 8.410806 -2.230572 7.52459 -4.370086 5.947338 -5.947338 
C 4.370086 -7.52459 2.230572 -8.410806 0 -8.410806 
C -2.230572 -8.410806 -4.370086 -7.52459 -5.947338 -5.947338 
C -7.52459 -4.370086 -8.410806 -2.230572 -8.410806 0 
C -8.410806 2.230572 -7.52459 4.370086 -5.947338 5.947338 
C -4.370086 7.52459 -2.230572 8.410806 0 8.410806 
z
" style="stroke: #000000"/>
    </defs>
    <g clip-path="url(#p87c3d7d716)">
     <use xlink:href="#mfdba1c17a6" x="314.790511" y="298.261124" style="stroke: #000000"/>
    </g>
   </g>
   <g id="line2d_9">
    <defs>
     <path id="m71ee1b3c9e" d="M 0 8.384648 
C 2.223635 8.384648 4.356494 7.501188 5.928841 5.928841 
C 7.501188 4.356494 8.384648 2.223635 8.384648 0 
C 8.384648 -2.223635 7.501188 -4.356494 5.928841 -5.928841 
C 4.356494 -7.501188 2.223635 -8.384648 0 -8.384648 
C -2.223635 -8.384648 -4.356494 -7.501188 -5.928841 -5.928841 
C -7.501188 -4.356494 -8.384648 -2.223635 -8.384648 0 
C -8.384648 2.223635 -7.501188 4.356494 -5.928841 5.928841 
C -4.356494 7.501188 -2.223635 8.384648 0 8.384648 
z
" style="stroke: #000000"/>
    </defs>
    <g clip-path="url(#p87c3d7d716)">
     <use xlink:href="#m71ee1b3c9e" x="377.778145" y="262.883185" style="stroke: #000000"/>
    </g>
   </g>
   <g id="line2d_10">
    <defs>
     <path id="m186a01a323" d="M 0 8.363142 
C 2.217931 8.363142 4.34532 7.481949 5.913635 5.913635 
C 7.481949 4.34532 8.363142 2.217931 8.363142 0 
C 8.363142 -2.217931 7.481949 -4.34532 5.913635 -5.913635 
C 4.34532 -7.481949 2.217931 -8.363142 0 -8.363142 
C -2.217931 -8.363142 -4.34532 -7.481949 -5.913635 -5.913635 
C -7.481949 -4.34532 -8.363142 -2.217931 -8.363142 0 
C -8.363142 2.217931 -7.481949 4.34532 -5.913635 5.913635 
C -4.34532 7.481949 -2.217931 8.363142 0 8.363142 
z
" style="stroke: #000000"/>
    </defs>
    <g clip-path="url(#p87c3d7d716)">
     <use xlink:href="#m186a01a323" x="429.389303" y="150.94479" style="stroke: #000000"/>
    </g>
   </g>
  </g>
 </g>
 <defs>
  <clipPath id="p87c3d7d716">
   <path d="M 302.571767 320.4 
L 302.571767 43.2 
L 435.428233 43.2 
L 435.428233 320.4 
L 302.571767 320.4 
"/>
  </clipPath>
 </defs>
</svg>
