<?xml version="1.0" encoding="utf-8" standalone="no"?>
<!DOCTYPE svg PUBLIC "-//W3C//DTD SVG 1.1//EN"
  "http://www.w3.org/Graphics/SVG/1.1/DTD/svg11.dtd">
<svg xmlns:xlink="http://www.w3.org/1999/xlink" width="720pt" height="360pt" viewBox="0 0 720 360" xmlns="http://www.w3.org/2000/svg" version="1.1">
 <metadata>
  <rdf:RDF xmlns:dc="http://purl.org/dc/elements/1.1/" xmlns:cc="http://creativecommons.org/ns#" xmlns:rdf="http://www.w3.org/1999/02/22-rdf-syntax-ns#">
   <cc:Work>
    <dc:type rdf:resource="http://purl.org/dc/dcmitype/StillImage"/>
    <dc:date>2023-11-30T21:30:52.821153</dc:date>
    <dc:format>image/svg+xml</dc:format>
    <dc:creator>
     <cc:Agent>
      <dc:title>Matplotlib v3.8.1, https://matplotlib.org/</dc:title>
     </cc:Agent>
    </dc:creator>
   </cc:Work>
  </rdf:RDF>
 </metadata>
 <defs>
  <style type="text/css">*{stroke-linejoin: round; stroke-linecap: butt}</style>
 </defs>
 <g id="figure_1">
  <g id="patch_1">
   <path d="M 0 360 
L 720 360 
L 720 0 
L 0 0 
z
" style="fill: #ffffff"/>
  </g>
  <g id="axes_1">
   <g id="patch_2">
    <path d="M 263.206044 320.4 
L 263.206044 43.2 
L 474.793956 43.2 
L 474.793956 320.4 
L 263.206044 320.4 
" style="fill: #ffffff"/>
   </g>
   <g id="line2d_1">
    <defs>
     <path id="m4ca89aa225" d="M 0 9.920786 
C 2.631023 9.920786 5.154641 8.875469 7.015055 7.015055 
C 8.875469 5.154641 9.920786 2.631023 9.920786 0 
C 9.920786 -2.631023 8.875469 -5.154641 7.015055 -7.015055 
C 5.154641 -8.875469 2.631023 -9.920786 0 -9.920786 
C -2.631023 -9.920786 -5.154641 -8.875469 -7.015055 -7.015055 
C -8.875469 -5.154641 -9.920786 -2.631023 -9.920786 0 
C -9.920786 2.631023 -8.875469 5.154641 -7.015055 7.015055 
C -5.154641 8.875469 -2.631023 9.920786 0 9.920786 
z
" style="stroke: #000000"/>
    </defs>
    <g clip-path="url(#pc6b4e5126d)">
     <use xlink:href="#m4ca89aa225" x="272.823677" y="188.253364" style="stroke: #000000"/>
    </g>
   </g>
   <g id="line2d_2">
    <defs>
     <path id="ma7a28e72bb" d="M 0 7.742097 
C 2.053228 7.742097 4.022638 6.926341 5.474489 5.474489 
C 6.926341 4.022638 7.742097 2.053228 7.742097 0 
C 7.742097 -2.053228 6.926341 -4.022638 5.474489 -5.474489 
C 4.022638 -6.926341 2.053228 -7.742097 0 -7.742097 
C -2.053228 -7.742097 -4.022638 -6.926341 -5.474489 -5.474489 
C -6.926341 -4.022638 -7.742097 -2.053228 -7.742097 0 
C -7.742097 2.053228 -6.926341 4.022638 -5.474489 5.474489 
C -4.022638 6.926341 -2.053228 7.742097 0 7.742097 
z
" style="stroke: #000000"/>
    </defs>
    <g clip-path="url(#pc6b4e5126d)">
     <use xlink:href="#ma7a28e72bb" x="355.451875" y="144.936176" style="stroke: #000000"/>
    </g>
   </g>
   <g id="line2d_3">
    <defs>
     <path id="ma5d5b5985d" d="M 0 7.525477 
C 1.99578 7.525477 3.910086 6.732545 5.321316 5.321316 
C 6.732545 3.910086 7.525477 1.99578 7.525477 0 
C 7.525477 -1.99578 6.732545 -3.910086 5.321316 -5.321316 
C 3.910086 -6.732545 1.99578 -7.525477 0 -7.525477 
C -1.99578 -7.525477 -3.910086 -6.732545 -5.321316 -5.321316 
C -6.732545 -3.910086 -7.525477 -1.99578 -7.525477 0 
C -7.525477 1.99578 -6.732545 3.910086 -5.321316 5.321316 
C -3.910086 6.732545 -1.99578 7.525477 0 7.525477 
z
" style="stroke: #000000"/>
    </defs>
    <g clip-path="url(#pc6b4e5126d)">
     <use xlink:href="#ma5d5b5985d" x="300.449099" y="173.891578" style="stroke: #000000"/>
    </g>
   </g>
   <g id="line2d_4">
    <defs>
     <path id="mb82e078bac" d="M 0 7.509209 
C 1.991465 7.509209 3.901634 6.717991 5.309812 5.309812 
C 6.717991 3.901634 7.509209 1.991465 7.509209 0 
C 7.509209 -1.991465 6.717991 -3.901634 5.309812 -5.309812 
C 3.901634 -6.717991 1.991465 -7.509209 0 -7.509209 
C -1.991465 -7.509209 -3.901634 -6.717991 -5.309812 -5.309812 
C -6.717991 -3.901634 -7.509209 -1.991465 -7.509209 0 
C -7.509209 1.991465 -6.717991 3.901634 -5.309812 5.309812 
C -3.901634 6.717991 -1.991465 7.509209 0 7.509209 
z
" style="stroke: #000000"/>
    </defs>
    <g clip-path="url(#pc6b4e5126d)">
     <use xlink:href="#mb82e078bac" x="284.29656" y="179.11866" style="stroke: #000000"/>
    </g>
   </g>
   <g id="line2d_5">
    <defs>
     <path id="mfc53fae3ab" d="M 0 7.497663 
C 1.988403 7.497663 3.895635 6.707662 5.301648 5.301648 
C 6.707662 3.895635 7.497663 1.988403 7.497663 0 
C 7.497663 -1.988403 6.707662 -3.895635 5.301648 -5.301648 
C 3.895635 -6.707662 1.988403 -7.497663 0 -7.497663 
C -1.988403 -7.497663 -3.895635 -6.707662 -5.301648 -5.301648 
C -6.707662 -3.895635 -7.497663 -1.988403 -7.497663 0 
C -7.497663 1.988403 -6.707662 3.895635 -5.301648 5.301648 
C -3.895635 6.707662 -1.988403 7.497663 0 7.497663 
z
" style="stroke: #000000"/>
    </defs>
    <g clip-path="url(#pc6b4e5126d)">
     <use xlink:href="#mfc53fae3ab" x="465.176323" y="307.8" style="stroke: #000000"/>
    </g>
   </g>
   <g id="line2d_6">
    <defs>
     <path id="mef0f6b7ab5" d="M 0 7.349434 
C 1.949093 7.349434 3.818618 6.575051 5.196834 5.196834 
C 6.575051 3.818618 7.349434 1.949093 7.349434 0 
C 7.349434 -1.949093 6.575051 -3.818618 5.196834 -5.196834 
C 3.818618 -6.575051 1.949093 -7.349434 0 -7.349434 
C -1.949093 -7.349434 -3.818618 -6.575051 -5.196834 -5.196834 
C -6.575051 -3.818618 -7.349434 -1.949093 -7.349434 0 
C -7.349434 1.949093 -6.575051 3.818618 -5.196834 5.196834 
C -3.818618 6.575051 -1.949093 7.349434 0 7.349434 
z
" style="stroke: #000000"/>
    </defs>
    <g clip-path="url(#pc6b4e5126d)">
     <use xlink:href="#mef0f6b7ab5" x="338.21419" y="55.8" style="stroke: #000000"/>
    </g>
   </g>
   <g id="line2d_7">
    <defs>
     <path id="m2e87a74c80" d="M 0 7.325638 
C 1.942782 7.325638 3.806254 6.553763 5.180008 5.180008 
C 6.553763 3.806254 7.325638 1.942782 7.325638 0 
C 7.325638 -1.942782 6.553763 -3.806254 5.180008 -5.180008 
C 3.806254 -6.553763 1.942782 -7.325638 0 -7.325638 
C -1.942782 -7.325638 -3.806254 -6.553763 -5.180008 -5.180008 
C -6.553763 -3.806254 -7.325638 -1.942782 -7.325638 0 
C -7.325638 1.942782 -6.553763 3.806254 -5.180008 5.180008 
C -3.806254 6.553763 -1.942782 7.325638 0 7.325638 
z
" style="stroke: #000000"/>
    </defs>
    <g clip-path="url(#pc6b4e5126d)">
     <use xlink:href="#m2e87a74c80" x="319.399583" y="214.6306" style="stroke: #000000"/>
    </g>
   </g>
   <g id="line2d_8">
    <defs>
     <path id="mc685ab6bf7" d="M 0 7.324151 
C 1.942387 7.324151 3.805481 6.552432 5.178957 5.178957 
C 6.552432 3.805481 7.324151 1.942387 7.324151 0 
C 7.324151 -1.942387 6.552432 -3.805481 5.178957 -5.178957 
C 3.805481 -6.552432 1.942387 -7.324151 0 -7.324151 
C -1.942387 -7.324151 -3.805481 -6.552432 -5.178957 -5.178957 
C -6.552432 -3.805481 -7.324151 -1.942387 -7.324151 0 
C -7.324151 1.942387 -6.552432 3.805481 -5.178957 5.178957 
C -3.805481 6.552432 -1.942387 7.324151 0 7.324151 
z
" style="stroke: #000000"/>
    </defs>
    <g clip-path="url(#pc6b4e5126d)">
     <use xlink:href="#mc685ab6bf7" x="438.700246" y="202.707068" style="stroke: #000000"/>
    </g>
   </g>
   <g id="line2d_9">
    <defs>
     <path id="md4fc4b8ff9" d="M 0 7.295995 
C 1.93492 7.295995 3.790852 6.527243 5.159047 5.159047 
C 6.527243 3.790852 7.295995 1.93492 7.295995 0 
C 7.295995 -1.93492 6.527243 -3.790852 5.159047 -5.159047 
C 3.790852 -6.527243 1.93492 -7.295995 0 -7.295995 
C -1.93492 -7.295995 -3.790852 -6.527243 -5.159047 -5.159047 
C -6.527243 -3.790852 -7.295995 -1.93492 -7.295995 0 
C -7.295995 1.93492 -6.527243 3.790852 -5.159047 5.159047 
C -3.790852 6.527243 -1.93492 7.295995 0 7.295995 
z
" style="stroke: #000000"/>
    </defs>
    <g clip-path="url(#pc6b4e5126d)">
     <use xlink:href="#md4fc4b8ff9" x="413.632179" y="108.480609" style="stroke: #000000"/>
    </g>
   </g>
   <g id="line2d_10">
    <defs>
     <path id="m72b5bc3d6a" d="M 0 7.002242 
C 1.857016 7.002242 3.638224 6.264442 4.951333 4.951333 
C 6.264442 3.638224 7.002242 1.857016 7.002242 0 
C 7.002242 -1.857016 6.264442 -3.638224 4.951333 -4.951333 
C 3.638224 -6.264442 1.857016 -7.002242 0 -7.002242 
C -1.857016 -7.002242 -3.638224 -6.264442 -4.951333 -4.951333 
C -6.264442 -3.638224 -7.002242 -1.857016 -7.002242 0 
C -7.002242 1.857016 -6.264442 3.638224 -4.951333 4.951333 
C -3.638224 6.264442 -1.857016 7.002242 0 7.002242 
z
" style="stroke: #000000"/>
    </defs>
    <g clip-path="url(#pc6b4e5126d)">
     <use xlink:href="#m72b5bc3d6a" x="382.404145" y="268.467942" style="stroke: #000000"/>
    </g>
   </g>
  </g>
 </g>
 <defs>
  <clipPath id="pc6b4e5126d">
   <path d="M 263.206044 320.4 
L 263.206044 43.2 
L 474.793956 43.2 
L 474.793956 320.4 
L 263.206044 320.4 
"/>
  </clipPath>
 </defs>
</svg>
