<?xml version="1.0" encoding="utf-8" standalone="no"?>
<!DOCTYPE svg PUBLIC "-//W3C//DTD SVG 1.1//EN"
  "http://www.w3.org/Graphics/SVG/1.1/DTD/svg11.dtd">
<svg xmlns:xlink="http://www.w3.org/1999/xlink" width="720pt" height="360pt" viewBox="0 0 720 360" xmlns="http://www.w3.org/2000/svg" version="1.1">
 <metadata>
  <rdf:RDF xmlns:dc="http://purl.org/dc/elements/1.1/" xmlns:cc="http://creativecommons.org/ns#" xmlns:rdf="http://www.w3.org/1999/02/22-rdf-syntax-ns#">
   <cc:Work>
    <dc:type rdf:resource="http://purl.org/dc/dcmitype/StillImage"/>
    <dc:date>2023-11-30T21:30:48.999078</dc:date>
    <dc:format>image/svg+xml</dc:format>
    <dc:creator>
     <cc:Agent>
      <dc:title>Matplotlib v3.8.1, https://matplotlib.org/</dc:title>
     </cc:Agent>
    </dc:creator>
   </cc:Work>
  </rdf:RDF>
 </metadata>
 <defs>
  <style type="text/css">*{stroke-linejoin: round; stroke-linecap: butt}</style>
 </defs>
 <g id="figure_1">
  <g id="patch_1">
   <path d="M 0 360 
L 720 360 
L 720 0 
L 0 0 
z
" style="fill: #ffffff"/>
  </g>
  <g id="axes_1">
   <g id="patch_2">
    <path d="M 261.32112 320.4 
L 261.32112 43.2 
L 476.67888 43.2 
L 476.67888 320.4 
L 261.32112 320.4 
" style="fill: #ffffff"/>
   </g>
   <g id="line2d_1">
    <defs>
     <path id="m117441b320" d="M 0 8.426387 
C 2.234704 8.426387 4.378181 7.538529 5.958355 5.958355 
C 7.538529 4.378181 8.426387 2.234704 8.426387 0 
C 8.426387 -2.234704 7.538529 -4.378181 5.958355 -5.958355 
C 4.378181 -7.538529 2.234704 -8.426387 0 -8.426387 
C -2.234704 -8.426387 -4.378181 -7.538529 -5.958355 -5.958355 
C -7.538529 -4.378181 -8.426387 -2.234704 -8.426387 0 
C -8.426387 2.234704 -7.538529 4.378181 -5.958355 5.958355 
C -4.378181 7.538529 -2.234704 8.426387 0 8.426387 
z
" style="stroke: #000000"/>
    </defs>
    <g clip-path="url(#pe8de5b58a9)">
     <use xlink:href="#m117441b320" x="304.266406" y="140.206929" style="stroke: #000000"/>
    </g>
   </g>
   <g id="line2d_2">
    <defs>
     <path id="m65304b1bdf" d="M 0 7.644595 
C 2.02737 7.644595 3.971978 6.839112 5.405545 5.405545 
C 6.839112 3.971978 7.644595 2.02737 7.644595 0 
C 7.644595 -2.02737 6.839112 -3.971978 5.405545 -5.405545 
C 3.971978 -6.839112 2.02737 -7.644595 0 -7.644595 
C -2.02737 -7.644595 -3.971978 -6.839112 -5.405545 -5.405545 
C -6.839112 -3.971978 -7.644595 -2.02737 -7.644595 0 
C -7.644595 2.02737 -6.839112 3.971978 -5.405545 5.405545 
C -3.971978 6.839112 -2.02737 7.644595 0 7.644595 
z
" style="stroke: #000000"/>
    </defs>
    <g clip-path="url(#pe8de5b58a9)">
     <use xlink:href="#m65304b1bdf" x="303.40072" y="269.172037" style="stroke: #000000"/>
    </g>
   </g>
   <g id="line2d_3">
    <defs>
     <path id="m8e8004eac9" d="M 0 7.639424 
C 2.025999 7.639424 3.969291 6.834486 5.401889 5.401889 
C 6.834486 3.969291 7.639424 2.025999 7.639424 0 
C 7.639424 -2.025999 6.834486 -3.969291 5.401889 -5.401889 
C 3.969291 -6.834486 2.025999 -7.639424 0 -7.639424 
C -2.025999 -7.639424 -3.969291 -6.834486 -5.401889 -5.401889 
C -6.834486 -3.969291 -7.639424 -2.025999 -7.639424 0 
C -7.639424 2.025999 -6.834486 3.969291 -5.401889 5.401889 
C -3.969291 6.834486 -2.025999 7.639424 0 7.639424 
z
" style="stroke: #000000"/>
    </defs>
    <g clip-path="url(#pe8de5b58a9)">
     <use xlink:href="#m8e8004eac9" x="271.110109" y="218.306235" style="stroke: #000000"/>
    </g>
   </g>
   <g id="line2d_4">
    <defs>
     <path id="m2f1db649c9" d="M 0 7.61739 
C 2.020155 7.61739 3.957843 6.814774 5.386308 5.386308 
C 6.814774 3.957843 7.61739 2.020155 7.61739 0 
C 7.61739 -2.020155 6.814774 -3.957843 5.386308 -5.386308 
C 3.957843 -6.814774 2.020155 -7.61739 0 -7.61739 
C -2.020155 -7.61739 -3.957843 -6.814774 -5.386308 -5.386308 
C -6.814774 -3.957843 -7.61739 -2.020155 -7.61739 0 
C -7.61739 2.020155 -6.814774 3.957843 -5.386308 5.386308 
C -3.957843 6.814774 -2.020155 7.61739 0 7.61739 
z
" style="stroke: #000000"/>
    </defs>
    <g clip-path="url(#pe8de5b58a9)">
     <use xlink:href="#m2f1db649c9" x="380.004455" y="71.916533" style="stroke: #000000"/>
    </g>
   </g>
   <g id="line2d_5">
    <defs>
     <path id="m45e78b5135" d="M 0 7.549777 
C 2.002224 7.549777 3.922712 6.754285 5.338498 5.338498 
C 6.754285 3.922712 7.549777 2.002224 7.549777 0 
C 7.549777 -2.002224 6.754285 -3.922712 5.338498 -5.338498 
C 3.922712 -6.754285 2.002224 -7.549777 0 -7.549777 
C -2.002224 -7.549777 -3.922712 -6.754285 -5.338498 -5.338498 
C -6.754285 -3.922712 -7.549777 -2.002224 -7.549777 0 
C -7.549777 2.002224 -6.754285 3.922712 -5.338498 5.338498 
C -3.922712 6.754285 -2.002224 7.549777 0 7.549777 
z
" style="stroke: #000000"/>
    </defs>
    <g clip-path="url(#pe8de5b58a9)">
     <use xlink:href="#m45e78b5135" x="407.560764" y="55.8" style="stroke: #000000"/>
    </g>
   </g>
   <g id="line2d_6">
    <defs>
     <path id="mb7142f8fc7" d="M 0 7.485547 
C 1.98519 7.485547 3.88934 6.696823 5.293081 5.293081 
C 6.696823 3.88934 7.485547 1.98519 7.485547 0 
C 7.485547 -1.98519 6.696823 -3.88934 5.293081 -5.293081 
C 3.88934 -6.696823 1.98519 -7.485547 0 -7.485547 
C -1.98519 -7.485547 -3.88934 -6.696823 -5.293081 -5.293081 
C -6.696823 -3.88934 -7.485547 -1.98519 -7.485547 0 
C -7.485547 1.98519 -6.696823 3.88934 -5.293081 5.293081 
C -3.88934 6.696823 -1.98519 7.485547 0 7.485547 
z
" style="stroke: #000000"/>
    </defs>
    <g clip-path="url(#pe8de5b58a9)">
     <use xlink:href="#mb7142f8fc7" x="360.336402" y="74.176246" style="stroke: #000000"/>
    </g>
   </g>
   <g id="line2d_7">
    <defs>
     <path id="m320165be36" d="M 0 7.368703 
C 1.954203 7.368703 3.82863 6.59229 5.21046 5.21046 
C 6.59229 3.82863 7.368703 1.954203 7.368703 0 
C 7.368703 -1.954203 6.59229 -3.82863 5.21046 -5.21046 
C 3.82863 -6.59229 1.954203 -7.368703 0 -7.368703 
C -1.954203 -7.368703 -3.82863 -6.59229 -5.21046 -5.21046 
C -6.59229 -3.82863 -7.368703 -1.954203 -7.368703 0 
C -7.368703 1.954203 -6.59229 3.82863 -5.21046 5.21046 
C -3.82863 6.59229 -1.954203 7.368703 0 7.368703 
z
" style="stroke: #000000"/>
    </defs>
    <g clip-path="url(#pe8de5b58a9)">
     <use xlink:href="#m320165be36" x="333.519027" y="307.8" style="stroke: #000000"/>
    </g>
   </g>
   <g id="line2d_8">
    <defs>
     <path id="m001809896d" d="M 0 7.321195 
C 1.941604 7.321195 3.803946 6.549788 5.176867 5.176867 
C 6.549788 3.803946 7.321195 1.941604 7.321195 0 
C 7.321195 -1.941604 6.549788 -3.803946 5.176867 -5.176867 
C 3.803946 -6.549788 1.941604 -7.321195 0 -7.321195 
C -1.941604 -7.321195 -3.803946 -6.549788 -5.176867 -5.176867 
C -6.549788 -3.803946 -7.321195 -1.941604 -7.321195 0 
C -7.321195 1.941604 -6.549788 3.803946 -5.176867 5.176867 
C -3.803946 6.549788 -1.941604 7.321195 0 7.321195 
z
" style="stroke: #000000"/>
    </defs>
    <g clip-path="url(#pe8de5b58a9)">
     <use xlink:href="#m001809896d" x="466.889891" y="263.587355" style="stroke: #000000"/>
    </g>
   </g>
   <g id="line2d_9">
    <defs>
     <path id="m38883ef68b" d="M 0 6.948214 
C 1.842688 6.948214 3.610152 6.216106 4.913129 4.913129 
C 6.216106 3.610152 6.948214 1.842688 6.948214 0 
C 6.948214 -1.842688 6.216106 -3.610152 4.913129 -4.913129 
C 3.610152 -6.216106 1.842688 -6.948214 0 -6.948214 
C -1.842688 -6.948214 -3.610152 -6.216106 -4.913129 -4.913129 
C -6.216106 -3.610152 -6.948214 -1.842688 -6.948214 0 
C -6.948214 1.842688 -6.216106 3.610152 -4.913129 4.913129 
C -3.610152 6.216106 -1.842688 6.948214 0 6.948214 
z
" style="stroke: #000000"/>
    </defs>
    <g clip-path="url(#pe8de5b58a9)">
     <use xlink:href="#m38883ef68b" x="455.973084" y="171.837382" style="stroke: #000000"/>
    </g>
   </g>
   <g id="line2d_10">
    <defs>
     <path id="m1bc5e97a37" d="M 0 6.841223 
C 1.814314 6.841223 3.554562 6.120389 4.837475 4.837475 
C 6.120389 3.554562 6.841223 1.814314 6.841223 0 
C 6.841223 -1.814314 6.120389 -3.554562 4.837475 -4.837475 
C 3.554562 -6.120389 1.814314 -6.841223 0 -6.841223 
C -1.814314 -6.841223 -3.554562 -6.120389 -4.837475 -4.837475 
C -6.120389 -3.554562 -6.841223 -1.814314 -6.841223 0 
C -6.841223 1.814314 -6.120389 3.554562 -4.837475 4.837475 
C -3.554562 6.120389 -1.814314 6.841223 0 6.841223 
z
" style="stroke: #000000"/>
    </defs>
    <g clip-path="url(#pe8de5b58a9)">
     <use xlink:href="#m1bc5e97a37" x="342.472535" y="186.433811" style="stroke: #000000"/>
    </g>
   </g>
  </g>
 </g>
 <defs>
  <clipPath id="pe8de5b58a9">
   <path d="M 261.32112 320.4 
L 261.32112 43.2 
L 476.67888 43.2 
L 476.67888 320.4 
L 261.32112 320.4 
"/>
  </clipPath>
 </defs>
</svg>
