<?xml version="1.0" encoding="utf-8" standalone="no"?>
<!DOCTYPE svg PUBLIC "-//W3C//DTD SVG 1.1//EN"
  "http://www.w3.org/Graphics/SVG/1.1/DTD/svg11.dtd">
<svg xmlns:xlink="http://www.w3.org/1999/xlink" width="720pt" height="360pt" viewBox="0 0 720 360" xmlns="http://www.w3.org/2000/svg" version="1.1">
 <metadata>
  <rdf:RDF xmlns:dc="http://purl.org/dc/elements/1.1/" xmlns:cc="http://creativecommons.org/ns#" xmlns:rdf="http://www.w3.org/1999/02/22-rdf-syntax-ns#">
   <cc:Work>
    <dc:type rdf:resource="http://purl.org/dc/dcmitype/StillImage"/>
    <dc:date>2023-11-30T21:30:49.041444</dc:date>
    <dc:format>image/svg+xml</dc:format>
    <dc:creator>
     <cc:Agent>
      <dc:title>Matplotlib v3.8.1, https://matplotlib.org/</dc:title>
     </cc:Agent>
    </dc:creator>
   </cc:Work>
  </rdf:RDF>
 </metadata>
 <defs>
  <style type="text/css">*{stroke-linejoin: round; stroke-linecap: butt}</style>
 </defs>
 <g id="figure_1">
  <g id="patch_1">
   <path d="M 0 360 
L 720 360 
L 720 0 
L 0 0 
z
" style="fill: #ffffff"/>
  </g>
  <g id="axes_1">
   <g id="patch_2">
    <path d="M 153.351915 320.4 
L 153.351915 43.2 
L 584.648085 43.2 
L 584.648085 320.4 
L 153.351915 320.4 
" style="fill: #ffffff"/>
   </g>
   <g id="line2d_1">
    <defs>
     <path id="m885cdc1128" d="M 0 9.524455 
C 2.525915 9.524455 4.948715 8.520898 6.734807 6.734807 
C 8.520898 4.948715 9.524455 2.525915 9.524455 0 
C 9.524455 -2.525915 8.520898 -4.948715 6.734807 -6.734807 
C 4.948715 -8.520898 2.525915 -9.524455 0 -9.524455 
C -2.525915 -9.524455 -4.948715 -8.520898 -6.734807 -6.734807 
C -8.520898 -4.948715 -9.524455 -2.525915 -9.524455 0 
C -9.524455 2.525915 -8.520898 4.948715 -6.734807 6.734807 
C -4.948715 8.520898 -2.525915 9.524455 0 9.524455 
z
" style="stroke: #000000"/>
    </defs>
    <g clip-path="url(#p01d6f6b343)">
     <use xlink:href="#m885cdc1128" x="561.546971" y="260.536509" style="stroke: #000000"/>
    </g>
   </g>
   <g id="line2d_2">
    <defs>
     <path id="md638d2588e" d="M 0 9.071305 
C 2.405738 9.071305 4.713268 8.115495 6.414382 6.414382 
C 8.115495 4.713268 9.071305 2.405738 9.071305 0 
C 9.071305 -2.405738 8.115495 -4.713268 6.414382 -6.414382 
C 4.713268 -8.115495 2.405738 -9.071305 0 -9.071305 
C -2.405738 -9.071305 -4.713268 -8.115495 -6.414382 -6.414382 
C -8.115495 -4.713268 -9.071305 -2.405738 -9.071305 0 
C -9.071305 2.405738 -8.115495 4.713268 -6.414382 6.414382 
C -4.713268 8.115495 -2.405738 9.071305 0 9.071305 
z
" style="stroke: #000000"/>
    </defs>
    <g clip-path="url(#p01d6f6b343)">
     <use xlink:href="#md638d2588e" x="432.958655" y="225.848585" style="stroke: #000000"/>
    </g>
   </g>
   <g id="line2d_3">
    <defs>
     <path id="m680cccab63" d="M 0 8.697252 
C 2.306538 8.697252 4.518917 7.780855 6.149886 6.149886 
C 7.780855 4.518917 8.697252 2.306538 8.697252 0 
C 8.697252 -2.306538 7.780855 -4.518917 6.149886 -6.149886 
C 4.518917 -7.780855 2.306538 -8.697252 0 -8.697252 
C -2.306538 -8.697252 -4.518917 -7.780855 -6.149886 -6.149886 
C -7.780855 -4.518917 -8.697252 -2.306538 -8.697252 0 
C -8.697252 2.306538 -7.780855 4.518917 -6.149886 6.149886 
C -4.518917 7.780855 -2.306538 8.697252 0 8.697252 
z
" style="stroke: #000000"/>
    </defs>
    <g clip-path="url(#p01d6f6b343)">
     <use xlink:href="#m680cccab63" x="172.956287" y="93.561418" style="stroke: #000000"/>
    </g>
   </g>
   <g id="line2d_4">
    <defs>
     <path id="m6fcecd9ab5" d="M 0 8.300936 
C 2.201434 8.300936 4.312999 7.426297 5.869648 5.869648 
C 7.426297 4.312999 8.300936 2.201434 8.300936 0 
C 8.300936 -2.201434 7.426297 -4.312999 5.869648 -5.869648 
C 4.312999 -7.426297 2.201434 -8.300936 0 -8.300936 
C -2.201434 -8.300936 -4.312999 -7.426297 -5.869648 -5.869648 
C -7.426297 -4.312999 -8.300936 -2.201434 -8.300936 0 
C -8.300936 2.201434 -7.426297 4.312999 -5.869648 5.869648 
C -4.312999 7.426297 -2.201434 8.300936 0 8.300936 
z
" style="stroke: #000000"/>
    </defs>
    <g clip-path="url(#p01d6f6b343)">
     <use xlink:href="#m6fcecd9ab5" x="377.312973" y="55.8" style="stroke: #000000"/>
    </g>
   </g>
   <g id="line2d_5">
    <defs>
     <path id="m878eff5ebf" d="M 0 8.195068 
C 2.173357 8.195068 4.257992 7.331584 5.794788 5.794788 
C 7.331584 4.257992 8.195068 2.173357 8.195068 0 
C 8.195068 -2.173357 7.331584 -4.257992 5.794788 -5.794788 
C 4.257992 -7.331584 2.173357 -8.195068 0 -8.195068 
C -2.173357 -8.195068 -4.257992 -7.331584 -5.794788 -5.794788 
C -7.331584 -4.257992 -8.195068 -2.173357 -8.195068 0 
C -8.195068 2.173357 -7.331584 4.257992 -5.794788 5.794788 
C -4.257992 7.331584 -2.173357 8.195068 0 8.195068 
z
" style="stroke: #000000"/>
    </defs>
    <g clip-path="url(#p01d6f6b343)">
     <use xlink:href="#m878eff5ebf" x="475.210483" y="89.394883" style="stroke: #000000"/>
    </g>
   </g>
   <g id="line2d_6">
    <defs>
     <path id="m1ee473fa01" d="M 0 8.047544 
C 2.134234 8.047544 4.181342 7.199604 5.690473 5.690473 
C 7.199604 4.181342 8.047544 2.134234 8.047544 0 
C 8.047544 -2.134234 7.199604 -4.181342 5.690473 -5.690473 
C 4.181342 -7.199604 2.134234 -8.047544 0 -8.047544 
C -2.134234 -8.047544 -4.181342 -7.199604 -5.690473 -5.690473 
C -7.199604 -4.181342 -8.047544 -2.134234 -8.047544 0 
C -8.047544 2.134234 -7.199604 4.181342 -5.690473 5.690473 
C -4.181342 7.199604 -2.134234 8.047544 0 8.047544 
z
" style="stroke: #000000"/>
    </defs>
    <g clip-path="url(#p01d6f6b343)">
     <use xlink:href="#m1ee473fa01" x="438.467478" y="223.807643" style="stroke: #000000"/>
    </g>
   </g>
   <g id="line2d_7">
    <defs>
     <path id="mc4af75e4c0" d="M 0 7.793127 
C 2.066761 7.793127 4.049152 6.971994 5.510573 5.510573 
C 6.971994 4.049152 7.793127 2.066761 7.793127 0 
C 7.793127 -2.066761 6.971994 -4.049152 5.510573 -5.510573 
C 4.049152 -6.971994 2.066761 -7.793127 0 -7.793127 
C -2.066761 -7.793127 -4.049152 -6.971994 -5.510573 -5.510573 
C -6.971994 -4.049152 -7.793127 -2.066761 -7.793127 0 
C -7.793127 2.066761 -6.971994 4.049152 -5.510573 5.510573 
C -4.049152 6.971994 -2.066761 7.793127 0 7.793127 
z
" style="stroke: #000000"/>
    </defs>
    <g clip-path="url(#p01d6f6b343)">
     <use xlink:href="#mc4af75e4c0" x="445.328637" y="307.8" style="stroke: #000000"/>
    </g>
   </g>
   <g id="line2d_8">
    <defs>
     <path id="m7e0c8f2563" d="M 0 7.654614 
C 2.030027 7.654614 3.977183 6.848075 5.412629 5.412629 
C 6.848075 3.977183 7.654614 2.030027 7.654614 0 
C 7.654614 -2.030027 6.848075 -3.977183 5.412629 -5.412629 
C 3.977183 -6.848075 2.030027 -7.654614 0 -7.654614 
C -2.030027 -7.654614 -3.977183 -6.848075 -5.412629 -5.412629 
C -6.848075 -3.977183 -7.654614 -2.030027 -7.654614 0 
C -7.654614 2.030027 -6.848075 3.977183 -5.412629 5.412629 
C -3.977183 6.848075 -2.030027 7.654614 0 7.654614 
z
" style="stroke: #000000"/>
    </defs>
    <g clip-path="url(#p01d6f6b343)">
     <use xlink:href="#m7e0c8f2563" x="430.741987" y="221.549321" style="stroke: #000000"/>
    </g>
   </g>
   <g id="line2d_9">
    <defs>
     <path id="mdfc3b5a10e" d="M 0 7.651997 
C 2.029333 7.651997 3.975824 6.845735 5.410779 5.410779 
C 6.845735 3.975824 7.651997 2.029333 7.651997 0 
C 7.651997 -2.029333 6.845735 -3.975824 5.410779 -5.410779 
C 3.975824 -6.845735 2.029333 -7.651997 0 -7.651997 
C -2.029333 -7.651997 -3.975824 -6.845735 -5.410779 -5.410779 
C -6.845735 -3.975824 -7.651997 -2.029333 -7.651997 0 
C -7.651997 2.029333 -6.845735 3.975824 -5.410779 5.410779 
C -3.975824 6.845735 -2.029333 7.651997 0 7.651997 
z
" style="stroke: #000000"/>
    </defs>
    <g clip-path="url(#p01d6f6b343)">
     <use xlink:href="#mdfc3b5a10e" x="435.100245" y="221.187526" style="stroke: #000000"/>
    </g>
   </g>
   <g id="line2d_10">
    <defs>
     <path id="mfb6ee08078" d="M 0 7.643874 
C 2.027179 7.643874 3.971603 6.838467 5.405035 5.405035 
C 6.838467 3.971603 7.643874 2.027179 7.643874 0 
C 7.643874 -2.027179 6.838467 -3.971603 5.405035 -5.405035 
C 3.971603 -6.838467 2.027179 -7.643874 0 -7.643874 
C -2.027179 -7.643874 -3.971603 -6.838467 -5.405035 -5.405035 
C -6.838467 -3.971603 -7.643874 -2.027179 -7.643874 0 
C -7.643874 2.027179 -6.838467 3.971603 -5.405035 5.405035 
C -3.971603 6.838467 -2.027179 7.643874 0 7.643874 
z
" style="stroke: #000000"/>
    </defs>
    <g clip-path="url(#p01d6f6b343)">
     <use xlink:href="#mfb6ee08078" x="565.043713" y="257.514566" style="stroke: #000000"/>
    </g>
   </g>
  </g>
 </g>
 <defs>
  <clipPath id="p01d6f6b343">
   <path d="M 153.351915 320.4 
L 153.351915 43.2 
L 584.648085 43.2 
L 584.648085 320.4 
L 153.351915 320.4 
"/>
  </clipPath>
 </defs>
</svg>
