<?xml version="1.0" encoding="utf-8" standalone="no"?>
<!DOCTYPE svg PUBLIC "-//W3C//DTD SVG 1.1//EN"
  "http://www.w3.org/Graphics/SVG/1.1/DTD/svg11.dtd">
<svg xmlns:xlink="http://www.w3.org/1999/xlink" width="720pt" height="360pt" viewBox="0 0 720 360" xmlns="http://www.w3.org/2000/svg" version="1.1">
 <metadata>
  <rdf:RDF xmlns:dc="http://purl.org/dc/elements/1.1/" xmlns:cc="http://creativecommons.org/ns#" xmlns:rdf="http://www.w3.org/1999/02/22-rdf-syntax-ns#">
   <cc:Work>
    <dc:type rdf:resource="http://purl.org/dc/dcmitype/StillImage"/>
    <dc:date>2023-11-30T21:30:49.921895</dc:date>
    <dc:format>image/svg+xml</dc:format>
    <dc:creator>
     <cc:Agent>
      <dc:title>Matplotlib v3.8.1, https://matplotlib.org/</dc:title>
     </cc:Agent>
    </dc:creator>
   </cc:Work>
  </rdf:RDF>
 </metadata>
 <defs>
  <style type="text/css">*{stroke-linejoin: round; stroke-linecap: butt}</style>
 </defs>
 <g id="figure_1">
  <g id="patch_1">
   <path d="M 0 360 
L 720 360 
L 720 0 
L 0 0 
z
" style="fill: #ffffff"/>
  </g>
  <g id="axes_1">
   <g id="patch_2">
    <path d="M 305.059044 320.4 
L 305.059044 43.2 
L 432.940956 43.2 
L 432.940956 320.4 
L 305.059044 320.4 
" style="fill: #ffffff"/>
   </g>
   <g id="line2d_1">
    <defs>
     <path id="m8cce39366d" d="M 0 8.113328 
C 2.15168 8.113328 4.215522 7.258457 5.73699 5.73699 
C 7.258457 4.215522 8.113328 2.15168 8.113328 0 
C 8.113328 -2.15168 7.258457 -4.215522 5.73699 -5.73699 
C 4.215522 -7.258457 2.15168 -8.113328 0 -8.113328 
C -2.15168 -8.113328 -4.215522 -7.258457 -5.73699 -5.73699 
C -7.258457 -4.215522 -8.113328 -2.15168 -8.113328 0 
C -8.113328 2.15168 -7.258457 4.215522 -5.73699 5.73699 
C -4.215522 7.258457 -2.15168 8.113328 0 8.113328 
z
" style="stroke: #000000"/>
    </defs>
    <g clip-path="url(#p4b385e5bab)">
     <use xlink:href="#m8cce39366d" x="416.219217" y="222.700217" style="stroke: #000000"/>
    </g>
   </g>
   <g id="line2d_2">
    <defs>
     <path id="m2ee08d8fdf" d="M 0 7.392445 
C 1.960499 7.392445 3.840966 6.613531 5.227248 5.227248 
C 6.613531 3.840966 7.392445 1.960499 7.392445 0 
C 7.392445 -1.960499 6.613531 -3.840966 5.227248 -5.227248 
C 3.840966 -6.613531 1.960499 -7.392445 0 -7.392445 
C -1.960499 -7.392445 -3.840966 -6.613531 -5.227248 -5.227248 
C -6.613531 -3.840966 -7.392445 -1.960499 -7.392445 0 
C -7.392445 1.960499 -6.613531 3.840966 -5.227248 5.227248 
C -3.840966 6.613531 -1.960499 7.392445 0 7.392445 
z
" style="stroke: #000000"/>
    </defs>
    <g clip-path="url(#p4b385e5bab)">
     <use xlink:href="#m2ee08d8fdf" x="353.105405" y="297.900482" style="stroke: #000000"/>
    </g>
   </g>
   <g id="line2d_3">
    <defs>
     <path id="m5acf051358" d="M 0 7.068415 
C 1.874566 7.068415 3.672606 6.323643 4.998125 4.998125 
C 6.323643 3.672606 7.068415 1.874566 7.068415 0 
C 7.068415 -1.874566 6.323643 -3.672606 4.998125 -4.998125 
C 3.672606 -6.323643 1.874566 -7.068415 0 -7.068415 
C -1.874566 -7.068415 -3.672606 -6.323643 -4.998125 -4.998125 
C -6.323643 -3.672606 -7.068415 -1.874566 -7.068415 0 
C -7.068415 1.874566 -6.323643 3.672606 -4.998125 4.998125 
C -3.672606 6.323643 -1.874566 7.068415 0 7.068415 
z
" style="stroke: #000000"/>
    </defs>
    <g clip-path="url(#p4b385e5bab)">
     <use xlink:href="#m5acf051358" x="398.26996" y="307.8" style="stroke: #000000"/>
    </g>
   </g>
   <g id="line2d_4">
    <defs>
     <path id="m3d996a9d9c" d="M 0 6.496823 
C 1.722978 6.496823 3.375618 5.812277 4.593948 4.593948 
C 5.812277 3.375618 6.496823 1.722978 6.496823 0 
C 6.496823 -1.722978 5.812277 -3.375618 4.593948 -4.593948 
C 3.375618 -5.812277 1.722978 -6.496823 0 -6.496823 
C -1.722978 -6.496823 -3.375618 -5.812277 -4.593948 -4.593948 
C -5.812277 -3.375618 -6.496823 -1.722978 -6.496823 0 
C -6.496823 1.722978 -5.812277 3.375618 -4.593948 4.593948 
C -3.375618 5.812277 -1.722978 6.496823 0 6.496823 
z
" style="stroke: #000000"/>
    </defs>
    <g clip-path="url(#p4b385e5bab)">
     <use xlink:href="#m3d996a9d9c" x="366.713053" y="291.052632" style="stroke: #000000"/>
    </g>
   </g>
   <g id="line2d_5">
    <defs>
     <path id="m3ebd9fcd77" d="M 0 6.43035 
C 1.705349 6.43035 3.34108 5.752807 4.546944 4.546944 
C 5.752807 3.34108 6.43035 1.705349 6.43035 0 
C 6.43035 -1.705349 5.752807 -3.34108 4.546944 -4.546944 
C 3.34108 -5.752807 1.705349 -6.43035 0 -6.43035 
C -1.705349 -6.43035 -3.34108 -5.752807 -4.546944 -4.546944 
C -5.752807 -3.34108 -6.43035 -1.705349 -6.43035 0 
C -6.43035 1.705349 -5.752807 3.34108 -4.546944 4.546944 
C -3.34108 5.752807 -1.705349 6.43035 0 6.43035 
z
" style="stroke: #000000"/>
    </defs>
    <g clip-path="url(#p4b385e5bab)">
     <use xlink:href="#m3ebd9fcd77" x="404.723245" y="283.126467" style="stroke: #000000"/>
    </g>
   </g>
   <g id="line2d_6">
    <defs>
     <path id="ma055c10805" d="M 0 6.405687 
C 1.698808 6.405687 3.328266 5.730744 4.529505 4.529505 
C 5.730744 3.328266 6.405687 1.698808 6.405687 0 
C 6.405687 -1.698808 5.730744 -3.328266 4.529505 -4.529505 
C 3.328266 -5.730744 1.698808 -6.405687 0 -6.405687 
C -1.698808 -6.405687 -3.328266 -5.730744 -4.529505 -4.529505 
C -5.730744 -3.328266 -6.405687 -1.698808 -6.405687 0 
C -6.405687 1.698808 -5.730744 3.328266 -4.529505 4.529505 
C -3.328266 5.730744 -1.698808 6.405687 0 6.405687 
z
" style="stroke: #000000"/>
    </defs>
    <g clip-path="url(#p4b385e5bab)">
     <use xlink:href="#ma055c10805" x="310.871858" y="257.349416" style="stroke: #000000"/>
    </g>
   </g>
   <g id="line2d_7">
    <defs>
     <path id="m1b90c929f9" d="M 0 6.361084 
C 1.686979 6.361084 3.305091 5.69084 4.497965 4.497965 
C 5.69084 3.305091 6.361084 1.686979 6.361084 0 
C 6.361084 -1.686979 5.69084 -3.305091 4.497965 -4.497965 
C 3.305091 -5.69084 1.686979 -6.361084 0 -6.361084 
C -1.686979 -6.361084 -3.305091 -5.69084 -4.497965 -4.497965 
C -5.69084 -3.305091 -6.361084 -1.686979 -6.361084 0 
C -6.361084 1.686979 -5.69084 3.305091 -4.497965 4.497965 
C -3.305091 5.69084 -1.686979 6.361084 0 6.361084 
z
" style="stroke: #000000"/>
    </defs>
    <g clip-path="url(#p4b385e5bab)">
     <use xlink:href="#m1b90c929f9" x="427.128142" y="55.8" style="stroke: #000000"/>
    </g>
   </g>
   <g id="line2d_8">
    <defs>
     <path id="m511d16d127" d="M 0 6.317972 
C 1.675546 6.317972 3.282691 5.652271 4.467481 4.467481 
C 5.652271 3.282691 6.317972 1.675546 6.317972 0 
C 6.317972 -1.675546 5.652271 -3.282691 4.467481 -4.467481 
C 3.282691 -5.652271 1.675546 -6.317972 0 -6.317972 
C -1.675546 -6.317972 -3.282691 -5.652271 -4.467481 -4.467481 
C -5.652271 -3.282691 -6.317972 -1.675546 -6.317972 0 
C -6.317972 1.675546 -5.652271 3.282691 -4.467481 4.467481 
C -3.282691 5.652271 -1.675546 6.317972 0 6.317972 
z
" style="stroke: #000000"/>
    </defs>
    <g clip-path="url(#p4b385e5bab)">
     <use xlink:href="#m511d16d127" x="405.310292" y="69.04831" style="stroke: #000000"/>
    </g>
   </g>
   <g id="line2d_9">
    <defs>
     <path id="maa066a4b52" d="M 0 6.306549 
C 1.672516 6.306549 3.276756 5.642052 4.459404 4.459404 
C 5.642052 3.276756 6.306549 1.672516 6.306549 0 
C 6.306549 -1.672516 5.642052 -3.276756 4.459404 -4.459404 
C 3.276756 -5.642052 1.672516 -6.306549 0 -6.306549 
C -1.672516 -6.306549 -3.276756 -5.642052 -4.459404 -4.459404 
C -5.642052 -3.276756 -6.306549 -1.672516 -6.306549 0 
C -6.306549 1.672516 -5.642052 3.276756 -4.459404 4.459404 
C -3.276756 5.642052 -1.672516 6.306549 0 6.306549 
z
" style="stroke: #000000"/>
    </defs>
    <g clip-path="url(#p4b385e5bab)">
     <use xlink:href="#maa066a4b52" x="401.673983" y="228.120321" style="stroke: #000000"/>
    </g>
   </g>
   <g id="line2d_10">
    <defs>
     <path id="m06bea01c9c" d="M 0 6.276214 
C 1.664472 6.276214 3.260995 5.614913 4.437954 4.437954 
C 5.614913 3.260995 6.276214 1.664472 6.276214 0 
C 6.276214 -1.664472 5.614913 -3.260995 4.437954 -4.437954 
C 3.260995 -5.614913 1.664472 -6.276214 0 -6.276214 
C -1.664472 -6.276214 -3.260995 -5.614913 -4.437954 -4.437954 
C -5.614913 -3.260995 -6.276214 -1.664472 -6.276214 0 
C -6.276214 1.664472 -5.614913 3.260995 -4.437954 4.437954 
C -3.260995 5.614913 -1.664472 6.276214 0 6.276214 
z
" style="stroke: #000000"/>
    </defs>
    <g clip-path="url(#p4b385e5bab)">
     <use xlink:href="#m06bea01c9c" x="392.285466" y="216.921644" style="stroke: #000000"/>
    </g>
   </g>
  </g>
 </g>
 <defs>
  <clipPath id="p4b385e5bab">
   <path d="M 305.059044 320.4 
L 305.059044 43.2 
L 432.940956 43.2 
L 432.940956 320.4 
L 305.059044 320.4 
"/>
  </clipPath>
 </defs>
</svg>
