<?xml version="1.0" encoding="utf-8" standalone="no"?>
<!DOCTYPE svg PUBLIC "-//W3C//DTD SVG 1.1//EN"
  "http://www.w3.org/Graphics/SVG/1.1/DTD/svg11.dtd">
<svg xmlns:xlink="http://www.w3.org/1999/xlink" width="720pt" height="360pt" viewBox="0 0 720 360" xmlns="http://www.w3.org/2000/svg" version="1.1">
 <metadata>
  <rdf:RDF xmlns:dc="http://purl.org/dc/elements/1.1/" xmlns:cc="http://creativecommons.org/ns#" xmlns:rdf="http://www.w3.org/1999/02/22-rdf-syntax-ns#">
   <cc:Work>
    <dc:type rdf:resource="http://purl.org/dc/dcmitype/StillImage"/>
    <dc:date>2023-11-30T21:30:49.968607</dc:date>
    <dc:format>image/svg+xml</dc:format>
    <dc:creator>
     <cc:Agent>
      <dc:title>Matplotlib v3.8.1, https://matplotlib.org/</dc:title>
     </cc:Agent>
    </dc:creator>
   </cc:Work>
  </rdf:RDF>
 </metadata>
 <defs>
  <style type="text/css">*{stroke-linejoin: round; stroke-linecap: butt}</style>
 </defs>
 <g id="figure_1">
  <g id="patch_1">
   <path d="M 0 360 
L 720 360 
L 720 0 
L 0 0 
z
" style="fill: #ffffff"/>
  </g>
  <g id="axes_1">
   <g id="patch_2">
    <path d="M 90 314.702514 
L 90 48.897486 
L 648 48.897486 
L 648 314.702514 
L 90 314.702514 
" style="fill: #ffffff"/>
   </g>
   <g id="line2d_1">
    <defs>
     <path id="m7de876607a" d="M 0 9.751087 
C 2.586018 9.751087 5.066468 8.723651 6.89506 6.89506 
C 8.723651 5.066468 9.751087 2.586018 9.751087 0 
C 9.751087 -2.586018 8.723651 -5.066468 6.89506 -6.89506 
C 5.066468 -8.723651 2.586018 -9.751087 0 -9.751087 
C -2.586018 -9.751087 -5.066468 -8.723651 -6.89506 -6.89506 
C -8.723651 -5.066468 -9.751087 -2.586018 -9.751087 0 
C -9.751087 2.586018 -8.723651 5.066468 -6.89506 6.89506 
C -5.066468 8.723651 -2.586018 9.751087 0 9.751087 
z
" style="stroke: #000000"/>
    </defs>
    <g clip-path="url(#p60fa7ffd0b)">
     <use xlink:href="#m7de876607a" x="363.426865" y="148.95751" style="stroke: #000000"/>
    </g>
   </g>
   <g id="line2d_2">
    <defs>
     <path id="mcee095130e" d="M 0 8.383762 
C 2.2234 8.383762 4.356034 7.500396 5.928215 5.928215 
C 7.500396 4.356034 8.383762 2.2234 8.383762 0 
C 8.383762 -2.2234 7.500396 -4.356034 5.928215 -5.928215 
C 4.356034 -7.500396 2.2234 -8.383762 0 -8.383762 
C -2.2234 -8.383762 -4.356034 -7.500396 -5.928215 -5.928215 
C -7.500396 -4.356034 -8.383762 -2.2234 -8.383762 0 
C -8.383762 2.2234 -7.500396 4.356034 -5.928215 5.928215 
C -4.356034 7.500396 -2.2234 8.383762 0 8.383762 
z
" style="stroke: #000000"/>
    </defs>
    <g clip-path="url(#p60fa7ffd0b)">
     <use xlink:href="#mcee095130e" x="557.982865" y="302.620467" style="stroke: #000000"/>
    </g>
   </g>
   <g id="line2d_3">
    <defs>
     <path id="mb54a3bd426" d="M 0 8.188715 
C 2.171673 8.188715 4.254692 7.325901 5.790296 5.790296 
C 7.325901 4.254692 8.188715 2.171673 8.188715 0 
C 8.188715 -2.171673 7.325901 -4.254692 5.790296 -5.790296 
C 4.254692 -7.325901 2.171673 -8.188715 0 -8.188715 
C -2.171673 -8.188715 -4.254692 -7.325901 -5.790296 -5.790296 
C -7.325901 -4.254692 -8.188715 -2.171673 -8.188715 0 
C -8.188715 2.171673 -7.325901 4.254692 -5.790296 5.790296 
C -4.254692 7.325901 -2.171673 8.188715 0 8.188715 
z
" style="stroke: #000000"/>
    </defs>
    <g clip-path="url(#p60fa7ffd0b)">
     <use xlink:href="#mb54a3bd426" x="115.363636" y="213.288329" style="stroke: #000000"/>
    </g>
   </g>
   <g id="line2d_4">
    <defs>
     <path id="m7373ab774d" d="M 0 7.957566 
C 2.110371 7.957566 4.134591 7.119107 5.626849 5.626849 
C 7.119107 4.134591 7.957566 2.110371 7.957566 0 
C 7.957566 -2.110371 7.119107 -4.134591 5.626849 -5.626849 
C 4.134591 -7.119107 2.110371 -7.957566 0 -7.957566 
C -2.110371 -7.957566 -4.134591 -7.119107 -5.626849 -5.626849 
C -7.119107 -4.134591 -7.957566 -2.110371 -7.957566 0 
C -7.957566 2.110371 -7.119107 4.134591 -5.626849 5.626849 
C -4.134591 7.119107 -2.110371 7.957566 0 7.957566 
z
" style="stroke: #000000"/>
    </defs>
    <g clip-path="url(#p60fa7ffd0b)">
     <use xlink:href="#m7373ab774d" x="331.919635" y="192.194591" style="stroke: #000000"/>
    </g>
   </g>
   <g id="line2d_5">
    <defs>
     <path id="m2bea474baa" d="M 0 7.861524 
C 2.0849 7.861524 4.08469 7.033184 5.558937 5.558937 
C 7.033184 4.08469 7.861524 2.0849 7.861524 0 
C 7.861524 -2.0849 7.033184 -4.08469 5.558937 -5.558937 
C 4.08469 -7.033184 2.0849 -7.861524 0 -7.861524 
C -2.0849 -7.861524 -4.08469 -7.033184 -5.558937 -5.558937 
C -7.033184 -4.08469 -7.861524 -2.0849 -7.861524 0 
C -7.861524 2.0849 -7.033184 4.08469 -5.558937 5.558937 
C -4.08469 7.033184 -2.0849 7.861524 0 7.861524 
z
" style="stroke: #000000"/>
    </defs>
    <g clip-path="url(#p60fa7ffd0b)">
     <use xlink:href="#m2bea474baa" x="336.536197" y="145.73021" style="stroke: #000000"/>
    </g>
   </g>
   <g id="line2d_6">
    <defs>
     <path id="m88b0702b02" d="M 0 7.690044 
C 2.039424 7.690044 3.995592 6.879773 5.437683 5.437683 
C 6.879773 3.995592 7.690044 2.039424 7.690044 0 
C 7.690044 -2.039424 6.879773 -3.995592 5.437683 -5.437683 
C 3.995592 -6.879773 2.039424 -7.690044 0 -7.690044 
C -2.039424 -7.690044 -3.995592 -6.879773 -5.437683 -5.437683 
C -6.879773 -3.995592 -7.690044 -2.039424 -7.690044 0 
C -7.690044 2.039424 -6.879773 3.995592 -5.437683 5.437683 
C -3.995592 6.879773 -2.039424 7.690044 0 7.690044 
z
" style="stroke: #000000"/>
    </defs>
    <g clip-path="url(#p60fa7ffd0b)">
     <use xlink:href="#m88b0702b02" x="159.474239" y="82.731083" style="stroke: #000000"/>
    </g>
   </g>
   <g id="line2d_7">
    <defs>
     <path id="m6fec65d226" d="M 0 7.6133 
C 2.019071 7.6133 3.955718 6.811115 5.383416 5.383416 
C 6.811115 3.955718 7.6133 2.019071 7.6133 0 
C 7.6133 -2.019071 6.811115 -3.955718 5.383416 -5.383416 
C 3.955718 -6.811115 2.019071 -7.6133 0 -7.6133 
C -2.019071 -7.6133 -3.955718 -6.811115 -5.383416 -5.383416 
C -6.811115 -3.955718 -7.6133 -2.019071 -7.6133 0 
C -7.6133 2.019071 -6.811115 3.955718 -5.383416 5.383416 
C -3.955718 6.811115 -2.019071 7.6133 0 7.6133 
z
" style="stroke: #000000"/>
    </defs>
    <g clip-path="url(#p60fa7ffd0b)">
     <use xlink:href="#m6fec65d226" x="622.636364" y="212.485336" style="stroke: #000000"/>
    </g>
   </g>
   <g id="line2d_8">
    <defs>
     <path id="md551c66e32" d="M 0 7.362443 
C 1.952543 7.362443 3.825377 6.58669 5.206034 5.206034 
C 6.58669 3.825377 7.362443 1.952543 7.362443 0 
C 7.362443 -1.952543 6.58669 -3.825377 5.206034 -5.206034 
C 3.825377 -6.58669 1.952543 -7.362443 0 -7.362443 
C -1.952543 -7.362443 -3.825377 -6.58669 -5.206034 -5.206034 
C -6.58669 -3.825377 -7.362443 -1.952543 -7.362443 0 
C -7.362443 1.952543 -6.58669 3.825377 -5.206034 5.206034 
C -3.825377 6.58669 -1.952543 7.362443 0 7.362443 
z
" style="stroke: #000000"/>
    </defs>
    <g clip-path="url(#p60fa7ffd0b)">
     <use xlink:href="#md551c66e32" x="503.803991" y="214.11584" style="stroke: #000000"/>
    </g>
   </g>
   <g id="line2d_9">
    <defs>
     <path id="mc65885cba9" d="M 0 7.359373 
C 1.951729 7.359373 3.823782 6.583943 5.203863 5.203863 
C 6.583943 3.823782 7.359373 1.951729 7.359373 0 
C 7.359373 -1.951729 6.583943 -3.823782 5.203863 -5.203863 
C 3.823782 -6.583943 1.951729 -7.359373 0 -7.359373 
C -1.951729 -7.359373 -3.823782 -6.583943 -5.203863 -5.203863 
C -6.583943 -3.823782 -7.359373 -1.951729 -7.359373 0 
C -7.359373 1.951729 -6.583943 3.823782 -5.203863 5.203863 
C -3.823782 6.583943 -1.951729 7.359373 0 7.359373 
z
" style="stroke: #000000"/>
    </defs>
    <g clip-path="url(#p60fa7ffd0b)">
     <use xlink:href="#mc65885cba9" x="469.352902" y="60.979533" style="stroke: #000000"/>
    </g>
   </g>
   <g id="line2d_10">
    <defs>
     <path id="mf9690ff592" d="M 0 7.353922 
C 1.950283 7.353922 3.82095 6.579067 5.200008 5.200008 
C 6.579067 3.82095 7.353922 1.950283 7.353922 0 
C 7.353922 -1.950283 6.579067 -3.82095 5.200008 -5.200008 
C 3.82095 -6.579067 1.950283 -7.353922 0 -7.353922 
C -1.950283 -7.353922 -3.82095 -6.579067 -5.200008 -5.200008 
C -6.579067 -3.82095 -7.353922 -1.950283 -7.353922 0 
C -7.353922 1.950283 -6.579067 3.82095 -5.200008 5.200008 
C -3.82095 6.579067 -1.950283 7.353922 0 7.353922 
z
" style="stroke: #000000"/>
    </defs>
    <g clip-path="url(#p60fa7ffd0b)">
     <use xlink:href="#mf9690ff592" x="404.151989" y="167.95976" style="stroke: #000000"/>
    </g>
   </g>
  </g>
 </g>
 <defs>
  <clipPath id="p60fa7ffd0b">
   <path d="M 90 314.702514 
L 90 48.897486 
L 648 48.897486 
L 648 314.702514 
L 90 314.702514 
"/>
  </clipPath>
 </defs>
</svg>
