<?xml version="1.0" encoding="utf-8" standalone="no"?>
<!DOCTYPE svg PUBLIC "-//W3C//DTD SVG 1.1//EN"
  "http://www.w3.org/Graphics/SVG/1.1/DTD/svg11.dtd">
<svg xmlns:xlink="http://www.w3.org/1999/xlink" width="720pt" height="360pt" viewBox="0 0 720 360" xmlns="http://www.w3.org/2000/svg" version="1.1">
 <metadata>
  <rdf:RDF xmlns:dc="http://purl.org/dc/elements/1.1/" xmlns:cc="http://creativecommons.org/ns#" xmlns:rdf="http://www.w3.org/1999/02/22-rdf-syntax-ns#">
   <cc:Work>
    <dc:type rdf:resource="http://purl.org/dc/dcmitype/StillImage"/>
    <dc:date>2023-11-30T21:30:52.865879</dc:date>
    <dc:format>image/svg+xml</dc:format>
    <dc:creator>
     <cc:Agent>
      <dc:title>Matplotlib v3.8.1, https://matplotlib.org/</dc:title>
     </cc:Agent>
    </dc:creator>
   </cc:Work>
  </rdf:RDF>
 </metadata>
 <defs>
  <style type="text/css">*{stroke-linejoin: round; stroke-linecap: butt}</style>
 </defs>
 <g id="figure_1">
  <g id="patch_1">
   <path d="M 0 360 
L 720 360 
L 720 0 
L 0 0 
z
" style="fill: #ffffff"/>
  </g>
  <g id="axes_1">
   <g id="patch_2">
    <path d="M 207.170178 320.4 
L 207.170178 43.2 
L 530.829822 43.2 
L 530.829822 320.4 
L 207.170178 320.4 
" style="fill: #ffffff"/>
   </g>
   <g id="line2d_1">
    <defs>
     <path id="mb196ad9b14" d="M 0 10.067222 
C 2.669858 10.067222 5.230726 9.006476 7.118601 7.118601 
C 9.006476 5.230726 10.067222 2.669858 10.067222 0 
C 10.067222 -2.669858 9.006476 -5.230726 7.118601 -7.118601 
C 5.230726 -9.006476 2.669858 -10.067222 0 -10.067222 
C -2.669858 -10.067222 -5.230726 -9.006476 -7.118601 -7.118601 
C -9.006476 -5.230726 -10.067222 -2.669858 -10.067222 0 
C -10.067222 2.669858 -9.006476 5.230726 -7.118601 7.118601 
C -5.230726 9.006476 -2.669858 10.067222 0 10.067222 
z
" style="stroke: #000000"/>
    </defs>
    <g clip-path="url(#p1f2aa9d9a5)">
     <use xlink:href="#mb196ad9b14" x="252.280433" y="55.8" style="stroke: #000000"/>
    </g>
   </g>
   <g id="line2d_2">
    <defs>
     <path id="m2a863c580c" d="M 0 9.811329 
C 2.601995 9.811329 5.097769 8.777545 6.937657 6.937657 
C 8.777545 5.097769 9.811329 2.601995 9.811329 0 
C 9.811329 -2.601995 8.777545 -5.097769 6.937657 -6.937657 
C 5.097769 -8.777545 2.601995 -9.811329 0 -9.811329 
C -2.601995 -9.811329 -5.097769 -8.777545 -6.937657 -6.937657 
C -8.777545 -5.097769 -9.811329 -2.601995 -9.811329 0 
C -9.811329 2.601995 -8.777545 5.097769 -6.937657 6.937657 
C -5.097769 8.777545 -2.601995 9.811329 0 9.811329 
z
" style="stroke: #000000"/>
    </defs>
    <g clip-path="url(#p1f2aa9d9a5)">
     <use xlink:href="#m2a863c580c" x="510.208501" y="89.972275" style="stroke: #000000"/>
    </g>
   </g>
   <g id="line2d_3">
    <defs>
     <path id="m99e954c92f" d="M 0 9.333114 
C 2.475171 9.333114 4.849298 8.349718 6.599508 6.599508 
C 8.349718 4.849298 9.333114 2.475171 9.333114 0 
C 9.333114 -2.475171 8.349718 -4.849298 6.599508 -6.599508 
C 4.849298 -8.349718 2.475171 -9.333114 0 -9.333114 
C -2.475171 -9.333114 -4.849298 -8.349718 -6.599508 -6.599508 
C -8.349718 -4.849298 -9.333114 -2.475171 -9.333114 0 
C -9.333114 2.475171 -8.349718 4.849298 -6.599508 6.599508 
C -4.849298 8.349718 -2.475171 9.333114 0 9.333114 
z
" style="stroke: #000000"/>
    </defs>
    <g clip-path="url(#p1f2aa9d9a5)">
     <use xlink:href="#m99e954c92f" x="516.11802" y="149.402425" style="stroke: #000000"/>
    </g>
   </g>
   <g id="line2d_4">
    <defs>
     <path id="mb0fb97ed76" d="M 0 9.279347 
C 2.460912 9.279347 4.821362 8.301616 6.561489 6.561489 
C 8.301616 4.821362 9.279347 2.460912 9.279347 0 
C 9.279347 -2.460912 8.301616 -4.821362 6.561489 -6.561489 
C 4.821362 -8.301616 2.460912 -9.279347 0 -9.279347 
C -2.460912 -9.279347 -4.821362 -8.301616 -6.561489 -6.561489 
C -8.301616 -4.821362 -9.279347 -2.460912 -9.279347 0 
C -9.279347 2.460912 -8.301616 4.821362 -6.561489 6.561489 
C -4.821362 8.301616 -2.460912 9.279347 0 9.279347 
z
" style="stroke: #000000"/>
    </defs>
    <g clip-path="url(#p1f2aa9d9a5)">
     <use xlink:href="#mb0fb97ed76" x="323.69281" y="78.483344" style="stroke: #000000"/>
    </g>
   </g>
   <g id="line2d_5">
    <defs>
     <path id="ma8b392c2fc" d="M 0 8.842409 
C 2.345034 8.842409 4.594337 7.910717 6.252527 6.252527 
C 7.910717 4.594337 8.842409 2.345034 8.842409 0 
C 8.842409 -2.345034 7.910717 -4.594337 6.252527 -6.252527 
C 4.594337 -7.910717 2.345034 -8.842409 0 -8.842409 
C -2.345034 -8.842409 -4.594337 -7.910717 -6.252527 -6.252527 
C -7.910717 -4.594337 -8.842409 -2.345034 -8.842409 0 
C -8.842409 2.345034 -7.910717 4.594337 -6.252527 6.252527 
C -4.594337 7.910717 -2.345034 8.842409 0 8.842409 
z
" style="stroke: #000000"/>
    </defs>
    <g clip-path="url(#p1f2aa9d9a5)">
     <use xlink:href="#ma8b392c2fc" x="268.992836" y="75.847338" style="stroke: #000000"/>
    </g>
   </g>
   <g id="line2d_6">
    <defs>
     <path id="m1378863d74" d="M 0 8.811798 
C 2.336916 8.811798 4.578433 7.883331 6.230882 6.230882 
C 7.883331 4.578433 8.811798 2.336916 8.811798 0 
C 8.811798 -2.336916 7.883331 -4.578433 6.230882 -6.230882 
C 4.578433 -7.883331 2.336916 -8.811798 0 -8.811798 
C -2.336916 -8.811798 -4.578433 -7.883331 -6.230882 -6.230882 
C -7.883331 -4.578433 -8.811798 -2.336916 -8.811798 0 
C -8.811798 2.336916 -7.883331 4.578433 -6.230882 6.230882 
C -4.578433 7.883331 -2.336916 8.811798 0 8.811798 
z
" style="stroke: #000000"/>
    </defs>
    <g clip-path="url(#p1f2aa9d9a5)">
     <use xlink:href="#m1378863d74" x="292.558572" y="66.395198" style="stroke: #000000"/>
    </g>
   </g>
   <g id="line2d_7">
    <defs>
     <path id="mbf76928342" d="M 0 8.804824 
C 2.335067 8.804824 4.574809 7.877092 6.225951 6.225951 
C 7.877092 4.574809 8.804824 2.335067 8.804824 0 
C 8.804824 -2.335067 7.877092 -4.574809 6.225951 -6.225951 
C 4.574809 -7.877092 2.335067 -8.804824 0 -8.804824 
C -2.335067 -8.804824 -4.574809 -7.877092 -6.225951 -6.225951 
C -7.877092 -4.574809 -8.804824 -2.335067 -8.804824 0 
C -8.804824 2.335067 -7.877092 4.574809 -6.225951 6.225951 
C -4.574809 7.877092 -2.335067 8.804824 0 8.804824 
z
" style="stroke: #000000"/>
    </defs>
    <g clip-path="url(#p1f2aa9d9a5)">
     <use xlink:href="#mbf76928342" x="235.05002" y="61.585619" style="stroke: #000000"/>
    </g>
   </g>
   <g id="line2d_8">
    <defs>
     <path id="ma5176575c2" d="M 0 8.752952 
C 2.32131 8.752952 4.547858 7.830686 6.189272 6.189272 
C 7.830686 4.547858 8.752952 2.32131 8.752952 0 
C 8.752952 -2.32131 7.830686 -4.547858 6.189272 -6.189272 
C 4.547858 -7.830686 2.32131 -8.752952 0 -8.752952 
C -2.32131 -8.752952 -4.547858 -7.830686 -6.189272 -6.189272 
C -7.830686 -4.547858 -8.752952 -2.32131 -8.752952 0 
C -8.752952 2.32131 -7.830686 4.547858 -6.189272 6.189272 
C -4.547858 7.830686 -2.32131 8.752952 0 8.752952 
z
" style="stroke: #000000"/>
    </defs>
    <g clip-path="url(#p1f2aa9d9a5)">
     <use xlink:href="#ma5176575c2" x="235.055268" y="61.802086" style="stroke: #000000"/>
    </g>
   </g>
   <g id="line2d_9">
    <defs>
     <path id="ma0d3fb1a59" d="M 0 8.497105 
C 2.253459 8.497105 4.414925 7.601796 6.00836 6.00836 
C 7.601796 4.414925 8.497105 2.253459 8.497105 0 
C 8.497105 -2.253459 7.601796 -4.414925 6.00836 -6.00836 
C 4.414925 -7.601796 2.253459 -8.497105 0 -8.497105 
C -2.253459 -8.497105 -4.414925 -7.601796 -6.00836 -6.00836 
C -7.601796 -4.414925 -8.497105 -2.253459 -8.497105 0 
C -8.497105 2.253459 -7.601796 4.414925 -6.00836 6.00836 
C -4.414925 7.601796 -2.253459 8.497105 0 8.497105 
z
" style="stroke: #000000"/>
    </defs>
    <g clip-path="url(#p1f2aa9d9a5)">
     <use xlink:href="#ma0d3fb1a59" x="221.88198" y="61.58207" style="stroke: #000000"/>
    </g>
   </g>
   <g id="line2d_10">
    <defs>
     <path id="m3c01ccf100" d="M 0 8.494082 
C 2.252657 8.494082 4.413354 7.599092 6.006223 6.006223 
C 7.599092 4.413354 8.494082 2.252657 8.494082 0 
C 8.494082 -2.252657 7.599092 -4.413354 6.006223 -6.006223 
C 4.413354 -7.599092 2.252657 -8.494082 0 -8.494082 
C -2.252657 -8.494082 -4.413354 -7.599092 -6.006223 -6.006223 
C -7.599092 -4.413354 -8.494082 -2.252657 -8.494082 0 
C -8.494082 2.252657 -7.599092 4.413354 -6.006223 6.006223 
C -4.413354 7.599092 -2.252657 8.494082 0 8.494082 
z
" style="stroke: #000000"/>
    </defs>
    <g clip-path="url(#p1f2aa9d9a5)">
     <use xlink:href="#m3c01ccf100" x="298.796065" y="307.8" style="stroke: #000000"/>
    </g>
   </g>
  </g>
 </g>
 <defs>
  <clipPath id="p1f2aa9d9a5">
   <path d="M 207.170178 320.4 
L 207.170178 43.2 
L 530.829822 43.2 
L 530.829822 320.4 
L 207.170178 320.4 
"/>
  </clipPath>
 </defs>
</svg>
