<?xml version="1.0" encoding="utf-8" standalone="no"?>
<!DOCTYPE svg PUBLIC "-//W3C//DTD SVG 1.1//EN"
  "http://www.w3.org/Graphics/SVG/1.1/DTD/svg11.dtd">
<svg xmlns:xlink="http://www.w3.org/1999/xlink" width="720pt" height="360pt" viewBox="0 0 720 360" xmlns="http://www.w3.org/2000/svg" version="1.1">
 <metadata>
  <rdf:RDF xmlns:dc="http://purl.org/dc/elements/1.1/" xmlns:cc="http://creativecommons.org/ns#" xmlns:rdf="http://www.w3.org/1999/02/22-rdf-syntax-ns#">
   <cc:Work>
    <dc:type rdf:resource="http://purl.org/dc/dcmitype/StillImage"/>
    <dc:date>2023-11-30T21:30:50.011578</dc:date>
    <dc:format>image/svg+xml</dc:format>
    <dc:creator>
     <cc:Agent>
      <dc:title>Matplotlib v3.8.1, https://matplotlib.org/</dc:title>
     </cc:Agent>
    </dc:creator>
   </cc:Work>
  </rdf:RDF>
 </metadata>
 <defs>
  <style type="text/css">*{stroke-linejoin: round; stroke-linecap: butt}</style>
 </defs>
 <g id="figure_1">
  <g id="patch_1">
   <path d="M 0 360 
L 720 360 
L 720 0 
L 0 0 
z
" style="fill: #ffffff"/>
  </g>
  <g id="axes_1">
   <g id="patch_2">
    <path d="M 201.338782 320.4 
L 201.338782 43.2 
L 536.661218 43.2 
L 536.661218 320.4 
L 201.338782 320.4 
" style="fill: #ffffff"/>
   </g>
   <g id="line2d_1">
    <defs>
     <path id="m903648a02f" d="M 0 10.792294 
C 2.86215 10.792294 5.607459 9.65515 7.631304 7.631304 
C 9.65515 5.607459 10.792294 2.86215 10.792294 0 
C 10.792294 -2.86215 9.65515 -5.607459 7.631304 -7.631304 
C 5.607459 -9.65515 2.86215 -10.792294 0 -10.792294 
C -2.86215 -10.792294 -5.607459 -9.65515 -7.631304 -7.631304 
C -9.65515 -5.607459 -10.792294 -2.86215 -10.792294 0 
C -10.792294 2.86215 -9.65515 5.607459 -7.631304 7.631304 
C -5.607459 9.65515 -2.86215 10.792294 0 10.792294 
z
" style="stroke: #000000"/>
    </defs>
    <g clip-path="url(#p15c6a82068)">
     <use xlink:href="#m903648a02f" x="295.342481" y="160.375355" style="stroke: #000000"/>
    </g>
   </g>
   <g id="line2d_2">
    <defs>
     <path id="m8b6b4049ab" d="M 0 10.329528 
C 2.739423 10.329528 5.367015 9.241144 7.30408 7.30408 
C 9.241144 5.367015 10.329528 2.739423 10.329528 0 
C 10.329528 -2.739423 9.241144 -5.367015 7.30408 -7.30408 
C 5.367015 -9.241144 2.739423 -10.329528 0 -10.329528 
C -2.739423 -10.329528 -5.367015 -9.241144 -7.30408 -7.30408 
C -9.241144 -5.367015 -10.329528 -2.739423 -10.329528 0 
C -10.329528 2.739423 -9.241144 5.367015 -7.30408 7.30408 
C -5.367015 9.241144 -2.739423 10.329528 0 10.329528 
z
" style="stroke: #000000"/>
    </defs>
    <g clip-path="url(#p15c6a82068)">
     <use xlink:href="#m8b6b4049ab" x="326.217735" y="140.196709" style="stroke: #000000"/>
    </g>
   </g>
   <g id="line2d_3">
    <defs>
     <path id="m47627b2b7c" d="M 0 9.940004 
C 2.63612 9.940004 5.164626 8.892662 7.028644 7.028644 
C 8.892662 5.164626 9.940004 2.63612 9.940004 0 
C 9.940004 -2.63612 8.892662 -5.164626 7.028644 -7.028644 
C 5.164626 -8.892662 2.63612 -9.940004 0 -9.940004 
C -2.63612 -9.940004 -5.164626 -8.892662 -7.028644 -7.028644 
C -8.892662 -5.164626 -9.940004 -2.63612 -9.940004 0 
C -9.940004 2.63612 -8.892662 5.164626 -7.028644 7.028644 
C -5.164626 8.892662 -2.63612 9.940004 0 9.940004 
z
" style="stroke: #000000"/>
    </defs>
    <g clip-path="url(#p15c6a82068)">
     <use xlink:href="#m47627b2b7c" x="398.854642" y="139.250205" style="stroke: #000000"/>
    </g>
   </g>
   <g id="line2d_4">
    <defs>
     <path id="m46e7d5d1f0" d="M 0 9.892571 
C 2.623541 9.892571 5.139981 8.850228 6.995104 6.995104 
C 8.850228 5.139981 9.892571 2.623541 9.892571 0 
C 9.892571 -2.623541 8.850228 -5.139981 6.995104 -6.995104 
C 5.139981 -8.850228 2.623541 -9.892571 0 -9.892571 
C -2.623541 -9.892571 -5.139981 -8.850228 -6.995104 -6.995104 
C -8.850228 -5.139981 -9.892571 -2.623541 -9.892571 0 
C -9.892571 2.623541 -8.850228 5.139981 -6.995104 6.995104 
C -5.139981 8.850228 -2.623541 9.892571 0 9.892571 
z
" style="stroke: #000000"/>
    </defs>
    <g clip-path="url(#p15c6a82068)">
     <use xlink:href="#m46e7d5d1f0" x="327.569169" y="138.29919" style="stroke: #000000"/>
    </g>
   </g>
   <g id="line2d_5">
    <defs>
     <path id="ma12073d497" d="M 0 9.839411 
C 2.609442 9.839411 5.11236 8.802669 6.957514 6.957514 
C 8.802669 5.11236 9.839411 2.609442 9.839411 0 
C 9.839411 -2.609442 8.802669 -5.11236 6.957514 -6.957514 
C 5.11236 -8.802669 2.609442 -9.839411 0 -9.839411 
C -2.609442 -9.839411 -5.11236 -8.802669 -6.957514 -6.957514 
C -8.802669 -5.11236 -9.839411 -2.609442 -9.839411 0 
C -9.839411 2.609442 -8.802669 5.11236 -6.957514 6.957514 
C -5.11236 8.802669 -2.609442 9.839411 0 9.839411 
z
" style="stroke: #000000"/>
    </defs>
    <g clip-path="url(#p15c6a82068)">
     <use xlink:href="#ma12073d497" x="279.938748" y="251.913393" style="stroke: #000000"/>
    </g>
   </g>
   <g id="line2d_6">
    <defs>
     <path id="m837abd7fb6" d="M 0 9.706755 
C 2.574262 9.706755 5.043435 8.68399 6.863712 6.863712 
C 8.68399 5.043435 9.706755 2.574262 9.706755 0 
C 9.706755 -2.574262 8.68399 -5.043435 6.863712 -6.863712 
C 5.043435 -8.68399 2.574262 -9.706755 0 -9.706755 
C -2.574262 -9.706755 -5.043435 -8.68399 -6.863712 -6.863712 
C -8.68399 -5.043435 -9.706755 -2.574262 -9.706755 0 
C -9.706755 2.574262 -8.68399 5.043435 -6.863712 6.863712 
C -5.043435 8.68399 -2.574262 9.706755 0 9.706755 
z
" style="stroke: #000000"/>
    </defs>
    <g clip-path="url(#p15c6a82068)">
     <use xlink:href="#m837abd7fb6" x="216.580711" y="307.8" style="stroke: #000000"/>
    </g>
   </g>
   <g id="line2d_7">
    <defs>
     <path id="m90de1ec555" d="M 0 9.696399 
C 2.571515 9.696399 5.038054 8.674725 6.856389 6.856389 
C 8.674725 5.038054 9.696399 2.571515 9.696399 0 
C 9.696399 -2.571515 8.674725 -5.038054 6.856389 -6.856389 
C 5.038054 -8.674725 2.571515 -9.696399 0 -9.696399 
C -2.571515 -9.696399 -5.038054 -8.674725 -6.856389 -6.856389 
C -8.674725 -5.038054 -9.696399 -2.571515 -9.696399 0 
C -9.696399 2.571515 -8.674725 5.038054 -6.856389 6.856389 
C -5.038054 8.674725 -2.571515 9.696399 0 9.696399 
z
" style="stroke: #000000"/>
    </defs>
    <g clip-path="url(#p15c6a82068)">
     <use xlink:href="#m90de1ec555" x="367.161154" y="55.8" style="stroke: #000000"/>
    </g>
   </g>
   <g id="line2d_8">
    <defs>
     <path id="mcc4fc23ef9" d="M 0 9.528882 
C 2.527089 9.528882 4.951015 8.524859 6.737937 6.737937 
C 8.524859 4.951015 9.528882 2.527089 9.528882 0 
C 9.528882 -2.527089 8.524859 -4.951015 6.737937 -6.737937 
C 4.951015 -8.524859 2.527089 -9.528882 0 -9.528882 
C -2.527089 -9.528882 -4.951015 -8.524859 -6.737937 -6.737937 
C -8.524859 -4.951015 -9.528882 -2.527089 -9.528882 0 
C -9.528882 2.527089 -8.524859 4.951015 -6.737937 6.737937 
C -4.951015 8.524859 -2.527089 9.528882 0 9.528882 
z
" style="stroke: #000000"/>
    </defs>
    <g clip-path="url(#p15c6a82068)">
     <use xlink:href="#mcc4fc23ef9" x="377.17025" y="145.89244" style="stroke: #000000"/>
    </g>
   </g>
   <g id="line2d_9">
    <defs>
     <path id="m5932bc945e" d="M 0 9.314233 
C 2.470164 9.314233 4.839488 8.332827 6.586158 6.586158 
C 8.332827 4.839488 9.314233 2.470164 9.314233 0 
C 9.314233 -2.470164 8.332827 -4.839488 6.586158 -6.586158 
C 4.839488 -8.332827 2.470164 -9.314233 0 -9.314233 
C -2.470164 -9.314233 -4.839488 -8.332827 -6.586158 -6.586158 
C -8.332827 -4.839488 -9.314233 -2.470164 -9.314233 0 
C -9.314233 2.470164 -8.332827 4.839488 -6.586158 6.586158 
C -4.839488 8.332827 -2.470164 9.314233 0 9.314233 
z
" style="stroke: #000000"/>
    </defs>
    <g clip-path="url(#p15c6a82068)">
     <use xlink:href="#m5932bc945e" x="521.419289" y="108.262021" style="stroke: #000000"/>
    </g>
   </g>
   <g id="line2d_10">
    <defs>
     <path id="m21c23b09bb" d="M 0 9.296923 
C 2.465573 9.296923 4.830494 8.317341 6.573918 6.573918 
C 8.317341 4.830494 9.296923 2.465573 9.296923 0 
C 9.296923 -2.465573 8.317341 -4.830494 6.573918 -6.573918 
C 4.830494 -8.317341 2.465573 -9.296923 0 -9.296923 
C -2.465573 -9.296923 -4.830494 -8.317341 -6.573918 -6.573918 
C -8.317341 -4.830494 -9.296923 -2.465573 -9.296923 0 
C -9.296923 2.465573 -8.317341 4.830494 -6.573918 6.573918 
C -4.830494 8.317341 -2.465573 9.296923 0 9.296923 
z
" style="stroke: #000000"/>
    </defs>
    <g clip-path="url(#p15c6a82068)">
     <use xlink:href="#m21c23b09bb" x="440.997265" y="80.799457" style="stroke: #000000"/>
    </g>
   </g>
  </g>
 </g>
 <defs>
  <clipPath id="p15c6a82068">
   <path d="M 201.338782 320.4 
L 201.338782 43.2 
L 536.661218 43.2 
L 536.661218 320.4 
L 201.338782 320.4 
"/>
  </clipPath>
 </defs>
</svg>
