<?xml version="1.0" encoding="utf-8" standalone="no"?>
<!DOCTYPE svg PUBLIC "-//W3C//DTD SVG 1.1//EN"
  "http://www.w3.org/Graphics/SVG/1.1/DTD/svg11.dtd">
<svg xmlns:xlink="http://www.w3.org/1999/xlink" width="720pt" height="360pt" viewBox="0 0 720 360" xmlns="http://www.w3.org/2000/svg" version="1.1">
 <metadata>
  <rdf:RDF xmlns:dc="http://purl.org/dc/elements/1.1/" xmlns:cc="http://creativecommons.org/ns#" xmlns:rdf="http://www.w3.org/1999/02/22-rdf-syntax-ns#">
   <cc:Work>
    <dc:type rdf:resource="http://purl.org/dc/dcmitype/StillImage"/>
    <dc:date>2023-11-30T21:30:50.055539</dc:date>
    <dc:format>image/svg+xml</dc:format>
    <dc:creator>
     <cc:Agent>
      <dc:title>Matplotlib v3.8.1, https://matplotlib.org/</dc:title>
     </cc:Agent>
    </dc:creator>
   </cc:Work>
  </rdf:RDF>
 </metadata>
 <defs>
  <style type="text/css">*{stroke-linejoin: round; stroke-linecap: butt}</style>
 </defs>
 <g id="figure_1">
  <g id="patch_1">
   <path d="M 0 360 
L 720 360 
L 720 0 
L 0 0 
z
" style="fill: #ffffff"/>
  </g>
  <g id="axes_1">
   <g id="patch_2">
    <path d="M 292.07747 320.4 
L 292.07747 43.2 
L 445.92253 43.2 
L 445.92253 320.4 
L 292.07747 320.4 
" style="fill: #ffffff"/>
   </g>
   <g id="line2d_1">
    <defs>
     <path id="m8e9c54fd7c" d="M 0 9.639328 
C 2.55638 9.639328 5.008401 8.623668 6.816034 6.816034 
C 8.623668 5.008401 9.639328 2.55638 9.639328 0 
C 9.639328 -2.55638 8.623668 -5.008401 6.816034 -6.816034 
C 5.008401 -8.623668 2.55638 -9.639328 0 -9.639328 
C -2.55638 -9.639328 -5.008401 -8.623668 -6.816034 -6.816034 
C -8.623668 -5.008401 -9.639328 -2.55638 -9.639328 0 
C -9.639328 2.55638 -8.623668 5.008401 -6.816034 6.816034 
C -5.008401 8.623668 -2.55638 9.639328 0 9.639328 
z
" style="stroke: #000000"/>
    </defs>
    <g clip-path="url(#pf0f3141baa)">
     <use xlink:href="#m8e9c54fd7c" x="379.915716" y="185.918022" style="stroke: #000000"/>
    </g>
   </g>
   <g id="line2d_2">
    <defs>
     <path id="m260efdb25a" d="M 0 8.630207 
C 2.288758 8.630207 4.484082 7.720874 6.102478 6.102478 
C 7.720874 4.484082 8.630207 2.288758 8.630207 0 
C 8.630207 -2.288758 7.720874 -4.484082 6.102478 -6.102478 
C 4.484082 -7.720874 2.288758 -8.630207 0 -8.630207 
C -2.288758 -8.630207 -4.484082 -7.720874 -6.102478 -6.102478 
C -7.720874 -4.484082 -8.630207 -2.288758 -8.630207 0 
C -8.630207 2.288758 -7.720874 4.484082 -6.102478 6.102478 
C -4.484082 7.720874 -2.288758 8.630207 0 8.630207 
z
" style="stroke: #000000"/>
    </defs>
    <g clip-path="url(#pf0f3141baa)">
     <use xlink:href="#m260efdb25a" x="438.929573" y="204.094657" style="stroke: #000000"/>
    </g>
   </g>
   <g id="line2d_3">
    <defs>
     <path id="m4d6206fd4d" d="M 0 8.46579 
C 2.245154 8.46579 4.398654 7.573781 5.986218 5.986218 
C 7.573781 4.398654 8.46579 2.245154 8.46579 0 
C 8.46579 -2.245154 7.573781 -4.398654 5.986218 -5.986218 
C 4.398654 -7.573781 2.245154 -8.46579 0 -8.46579 
C -2.245154 -8.46579 -4.398654 -7.573781 -5.986218 -5.986218 
C -7.573781 -4.398654 -8.46579 -2.245154 -8.46579 0 
C -8.46579 2.245154 -7.573781 4.398654 -5.986218 5.986218 
C -4.398654 7.573781 -2.245154 8.46579 0 8.46579 
z
" style="stroke: #000000"/>
    </defs>
    <g clip-path="url(#pf0f3141baa)">
     <use xlink:href="#m4d6206fd4d" x="308.925318" y="100.602355" style="stroke: #000000"/>
    </g>
   </g>
   <g id="line2d_4">
    <defs>
     <path id="m82b99fa03f" d="M 0 8.374725 
C 2.221003 8.374725 4.351339 7.492311 5.921825 5.921825 
C 7.492311 4.351339 8.374725 2.221003 8.374725 0 
C 8.374725 -2.221003 7.492311 -4.351339 5.921825 -5.921825 
C 4.351339 -7.492311 2.221003 -8.374725 0 -8.374725 
C -2.221003 -8.374725 -4.351339 -7.492311 -5.921825 -5.921825 
C -7.492311 -4.351339 -8.374725 -2.221003 -8.374725 0 
C -8.374725 2.221003 -7.492311 4.351339 -5.921825 5.921825 
C -4.351339 7.492311 -2.221003 8.374725 0 8.374725 
z
" style="stroke: #000000"/>
    </defs>
    <g clip-path="url(#pf0f3141baa)">
     <use xlink:href="#m82b99fa03f" x="427.34998" y="205.340715" style="stroke: #000000"/>
    </g>
   </g>
   <g id="line2d_5">
    <defs>
     <path id="med0377bf54" d="M 0 7.879528 
C 2.089675 7.879528 4.094044 7.049291 5.571668 5.571668 
C 7.049291 4.094044 7.879528 2.089675 7.879528 0 
C 7.879528 -2.089675 7.049291 -4.094044 5.571668 -5.571668 
C 4.094044 -7.049291 2.089675 -7.879528 0 -7.879528 
C -2.089675 -7.879528 -4.094044 -7.049291 -5.571668 -5.571668 
C -7.049291 -4.094044 -7.879528 -2.089675 -7.879528 0 
C -7.879528 2.089675 -7.049291 4.094044 -5.571668 5.571668 
C -4.094044 7.049291 -2.089675 7.879528 0 7.879528 
z
" style="stroke: #000000"/>
    </defs>
    <g clip-path="url(#pf0f3141baa)">
     <use xlink:href="#med0377bf54" x="391.579441" y="100.031745" style="stroke: #000000"/>
    </g>
   </g>
   <g id="line2d_6">
    <defs>
     <path id="mebcd6a0e3e" d="M 0 7.537008 
C 1.998838 7.537008 3.916078 6.742861 5.329469 5.329469 
C 6.742861 3.916078 7.537008 1.998838 7.537008 0 
C 7.537008 -1.998838 6.742861 -3.916078 5.329469 -5.329469 
C 3.916078 -6.742861 1.998838 -7.537008 0 -7.537008 
C -1.998838 -7.537008 -3.916078 -6.742861 -5.329469 -5.329469 
C -6.742861 -3.916078 -7.537008 -1.998838 -7.537008 0 
C -7.537008 1.998838 -6.742861 3.916078 -5.329469 5.329469 
C -3.916078 6.742861 -1.998838 7.537008 0 7.537008 
z
" style="stroke: #000000"/>
    </defs>
    <g clip-path="url(#pf0f3141baa)">
     <use xlink:href="#mebcd6a0e3e" x="329.573552" y="307.8" style="stroke: #000000"/>
    </g>
   </g>
   <g id="line2d_7">
    <defs>
     <path id="maec40c078e" d="M 0 7.535543 
C 1.998449 7.535543 3.915316 6.74155 5.328433 5.328433 
C 6.74155 3.915316 7.535543 1.998449 7.535543 0 
C 7.535543 -1.998449 6.74155 -3.915316 5.328433 -5.328433 
C 3.915316 -6.74155 1.998449 -7.535543 0 -7.535543 
C -1.998449 -7.535543 -3.915316 -6.74155 -5.328433 -5.328433 
C -6.74155 -3.915316 -7.535543 -1.998449 -7.535543 0 
C -7.535543 1.998449 -6.74155 3.915316 -5.328433 5.328433 
C -3.915316 6.74155 -1.998449 7.535543 0 7.535543 
z
" style="stroke: #000000"/>
    </defs>
    <g clip-path="url(#pf0f3141baa)">
     <use xlink:href="#maec40c078e" x="299.070427" y="162.927285" style="stroke: #000000"/>
    </g>
   </g>
   <g id="line2d_8">
    <defs>
     <path id="m99abc30927" d="M 0 7.371576 
C 1.954965 7.371576 3.830122 6.59486 5.212491 5.212491 
C 6.59486 3.830122 7.371576 1.954965 7.371576 0 
C 7.371576 -1.954965 6.59486 -3.830122 5.212491 -5.212491 
C 3.830122 -6.59486 1.954965 -7.371576 0 -7.371576 
C -1.954965 -7.371576 -3.830122 -6.59486 -5.212491 -5.212491 
C -6.59486 -3.830122 -7.371576 -1.954965 -7.371576 0 
C -7.371576 1.954965 -6.59486 3.830122 -5.212491 5.212491 
C -3.830122 6.59486 -1.954965 7.371576 0 7.371576 
z
" style="stroke: #000000"/>
    </defs>
    <g clip-path="url(#pf0f3141baa)">
     <use xlink:href="#m99abc30927" x="336.120535" y="55.8" style="stroke: #000000"/>
    </g>
   </g>
   <g id="line2d_9">
    <defs>
     <path id="m88425bcd02" d="M 0 7.302479 
C 1.93664 7.302479 3.794221 6.533044 5.163633 5.163633 
C 6.533044 3.794221 7.302479 1.93664 7.302479 0 
C 7.302479 -1.93664 6.533044 -3.794221 5.163633 -5.163633 
C 3.794221 -6.533044 1.93664 -7.302479 0 -7.302479 
C -1.93664 -7.302479 -3.794221 -6.533044 -5.163633 -5.163633 
C -6.533044 -3.794221 -7.302479 -1.93664 -7.302479 0 
C -7.302479 1.93664 -6.533044 3.794221 -5.163633 5.163633 
C -3.794221 6.533044 -1.93664 7.302479 0 7.302479 
z
" style="stroke: #000000"/>
    </defs>
    <g clip-path="url(#pf0f3141baa)">
     <use xlink:href="#m88425bcd02" x="377.388704" y="143.347955" style="stroke: #000000"/>
    </g>
   </g>
   <g id="line2d_10">
    <defs>
     <path id="mf670cdce2b" d="M 0 7.252627 
C 1.923419 7.252627 3.768319 6.488444 5.128381 5.128381 
C 6.488444 3.768319 7.252627 1.923419 7.252627 0 
C 7.252627 -1.923419 6.488444 -3.768319 5.128381 -5.128381 
C 3.768319 -6.488444 1.923419 -7.252627 0 -7.252627 
C -1.923419 -7.252627 -3.768319 -6.488444 -5.128381 -5.128381 
C -6.488444 -3.768319 -7.252627 -1.923419 -7.252627 0 
C -7.252627 1.923419 -6.488444 3.768319 -5.128381 5.128381 
C -3.768319 6.488444 -1.923419 7.252627 0 7.252627 
z
" style="stroke: #000000"/>
    </defs>
    <g clip-path="url(#pf0f3141baa)">
     <use xlink:href="#mf670cdce2b" x="403.562101" y="156.769854" style="stroke: #000000"/>
    </g>
   </g>
  </g>
 </g>
 <defs>
  <clipPath id="pf0f3141baa">
   <path d="M 292.07747 320.4 
L 292.07747 43.2 
L 445.92253 43.2 
L 445.92253 320.4 
L 292.07747 320.4 
"/>
  </clipPath>
 </defs>
</svg>
