<?xml version="1.0" encoding="utf-8" standalone="no"?>
<!DOCTYPE svg PUBLIC "-//W3C//DTD SVG 1.1//EN"
  "http://www.w3.org/Graphics/SVG/1.1/DTD/svg11.dtd">
<svg xmlns:xlink="http://www.w3.org/1999/xlink" width="720pt" height="360pt" viewBox="0 0 720 360" xmlns="http://www.w3.org/2000/svg" version="1.1">
 <metadata>
  <rdf:RDF xmlns:dc="http://purl.org/dc/elements/1.1/" xmlns:cc="http://creativecommons.org/ns#" xmlns:rdf="http://www.w3.org/1999/02/22-rdf-syntax-ns#">
   <cc:Work>
    <dc:type rdf:resource="http://purl.org/dc/dcmitype/StillImage"/>
    <dc:date>2023-11-30T21:30:50.097775</dc:date>
    <dc:format>image/svg+xml</dc:format>
    <dc:creator>
     <cc:Agent>
      <dc:title>Matplotlib v3.8.1, https://matplotlib.org/</dc:title>
     </cc:Agent>
    </dc:creator>
   </cc:Work>
  </rdf:RDF>
 </metadata>
 <defs>
  <style type="text/css">*{stroke-linejoin: round; stroke-linecap: butt}</style>
 </defs>
 <g id="figure_1">
  <g id="patch_1">
   <path d="M 0 360 
L 720 360 
L 720 0 
L 0 0 
z
" style="fill: #ffffff"/>
  </g>
  <g id="axes_1">
   <g id="patch_2">
    <path d="M 273.242598 320.4 
L 273.242598 43.2 
L 464.757402 43.2 
L 464.757402 320.4 
L 273.242598 320.4 
" style="fill: #ffffff"/>
   </g>
   <g id="line2d_1">
    <defs>
     <path id="m0ca7d39ae6" d="M 0 8.926816 
C 2.367419 8.926816 4.638194 7.986231 6.312212 6.312212 
C 7.986231 4.638194 8.926816 2.367419 8.926816 0 
C 8.926816 -2.367419 7.986231 -4.638194 6.312212 -6.312212 
C 4.638194 -7.986231 2.367419 -8.926816 0 -8.926816 
C -2.367419 -8.926816 -4.638194 -7.986231 -6.312212 -6.312212 
C -7.986231 -4.638194 -8.926816 -2.367419 -8.926816 0 
C -8.926816 2.367419 -7.986231 4.638194 -6.312212 6.312212 
C -4.638194 7.986231 -2.367419 8.926816 0 8.926816 
z
" style="stroke: #000000"/>
    </defs>
    <g clip-path="url(#p58d6a447d5)">
     <use xlink:href="#m0ca7d39ae6" x="376.5848" y="218.116824" style="stroke: #000000"/>
    </g>
   </g>
   <g id="line2d_2">
    <defs>
     <path id="m3099da7b80" d="M 0 7.914527 
C 2.098957 7.914527 4.112229 7.080602 5.596416 5.596416 
C 7.080602 4.112229 7.914527 2.098957 7.914527 0 
C 7.914527 -2.098957 7.080602 -4.112229 5.596416 -5.596416 
C 4.112229 -7.080602 2.098957 -7.914527 0 -7.914527 
C -2.098957 -7.914527 -4.112229 -7.080602 -5.596416 -5.596416 
C -7.080602 -4.112229 -7.914527 -2.098957 -7.914527 0 
C -7.914527 2.098957 -7.080602 4.112229 -5.596416 5.596416 
C -4.112229 7.080602 -2.098957 7.914527 0 7.914527 
z
" style="stroke: #000000"/>
    </defs>
    <g clip-path="url(#p58d6a447d5)">
     <use xlink:href="#m3099da7b80" x="334.988632" y="159.541206" style="stroke: #000000"/>
    </g>
   </g>
   <g id="line2d_3">
    <defs>
     <path id="m132beeaed6" d="M 0 7.126961 
C 1.890092 7.126961 3.703025 6.376019 5.039522 5.039522 
C 6.376019 3.703025 7.126961 1.890092 7.126961 0 
C 7.126961 -1.890092 6.376019 -3.703025 5.039522 -5.039522 
C 3.703025 -6.376019 1.890092 -7.126961 0 -7.126961 
C -1.890092 -7.126961 -3.703025 -6.376019 -5.039522 -5.039522 
C -6.376019 -3.703025 -7.126961 -1.890092 -7.126961 0 
C -7.126961 1.890092 -6.376019 3.703025 -5.039522 5.039522 
C -3.703025 6.376019 -1.890092 7.126961 0 7.126961 
z
" style="stroke: #000000"/>
    </defs>
    <g clip-path="url(#p58d6a447d5)">
     <use xlink:href="#m132beeaed6" x="281.947816" y="216.013832" style="stroke: #000000"/>
    </g>
   </g>
   <g id="line2d_4">
    <defs>
     <path id="m3e9376e3ec" d="M 0 7.125223 
C 1.889631 7.125223 3.702123 6.374465 5.038294 5.038294 
C 6.374465 3.702123 7.125223 1.889631 7.125223 0 
C 7.125223 -1.889631 6.374465 -3.702123 5.038294 -5.038294 
C 3.702123 -6.374465 1.889631 -7.125223 0 -7.125223 
C -1.889631 -7.125223 -3.702123 -6.374465 -5.038294 -5.038294 
C -6.374465 -3.702123 -7.125223 -1.889631 -7.125223 0 
C -7.125223 1.889631 -6.374465 3.702123 -5.038294 5.038294 
C -3.702123 6.374465 -1.889631 7.125223 0 7.125223 
z
" style="stroke: #000000"/>
    </defs>
    <g clip-path="url(#p58d6a447d5)">
     <use xlink:href="#m3e9376e3ec" x="388.943091" y="55.8" style="stroke: #000000"/>
    </g>
   </g>
   <g id="line2d_5">
    <defs>
     <path id="m35f5642ea2" d="M 0 7.067895 
C 1.874428 7.067895 3.672336 6.323177 4.997756 4.997756 
C 6.323177 3.672336 7.067895 1.874428 7.067895 0 
C 7.067895 -1.874428 6.323177 -3.672336 4.997756 -4.997756 
C 3.672336 -6.323177 1.874428 -7.067895 0 -7.067895 
C -1.874428 -7.067895 -3.672336 -6.323177 -4.997756 -4.997756 
C -6.323177 -3.672336 -7.067895 -1.874428 -7.067895 0 
C -7.067895 1.874428 -6.323177 3.672336 -4.997756 4.997756 
C -3.672336 6.323177 -1.874428 7.067895 0 7.067895 
z
" style="stroke: #000000"/>
    </defs>
    <g clip-path="url(#p58d6a447d5)">
     <use xlink:href="#m35f5642ea2" x="321.373919" y="245.308457" style="stroke: #000000"/>
    </g>
   </g>
   <g id="line2d_6">
    <defs>
     <path id="mf847089ccf" d="M 0 7.056871 
C 1.871504 7.056871 3.666608 6.313315 4.989961 4.989961 
C 6.313315 3.666608 7.056871 1.871504 7.056871 0 
C 7.056871 -1.871504 6.313315 -3.666608 4.989961 -4.989961 
C 3.666608 -6.313315 1.871504 -7.056871 0 -7.056871 
C -1.871504 -7.056871 -3.666608 -6.313315 -4.989961 -4.989961 
C -6.313315 -3.666608 -7.056871 -1.871504 -7.056871 0 
C -7.056871 1.871504 -6.313315 3.666608 -4.989961 4.989961 
C -3.666608 6.313315 -1.871504 7.056871 0 7.056871 
z
" style="stroke: #000000"/>
    </defs>
    <g clip-path="url(#p58d6a447d5)">
     <use xlink:href="#mf847089ccf" x="355.053586" y="279.079331" style="stroke: #000000"/>
    </g>
   </g>
   <g id="line2d_7">
    <defs>
     <path id="ma8d1c4cd27" d="M 0 6.955368 
C 1.844585 6.955368 3.613869 6.222507 4.918188 4.918188 
C 6.222507 3.613869 6.955368 1.844585 6.955368 0 
C 6.955368 -1.844585 6.222507 -3.613869 4.918188 -4.918188 
C 3.613869 -6.222507 1.844585 -6.955368 0 -6.955368 
C -1.844585 -6.955368 -3.613869 -6.222507 -4.918188 -4.918188 
C -6.222507 -3.613869 -6.955368 -1.844585 -6.955368 0 
C -6.955368 1.844585 -6.222507 3.613869 -4.918188 4.918188 
C -3.613869 6.222507 -1.844585 6.955368 0 6.955368 
z
" style="stroke: #000000"/>
    </defs>
    <g clip-path="url(#p58d6a447d5)">
     <use xlink:href="#ma8d1c4cd27" x="439.662655" y="112.515182" style="stroke: #000000"/>
    </g>
   </g>
   <g id="line2d_8">
    <defs>
     <path id="m10f855cd3f" d="M 0 6.942943 
C 1.84129 6.942943 3.607414 6.211391 4.909402 4.909402 
C 6.211391 3.607414 6.942943 1.84129 6.942943 0 
C 6.942943 -1.84129 6.211391 -3.607414 4.909402 -4.909402 
C 3.607414 -6.211391 1.84129 -6.942943 0 -6.942943 
C -1.84129 -6.942943 -3.607414 -6.211391 -4.909402 -4.909402 
C -6.211391 -3.607414 -6.942943 -1.84129 -6.942943 0 
C -6.942943 1.84129 -6.211391 3.607414 -4.909402 4.909402 
C -3.607414 6.211391 -1.84129 6.942943 0 6.942943 
z
" style="stroke: #000000"/>
    </defs>
    <g clip-path="url(#p58d6a447d5)">
     <use xlink:href="#m10f855cd3f" x="331.040809" y="226.995968" style="stroke: #000000"/>
    </g>
   </g>
   <g id="line2d_9">
    <defs>
     <path id="ma41b1816fb" d="M 0 6.717444 
C 1.781487 6.717444 3.490249 6.009652 4.74995 4.74995 
C 6.009652 3.490249 6.717444 1.781487 6.717444 0 
C 6.717444 -1.781487 6.009652 -3.490249 4.74995 -4.74995 
C 3.490249 -6.009652 1.781487 -6.717444 0 -6.717444 
C -1.781487 -6.717444 -3.490249 -6.009652 -4.74995 -4.74995 
C -6.009652 -3.490249 -6.717444 -1.781487 -6.717444 0 
C -6.717444 1.781487 -6.009652 3.490249 -4.74995 4.74995 
C -3.490249 6.009652 -1.781487 6.717444 0 6.717444 
z
" style="stroke: #000000"/>
    </defs>
    <g clip-path="url(#p58d6a447d5)">
     <use xlink:href="#ma41b1816fb" x="456.052184" y="147.25652" style="stroke: #000000"/>
    </g>
   </g>
   <g id="line2d_10">
    <defs>
     <path id="m91077001ad" d="M 0 6.701306 
C 1.777207 6.701306 3.481864 5.995214 4.738539 4.738539 
C 5.995214 3.481864 6.701306 1.777207 6.701306 0 
C 6.701306 -1.777207 5.995214 -3.481864 4.738539 -4.738539 
C 3.481864 -5.995214 1.777207 -6.701306 0 -6.701306 
C -1.777207 -6.701306 -3.481864 -5.995214 -4.738539 -4.738539 
C -5.995214 -3.481864 -6.701306 -1.777207 -6.701306 0 
C -6.701306 1.777207 -5.995214 3.481864 -4.738539 4.738539 
C -3.481864 5.995214 -1.777207 6.701306 0 6.701306 
z
" style="stroke: #000000"/>
    </defs>
    <g clip-path="url(#p58d6a447d5)">
     <use xlink:href="#m91077001ad" x="371.469182" y="307.8" style="stroke: #000000"/>
    </g>
   </g>
  </g>
 </g>
 <defs>
  <clipPath id="p58d6a447d5">
   <path d="M 273.242598 320.4 
L 273.242598 43.2 
L 464.757402 43.2 
L 464.757402 320.4 
L 273.242598 320.4 
"/>
  </clipPath>
 </defs>
</svg>
