<?xml version="1.0" encoding="utf-8" standalone="no"?>
<!DOCTYPE svg PUBLIC "-//W3C//DTD SVG 1.1//EN"
  "http://www.w3.org/Graphics/SVG/1.1/DTD/svg11.dtd">
<svg xmlns:xlink="http://www.w3.org/1999/xlink" width="720pt" height="360pt" viewBox="0 0 720 360" xmlns="http://www.w3.org/2000/svg" version="1.1">
 <metadata>
  <rdf:RDF xmlns:dc="http://purl.org/dc/elements/1.1/" xmlns:cc="http://creativecommons.org/ns#" xmlns:rdf="http://www.w3.org/1999/02/22-rdf-syntax-ns#">
   <cc:Work>
    <dc:type rdf:resource="http://purl.org/dc/dcmitype/StillImage"/>
    <dc:date>2023-11-30T21:30:50.169346</dc:date>
    <dc:format>image/svg+xml</dc:format>
    <dc:creator>
     <cc:Agent>
      <dc:title>Matplotlib v3.8.1, https://matplotlib.org/</dc:title>
     </cc:Agent>
    </dc:creator>
   </cc:Work>
  </rdf:RDF>
 </metadata>
 <defs>
  <style type="text/css">*{stroke-linejoin: round; stroke-linecap: butt}</style>
 </defs>
 <g id="figure_1">
  <g id="patch_1">
   <path d="M 0 360 
L 720 360 
L 720 0 
L 0 0 
z
" style="fill: #ffffff"/>
  </g>
  <g id="axes_1">
   <g id="patch_2">
    <path d="M 302.44167 320.4 
L 302.44167 43.2 
L 435.55833 43.2 
L 435.55833 320.4 
L 302.44167 320.4 
" style="fill: #ffffff"/>
   </g>
   <g id="line2d_1">
    <defs>
     <path id="m62f72f6c81" d="M 0 10.204071 
C 2.706151 10.204071 5.30183 9.128905 7.215367 7.215367 
C 9.128905 5.30183 10.204071 2.706151 10.204071 0 
C 10.204071 -2.706151 9.128905 -5.30183 7.215367 -7.215367 
C 5.30183 -9.128905 2.706151 -10.204071 0 -10.204071 
C -2.706151 -10.204071 -5.30183 -9.128905 -7.215367 -7.215367 
C -9.128905 -5.30183 -10.204071 -2.706151 -10.204071 0 
C -10.204071 2.706151 -9.128905 5.30183 -7.215367 7.215367 
C -5.30183 9.128905 -2.706151 10.204071 0 10.204071 
z
" style="stroke: #000000"/>
    </defs>
    <g clip-path="url(#p97cda68871)">
     <use xlink:href="#m62f72f6c81" x="380.53293" y="182.605558" style="stroke: #000000"/>
    </g>
   </g>
   <g id="line2d_2">
    <defs>
     <path id="mcd808dcfb5" d="M 0 9.156942 
C 2.428449 9.156942 4.757763 8.192109 6.474936 6.474936 
C 8.192109 4.757763 9.156942 2.428449 9.156942 0 
C 9.156942 -2.428449 8.192109 -4.757763 6.474936 -6.474936 
C 4.757763 -8.192109 2.428449 -9.156942 0 -9.156942 
C -2.428449 -9.156942 -4.757763 -8.192109 -6.474936 -6.474936 
C -8.192109 -4.757763 -9.156942 -2.428449 -9.156942 0 
C -9.156942 2.428449 -8.192109 4.757763 -6.474936 6.474936 
C -4.757763 8.192109 -2.428449 9.156942 0 9.156942 
z
" style="stroke: #000000"/>
    </defs>
    <g clip-path="url(#p97cda68871)">
     <use xlink:href="#mcd808dcfb5" x="415.277495" y="167.684611" style="stroke: #000000"/>
    </g>
   </g>
   <g id="line2d_3">
    <defs>
     <path id="m672bfe2115" d="M 0 9.007868 
C 2.388915 9.007868 4.680307 8.058742 6.369525 6.369525 
C 8.058742 4.680307 9.007868 2.388915 9.007868 0 
C 9.007868 -2.388915 8.058742 -4.680307 6.369525 -6.369525 
C 4.680307 -8.058742 2.388915 -9.007868 0 -9.007868 
C -2.388915 -9.007868 -4.680307 -8.058742 -6.369525 -6.369525 
C -8.058742 -4.680307 -9.007868 -2.388915 -9.007868 0 
C -9.007868 2.388915 -8.058742 4.680307 -6.369525 6.369525 
C -4.680307 8.058742 -2.388915 9.007868 0 9.007868 
z
" style="stroke: #000000"/>
    </defs>
    <g clip-path="url(#p97cda68871)">
     <use xlink:href="#m672bfe2115" x="371.171943" y="201.287141" style="stroke: #000000"/>
    </g>
   </g>
   <g id="line2d_4">
    <defs>
     <path id="m5c6b0d5c7b" d="M 0 8.954217 
C 2.374686 8.954217 4.652431 8.010744 6.331587 6.331587 
C 8.010744 4.652431 8.954217 2.374686 8.954217 0 
C 8.954217 -2.374686 8.010744 -4.652431 6.331587 -6.331587 
C 4.652431 -8.010744 2.374686 -8.954217 0 -8.954217 
C -2.374686 -8.954217 -4.652431 -8.010744 -6.331587 -6.331587 
C -8.010744 -4.652431 -8.954217 -2.374686 -8.954217 0 
C -8.954217 2.374686 -8.010744 4.652431 -6.331587 6.331587 
C -4.652431 8.010744 -2.374686 8.954217 0 8.954217 
z
" style="stroke: #000000"/>
    </defs>
    <g clip-path="url(#p97cda68871)">
     <use xlink:href="#m5c6b0d5c7b" x="357.829371" y="120.630036" style="stroke: #000000"/>
    </g>
   </g>
   <g id="line2d_5">
    <defs>
     <path id="md9bde7a8bc" d="M 0 8.774535 
C 2.327034 8.774535 4.559072 7.849995 6.204533 6.204533 
C 7.849995 4.559072 8.774535 2.327034 8.774535 0 
C 8.774535 -2.327034 7.849995 -4.559072 6.204533 -6.204533 
C 4.559072 -7.849995 2.327034 -8.774535 0 -8.774535 
C -2.327034 -8.774535 -4.559072 -7.849995 -6.204533 -6.204533 
C -7.849995 -4.559072 -8.774535 -2.327034 -8.774535 0 
C -8.774535 2.327034 -7.849995 4.559072 -6.204533 6.204533 
C -4.559072 7.849995 -2.327034 8.774535 0 8.774535 
z
" style="stroke: #000000"/>
    </defs>
    <g clip-path="url(#p97cda68871)">
     <use xlink:href="#md9bde7a8bc" x="372.146766" y="232.676315" style="stroke: #000000"/>
    </g>
   </g>
   <g id="line2d_6">
    <defs>
     <path id="mfdff3631e5" d="M 0 8.682294 
C 2.302571 8.682294 4.511145 7.767473 6.139309 6.139309 
C 7.767473 4.511145 8.682294 2.302571 8.682294 0 
C 8.682294 -2.302571 7.767473 -4.511145 6.139309 -6.139309 
C 4.511145 -7.767473 2.302571 -8.682294 0 -8.682294 
C -2.302571 -8.682294 -4.511145 -7.767473 -6.139309 -6.139309 
C -7.767473 -4.511145 -8.682294 -2.302571 -8.682294 0 
C -8.682294 2.302571 -7.767473 4.511145 -6.139309 6.139309 
C -4.511145 7.767473 -2.302571 8.682294 0 8.682294 
z
" style="stroke: #000000"/>
    </defs>
    <g clip-path="url(#p97cda68871)">
     <use xlink:href="#mfdff3631e5" x="308.492427" y="270.666994" style="stroke: #000000"/>
    </g>
   </g>
   <g id="line2d_7">
    <defs>
     <path id="me368c8e206" d="M 0 8.490299 
C 2.251653 8.490299 4.411388 7.595707 6.003548 6.003548 
C 7.595707 4.411388 8.490299 2.251653 8.490299 0 
C 8.490299 -2.251653 7.595707 -4.411388 6.003548 -6.003548 
C 4.411388 -7.595707 2.251653 -8.490299 0 -8.490299 
C -2.251653 -8.490299 -4.411388 -7.595707 -6.003548 -6.003548 
C -7.595707 -4.411388 -8.490299 -2.251653 -8.490299 0 
C -8.490299 2.251653 -7.595707 4.411388 -6.003548 6.003548 
C -4.411388 7.595707 -2.251653 8.490299 0 8.490299 
z
" style="stroke: #000000"/>
    </defs>
    <g clip-path="url(#p97cda68871)">
     <use xlink:href="#me368c8e206" x="413.220982" y="55.8" style="stroke: #000000"/>
    </g>
   </g>
   <g id="line2d_8">
    <defs>
     <path id="mfdeaeb14fd" d="M 0 8.400797 
C 2.227917 8.400797 4.364885 7.515636 5.940261 5.940261 
C 7.515636 4.364885 8.400797 2.227917 8.400797 0 
C 8.400797 -2.227917 7.515636 -4.364885 5.940261 -5.940261 
C 4.364885 -7.515636 2.227917 -8.400797 0 -8.400797 
C -2.227917 -8.400797 -4.364885 -7.515636 -5.940261 -5.940261 
C -7.515636 -4.364885 -8.400797 -2.227917 -8.400797 0 
C -8.400797 2.227917 -7.515636 4.364885 -5.940261 5.940261 
C -4.364885 7.515636 -2.227917 8.400797 0 8.400797 
z
" style="stroke: #000000"/>
    </defs>
    <g clip-path="url(#p97cda68871)">
     <use xlink:href="#mfdeaeb14fd" x="353.557537" y="307.8" style="stroke: #000000"/>
    </g>
   </g>
   <g id="line2d_9">
    <defs>
     <path id="m27a4782ba2" d="M 0 8.179394 
C 2.169201 8.179394 4.249849 7.317562 5.783705 5.783705 
C 7.317562 4.249849 8.179394 2.169201 8.179394 0 
C 8.179394 -2.169201 7.317562 -4.249849 5.783705 -5.783705 
C 4.249849 -7.317562 2.169201 -8.179394 0 -8.179394 
C -2.169201 -8.179394 -4.249849 -7.317562 -5.783705 -5.783705 
C -7.317562 -4.249849 -8.179394 -2.169201 -8.179394 0 
C -8.179394 2.169201 -7.317562 4.249849 -5.783705 5.783705 
C -4.249849 7.317562 -2.169201 8.179394 0 8.179394 
z
" style="stroke: #000000"/>
    </defs>
    <g clip-path="url(#p97cda68871)">
     <use xlink:href="#m27a4782ba2" x="429.507573" y="92.856923" style="stroke: #000000"/>
    </g>
   </g>
   <g id="line2d_10">
    <defs>
     <path id="mb4a91c179d" d="M 0 8.053966 
C 2.135937 8.053966 4.184679 7.205349 5.695014 5.695014 
C 7.205349 4.184679 8.053966 2.135937 8.053966 0 
C 8.053966 -2.135937 7.205349 -4.184679 5.695014 -5.695014 
C 4.184679 -7.205349 2.135937 -8.053966 0 -8.053966 
C -2.135937 -8.053966 -4.184679 -7.205349 -5.695014 -5.695014 
C -7.205349 -4.184679 -8.053966 -2.135937 -8.053966 0 
C -8.053966 2.135937 -7.205349 4.184679 -5.695014 5.695014 
C -4.184679 7.205349 -2.135937 8.053966 0 8.053966 
z
" style="stroke: #000000"/>
    </defs>
    <g clip-path="url(#p97cda68871)">
     <use xlink:href="#mb4a91c179d" x="376.447086" y="197.042266" style="stroke: #000000"/>
    </g>
   </g>
  </g>
 </g>
 <defs>
  <clipPath id="p97cda68871">
   <path d="M 302.44167 320.4 
L 302.44167 43.2 
L 435.55833 43.2 
L 435.55833 320.4 
L 302.44167 320.4 
"/>
  </clipPath>
 </defs>
</svg>
