<?xml version="1.0" encoding="utf-8" standalone="no"?>
<!DOCTYPE svg PUBLIC "-//W3C//DTD SVG 1.1//EN"
  "http://www.w3.org/Graphics/SVG/1.1/DTD/svg11.dtd">
<svg xmlns:xlink="http://www.w3.org/1999/xlink" width="720pt" height="360pt" viewBox="0 0 720 360" xmlns="http://www.w3.org/2000/svg" version="1.1">
 <metadata>
  <rdf:RDF xmlns:dc="http://purl.org/dc/elements/1.1/" xmlns:cc="http://creativecommons.org/ns#" xmlns:rdf="http://www.w3.org/1999/02/22-rdf-syntax-ns#">
   <cc:Work>
    <dc:type rdf:resource="http://purl.org/dc/dcmitype/StillImage"/>
    <dc:date>2023-11-30T21:30:50.236022</dc:date>
    <dc:format>image/svg+xml</dc:format>
    <dc:creator>
     <cc:Agent>
      <dc:title>Matplotlib v3.8.1, https://matplotlib.org/</dc:title>
     </cc:Agent>
    </dc:creator>
   </cc:Work>
  </rdf:RDF>
 </metadata>
 <defs>
  <style type="text/css">*{stroke-linejoin: round; stroke-linecap: butt}</style>
 </defs>
 <g id="figure_1">
  <g id="patch_1">
   <path d="M 0 360 
L 720 360 
L 720 0 
L 0 0 
z
" style="fill: #ffffff"/>
  </g>
  <g id="axes_1">
   <g id="patch_2">
    <path d="M 263.548722 320.4 
L 263.548722 43.2 
L 474.451278 43.2 
L 474.451278 320.4 
L 263.548722 320.4 
" style="fill: #ffffff"/>
   </g>
   <g id="line2d_1">
    <defs>
     <path id="m088ba872d7" d="M 0 7.316299 
C 1.940305 7.316299 3.801402 6.545407 5.173405 5.173405 
C 6.545407 3.801402 7.316299 1.940305 7.316299 0 
C 7.316299 -1.940305 6.545407 -3.801402 5.173405 -5.173405 
C 3.801402 -6.545407 1.940305 -7.316299 0 -7.316299 
C -1.940305 -7.316299 -3.801402 -6.545407 -5.173405 -5.173405 
C -6.545407 -3.801402 -7.316299 -1.940305 -7.316299 0 
C -7.316299 1.940305 -6.545407 3.801402 -5.173405 5.173405 
C -3.801402 6.545407 -1.940305 7.316299 0 7.316299 
z
" style="stroke: #000000"/>
    </defs>
    <g clip-path="url(#p1354f8ef6d)">
     <use xlink:href="#m088ba872d7" x="447.843035" y="187.638128" style="stroke: #000000"/>
    </g>
   </g>
   <g id="line2d_2">
    <defs>
     <path id="m2c75080169" d="M 0 6.936386 
C 1.839551 6.936386 3.604006 6.205524 4.904765 4.904765 
C 6.205524 3.604006 6.936386 1.839551 6.936386 0 
C 6.936386 -1.839551 6.205524 -3.604006 4.904765 -4.904765 
C 3.604006 -6.205524 1.839551 -6.936386 0 -6.936386 
C -1.839551 -6.936386 -3.604006 -6.205524 -4.904765 -4.904765 
C -6.205524 -3.604006 -6.936386 -1.839551 -6.936386 0 
C -6.936386 1.839551 -6.205524 3.604006 -4.904765 4.904765 
C -3.604006 6.205524 -1.839551 6.936386 0 6.936386 
z
" style="stroke: #000000"/>
    </defs>
    <g clip-path="url(#p1354f8ef6d)">
     <use xlink:href="#m2c75080169" x="273.135202" y="106.535902" style="stroke: #000000"/>
    </g>
   </g>
   <g id="line2d_3">
    <defs>
     <path id="mccc1ec615e" d="M 0 5.507359 
C 1.460569 5.507359 2.861513 4.927069 3.894291 3.894291 
C 4.927069 2.861513 5.507359 1.460569 5.507359 0 
C 5.507359 -1.460569 4.927069 -2.861513 3.894291 -3.894291 
C 2.861513 -4.927069 1.460569 -5.507359 0 -5.507359 
C -1.460569 -5.507359 -2.861513 -4.927069 -3.894291 -3.894291 
C -4.927069 -2.861513 -5.507359 -1.460569 -5.507359 0 
C -5.507359 1.460569 -4.927069 2.861513 -3.894291 3.894291 
C -2.861513 4.927069 -1.460569 5.507359 0 5.507359 
z
" style="stroke: #000000"/>
    </defs>
    <g clip-path="url(#p1354f8ef6d)">
     <use xlink:href="#mccc1ec615e" x="456.185258" y="188.73326" style="stroke: #000000"/>
    </g>
   </g>
   <g id="line2d_4">
    <defs>
     <path id="m6ff19ced4a" d="M 0 5.11501 
C 1.356517 5.11501 2.657656 4.57606 3.616858 3.616858 
C 4.57606 2.657656 5.11501 1.356517 5.11501 0 
C 5.11501 -1.356517 4.57606 -2.657656 3.616858 -3.616858 
C 2.657656 -4.57606 1.356517 -5.11501 0 -5.11501 
C -1.356517 -5.11501 -2.657656 -4.57606 -3.616858 -3.616858 
C -4.57606 -2.657656 -5.11501 -1.356517 -5.11501 0 
C -5.11501 1.356517 -4.57606 2.657656 -3.616858 3.616858 
C -2.657656 4.57606 -1.356517 5.11501 0 5.11501 
z
" style="stroke: #000000"/>
    </defs>
    <g clip-path="url(#p1354f8ef6d)">
     <use xlink:href="#m6ff19ced4a" x="364.501408" y="243.708021" style="stroke: #000000"/>
    </g>
   </g>
   <g id="line2d_5">
    <defs>
     <path id="m74d4995e0a" d="M 0 4.891499 
C 1.297241 4.891499 2.541524 4.3761 3.458812 3.458812 
C 4.3761 2.541524 4.891499 1.297241 4.891499 0 
C 4.891499 -1.297241 4.3761 -2.541524 3.458812 -3.458812 
C 2.541524 -4.3761 1.297241 -4.891499 0 -4.891499 
C -1.297241 -4.891499 -2.541524 -4.3761 -3.458812 -3.458812 
C -4.3761 -2.541524 -4.891499 -1.297241 -4.891499 0 
C -4.891499 1.297241 -4.3761 2.541524 -3.458812 3.458812 
C -2.541524 4.3761 -1.297241 4.891499 0 4.891499 
z
" style="stroke: #000000"/>
    </defs>
    <g clip-path="url(#p1354f8ef6d)">
     <use xlink:href="#m74d4995e0a" x="392.973697" y="73.730251" style="stroke: #000000"/>
    </g>
   </g>
   <g id="line2d_6">
    <defs>
     <path id="m1321c17ba2" d="M 0 4.86989 
C 1.29151 4.86989 2.530297 4.356768 3.443532 3.443532 
C 4.356768 2.530297 4.86989 1.29151 4.86989 0 
C 4.86989 -1.29151 4.356768 -2.530297 3.443532 -3.443532 
C 2.530297 -4.356768 1.29151 -4.86989 0 -4.86989 
C -1.29151 -4.86989 -2.530297 -4.356768 -3.443532 -3.443532 
C -4.356768 -2.530297 -4.86989 -1.29151 -4.86989 0 
C -4.86989 1.29151 -4.356768 2.530297 -3.443532 3.443532 
C -2.530297 4.356768 -1.29151 4.86989 0 4.86989 
z
" style="stroke: #000000"/>
    </defs>
    <g clip-path="url(#p1354f8ef6d)">
     <use xlink:href="#m1321c17ba2" x="464.864798" y="236.014719" style="stroke: #000000"/>
    </g>
   </g>
   <g id="line2d_7">
    <defs>
     <path id="m30ecfdf39e" d="M 0 4.835328 
C 1.282344 4.835328 2.512339 4.325847 3.419093 3.419093 
C 4.325847 2.512339 4.835328 1.282344 4.835328 0 
C 4.835328 -1.282344 4.325847 -2.512339 3.419093 -3.419093 
C 2.512339 -4.325847 1.282344 -4.835328 0 -4.835328 
C -1.282344 -4.835328 -2.512339 -4.325847 -3.419093 -3.419093 
C -4.325847 -2.512339 -4.835328 -1.282344 -4.835328 0 
C -4.835328 1.282344 -4.325847 2.512339 -3.419093 3.419093 
C -2.512339 4.325847 -1.282344 4.835328 0 4.835328 
z
" style="stroke: #000000"/>
    </defs>
    <g clip-path="url(#p1354f8ef6d)">
     <use xlink:href="#m30ecfdf39e" x="290.583049" y="259.111839" style="stroke: #000000"/>
    </g>
   </g>
   <g id="line2d_8">
    <defs>
     <path id="me71dd12a0c" d="M 0 4.7409 
C 1.257301 4.7409 2.463276 4.241369 3.352322 3.352322 
C 4.241369 2.463276 4.7409 1.257301 4.7409 0 
C 4.7409 -1.257301 4.241369 -2.463276 3.352322 -3.352322 
C 2.463276 -4.241369 1.257301 -4.7409 0 -4.7409 
C -1.257301 -4.7409 -2.463276 -4.241369 -3.352322 -3.352322 
C -4.241369 -2.463276 -4.7409 -1.257301 -4.7409 0 
C -4.7409 1.257301 -4.241369 2.463276 -3.352322 3.352322 
C -2.463276 4.241369 -1.257301 4.7409 0 4.7409 
z
" style="stroke: #000000"/>
    </defs>
    <g clip-path="url(#p1354f8ef6d)">
     <use xlink:href="#me71dd12a0c" x="319.062535" y="307.8" style="stroke: #000000"/>
    </g>
   </g>
   <g id="line2d_9">
    <defs>
     <path id="mf1f945ed46" d="M 0 4.618007 
C 1.22471 4.618007 2.399424 4.131425 3.265424 3.265424 
C 4.131425 2.399424 4.618007 1.22471 4.618007 0 
C 4.618007 -1.22471 4.131425 -2.399424 3.265424 -3.265424 
C 2.399424 -4.131425 1.22471 -4.618007 0 -4.618007 
C -1.22471 -4.618007 -2.399424 -4.131425 -3.265424 -3.265424 
C -4.131425 -2.399424 -4.618007 -1.22471 -4.618007 0 
C -4.618007 1.22471 -4.131425 2.399424 -3.265424 3.265424 
C -2.399424 4.131425 -1.22471 4.618007 0 4.618007 
z
" style="stroke: #000000"/>
    </defs>
    <g clip-path="url(#p1354f8ef6d)">
     <use xlink:href="#mf1f945ed46" x="339.442109" y="256.983881" style="stroke: #000000"/>
    </g>
   </g>
   <g id="line2d_10">
    <defs>
     <path id="m8c06c7bd19" d="M 0 4.45794 
C 1.182259 4.45794 2.316256 3.988223 3.152239 3.152239 
C 3.988223 2.316256 4.45794 1.182259 4.45794 0 
C 4.45794 -1.182259 3.988223 -2.316256 3.152239 -3.152239 
C 2.316256 -3.988223 1.182259 -4.45794 0 -4.45794 
C -1.182259 -4.45794 -2.316256 -3.988223 -3.152239 -3.152239 
C -3.988223 -2.316256 -4.45794 -1.182259 -4.45794 0 
C -4.45794 1.182259 -3.988223 2.316256 -3.152239 3.152239 
C -2.316256 3.988223 -1.182259 4.45794 0 4.45794 
z
" style="stroke: #000000"/>
    </defs>
    <g clip-path="url(#p1354f8ef6d)">
     <use xlink:href="#m8c06c7bd19" x="348.537657" y="55.8" style="stroke: #000000"/>
    </g>
   </g>
  </g>
 </g>
 <defs>
  <clipPath id="p1354f8ef6d">
   <path d="M 263.548722 320.4 
L 263.548722 43.2 
L 474.451278 43.2 
L 474.451278 320.4 
L 263.548722 320.4 
"/>
  </clipPath>
 </defs>
</svg>
