<?xml version="1.0" encoding="utf-8" standalone="no"?>
<!DOCTYPE svg PUBLIC "-//W3C//DTD SVG 1.1//EN"
  "http://www.w3.org/Graphics/SVG/1.1/DTD/svg11.dtd">
<svg xmlns:xlink="http://www.w3.org/1999/xlink" width="720pt" height="360pt" viewBox="0 0 720 360" xmlns="http://www.w3.org/2000/svg" version="1.1">
 <metadata>
  <rdf:RDF xmlns:dc="http://purl.org/dc/elements/1.1/" xmlns:cc="http://creativecommons.org/ns#" xmlns:rdf="http://www.w3.org/1999/02/22-rdf-syntax-ns#">
   <cc:Work>
    <dc:type rdf:resource="http://purl.org/dc/dcmitype/StillImage"/>
    <dc:date>2023-11-30T21:30:50.305036</dc:date>
    <dc:format>image/svg+xml</dc:format>
    <dc:creator>
     <cc:Agent>
      <dc:title>Matplotlib v3.8.1, https://matplotlib.org/</dc:title>
     </cc:Agent>
    </dc:creator>
   </cc:Work>
  </rdf:RDF>
 </metadata>
 <defs>
  <style type="text/css">*{stroke-linejoin: round; stroke-linecap: butt}</style>
 </defs>
 <g id="figure_1">
  <g id="patch_1">
   <path d="M 0 360 
L 720 360 
L 720 0 
L 0 0 
z
" style="fill: #ffffff"/>
  </g>
  <g id="axes_1">
   <g id="patch_2">
    <path d="M 247.275742 320.4 
L 247.275742 43.2 
L 490.724258 43.2 
L 490.724258 320.4 
L 247.275742 320.4 
" style="fill: #ffffff"/>
   </g>
   <g id="line2d_1">
    <defs>
     <path id="mf395d0a7bb" d="M 0 9.428617 
C 2.500498 9.428617 4.89892 8.435158 6.667039 6.667039 
C 8.435158 4.89892 9.428617 2.500498 9.428617 0 
C 9.428617 -2.500498 8.435158 -4.89892 6.667039 -6.667039 
C 4.89892 -8.435158 2.500498 -9.428617 0 -9.428617 
C -2.500498 -9.428617 -4.89892 -8.435158 -6.667039 -6.667039 
C -8.435158 -4.89892 -9.428617 -2.500498 -9.428617 0 
C -9.428617 2.500498 -8.435158 4.89892 -6.667039 6.667039 
C -4.89892 8.435158 -2.500498 9.428617 0 9.428617 
z
" style="stroke: #000000"/>
    </defs>
    <g clip-path="url(#pa81741b833)">
     <use xlink:href="#mf395d0a7bb" x="348.271528" y="87.114686" style="stroke: #000000"/>
    </g>
   </g>
   <g id="line2d_2">
    <defs>
     <path id="ma11eb4a187" d="M 0 8.097801 
C 2.147562 8.097801 4.207455 7.244566 5.72601 5.72601 
C 7.244566 4.207455 8.097801 2.147562 8.097801 0 
C 8.097801 -2.147562 7.244566 -4.207455 5.72601 -5.72601 
C 4.207455 -7.244566 2.147562 -8.097801 0 -8.097801 
C -2.147562 -8.097801 -4.207455 -7.244566 -5.72601 -5.72601 
C -7.244566 -4.207455 -8.097801 -2.147562 -8.097801 0 
C -8.097801 2.147562 -7.244566 4.207455 -5.72601 5.72601 
C -4.207455 7.244566 -2.147562 8.097801 0 8.097801 
z
" style="stroke: #000000"/>
    </defs>
    <g clip-path="url(#pa81741b833)">
     <use xlink:href="#ma11eb4a187" x="396.918124" y="55.8" style="stroke: #000000"/>
    </g>
   </g>
   <g id="line2d_3">
    <defs>
     <path id="maca6f1235b" d="M 0 8.085813 
C 2.144383 8.085813 4.201226 7.233841 5.717533 5.717533 
C 7.233841 4.201226 8.085813 2.144383 8.085813 0 
C 8.085813 -2.144383 7.233841 -4.201226 5.717533 -5.717533 
C 4.201226 -7.233841 2.144383 -8.085813 0 -8.085813 
C -2.144383 -8.085813 -4.201226 -7.233841 -5.717533 -5.717533 
C -7.233841 -4.201226 -8.085813 -2.144383 -8.085813 0 
C -8.085813 2.144383 -7.233841 4.201226 -5.717533 5.717533 
C -4.201226 7.233841 -2.144383 8.085813 0 8.085813 
z
" style="stroke: #000000"/>
    </defs>
    <g clip-path="url(#pa81741b833)">
     <use xlink:href="#maca6f1235b" x="369.52079" y="236.422692" style="stroke: #000000"/>
    </g>
   </g>
   <g id="line2d_4">
    <defs>
     <path id="mde8385f918" d="M 0 8.040159 
C 2.132275 8.040159 4.177505 7.192997 5.685251 5.685251 
C 7.192997 4.177505 8.040159 2.132275 8.040159 0 
C 8.040159 -2.132275 7.192997 -4.177505 5.685251 -5.685251 
C 4.177505 -7.192997 2.132275 -8.040159 0 -8.040159 
C -2.132275 -8.040159 -4.177505 -7.192997 -5.685251 -5.685251 
C -7.192997 -4.177505 -8.040159 -2.132275 -8.040159 0 
C -8.040159 2.132275 -7.192997 4.177505 -5.685251 5.685251 
C -4.177505 7.192997 -2.132275 8.040159 0 8.040159 
z
" style="stroke: #000000"/>
    </defs>
    <g clip-path="url(#pa81741b833)">
     <use xlink:href="#mde8385f918" x="331.656093" y="307.8" style="stroke: #000000"/>
    </g>
   </g>
   <g id="line2d_5">
    <defs>
     <path id="m854d3d7a90" d="M 0 7.991564 
C 2.119387 7.991564 4.152256 7.149522 5.650889 5.650889 
C 7.149522 4.152256 7.991564 2.119387 7.991564 0 
C 7.991564 -2.119387 7.149522 -4.152256 5.650889 -5.650889 
C 4.152256 -7.149522 2.119387 -7.991564 0 -7.991564 
C -2.119387 -7.991564 -4.152256 -7.149522 -5.650889 -5.650889 
C -7.149522 -4.152256 -7.991564 -2.119387 -7.991564 0 
C -7.991564 2.119387 -7.149522 4.152256 -5.650889 5.650889 
C -4.152256 7.149522 -2.119387 7.991564 0 7.991564 
z
" style="stroke: #000000"/>
    </defs>
    <g clip-path="url(#pa81741b833)">
     <use xlink:href="#m854d3d7a90" x="349.938743" y="82.777649" style="stroke: #000000"/>
    </g>
   </g>
   <g id="line2d_6">
    <defs>
     <path id="m0a44e9b2fc" d="M 0 7.973556 
C 2.114612 7.973556 4.142899 7.133412 5.638155 5.638155 
C 7.133412 4.142899 7.973556 2.114612 7.973556 0 
C 7.973556 -2.114612 7.133412 -4.142899 5.638155 -5.638155 
C 4.142899 -7.133412 2.114612 -7.973556 0 -7.973556 
C -2.114612 -7.973556 -4.142899 -7.133412 -5.638155 -5.638155 
C -7.133412 -4.142899 -7.973556 -2.114612 -7.973556 0 
C -7.973556 2.114612 -7.133412 4.142899 -5.638155 5.638155 
C -4.142899 7.133412 -2.114612 7.973556 0 7.973556 
z
" style="stroke: #000000"/>
    </defs>
    <g clip-path="url(#pa81741b833)">
     <use xlink:href="#m0a44e9b2fc" x="269.231766" y="84.056772" style="stroke: #000000"/>
    </g>
   </g>
   <g id="line2d_7">
    <defs>
     <path id="m82a663051c" d="M 0 7.914576 
C 2.09897 7.914576 4.112255 7.080647 5.596451 5.596451 
C 7.080647 4.112255 7.914576 2.09897 7.914576 0 
C 7.914576 -2.09897 7.080647 -4.112255 5.596451 -5.596451 
C 4.112255 -7.080647 2.09897 -7.914576 0 -7.914576 
C -2.09897 -7.914576 -4.112255 -7.080647 -5.596451 -5.596451 
C -7.080647 -4.112255 -7.914576 -2.09897 -7.914576 0 
C -7.914576 2.09897 -7.080647 4.112255 -5.596451 5.596451 
C -4.112255 7.080647 -2.09897 7.914576 0 7.914576 
z
" style="stroke: #000000"/>
    </defs>
    <g clip-path="url(#pa81741b833)">
     <use xlink:href="#m82a663051c" x="360.538452" y="98.071354" style="stroke: #000000"/>
    </g>
   </g>
   <g id="line2d_8">
    <defs>
     <path id="mf8455dbf58" d="M 0 7.910314 
C 2.09784 7.910314 4.11004 7.076833 5.593437 5.593437 
C 7.076833 4.11004 7.910314 2.09784 7.910314 0 
C 7.910314 -2.09784 7.076833 -4.11004 5.593437 -5.593437 
C 4.11004 -7.076833 2.09784 -7.910314 0 -7.910314 
C -2.09784 -7.910314 -4.11004 -7.076833 -5.593437 -5.593437 
C -7.076833 -4.11004 -7.910314 -2.09784 -7.910314 0 
C -7.910314 2.09784 -7.076833 4.11004 -5.593437 5.593437 
C -4.11004 7.076833 -2.09784 7.910314 0 7.910314 
z
" style="stroke: #000000"/>
    </defs>
    <g clip-path="url(#pa81741b833)">
     <use xlink:href="#mf8455dbf58" x="407.4233" y="151.694746" style="stroke: #000000"/>
    </g>
   </g>
   <g id="line2d_9">
    <defs>
     <path id="m22a6c81162" d="M 0 7.818751 
C 2.073557 7.818751 4.062466 6.994918 5.528692 5.528692 
C 6.994918 4.062466 7.818751 2.073557 7.818751 0 
C 7.818751 -2.073557 6.994918 -4.062466 5.528692 -5.528692 
C 4.062466 -6.994918 2.073557 -7.818751 0 -7.818751 
C -2.073557 -7.818751 -4.062466 -6.994918 -5.528692 -5.528692 
C -6.994918 -4.062466 -7.818751 -2.073557 -7.818751 0 
C -7.818751 2.073557 -6.994918 4.062466 -5.528692 5.528692 
C -4.062466 6.994918 -2.073557 7.818751 0 7.818751 
z
" style="stroke: #000000"/>
    </defs>
    <g clip-path="url(#pa81741b833)">
     <use xlink:href="#m22a6c81162" x="258.341583" y="133.228133" style="stroke: #000000"/>
    </g>
   </g>
   <g id="line2d_10">
    <defs>
     <path id="mc9f4285622" d="M 0 7.779569 
C 2.063166 7.779569 4.042107 6.959865 5.500986 5.500986 
C 6.959865 4.042107 7.779569 2.063166 7.779569 0 
C 7.779569 -2.063166 6.959865 -4.042107 5.500986 -5.500986 
C 4.042107 -6.959865 2.063166 -7.779569 0 -7.779569 
C -2.063166 -7.779569 -4.042107 -6.959865 -5.500986 -5.500986 
C -6.959865 -4.042107 -7.779569 -2.063166 -7.779569 0 
C -7.779569 2.063166 -6.959865 4.042107 -5.500986 5.500986 
C -4.042107 6.959865 -2.063166 7.779569 0 7.779569 
z
" style="stroke: #000000"/>
    </defs>
    <g clip-path="url(#pa81741b833)">
     <use xlink:href="#mc9f4285622" x="479.658417" y="144.749261" style="stroke: #000000"/>
    </g>
   </g>
  </g>
 </g>
 <defs>
  <clipPath id="pa81741b833">
   <path d="M 247.275742 320.4 
L 247.275742 43.2 
L 490.724258 43.2 
L 490.724258 320.4 
L 247.275742 320.4 
"/>
  </clipPath>
 </defs>
</svg>
