<?xml version="1.0" encoding="utf-8" standalone="no"?>
<!DOCTYPE svg PUBLIC "-//W3C//DTD SVG 1.1//EN"
  "http://www.w3.org/Graphics/SVG/1.1/DTD/svg11.dtd">
<svg xmlns:xlink="http://www.w3.org/1999/xlink" width="720pt" height="360pt" viewBox="0 0 720 360" xmlns="http://www.w3.org/2000/svg" version="1.1">
 <metadata>
  <rdf:RDF xmlns:dc="http://purl.org/dc/elements/1.1/" xmlns:cc="http://creativecommons.org/ns#" xmlns:rdf="http://www.w3.org/1999/02/22-rdf-syntax-ns#">
   <cc:Work>
    <dc:type rdf:resource="http://purl.org/dc/dcmitype/StillImage"/>
    <dc:date>2023-11-30T21:30:50.365099</dc:date>
    <dc:format>image/svg+xml</dc:format>
    <dc:creator>
     <cc:Agent>
      <dc:title>Matplotlib v3.8.1, https://matplotlib.org/</dc:title>
     </cc:Agent>
    </dc:creator>
   </cc:Work>
  </rdf:RDF>
 </metadata>
 <defs>
  <style type="text/css">*{stroke-linejoin: round; stroke-linecap: butt}</style>
 </defs>
 <g id="figure_1">
  <g id="patch_1">
   <path d="M 0 360 
L 720 360 
L 720 0 
L 0 0 
z
" style="fill: #ffffff"/>
  </g>
  <g id="axes_1">
   <g id="patch_2">
    <path d="M 90 305.904461 
L 90 57.695539 
L 648 57.695539 
L 648 305.904461 
L 90 305.904461 
" style="fill: #ffffff"/>
   </g>
   <g id="line2d_1">
    <defs>
     <path id="m0644bae076" d="M 0 10.15353 
C 2.692748 10.15353 5.27557 9.08369 7.17963 7.17963 
C 9.08369 5.27557 10.15353 2.692748 10.15353 0 
C 10.15353 -2.692748 9.08369 -5.27557 7.17963 -7.17963 
C 5.27557 -9.08369 2.692748 -10.15353 0 -10.15353 
C -2.692748 -10.15353 -5.27557 -9.08369 -7.17963 -7.17963 
C -9.08369 -5.27557 -10.15353 -2.692748 -10.15353 0 
C -10.15353 2.692748 -9.08369 5.27557 -7.17963 7.17963 
C -5.27557 9.08369 -2.692748 10.15353 0 10.15353 
z
" style="stroke: #000000"/>
    </defs>
    <g clip-path="url(#p1873a219db)">
     <use xlink:href="#m0644bae076" x="268.637983" y="234.396065" style="stroke: #000000"/>
    </g>
   </g>
   <g id="line2d_2">
    <defs>
     <path id="m9dc70179ec" d="M 0 8.613234 
C 2.284256 8.613234 4.475263 7.70569 6.090476 6.090476 
C 7.70569 4.475263 8.613234 2.284256 8.613234 0 
C 8.613234 -2.284256 7.70569 -4.475263 6.090476 -6.090476 
C 4.475263 -7.70569 2.284256 -8.613234 0 -8.613234 
C -2.284256 -8.613234 -4.475263 -7.70569 -6.090476 -6.090476 
C -7.70569 -4.475263 -8.613234 -2.284256 -8.613234 0 
C -8.613234 2.284256 -7.70569 4.475263 -6.090476 6.090476 
C -4.475263 7.70569 -2.284256 8.613234 0 8.613234 
z
" style="stroke: #000000"/>
    </defs>
    <g clip-path="url(#p1873a219db)">
     <use xlink:href="#m9dc70179ec" x="346.089034" y="198.525442" style="stroke: #000000"/>
    </g>
   </g>
   <g id="line2d_3">
    <defs>
     <path id="m18f780167d" d="M 0 8.571786 
C 2.273264 8.571786 4.453728 7.668609 6.061168 6.061168 
C 7.668609 4.453728 8.571786 2.273264 8.571786 0 
C 8.571786 -2.273264 7.668609 -4.453728 6.061168 -6.061168 
C 4.453728 -7.668609 2.273264 -8.571786 0 -8.571786 
C -2.273264 -8.571786 -4.453728 -7.668609 -6.061168 -6.061168 
C -7.668609 -4.453728 -8.571786 -2.273264 -8.571786 0 
C -8.571786 2.273264 -7.668609 4.453728 -6.061168 6.061168 
C -4.453728 7.668609 -2.273264 8.571786 0 8.571786 
z
" style="stroke: #000000"/>
    </defs>
    <g clip-path="url(#p1873a219db)">
     <use xlink:href="#m18f780167d" x="372.473556" y="294.622237" style="stroke: #000000"/>
    </g>
   </g>
   <g id="line2d_4">
    <defs>
     <path id="m35db5e9bde" d="M 0 8.363382 
C 2.217995 8.363382 4.345445 7.482163 5.913804 5.913804 
C 7.482163 4.345445 8.363382 2.217995 8.363382 0 
C 8.363382 -2.217995 7.482163 -4.345445 5.913804 -5.913804 
C 4.345445 -7.482163 2.217995 -8.363382 0 -8.363382 
C -2.217995 -8.363382 -4.345445 -7.482163 -5.913804 -5.913804 
C -7.482163 -4.345445 -8.363382 -2.217995 -8.363382 0 
C -8.363382 2.217995 -7.482163 4.345445 -5.913804 5.913804 
C -4.345445 7.482163 -2.217995 8.363382 0 8.363382 
z
" style="stroke: #000000"/>
    </defs>
    <g clip-path="url(#p1873a219db)">
     <use xlink:href="#m35db5e9bde" x="438.490707" y="150.956691" style="stroke: #000000"/>
    </g>
   </g>
   <g id="line2d_5">
    <defs>
     <path id="mf2955404e6" d="M 0 8.300145 
C 2.201224 8.300145 4.312588 7.42559 5.869089 5.869089 
C 7.42559 4.312588 8.300145 2.201224 8.300145 0 
C 8.300145 -2.201224 7.42559 -4.312588 5.869089 -5.869089 
C 4.312588 -7.42559 2.201224 -8.300145 0 -8.300145 
C -2.201224 -8.300145 -4.312588 -7.42559 -5.869089 -5.869089 
C -7.42559 -4.312588 -8.300145 -2.201224 -8.300145 0 
C -8.300145 2.201224 -7.42559 4.312588 -5.869089 5.869089 
C -4.312588 7.42559 -2.201224 8.300145 0 8.300145 
z
" style="stroke: #000000"/>
    </defs>
    <g clip-path="url(#p1873a219db)">
     <use xlink:href="#mf2955404e6" x="381.476947" y="246.093572" style="stroke: #000000"/>
    </g>
   </g>
   <g id="line2d_6">
    <defs>
     <path id="m007f4e457f" d="M 0 8.204372 
C 2.175825 8.204372 4.262827 7.339908 5.801367 5.801367 
C 7.339908 4.262827 8.204372 2.175825 8.204372 0 
C 8.204372 -2.175825 7.339908 -4.262827 5.801367 -5.801367 
C 4.262827 -7.339908 2.175825 -8.204372 0 -8.204372 
C -2.175825 -8.204372 -4.262827 -7.339908 -5.801367 -5.801367 
C -7.339908 -4.262827 -8.204372 -2.175825 -8.204372 0 
C -8.204372 2.175825 -7.339908 4.262827 -5.801367 5.801367 
C -4.262827 7.339908 -2.175825 8.204372 0 8.204372 
z
" style="stroke: #000000"/>
    </defs>
    <g clip-path="url(#p1873a219db)">
     <use xlink:href="#m007f4e457f" x="622.636364" y="68.977763" style="stroke: #000000"/>
    </g>
   </g>
   <g id="line2d_7">
    <defs>
     <path id="ma98003beca" d="M 0 8.129347 
C 2.155928 8.129347 4.223845 7.272788 5.748317 5.748317 
C 7.272788 4.223845 8.129347 2.155928 8.129347 0 
C 8.129347 -2.155928 7.272788 -4.223845 5.748317 -5.748317 
C 4.223845 -7.272788 2.155928 -8.129347 0 -8.129347 
C -2.155928 -8.129347 -4.223845 -7.272788 -5.748317 -5.748317 
C -7.272788 -4.223845 -8.129347 -2.155928 -8.129347 0 
C -8.129347 2.155928 -7.272788 4.223845 -5.748317 5.748317 
C -4.223845 7.272788 -2.155928 8.129347 0 8.129347 
z
" style="stroke: #000000"/>
    </defs>
    <g clip-path="url(#p1873a219db)">
     <use xlink:href="#ma98003beca" x="115.363636" y="152.663262" style="stroke: #000000"/>
    </g>
   </g>
   <g id="line2d_8">
    <defs>
     <path id="m0192213899" d="M 0 7.856841 
C 2.083659 7.856841 4.082256 7.028995 5.555625 5.555625 
C 7.028995 4.082256 7.856841 2.083659 7.856841 0 
C 7.856841 -2.083659 7.028995 -4.082256 5.555625 -5.555625 
C 4.082256 -7.028995 2.083659 -7.856841 0 -7.856841 
C -2.083659 -7.856841 -4.082256 -7.028995 -5.555625 -5.555625 
C -7.028995 -4.082256 -7.856841 -2.083659 -7.856841 0 
C -7.856841 2.083659 -7.028995 4.082256 -5.555625 5.555625 
C -4.082256 7.028995 -2.083659 7.856841 0 7.856841 
z
" style="stroke: #000000"/>
    </defs>
    <g clip-path="url(#p1873a219db)">
     <use xlink:href="#m0192213899" x="354.363539" y="187.429302" style="stroke: #000000"/>
    </g>
   </g>
   <g id="line2d_9">
    <defs>
     <path id="m974ab6faeb" d="M 0 7.786927 
C 2.065117 7.786927 4.045931 6.966447 5.506189 5.506189 
C 6.966447 4.045931 7.786927 2.065117 7.786927 0 
C 7.786927 -2.065117 6.966447 -4.045931 5.506189 -5.506189 
C 4.045931 -6.966447 2.065117 -7.786927 0 -7.786927 
C -2.065117 -7.786927 -4.045931 -6.966447 -5.506189 -5.506189 
C -6.966447 -4.045931 -7.786927 -2.065117 -7.786927 0 
C -7.786927 2.065117 -6.966447 4.045931 -5.506189 5.506189 
C -4.045931 6.966447 -2.065117 7.786927 0 7.786927 
z
" style="stroke: #000000"/>
    </defs>
    <g clip-path="url(#p1873a219db)">
     <use xlink:href="#m974ab6faeb" x="267.129482" y="192.500981" style="stroke: #000000"/>
    </g>
   </g>
   <g id="line2d_10">
    <defs>
     <path id="m3aadb16d75" d="M 0 7.694732 
C 2.040667 7.694732 3.998028 6.883966 5.440997 5.440997 
C 6.883966 3.998028 7.694732 2.040667 7.694732 0 
C 7.694732 -2.040667 6.883966 -3.998028 5.440997 -5.440997 
C 3.998028 -6.883966 2.040667 -7.694732 0 -7.694732 
C -2.040667 -7.694732 -3.998028 -6.883966 -5.440997 -5.440997 
C -6.883966 -3.998028 -7.694732 -2.040667 -7.694732 0 
C -7.694732 2.040667 -6.883966 3.998028 -5.440997 5.440997 
C -3.998028 6.883966 -2.040667 7.694732 0 7.694732 
z
" style="stroke: #000000"/>
    </defs>
    <g clip-path="url(#p1873a219db)">
     <use xlink:href="#m3aadb16d75" x="265.408723" y="230.131595" style="stroke: #000000"/>
    </g>
   </g>
  </g>
 </g>
 <defs>
  <clipPath id="p1873a219db">
   <path d="M 90 305.904461 
L 90 57.695539 
L 648 57.695539 
L 648 305.904461 
L 90 305.904461 
"/>
  </clipPath>
 </defs>
</svg>
