<?xml version="1.0" encoding="utf-8" standalone="no"?>
<!DOCTYPE svg PUBLIC "-//W3C//DTD SVG 1.1//EN"
  "http://www.w3.org/Graphics/SVG/1.1/DTD/svg11.dtd">
<svg xmlns:xlink="http://www.w3.org/1999/xlink" width="720pt" height="360pt" viewBox="0 0 720 360" xmlns="http://www.w3.org/2000/svg" version="1.1">
 <metadata>
  <rdf:RDF xmlns:dc="http://purl.org/dc/elements/1.1/" xmlns:cc="http://creativecommons.org/ns#" xmlns:rdf="http://www.w3.org/1999/02/22-rdf-syntax-ns#">
   <cc:Work>
    <dc:type rdf:resource="http://purl.org/dc/dcmitype/StillImage"/>
    <dc:date>2023-11-30T21:30:50.435007</dc:date>
    <dc:format>image/svg+xml</dc:format>
    <dc:creator>
     <cc:Agent>
      <dc:title>Matplotlib v3.8.1, https://matplotlib.org/</dc:title>
     </cc:Agent>
    </dc:creator>
   </cc:Work>
  </rdf:RDF>
 </metadata>
 <defs>
  <style type="text/css">*{stroke-linejoin: round; stroke-linecap: butt}</style>
 </defs>
 <g id="figure_1">
  <g id="patch_1">
   <path d="M 0 360 
L 720 360 
L 720 0 
L 0 0 
z
" style="fill: #ffffff"/>
  </g>
  <g id="axes_1">
   <g id="patch_2">
    <path d="M 256.745393 320.4 
L 256.745393 43.2 
L 481.254607 43.2 
L 481.254607 320.4 
L 256.745393 320.4 
" style="fill: #ffffff"/>
   </g>
   <g id="line2d_1">
    <defs>
     <path id="m8df4d3463b" d="M 0 11.047153 
C 2.929739 11.047153 5.739879 9.883156 7.811517 7.811517 
C 9.883156 5.739879 11.047153 2.929739 11.047153 0 
C 11.047153 -2.929739 9.883156 -5.739879 7.811517 -7.811517 
C 5.739879 -9.883156 2.929739 -11.047153 0 -11.047153 
C -2.929739 -11.047153 -5.739879 -9.883156 -7.811517 -7.811517 
C -9.883156 -5.739879 -11.047153 -2.929739 -11.047153 0 
C -11.047153 2.929739 -9.883156 5.739879 -7.811517 7.811517 
C -5.739879 9.883156 -2.929739 11.047153 0 11.047153 
z
" style="stroke: #000000"/>
    </defs>
    <g clip-path="url(#p64116a5b76)">
     <use xlink:href="#m8df4d3463b" x="391.13399" y="269.020664" style="stroke: #000000"/>
    </g>
   </g>
   <g id="line2d_2">
    <defs>
     <path id="m9c59493106" d="M 0 10.102154 
C 2.679123 10.102154 5.248876 9.037728 7.143302 7.143302 
C 9.037728 5.248876 10.102154 2.679123 10.102154 0 
C 10.102154 -2.679123 9.037728 -5.248876 7.143302 -7.143302 
C 5.248876 -9.037728 2.679123 -10.102154 0 -10.102154 
C -2.679123 -10.102154 -5.248876 -9.037728 -7.143302 -7.143302 
C -9.037728 -5.248876 -10.102154 -2.679123 -10.102154 0 
C -10.102154 2.679123 -9.037728 5.248876 -7.143302 7.143302 
C -5.248876 9.037728 -2.679123 10.102154 0 10.102154 
z
" style="stroke: #000000"/>
    </defs>
    <g clip-path="url(#p64116a5b76)">
     <use xlink:href="#m9c59493106" x="388.369576" y="61.27209" style="stroke: #000000"/>
    </g>
   </g>
   <g id="line2d_3">
    <defs>
     <path id="m7268f687e5" d="M 0 9.909548 
C 2.628043 9.909548 5.148802 8.865415 7.007108 7.007108 
C 8.865415 5.148802 9.909548 2.628043 9.909548 0 
C 9.909548 -2.628043 8.865415 -5.148802 7.007108 -7.007108 
C 5.148802 -8.865415 2.628043 -9.909548 0 -9.909548 
C -2.628043 -9.909548 -5.148802 -8.865415 -7.007108 -7.007108 
C -8.865415 -5.148802 -9.909548 -2.628043 -9.909548 0 
C -9.909548 2.628043 -8.865415 5.148802 -7.007108 7.007108 
C -5.148802 8.865415 -2.628043 9.909548 0 9.909548 
z
" style="stroke: #000000"/>
    </defs>
    <g clip-path="url(#p64116a5b76)">
     <use xlink:href="#m7268f687e5" x="390.128021" y="151.705099" style="stroke: #000000"/>
    </g>
   </g>
   <g id="line2d_4">
    <defs>
     <path id="m60fbc940a0" d="M 0 9.371704 
C 2.485405 9.371704 4.869349 8.384242 6.626795 6.626795 
C 8.384242 4.869349 9.371704 2.485405 9.371704 0 
C 9.371704 -2.485405 8.384242 -4.869349 6.626795 -6.626795 
C 4.869349 -8.384242 2.485405 -9.371704 0 -9.371704 
C -2.485405 -9.371704 -4.869349 -8.384242 -6.626795 -6.626795 
C -8.384242 -4.869349 -9.371704 -2.485405 -9.371704 0 
C -9.371704 2.485405 -8.384242 4.869349 -6.626795 6.626795 
C -4.869349 8.384242 -2.485405 9.371704 0 9.371704 
z
" style="stroke: #000000"/>
    </defs>
    <g clip-path="url(#p64116a5b76)">
     <use xlink:href="#m60fbc940a0" x="447.250982" y="281.467458" style="stroke: #000000"/>
    </g>
   </g>
   <g id="line2d_5">
    <defs>
     <path id="m41fdd26299" d="M 0 8.954343 
C 2.374719 8.954343 4.652496 8.010857 6.331677 6.331677 
C 8.010857 4.652496 8.954343 2.374719 8.954343 0 
C 8.954343 -2.374719 8.010857 -4.652496 6.331677 -6.331677 
C 4.652496 -8.010857 2.374719 -8.954343 0 -8.954343 
C -2.374719 -8.954343 -4.652496 -8.010857 -6.331677 -6.331677 
C -8.010857 -4.652496 -8.954343 -2.374719 -8.954343 0 
C -8.954343 2.374719 -8.010857 4.652496 -6.331677 6.331677 
C -4.652496 8.010857 -2.374719 8.954343 0 8.954343 
z
" style="stroke: #000000"/>
    </defs>
    <g clip-path="url(#p64116a5b76)">
     <use xlink:href="#m41fdd26299" x="471.049643" y="307.8" style="stroke: #000000"/>
    </g>
   </g>
   <g id="line2d_6">
    <defs>
     <path id="mc63f8f0c02" d="M 0 8.949374 
C 2.373402 8.949374 4.649915 8.006412 6.328163 6.328163 
C 8.006412 4.649915 8.949374 2.373402 8.949374 0 
C 8.949374 -2.373402 8.006412 -4.649915 6.328163 -6.328163 
C 4.649915 -8.006412 2.373402 -8.949374 0 -8.949374 
C -2.373402 -8.949374 -4.649915 -8.006412 -6.328163 -6.328163 
C -8.006412 -4.649915 -8.949374 -2.373402 -8.949374 0 
C -8.949374 2.373402 -8.006412 4.649915 -6.328163 6.328163 
C -4.649915 8.006412 -2.373402 8.949374 0 8.949374 
z
" style="stroke: #000000"/>
    </defs>
    <g clip-path="url(#p64116a5b76)">
     <use xlink:href="#mc63f8f0c02" x="403.531921" y="248.018407" style="stroke: #000000"/>
    </g>
   </g>
   <g id="line2d_7">
    <defs>
     <path id="m12edc9ca7f" d="M 0 8.927538 
C 2.367611 8.927538 4.638569 7.986876 6.312722 6.312722 
C 7.986876 4.638569 8.927538 2.367611 8.927538 0 
C 8.927538 -2.367611 7.986876 -4.638569 6.312722 -6.312722 
C 4.638569 -7.986876 2.367611 -8.927538 0 -8.927538 
C -2.367611 -8.927538 -4.638569 -7.986876 -6.312722 -6.312722 
C -7.986876 -4.638569 -8.927538 -2.367611 -8.927538 0 
C -8.927538 2.367611 -7.986876 4.638569 -6.312722 6.312722 
C -4.638569 7.986876 -2.367611 8.927538 0 8.927538 
z
" style="stroke: #000000"/>
    </defs>
    <g clip-path="url(#p64116a5b76)">
     <use xlink:href="#m12edc9ca7f" x="336.852443" y="270.053117" style="stroke: #000000"/>
    </g>
   </g>
   <g id="line2d_8">
    <defs>
     <path id="m266739b496" d="M 0 8.736837 
C 2.317036 8.736837 4.539485 7.816269 6.177877 6.177877 
C 7.816269 4.539485 8.736837 2.317036 8.736837 0 
C 8.736837 -2.317036 7.816269 -4.539485 6.177877 -6.177877 
C 4.539485 -7.816269 2.317036 -8.736837 0 -8.736837 
C -2.317036 -8.736837 -4.539485 -7.816269 -6.177877 -6.177877 
C -7.816269 -4.539485 -8.736837 -2.317036 -8.736837 0 
C -8.736837 2.317036 -7.816269 4.539485 -6.177877 6.177877 
C -4.539485 7.816269 -2.317036 8.736837 0 8.736837 
z
" style="stroke: #000000"/>
    </defs>
    <g clip-path="url(#p64116a5b76)">
     <use xlink:href="#m266739b496" x="352.241598" y="55.8" style="stroke: #000000"/>
    </g>
   </g>
   <g id="line2d_9">
    <defs>
     <path id="md027919018" d="M 0 8.719721 
C 2.312497 8.719721 4.530591 7.800956 6.165774 6.165774 
C 7.800956 4.530591 8.719721 2.312497 8.719721 0 
C 8.719721 -2.312497 7.800956 -4.530591 6.165774 -6.165774 
C 4.530591 -7.800956 2.312497 -8.719721 0 -8.719721 
C -2.312497 -8.719721 -4.530591 -7.800956 -6.165774 -6.165774 
C -7.800956 -4.530591 -8.719721 -2.312497 -8.719721 0 
C -8.719721 2.312497 -7.800956 4.530591 -6.165774 6.165774 
C -4.530591 7.800956 -2.312497 8.719721 0 8.719721 
z
" style="stroke: #000000"/>
    </defs>
    <g clip-path="url(#p64116a5b76)">
     <use xlink:href="#md027919018" x="266.950357" y="135.530395" style="stroke: #000000"/>
    </g>
   </g>
   <g id="line2d_10">
    <defs>
     <path id="m46e6ed4b56" d="M 0 8.718498 
C 2.312173 8.718498 4.529956 7.799862 6.164909 6.164909 
C 7.799862 4.529956 8.718498 2.312173 8.718498 0 
C 8.718498 -2.312173 7.799862 -4.529956 6.164909 -6.164909 
C 4.529956 -7.799862 2.312173 -8.718498 0 -8.718498 
C -2.312173 -8.718498 -4.529956 -7.799862 -6.164909 -6.164909 
C -7.799862 -4.529956 -8.718498 -2.312173 -8.718498 0 
C -8.718498 2.312173 -7.799862 4.529956 -6.164909 6.164909 
C -4.529956 7.799862 -2.312173 8.718498 0 8.718498 
z
" style="stroke: #000000"/>
    </defs>
    <g clip-path="url(#p64116a5b76)">
     <use xlink:href="#m46e6ed4b56" x="379.787008" y="105.93244" style="stroke: #000000"/>
    </g>
   </g>
  </g>
 </g>
 <defs>
  <clipPath id="p64116a5b76">
   <path d="M 256.745393 320.4 
L 256.745393 43.2 
L 481.254607 43.2 
L 481.254607 320.4 
L 256.745393 320.4 
"/>
  </clipPath>
 </defs>
</svg>
