<?xml version="1.0" encoding="utf-8" standalone="no"?>
<!DOCTYPE svg PUBLIC "-//W3C//DTD SVG 1.1//EN"
  "http://www.w3.org/Graphics/SVG/1.1/DTD/svg11.dtd">
<svg xmlns:xlink="http://www.w3.org/1999/xlink" width="720pt" height="360pt" viewBox="0 0 720 360" xmlns="http://www.w3.org/2000/svg" version="1.1">
 <metadata>
  <rdf:RDF xmlns:dc="http://purl.org/dc/elements/1.1/" xmlns:cc="http://creativecommons.org/ns#" xmlns:rdf="http://www.w3.org/1999/02/22-rdf-syntax-ns#">
   <cc:Work>
    <dc:type rdf:resource="http://purl.org/dc/dcmitype/StillImage"/>
    <dc:date>2023-11-30T21:30:50.479567</dc:date>
    <dc:format>image/svg+xml</dc:format>
    <dc:creator>
     <cc:Agent>
      <dc:title>Matplotlib v3.8.1, https://matplotlib.org/</dc:title>
     </cc:Agent>
    </dc:creator>
   </cc:Work>
  </rdf:RDF>
 </metadata>
 <defs>
  <style type="text/css">*{stroke-linejoin: round; stroke-linecap: butt}</style>
 </defs>
 <g id="figure_1">
  <g id="patch_1">
   <path d="M 0 360 
L 720 360 
L 720 0 
L 0 0 
z
" style="fill: #ffffff"/>
  </g>
  <g id="axes_1">
   <g id="patch_2">
    <path d="M 90 310.746968 
L 90 52.853032 
L 648 52.853032 
L 648 310.746968 
L 90 310.746968 
" style="fill: #ffffff"/>
   </g>
   <g id="line2d_1">
    <defs>
     <path id="m777809726b" d="M 0 9.844141 
C 2.610697 9.844141 5.114818 8.806901 6.960859 6.960859 
C 8.806901 5.114818 9.844141 2.610697 9.844141 0 
C 9.844141 -2.610697 8.806901 -5.114818 6.960859 -6.960859 
C 5.114818 -8.806901 2.610697 -9.844141 0 -9.844141 
C -2.610697 -9.844141 -5.114818 -8.806901 -6.960859 -6.960859 
C -8.806901 -5.114818 -9.844141 -2.610697 -9.844141 0 
C -9.844141 2.610697 -8.806901 5.114818 -6.960859 6.960859 
C -5.114818 8.806901 -2.610697 9.844141 0 9.844141 
z
" style="stroke: #000000"/>
    </defs>
    <g clip-path="url(#p7e3b119b59)">
     <use xlink:href="#m777809726b" x="622.636364" y="158.960669" style="stroke: #000000"/>
    </g>
   </g>
   <g id="line2d_2">
    <defs>
     <path id="m8a4c9b05ce" d="M 0 8.288884 
C 2.198238 8.288884 4.306737 7.415515 5.861126 5.861126 
C 7.415515 4.306737 8.288884 2.198238 8.288884 0 
C 8.288884 -2.198238 7.415515 -4.306737 5.861126 -5.861126 
C 4.306737 -7.415515 2.198238 -8.288884 0 -8.288884 
C -2.198238 -8.288884 -4.306737 -7.415515 -5.861126 -5.861126 
C -7.415515 -4.306737 -8.288884 -2.198238 -8.288884 0 
C -8.288884 2.198238 -7.415515 4.306737 -5.861126 5.861126 
C -4.306737 7.415515 -2.198238 8.288884 0 8.288884 
z
" style="stroke: #000000"/>
    </defs>
    <g clip-path="url(#p7e3b119b59)">
     <use xlink:href="#m8a4c9b05ce" x="538.696892" y="108.210542" style="stroke: #000000"/>
    </g>
   </g>
   <g id="line2d_3">
    <defs>
     <path id="mb459bdff10" d="M 0 8.178054 
C 2.168845 8.178054 4.249152 7.316363 5.782757 5.782757 
C 7.316363 4.249152 8.178054 2.168845 8.178054 0 
C 8.178054 -2.168845 7.316363 -4.249152 5.782757 -5.782757 
C 4.249152 -7.316363 2.168845 -8.178054 0 -8.178054 
C -2.168845 -8.178054 -4.249152 -7.316363 -5.782757 -5.782757 
C -7.316363 -4.249152 -8.178054 -2.168845 -8.178054 0 
C -8.178054 2.168845 -7.316363 4.249152 -5.782757 5.782757 
C -4.249152 7.316363 -2.168845 8.178054 0 8.178054 
z
" style="stroke: #000000"/>
    </defs>
    <g clip-path="url(#p7e3b119b59)">
     <use xlink:href="#mb459bdff10" x="593.842401" y="87.445149" style="stroke: #000000"/>
    </g>
   </g>
   <g id="line2d_4">
    <defs>
     <path id="mf90c5ceec8" d="M 0 7.633046 
C 2.024307 7.633046 3.965977 6.82878 5.397378 5.397378 
C 6.82878 3.965977 7.633046 2.024307 7.633046 0 
C 7.633046 -2.024307 6.82878 -3.965977 5.397378 -5.397378 
C 3.965977 -6.82878 2.024307 -7.633046 0 -7.633046 
C -2.024307 -7.633046 -3.965977 -6.82878 -5.397378 -5.397378 
C -6.82878 -3.965977 -7.633046 -2.024307 -7.633046 0 
C -7.633046 2.024307 -6.82878 3.965977 -5.397378 5.397378 
C -3.965977 6.82878 -2.024307 7.633046 0 7.633046 
z
" style="stroke: #000000"/>
    </defs>
    <g clip-path="url(#p7e3b119b59)">
     <use xlink:href="#mf90c5ceec8" x="421.152971" y="80.647209" style="stroke: #000000"/>
    </g>
   </g>
   <g id="line2d_5">
    <defs>
     <path id="m5c8c3351b3" d="M 0 7.458406 
C 1.977992 7.458406 3.875238 6.672542 5.27389 5.27389 
C 6.672542 3.875238 7.458406 1.977992 7.458406 0 
C 7.458406 -1.977992 6.672542 -3.875238 5.27389 -5.27389 
C 3.875238 -6.672542 1.977992 -7.458406 0 -7.458406 
C -1.977992 -7.458406 -3.875238 -6.672542 -5.27389 -5.27389 
C -6.672542 -3.875238 -7.458406 -1.977992 -7.458406 0 
C -7.458406 1.977992 -6.672542 3.875238 -5.27389 5.27389 
C -3.875238 6.672542 -1.977992 7.458406 0 7.458406 
z
" style="stroke: #000000"/>
    </defs>
    <g clip-path="url(#p7e3b119b59)">
     <use xlink:href="#m5c8c3351b3" x="437.808296" y="234.119025" style="stroke: #000000"/>
    </g>
   </g>
   <g id="line2d_6">
    <defs>
     <path id="mb0c6f71c2b" d="M 0 7.43857 
C 1.972732 7.43857 3.864931 6.654795 5.259863 5.259863 
C 6.654795 3.864931 7.43857 1.972732 7.43857 0 
C 7.43857 -1.972732 6.654795 -3.864931 5.259863 -5.259863 
C 3.864931 -6.654795 1.972732 -7.43857 0 -7.43857 
C -1.972732 -7.43857 -3.864931 -6.654795 -5.259863 -5.259863 
C -6.654795 -3.864931 -7.43857 -1.972732 -7.43857 0 
C -7.43857 1.972732 -6.654795 3.864931 -5.259863 5.259863 
C -3.864931 6.654795 -1.972732 7.43857 0 7.43857 
z
" style="stroke: #000000"/>
    </defs>
    <g clip-path="url(#p7e3b119b59)">
     <use xlink:href="#mb0c6f71c2b" x="178.445278" y="64.575484" style="stroke: #000000"/>
    </g>
   </g>
   <g id="line2d_7">
    <defs>
     <path id="mf2223ab8e5" d="M 0 7.431537 
C 1.970867 7.431537 3.861277 6.648503 5.25489 5.25489 
C 6.648503 3.861277 7.431537 1.970867 7.431537 0 
C 7.431537 -1.970867 6.648503 -3.861277 5.25489 -5.25489 
C 3.861277 -6.648503 1.970867 -7.431537 0 -7.431537 
C -1.970867 -7.431537 -3.861277 -6.648503 -5.25489 -5.25489 
C -6.648503 -3.861277 -7.431537 -1.970867 -7.431537 0 
C -7.431537 1.970867 -6.648503 3.861277 -5.25489 5.25489 
C -3.861277 6.648503 -1.970867 7.431537 0 7.431537 
z
" style="stroke: #000000"/>
    </defs>
    <g clip-path="url(#p7e3b119b59)">
     <use xlink:href="#mf2223ab8e5" x="165.71215" y="154.593533" style="stroke: #000000"/>
    </g>
   </g>
   <g id="line2d_8">
    <defs>
     <path id="ma7b1cae9b5" d="M 0 7.422279 
C 1.968411 7.422279 3.856467 6.640221 5.248344 5.248344 
C 6.640221 3.856467 7.422279 1.968411 7.422279 0 
C 7.422279 -1.968411 6.640221 -3.856467 5.248344 -5.248344 
C 3.856467 -6.640221 1.968411 -7.422279 0 -7.422279 
C -1.968411 -7.422279 -3.856467 -6.640221 -5.248344 -5.248344 
C -6.640221 -3.856467 -7.422279 -1.968411 -7.422279 0 
C -7.422279 1.968411 -6.640221 3.856467 -5.248344 5.248344 
C -3.856467 6.640221 -1.968411 7.422279 0 7.422279 
z
" style="stroke: #000000"/>
    </defs>
    <g clip-path="url(#p7e3b119b59)">
     <use xlink:href="#ma7b1cae9b5" x="499.474013" y="231.11896" style="stroke: #000000"/>
    </g>
   </g>
   <g id="line2d_9">
    <defs>
     <path id="m82e22a13b7" d="M 0 7.396827 
C 1.961661 7.396827 3.843242 6.617451 5.230347 5.230347 
C 6.617451 3.843242 7.396827 1.961661 7.396827 0 
C 7.396827 -1.961661 6.617451 -3.843242 5.230347 -5.230347 
C 3.843242 -6.617451 1.961661 -7.396827 0 -7.396827 
C -1.961661 -7.396827 -3.843242 -6.617451 -5.230347 -5.230347 
C -6.617451 -3.843242 -7.396827 -1.961661 -7.396827 0 
C -7.396827 1.961661 -6.617451 3.843242 -5.230347 5.230347 
C -3.843242 6.617451 -1.961661 7.396827 0 7.396827 
z
" style="stroke: #000000"/>
    </defs>
    <g clip-path="url(#p7e3b119b59)">
     <use xlink:href="#m82e22a13b7" x="115.363636" y="111.172248" style="stroke: #000000"/>
    </g>
   </g>
   <g id="line2d_10">
    <defs>
     <path id="m58222994fc" d="M 0 7.384635 
C 1.958428 7.384635 3.836908 6.606543 5.221725 5.221725 
C 6.606543 3.836908 7.384635 1.958428 7.384635 0 
C 7.384635 -1.958428 6.606543 -3.836908 5.221725 -5.221725 
C 3.836908 -6.606543 1.958428 -7.384635 0 -7.384635 
C -1.958428 -7.384635 -3.836908 -6.606543 -5.221725 -5.221725 
C -6.606543 -3.836908 -7.384635 -1.958428 -7.384635 0 
C -7.384635 1.958428 -6.606543 3.836908 -5.221725 5.221725 
C -3.836908 6.606543 -1.958428 7.384635 0 7.384635 
z
" style="stroke: #000000"/>
    </defs>
    <g clip-path="url(#p7e3b119b59)">
     <use xlink:href="#m58222994fc" x="481.483707" y="299.024516" style="stroke: #000000"/>
    </g>
   </g>
  </g>
 </g>
 <defs>
  <clipPath id="p7e3b119b59">
   <path d="M 90 310.746968 
L 90 52.853032 
L 648 52.853032 
L 648 310.746968 
L 90 310.746968 
"/>
  </clipPath>
 </defs>
</svg>
