<?xml version="1.0" encoding="utf-8" standalone="no"?>
<!DOCTYPE svg PUBLIC "-//W3C//DTD SVG 1.1//EN"
  "http://www.w3.org/Graphics/SVG/1.1/DTD/svg11.dtd">
<svg xmlns:xlink="http://www.w3.org/1999/xlink" width="720pt" height="360pt" viewBox="0 0 720 360" xmlns="http://www.w3.org/2000/svg" version="1.1">
 <metadata>
  <rdf:RDF xmlns:dc="http://purl.org/dc/elements/1.1/" xmlns:cc="http://creativecommons.org/ns#" xmlns:rdf="http://www.w3.org/1999/02/22-rdf-syntax-ns#">
   <cc:Work>
    <dc:type rdf:resource="http://purl.org/dc/dcmitype/StillImage"/>
    <dc:date>2023-11-30T21:30:53.687048</dc:date>
    <dc:format>image/svg+xml</dc:format>
    <dc:creator>
     <cc:Agent>
      <dc:title>Matplotlib v3.8.1, https://matplotlib.org/</dc:title>
     </cc:Agent>
    </dc:creator>
   </cc:Work>
  </rdf:RDF>
 </metadata>
 <defs>
  <style type="text/css">*{stroke-linejoin: round; stroke-linecap: butt}</style>
 </defs>
 <g id="figure_1">
  <g id="patch_1">
   <path d="M 0 360 
L 720 360 
L 720 0 
L 0 0 
z
" style="fill: #ffffff"/>
  </g>
  <g id="axes_1">
   <g id="patch_2">
    <path d="M 290.798618 320.4 
L 290.798618 43.2 
L 447.201382 43.2 
L 447.201382 320.4 
L 290.798618 320.4 
" style="fill: #ffffff"/>
   </g>
   <g id="line2d_1">
    <defs>
     <path id="m7d71062109" d="M 0 8.228787 
C 2.1823 8.228787 4.275512 7.36175 5.818631 5.818631 
C 7.36175 4.275512 8.228787 2.1823 8.228787 0 
C 8.228787 -2.1823 7.36175 -4.275512 5.818631 -5.818631 
C 4.275512 -7.36175 2.1823 -8.228787 0 -8.228787 
C -2.1823 -8.228787 -4.275512 -7.36175 -5.818631 -5.818631 
C -7.36175 -4.275512 -8.228787 -2.1823 -8.228787 0 
C -8.228787 2.1823 -7.36175 4.275512 -5.818631 5.818631 
C -4.275512 7.36175 -2.1823 8.228787 0 8.228787 
z
" style="stroke: #000000"/>
    </defs>
    <g clip-path="url(#p03bc38f502)">
     <use xlink:href="#m7d71062109" x="297.907834" y="208.901206" style="stroke: #000000"/>
    </g>
   </g>
   <g id="line2d_2">
    <defs>
     <path id="m122b5b9c79" d="M 0 7.654276 
C 2.029938 7.654276 3.977008 6.847773 5.412391 5.412391 
C 6.847773 3.977008 7.654276 2.029938 7.654276 0 
C 7.654276 -2.029938 6.847773 -3.977008 5.412391 -5.412391 
C 3.977008 -6.847773 2.029938 -7.654276 0 -7.654276 
C -2.029938 -7.654276 -3.977008 -6.847773 -5.412391 -5.412391 
C -6.847773 -3.977008 -7.654276 -2.029938 -7.654276 0 
C -7.654276 2.029938 -6.847773 3.977008 -5.412391 5.412391 
C -3.977008 6.847773 -2.029938 7.654276 0 7.654276 
z
" style="stroke: #000000"/>
    </defs>
    <g clip-path="url(#p03bc38f502)">
     <use xlink:href="#m122b5b9c79" x="359.66659" y="200.596986" style="stroke: #000000"/>
    </g>
   </g>
   <g id="line2d_3">
    <defs>
     <path id="m86740e4601" d="M 0 7.269791 
C 1.927971 7.269791 3.777237 6.5038 5.140519 5.140519 
C 6.5038 3.777237 7.269791 1.927971 7.269791 0 
C 7.269791 -1.927971 6.5038 -3.777237 5.140519 -5.140519 
C 3.777237 -6.5038 1.927971 -7.269791 0 -7.269791 
C -1.927971 -7.269791 -3.777237 -6.5038 -5.140519 -5.140519 
C -6.5038 -3.777237 -7.269791 -1.927971 -7.269791 0 
C -7.269791 1.927971 -6.5038 3.777237 -5.140519 5.140519 
C -3.777237 6.5038 -1.927971 7.269791 0 7.269791 
z
" style="stroke: #000000"/>
    </defs>
    <g clip-path="url(#p03bc38f502)">
     <use xlink:href="#m86740e4601" x="407.19117" y="146.048709" style="stroke: #000000"/>
    </g>
   </g>
   <g id="line2d_4">
    <defs>
     <path id="m205cf1b445" d="M 0 7.157469 
C 1.898183 7.157469 3.718877 6.403313 5.061095 5.061095 
C 6.403313 3.718877 7.157469 1.898183 7.157469 0 
C 7.157469 -1.898183 6.403313 -3.718877 5.061095 -5.061095 
C 3.718877 -6.403313 1.898183 -7.157469 0 -7.157469 
C -1.898183 -7.157469 -3.718877 -6.403313 -5.061095 -5.061095 
C -6.403313 -3.718877 -7.157469 -1.898183 -7.157469 0 
C -7.157469 1.898183 -6.403313 3.718877 -5.061095 5.061095 
C -3.718877 6.403313 -1.898183 7.157469 0 7.157469 
z
" style="stroke: #000000"/>
    </defs>
    <g clip-path="url(#p03bc38f502)">
     <use xlink:href="#m205cf1b445" x="365.772869" y="55.8" style="stroke: #000000"/>
    </g>
   </g>
   <g id="line2d_5">
    <defs>
     <path id="m04688f4534" d="M 0 7.132331 
C 1.891516 7.132331 3.705816 6.380824 5.04332 5.04332 
C 6.380824 3.705816 7.132331 1.891516 7.132331 0 
C 7.132331 -1.891516 6.380824 -3.705816 5.04332 -5.04332 
C 3.705816 -6.380824 1.891516 -7.132331 0 -7.132331 
C -1.891516 -7.132331 -3.705816 -6.380824 -5.04332 -5.04332 
C -6.380824 -3.705816 -7.132331 -1.891516 -7.132331 0 
C -7.132331 1.891516 -6.380824 3.705816 -5.04332 5.04332 
C -3.705816 6.380824 -1.891516 7.132331 0 7.132331 
z
" style="stroke: #000000"/>
    </defs>
    <g clip-path="url(#p03bc38f502)">
     <use xlink:href="#m04688f4534" x="439.644758" y="199.133499" style="stroke: #000000"/>
    </g>
   </g>
   <g id="line2d_6">
    <defs>
     <path id="mb51377f8e6" d="M 0 7.043193 
C 1.867876 7.043193 3.659501 6.301077 4.980289 4.980289 
C 6.301077 3.659501 7.043193 1.867876 7.043193 0 
C 7.043193 -1.867876 6.301077 -3.659501 4.980289 -4.980289 
C 3.659501 -6.301077 1.867876 -7.043193 0 -7.043193 
C -1.867876 -7.043193 -3.659501 -6.301077 -4.980289 -4.980289 
C -6.301077 -3.659501 -7.043193 -1.867876 -7.043193 0 
C -7.043193 1.867876 -6.301077 3.659501 -4.980289 4.980289 
C -3.659501 6.301077 -1.867876 7.043193 0 7.043193 
z
" style="stroke: #000000"/>
    </defs>
    <g clip-path="url(#p03bc38f502)">
     <use xlink:href="#mb51377f8e6" x="380.471022" y="233.028973" style="stroke: #000000"/>
    </g>
   </g>
   <g id="line2d_7">
    <defs>
     <path id="m84c1398892" d="M 0 7.025562 
C 1.863201 7.025562 3.650341 6.285304 4.967823 4.967823 
C 6.285304 3.650341 7.025562 1.863201 7.025562 0 
C 7.025562 -1.863201 6.285304 -3.650341 4.967823 -4.967823 
C 3.650341 -6.285304 1.863201 -7.025562 0 -7.025562 
C -1.863201 -7.025562 -3.650341 -6.285304 -4.967823 -4.967823 
C -6.285304 -3.650341 -7.025562 -1.863201 -7.025562 0 
C -7.025562 1.863201 -6.285304 3.650341 -4.967823 4.967823 
C -3.650341 6.285304 -1.863201 7.025562 0 7.025562 
z
" style="stroke: #000000"/>
    </defs>
    <g clip-path="url(#p03bc38f502)">
     <use xlink:href="#m84c1398892" x="327.014154" y="151.597883" style="stroke: #000000"/>
    </g>
   </g>
   <g id="line2d_8">
    <defs>
     <path id="mf22944c3b4" d="M 0 6.938306 
C 1.84006 6.938306 3.605004 6.207243 4.906124 4.906124 
C 6.207243 3.605004 6.938306 1.84006 6.938306 0 
C 6.938306 -1.84006 6.207243 -3.605004 4.906124 -4.906124 
C 3.605004 -6.207243 1.84006 -6.938306 0 -6.938306 
C -1.84006 -6.938306 -3.605004 -6.207243 -4.906124 -4.906124 
C -6.207243 -3.605004 -6.938306 -1.84006 -6.938306 0 
C -6.938306 1.84006 -6.207243 3.605004 -4.906124 4.906124 
C -3.605004 6.207243 -1.84006 6.938306 0 6.938306 
z
" style="stroke: #000000"/>
    </defs>
    <g clip-path="url(#p03bc38f502)">
     <use xlink:href="#mf22944c3b4" x="389.866572" y="94.498057" style="stroke: #000000"/>
    </g>
   </g>
   <g id="line2d_9">
    <defs>
     <path id="m3613c83b56" d="M 0 6.852816 
C 1.817388 6.852816 3.560585 6.13076 4.845673 4.845673 
C 6.13076 3.560585 6.852816 1.817388 6.852816 0 
C 6.852816 -1.817388 6.13076 -3.560585 4.845673 -4.845673 
C 3.560585 -6.13076 1.817388 -6.852816 0 -6.852816 
C -1.817388 -6.852816 -3.560585 -6.13076 -4.845673 -4.845673 
C -6.13076 -3.560585 -6.852816 -1.817388 -6.852816 0 
C -6.852816 1.817388 -6.13076 3.560585 -4.845673 4.845673 
C -3.560585 6.13076 -1.817388 6.852816 0 6.852816 
z
" style="stroke: #000000"/>
    </defs>
    <g clip-path="url(#p03bc38f502)">
     <use xlink:href="#m3613c83b56" x="440.092166" y="307.8" style="stroke: #000000"/>
    </g>
   </g>
   <g id="line2d_10">
    <defs>
     <path id="m3211c5d779" d="M 0 6.714311 
C 1.780656 6.714311 3.488621 6.006849 4.747735 4.747735 
C 6.006849 3.488621 6.714311 1.780656 6.714311 0 
C 6.714311 -1.780656 6.006849 -3.488621 4.747735 -4.747735 
C 3.488621 -6.006849 1.780656 -6.714311 0 -6.714311 
C -1.780656 -6.714311 -3.488621 -6.006849 -4.747735 -4.747735 
C -6.006849 -3.488621 -6.714311 -1.780656 -6.714311 0 
C -6.714311 1.780656 -6.006849 3.488621 -4.747735 4.747735 
C -3.488621 6.006849 -1.780656 6.714311 0 6.714311 
z
" style="stroke: #000000"/>
    </defs>
    <g clip-path="url(#p03bc38f502)">
     <use xlink:href="#m3211c5d779" x="359.368319" y="126.906176" style="stroke: #000000"/>
    </g>
   </g>
  </g>
 </g>
 <defs>
  <clipPath id="p03bc38f502">
   <path d="M 290.798618 320.4 
L 290.798618 43.2 
L 447.201382 43.2 
L 447.201382 320.4 
L 290.798618 320.4 
"/>
  </clipPath>
 </defs>
</svg>
