<?xml version="1.0" encoding="utf-8" standalone="no"?>
<!DOCTYPE svg PUBLIC "-//W3C//DTD SVG 1.1//EN"
  "http://www.w3.org/Graphics/SVG/1.1/DTD/svg11.dtd">
<svg xmlns:xlink="http://www.w3.org/1999/xlink" width="720pt" height="360pt" viewBox="0 0 720 360" xmlns="http://www.w3.org/2000/svg" version="1.1">
 <metadata>
  <rdf:RDF xmlns:dc="http://purl.org/dc/elements/1.1/" xmlns:cc="http://creativecommons.org/ns#" xmlns:rdf="http://www.w3.org/1999/02/22-rdf-syntax-ns#">
   <cc:Work>
    <dc:type rdf:resource="http://purl.org/dc/dcmitype/StillImage"/>
    <dc:date>2023-11-30T21:30:50.523366</dc:date>
    <dc:format>image/svg+xml</dc:format>
    <dc:creator>
     <cc:Agent>
      <dc:title>Matplotlib v3.8.1, https://matplotlib.org/</dc:title>
     </cc:Agent>
    </dc:creator>
   </cc:Work>
  </rdf:RDF>
 </metadata>
 <defs>
  <style type="text/css">*{stroke-linejoin: round; stroke-linecap: butt}</style>
 </defs>
 <g id="figure_1">
  <g id="patch_1">
   <path d="M 0 360 
L 720 360 
L 720 0 
L 0 0 
z
" style="fill: #ffffff"/>
  </g>
  <g id="axes_1">
   <g id="patch_2">
    <path d="M 173.829298 320.4 
L 173.829298 43.2 
L 564.170702 43.2 
L 564.170702 320.4 
L 173.829298 320.4 
" style="fill: #ffffff"/>
   </g>
   <g id="line2d_1">
    <defs>
     <path id="mfef4641581" d="M 0 9.667583 
C 2.563873 9.667583 5.023081 8.648945 6.836013 6.836013 
C 8.648945 5.023081 9.667583 2.563873 9.667583 0 
C 9.667583 -2.563873 8.648945 -5.023081 6.836013 -6.836013 
C 5.023081 -8.648945 2.563873 -9.667583 0 -9.667583 
C -2.563873 -9.667583 -5.023081 -8.648945 -6.836013 -6.836013 
C -8.648945 -5.023081 -9.667583 -2.563873 -9.667583 0 
C -9.667583 2.563873 -8.648945 5.023081 -6.836013 6.836013 
C -5.023081 8.648945 -2.563873 9.667583 0 9.667583 
z
" style="stroke: #000000"/>
    </defs>
    <g clip-path="url(#p519de67eb9)">
     <use xlink:href="#mfef4641581" x="230.022454" y="234.775689" style="stroke: #000000"/>
    </g>
   </g>
   <g id="line2d_2">
    <defs>
     <path id="mac719aca2c" d="M 0 8.071233 
C 2.140516 8.071233 4.19365 7.220797 5.707224 5.707224 
C 7.220797 4.19365 8.071233 2.140516 8.071233 0 
C 8.071233 -2.140516 7.220797 -4.19365 5.707224 -5.707224 
C 4.19365 -7.220797 2.140516 -8.071233 0 -8.071233 
C -2.140516 -8.071233 -4.19365 -7.220797 -5.707224 -5.707224 
C -7.220797 -4.19365 -8.071233 -2.140516 -8.071233 0 
C -8.071233 2.140516 -7.220797 4.19365 -5.707224 5.707224 
C -4.19365 7.220797 -2.140516 8.071233 0 8.071233 
z
" style="stroke: #000000"/>
    </defs>
    <g clip-path="url(#p519de67eb9)">
     <use xlink:href="#mac719aca2c" x="191.572089" y="125.493059" style="stroke: #000000"/>
    </g>
   </g>
   <g id="line2d_3">
    <defs>
     <path id="mf513d16e7c" d="M 0 7.949324 
C 2.108185 7.949324 4.130309 7.111733 5.621021 5.621021 
C 7.111733 4.130309 7.949324 2.108185 7.949324 0 
C 7.949324 -2.108185 7.111733 -4.130309 5.621021 -5.621021 
C 4.130309 -7.111733 2.108185 -7.949324 0 -7.949324 
C -2.108185 -7.949324 -4.130309 -7.111733 -5.621021 -5.621021 
C -7.111733 -4.130309 -7.949324 -2.108185 -7.949324 0 
C -7.949324 2.108185 -7.111733 4.130309 -5.621021 5.621021 
C -4.130309 7.111733 -2.108185 7.949324 0 7.949324 
z
" style="stroke: #000000"/>
    </defs>
    <g clip-path="url(#p519de67eb9)">
     <use xlink:href="#mf513d16e7c" x="231.903037" y="233.930908" style="stroke: #000000"/>
    </g>
   </g>
   <g id="line2d_4">
    <defs>
     <path id="mdefcdfe8e6" d="M 0 7.936349 
C 2.104744 7.936349 4.123567 7.100126 5.611847 5.611847 
C 7.100126 4.123567 7.936349 2.104744 7.936349 0 
C 7.936349 -2.104744 7.100126 -4.123567 5.611847 -5.611847 
C 4.123567 -7.100126 2.104744 -7.936349 0 -7.936349 
C -2.104744 -7.936349 -4.123567 -7.100126 -5.611847 -5.611847 
C -7.100126 -4.123567 -7.936349 -2.104744 -7.936349 0 
C -7.936349 2.104744 -7.100126 4.123567 -5.611847 5.611847 
C -4.123567 7.100126 -2.104744 7.936349 0 7.936349 
z
" style="stroke: #000000"/>
    </defs>
    <g clip-path="url(#p519de67eb9)">
     <use xlink:href="#mdefcdfe8e6" x="546.427911" y="290.259977" style="stroke: #000000"/>
    </g>
   </g>
   <g id="line2d_5">
    <defs>
     <path id="m097a4e8048" d="M 0 7.878474 
C 2.089396 7.878474 4.093496 7.048348 5.570922 5.570922 
C 7.048348 4.093496 7.878474 2.089396 7.878474 0 
C 7.878474 -2.089396 7.048348 -4.093496 5.570922 -5.570922 
C 4.093496 -7.048348 2.089396 -7.878474 0 -7.878474 
C -2.089396 -7.878474 -4.093496 -7.048348 -5.570922 -5.570922 
C -7.048348 -4.093496 -7.878474 -2.089396 -7.878474 0 
C -7.878474 2.089396 -7.048348 4.093496 -5.570922 5.570922 
C -4.093496 7.048348 -2.089396 7.878474 0 7.878474 
z
" style="stroke: #000000"/>
    </defs>
    <g clip-path="url(#p519de67eb9)">
     <use xlink:href="#m097a4e8048" x="319.799951" y="307.8" style="stroke: #000000"/>
    </g>
   </g>
   <g id="line2d_6">
    <defs>
     <path id="ma2e2230ecd" d="M 0 7.789113 
C 2.065697 7.789113 4.047066 6.968403 5.507734 5.507734 
C 6.968403 4.047066 7.789113 2.065697 7.789113 0 
C 7.789113 -2.065697 6.968403 -4.047066 5.507734 -5.507734 
C 4.047066 -6.968403 2.065697 -7.789113 0 -7.789113 
C -2.065697 -7.789113 -4.047066 -6.968403 -5.507734 -5.507734 
C -6.968403 -4.047066 -7.789113 -2.065697 -7.789113 0 
C -7.789113 2.065697 -6.968403 4.047066 -5.507734 5.507734 
C -4.047066 6.968403 -2.065697 7.789113 0 7.789113 
z
" style="stroke: #000000"/>
    </defs>
    <g clip-path="url(#p519de67eb9)">
     <use xlink:href="#ma2e2230ecd" x="236.315368" y="294.143312" style="stroke: #000000"/>
    </g>
   </g>
   <g id="line2d_7">
    <defs>
     <path id="mb9aed51e21" d="M 0 7.776785 
C 2.062427 7.776785 4.040661 6.957374 5.499017 5.499017 
C 6.957374 4.040661 7.776785 2.062427 7.776785 0 
C 7.776785 -2.062427 6.957374 -4.040661 5.499017 -5.499017 
C 4.040661 -6.957374 2.062427 -7.776785 0 -7.776785 
C -2.062427 -7.776785 -4.040661 -6.957374 -5.499017 -5.499017 
C -6.957374 -4.040661 -7.776785 -2.062427 -7.776785 0 
C -7.776785 2.062427 -6.957374 4.040661 -5.499017 5.499017 
C -4.040661 6.957374 -2.062427 7.776785 0 7.776785 
z
" style="stroke: #000000"/>
    </defs>
    <g clip-path="url(#p519de67eb9)">
     <use xlink:href="#mb9aed51e21" x="229.660413" y="234.277634" style="stroke: #000000"/>
    </g>
   </g>
   <g id="line2d_8">
    <defs>
     <path id="m9531bfb399" d="M 0 7.661228 
C 2.031781 7.661228 3.98062 6.853993 5.417306 5.417306 
C 6.853993 3.98062 7.661228 2.031781 7.661228 0 
C 7.661228 -2.031781 6.853993 -3.98062 5.417306 -5.417306 
C 3.98062 -6.853993 2.031781 -7.661228 0 -7.661228 
C -2.031781 -7.661228 -3.98062 -6.853993 -5.417306 -5.417306 
C -6.853993 -3.98062 -7.661228 -2.031781 -7.661228 0 
C -7.661228 2.031781 -6.853993 3.98062 -5.417306 5.417306 
C -3.98062 6.853993 -2.031781 7.661228 0 7.661228 
z
" style="stroke: #000000"/>
    </defs>
    <g clip-path="url(#p519de67eb9)">
     <use xlink:href="#m9531bfb399" x="362.310764" y="242.81864" style="stroke: #000000"/>
    </g>
   </g>
   <g id="line2d_9">
    <defs>
     <path id="m2cb8ee3e6f" d="M 0 7.648924 
C 2.028518 7.648924 3.974227 6.842985 5.408606 5.408606 
C 6.842985 3.974227 7.648924 2.028518 7.648924 0 
C 7.648924 -2.028518 6.842985 -3.974227 5.408606 -5.408606 
C 3.974227 -6.842985 2.028518 -7.648924 0 -7.648924 
C -2.028518 -7.648924 -3.974227 -6.842985 -5.408606 -5.408606 
C -6.842985 -3.974227 -7.648924 -2.028518 -7.648924 0 
C -7.648924 2.028518 -6.842985 3.974227 -5.408606 5.408606 
C -3.974227 6.842985 -2.028518 7.648924 0 7.648924 
z
" style="stroke: #000000"/>
    </defs>
    <g clip-path="url(#p519de67eb9)">
     <use xlink:href="#m2cb8ee3e6f" x="396.039721" y="290.120387" style="stroke: #000000"/>
    </g>
   </g>
   <g id="line2d_10">
    <defs>
     <path id="mc0b45a0012" d="M 0 7.606875 
C 2.017367 7.606875 3.952379 6.805367 5.378873 5.378873 
C 6.805367 3.952379 7.606875 2.017367 7.606875 0 
C 7.606875 -2.017367 6.805367 -3.952379 5.378873 -5.378873 
C 3.952379 -6.805367 2.017367 -7.606875 0 -7.606875 
C -2.017367 -7.606875 -3.952379 -6.805367 -5.378873 -5.378873 
C -6.805367 -3.952379 -7.606875 -2.017367 -7.606875 0 
C -7.606875 2.017367 -6.805367 3.952379 -5.378873 5.378873 
C -3.952379 6.805367 -2.017367 7.606875 0 7.606875 
z
" style="stroke: #000000"/>
    </defs>
    <g clip-path="url(#p519de67eb9)">
     <use xlink:href="#mc0b45a0012" x="357.250532" y="55.8" style="stroke: #000000"/>
    </g>
   </g>
  </g>
 </g>
 <defs>
  <clipPath id="p519de67eb9">
   <path d="M 173.829298 320.4 
L 173.829298 43.2 
L 564.170702 43.2 
L 564.170702 320.4 
L 173.829298 320.4 
"/>
  </clipPath>
 </defs>
</svg>
