<?xml version="1.0" encoding="utf-8" standalone="no"?>
<!DOCTYPE svg PUBLIC "-//W3C//DTD SVG 1.1//EN"
  "http://www.w3.org/Graphics/SVG/1.1/DTD/svg11.dtd">
<svg xmlns:xlink="http://www.w3.org/1999/xlink" width="720pt" height="360pt" viewBox="0 0 720 360" xmlns="http://www.w3.org/2000/svg" version="1.1">
 <metadata>
  <rdf:RDF xmlns:dc="http://purl.org/dc/elements/1.1/" xmlns:cc="http://creativecommons.org/ns#" xmlns:rdf="http://www.w3.org/1999/02/22-rdf-syntax-ns#">
   <cc:Work>
    <dc:type rdf:resource="http://purl.org/dc/dcmitype/StillImage"/>
    <dc:date>2023-11-30T21:30:50.570759</dc:date>
    <dc:format>image/svg+xml</dc:format>
    <dc:creator>
     <cc:Agent>
      <dc:title>Matplotlib v3.8.1, https://matplotlib.org/</dc:title>
     </cc:Agent>
    </dc:creator>
   </cc:Work>
  </rdf:RDF>
 </metadata>
 <defs>
  <style type="text/css">*{stroke-linejoin: round; stroke-linecap: butt}</style>
 </defs>
 <g id="figure_1">
  <g id="patch_1">
   <path d="M 0 360 
L 720 360 
L 720 0 
L 0 0 
z
" style="fill: #ffffff"/>
  </g>
  <g id="axes_1">
   <g id="patch_2">
    <path d="M 188.628645 320.4 
L 188.628645 43.2 
L 549.371355 43.2 
L 549.371355 320.4 
L 188.628645 320.4 
" style="fill: #ffffff"/>
   </g>
   <g id="line2d_1">
    <defs>
     <path id="mf9fba6ce0b" d="M 0 7.483861 
C 1.984743 7.483861 3.888463 6.695314 5.291889 5.291889 
C 6.695314 3.888463 7.483861 1.984743 7.483861 0 
C 7.483861 -1.984743 6.695314 -3.888463 5.291889 -5.291889 
C 3.888463 -6.695314 1.984743 -7.483861 0 -7.483861 
C -1.984743 -7.483861 -3.888463 -6.695314 -5.291889 -5.291889 
C -6.695314 -3.888463 -7.483861 -1.984743 -7.483861 0 
C -7.483861 1.984743 -6.695314 3.888463 -5.291889 5.291889 
C -3.888463 6.695314 -1.984743 7.483861 0 7.483861 
z
" style="stroke: #000000"/>
    </defs>
    <g clip-path="url(#p847619defb)">
     <use xlink:href="#mf9fba6ce0b" x="205.026041" y="55.8" style="stroke: #000000"/>
    </g>
   </g>
   <g id="line2d_2">
    <defs>
     <path id="m5a806fee18" d="M 0 7.286024 
C 1.932276 7.286024 3.785672 6.518323 5.151997 5.151997 
C 6.518323 3.785672 7.286024 1.932276 7.286024 0 
C 7.286024 -1.932276 6.518323 -3.785672 5.151997 -5.151997 
C 3.785672 -6.518323 1.932276 -7.286024 0 -7.286024 
C -1.932276 -7.286024 -3.785672 -6.518323 -5.151997 -5.151997 
C -6.518323 -3.785672 -7.286024 -1.932276 -7.286024 0 
C -7.286024 1.932276 -6.518323 3.785672 -5.151997 5.151997 
C -3.785672 6.518323 -1.932276 7.286024 0 7.286024 
z
" style="stroke: #000000"/>
    </defs>
    <g clip-path="url(#p847619defb)">
     <use xlink:href="#m5a806fee18" x="330.008286" y="236.205466" style="stroke: #000000"/>
    </g>
   </g>
   <g id="line2d_3">
    <defs>
     <path id="m9abfaee555" d="M 0 7.259665 
C 1.925286 7.259665 3.771976 6.49474 5.133358 5.133358 
C 6.49474 3.771976 7.259665 1.925286 7.259665 0 
C 7.259665 -1.925286 6.49474 -3.771976 5.133358 -5.133358 
C 3.771976 -6.49474 1.925286 -7.259665 0 -7.259665 
C -1.925286 -7.259665 -3.771976 -6.49474 -5.133358 -5.133358 
C -6.49474 -3.771976 -7.259665 -1.925286 -7.259665 0 
C -7.259665 1.925286 -6.49474 3.771976 -5.133358 5.133358 
C -3.771976 6.49474 -1.925286 7.259665 0 7.259665 
z
" style="stroke: #000000"/>
    </defs>
    <g clip-path="url(#p847619defb)">
     <use xlink:href="#m9abfaee555" x="232.357323" y="195.859618" style="stroke: #000000"/>
    </g>
   </g>
   <g id="line2d_4">
    <defs>
     <path id="m5e91b14374" d="M 0 7.231762 
C 1.917886 7.231762 3.757478 6.469778 5.113628 5.113628 
C 6.469778 3.757478 7.231762 1.917886 7.231762 0 
C 7.231762 -1.917886 6.469778 -3.757478 5.113628 -5.113628 
C 3.757478 -6.469778 1.917886 -7.231762 0 -7.231762 
C -1.917886 -7.231762 -3.757478 -6.469778 -5.113628 -5.113628 
C -6.469778 -3.757478 -7.231762 -1.917886 -7.231762 0 
C -7.231762 1.917886 -6.469778 3.757478 -5.113628 5.113628 
C -3.757478 6.469778 -1.917886 7.231762 0 7.231762 
z
" style="stroke: #000000"/>
    </defs>
    <g clip-path="url(#p847619defb)">
     <use xlink:href="#m5e91b14374" x="442.162683" y="184.615705" style="stroke: #000000"/>
    </g>
   </g>
   <g id="line2d_5">
    <defs>
     <path id="m3408642ac9" d="M 0 7.018173 
C 1.861241 7.018173 3.646501 6.278694 4.962597 4.962597 
C 6.278694 3.646501 7.018173 1.861241 7.018173 0 
C 7.018173 -1.861241 6.278694 -3.646501 4.962597 -4.962597 
C 3.646501 -6.278694 1.861241 -7.018173 0 -7.018173 
C -1.861241 -7.018173 -3.646501 -6.278694 -4.962597 -4.962597 
C -6.278694 -3.646501 -7.018173 -1.861241 -7.018173 0 
C -7.018173 1.861241 -6.278694 3.646501 -4.962597 4.962597 
C -3.646501 6.278694 -1.861241 7.018173 0 7.018173 
z
" style="stroke: #000000"/>
    </defs>
    <g clip-path="url(#p847619defb)">
     <use xlink:href="#m3408642ac9" x="359.921619" y="307.8" style="stroke: #000000"/>
    </g>
   </g>
   <g id="line2d_6">
    <defs>
     <path id="m1c57b87cc8" d="M 0 6.966891 
C 1.847641 6.966891 3.619857 6.232816 4.926336 4.926336 
C 6.232816 3.619857 6.966891 1.847641 6.966891 0 
C 6.966891 -1.847641 6.232816 -3.619857 4.926336 -4.926336 
C 3.619857 -6.232816 1.847641 -6.966891 0 -6.966891 
C -1.847641 -6.966891 -3.619857 -6.232816 -4.926336 -4.926336 
C -6.232816 -3.619857 -6.966891 -1.847641 -6.966891 0 
C -6.966891 1.847641 -6.232816 3.619857 -4.926336 4.926336 
C -3.619857 6.232816 -1.847641 6.966891 0 6.966891 
z
" style="stroke: #000000"/>
    </defs>
    <g clip-path="url(#p847619defb)">
     <use xlink:href="#m1c57b87cc8" x="532.973959" y="307.462495" style="stroke: #000000"/>
    </g>
   </g>
   <g id="line2d_7">
    <defs>
     <path id="mebb43672c6" d="M 0 6.931077 
C 1.838143 6.931077 3.601248 6.200775 4.901011 4.901011 
C 6.200775 3.601248 6.931077 1.838143 6.931077 0 
C 6.931077 -1.838143 6.200775 -3.601248 4.901011 -4.901011 
C 3.601248 -6.200775 1.838143 -6.931077 0 -6.931077 
C -1.838143 -6.931077 -3.601248 -6.200775 -4.901011 -4.901011 
C -6.200775 -3.601248 -6.931077 -1.838143 -6.931077 0 
C -6.931077 1.838143 -6.200775 3.601248 -4.901011 4.901011 
C -3.601248 6.200775 -1.838143 6.931077 0 6.931077 
z
" style="stroke: #000000"/>
    </defs>
    <g clip-path="url(#p847619defb)">
     <use xlink:href="#mebb43672c6" x="281.938192" y="180.867628" style="stroke: #000000"/>
    </g>
   </g>
   <g id="line2d_8">
    <defs>
     <path id="m05513e3f16" d="M 0 6.922794 
C 1.835946 6.922794 3.596944 6.193365 4.895155 4.895155 
C 6.193365 3.596944 6.922794 1.835946 6.922794 0 
C 6.922794 -1.835946 6.193365 -3.596944 4.895155 -4.895155 
C 3.596944 -6.193365 1.835946 -6.922794 0 -6.922794 
C -1.835946 -6.922794 -3.596944 -6.193365 -4.895155 -4.895155 
C -6.193365 -3.596944 -6.922794 -1.835946 -6.922794 0 
C -6.922794 1.835946 -6.193365 3.596944 -4.895155 4.895155 
C -3.596944 6.193365 -1.835946 6.922794 0 6.922794 
z
" style="stroke: #000000"/>
    </defs>
    <g clip-path="url(#p847619defb)">
     <use xlink:href="#m05513e3f16" x="371.211224" y="208.048426" style="stroke: #000000"/>
    </g>
   </g>
   <g id="line2d_9">
    <defs>
     <path id="m2738ac9f72" d="M 0 6.909541 
C 1.832432 6.909541 3.590058 6.181508 4.885783 4.885783 
C 6.181508 3.590058 6.909541 1.832432 6.909541 0 
C 6.909541 -1.832432 6.181508 -3.590058 4.885783 -4.885783 
C 3.590058 -6.181508 1.832432 -6.909541 0 -6.909541 
C -1.832432 -6.909541 -3.590058 -6.181508 -4.885783 -4.885783 
C -6.181508 -3.590058 -6.909541 -1.832432 -6.909541 0 
C -6.909541 1.832432 -6.181508 3.590058 -4.885783 4.885783 
C -3.590058 6.181508 -1.832432 6.909541 0 6.909541 
z
" style="stroke: #000000"/>
    </defs>
    <g clip-path="url(#p847619defb)">
     <use xlink:href="#m2738ac9f72" x="381.89652" y="150.84733" style="stroke: #000000"/>
    </g>
   </g>
   <g id="line2d_10">
    <defs>
     <path id="m7db83910f9" d="M 0 6.875824 
C 1.82349 6.875824 3.57254 6.151344 4.861942 4.861942 
C 6.151344 3.57254 6.875824 1.82349 6.875824 0 
C 6.875824 -1.82349 6.151344 -3.57254 4.861942 -4.861942 
C 3.57254 -6.151344 1.82349 -6.875824 0 -6.875824 
C -1.82349 -6.875824 -3.57254 -6.151344 -4.861942 -4.861942 
C -6.151344 -3.57254 -6.875824 -1.82349 -6.875824 0 
C -6.875824 1.82349 -6.151344 3.57254 -4.861942 4.861942 
C -3.57254 6.151344 -1.82349 6.875824 0 6.875824 
z
" style="stroke: #000000"/>
    </defs>
    <g clip-path="url(#p847619defb)">
     <use xlink:href="#m7db83910f9" x="408.733366" y="164.726653" style="stroke: #000000"/>
    </g>
   </g>
  </g>
 </g>
 <defs>
  <clipPath id="p847619defb">
   <path d="M 188.628645 320.4 
L 188.628645 43.2 
L 549.371355 43.2 
L 549.371355 320.4 
L 188.628645 320.4 
"/>
  </clipPath>
 </defs>
</svg>
