<?xml version="1.0" encoding="utf-8" standalone="no"?>
<!DOCTYPE svg PUBLIC "-//W3C//DTD SVG 1.1//EN"
  "http://www.w3.org/Graphics/SVG/1.1/DTD/svg11.dtd">
<svg xmlns:xlink="http://www.w3.org/1999/xlink" width="720pt" height="360pt" viewBox="0 0 720 360" xmlns="http://www.w3.org/2000/svg" version="1.1">
 <metadata>
  <rdf:RDF xmlns:dc="http://purl.org/dc/elements/1.1/" xmlns:cc="http://creativecommons.org/ns#" xmlns:rdf="http://www.w3.org/1999/02/22-rdf-syntax-ns#">
   <cc:Work>
    <dc:type rdf:resource="http://purl.org/dc/dcmitype/StillImage"/>
    <dc:date>2023-11-30T21:30:50.612448</dc:date>
    <dc:format>image/svg+xml</dc:format>
    <dc:creator>
     <cc:Agent>
      <dc:title>Matplotlib v3.8.1, https://matplotlib.org/</dc:title>
     </cc:Agent>
    </dc:creator>
   </cc:Work>
  </rdf:RDF>
 </metadata>
 <defs>
  <style type="text/css">*{stroke-linejoin: round; stroke-linecap: butt}</style>
 </defs>
 <g id="figure_1">
  <g id="patch_1">
   <path d="M 0 360 
L 720 360 
L 720 0 
L 0 0 
z
" style="fill: #ffffff"/>
  </g>
  <g id="axes_1">
   <g id="patch_2">
    <path d="M 268.603001 320.4 
L 268.603001 43.2 
L 469.396999 43.2 
L 469.396999 320.4 
L 268.603001 320.4 
" style="fill: #ffffff"/>
   </g>
   <g id="line2d_1">
    <defs>
     <path id="m8b4d6e5419" d="M 0 8.62201 
C 2.286584 8.62201 4.479823 7.713541 6.096682 6.096682 
C 7.713541 4.479823 8.62201 2.286584 8.62201 0 
C 8.62201 -2.286584 7.713541 -4.479823 6.096682 -6.096682 
C 4.479823 -7.713541 2.286584 -8.62201 0 -8.62201 
C -2.286584 -8.62201 -4.479823 -7.713541 -6.096682 -6.096682 
C -7.713541 -4.479823 -8.62201 -2.286584 -8.62201 0 
C -8.62201 2.286584 -7.713541 4.479823 -6.096682 6.096682 
C -4.479823 7.713541 -2.286584 8.62201 0 8.62201 
z
" style="stroke: #000000"/>
    </defs>
    <g clip-path="url(#p6e751090c7)">
     <use xlink:href="#m8b4d6e5419" x="298.836611" y="139.946272" style="stroke: #000000"/>
    </g>
   </g>
   <g id="line2d_2">
    <defs>
     <path id="m80a97a685d" d="M 0 8.407454 
C 2.229683 8.407454 4.368344 7.521592 5.944968 5.944968 
C 7.521592 4.368344 8.407454 2.229683 8.407454 0 
C 8.407454 -2.229683 7.521592 -4.368344 5.944968 -5.944968 
C 4.368344 -7.521592 2.229683 -8.407454 0 -8.407454 
C -2.229683 -8.407454 -4.368344 -7.521592 -5.944968 -5.944968 
C -7.521592 -4.368344 -8.407454 -2.229683 -8.407454 0 
C -8.407454 2.229683 -7.521592 4.368344 -5.944968 5.944968 
C -4.368344 7.521592 -2.229683 8.407454 0 8.407454 
z
" style="stroke: #000000"/>
    </defs>
    <g clip-path="url(#p6e751090c7)">
     <use xlink:href="#m80a97a685d" x="285.60637" y="232.746715" style="stroke: #000000"/>
    </g>
   </g>
   <g id="line2d_3">
    <defs>
     <path id="m0a3dc9fdbc" d="M 0 8.38241 
C 2.223041 8.38241 4.355331 7.499186 5.927259 5.927259 
C 7.499186 4.355331 8.38241 2.223041 8.38241 0 
C 8.38241 -2.223041 7.499186 -4.355331 5.927259 -5.927259 
C 4.355331 -7.499186 2.223041 -8.38241 0 -8.38241 
C -2.223041 -8.38241 -4.355331 -7.499186 -5.927259 -5.927259 
C -7.499186 -4.355331 -8.38241 -2.223041 -8.38241 0 
C -8.38241 2.223041 -7.499186 4.355331 -5.927259 5.927259 
C -4.355331 7.499186 -2.223041 8.38241 0 8.38241 
z
" style="stroke: #000000"/>
    </defs>
    <g clip-path="url(#p6e751090c7)">
     <use xlink:href="#m0a3dc9fdbc" x="277.730001" y="188.551943" style="stroke: #000000"/>
    </g>
   </g>
   <g id="line2d_4">
    <defs>
     <path id="m791a088175" d="M 0 8.131295 
C 2.156445 8.131295 4.224857 7.274531 5.749694 5.749694 
C 7.274531 4.224857 8.131295 2.156445 8.131295 0 
C 8.131295 -2.156445 7.274531 -4.224857 5.749694 -5.749694 
C 4.224857 -7.274531 2.156445 -8.131295 0 -8.131295 
C -2.156445 -8.131295 -4.224857 -7.274531 -5.749694 -5.749694 
C -7.274531 -4.224857 -8.131295 -2.156445 -8.131295 0 
C -8.131295 2.156445 -7.274531 4.224857 -5.749694 5.749694 
C -4.224857 7.274531 -2.156445 8.131295 0 8.131295 
z
" style="stroke: #000000"/>
    </defs>
    <g clip-path="url(#p6e751090c7)">
     <use xlink:href="#m791a088175" x="316.243129" y="245.174534" style="stroke: #000000"/>
    </g>
   </g>
   <g id="line2d_5">
    <defs>
     <path id="m39f2205732" d="M 0 8.119174 
C 2.15323 8.119174 4.21856 7.263687 5.741123 5.741123 
C 7.263687 4.21856 8.119174 2.15323 8.119174 0 
C 8.119174 -2.15323 7.263687 -4.21856 5.741123 -5.741123 
C 4.21856 -7.263687 2.15323 -8.119174 0 -8.119174 
C -2.15323 -8.119174 -4.21856 -7.263687 -5.741123 -5.741123 
C -7.263687 -4.21856 -8.119174 -2.15323 -8.119174 0 
C -8.119174 2.15323 -7.263687 4.21856 -5.741123 5.741123 
C -4.21856 7.263687 -2.15323 8.119174 0 8.119174 
z
" style="stroke: #000000"/>
    </defs>
    <g clip-path="url(#p6e751090c7)">
     <use xlink:href="#m39f2205732" x="286.101861" y="209.388873" style="stroke: #000000"/>
    </g>
   </g>
   <g id="line2d_6">
    <defs>
     <path id="mb494a9301d" d="M 0 7.253092 
C 1.923542 7.253092 3.76856 6.48886 5.12871 5.12871 
C 6.48886 3.76856 7.253092 1.923542 7.253092 0 
C 7.253092 -1.923542 6.48886 -3.76856 5.12871 -5.12871 
C 3.76856 -6.48886 1.923542 -7.253092 0 -7.253092 
C -1.923542 -7.253092 -3.76856 -6.48886 -5.12871 -5.12871 
C -6.48886 -3.76856 -7.253092 -1.923542 -7.253092 0 
C -7.253092 1.923542 -6.48886 3.76856 -5.12871 5.12871 
C -3.76856 6.48886 -1.923542 7.253092 0 7.253092 
z
" style="stroke: #000000"/>
    </defs>
    <g clip-path="url(#p6e751090c7)">
     <use xlink:href="#mb494a9301d" x="331.886472" y="68.867457" style="stroke: #000000"/>
    </g>
   </g>
   <g id="line2d_7">
    <defs>
     <path id="m32d7b88ed3" d="M 0 7.175987 
C 1.903094 7.175987 3.728499 6.41988 5.074189 5.074189 
C 6.41988 3.728499 7.175987 1.903094 7.175987 0 
C 7.175987 -1.903094 6.41988 -3.728499 5.074189 -5.074189 
C 3.728499 -6.41988 1.903094 -7.175987 0 -7.175987 
C -1.903094 -7.175987 -3.728499 -6.41988 -5.074189 -5.074189 
C -6.41988 -3.728499 -7.175987 -1.903094 -7.175987 0 
C -7.175987 1.903094 -6.41988 3.728499 -5.074189 5.074189 
C -3.728499 6.41988 -1.903094 7.175987 0 7.175987 
z
" style="stroke: #000000"/>
    </defs>
    <g clip-path="url(#p6e751090c7)">
     <use xlink:href="#m32d7b88ed3" x="396.42894" y="55.8" style="stroke: #000000"/>
    </g>
   </g>
   <g id="line2d_8">
    <defs>
     <path id="md35ca80874" d="M 0 7.056179 
C 1.871321 7.056179 3.666249 6.312695 4.989472 4.989472 
C 6.312695 3.666249 7.056179 1.871321 7.056179 0 
C 7.056179 -1.871321 6.312695 -3.666249 4.989472 -4.989472 
C 3.666249 -6.312695 1.871321 -7.056179 0 -7.056179 
C -1.871321 -7.056179 -3.666249 -6.312695 -4.989472 -4.989472 
C -6.312695 -3.666249 -7.056179 -1.871321 -7.056179 0 
C -7.056179 1.871321 -6.312695 3.666249 -4.989472 4.989472 
C -3.666249 6.312695 -1.871321 7.056179 0 7.056179 
z
" style="stroke: #000000"/>
    </defs>
    <g clip-path="url(#p6e751090c7)">
     <use xlink:href="#md35ca80874" x="437.541784" y="158.878745" style="stroke: #000000"/>
    </g>
   </g>
   <g id="line2d_9">
    <defs>
     <path id="me8ce340769" d="M 0 7.054589 
C 1.870899 7.054589 3.665422 6.311273 4.988348 4.988348 
C 6.311273 3.665422 7.054589 1.870899 7.054589 0 
C 7.054589 -1.870899 6.311273 -3.665422 4.988348 -4.988348 
C 3.665422 -6.311273 1.870899 -7.054589 0 -7.054589 
C -1.870899 -7.054589 -3.665422 -6.311273 -4.988348 -4.988348 
C -6.311273 -3.665422 -7.054589 -1.870899 -7.054589 0 
C -7.054589 1.870899 -6.311273 3.665422 -4.988348 4.988348 
C -3.665422 6.311273 -1.870899 7.054589 0 7.054589 
z
" style="stroke: #000000"/>
    </defs>
    <g clip-path="url(#p6e751090c7)">
     <use xlink:href="#me8ce340769" x="460.269999" y="205.27025" style="stroke: #000000"/>
    </g>
   </g>
   <g id="line2d_10">
    <defs>
     <path id="md6a2c933f8" d="M 0 7.028446 
C 1.863966 7.028446 3.651839 6.287884 4.969862 4.969862 
C 6.287884 3.651839 7.028446 1.863966 7.028446 0 
C 7.028446 -1.863966 6.287884 -3.651839 4.969862 -4.969862 
C 3.651839 -6.287884 1.863966 -7.028446 0 -7.028446 
C -1.863966 -7.028446 -3.651839 -6.287884 -4.969862 -4.969862 
C -6.287884 -3.651839 -7.028446 -1.863966 -7.028446 0 
C -7.028446 1.863966 -6.287884 3.651839 -4.969862 4.969862 
C -3.651839 6.287884 -1.863966 7.028446 0 7.028446 
z
" style="stroke: #000000"/>
    </defs>
    <g clip-path="url(#p6e751090c7)">
     <use xlink:href="#md6a2c933f8" x="428.249728" y="307.8" style="stroke: #000000"/>
    </g>
   </g>
  </g>
 </g>
 <defs>
  <clipPath id="p6e751090c7">
   <path d="M 268.603001 320.4 
L 268.603001 43.2 
L 469.396999 43.2 
L 469.396999 320.4 
L 268.603001 320.4 
"/>
  </clipPath>
 </defs>
</svg>
