<?xml version="1.0" encoding="utf-8" standalone="no"?>
<!DOCTYPE svg PUBLIC "-//W3C//DTD SVG 1.1//EN"
  "http://www.w3.org/Graphics/SVG/1.1/DTD/svg11.dtd">
<svg xmlns:xlink="http://www.w3.org/1999/xlink" width="720pt" height="360pt" viewBox="0 0 720 360" xmlns="http://www.w3.org/2000/svg" version="1.1">
 <metadata>
  <rdf:RDF xmlns:dc="http://purl.org/dc/elements/1.1/" xmlns:cc="http://creativecommons.org/ns#" xmlns:rdf="http://www.w3.org/1999/02/22-rdf-syntax-ns#">
   <cc:Work>
    <dc:type rdf:resource="http://purl.org/dc/dcmitype/StillImage"/>
    <dc:date>2023-11-30T21:30:53.418440</dc:date>
    <dc:format>image/svg+xml</dc:format>
    <dc:creator>
     <cc:Agent>
      <dc:title>Matplotlib v3.8.1, https://matplotlib.org/</dc:title>
     </cc:Agent>
    </dc:creator>
   </cc:Work>
  </rdf:RDF>
 </metadata>
 <defs>
  <style type="text/css">*{stroke-linejoin: round; stroke-linecap: butt}</style>
 </defs>
 <g id="figure_1">
  <g id="patch_1">
   <path d="M 0 360 
L 720 360 
L 720 0 
L 0 0 
z
" style="fill: #ffffff"/>
  </g>
  <g id="axes_1">
   <g id="patch_2">
    <path d="M 358.952078 320.4 
L 358.952078 43.2 
L 379.047922 43.2 
L 379.047922 320.4 
L 358.952078 320.4 
" style="fill: #ffffff"/>
   </g>
   <g id="line2d_1">
    <defs>
     <path id="m153e6069f0" d="M 0 8.330986 
C 2.209403 8.330986 4.328613 7.453181 5.890897 5.890897 
C 7.453181 4.328613 8.330986 2.209403 8.330986 0 
C 8.330986 -2.209403 7.453181 -4.328613 5.890897 -5.890897 
C 4.328613 -7.453181 2.209403 -8.330986 0 -8.330986 
C -2.209403 -8.330986 -4.328613 -7.453181 -5.890897 -5.890897 
C -7.453181 -4.328613 -8.330986 -2.209403 -8.330986 0 
C -8.330986 2.209403 -7.453181 4.328613 -5.890897 5.890897 
C -4.328613 7.453181 -2.209403 8.330986 0 8.330986 
z
" style="stroke: #000000"/>
    </defs>
    <g clip-path="url(#p70cd83e4cd)">
     <use xlink:href="#m153e6069f0" x="377.089163" y="147.319043" style="stroke: #000000"/>
    </g>
   </g>
   <g id="line2d_2">
    <defs>
     <path id="med80bf86d1" d="M 0 6.721796 
C 1.782641 6.721796 3.49251 6.013545 4.753027 4.753027 
C 6.013545 3.49251 6.721796 1.782641 6.721796 0 
C 6.721796 -1.782641 6.013545 -3.49251 4.753027 -4.753027 
C 3.49251 -6.013545 1.782641 -6.721796 0 -6.721796 
C -1.782641 -6.721796 -3.49251 -6.013545 -4.753027 -4.753027 
C -6.013545 -3.49251 -6.721796 -1.782641 -6.721796 0 
C -6.721796 1.782641 -6.013545 3.49251 -4.753027 4.753027 
C -3.49251 6.013545 -1.782641 6.721796 0 6.721796 
z
" style="stroke: #000000"/>
    </defs>
    <g clip-path="url(#p70cd83e4cd)">
     <use xlink:href="#med80bf86d1" x="374.211175" y="297.684509" style="stroke: #000000"/>
    </g>
   </g>
   <g id="line2d_3">
    <defs>
     <path id="m00080f5cb9" d="M 0 6.638644 
C 1.760589 6.638644 3.449306 5.939154 4.69423 4.69423 
C 5.939154 3.449306 6.638644 1.760589 6.638644 0 
C 6.638644 -1.760589 5.939154 -3.449306 4.69423 -4.69423 
C 3.449306 -5.939154 1.760589 -6.638644 0 -6.638644 
C -1.760589 -6.638644 -3.449306 -5.939154 -4.69423 -4.69423 
C -5.939154 -3.449306 -6.638644 -1.760589 -6.638644 0 
C -6.638644 1.760589 -5.939154 3.449306 -4.69423 4.69423 
C -3.449306 5.939154 -1.760589 6.638644 0 6.638644 
z
" style="stroke: #000000"/>
    </defs>
    <g clip-path="url(#p70cd83e4cd)">
     <use xlink:href="#m00080f5cb9" x="362.693141" y="307.8" style="stroke: #000000"/>
    </g>
   </g>
   <g id="line2d_4">
    <defs>
     <path id="mf559094ca6" d="M 0 6.606932 
C 1.752179 6.606932 3.432829 5.910784 4.671806 4.671806 
C 5.910784 3.432829 6.606932 1.752179 6.606932 0 
C 6.606932 -1.752179 5.910784 -3.432829 4.671806 -4.671806 
C 3.432829 -5.910784 1.752179 -6.606932 0 -6.606932 
C -1.752179 -6.606932 -3.432829 -5.910784 -4.671806 -4.671806 
C -5.910784 -3.432829 -6.606932 -1.752179 -6.606932 0 
C -6.606932 1.752179 -5.910784 3.432829 -4.671806 4.671806 
C -3.432829 5.910784 -1.752179 6.606932 0 6.606932 
z
" style="stroke: #000000"/>
    </defs>
    <g clip-path="url(#p70cd83e4cd)">
     <use xlink:href="#mf559094ca6" x="362.241818" y="64.774426" style="stroke: #000000"/>
    </g>
   </g>
   <g id="line2d_5">
    <defs>
     <path id="m1d4df23505" d="M 0 6.319331 
C 1.675906 6.319331 3.283397 5.653486 4.468442 4.468442 
C 5.653486 3.283397 6.319331 1.675906 6.319331 0 
C 6.319331 -1.675906 5.653486 -3.283397 4.468442 -4.468442 
C 3.283397 -5.653486 1.675906 -6.319331 0 -6.319331 
C -1.675906 -6.319331 -3.283397 -5.653486 -4.468442 -4.468442 
C -5.653486 -3.283397 -6.319331 -1.675906 -6.319331 0 
C -6.319331 1.675906 -5.653486 3.283397 -4.468442 4.468442 
C -3.283397 5.653486 -1.675906 6.319331 0 6.319331 
z
" style="stroke: #000000"/>
    </defs>
    <g clip-path="url(#p70cd83e4cd)">
     <use xlink:href="#m1d4df23505" x="359.865526" y="269.833083" style="stroke: #000000"/>
    </g>
   </g>
   <g id="line2d_6">
    <defs>
     <path id="m1450381b58" d="M 0 6.150319 
C 1.631084 6.150319 3.195582 5.502283 4.348932 4.348932 
C 5.502283 3.195582 6.150319 1.631084 6.150319 0 
C 6.150319 -1.631084 5.502283 -3.195582 4.348932 -4.348932 
C 3.195582 -5.502283 1.631084 -6.150319 0 -6.150319 
C -1.631084 -6.150319 -3.195582 -5.502283 -4.348932 -4.348932 
C -5.502283 -3.195582 -6.150319 -1.631084 -6.150319 0 
C -6.150319 1.631084 -5.502283 3.195582 -4.348932 4.348932 
C -3.195582 5.502283 -1.631084 6.150319 0 6.150319 
z
" style="stroke: #000000"/>
    </defs>
    <g clip-path="url(#p70cd83e4cd)">
     <use xlink:href="#m1450381b58" x="372.239553" y="104.545961" style="stroke: #000000"/>
    </g>
   </g>
   <g id="line2d_7">
    <defs>
     <path id="m738409f6f9" d="M 0 6.144 
C 1.629408 6.144 3.192299 5.49663 4.344464 4.344464 
C 5.49663 3.192299 6.144 1.629408 6.144 0 
C 6.144 -1.629408 5.49663 -3.192299 4.344464 -4.344464 
C 3.192299 -5.49663 1.629408 -6.144 0 -6.144 
C -1.629408 -6.144 -3.192299 -5.49663 -4.344464 -4.344464 
C -5.49663 -3.192299 -6.144 -1.629408 -6.144 0 
C -6.144 1.629408 -5.49663 3.192299 -4.344464 4.344464 
C -3.192299 5.49663 -1.629408 6.144 0 6.144 
z
" style="stroke: #000000"/>
    </defs>
    <g clip-path="url(#p70cd83e4cd)">
     <use xlink:href="#m738409f6f9" x="378.134474" y="146.090688" style="stroke: #000000"/>
    </g>
   </g>
   <g id="line2d_8">
    <defs>
     <path id="mcffe331930" d="M 0 5.784928 
C 1.534181 5.784928 3.005732 5.175391 4.090562 4.090562 
C 5.175391 3.005732 5.784928 1.534181 5.784928 0 
C 5.784928 -1.534181 5.175391 -3.005732 4.090562 -4.090562 
C 3.005732 -5.175391 1.534181 -5.784928 0 -5.784928 
C -1.534181 -5.784928 -3.005732 -5.175391 -4.090562 -4.090562 
C -5.175391 -3.005732 -5.784928 -1.534181 -5.784928 0 
C -5.784928 1.534181 -5.175391 3.005732 -4.090562 4.090562 
C -3.005732 5.175391 -1.534181 5.784928 0 5.784928 
z
" style="stroke: #000000"/>
    </defs>
    <g clip-path="url(#p70cd83e4cd)">
     <use xlink:href="#mcffe331930" x="363.730677" y="55.8" style="stroke: #000000"/>
    </g>
   </g>
   <g id="line2d_9">
    <defs>
     <path id="m5f020b9c81" d="M 0 5.775614 
C 1.531711 5.775614 3.000893 5.167059 4.083976 4.083976 
C 5.167059 3.000893 5.775614 1.531711 5.775614 0 
C 5.775614 -1.531711 5.167059 -3.000893 4.083976 -4.083976 
C 3.000893 -5.167059 1.531711 -5.775614 0 -5.775614 
C -1.531711 -5.775614 -3.000893 -5.167059 -4.083976 -4.083976 
C -5.167059 -3.000893 -5.775614 -1.531711 -5.775614 0 
C -5.775614 1.531711 -5.167059 3.000893 -4.083976 4.083976 
C -3.000893 5.167059 -1.531711 5.775614 0 5.775614 
z
" style="stroke: #000000"/>
    </defs>
    <g clip-path="url(#p70cd83e4cd)">
     <use xlink:href="#m5f020b9c81" x="376.465086" y="155.15991" style="stroke: #000000"/>
    </g>
   </g>
   <g id="line2d_10">
    <defs>
     <path id="m0354d40f8d" d="M 0 5.757357 
C 1.526869 5.757357 2.991407 5.150726 4.071066 4.071066 
C 5.150726 2.991407 5.757357 1.526869 5.757357 0 
C 5.757357 -1.526869 5.150726 -2.991407 4.071066 -4.071066 
C 2.991407 -5.150726 1.526869 -5.757357 0 -5.757357 
C -1.526869 -5.757357 -2.991407 -5.150726 -4.071066 -4.071066 
C -5.150726 -2.991407 -5.757357 -1.526869 -5.757357 0 
C -5.757357 1.526869 -5.150726 2.991407 -4.071066 4.071066 
C -2.991407 5.150726 -1.526869 5.757357 0 5.757357 
z
" style="stroke: #000000"/>
    </defs>
    <g clip-path="url(#p70cd83e4cd)">
     <use xlink:href="#m0354d40f8d" x="374.513072" y="262.160749" style="stroke: #000000"/>
    </g>
   </g>
  </g>
 </g>
 <defs>
  <clipPath id="p70cd83e4cd">
   <path d="M 358.952078 320.4 
L 358.952078 43.2 
L 379.047922 43.2 
L 379.047922 320.4 
L 358.952078 320.4 
"/>
  </clipPath>
 </defs>
</svg>
