<?xml version="1.0" encoding="utf-8" standalone="no"?>
<!DOCTYPE svg PUBLIC "-//W3C//DTD SVG 1.1//EN"
  "http://www.w3.org/Graphics/SVG/1.1/DTD/svg11.dtd">
<svg xmlns:xlink="http://www.w3.org/1999/xlink" width="720pt" height="360pt" viewBox="0 0 720 360" xmlns="http://www.w3.org/2000/svg" version="1.1">
 <metadata>
  <rdf:RDF xmlns:dc="http://purl.org/dc/elements/1.1/" xmlns:cc="http://creativecommons.org/ns#" xmlns:rdf="http://www.w3.org/1999/02/22-rdf-syntax-ns#">
   <cc:Work>
    <dc:type rdf:resource="http://purl.org/dc/dcmitype/StillImage"/>
    <dc:date>2023-11-30T21:30:52.911166</dc:date>
    <dc:format>image/svg+xml</dc:format>
    <dc:creator>
     <cc:Agent>
      <dc:title>Matplotlib v3.8.1, https://matplotlib.org/</dc:title>
     </cc:Agent>
    </dc:creator>
   </cc:Work>
  </rdf:RDF>
 </metadata>
 <defs>
  <style type="text/css">*{stroke-linejoin: round; stroke-linecap: butt}</style>
 </defs>
 <g id="figure_1">
  <g id="patch_1">
   <path d="M 0 360 
L 720 360 
L 720 0 
L 0 0 
z
" style="fill: #ffffff"/>
  </g>
  <g id="axes_1">
   <g id="patch_2">
    <path d="M 326.365373 320.4 
L 326.365373 43.2 
L 411.634627 43.2 
L 411.634627 320.4 
L 326.365373 320.4 
" style="fill: #ffffff"/>
   </g>
   <g id="line2d_1">
    <defs>
     <path id="me341186c0a" d="M 0 9.651425 
C 2.559588 9.651425 5.014686 8.63449 6.824588 6.824588 
C 8.63449 5.014686 9.651425 2.559588 9.651425 0 
C 9.651425 -2.559588 8.63449 -5.014686 6.824588 -6.824588 
C 5.014686 -8.63449 2.559588 -9.651425 0 -9.651425 
C -2.559588 -9.651425 -5.014686 -8.63449 -6.824588 -6.824588 
C -8.63449 -5.014686 -9.651425 -2.559588 -9.651425 0 
C -9.651425 2.559588 -8.63449 5.014686 -6.824588 6.824588 
C -5.014686 8.63449 -2.559588 9.651425 0 9.651425 
z
" style="stroke: #000000"/>
    </defs>
    <g clip-path="url(#p3a89c43e60)">
     <use xlink:href="#me341186c0a" x="343.076718" y="228.847833" style="stroke: #000000"/>
    </g>
   </g>
   <g id="line2d_2">
    <defs>
     <path id="m94f91cbfb9" d="M 0 9.578888 
C 2.540351 9.578888 4.976997 8.569596 6.773297 6.773297 
C 8.569596 4.976997 9.578888 2.540351 9.578888 0 
C 9.578888 -2.540351 8.569596 -4.976997 6.773297 -6.773297 
C 4.976997 -8.569596 2.540351 -9.578888 0 -9.578888 
C -2.540351 -9.578888 -4.976997 -8.569596 -6.773297 -6.773297 
C -8.569596 -4.976997 -9.578888 -2.540351 -9.578888 0 
C -9.578888 2.540351 -8.569596 4.976997 -6.773297 6.773297 
C -4.976997 8.569596 -2.540351 9.578888 0 9.578888 
z
" style="stroke: #000000"/>
    </defs>
    <g clip-path="url(#p3a89c43e60)">
     <use xlink:href="#m94f91cbfb9" x="394.655525" y="307.8" style="stroke: #000000"/>
    </g>
   </g>
   <g id="line2d_3">
    <defs>
     <path id="m43f4fde1d9" d="M 0 8.709922 
C 2.309898 8.709922 4.5255 7.79219 6.158845 6.158845 
C 7.79219 4.5255 8.709922 2.309898 8.709922 0 
C 8.709922 -2.309898 7.79219 -4.5255 6.158845 -6.158845 
C 4.5255 -7.79219 2.309898 -8.709922 0 -8.709922 
C -2.309898 -8.709922 -4.5255 -7.79219 -6.158845 -6.158845 
C -7.79219 -4.5255 -8.709922 -2.309898 -8.709922 0 
C -8.709922 2.309898 -7.79219 4.5255 -6.158845 6.158845 
C -4.5255 7.79219 -2.309898 8.709922 0 8.709922 
z
" style="stroke: #000000"/>
    </defs>
    <g clip-path="url(#p3a89c43e60)">
     <use xlink:href="#m43f4fde1d9" x="352.936447" y="121.23203" style="stroke: #000000"/>
    </g>
   </g>
   <g id="line2d_4">
    <defs>
     <path id="mdfed38c800" d="M 0 8.15222 
C 2.161994 8.15222 4.23573 7.293251 5.76449 5.76449 
C 7.293251 4.23573 8.15222 2.161994 8.15222 0 
C 8.15222 -2.161994 7.293251 -4.23573 5.76449 -5.76449 
C 4.23573 -7.293251 2.161994 -8.15222 0 -8.15222 
C -2.161994 -8.15222 -4.23573 -7.293251 -5.76449 -5.76449 
C -7.293251 -4.23573 -8.15222 -2.161994 -8.15222 0 
C -8.15222 2.161994 -7.293251 4.23573 -5.76449 5.76449 
C -4.23573 7.293251 -2.161994 8.15222 0 8.15222 
z
" style="stroke: #000000"/>
    </defs>
    <g clip-path="url(#p3a89c43e60)">
     <use xlink:href="#mdfed38c800" x="407.758752" y="290.413124" style="stroke: #000000"/>
    </g>
   </g>
   <g id="line2d_5">
    <defs>
     <path id="mfce5aabdbe" d="M 0 7.688537 
C 2.039024 7.688537 3.994809 6.878425 5.436617 5.436617 
C 6.878425 3.994809 7.688537 2.039024 7.688537 0 
C 7.688537 -2.039024 6.878425 -3.994809 5.436617 -5.436617 
C 3.994809 -6.878425 2.039024 -7.688537 0 -7.688537 
C -2.039024 -7.688537 -3.994809 -6.878425 -5.436617 -5.436617 
C -6.878425 -3.994809 -7.688537 -2.039024 -7.688537 0 
C -7.688537 2.039024 -6.878425 3.994809 -5.436617 5.436617 
C -3.994809 6.878425 -2.039024 7.688537 0 7.688537 
z
" style="stroke: #000000"/>
    </defs>
    <g clip-path="url(#p3a89c43e60)">
     <use xlink:href="#mfce5aabdbe" x="330.241248" y="188.555336" style="stroke: #000000"/>
    </g>
   </g>
   <g id="line2d_6">
    <defs>
     <path id="m85f962c3a6" d="M 0 7.648118 
C 2.028304 7.648118 3.973808 6.842264 5.408036 5.408036 
C 6.842264 3.973808 7.648118 2.028304 7.648118 0 
C 7.648118 -2.028304 6.842264 -3.973808 5.408036 -5.408036 
C 3.973808 -6.842264 2.028304 -7.648118 0 -7.648118 
C -2.028304 -7.648118 -3.973808 -6.842264 -5.408036 -5.408036 
C -6.842264 -3.973808 -7.648118 -2.028304 -7.648118 0 
C -7.648118 2.028304 -6.842264 3.973808 -5.408036 5.408036 
C -3.973808 6.842264 -2.028304 7.648118 0 7.648118 
z
" style="stroke: #000000"/>
    </defs>
    <g clip-path="url(#p3a89c43e60)">
     <use xlink:href="#m85f962c3a6" x="405.464652" y="250.981268" style="stroke: #000000"/>
    </g>
   </g>
   <g id="line2d_7">
    <defs>
     <path id="m41911a6517" d="M 0 7.531023 
C 1.997251 7.531023 3.912968 6.737507 5.325237 5.325237 
C 6.737507 3.912968 7.531023 1.997251 7.531023 0 
C 7.531023 -1.997251 6.737507 -3.912968 5.325237 -5.325237 
C 3.912968 -6.737507 1.997251 -7.531023 0 -7.531023 
C -1.997251 -7.531023 -3.912968 -6.737507 -5.325237 -5.325237 
C -6.737507 -3.912968 -7.531023 -1.997251 -7.531023 0 
C -7.531023 1.997251 -6.737507 3.912968 -5.325237 5.325237 
C -3.912968 6.737507 -1.997251 7.531023 0 7.531023 
z
" style="stroke: #000000"/>
    </defs>
    <g clip-path="url(#p3a89c43e60)">
     <use xlink:href="#m41911a6517" x="349.246122" y="55.8" style="stroke: #000000"/>
    </g>
   </g>
   <g id="line2d_8">
    <defs>
     <path id="m1ba6418b10" d="M 0 7.437611 
C 1.972477 7.437611 3.864433 6.653937 5.259185 5.259185 
C 6.653937 3.864433 7.437611 1.972477 7.437611 0 
C 7.437611 -1.972477 6.653937 -3.864433 5.259185 -5.259185 
C 3.864433 -6.653937 1.972477 -7.437611 0 -7.437611 
C -1.972477 -7.437611 -3.864433 -6.653937 -5.259185 -5.259185 
C -6.653937 -3.864433 -7.437611 -1.972477 -7.437611 0 
C -7.437611 1.972477 -6.653937 3.864433 -5.259185 5.259185 
C -3.864433 6.653937 -1.972477 7.437611 0 7.437611 
z
" style="stroke: #000000"/>
    </defs>
    <g clip-path="url(#p3a89c43e60)">
     <use xlink:href="#m1ba6418b10" x="371.434102" y="220.785023" style="stroke: #000000"/>
    </g>
   </g>
   <g id="line2d_9">
    <defs>
     <path id="m9087009368" d="M 0 7.300943 
C 1.936233 7.300943 3.793423 6.53167 5.162547 5.162547 
C 6.53167 3.793423 7.300943 1.936233 7.300943 0 
C 7.300943 -1.936233 6.53167 -3.793423 5.162547 -5.162547 
C 3.793423 -6.53167 1.936233 -7.300943 0 -7.300943 
C -1.936233 -7.300943 -3.793423 -6.53167 -5.162547 -5.162547 
C -6.53167 -3.793423 -7.300943 -1.936233 -7.300943 0 
C -7.300943 1.936233 -6.53167 3.793423 -5.162547 5.162547 
C -3.793423 6.53167 -1.936233 7.300943 0 7.300943 
z
" style="stroke: #000000"/>
    </defs>
    <g clip-path="url(#p3a89c43e60)">
     <use xlink:href="#m9087009368" x="364.568697" y="183.995189" style="stroke: #000000"/>
    </g>
   </g>
   <g id="line2d_10">
    <defs>
     <path id="m98cd068770" d="M 0 7.227856 
C 1.91685 7.227856 3.755449 6.466284 5.110866 5.110866 
C 6.466284 3.755449 7.227856 1.91685 7.227856 0 
C 7.227856 -1.91685 6.466284 -3.755449 5.110866 -5.110866 
C 3.755449 -6.466284 1.91685 -7.227856 0 -7.227856 
C -1.91685 -7.227856 -3.755449 -6.466284 -5.110866 -5.110866 
C -6.466284 -3.755449 -7.227856 -1.91685 -7.227856 0 
C -7.227856 1.91685 -6.466284 3.755449 -5.110866 5.110866 
C -3.755449 6.466284 -1.91685 7.227856 0 7.227856 
z
" style="stroke: #000000"/>
    </defs>
    <g clip-path="url(#p3a89c43e60)">
     <use xlink:href="#m98cd068770" x="403.815452" y="276.524199" style="stroke: #000000"/>
    </g>
   </g>
  </g>
 </g>
 <defs>
  <clipPath id="p3a89c43e60">
   <path d="M 326.365373 320.4 
L 326.365373 43.2 
L 411.634627 43.2 
L 411.634627 320.4 
L 326.365373 320.4 
"/>
  </clipPath>
 </defs>
</svg>
