<?xml version="1.0" encoding="utf-8" standalone="no"?>
<!DOCTYPE svg PUBLIC "-//W3C//DTD SVG 1.1//EN"
  "http://www.w3.org/Graphics/SVG/1.1/DTD/svg11.dtd">
<svg xmlns:xlink="http://www.w3.org/1999/xlink" width="720pt" height="360pt" viewBox="0 0 720 360" xmlns="http://www.w3.org/2000/svg" version="1.1">
 <metadata>
  <rdf:RDF xmlns:dc="http://purl.org/dc/elements/1.1/" xmlns:cc="http://creativecommons.org/ns#" xmlns:rdf="http://www.w3.org/1999/02/22-rdf-syntax-ns#">
   <cc:Work>
    <dc:type rdf:resource="http://purl.org/dc/dcmitype/StillImage"/>
    <dc:date>2023-11-30T21:30:49.879400</dc:date>
    <dc:format>image/svg+xml</dc:format>
    <dc:creator>
     <cc:Agent>
      <dc:title>Matplotlib v3.8.1, https://matplotlib.org/</dc:title>
     </cc:Agent>
    </dc:creator>
   </cc:Work>
  </rdf:RDF>
 </metadata>
 <defs>
  <style type="text/css">*{stroke-linejoin: round; stroke-linecap: butt}</style>
 </defs>
 <g id="figure_1">
  <g id="patch_1">
   <path d="M 0 360 
L 720 360 
L 720 0 
L 0 0 
z
" style="fill: #ffffff"/>
  </g>
  <g id="axes_1">
   <g id="patch_2">
    <path d="M 194.371536 320.4 
L 194.371536 43.2 
L 543.628464 43.2 
L 543.628464 320.4 
L 194.371536 320.4 
" style="fill: #ffffff"/>
   </g>
   <g id="line2d_1">
    <defs>
     <path id="m6b447e1300" d="M 0 11.775737 
C 3.122962 11.775737 6.118436 10.534971 8.326703 8.326703 
C 10.534971 6.118436 11.775737 3.122962 11.775737 0 
C 11.775737 -3.122962 10.534971 -6.118436 8.326703 -8.326703 
C 6.118436 -10.534971 3.122962 -11.775737 0 -11.775737 
C -3.122962 -11.775737 -6.118436 -10.534971 -8.326703 -8.326703 
C -10.534971 -6.118436 -11.775737 -3.122962 -11.775737 0 
C -11.775737 3.122962 -10.534971 6.118436 -8.326703 8.326703 
C -6.118436 10.534971 -3.122962 11.775737 0 11.775737 
z
" style="stroke: #000000"/>
    </defs>
    <g clip-path="url(#p5842914fd3)">
     <use xlink:href="#m6b447e1300" x="512.144882" y="300.856213" style="stroke: #000000"/>
    </g>
   </g>
   <g id="line2d_2">
    <defs>
     <path id="me0085bdb11" d="M 0 10.437285 
C 2.768 10.437285 5.423003 9.337547 7.380275 7.380275 
C 9.337547 5.423003 10.437285 2.768 10.437285 0 
C 10.437285 -2.768 9.337547 -5.423003 7.380275 -7.380275 
C 5.423003 -9.337547 2.768 -10.437285 0 -10.437285 
C -2.768 -10.437285 -5.423003 -9.337547 -7.380275 -7.380275 
C -9.337547 -5.423003 -10.437285 -2.768 -10.437285 0 
C -10.437285 2.768 -9.337547 5.423003 -7.380275 7.380275 
C -5.423003 9.337547 -2.768 10.437285 0 10.437285 
z
" style="stroke: #000000"/>
    </defs>
    <g clip-path="url(#p5842914fd3)">
     <use xlink:href="#me0085bdb11" x="210.246851" y="55.8" style="stroke: #000000"/>
    </g>
   </g>
   <g id="line2d_3">
    <defs>
     <path id="ma285923f54" d="M 0 10.396082 
C 2.757073 10.396082 5.401595 9.300685 7.35114 7.35114 
C 9.300685 5.401595 10.396082 2.757073 10.396082 0 
C 10.396082 -2.757073 9.300685 -5.401595 7.35114 -7.35114 
C 5.401595 -9.300685 2.757073 -10.396082 0 -10.396082 
C -2.757073 -10.396082 -5.401595 -9.300685 -7.35114 -7.35114 
C -9.300685 -5.401595 -10.396082 -2.757073 -10.396082 0 
C -10.396082 2.757073 -9.300685 5.401595 -7.35114 7.35114 
C -5.401595 9.300685 -2.757073 10.396082 0 10.396082 
z
" style="stroke: #000000"/>
    </defs>
    <g clip-path="url(#p5842914fd3)">
     <use xlink:href="#ma285923f54" x="513.249722" y="302.158626" style="stroke: #000000"/>
    </g>
   </g>
   <g id="line2d_4">
    <defs>
     <path id="m268b951c03" d="M 0 10.357492 
C 2.746839 10.357492 5.381544 9.266161 7.323853 7.323853 
C 9.266161 5.381544 10.357492 2.746839 10.357492 0 
C 10.357492 -2.746839 9.266161 -5.381544 7.323853 -7.323853 
C 5.381544 -9.266161 2.746839 -10.357492 0 -10.357492 
C -2.746839 -10.357492 -5.381544 -9.266161 -7.323853 -7.323853 
C -9.266161 -5.381544 -10.357492 -2.746839 -10.357492 0 
C -10.357492 2.746839 -9.266161 5.381544 -7.323853 7.323853 
C -5.381544 9.266161 -2.746839 10.357492 0 10.357492 
z
" style="stroke: #000000"/>
    </defs>
    <g clip-path="url(#p5842914fd3)">
     <use xlink:href="#m268b951c03" x="469.145644" y="270.416865" style="stroke: #000000"/>
    </g>
   </g>
   <g id="line2d_5">
    <defs>
     <path id="mf50a19597d" d="M 0 10.345227 
C 2.743586 10.345227 5.375172 9.255188 7.31518 7.31518 
C 9.255188 5.375172 10.345227 2.743586 10.345227 0 
C 10.345227 -2.743586 9.255188 -5.375172 7.31518 -7.31518 
C 5.375172 -9.255188 2.743586 -10.345227 0 -10.345227 
C -2.743586 -10.345227 -5.375172 -9.255188 -7.31518 -7.31518 
C -9.255188 -5.375172 -10.345227 -2.743586 -10.345227 0 
C -10.345227 2.743586 -9.255188 5.375172 -7.31518 7.31518 
C -5.375172 9.255188 -2.743586 10.345227 0 10.345227 
z
" style="stroke: #000000"/>
    </defs>
    <g clip-path="url(#p5842914fd3)">
     <use xlink:href="#mf50a19597d" x="527.753149" y="307.8" style="stroke: #000000"/>
    </g>
   </g>
   <g id="line2d_6">
    <defs>
     <path id="m24649e922d" d="M 0 10.324983 
C 2.738217 10.324983 5.364653 9.237078 7.300865 7.300865 
C 9.237078 5.364653 10.324983 2.738217 10.324983 0 
C 10.324983 -2.738217 9.237078 -5.364653 7.300865 -7.300865 
C 5.364653 -9.237078 2.738217 -10.324983 0 -10.324983 
C -2.738217 -10.324983 -5.364653 -9.237078 -7.300865 -7.300865 
C -9.237078 -5.364653 -10.324983 -2.738217 -10.324983 0 
C -10.324983 2.738217 -9.237078 5.364653 -7.300865 7.300865 
C -5.364653 9.237078 -2.738217 10.324983 0 10.324983 
z
" style="stroke: #000000"/>
    </defs>
    <g clip-path="url(#p5842914fd3)">
     <use xlink:href="#m24649e922d" x="513.276744" y="297.713416" style="stroke: #000000"/>
    </g>
   </g>
   <g id="line2d_7">
    <defs>
     <path id="mbeec49a071" d="M 0 10.302206 
C 2.732177 10.302206 5.352819 9.216701 7.28476 7.28476 
C 9.216701 5.352819 10.302206 2.732177 10.302206 0 
C 10.302206 -2.732177 9.216701 -5.352819 7.28476 -7.28476 
C 5.352819 -9.216701 2.732177 -10.302206 0 -10.302206 
C -2.732177 -10.302206 -5.352819 -9.216701 -7.28476 -7.28476 
C -9.216701 -5.352819 -10.302206 -2.732177 -10.302206 0 
C -10.302206 2.732177 -9.216701 5.352819 -7.28476 7.28476 
C -5.352819 9.216701 -2.732177 10.302206 0 10.302206 
z
" style="stroke: #000000"/>
    </defs>
    <g clip-path="url(#p5842914fd3)">
     <use xlink:href="#mbeec49a071" x="490.858733" y="280.137487" style="stroke: #000000"/>
    </g>
   </g>
   <g id="line2d_8">
    <defs>
     <path id="m29b681871a" d="M 0 10.259012 
C 2.720722 10.259012 5.330376 9.178057 7.254217 7.254217 
C 9.178057 5.330376 10.259012 2.720722 10.259012 0 
C 10.259012 -2.720722 9.178057 -5.330376 7.254217 -7.254217 
C 5.330376 -9.178057 2.720722 -10.259012 0 -10.259012 
C -2.720722 -10.259012 -5.330376 -9.178057 -7.254217 -7.254217 
C -9.178057 -5.330376 -10.259012 -2.720722 -10.259012 0 
C -10.259012 2.720722 -9.178057 5.330376 -7.254217 7.254217 
C -5.330376 9.178057 -2.720722 10.259012 0 10.259012 
z
" style="stroke: #000000"/>
    </defs>
    <g clip-path="url(#p5842914fd3)">
     <use xlink:href="#m29b681871a" x="388.299144" y="71.326399" style="stroke: #000000"/>
    </g>
   </g>
   <g id="line2d_9">
    <defs>
     <path id="maba2181f82" d="M 0 10.246871 
C 2.717502 10.246871 5.324068 9.167196 7.245632 7.245632 
C 9.167196 5.324068 10.246871 2.717502 10.246871 0 
C 10.246871 -2.717502 9.167196 -5.324068 7.245632 -7.245632 
C 5.324068 -9.167196 2.717502 -10.246871 0 -10.246871 
C -2.717502 -10.246871 -5.324068 -9.167196 -7.245632 -7.245632 
C -9.167196 -5.324068 -10.246871 -2.717502 -10.246871 0 
C -10.246871 2.717502 -9.167196 5.324068 -7.245632 7.245632 
C -5.324068 9.167196 -2.717502 10.246871 0 10.246871 
z
" style="stroke: #000000"/>
    </defs>
    <g clip-path="url(#p5842914fd3)">
     <use xlink:href="#maba2181f82" x="440.248733" y="277.706242" style="stroke: #000000"/>
    </g>
   </g>
   <g id="line2d_10">
    <defs>
     <path id="m9c8a546810" d="M 0 10.201055 
C 2.705351 10.201055 5.300263 9.126208 7.213235 7.213235 
C 9.126208 5.300263 10.201055 2.705351 10.201055 0 
C 10.201055 -2.705351 9.126208 -5.300263 7.213235 -7.213235 
C 5.300263 -9.126208 2.705351 -10.201055 0 -10.201055 
C -2.705351 -10.201055 -5.300263 -9.126208 -7.213235 -7.213235 
C -9.126208 -5.300263 -10.201055 -2.705351 -10.201055 0 
C -10.201055 2.705351 -9.126208 5.300263 -7.213235 7.213235 
C -5.300263 9.126208 -2.705351 10.201055 0 10.201055 
z
" style="stroke: #000000"/>
    </defs>
    <g clip-path="url(#p5842914fd3)">
     <use xlink:href="#m9c8a546810" x="440.130007" y="278.724582" style="stroke: #000000"/>
    </g>
   </g>
  </g>
 </g>
 <defs>
  <clipPath id="p5842914fd3">
   <path d="M 194.371536 320.4 
L 194.371536 43.2 
L 543.628464 43.2 
L 543.628464 320.4 
L 194.371536 320.4 
"/>
  </clipPath>
 </defs>
</svg>
