<?xml version="1.0" encoding="utf-8" standalone="no"?>
<!DOCTYPE svg PUBLIC "-//W3C//DTD SVG 1.1//EN"
  "http://www.w3.org/Graphics/SVG/1.1/DTD/svg11.dtd">
<svg xmlns:xlink="http://www.w3.org/1999/xlink" width="720pt" height="360pt" viewBox="0 0 720 360" xmlns="http://www.w3.org/2000/svg" version="1.1">
 <metadata>
  <rdf:RDF xmlns:dc="http://purl.org/dc/elements/1.1/" xmlns:cc="http://creativecommons.org/ns#" xmlns:rdf="http://www.w3.org/1999/02/22-rdf-syntax-ns#">
   <cc:Work>
    <dc:type rdf:resource="http://purl.org/dc/dcmitype/StillImage"/>
    <dc:date>2023-11-30T21:30:50.655097</dc:date>
    <dc:format>image/svg+xml</dc:format>
    <dc:creator>
     <cc:Agent>
      <dc:title>Matplotlib v3.8.1, https://matplotlib.org/</dc:title>
     </cc:Agent>
    </dc:creator>
   </cc:Work>
  </rdf:RDF>
 </metadata>
 <defs>
  <style type="text/css">*{stroke-linejoin: round; stroke-linecap: butt}</style>
 </defs>
 <g id="figure_1">
  <g id="patch_1">
   <path d="M 0 360 
L 720 360 
L 720 0 
L 0 0 
z
" style="fill: #ffffff"/>
  </g>
  <g id="axes_1">
   <g id="patch_2">
    <path d="M 289.073646 320.4 
L 289.073646 43.2 
L 448.926354 43.2 
L 448.926354 320.4 
L 289.073646 320.4 
" style="fill: #ffffff"/>
   </g>
   <g id="line2d_1">
    <defs>
     <path id="m247c6ea097" d="M 0 10.235786 
C 2.714562 10.235786 5.318308 9.157279 7.237794 7.237794 
C 9.157279 5.318308 10.235786 2.714562 10.235786 0 
C 10.235786 -2.714562 9.157279 -5.318308 7.237794 -7.237794 
C 5.318308 -9.157279 2.714562 -10.235786 0 -10.235786 
C -2.714562 -10.235786 -5.318308 -9.157279 -7.237794 -7.237794 
C -9.157279 -5.318308 -10.235786 -2.714562 -10.235786 0 
C -10.235786 2.714562 -9.157279 5.318308 -7.237794 7.237794 
C -5.318308 9.157279 -2.714562 10.235786 0 10.235786 
z
" style="stroke: #000000"/>
    </defs>
    <g clip-path="url(#pcee66f0c5e)">
     <use xlink:href="#m247c6ea097" x="329.13339" y="217.295456" style="stroke: #000000"/>
    </g>
   </g>
   <g id="line2d_2">
    <defs>
     <path id="m293dbf8518" d="M 0 9.891454 
C 2.623244 9.891454 5.1394 8.849228 6.994314 6.994314 
C 8.849228 5.1394 9.891454 2.623244 9.891454 0 
C 9.891454 -2.623244 8.849228 -5.1394 6.994314 -6.994314 
C 5.1394 -8.849228 2.623244 -9.891454 0 -9.891454 
C -2.623244 -9.891454 -5.1394 -8.849228 -6.994314 -6.994314 
C -8.849228 -5.1394 -9.891454 -2.623244 -9.891454 0 
C -9.891454 2.623244 -8.849228 5.1394 -6.994314 6.994314 
C -5.1394 8.849228 -2.623244 9.891454 0 9.891454 
z
" style="stroke: #000000"/>
    </defs>
    <g clip-path="url(#pcee66f0c5e)">
     <use xlink:href="#m293dbf8518" x="324.796969" y="219.12975" style="stroke: #000000"/>
    </g>
   </g>
   <g id="line2d_3">
    <defs>
     <path id="ma900687ebf" d="M 0 9.873464 
C 2.618473 9.873464 5.130053 8.833133 6.981593 6.981593 
C 8.833133 5.130053 9.873464 2.618473 9.873464 0 
C 9.873464 -2.618473 8.833133 -5.130053 6.981593 -6.981593 
C 5.130053 -8.833133 2.618473 -9.873464 0 -9.873464 
C -2.618473 -9.873464 -5.130053 -8.833133 -6.981593 -6.981593 
C -8.833133 -5.130053 -9.873464 -2.618473 -9.873464 0 
C -9.873464 2.618473 -8.833133 5.130053 -6.981593 6.981593 
C -5.130053 8.833133 -2.618473 9.873464 0 9.873464 
z
" style="stroke: #000000"/>
    </defs>
    <g clip-path="url(#pcee66f0c5e)">
     <use xlink:href="#ma900687ebf" x="315.920941" y="222.944611" style="stroke: #000000"/>
    </g>
   </g>
   <g id="line2d_4">
    <defs>
     <path id="m2c7dab9220" d="M 0 9.855409 
C 2.613685 9.855409 5.120672 8.816981 6.968827 6.968827 
C 8.816981 5.120672 9.855409 2.613685 9.855409 0 
C 9.855409 -2.613685 8.816981 -5.120672 6.968827 -6.968827 
C 5.120672 -8.816981 2.613685 -9.855409 0 -9.855409 
C -2.613685 -9.855409 -5.120672 -8.816981 -6.968827 -6.968827 
C -8.816981 -5.120672 -9.855409 -2.613685 -9.855409 0 
C -9.855409 2.613685 -8.816981 5.120672 -6.968827 6.968827 
C -5.120672 8.816981 -2.613685 9.855409 0 9.855409 
z
" style="stroke: #000000"/>
    </defs>
    <g clip-path="url(#pcee66f0c5e)">
     <use xlink:href="#m2c7dab9220" x="441.660322" y="307.8" style="stroke: #000000"/>
    </g>
   </g>
   <g id="line2d_5">
    <defs>
     <path id="m3cd942772f" d="M 0 9.840016 
C 2.609603 9.840016 5.112674 8.80321 6.957942 6.957942 
C 8.80321 5.112674 9.840016 2.609603 9.840016 0 
C 9.840016 -2.609603 8.80321 -5.112674 6.957942 -6.957942 
C 5.112674 -8.80321 2.609603 -9.840016 0 -9.840016 
C -2.609603 -9.840016 -5.112674 -8.80321 -6.957942 -6.957942 
C -8.80321 -5.112674 -9.840016 -2.609603 -9.840016 0 
C -9.840016 2.609603 -8.80321 5.112674 -6.957942 6.957942 
C -5.112674 8.80321 -2.609603 9.840016 0 9.840016 
z
" style="stroke: #000000"/>
    </defs>
    <g clip-path="url(#pcee66f0c5e)">
     <use xlink:href="#m3cd942772f" x="296.339678" y="139.249307" style="stroke: #000000"/>
    </g>
   </g>
   <g id="line2d_6">
    <defs>
     <path id="m4b77972565" d="M 0 9.834474 
C 2.608133 9.834474 5.109795 8.798251 6.954023 6.954023 
C 8.798251 5.109795 9.834474 2.608133 9.834474 0 
C 9.834474 -2.608133 8.798251 -5.109795 6.954023 -6.954023 
C 5.109795 -8.798251 2.608133 -9.834474 0 -9.834474 
C -2.608133 -9.834474 -5.109795 -8.798251 -6.954023 -6.954023 
C -8.798251 -5.109795 -9.834474 -2.608133 -9.834474 0 
C -9.834474 2.608133 -8.798251 5.109795 -6.954023 6.954023 
C -5.109795 8.798251 -2.608133 9.834474 0 9.834474 
z
" style="stroke: #000000"/>
    </defs>
    <g clip-path="url(#pcee66f0c5e)">
     <use xlink:href="#m4b77972565" x="320.810416" y="216.819848" style="stroke: #000000"/>
    </g>
   </g>
   <g id="line2d_7">
    <defs>
     <path id="m60965a0c5e" d="M 0 9.749315 
C 2.585548 9.749315 5.065548 8.722065 6.893806 6.893806 
C 8.722065 5.065548 9.749315 2.585548 9.749315 0 
C 9.749315 -2.585548 8.722065 -5.065548 6.893806 -6.893806 
C 5.065548 -8.722065 2.585548 -9.749315 0 -9.749315 
C -2.585548 -9.749315 -5.065548 -8.722065 -6.893806 -6.893806 
C -8.722065 -5.065548 -9.749315 -2.585548 -9.749315 0 
C -9.749315 2.585548 -8.722065 5.065548 -6.893806 6.893806 
C -5.065548 8.722065 -2.585548 9.749315 0 9.749315 
z
" style="stroke: #000000"/>
    </defs>
    <g clip-path="url(#pcee66f0c5e)">
     <use xlink:href="#m60965a0c5e" x="320.782166" y="220.328981" style="stroke: #000000"/>
    </g>
   </g>
   <g id="line2d_8">
    <defs>
     <path id="m54e5af7f27" d="M 0 9.716997 
C 2.576978 9.716997 5.048756 8.693153 6.870955 6.870955 
C 8.693153 5.048756 9.716997 2.576978 9.716997 0 
C 9.716997 -2.576978 8.693153 -5.048756 6.870955 -6.870955 
C 5.048756 -8.693153 2.576978 -9.716997 0 -9.716997 
C -2.576978 -9.716997 -5.048756 -8.693153 -6.870955 -6.870955 
C -8.693153 -5.048756 -9.716997 -2.576978 -9.716997 0 
C -9.716997 2.576978 -8.693153 5.048756 -6.870955 6.870955 
C -5.048756 8.693153 -2.576978 9.716997 0 9.716997 
z
" style="stroke: #000000"/>
    </defs>
    <g clip-path="url(#pcee66f0c5e)">
     <use xlink:href="#m54e5af7f27" x="323.379564" y="222.557138" style="stroke: #000000"/>
    </g>
   </g>
   <g id="line2d_9">
    <defs>
     <path id="m0715717867" d="M 0 9.571603 
C 2.538419 9.571603 4.973212 8.563079 6.768145 6.768145 
C 8.563079 4.973212 9.571603 2.538419 9.571603 0 
C 9.571603 -2.538419 8.563079 -4.973212 6.768145 -6.768145 
C 4.973212 -8.563079 2.538419 -9.571603 0 -9.571603 
C -2.538419 -9.571603 -4.973212 -8.563079 -6.768145 -6.768145 
C -8.563079 -4.973212 -9.571603 -2.538419 -9.571603 0 
C -9.571603 2.538419 -8.563079 4.973212 -6.768145 6.768145 
C -4.973212 8.563079 -2.538419 9.571603 0 9.571603 
z
" style="stroke: #000000"/>
    </defs>
    <g clip-path="url(#pcee66f0c5e)">
     <use xlink:href="#m0715717867" x="359.229198" y="268.358759" style="stroke: #000000"/>
    </g>
   </g>
   <g id="line2d_10">
    <defs>
     <path id="m22ab9f72e8" d="M 0 9.558909 
C 2.535052 9.558909 4.966617 8.551722 6.759169 6.759169 
C 8.551722 4.966617 9.558909 2.535052 9.558909 0 
C 9.558909 -2.535052 8.551722 -4.966617 6.759169 -6.759169 
C 4.966617 -8.551722 2.535052 -9.558909 0 -9.558909 
C -2.535052 -9.558909 -4.966617 -8.551722 -6.759169 -6.759169 
C -8.551722 -4.966617 -9.558909 -2.535052 -9.558909 0 
C -9.558909 2.535052 -8.551722 4.966617 -6.759169 6.759169 
C -4.966617 8.551722 -2.535052 9.558909 0 9.558909 
z
" style="stroke: #000000"/>
    </defs>
    <g clip-path="url(#pcee66f0c5e)">
     <use xlink:href="#m22ab9f72e8" x="359.382945" y="55.8" style="stroke: #000000"/>
    </g>
   </g>
  </g>
 </g>
 <defs>
  <clipPath id="pcee66f0c5e">
   <path d="M 289.073646 320.4 
L 289.073646 43.2 
L 448.926354 43.2 
L 448.926354 320.4 
L 289.073646 320.4 
"/>
  </clipPath>
 </defs>
</svg>
