<?xml version="1.0" encoding="utf-8" standalone="no"?>
<!DOCTYPE svg PUBLIC "-//W3C//DTD SVG 1.1//EN"
  "http://www.w3.org/Graphics/SVG/1.1/DTD/svg11.dtd">
<svg xmlns:xlink="http://www.w3.org/1999/xlink" width="720pt" height="360pt" viewBox="0 0 720 360" xmlns="http://www.w3.org/2000/svg" version="1.1">
 <metadata>
  <rdf:RDF xmlns:dc="http://purl.org/dc/elements/1.1/" xmlns:cc="http://creativecommons.org/ns#" xmlns:rdf="http://www.w3.org/1999/02/22-rdf-syntax-ns#">
   <cc:Work>
    <dc:type rdf:resource="http://purl.org/dc/dcmitype/StillImage"/>
    <dc:date>2023-11-30T21:30:50.696069</dc:date>
    <dc:format>image/svg+xml</dc:format>
    <dc:creator>
     <cc:Agent>
      <dc:title>Matplotlib v3.8.1, https://matplotlib.org/</dc:title>
     </cc:Agent>
    </dc:creator>
   </cc:Work>
  </rdf:RDF>
 </metadata>
 <defs>
  <style type="text/css">*{stroke-linejoin: round; stroke-linecap: butt}</style>
 </defs>
 <g id="figure_1">
  <g id="patch_1">
   <path d="M 0 360 
L 720 360 
L 720 0 
L 0 0 
z
" style="fill: #ffffff"/>
  </g>
  <g id="axes_1">
   <g id="patch_2">
    <path d="M 285.984658 320.4 
L 285.984658 43.2 
L 452.015342 43.2 
L 452.015342 320.4 
L 285.984658 320.4 
" style="fill: #ffffff"/>
   </g>
   <g id="line2d_1">
    <defs>
     <path id="m663e18824e" d="M 0 10.092243 
C 2.676494 10.092243 5.243726 9.02886 7.136293 7.136293 
C 9.02886 5.243726 10.092243 2.676494 10.092243 0 
C 10.092243 -2.676494 9.02886 -5.243726 7.136293 -7.136293 
C 5.243726 -9.02886 2.676494 -10.092243 0 -10.092243 
C -2.676494 -10.092243 -5.243726 -9.02886 -7.136293 -7.136293 
C -9.02886 -5.243726 -10.092243 -2.676494 -10.092243 0 
C -10.092243 2.676494 -9.02886 5.243726 -7.136293 7.136293 
C -5.243726 9.02886 -2.676494 10.092243 0 10.092243 
z
" style="stroke: #000000"/>
    </defs>
    <g clip-path="url(#pb13c107a2f)">
     <use xlink:href="#m663e18824e" x="295.812674" y="307.8" style="stroke: #000000"/>
    </g>
   </g>
   <g id="line2d_2">
    <defs>
     <path id="mff24b26516" d="M 0 9.988644 
C 2.649019 9.988644 5.189898 8.936178 7.063038 7.063038 
C 8.936178 5.189898 9.988644 2.649019 9.988644 0 
C 9.988644 -2.649019 8.936178 -5.189898 7.063038 -7.063038 
C 5.189898 -8.936178 2.649019 -9.988644 0 -9.988644 
C -2.649019 -9.988644 -5.189898 -8.936178 -7.063038 -7.063038 
C -8.936178 -5.189898 -9.988644 -2.649019 -9.988644 0 
C -9.988644 2.649019 -8.936178 5.189898 -7.063038 7.063038 
C -5.189898 8.936178 -2.649019 9.988644 0 9.988644 
z
" style="stroke: #000000"/>
    </defs>
    <g clip-path="url(#pb13c107a2f)">
     <use xlink:href="#mff24b26516" x="293.531507" y="307.732818" style="stroke: #000000"/>
    </g>
   </g>
   <g id="line2d_3">
    <defs>
     <path id="m5ea19bd346" d="M 0 9.751624 
C 2.586161 9.751624 5.066747 8.724131 6.895439 6.895439 
C 8.724131 5.066747 9.751624 2.586161 9.751624 0 
C 9.751624 -2.586161 8.724131 -5.066747 6.895439 -6.895439 
C 5.066747 -8.724131 2.586161 -9.751624 0 -9.751624 
C -2.586161 -9.751624 -5.066747 -8.724131 -6.895439 -6.895439 
C -8.724131 -5.066747 -9.751624 -2.586161 -9.751624 0 
C -9.751624 2.586161 -8.724131 5.066747 -6.895439 6.895439 
C -5.066747 8.724131 -2.586161 9.751624 0 9.751624 
z
" style="stroke: #000000"/>
    </defs>
    <g clip-path="url(#pb13c107a2f)">
     <use xlink:href="#m5ea19bd346" x="418.437175" y="96.068772" style="stroke: #000000"/>
    </g>
   </g>
   <g id="line2d_4">
    <defs>
     <path id="m6ec1087c79" d="M 0 9.513005 
C 2.522878 9.513005 4.942766 8.510655 6.72671 6.72671 
C 8.510655 4.942766 9.513005 2.522878 9.513005 0 
C 9.513005 -2.522878 8.510655 -4.942766 6.72671 -6.72671 
C 4.942766 -8.510655 2.522878 -9.513005 0 -9.513005 
C -2.522878 -9.513005 -4.942766 -8.510655 -6.72671 -6.72671 
C -8.510655 -4.942766 -9.513005 -2.522878 -9.513005 0 
C -9.513005 2.522878 -8.510655 4.942766 -6.72671 6.72671 
C -4.942766 8.510655 -2.522878 9.513005 0 9.513005 
z
" style="stroke: #000000"/>
    </defs>
    <g clip-path="url(#pb13c107a2f)">
     <use xlink:href="#m6ec1087c79" x="337.19898" y="186.476987" style="stroke: #000000"/>
    </g>
   </g>
   <g id="line2d_5">
    <defs>
     <path id="m8b7057255d" d="M 0 9.254064 
C 2.454206 9.254064 4.808225 8.278997 6.543611 6.543611 
C 8.278997 4.808225 9.254064 2.454206 9.254064 0 
C 9.254064 -2.454206 8.278997 -4.808225 6.543611 -6.543611 
C 4.808225 -8.278997 2.454206 -9.254064 0 -9.254064 
C -2.454206 -9.254064 -4.808225 -8.278997 -6.543611 -6.543611 
C -8.278997 -4.808225 -9.254064 -2.454206 -9.254064 0 
C -9.254064 2.454206 -8.278997 4.808225 -6.543611 6.543611 
C -4.808225 8.278997 -2.454206 9.254064 0 9.254064 
z
" style="stroke: #000000"/>
    </defs>
    <g clip-path="url(#pb13c107a2f)">
     <use xlink:href="#m8b7057255d" x="312.327602" y="172.408198" style="stroke: #000000"/>
    </g>
   </g>
   <g id="line2d_6">
    <defs>
     <path id="mc1f6fdfcbb" d="M 0 9.208174 
C 2.442036 9.208174 4.784382 8.237943 6.511162 6.511162 
C 8.237943 4.784382 9.208174 2.442036 9.208174 0 
C 9.208174 -2.442036 8.237943 -4.784382 6.511162 -6.511162 
C 4.784382 -8.237943 2.442036 -9.208174 0 -9.208174 
C -2.442036 -9.208174 -4.784382 -8.237943 -6.511162 -6.511162 
C -8.237943 -4.784382 -9.208174 -2.442036 -9.208174 0 
C -9.208174 2.442036 -8.237943 4.784382 -6.511162 6.511162 
C -4.784382 8.237943 -2.442036 9.208174 0 9.208174 
z
" style="stroke: #000000"/>
    </defs>
    <g clip-path="url(#pb13c107a2f)">
     <use xlink:href="#mc1f6fdfcbb" x="374.801444" y="148.60432" style="stroke: #000000"/>
    </g>
   </g>
   <g id="line2d_7">
    <defs>
     <path id="m09b9b668e6" d="M 0 9.110933 
C 2.416248 9.110933 4.733857 8.150947 6.442402 6.442402 
C 8.150947 4.733857 9.110933 2.416248 9.110933 0 
C 9.110933 -2.416248 8.150947 -4.733857 6.442402 -6.442402 
C 4.733857 -8.150947 2.416248 -9.110933 0 -9.110933 
C -2.416248 -9.110933 -4.733857 -8.150947 -6.442402 -6.442402 
C -8.150947 -4.733857 -9.110933 -2.416248 -9.110933 0 
C -9.110933 2.416248 -8.150947 4.733857 -6.442402 6.442402 
C -4.733857 8.150947 -2.416248 9.110933 0 9.110933 
z
" style="stroke: #000000"/>
    </defs>
    <g clip-path="url(#pb13c107a2f)">
     <use xlink:href="#m09b9b668e6" x="314.223651" y="115.759597" style="stroke: #000000"/>
    </g>
   </g>
   <g id="line2d_8">
    <defs>
     <path id="me817bd5b1c" d="M 0 8.889895 
C 2.357628 8.889895 4.61901 7.9532 6.286105 6.286105 
C 7.9532 4.61901 8.889895 2.357628 8.889895 0 
C 8.889895 -2.357628 7.9532 -4.61901 6.286105 -6.286105 
C 4.61901 -7.9532 2.357628 -8.889895 0 -8.889895 
C -2.357628 -8.889895 -4.61901 -7.9532 -6.286105 -6.286105 
C -7.9532 -4.61901 -8.889895 -2.357628 -8.889895 0 
C -8.889895 2.357628 -7.9532 4.61901 -6.286105 6.286105 
C -4.61901 7.9532 -2.357628 8.889895 0 8.889895 
z
" style="stroke: #000000"/>
    </defs>
    <g clip-path="url(#pb13c107a2f)">
     <use xlink:href="#me817bd5b1c" x="444.468493" y="85.621273" style="stroke: #000000"/>
    </g>
   </g>
   <g id="line2d_9">
    <defs>
     <path id="m0596f9c690" d="M 0 8.851472 
C 2.347438 8.851472 4.599047 7.918825 6.258936 6.258936 
C 7.918825 4.599047 8.851472 2.347438 8.851472 0 
C 8.851472 -2.347438 7.918825 -4.599047 6.258936 -6.258936 
C 4.599047 -7.918825 2.347438 -8.851472 0 -8.851472 
C -2.347438 -8.851472 -4.599047 -7.918825 -6.258936 -6.258936 
C -7.918825 -4.599047 -8.851472 -2.347438 -8.851472 0 
C -8.851472 2.347438 -7.918825 4.599047 -6.258936 6.258936 
C -4.599047 7.918825 -2.347438 8.851472 0 8.851472 
z
" style="stroke: #000000"/>
    </defs>
    <g clip-path="url(#pb13c107a2f)">
     <use xlink:href="#m0596f9c690" x="344.568691" y="62.143447" style="stroke: #000000"/>
    </g>
   </g>
   <g id="line2d_10">
    <defs>
     <path id="m06cb2cdd5a" d="M 0 8.811451 
C 2.336824 8.811451 4.578253 7.883021 6.230637 6.230637 
C 7.883021 4.578253 8.811451 2.336824 8.811451 0 
C 8.811451 -2.336824 7.883021 -4.578253 6.230637 -6.230637 
C 4.578253 -7.883021 2.336824 -8.811451 0 -8.811451 
C -2.336824 -8.811451 -4.578253 -7.883021 -6.230637 -6.230637 
C -7.883021 -4.578253 -8.811451 -2.336824 -8.811451 0 
C -8.811451 2.336824 -7.883021 4.578253 -6.230637 6.230637 
C -4.578253 7.883021 -2.336824 8.811451 0 8.811451 
z
" style="stroke: #000000"/>
    </defs>
    <g clip-path="url(#pb13c107a2f)">
     <use xlink:href="#m06cb2cdd5a" x="441.392871" y="55.8" style="stroke: #000000"/>
    </g>
   </g>
  </g>
 </g>
 <defs>
  <clipPath id="pb13c107a2f">
   <path d="M 285.984658 320.4 
L 285.984658 43.2 
L 452.015342 43.2 
L 452.015342 320.4 
L 285.984658 320.4 
"/>
  </clipPath>
 </defs>
</svg>
