<?xml version="1.0" encoding="utf-8" standalone="no"?>
<!DOCTYPE svg PUBLIC "-//W3C//DTD SVG 1.1//EN"
  "http://www.w3.org/Graphics/SVG/1.1/DTD/svg11.dtd">
<svg xmlns:xlink="http://www.w3.org/1999/xlink" width="720pt" height="360pt" viewBox="0 0 720 360" xmlns="http://www.w3.org/2000/svg" version="1.1">
 <metadata>
  <rdf:RDF xmlns:dc="http://purl.org/dc/elements/1.1/" xmlns:cc="http://creativecommons.org/ns#" xmlns:rdf="http://www.w3.org/1999/02/22-rdf-syntax-ns#">
   <cc:Work>
    <dc:type rdf:resource="http://purl.org/dc/dcmitype/StillImage"/>
    <dc:date>2023-11-30T21:30:50.743809</dc:date>
    <dc:format>image/svg+xml</dc:format>
    <dc:creator>
     <cc:Agent>
      <dc:title>Matplotlib v3.8.1, https://matplotlib.org/</dc:title>
     </cc:Agent>
    </dc:creator>
   </cc:Work>
  </rdf:RDF>
 </metadata>
 <defs>
  <style type="text/css">*{stroke-linejoin: round; stroke-linecap: butt}</style>
 </defs>
 <g id="figure_1">
  <g id="patch_1">
   <path d="M 0 360 
L 720 360 
L 720 0 
L 0 0 
z
" style="fill: #ffffff"/>
  </g>
  <g id="axes_1">
   <g id="patch_2">
    <path d="M 149.471656 320.4 
L 149.471656 43.2 
L 588.528344 43.2 
L 588.528344 320.4 
L 149.471656 320.4 
" style="fill: #ffffff"/>
   </g>
   <g id="line2d_1">
    <defs>
     <path id="m0385dc6f4d" d="M 0 9.016295 
C 2.391149 9.016295 4.684685 8.066281 6.375483 6.375483 
C 8.066281 4.684685 9.016295 2.391149 9.016295 0 
C 9.016295 -2.391149 8.066281 -4.684685 6.375483 -6.375483 
C 4.684685 -8.066281 2.391149 -9.016295 0 -9.016295 
C -2.391149 -9.016295 -4.684685 -8.066281 -6.375483 -6.375483 
C -8.066281 -4.684685 -9.016295 -2.391149 -9.016295 0 
C -9.016295 2.391149 -8.066281 4.684685 -6.375483 6.375483 
C -4.684685 8.066281 -2.391149 9.016295 0 9.016295 
z
" style="stroke: #000000"/>
    </defs>
    <g clip-path="url(#p12da71acd1)">
     <use xlink:href="#m0385dc6f4d" x="274.743089" y="274.384221" style="stroke: #000000"/>
    </g>
   </g>
   <g id="line2d_2">
    <defs>
     <path id="m7efb5b6bc2" d="M 0 7.914031 
C 2.098826 7.914031 4.111971 7.080159 5.596065 5.596065 
C 7.080159 4.111971 7.914031 2.098826 7.914031 0 
C 7.914031 -2.098826 7.080159 -4.111971 5.596065 -5.596065 
C 4.111971 -7.080159 2.098826 -7.914031 0 -7.914031 
C -2.098826 -7.914031 -4.111971 -7.080159 -5.596065 -5.596065 
C -7.080159 -4.111971 -7.914031 -2.098826 -7.914031 0 
C -7.914031 2.098826 -7.080159 4.111971 -5.596065 5.596065 
C -4.111971 7.080159 -2.098826 7.914031 0 7.914031 
z
" style="stroke: #000000"/>
    </defs>
    <g clip-path="url(#p12da71acd1)">
     <use xlink:href="#m7efb5b6bc2" x="384.631186" y="73.4161" style="stroke: #000000"/>
    </g>
   </g>
   <g id="line2d_3">
    <defs>
     <path id="m04c7e3df87" d="M 0 7.83393 
C 2.077583 7.83393 4.070352 7.008498 5.539425 5.539425 
C 7.008498 4.070352 7.83393 2.077583 7.83393 0 
C 7.83393 -2.077583 7.008498 -4.070352 5.539425 -5.539425 
C 4.070352 -7.008498 2.077583 -7.83393 0 -7.83393 
C -2.077583 -7.83393 -4.070352 -7.008498 -5.539425 -5.539425 
C -7.008498 -4.070352 -7.83393 -2.077583 -7.83393 0 
C -7.83393 2.077583 -7.008498 4.070352 -5.539425 5.539425 
C -4.070352 7.008498 -2.077583 7.83393 0 7.83393 
z
" style="stroke: #000000"/>
    </defs>
    <g clip-path="url(#p12da71acd1)">
     <use xlink:href="#m04c7e3df87" x="169.428779" y="291.919588" style="stroke: #000000"/>
    </g>
   </g>
   <g id="line2d_4">
    <defs>
     <path id="m16e84e7cb9" d="M 0 7.518495 
C 1.993928 7.518495 3.906458 6.726299 5.316379 5.316379 
C 6.726299 3.906458 7.518495 1.993928 7.518495 0 
C 7.518495 -1.993928 6.726299 -3.906458 5.316379 -5.316379 
C 3.906458 -6.726299 1.993928 -7.518495 0 -7.518495 
C -1.993928 -7.518495 -3.906458 -6.726299 -5.316379 -5.316379 
C -6.726299 -3.906458 -7.518495 -1.993928 -7.518495 0 
C -7.518495 1.993928 -6.726299 3.906458 -5.316379 5.316379 
C -3.906458 6.726299 -1.993928 7.518495 0 7.518495 
z
" style="stroke: #000000"/>
    </defs>
    <g clip-path="url(#p12da71acd1)">
     <use xlink:href="#m16e84e7cb9" x="218.413547" y="67.886314" style="stroke: #000000"/>
    </g>
   </g>
   <g id="line2d_5">
    <defs>
     <path id="md6b37fa32e" d="M 0 7.306204 
C 1.937628 7.306204 3.796156 6.536376 5.166266 5.166266 
C 6.536376 3.796156 7.306204 1.937628 7.306204 0 
C 7.306204 -1.937628 6.536376 -3.796156 5.166266 -5.166266 
C 3.796156 -6.536376 1.937628 -7.306204 0 -7.306204 
C -1.937628 -7.306204 -3.796156 -6.536376 -5.166266 -5.166266 
C -6.536376 -3.796156 -7.306204 -1.937628 -7.306204 0 
C -7.306204 1.937628 -6.536376 3.796156 -5.166266 5.166266 
C -3.796156 6.536376 -1.937628 7.306204 0 7.306204 
z
" style="stroke: #000000"/>
    </defs>
    <g clip-path="url(#p12da71acd1)">
     <use xlink:href="#md6b37fa32e" x="170.300968" y="279.621054" style="stroke: #000000"/>
    </g>
   </g>
   <g id="line2d_6">
    <defs>
     <path id="mff0f62ab82" d="M 0 7.305628 
C 1.937475 7.305628 3.795857 6.535861 5.165859 5.165859 
C 6.535861 3.795857 7.305628 1.937475 7.305628 0 
C 7.305628 -1.937475 6.535861 -3.795857 5.165859 -5.165859 
C 3.795857 -6.535861 1.937475 -7.305628 0 -7.305628 
C -1.937475 -7.305628 -3.795857 -6.535861 -5.165859 -5.165859 
C -6.535861 -3.795857 -7.305628 -1.937475 -7.305628 0 
C -7.305628 1.937475 -6.535861 3.795857 -5.165859 5.165859 
C -3.795857 6.535861 -1.937475 7.305628 0 7.305628 
z
" style="stroke: #000000"/>
    </defs>
    <g clip-path="url(#p12da71acd1)">
     <use xlink:href="#mff0f62ab82" x="568.571221" y="55.8" style="stroke: #000000"/>
    </g>
   </g>
   <g id="line2d_7">
    <defs>
     <path id="m4fa0312816" d="M 0 7.278373 
C 1.930247 7.278373 3.781696 6.511477 5.146587 5.146587 
C 6.511477 3.781696 7.278373 1.930247 7.278373 0 
C 7.278373 -1.930247 6.511477 -3.781696 5.146587 -5.146587 
C 3.781696 -6.511477 1.930247 -7.278373 0 -7.278373 
C -1.930247 -7.278373 -3.781696 -6.511477 -5.146587 -5.146587 
C -6.511477 -3.781696 -7.278373 -1.930247 -7.278373 0 
C -7.278373 1.930247 -6.511477 3.781696 -5.146587 5.146587 
C -3.781696 6.511477 -1.930247 7.278373 0 7.278373 
z
" style="stroke: #000000"/>
    </defs>
    <g clip-path="url(#p12da71acd1)">
     <use xlink:href="#m4fa0312816" x="316.961139" y="144.1164" style="stroke: #000000"/>
    </g>
   </g>
   <g id="line2d_8">
    <defs>
     <path id="m4d62bf118a" d="M 0 7.19192 
C 1.907319 7.19192 3.736777 6.434134 5.085455 5.085455 
C 6.434134 3.736777 7.19192 1.907319 7.19192 0 
C 7.19192 -1.907319 6.434134 -3.736777 5.085455 -5.085455 
C 3.736777 -6.434134 1.907319 -7.19192 0 -7.19192 
C -1.907319 -7.19192 -3.736777 -6.434134 -5.085455 -5.085455 
C -6.434134 -3.736777 -7.19192 -1.907319 -7.19192 0 
C -7.19192 1.907319 -6.434134 3.736777 -5.085455 5.085455 
C -3.736777 6.434134 -1.907319 7.19192 0 7.19192 
z
" style="stroke: #000000"/>
    </defs>
    <g clip-path="url(#p12da71acd1)">
     <use xlink:href="#m4d62bf118a" x="275.019657" y="307.8" style="stroke: #000000"/>
    </g>
   </g>
   <g id="line2d_9">
    <defs>
     <path id="m31b13def10" d="M 0 7.187384 
C 1.906116 7.187384 3.73442 6.430076 5.082248 5.082248 
C 6.430076 3.73442 7.187384 1.906116 7.187384 0 
C 7.187384 -1.906116 6.430076 -3.73442 5.082248 -5.082248 
C 3.73442 -6.430076 1.906116 -7.187384 0 -7.187384 
C -1.906116 -7.187384 -3.73442 -6.430076 -5.082248 -5.082248 
C -6.430076 -3.73442 -7.187384 -1.906116 -7.187384 0 
C -7.187384 1.906116 -6.430076 3.73442 -5.082248 5.082248 
C -3.73442 6.430076 -1.906116 7.187384 0 7.187384 
z
" style="stroke: #000000"/>
    </defs>
    <g clip-path="url(#p12da71acd1)">
     <use xlink:href="#m31b13def10" x="273.805537" y="272.785613" style="stroke: #000000"/>
    </g>
   </g>
   <g id="line2d_10">
    <defs>
     <path id="mde5edbb9d2" d="M 0 7.186738 
C 1.905945 7.186738 3.734085 6.429498 5.081792 5.081792 
C 6.429498 3.734085 7.186738 1.905945 7.186738 0 
C 7.186738 -1.905945 6.429498 -3.734085 5.081792 -5.081792 
C 3.734085 -6.429498 1.905945 -7.186738 0 -7.186738 
C -1.905945 -7.186738 -3.734085 -6.429498 -5.081792 -5.081792 
C -6.429498 -3.734085 -7.186738 -1.905945 -7.186738 0 
C -7.186738 1.905945 -6.429498 3.734085 -5.081792 5.081792 
C -3.734085 6.429498 -1.905945 7.186738 0 7.186738 
z
" style="stroke: #000000"/>
    </defs>
    <g clip-path="url(#p12da71acd1)">
     <use xlink:href="#mde5edbb9d2" x="256.951652" y="182.88681" style="stroke: #000000"/>
    </g>
   </g>
  </g>
 </g>
 <defs>
  <clipPath id="p12da71acd1">
   <path d="M 149.471656 320.4 
L 149.471656 43.2 
L 588.528344 43.2 
L 588.528344 320.4 
L 149.471656 320.4 
"/>
  </clipPath>
 </defs>
</svg>
