<?xml version="1.0" encoding="utf-8" standalone="no"?>
<!DOCTYPE svg PUBLIC "-//W3C//DTD SVG 1.1//EN"
  "http://www.w3.org/Graphics/SVG/1.1/DTD/svg11.dtd">
<svg xmlns:xlink="http://www.w3.org/1999/xlink" width="720pt" height="360pt" viewBox="0 0 720 360" xmlns="http://www.w3.org/2000/svg" version="1.1">
 <metadata>
  <rdf:RDF xmlns:dc="http://purl.org/dc/elements/1.1/" xmlns:cc="http://creativecommons.org/ns#" xmlns:rdf="http://www.w3.org/1999/02/22-rdf-syntax-ns#">
   <cc:Work>
    <dc:type rdf:resource="http://purl.org/dc/dcmitype/StillImage"/>
    <dc:date>2023-11-30T21:30:52.956074</dc:date>
    <dc:format>image/svg+xml</dc:format>
    <dc:creator>
     <cc:Agent>
      <dc:title>Matplotlib v3.8.1, https://matplotlib.org/</dc:title>
     </cc:Agent>
    </dc:creator>
   </cc:Work>
  </rdf:RDF>
 </metadata>
 <defs>
  <style type="text/css">*{stroke-linejoin: round; stroke-linecap: butt}</style>
 </defs>
 <g id="figure_1">
  <g id="patch_1">
   <path d="M 0 360 
L 720 360 
L 720 0 
L 0 0 
z
" style="fill: #ffffff"/>
  </g>
  <g id="axes_1">
   <g id="patch_2">
    <path d="M 90 316.122795 
L 90 47.477205 
L 648 47.477205 
L 648 316.122795 
L 90 316.122795 
" style="fill: #ffffff"/>
   </g>
   <g id="line2d_1">
    <defs>
     <path id="m296c17e60e" d="M 0 8.252945 
C 2.188706 8.252945 4.288064 7.383362 5.835713 5.835713 
C 7.383362 4.288064 8.252945 2.188706 8.252945 0 
C 8.252945 -2.188706 7.383362 -4.288064 5.835713 -5.835713 
C 4.288064 -7.383362 2.188706 -8.252945 0 -8.252945 
C -2.188706 -8.252945 -4.288064 -7.383362 -5.835713 -5.835713 
C -7.383362 -4.288064 -8.252945 -2.188706 -8.252945 0 
C -8.252945 2.188706 -7.383362 4.288064 -5.835713 5.835713 
C -4.288064 7.383362 -2.188706 8.252945 0 8.252945 
z
" style="stroke: #000000"/>
    </defs>
    <g clip-path="url(#p1d759f2b7a)">
     <use xlink:href="#m296c17e60e" x="381.76188" y="303.911631" style="stroke: #000000"/>
    </g>
   </g>
   <g id="line2d_2">
    <defs>
     <path id="m7663c2a58a" d="M 0 7.295557 
C 1.934804 7.295557 3.790624 6.526851 5.158738 5.158738 
C 6.526851 3.790624 7.295557 1.934804 7.295557 0 
C 7.295557 -1.934804 6.526851 -3.790624 5.158738 -5.158738 
C 3.790624 -6.526851 1.934804 -7.295557 0 -7.295557 
C -1.934804 -7.295557 -3.790624 -6.526851 -5.158738 -5.158738 
C -6.526851 -3.790624 -7.295557 -1.934804 -7.295557 0 
C -7.295557 1.934804 -6.526851 3.790624 -5.158738 5.158738 
C -3.790624 6.526851 -1.934804 7.295557 0 7.295557 
z
" style="stroke: #000000"/>
    </defs>
    <g clip-path="url(#p1d759f2b7a)">
     <use xlink:href="#m7663c2a58a" x="401.51347" y="301.832391" style="stroke: #000000"/>
    </g>
   </g>
   <g id="line2d_3">
    <defs>
     <path id="mdea1e5d854" d="M 0 7.119911 
C 1.888223 7.119911 3.699363 6.369712 5.034537 5.034537 
C 6.369712 3.699363 7.119911 1.888223 7.119911 0 
C 7.119911 -1.888223 6.369712 -3.699363 5.034537 -5.034537 
C 3.699363 -6.369712 1.888223 -7.119911 0 -7.119911 
C -1.888223 -7.119911 -3.699363 -6.369712 -5.034537 -5.034537 
C -6.369712 -3.699363 -7.119911 -1.888223 -7.119911 0 
C -7.119911 1.888223 -6.369712 3.699363 -5.034537 5.034537 
C -3.699363 6.369712 -1.888223 7.119911 0 7.119911 
z
" style="stroke: #000000"/>
    </defs>
    <g clip-path="url(#p1d759f2b7a)">
     <use xlink:href="#mdea1e5d854" x="383.168741" y="282.855995" style="stroke: #000000"/>
    </g>
   </g>
   <g id="line2d_4">
    <defs>
     <path id="m0275f1f7f8" d="M 0 6.811598 
C 1.806457 6.811598 3.539169 6.093885 4.816527 4.816527 
C 6.093885 3.539169 6.811598 1.806457 6.811598 0 
C 6.811598 -1.806457 6.093885 -3.539169 4.816527 -4.816527 
C 3.539169 -6.093885 1.806457 -6.811598 0 -6.811598 
C -1.806457 -6.811598 -3.539169 -6.093885 -4.816527 -4.816527 
C -6.093885 -3.539169 -6.811598 -1.806457 -6.811598 0 
C -6.811598 1.806457 -6.093885 3.539169 -4.816527 4.816527 
C -3.539169 6.093885 -1.806457 6.811598 0 6.811598 
z
" style="stroke: #000000"/>
    </defs>
    <g clip-path="url(#p1d759f2b7a)">
     <use xlink:href="#m0275f1f7f8" x="366.33521" y="278.065369" style="stroke: #000000"/>
    </g>
   </g>
   <g id="line2d_5">
    <defs>
     <path id="m8de6077d20" d="M 0 6.670481 
C 1.769032 6.670481 3.465848 5.967637 4.716743 4.716743 
C 5.967637 3.465848 6.670481 1.769032 6.670481 0 
C 6.670481 -1.769032 5.967637 -3.465848 4.716743 -4.716743 
C 3.465848 -5.967637 1.769032 -6.670481 0 -6.670481 
C -1.769032 -6.670481 -3.465848 -5.967637 -4.716743 -4.716743 
C -5.967637 -3.465848 -6.670481 -1.769032 -6.670481 0 
C -6.670481 1.769032 -5.967637 3.465848 -4.716743 4.716743 
C -3.465848 5.967637 -1.769032 6.670481 0 6.670481 
z
" style="stroke: #000000"/>
    </defs>
    <g clip-path="url(#p1d759f2b7a)">
     <use xlink:href="#m8de6077d20" x="519.043591" y="59.688369" style="stroke: #000000"/>
    </g>
   </g>
   <g id="line2d_6">
    <defs>
     <path id="m7100d2d7d7" d="M 0 6.435664 
C 1.706758 6.435664 3.343841 5.757562 4.550702 4.550702 
C 5.757562 3.343841 6.435664 1.706758 6.435664 0 
C 6.435664 -1.706758 5.757562 -3.343841 4.550702 -4.550702 
C 3.343841 -5.757562 1.706758 -6.435664 0 -6.435664 
C -1.706758 -6.435664 -3.343841 -5.757562 -4.550702 -4.550702 
C -5.757562 -3.343841 -6.435664 -1.706758 -6.435664 0 
C -6.435664 1.706758 -5.757562 3.343841 -4.550702 4.550702 
C -3.343841 5.757562 -1.706758 6.435664 0 6.435664 
z
" style="stroke: #000000"/>
    </defs>
    <g clip-path="url(#p1d759f2b7a)">
     <use xlink:href="#m7100d2d7d7" x="622.636364" y="172.881913" style="stroke: #000000"/>
    </g>
   </g>
   <g id="line2d_7">
    <defs>
     <path id="m8ae294e6b8" d="M 0 6.127219 
C 1.624957 6.127219 3.18358 5.481617 4.332598 4.332598 
C 5.481617 3.18358 6.127219 1.624957 6.127219 0 
C 6.127219 -1.624957 5.481617 -3.18358 4.332598 -4.332598 
C 3.18358 -5.481617 1.624957 -6.127219 0 -6.127219 
C -1.624957 -6.127219 -3.18358 -5.481617 -4.332598 -4.332598 
C -5.481617 -3.18358 -6.127219 -1.624957 -6.127219 0 
C -6.127219 1.624957 -5.481617 3.18358 -4.332598 4.332598 
C -3.18358 5.481617 -1.624957 6.127219 0 6.127219 
z
" style="stroke: #000000"/>
    </defs>
    <g clip-path="url(#p1d759f2b7a)">
     <use xlink:href="#m8ae294e6b8" x="193.681711" y="63.319057" style="stroke: #000000"/>
    </g>
   </g>
   <g id="line2d_8">
    <defs>
     <path id="m374bc4b57c" d="M 0 6.118456 
C 1.622633 6.118456 3.179026 5.473776 4.326401 4.326401 
C 5.473776 3.179026 6.118456 1.622633 6.118456 0 
C 6.118456 -1.622633 5.473776 -3.179026 4.326401 -4.326401 
C 3.179026 -5.473776 1.622633 -6.118456 0 -6.118456 
C -1.622633 -6.118456 -3.179026 -5.473776 -4.326401 -4.326401 
C -5.473776 -3.179026 -6.118456 -1.622633 -6.118456 0 
C -6.118456 1.622633 -5.473776 3.179026 -4.326401 4.326401 
C -3.179026 5.473776 -1.622633 6.118456 0 6.118456 
z
" style="stroke: #000000"/>
    </defs>
    <g clip-path="url(#p1d759f2b7a)">
     <use xlink:href="#m374bc4b57c" x="221.642235" y="176.370034" style="stroke: #000000"/>
    </g>
   </g>
   <g id="line2d_9">
    <defs>
     <path id="m3094c9aa35" d="M 0 6.079463 
C 1.612292 6.079463 3.158766 5.438892 4.298829 4.298829 
C 5.438892 3.158766 6.079463 1.612292 6.079463 0 
C 6.079463 -1.612292 5.438892 -3.158766 4.298829 -4.298829 
C 3.158766 -5.438892 1.612292 -6.079463 0 -6.079463 
C -1.612292 -6.079463 -3.158766 -5.438892 -4.298829 -4.298829 
C -5.438892 -3.158766 -6.079463 -1.612292 -6.079463 0 
C -6.079463 1.612292 -5.438892 3.158766 -4.298829 4.298829 
C -3.158766 5.438892 -1.612292 6.079463 0 6.079463 
z
" style="stroke: #000000"/>
    </defs>
    <g clip-path="url(#p1d759f2b7a)">
     <use xlink:href="#m3094c9aa35" x="115.363636" y="85.248105" style="stroke: #000000"/>
    </g>
   </g>
   <g id="line2d_10">
    <defs>
     <path id="mf492b3d924" d="M 0 6.077883 
C 1.611874 6.077883 3.157946 5.437479 4.297713 4.297713 
C 5.437479 3.157946 6.077883 1.611874 6.077883 0 
C 6.077883 -1.611874 5.437479 -3.157946 4.297713 -4.297713 
C 3.157946 -5.437479 1.611874 -6.077883 0 -6.077883 
C -1.611874 -6.077883 -3.157946 -5.437479 -4.297713 -4.297713 
C -5.437479 -3.157946 -6.077883 -1.611874 -6.077883 0 
C -6.077883 1.611874 -5.437479 3.157946 -4.297713 4.297713 
C -3.157946 5.437479 -1.611874 6.077883 0 6.077883 
z
" style="stroke: #000000"/>
    </defs>
    <g clip-path="url(#p1d759f2b7a)">
     <use xlink:href="#mf492b3d924" x="241.720297" y="125.404596" style="stroke: #000000"/>
    </g>
   </g>
  </g>
 </g>
 <defs>
  <clipPath id="p1d759f2b7a">
   <path d="M 90 316.122795 
L 90 47.477205 
L 648 47.477205 
L 648 316.122795 
L 90 316.122795 
"/>
  </clipPath>
 </defs>
</svg>
