<?xml version="1.0" encoding="utf-8" standalone="no"?>
<!DOCTYPE svg PUBLIC "-//W3C//DTD SVG 1.1//EN"
  "http://www.w3.org/Graphics/SVG/1.1/DTD/svg11.dtd">
<svg xmlns:xlink="http://www.w3.org/1999/xlink" width="720pt" height="360pt" viewBox="0 0 720 360" xmlns="http://www.w3.org/2000/svg" version="1.1">
 <metadata>
  <rdf:RDF xmlns:dc="http://purl.org/dc/elements/1.1/" xmlns:cc="http://creativecommons.org/ns#" xmlns:rdf="http://www.w3.org/1999/02/22-rdf-syntax-ns#">
   <cc:Work>
    <dc:type rdf:resource="http://purl.org/dc/dcmitype/StillImage"/>
    <dc:date>2023-11-30T21:30:50.785206</dc:date>
    <dc:format>image/svg+xml</dc:format>
    <dc:creator>
     <cc:Agent>
      <dc:title>Matplotlib v3.8.1, https://matplotlib.org/</dc:title>
     </cc:Agent>
    </dc:creator>
   </cc:Work>
  </rdf:RDF>
 </metadata>
 <defs>
  <style type="text/css">*{stroke-linejoin: round; stroke-linecap: butt}</style>
 </defs>
 <g id="figure_1">
  <g id="patch_1">
   <path d="M 0 360 
L 720 360 
L 720 0 
L 0 0 
z
" style="fill: #ffffff"/>
  </g>
  <g id="axes_1">
   <g id="patch_2">
    <path d="M 188.13077 320.4 
L 188.13077 43.2 
L 549.86923 43.2 
L 549.86923 320.4 
L 188.13077 320.4 
" style="fill: #ffffff"/>
   </g>
   <g id="line2d_1">
    <defs>
     <path id="m86557bb785" d="M 0 9.781207 
C 2.594006 9.781207 5.082118 8.750597 6.916358 6.916358 
C 8.750597 5.082118 9.781207 2.594006 9.781207 0 
C 9.781207 -2.594006 8.750597 -5.082118 6.916358 -6.916358 
C 5.082118 -8.750597 2.594006 -9.781207 0 -9.781207 
C -2.594006 -9.781207 -5.082118 -8.750597 -6.916358 -6.916358 
C -8.750597 -5.082118 -9.781207 -2.594006 -9.781207 0 
C -9.781207 2.594006 -8.750597 5.082118 -6.916358 6.916358 
C -5.082118 8.750597 -2.594006 9.781207 0 9.781207 
z
" style="stroke: #000000"/>
    </defs>
    <g clip-path="url(#pc001ffe0b2)">
     <use xlink:href="#m86557bb785" x="204.573427" y="228.454923" style="stroke: #000000"/>
    </g>
   </g>
   <g id="line2d_2">
    <defs>
     <path id="m23df9bbf8c" d="M 0 8.77321 
C 2.326682 8.77321 4.558383 7.848809 6.203596 6.203596 
C 7.848809 4.558383 8.77321 2.326682 8.77321 0 
C 8.77321 -2.326682 7.848809 -4.558383 6.203596 -6.203596 
C 4.558383 -7.848809 2.326682 -8.77321 0 -8.77321 
C -2.326682 -8.77321 -4.558383 -7.848809 -6.203596 -6.203596 
C -7.848809 -4.558383 -8.77321 -2.326682 -8.77321 0 
C -8.77321 2.326682 -7.848809 4.558383 -6.203596 6.203596 
C -4.558383 7.848809 -2.326682 8.77321 0 8.77321 
z
" style="stroke: #000000"/>
    </defs>
    <g clip-path="url(#pc001ffe0b2)">
     <use xlink:href="#m23df9bbf8c" x="533.426573" y="214.105422" style="stroke: #000000"/>
    </g>
   </g>
   <g id="line2d_3">
    <defs>
     <path id="m275e99c996" d="M 0 8.659413 
C 2.296503 8.659413 4.499256 7.747002 6.123129 6.123129 
C 7.747002 4.499256 8.659413 2.296503 8.659413 0 
C 8.659413 -2.296503 7.747002 -4.499256 6.123129 -6.123129 
C 4.499256 -7.747002 2.296503 -8.659413 0 -8.659413 
C -2.296503 -8.659413 -4.499256 -7.747002 -6.123129 -6.123129 
C -7.747002 -4.499256 -8.659413 -2.296503 -8.659413 0 
C -8.659413 2.296503 -7.747002 4.499256 -6.123129 6.123129 
C -4.499256 7.747002 -2.296503 8.659413 0 8.659413 
z
" style="stroke: #000000"/>
    </defs>
    <g clip-path="url(#pc001ffe0b2)">
     <use xlink:href="#m275e99c996" x="443.239256" y="229.122335" style="stroke: #000000"/>
    </g>
   </g>
   <g id="line2d_4">
    <defs>
     <path id="mc70bf28dd4" d="M 0 8.461878 
C 2.244116 8.461878 4.396622 7.570282 5.983452 5.983452 
C 7.570282 4.396622 8.461878 2.244116 8.461878 0 
C 8.461878 -2.244116 7.570282 -4.396622 5.983452 -5.983452 
C 4.396622 -7.570282 2.244116 -8.461878 0 -8.461878 
C -2.244116 -8.461878 -4.396622 -7.570282 -5.983452 -5.983452 
C -7.570282 -4.396622 -8.461878 -2.244116 -8.461878 0 
C -8.461878 2.244116 -7.570282 4.396622 -5.983452 5.983452 
C -4.396622 7.570282 -2.244116 8.461878 0 8.461878 
z
" style="stroke: #000000"/>
    </defs>
    <g clip-path="url(#pc001ffe0b2)">
     <use xlink:href="#mc70bf28dd4" x="485.760246" y="58.05432" style="stroke: #000000"/>
    </g>
   </g>
   <g id="line2d_5">
    <defs>
     <path id="me54f21ae02" d="M 0 8.2172 
C 2.179227 8.2172 4.269492 7.351384 5.810438 5.810438 
C 7.351384 4.269492 8.2172 2.179227 8.2172 0 
C 8.2172 -2.179227 7.351384 -4.269492 5.810438 -5.810438 
C 4.269492 -7.351384 2.179227 -8.2172 0 -8.2172 
C -2.179227 -8.2172 -4.269492 -7.351384 -5.810438 -5.810438 
C -7.351384 -4.269492 -8.2172 -2.179227 -8.2172 0 
C -8.2172 2.179227 -7.351384 4.269492 -5.810438 5.810438 
C -4.269492 7.351384 -2.179227 8.2172 0 8.2172 
z
" style="stroke: #000000"/>
    </defs>
    <g clip-path="url(#pc001ffe0b2)">
     <use xlink:href="#me54f21ae02" x="486.988491" y="55.8" style="stroke: #000000"/>
    </g>
   </g>
   <g id="line2d_6">
    <defs>
     <path id="m6503122eec" d="M 0 8.147687 
C 2.160792 8.147687 4.233374 7.289195 5.761285 5.761285 
C 7.289195 4.233374 8.147687 2.160792 8.147687 0 
C 8.147687 -2.160792 7.289195 -4.233374 5.761285 -5.761285 
C 4.233374 -7.289195 2.160792 -8.147687 0 -8.147687 
C -2.160792 -8.147687 -4.233374 -7.289195 -5.761285 -5.761285 
C -7.289195 -4.233374 -8.147687 -2.160792 -8.147687 0 
C -8.147687 2.160792 -7.289195 4.233374 -5.761285 5.761285 
C -4.233374 7.289195 -2.160792 8.147687 0 8.147687 
z
" style="stroke: #000000"/>
    </defs>
    <g clip-path="url(#pc001ffe0b2)">
     <use xlink:href="#m6503122eec" x="355.625086" y="161.061636" style="stroke: #000000"/>
    </g>
   </g>
   <g id="line2d_7">
    <defs>
     <path id="mb6633effd5" d="M 0 7.801219 
C 2.068907 7.801219 4.053356 6.979233 5.516295 5.516295 
C 6.979233 4.053356 7.801219 2.068907 7.801219 0 
C 7.801219 -2.068907 6.979233 -4.053356 5.516295 -5.516295 
C 4.053356 -6.979233 2.068907 -7.801219 0 -7.801219 
C -2.068907 -7.801219 -4.053356 -6.979233 -5.516295 -5.516295 
C -6.979233 -4.053356 -7.801219 -2.068907 -7.801219 0 
C -7.801219 2.068907 -6.979233 4.053356 -5.516295 5.516295 
C -4.053356 6.979233 -2.068907 7.801219 0 7.801219 
z
" style="stroke: #000000"/>
    </defs>
    <g clip-path="url(#pc001ffe0b2)">
     <use xlink:href="#mb6633effd5" x="256.394942" y="251.136214" style="stroke: #000000"/>
    </g>
   </g>
   <g id="line2d_8">
    <defs>
     <path id="mbf7ac2c2e0" d="M 0 7.776935 
C 2.062467 7.776935 4.040739 6.957508 5.499123 5.499123 
C 6.957508 4.040739 7.776935 2.062467 7.776935 0 
C 7.776935 -2.062467 6.957508 -4.040739 5.499123 -5.499123 
C 4.040739 -6.957508 2.062467 -7.776935 0 -7.776935 
C -2.062467 -7.776935 -4.040739 -6.957508 -5.499123 -5.499123 
C -6.957508 -4.040739 -7.776935 -2.062467 -7.776935 0 
C -7.776935 2.062467 -6.957508 4.040739 -5.499123 5.499123 
C -4.040739 6.957508 -2.062467 7.776935 0 7.776935 
z
" style="stroke: #000000"/>
    </defs>
    <g clip-path="url(#pc001ffe0b2)">
     <use xlink:href="#mbf7ac2c2e0" x="354.719561" y="214.651866" style="stroke: #000000"/>
    </g>
   </g>
   <g id="line2d_9">
    <defs>
     <path id="md6e4cbd8d0" d="M 0 7.563352 
C 2.005824 7.563352 3.929766 6.76643 5.348098 5.348098 
C 6.76643 3.929766 7.563352 2.005824 7.563352 0 
C 7.563352 -2.005824 6.76643 -3.929766 5.348098 -5.348098 
C 3.929766 -6.76643 2.005824 -7.563352 0 -7.563352 
C -2.005824 -7.563352 -3.929766 -6.76643 -5.348098 -5.348098 
C -6.76643 -3.929766 -7.563352 -2.005824 -7.563352 0 
C -7.563352 2.005824 -6.76643 3.929766 -5.348098 5.348098 
C -3.929766 6.76643 -2.005824 7.563352 0 7.563352 
z
" style="stroke: #000000"/>
    </defs>
    <g clip-path="url(#pc001ffe0b2)">
     <use xlink:href="#md6e4cbd8d0" x="485.58287" y="216.540981" style="stroke: #000000"/>
    </g>
   </g>
   <g id="line2d_10">
    <defs>
     <path id="mdce88773ab" d="M 0 7.506225 
C 1.990674 7.506225 3.900083 6.715322 5.307703 5.307703 
C 6.715322 3.900083 7.506225 1.990674 7.506225 0 
C 7.506225 -1.990674 6.715322 -3.900083 5.307703 -5.307703 
C 3.900083 -6.715322 1.990674 -7.506225 0 -7.506225 
C -1.990674 -7.506225 -3.900083 -6.715322 -5.307703 -5.307703 
C -6.715322 -3.900083 -7.506225 -1.990674 -7.506225 0 
C -7.506225 1.990674 -6.715322 3.900083 -5.307703 5.307703 
C -3.900083 6.715322 -1.990674 7.506225 0 7.506225 
z
" style="stroke: #000000"/>
    </defs>
    <g clip-path="url(#pc001ffe0b2)">
     <use xlink:href="#mdce88773ab" x="268.609979" y="307.8" style="stroke: #000000"/>
    </g>
   </g>
  </g>
 </g>
 <defs>
  <clipPath id="pc001ffe0b2">
   <path d="M 188.13077 320.4 
L 188.13077 43.2 
L 549.86923 43.2 
L 549.86923 320.4 
L 188.13077 320.4 
"/>
  </clipPath>
 </defs>
</svg>
