<?xml version="1.0" encoding="utf-8" standalone="no"?>
<!DOCTYPE svg PUBLIC "-//W3C//DTD SVG 1.1//EN"
  "http://www.w3.org/Graphics/SVG/1.1/DTD/svg11.dtd">
<svg xmlns:xlink="http://www.w3.org/1999/xlink" width="720pt" height="360pt" viewBox="0 0 720 360" xmlns="http://www.w3.org/2000/svg" version="1.1">
 <metadata>
  <rdf:RDF xmlns:dc="http://purl.org/dc/elements/1.1/" xmlns:cc="http://creativecommons.org/ns#" xmlns:rdf="http://www.w3.org/1999/02/22-rdf-syntax-ns#">
   <cc:Work>
    <dc:type rdf:resource="http://purl.org/dc/dcmitype/StillImage"/>
    <dc:date>2023-11-30T21:30:49.082710</dc:date>
    <dc:format>image/svg+xml</dc:format>
    <dc:creator>
     <cc:Agent>
      <dc:title>Matplotlib v3.8.1, https://matplotlib.org/</dc:title>
     </cc:Agent>
    </dc:creator>
   </cc:Work>
  </rdf:RDF>
 </metadata>
 <defs>
  <style type="text/css">*{stroke-linejoin: round; stroke-linecap: butt}</style>
 </defs>
 <g id="figure_1">
  <g id="patch_1">
   <path d="M 0 360 
L 720 360 
L 720 0 
L 0 0 
z
" style="fill: #ffffff"/>
  </g>
  <g id="axes_1">
   <g id="patch_2">
    <path d="M 271.189162 320.4 
L 271.189162 43.2 
L 466.810838 43.2 
L 466.810838 320.4 
L 271.189162 320.4 
" style="fill: #ffffff"/>
   </g>
   <g id="line2d_1">
    <defs>
     <path id="m15bc932c56" d="M 0 11.937651 
C 3.165902 11.937651 6.202563 10.679825 8.441194 8.441194 
C 10.679825 6.202563 11.937651 3.165902 11.937651 0 
C 11.937651 -3.165902 10.679825 -6.202563 8.441194 -8.441194 
C 6.202563 -10.679825 3.165902 -11.937651 0 -11.937651 
C -3.165902 -11.937651 -6.202563 -10.679825 -8.441194 -8.441194 
C -10.679825 -6.202563 -11.937651 -3.165902 -11.937651 0 
C -11.937651 3.165902 -10.679825 6.202563 -8.441194 8.441194 
C -6.202563 10.679825 -3.165902 11.937651 0 11.937651 
z
" style="stroke: #000000"/>
    </defs>
    <g clip-path="url(#pda2edf6bf9)">
     <use xlink:href="#m15bc932c56" x="280.081056" y="249.691586" style="stroke: #000000"/>
    </g>
   </g>
   <g id="line2d_2">
    <defs>
     <path id="md93da02ddc" d="M 0 10.984124 
C 2.913024 10.984124 5.70713 9.826767 7.766949 7.766949 
C 9.826767 5.70713 10.984124 2.913024 10.984124 0 
C 10.984124 -2.913024 9.826767 -5.70713 7.766949 -7.766949 
C 5.70713 -9.826767 2.913024 -10.984124 0 -10.984124 
C -2.913024 -10.984124 -5.70713 -9.826767 -7.766949 -7.766949 
C -9.826767 -5.70713 -10.984124 -2.913024 -10.984124 0 
C -10.984124 2.913024 -9.826767 5.70713 -7.766949 7.766949 
C -5.70713 9.826767 -2.913024 10.984124 0 10.984124 
z
" style="stroke: #000000"/>
    </defs>
    <g clip-path="url(#pda2edf6bf9)">
     <use xlink:href="#md93da02ddc" x="457.918944" y="55.8" style="stroke: #000000"/>
    </g>
   </g>
   <g id="line2d_3">
    <defs>
     <path id="m606300e45b" d="M 0 10.899535 
C 2.89059 10.899535 5.663179 9.751091 7.707135 7.707135 
C 9.751091 5.663179 10.899535 2.89059 10.899535 0 
C 10.899535 -2.89059 9.751091 -5.663179 7.707135 -7.707135 
C 5.663179 -9.751091 2.89059 -10.899535 0 -10.899535 
C -2.89059 -10.899535 -5.663179 -9.751091 -7.707135 -7.707135 
C -9.751091 -5.663179 -10.899535 -2.89059 -10.899535 0 
C -10.899535 2.89059 -9.751091 5.663179 -7.707135 7.707135 
C -5.663179 9.751091 -2.89059 10.899535 0 10.899535 
z
" style="stroke: #000000"/>
    </defs>
    <g clip-path="url(#pda2edf6bf9)">
     <use xlink:href="#m606300e45b" x="297.83134" y="217.6057" style="stroke: #000000"/>
    </g>
   </g>
   <g id="line2d_4">
    <defs>
     <path id="m2a96128715" d="M 0 10.415372 
C 2.762189 10.415372 5.411618 9.317943 7.364781 7.364781 
C 9.317943 5.411618 10.415372 2.762189 10.415372 0 
C 10.415372 -2.762189 9.317943 -5.411618 7.364781 -7.364781 
C 5.411618 -9.317943 2.762189 -10.415372 0 -10.415372 
C -2.762189 -10.415372 -5.411618 -9.317943 -7.364781 -7.364781 
C -9.317943 -5.411618 -10.415372 -2.762189 -10.415372 0 
C -10.415372 2.762189 -9.317943 5.411618 -7.364781 7.364781 
C -5.411618 9.317943 -2.762189 10.415372 0 10.415372 
z
" style="stroke: #000000"/>
    </defs>
    <g clip-path="url(#pda2edf6bf9)">
     <use xlink:href="#m2a96128715" x="405.723582" y="307.8" style="stroke: #000000"/>
    </g>
   </g>
   <g id="line2d_5">
    <defs>
     <path id="m80f86c876d" d="M 0 10.382533 
C 2.75348 10.382533 5.394555 9.288564 7.34156 7.34156 
C 9.288564 5.394555 10.382533 2.75348 10.382533 0 
C 10.382533 -2.75348 9.288564 -5.394555 7.34156 -7.34156 
C 5.394555 -9.288564 2.75348 -10.382533 0 -10.382533 
C -2.75348 -10.382533 -5.394555 -9.288564 -7.34156 -7.34156 
C -9.288564 -5.394555 -10.382533 -2.75348 -10.382533 0 
C -10.382533 2.75348 -9.288564 5.394555 -7.34156 7.34156 
C -5.394555 9.288564 -2.75348 10.382533 0 10.382533 
z
" style="stroke: #000000"/>
    </defs>
    <g clip-path="url(#pda2edf6bf9)">
     <use xlink:href="#m80f86c876d" x="357.54429" y="253.714767" style="stroke: #000000"/>
    </g>
   </g>
   <g id="line2d_6">
    <defs>
     <path id="me8afcb3bc3" d="M 0 10.296706 
C 2.730718 10.296706 5.349961 9.21178 7.280871 7.280871 
C 9.21178 5.349961 10.296706 2.730718 10.296706 0 
C 10.296706 -2.730718 9.21178 -5.349961 7.280871 -7.280871 
C 5.349961 -9.21178 2.730718 -10.296706 0 -10.296706 
C -2.730718 -10.296706 -5.349961 -9.21178 -7.280871 -7.280871 
C -9.21178 -5.349961 -10.296706 -2.730718 -10.296706 0 
C -10.296706 2.730718 -9.21178 5.349961 -7.280871 7.280871 
C -5.349961 9.21178 -2.730718 10.296706 0 10.296706 
z
" style="stroke: #000000"/>
    </defs>
    <g clip-path="url(#pda2edf6bf9)">
     <use xlink:href="#me8afcb3bc3" x="420.493149" y="107.637671" style="stroke: #000000"/>
    </g>
   </g>
   <g id="line2d_7">
    <defs>
     <path id="m8f7664dfc3" d="M 0 10.283314 
C 2.727167 10.283314 5.343003 9.199799 7.271401 7.271401 
C 9.199799 5.343003 10.283314 2.727167 10.283314 0 
C 10.283314 -2.727167 9.199799 -5.343003 7.271401 -7.271401 
C 5.343003 -9.199799 2.727167 -10.283314 0 -10.283314 
C -2.727167 -10.283314 -5.343003 -9.199799 -7.271401 -7.271401 
C -9.199799 -5.343003 -10.283314 -2.727167 -10.283314 0 
C -10.283314 2.727167 -9.199799 5.343003 -7.271401 7.271401 
C -5.343003 9.199799 -2.727167 10.283314 0 10.283314 
z
" style="stroke: #000000"/>
    </defs>
    <g clip-path="url(#pda2edf6bf9)">
     <use xlink:href="#m8f7664dfc3" x="397.817477" y="260.250491" style="stroke: #000000"/>
    </g>
   </g>
   <g id="line2d_8">
    <defs>
     <path id="mfa5df40ba6" d="M 0 10.118554 
C 2.683472 10.118554 5.257397 9.052399 7.154898 7.154898 
C 9.052399 5.257397 10.118554 2.683472 10.118554 0 
C 10.118554 -2.683472 9.052399 -5.257397 7.154898 -7.154898 
C 5.257397 -9.052399 2.683472 -10.118554 0 -10.118554 
C -2.683472 -10.118554 -5.257397 -9.052399 -7.154898 -7.154898 
C -9.052399 -5.257397 -10.118554 -2.683472 -10.118554 0 
C -10.118554 2.683472 -9.052399 5.257397 -7.154898 7.154898 
C -5.257397 9.052399 -2.683472 10.118554 0 10.118554 
z
" style="stroke: #000000"/>
    </defs>
    <g clip-path="url(#pda2edf6bf9)">
     <use xlink:href="#mfa5df40ba6" x="422.447541" y="159.045065" style="stroke: #000000"/>
    </g>
   </g>
   <g id="line2d_9">
    <defs>
     <path id="m1051c6f45d" d="M 0 9.947635 
C 2.638144 9.947635 5.168591 8.89949 7.03404 7.03404 
C 8.89949 5.168591 9.947635 2.638144 9.947635 0 
C 9.947635 -2.638144 8.89949 -5.168591 7.03404 -7.03404 
C 5.168591 -8.89949 2.638144 -9.947635 0 -9.947635 
C -2.638144 -9.947635 -5.168591 -8.89949 -7.03404 -7.03404 
C -8.89949 -5.168591 -9.947635 -2.638144 -9.947635 0 
C -9.947635 2.638144 -8.89949 5.168591 -7.03404 7.03404 
C -5.168591 8.89949 -2.638144 9.947635 0 9.947635 
z
" style="stroke: #000000"/>
    </defs>
    <g clip-path="url(#pda2edf6bf9)">
     <use xlink:href="#m1051c6f45d" x="430.350521" y="87.096936" style="stroke: #000000"/>
    </g>
   </g>
   <g id="line2d_10">
    <defs>
     <path id="mfa570926fb" d="M 0 9.887825 
C 2.622282 9.887825 5.137515 8.845982 6.991748 6.991748 
C 8.845982 5.137515 9.887825 2.622282 9.887825 0 
C 9.887825 -2.622282 8.845982 -5.137515 6.991748 -6.991748 
C 5.137515 -8.845982 2.622282 -9.887825 0 -9.887825 
C -2.622282 -9.887825 -5.137515 -8.845982 -6.991748 -6.991748 
C -8.845982 -5.137515 -9.887825 -2.622282 -9.887825 0 
C -9.887825 2.622282 -8.845982 5.137515 -6.991748 6.991748 
C -5.137515 8.845982 -2.622282 9.887825 0 9.887825 
z
" style="stroke: #000000"/>
    </defs>
    <g clip-path="url(#pda2edf6bf9)">
     <use xlink:href="#mfa570926fb" x="417.989138" y="296.40511" style="stroke: #000000"/>
    </g>
   </g>
  </g>
 </g>
 <defs>
  <clipPath id="pda2edf6bf9">
   <path d="M 271.189162 320.4 
L 271.189162 43.2 
L 466.810838 43.2 
L 466.810838 320.4 
L 271.189162 320.4 
"/>
  </clipPath>
 </defs>
</svg>
