<?xml version="1.0" encoding="utf-8" standalone="no"?>
<!DOCTYPE svg PUBLIC "-//W3C//DTD SVG 1.1//EN"
  "http://www.w3.org/Graphics/SVG/1.1/DTD/svg11.dtd">
<svg xmlns:xlink="http://www.w3.org/1999/xlink" width="720pt" height="360pt" viewBox="0 0 720 360" xmlns="http://www.w3.org/2000/svg" version="1.1">
 <metadata>
  <rdf:RDF xmlns:dc="http://purl.org/dc/elements/1.1/" xmlns:cc="http://creativecommons.org/ns#" xmlns:rdf="http://www.w3.org/1999/02/22-rdf-syntax-ns#">
   <cc:Work>
    <dc:type rdf:resource="http://purl.org/dc/dcmitype/StillImage"/>
    <dc:date>2023-11-30T21:30:49.132790</dc:date>
    <dc:format>image/svg+xml</dc:format>
    <dc:creator>
     <cc:Agent>
      <dc:title>Matplotlib v3.8.1, https://matplotlib.org/</dc:title>
     </cc:Agent>
    </dc:creator>
   </cc:Work>
  </rdf:RDF>
 </metadata>
 <defs>
  <style type="text/css">*{stroke-linejoin: round; stroke-linecap: butt}</style>
 </defs>
 <g id="figure_1">
  <g id="patch_1">
   <path d="M 0 360 
L 720 360 
L 720 0 
L 0 0 
z
" style="fill: #ffffff"/>
  </g>
  <g id="axes_1">
   <g id="patch_2">
    <path d="M 222.606427 320.4 
L 222.606427 43.2 
L 515.393573 43.2 
L 515.393573 320.4 
L 222.606427 320.4 
" style="fill: #ffffff"/>
   </g>
   <g id="line2d_1">
    <defs>
     <path id="m17b615a6d6" d="M 0 9.946105 
C 2.637738 9.946105 5.167796 8.898121 7.032959 7.032959 
C 8.898121 5.167796 9.946105 2.637738 9.946105 0 
C 9.946105 -2.637738 8.898121 -5.167796 7.032959 -7.032959 
C 5.167796 -8.898121 2.637738 -9.946105 0 -9.946105 
C -2.637738 -9.946105 -5.167796 -8.898121 -7.032959 -7.032959 
C -8.898121 -5.167796 -9.946105 -2.637738 -9.946105 0 
C -9.946105 2.637738 -8.898121 5.167796 -7.032959 7.032959 
C -5.167796 8.898121 -2.637738 9.946105 0 9.946105 
z
" style="stroke: #000000"/>
    </defs>
    <g clip-path="url(#p859ca9a003)">
     <use xlink:href="#m17b615a6d6" x="431.144577" y="263.869659" style="stroke: #000000"/>
    </g>
   </g>
   <g id="line2d_2">
    <defs>
     <path id="m7d860cb218" d="M 0 8.57055 
C 2.272936 8.57055 4.453085 7.667502 6.060294 6.060294 
C 7.667502 4.453085 8.57055 2.272936 8.57055 0 
C 8.57055 -2.272936 7.667502 -4.453085 6.060294 -6.060294 
C 4.453085 -7.667502 2.272936 -8.57055 0 -8.57055 
C -2.272936 -8.57055 -4.453085 -7.667502 -6.060294 -6.060294 
C -7.667502 -4.453085 -8.57055 -2.272936 -8.57055 0 
C -8.57055 2.272936 -7.667502 4.453085 -6.060294 6.060294 
C -4.453085 7.667502 -2.272936 8.57055 0 8.57055 
z
" style="stroke: #000000"/>
    </defs>
    <g clip-path="url(#p859ca9a003)">
     <use xlink:href="#m7d860cb218" x="297.407487" y="197.771651" style="stroke: #000000"/>
    </g>
   </g>
   <g id="line2d_3">
    <defs>
     <path id="m31ec3350c6" d="M 0 8.494708 
C 2.252823 8.494708 4.413679 7.599652 6.006666 6.006666 
C 7.599652 4.413679 8.494708 2.252823 8.494708 0 
C 8.494708 -2.252823 7.599652 -4.413679 6.006666 -6.006666 
C 4.413679 -7.599652 2.252823 -8.494708 0 -8.494708 
C -2.252823 -8.494708 -4.413679 -7.599652 -6.006666 -6.006666 
C -7.599652 -4.413679 -8.494708 -2.252823 -8.494708 0 
C -8.494708 2.252823 -7.599652 4.413679 -6.006666 6.006666 
C -4.413679 7.599652 -2.252823 8.494708 0 8.494708 
z
" style="stroke: #000000"/>
    </defs>
    <g clip-path="url(#p859ca9a003)">
     <use xlink:href="#m31ec3350c6" x="464.433955" y="298.156987" style="stroke: #000000"/>
    </g>
   </g>
   <g id="line2d_4">
    <defs>
     <path id="m201a5c6dea" d="M 0 8.47375 
C 2.247265 8.47375 4.40279 7.580902 5.991846 5.991846 
C 7.580902 4.40279 8.47375 2.247265 8.47375 0 
C 8.47375 -2.247265 7.580902 -4.40279 5.991846 -5.991846 
C 4.40279 -7.580902 2.247265 -8.47375 0 -8.47375 
C -2.247265 -8.47375 -4.40279 -7.580902 -5.991846 -5.991846 
C -7.580902 -4.40279 -8.47375 -2.247265 -8.47375 0 
C -8.47375 2.247265 -7.580902 4.40279 -5.991846 5.991846 
C -4.40279 7.580902 -2.247265 8.47375 0 8.47375 
z
" style="stroke: #000000"/>
    </defs>
    <g clip-path="url(#p859ca9a003)">
     <use xlink:href="#m201a5c6dea" x="243.496295" y="156.237518" style="stroke: #000000"/>
    </g>
   </g>
   <g id="line2d_5">
    <defs>
     <path id="m56eb1e06a9" d="M 0 8.36758 
C 2.219108 8.36758 4.347626 7.485919 5.916772 5.916772 
C 7.485919 4.347626 8.36758 2.219108 8.36758 0 
C 8.36758 -2.219108 7.485919 -4.347626 5.916772 -5.916772 
C 4.347626 -7.485919 2.219108 -8.36758 0 -8.36758 
C -2.219108 -8.36758 -4.347626 -7.485919 -5.916772 -5.916772 
C -7.485919 -4.347626 -8.36758 -2.219108 -8.36758 0 
C -8.36758 2.219108 -7.485919 4.347626 -5.916772 5.916772 
C -4.347626 7.485919 -2.219108 8.36758 0 8.36758 
z
" style="stroke: #000000"/>
    </defs>
    <g clip-path="url(#p859ca9a003)">
     <use xlink:href="#m56eb1e06a9" x="502.085067" y="91.928569" style="stroke: #000000"/>
    </g>
   </g>
   <g id="line2d_6">
    <defs>
     <path id="m14f43b2b1f" d="M 0 8.278545 
C 2.195496 8.278545 4.301365 7.406265 5.853815 5.853815 
C 7.406265 4.301365 8.278545 2.195496 8.278545 0 
C 8.278545 -2.195496 7.406265 -4.301365 5.853815 -5.853815 
C 4.301365 -7.406265 2.195496 -8.278545 0 -8.278545 
C -2.195496 -8.278545 -4.301365 -7.406265 -5.853815 -5.853815 
C -7.406265 -4.301365 -8.278545 -2.195496 -8.278545 0 
C -8.278545 2.195496 -7.406265 4.301365 -5.853815 5.853815 
C -4.301365 7.406265 -2.195496 8.278545 0 8.278545 
z
" style="stroke: #000000"/>
    </defs>
    <g clip-path="url(#p859ca9a003)">
     <use xlink:href="#m14f43b2b1f" x="409.103654" y="55.8" style="stroke: #000000"/>
    </g>
   </g>
   <g id="line2d_7">
    <defs>
     <path id="m943bfa7055" d="M 0 8.224074 
C 2.18105 8.224074 4.273063 7.357534 5.815299 5.815299 
C 7.357534 4.273063 8.224074 2.18105 8.224074 0 
C 8.224074 -2.18105 7.357534 -4.273063 5.815299 -5.815299 
C 4.273063 -7.357534 2.18105 -8.224074 0 -8.224074 
C -2.18105 -8.224074 -4.273063 -7.357534 -5.815299 -5.815299 
C -7.357534 -4.273063 -8.224074 -2.18105 -8.224074 0 
C -8.224074 2.18105 -7.357534 4.273063 -5.815299 5.815299 
C -4.273063 7.357534 -2.18105 8.224074 0 8.224074 
z
" style="stroke: #000000"/>
    </defs>
    <g clip-path="url(#p859ca9a003)">
     <use xlink:href="#m943bfa7055" x="493.87086" y="307.8" style="stroke: #000000"/>
    </g>
   </g>
   <g id="line2d_8">
    <defs>
     <path id="m7cb3a68e42" d="M 0 7.951034 
C 2.108639 7.951034 4.131197 7.113263 5.62223 5.62223 
C 7.113263 4.131197 7.951034 2.108639 7.951034 0 
C 7.951034 -2.108639 7.113263 -4.131197 5.62223 -5.62223 
C 4.131197 -7.113263 2.108639 -7.951034 0 -7.951034 
C -2.108639 -7.951034 -4.131197 -7.113263 -5.62223 -5.62223 
C -7.113263 -4.131197 -7.951034 -2.108639 -7.951034 0 
C -7.951034 2.108639 -7.113263 4.131197 -5.62223 5.62223 
C -4.131197 7.113263 -2.108639 7.951034 0 7.951034 
z
" style="stroke: #000000"/>
    </defs>
    <g clip-path="url(#p859ca9a003)">
     <use xlink:href="#m7cb3a68e42" x="393.282517" y="241.712008" style="stroke: #000000"/>
    </g>
   </g>
   <g id="line2d_9">
    <defs>
     <path id="mc67103dcdc" d="M 0 7.873585 
C 2.088099 7.873585 4.090956 7.043975 5.567465 5.567465 
C 7.043975 4.090956 7.873585 2.088099 7.873585 0 
C 7.873585 -2.088099 7.043975 -4.090956 5.567465 -5.567465 
C 4.090956 -7.043975 2.088099 -7.873585 0 -7.873585 
C -2.088099 -7.873585 -4.090956 -7.043975 -5.567465 -5.567465 
C -7.043975 -4.090956 -7.873585 -2.088099 -7.873585 0 
C -7.873585 2.088099 -7.043975 4.090956 -5.567465 5.567465 
C -4.090956 7.043975 -2.088099 7.873585 0 7.873585 
z
" style="stroke: #000000"/>
    </defs>
    <g clip-path="url(#p859ca9a003)">
     <use xlink:href="#mc67103dcdc" x="484.001027" y="55.978248" style="stroke: #000000"/>
    </g>
   </g>
   <g id="line2d_10">
    <defs>
     <path id="m421c5bb0cd" d="M 0 7.853693 
C 2.082824 7.853693 4.080621 7.026178 5.5534 5.5534 
C 7.026178 4.080621 7.853693 2.082824 7.853693 0 
C 7.853693 -2.082824 7.026178 -4.080621 5.5534 -5.5534 
C 4.080621 -7.026178 2.082824 -7.853693 0 -7.853693 
C -2.082824 -7.853693 -4.080621 -7.026178 -5.5534 -5.5534 
C -7.026178 -4.080621 -7.853693 -2.082824 -7.853693 0 
C -7.853693 2.082824 -7.026178 4.080621 -5.5534 5.5534 
C -4.080621 7.026178 -2.082824 7.853693 0 7.853693 
z
" style="stroke: #000000"/>
    </defs>
    <g clip-path="url(#p859ca9a003)">
     <use xlink:href="#m421c5bb0cd" x="235.914933" y="148.836162" style="stroke: #000000"/>
    </g>
   </g>
  </g>
 </g>
 <defs>
  <clipPath id="p859ca9a003">
   <path d="M 222.606427 320.4 
L 222.606427 43.2 
L 515.393573 43.2 
L 515.393573 320.4 
L 222.606427 320.4 
"/>
  </clipPath>
 </defs>
</svg>
