<?xml version="1.0" encoding="utf-8" standalone="no"?>
<!DOCTYPE svg PUBLIC "-//W3C//DTD SVG 1.1//EN"
  "http://www.w3.org/Graphics/SVG/1.1/DTD/svg11.dtd">
<svg xmlns:xlink="http://www.w3.org/1999/xlink" width="720pt" height="360pt" viewBox="0 0 720 360" xmlns="http://www.w3.org/2000/svg" version="1.1">
 <metadata>
  <rdf:RDF xmlns:dc="http://purl.org/dc/elements/1.1/" xmlns:cc="http://creativecommons.org/ns#" xmlns:rdf="http://www.w3.org/1999/02/22-rdf-syntax-ns#">
   <cc:Work>
    <dc:type rdf:resource="http://purl.org/dc/dcmitype/StillImage"/>
    <dc:date>2023-11-30T21:30:49.175341</dc:date>
    <dc:format>image/svg+xml</dc:format>
    <dc:creator>
     <cc:Agent>
      <dc:title>Matplotlib v3.8.1, https://matplotlib.org/</dc:title>
     </cc:Agent>
    </dc:creator>
   </cc:Work>
  </rdf:RDF>
 </metadata>
 <defs>
  <style type="text/css">*{stroke-linejoin: round; stroke-linecap: butt}</style>
 </defs>
 <g id="figure_1">
  <g id="patch_1">
   <path d="M 0 360 
L 720 360 
L 720 0 
L 0 0 
z
" style="fill: #ffffff"/>
  </g>
  <g id="axes_1">
   <g id="patch_2">
    <path d="M 260.722107 320.4 
L 260.722107 43.2 
L 477.277893 43.2 
L 477.277893 320.4 
L 260.722107 320.4 
" style="fill: #ffffff"/>
   </g>
   <g id="line2d_1">
    <defs>
     <path id="m7e4e4b117b" d="M 0 9.750177 
C 2.585777 9.750177 5.065996 8.722837 6.894416 6.894416 
C 8.722837 5.065996 9.750177 2.585777 9.750177 0 
C 9.750177 -2.585777 8.722837 -5.065996 6.894416 -6.894416 
C 5.065996 -8.722837 2.585777 -9.750177 0 -9.750177 
C -2.585777 -9.750177 -5.065996 -8.722837 -6.894416 -6.894416 
C -8.722837 -5.065996 -9.750177 -2.585777 -9.750177 0 
C -9.750177 2.585777 -8.722837 5.065996 -6.894416 6.894416 
C -5.065996 8.722837 -2.585777 9.750177 0 9.750177 
z
" style="stroke: #000000"/>
    </defs>
    <g clip-path="url(#pd457e78d3a)">
     <use xlink:href="#m7e4e4b117b" x="321.871632" y="176.831569" style="stroke: #000000"/>
    </g>
   </g>
   <g id="line2d_2">
    <defs>
     <path id="m1b20eba0b0" d="M 0 9.595134 
C 2.544659 9.595134 4.985439 8.58413 6.784784 6.784784 
C 8.58413 4.985439 9.595134 2.544659 9.595134 0 
C 9.595134 -2.544659 8.58413 -4.985439 6.784784 -6.784784 
C 4.985439 -8.58413 2.544659 -9.595134 0 -9.595134 
C -2.544659 -9.595134 -4.985439 -8.58413 -6.784784 -6.784784 
C -8.58413 -4.985439 -9.595134 -2.544659 -9.595134 0 
C -9.595134 2.544659 -8.58413 4.985439 -6.784784 6.784784 
C -4.985439 8.58413 -2.544659 9.595134 0 9.595134 
z
" style="stroke: #000000"/>
    </defs>
    <g clip-path="url(#pd457e78d3a)">
     <use xlink:href="#m1b20eba0b0" x="286.238262" y="240.542457" style="stroke: #000000"/>
    </g>
   </g>
   <g id="line2d_3">
    <defs>
     <path id="m7f2b13c133" d="M 0 9.42771 
C 2.500258 9.42771 4.898448 8.434347 6.666397 6.666397 
C 8.434347 4.898448 9.42771 2.500258 9.42771 0 
C 9.42771 -2.500258 8.434347 -4.898448 6.666397 -6.666397 
C 4.898448 -8.434347 2.500258 -9.42771 0 -9.42771 
C -2.500258 -9.42771 -4.898448 -8.434347 -6.666397 -6.666397 
C -8.434347 -4.898448 -9.42771 -2.500258 -9.42771 0 
C -9.42771 2.500258 -8.434347 4.898448 -6.666397 6.666397 
C -4.898448 8.434347 -2.500258 9.42771 0 9.42771 
z
" style="stroke: #000000"/>
    </defs>
    <g clip-path="url(#pd457e78d3a)">
     <use xlink:href="#m7f2b13c133" x="270.565552" y="218.861973" style="stroke: #000000"/>
    </g>
   </g>
   <g id="line2d_4">
    <defs>
     <path id="m694911971b" d="M 0 9.232303 
C 2.448435 9.232303 4.796919 8.259529 6.528224 6.528224 
C 8.259529 4.796919 9.232303 2.448435 9.232303 0 
C 9.232303 -2.448435 8.259529 -4.796919 6.528224 -6.528224 
C 4.796919 -8.259529 2.448435 -9.232303 0 -9.232303 
C -2.448435 -9.232303 -4.796919 -8.259529 -6.528224 -6.528224 
C -8.259529 -4.796919 -9.232303 -2.448435 -9.232303 0 
C -9.232303 2.448435 -8.259529 4.796919 -6.528224 6.528224 
C -4.796919 8.259529 -2.448435 9.232303 0 9.232303 
z
" style="stroke: #000000"/>
    </defs>
    <g clip-path="url(#pd457e78d3a)">
     <use xlink:href="#m694911971b" x="342.055368" y="216.866924" style="stroke: #000000"/>
    </g>
   </g>
   <g id="line2d_5">
    <defs>
     <path id="m1fa7032479" d="M 0 8.915663 
C 2.364461 8.915663 4.632399 7.976252 6.304326 6.304326 
C 7.976252 4.632399 8.915663 2.364461 8.915663 0 
C 8.915663 -2.364461 7.976252 -4.632399 6.304326 -6.304326 
C 4.632399 -7.976252 2.364461 -8.915663 0 -8.915663 
C -2.364461 -8.915663 -4.632399 -7.976252 -6.304326 -6.304326 
C -7.976252 -4.632399 -8.915663 -2.364461 -8.915663 0 
C -8.915663 2.364461 -7.976252 4.632399 -6.304326 6.304326 
C -4.632399 7.976252 -2.364461 8.915663 0 8.915663 
z
" style="stroke: #000000"/>
    </defs>
    <g clip-path="url(#pd457e78d3a)">
     <use xlink:href="#m1fa7032479" x="467.434448" y="55.8" style="stroke: #000000"/>
    </g>
   </g>
   <g id="line2d_6">
    <defs>
     <path id="mf7b8b9dcba" d="M 0 8.838712 
C 2.344054 8.838712 4.592417 7.907409 6.249913 6.249913 
C 7.907409 4.592417 8.838712 2.344054 8.838712 0 
C 8.838712 -2.344054 7.907409 -4.592417 6.249913 -6.249913 
C 4.592417 -7.907409 2.344054 -8.838712 0 -8.838712 
C -2.344054 -8.838712 -4.592417 -7.907409 -6.249913 -6.249913 
C -7.907409 -4.592417 -8.838712 -2.344054 -8.838712 0 
C -8.838712 2.344054 -7.907409 4.592417 -6.249913 6.249913 
C -4.592417 7.907409 -2.344054 8.838712 0 8.838712 
z
" style="stroke: #000000"/>
    </defs>
    <g clip-path="url(#pd457e78d3a)">
     <use xlink:href="#mf7b8b9dcba" x="372.918178" y="307.8" style="stroke: #000000"/>
    </g>
   </g>
   <g id="line2d_7">
    <defs>
     <path id="m0d89e7b110" d="M 0 8.803427 
C 2.334696 8.803427 4.574083 7.875842 6.224963 6.224963 
C 7.875842 4.574083 8.803427 2.334696 8.803427 0 
C 8.803427 -2.334696 7.875842 -4.574083 6.224963 -6.224963 
C 4.574083 -7.875842 2.334696 -8.803427 0 -8.803427 
C -2.334696 -8.803427 -4.574083 -7.875842 -6.224963 -6.224963 
C -7.875842 -4.574083 -8.803427 -2.334696 -8.803427 0 
C -8.803427 2.334696 -7.875842 4.574083 -6.224963 6.224963 
C -4.574083 7.875842 -2.334696 8.803427 0 8.803427 
z
" style="stroke: #000000"/>
    </defs>
    <g clip-path="url(#pd457e78d3a)">
     <use xlink:href="#m0d89e7b110" x="339.371494" y="291.851836" style="stroke: #000000"/>
    </g>
   </g>
   <g id="line2d_8">
    <defs>
     <path id="mc09095aa68" d="M 0 8.71438 
C 2.311081 8.71438 4.527817 7.796178 6.161998 6.161998 
C 7.796178 4.527817 8.71438 2.311081 8.71438 0 
C 8.71438 -2.311081 7.796178 -4.527817 6.161998 -6.161998 
C 4.527817 -7.796178 2.311081 -8.71438 0 -8.71438 
C -2.311081 -8.71438 -4.527817 -7.796178 -6.161998 -6.161998 
C -7.796178 -4.527817 -8.71438 -2.311081 -8.71438 0 
C -8.71438 2.311081 -7.796178 4.527817 -6.161998 6.161998 
C -4.527817 7.796178 -2.311081 8.71438 0 8.71438 
z
" style="stroke: #000000"/>
    </defs>
    <g clip-path="url(#pd457e78d3a)">
     <use xlink:href="#mc09095aa68" x="350.033208" y="177.367634" style="stroke: #000000"/>
    </g>
   </g>
   <g id="line2d_9">
    <defs>
     <path id="m574318fed7" d="M 0 8.67765 
C 2.30134 8.67765 4.508732 7.763318 6.136025 6.136025 
C 7.763318 4.508732 8.67765 2.30134 8.67765 0 
C 8.67765 -2.30134 7.763318 -4.508732 6.136025 -6.136025 
C 4.508732 -7.763318 2.30134 -8.67765 0 -8.67765 
C -2.30134 -8.67765 -4.508732 -7.763318 -6.136025 -6.136025 
C -7.763318 -4.508732 -8.67765 -2.30134 -8.67765 0 
C -8.67765 2.30134 -7.763318 4.508732 -6.136025 6.136025 
C -4.508732 7.763318 -2.30134 8.67765 0 8.67765 
z
" style="stroke: #000000"/>
    </defs>
    <g clip-path="url(#pd457e78d3a)">
     <use xlink:href="#m574318fed7" x="311.999803" y="287.526866" style="stroke: #000000"/>
    </g>
   </g>
   <g id="line2d_10">
    <defs>
     <path id="m647be731a6" d="M 0 8.638121 
C 2.290857 8.638121 4.488194 7.727954 6.108074 6.108074 
C 7.727954 4.488194 8.638121 2.290857 8.638121 0 
C 8.638121 -2.290857 7.727954 -4.488194 6.108074 -6.108074 
C 4.488194 -7.727954 2.290857 -8.638121 0 -8.638121 
C -2.290857 -8.638121 -4.488194 -7.727954 -6.108074 -6.108074 
C -7.727954 -4.488194 -8.638121 -2.290857 -8.638121 0 
C -8.638121 2.290857 -7.727954 4.488194 -6.108074 6.108074 
C -4.488194 7.727954 -2.290857 8.638121 0 8.638121 
z
" style="stroke: #000000"/>
    </defs>
    <g clip-path="url(#pd457e78d3a)">
     <use xlink:href="#m647be731a6" x="405.468391" y="251.763142" style="stroke: #000000"/>
    </g>
   </g>
  </g>
 </g>
 <defs>
  <clipPath id="pd457e78d3a">
   <path d="M 260.722107 320.4 
L 260.722107 43.2 
L 477.277893 43.2 
L 477.277893 320.4 
L 260.722107 320.4 
"/>
  </clipPath>
 </defs>
</svg>
