<?xml version="1.0" encoding="utf-8" standalone="no"?>
<!DOCTYPE svg PUBLIC "-//W3C//DTD SVG 1.1//EN"
  "http://www.w3.org/Graphics/SVG/1.1/DTD/svg11.dtd">
<svg xmlns:xlink="http://www.w3.org/1999/xlink" width="720pt" height="360pt" viewBox="0 0 720 360" xmlns="http://www.w3.org/2000/svg" version="1.1">
 <metadata>
  <rdf:RDF xmlns:dc="http://purl.org/dc/elements/1.1/" xmlns:cc="http://creativecommons.org/ns#" xmlns:rdf="http://www.w3.org/1999/02/22-rdf-syntax-ns#">
   <cc:Work>
    <dc:type rdf:resource="http://purl.org/dc/dcmitype/StillImage"/>
    <dc:date>2023-11-30T21:30:49.216133</dc:date>
    <dc:format>image/svg+xml</dc:format>
    <dc:creator>
     <cc:Agent>
      <dc:title>Matplotlib v3.8.1, https://matplotlib.org/</dc:title>
     </cc:Agent>
    </dc:creator>
   </cc:Work>
  </rdf:RDF>
 </metadata>
 <defs>
  <style type="text/css">*{stroke-linejoin: round; stroke-linecap: butt}</style>
 </defs>
 <g id="figure_1">
  <g id="patch_1">
   <path d="M 0 360 
L 720 360 
L 720 0 
L 0 0 
z
" style="fill: #ffffff"/>
  </g>
  <g id="axes_1">
   <g id="patch_2">
    <path d="M 297.790696 320.4 
L 297.790696 43.2 
L 440.209304 43.2 
L 440.209304 320.4 
L 297.790696 320.4 
" style="fill: #ffffff"/>
   </g>
   <g id="line2d_1">
    <defs>
     <path id="m950b396824" d="M 0 9.572848 
C 2.538749 9.572848 4.973859 8.564192 6.769026 6.769026 
C 8.564192 4.973859 9.572848 2.538749 9.572848 0 
C 9.572848 -2.538749 8.564192 -4.973859 6.769026 -6.769026 
C 4.973859 -8.564192 2.538749 -9.572848 0 -9.572848 
C -2.538749 -9.572848 -4.973859 -8.564192 -6.769026 -6.769026 
C -8.564192 -4.973859 -9.572848 -2.538749 -9.572848 0 
C -9.572848 2.538749 -8.564192 4.973859 -6.769026 6.769026 
C -4.973859 8.564192 -2.538749 9.572848 0 9.572848 
z
" style="stroke: #000000"/>
    </defs>
    <g clip-path="url(#p8749341602)">
     <use xlink:href="#m950b396824" x="355.7638" y="275.252433" style="stroke: #000000"/>
    </g>
   </g>
   <g id="line2d_2">
    <defs>
     <path id="m6961de079c" d="M 0 9.062606 
C 2.403431 9.062606 4.708748 8.107713 6.40823 6.40823 
C 8.107713 4.708748 9.062606 2.403431 9.062606 0 
C 9.062606 -2.403431 8.107713 -4.708748 6.40823 -6.40823 
C 4.708748 -8.107713 2.403431 -9.062606 0 -9.062606 
C -2.403431 -9.062606 -4.708748 -8.107713 -6.40823 -6.40823 
C -8.107713 -4.708748 -9.062606 -2.403431 -9.062606 0 
C -9.062606 2.403431 -8.107713 4.708748 -6.40823 6.40823 
C -4.708748 8.107713 -2.403431 9.062606 0 9.062606 
z
" style="stroke: #000000"/>
    </defs>
    <g clip-path="url(#p8749341602)">
     <use xlink:href="#m6961de079c" x="304.264269" y="266.101767" style="stroke: #000000"/>
    </g>
   </g>
   <g id="line2d_3">
    <defs>
     <path id="mba8cf9d2b0" d="M 0 8.583415 
C 2.276348 8.583415 4.45977 7.679012 6.069391 6.069391 
C 7.679012 4.45977 8.583415 2.276348 8.583415 0 
C 8.583415 -2.276348 7.679012 -4.45977 6.069391 -6.069391 
C 4.45977 -7.679012 2.276348 -8.583415 0 -8.583415 
C -2.276348 -8.583415 -4.45977 -7.679012 -6.069391 -6.069391 
C -7.679012 -4.45977 -8.583415 -2.276348 -8.583415 0 
C -8.583415 2.276348 -7.679012 4.45977 -6.069391 6.069391 
C -4.45977 7.679012 -2.276348 8.583415 0 8.583415 
z
" style="stroke: #000000"/>
    </defs>
    <g clip-path="url(#p8749341602)">
     <use xlink:href="#mba8cf9d2b0" x="352.429591" y="204.858195" style="stroke: #000000"/>
    </g>
   </g>
   <g id="line2d_4">
    <defs>
     <path id="mee5e3d8910" d="M 0 8.57224 
C 2.273384 8.57224 4.453963 7.669014 6.061489 6.061489 
C 7.669014 4.453963 8.57224 2.273384 8.57224 0 
C 8.57224 -2.273384 7.669014 -4.453963 6.061489 -6.061489 
C 4.453963 -7.669014 2.273384 -8.57224 0 -8.57224 
C -2.273384 -8.57224 -4.453963 -7.669014 -6.061489 -6.061489 
C -7.669014 -4.453963 -8.57224 -2.273384 -8.57224 0 
C -8.57224 2.273384 -7.669014 4.453963 -6.061489 6.061489 
C -4.453963 7.669014 -2.273384 8.57224 0 8.57224 
z
" style="stroke: #000000"/>
    </defs>
    <g clip-path="url(#p8749341602)">
     <use xlink:href="#mee5e3d8910" x="308.150712" y="292.834414" style="stroke: #000000"/>
    </g>
   </g>
   <g id="line2d_5">
    <defs>
     <path id="m50a8ab80a9" d="M 0 8.326198 
C 2.208134 8.326198 4.326125 7.448898 5.887511 5.887511 
C 7.448898 4.326125 8.326198 2.208134 8.326198 0 
C 8.326198 -2.208134 7.448898 -4.326125 5.887511 -5.887511 
C 4.326125 -7.448898 2.208134 -8.326198 0 -8.326198 
C -2.208134 -8.326198 -4.326125 -7.448898 -5.887511 -5.887511 
C -7.448898 -4.326125 -8.326198 -2.208134 -8.326198 0 
C -8.326198 2.208134 -7.448898 4.326125 -5.887511 5.887511 
C -4.326125 7.448898 -2.208134 8.326198 0 8.326198 
z
" style="stroke: #000000"/>
    </defs>
    <g clip-path="url(#p8749341602)">
     <use xlink:href="#m50a8ab80a9" x="350.619489" y="278.437877" style="stroke: #000000"/>
    </g>
   </g>
   <g id="line2d_6">
    <defs>
     <path id="m5635d56524" d="M 0 8.254068 
C 2.189004 8.254068 4.288647 7.384367 5.836507 5.836507 
C 7.384367 4.288647 8.254068 2.189004 8.254068 0 
C 8.254068 -2.189004 7.384367 -4.288647 5.836507 -5.836507 
C 4.288647 -7.384367 2.189004 -8.254068 0 -8.254068 
C -2.189004 -8.254068 -4.288647 -7.384367 -5.836507 -5.836507 
C -7.384367 -4.288647 -8.254068 -2.189004 -8.254068 0 
C -8.254068 2.189004 -7.384367 4.288647 -5.836507 5.836507 
C -4.288647 7.384367 -2.189004 8.254068 0 8.254068 
z
" style="stroke: #000000"/>
    </defs>
    <g clip-path="url(#p8749341602)">
     <use xlink:href="#m5635d56524" x="329.638659" y="307.8" style="stroke: #000000"/>
    </g>
   </g>
   <g id="line2d_7">
    <defs>
     <path id="mc967bcef82" d="M 0 8.22629 
C 2.181637 8.22629 4.274214 7.359516 5.816865 5.816865 
C 7.359516 4.274214 8.22629 2.181637 8.22629 0 
C 8.22629 -2.181637 7.359516 -4.274214 5.816865 -5.816865 
C 4.274214 -7.359516 2.181637 -8.22629 0 -8.22629 
C -2.181637 -8.22629 -4.274214 -7.359516 -5.816865 -5.816865 
C -7.359516 -4.274214 -8.22629 -2.181637 -8.22629 0 
C -8.22629 2.181637 -7.359516 4.274214 -5.816865 5.816865 
C -4.274214 7.359516 -2.181637 8.22629 0 8.22629 
z
" style="stroke: #000000"/>
    </defs>
    <g clip-path="url(#p8749341602)">
     <use xlink:href="#mc967bcef82" x="358.642657" y="274.434025" style="stroke: #000000"/>
    </g>
   </g>
   <g id="line2d_8">
    <defs>
     <path id="m684f925c13" d="M 0 8.190864 
C 2.172243 8.190864 4.255808 7.327823 5.791816 5.791816 
C 7.327823 4.255808 8.190864 2.172243 8.190864 0 
C 8.190864 -2.172243 7.327823 -4.255808 5.791816 -5.791816 
C 4.255808 -7.327823 2.172243 -8.190864 0 -8.190864 
C -2.172243 -8.190864 -4.255808 -7.327823 -5.791816 -5.791816 
C -7.327823 -4.255808 -8.190864 -2.172243 -8.190864 0 
C -8.190864 2.172243 -7.327823 4.255808 -5.791816 5.791816 
C -4.255808 7.327823 -2.172243 8.190864 0 8.190864 
z
" style="stroke: #000000"/>
    </defs>
    <g clip-path="url(#p8749341602)">
     <use xlink:href="#m684f925c13" x="308.168664" y="294.993931" style="stroke: #000000"/>
    </g>
   </g>
   <g id="line2d_9">
    <defs>
     <path id="m9e0d7964d1" d="M 0 8.177004 
C 2.168567 8.177004 4.248607 7.315423 5.782015 5.782015 
C 7.315423 4.248607 8.177004 2.168567 8.177004 0 
C 8.177004 -2.168567 7.315423 -4.248607 5.782015 -5.782015 
C 4.248607 -7.315423 2.168567 -8.177004 0 -8.177004 
C -2.168567 -8.177004 -4.248607 -7.315423 -5.782015 -5.782015 
C -7.315423 -4.248607 -8.177004 -2.168567 -8.177004 0 
C -8.177004 2.168567 -7.315423 4.248607 -5.782015 5.782015 
C -4.248607 7.315423 -2.168567 8.177004 0 8.177004 
z
" style="stroke: #000000"/>
    </defs>
    <g clip-path="url(#p8749341602)">
     <use xlink:href="#m9e0d7964d1" x="357.508743" y="288.25544" style="stroke: #000000"/>
    </g>
   </g>
   <g id="line2d_10">
    <defs>
     <path id="m771a9b3951" d="M 0 7.987935 
C 2.118425 7.987935 4.15037 7.146276 5.648323 5.648323 
C 7.146276 4.15037 7.987935 2.118425 7.987935 0 
C 7.987935 -2.118425 7.146276 -4.15037 5.648323 -5.648323 
C 4.15037 -7.146276 2.118425 -7.987935 0 -7.987935 
C -2.118425 -7.987935 -4.15037 -7.146276 -5.648323 -5.648323 
C -7.146276 -4.15037 -7.987935 -2.118425 -7.987935 0 
C -7.987935 2.118425 -7.146276 4.15037 -5.648323 5.648323 
C -4.15037 7.146276 -2.118425 7.987935 0 7.987935 
z
" style="stroke: #000000"/>
    </defs>
    <g clip-path="url(#p8749341602)">
     <use xlink:href="#m771a9b3951" x="433.735731" y="55.8" style="stroke: #000000"/>
    </g>
   </g>
  </g>
 </g>
 <defs>
  <clipPath id="p8749341602">
   <path d="M 297.790696 320.4 
L 297.790696 43.2 
L 440.209304 43.2 
L 440.209304 320.4 
L 297.790696 320.4 
"/>
  </clipPath>
 </defs>
</svg>
