<?xml version="1.0" encoding="utf-8" standalone="no"?>
<!DOCTYPE svg PUBLIC "-//W3C//DTD SVG 1.1//EN"
  "http://www.w3.org/Graphics/SVG/1.1/DTD/svg11.dtd">
<svg xmlns:xlink="http://www.w3.org/1999/xlink" width="720pt" height="360pt" viewBox="0 0 720 360" xmlns="http://www.w3.org/2000/svg" version="1.1">
 <metadata>
  <rdf:RDF xmlns:dc="http://purl.org/dc/elements/1.1/" xmlns:cc="http://creativecommons.org/ns#" xmlns:rdf="http://www.w3.org/1999/02/22-rdf-syntax-ns#">
   <cc:Work>
    <dc:type rdf:resource="http://purl.org/dc/dcmitype/StillImage"/>
    <dc:date>2023-11-30T21:30:47.825844</dc:date>
    <dc:format>image/svg+xml</dc:format>
    <dc:creator>
     <cc:Agent>
      <dc:title>Matplotlib v3.8.1, https://matplotlib.org/</dc:title>
     </cc:Agent>
    </dc:creator>
   </cc:Work>
  </rdf:RDF>
 </metadata>
 <defs>
  <style type="text/css">*{stroke-linejoin: round; stroke-linecap: butt}</style>
 </defs>
 <g id="figure_1">
  <g id="patch_1">
   <path d="M 0 360 
L 720 360 
L 720 0 
L 0 0 
z
" style="fill: #ffffff"/>
  </g>
  <g id="axes_1">
   <g id="patch_2">
    <path d="M 265.44603 320.4 
L 265.44603 43.2 
L 472.55397 43.2 
L 472.55397 320.4 
L 265.44603 320.4 
" style="fill: #ffffff"/>
   </g>
   <g id="line2d_1">
    <defs>
     <path id="m359932b3e4" d="M 0 8.68149 
C 2.302358 8.68149 4.510727 7.766753 6.13874 6.13874 
C 7.766753 4.510727 8.68149 2.302358 8.68149 0 
C 8.68149 -2.302358 7.766753 -4.510727 6.13874 -6.13874 
C 4.510727 -7.766753 2.302358 -8.68149 0 -8.68149 
C -2.302358 -8.68149 -4.510727 -7.766753 -6.13874 -6.13874 
C -7.766753 -4.510727 -8.68149 -2.302358 -8.68149 0 
C -8.68149 2.302358 -7.766753 4.510727 -6.13874 6.13874 
C -4.510727 7.766753 -2.302358 8.68149 0 8.68149 
z
" style="stroke: #000000"/>
    </defs>
    <g clip-path="url(#p754ca16767)">
     <use xlink:href="#m359932b3e4" x="305.697805" y="266.503157" style="stroke: #000000"/>
    </g>
   </g>
   <g id="line2d_2">
    <defs>
     <path id="m46ddf2d714" d="M 0 7.896128 
C 2.094078 7.896128 4.102669 7.064142 5.583406 5.583406 
C 7.064142 4.102669 7.896128 2.094078 7.896128 0 
C 7.896128 -2.094078 7.064142 -4.102669 5.583406 -5.583406 
C 4.102669 -7.064142 2.094078 -7.896128 0 -7.896128 
C -2.094078 -7.896128 -4.102669 -7.064142 -5.583406 -5.583406 
C -7.064142 -4.102669 -7.896128 -2.094078 -7.896128 0 
C -7.896128 2.094078 -7.064142 4.102669 -5.583406 5.583406 
C -4.102669 7.064142 -2.094078 7.896128 0 7.896128 
z
" style="stroke: #000000"/>
    </defs>
    <g clip-path="url(#p754ca16767)">
     <use xlink:href="#m46ddf2d714" x="427.662082" y="227.609273" style="stroke: #000000"/>
    </g>
   </g>
   <g id="line2d_3">
    <defs>
     <path id="m98c31f01cb" d="M 0 7.699589 
C 2.041955 7.699589 4.000551 6.888312 5.444432 5.444432 
C 6.888312 4.000551 7.699589 2.041955 7.699589 0 
C 7.699589 -2.041955 6.888312 -4.000551 5.444432 -5.444432 
C 4.000551 -6.888312 2.041955 -7.699589 0 -7.699589 
C -2.041955 -7.699589 -4.000551 -6.888312 -5.444432 -5.444432 
C -6.888312 -4.000551 -7.699589 -2.041955 -7.699589 0 
C -7.699589 2.041955 -6.888312 4.000551 -5.444432 5.444432 
C -4.000551 6.888312 -2.041955 7.699589 0 7.699589 
z
" style="stroke: #000000"/>
    </defs>
    <g clip-path="url(#p754ca16767)">
     <use xlink:href="#m98c31f01cb" x="399.532482" y="116.996626" style="stroke: #000000"/>
    </g>
   </g>
   <g id="line2d_4">
    <defs>
     <path id="mdcb9e816e4" d="M 0 7.669124 
C 2.033876 7.669124 3.984723 6.861057 5.42289 5.42289 
C 6.861057 3.984723 7.669124 2.033876 7.669124 0 
C 7.669124 -2.033876 6.861057 -3.984723 5.42289 -5.42289 
C 3.984723 -6.861057 2.033876 -7.669124 0 -7.669124 
C -2.033876 -7.669124 -3.984723 -6.861057 -5.42289 -5.42289 
C -6.861057 -3.984723 -7.669124 -2.033876 -7.669124 0 
C -7.669124 2.033876 -6.861057 3.984723 -5.42289 5.42289 
C -3.984723 6.861057 -2.033876 7.669124 0 7.669124 
z
" style="stroke: #000000"/>
    </defs>
    <g clip-path="url(#p754ca16767)">
     <use xlink:href="#mdcb9e816e4" x="423.378308" y="284.777039" style="stroke: #000000"/>
    </g>
   </g>
   <g id="line2d_5">
    <defs>
     <path id="m7282a816bb" d="M 0 7.61051 
C 2.018331 7.61051 3.954268 6.808619 5.381443 5.381443 
C 6.808619 3.954268 7.61051 2.018331 7.61051 0 
C 7.61051 -2.018331 6.808619 -3.954268 5.381443 -5.381443 
C 3.954268 -6.808619 2.018331 -7.61051 0 -7.61051 
C -2.018331 -7.61051 -3.954268 -6.808619 -5.381443 -5.381443 
C -6.808619 -3.954268 -7.61051 -2.018331 -7.61051 0 
C -7.61051 2.018331 -6.808619 3.954268 -5.381443 5.381443 
C -3.954268 6.808619 -2.018331 7.61051 0 7.61051 
z
" style="stroke: #000000"/>
    </defs>
    <g clip-path="url(#p754ca16767)">
     <use xlink:href="#m7282a816bb" x="446.881279" y="180.241522" style="stroke: #000000"/>
    </g>
   </g>
   <g id="line2d_6">
    <defs>
     <path id="m08a21f088b" d="M 0 7.59524 
C 2.014281 7.59524 3.946334 6.794958 5.370646 5.370646 
C 6.794958 3.946334 7.59524 2.014281 7.59524 0 
C 7.59524 -2.014281 6.794958 -3.946334 5.370646 -5.370646 
C 3.946334 -6.794958 2.014281 -7.59524 0 -7.59524 
C -2.014281 -7.59524 -3.946334 -6.794958 -5.370646 -5.370646 
C -6.794958 -3.946334 -7.59524 -2.014281 -7.59524 0 
C -7.59524 2.014281 -6.794958 3.946334 -5.370646 5.370646 
C -3.946334 6.794958 -2.014281 7.59524 0 7.59524 
z
" style="stroke: #000000"/>
    </defs>
    <g clip-path="url(#p754ca16767)">
     <use xlink:href="#m08a21f088b" x="315.77546" y="264.681632" style="stroke: #000000"/>
    </g>
   </g>
   <g id="line2d_7">
    <defs>
     <path id="m092aacd157" d="M 0 7.570335 
C 2.007676 7.570335 3.933394 6.772677 5.353035 5.353035 
C 6.772677 3.933394 7.570335 2.007676 7.570335 0 
C 7.570335 -2.007676 6.772677 -3.933394 5.353035 -5.353035 
C 3.933394 -6.772677 2.007676 -7.570335 0 -7.570335 
C -2.007676 -7.570335 -3.933394 -6.772677 -5.353035 -5.353035 
C -6.772677 -3.933394 -7.570335 -2.007676 -7.570335 0 
C -7.570335 2.007676 -6.772677 3.933394 -5.353035 5.353035 
C -3.933394 6.772677 -2.007676 7.570335 0 7.570335 
z
" style="stroke: #000000"/>
    </defs>
    <g clip-path="url(#p754ca16767)">
     <use xlink:href="#m092aacd157" x="288.175553" y="284.168168" style="stroke: #000000"/>
    </g>
   </g>
   <g id="line2d_8">
    <defs>
     <path id="m8bd3089df2" d="M 0 7.546544 
C 2.001367 7.546544 3.921032 6.751392 5.336212 5.336212 
C 6.751392 3.921032 7.546544 2.001367 7.546544 0 
C 7.546544 -2.001367 6.751392 -3.921032 5.336212 -5.336212 
C 3.921032 -6.751392 2.001367 -7.546544 0 -7.546544 
C -2.001367 -7.546544 -3.921032 -6.751392 -5.336212 -5.336212 
C -6.751392 -3.921032 -7.546544 -2.001367 -7.546544 0 
C -7.546544 2.001367 -6.751392 3.921032 -5.336212 5.336212 
C -3.921032 6.751392 -2.001367 7.546544 0 7.546544 
z
" style="stroke: #000000"/>
    </defs>
    <g clip-path="url(#p754ca16767)">
     <use xlink:href="#m8bd3089df2" x="290.209575" y="286.228373" style="stroke: #000000"/>
    </g>
   </g>
   <g id="line2d_9">
    <defs>
     <path id="m3dcce86967" d="M 0 7.541968 
C 2.000153 7.541968 3.918655 6.747299 5.332977 5.332977 
C 6.747299 3.918655 7.541968 2.000153 7.541968 0 
C 7.541968 -2.000153 6.747299 -3.918655 5.332977 -5.332977 
C 3.918655 -6.747299 2.000153 -7.541968 0 -7.541968 
C -2.000153 -7.541968 -3.918655 -6.747299 -5.332977 -5.332977 
C -6.747299 -3.918655 -7.541968 -2.000153 -7.541968 0 
C -7.541968 2.000153 -6.747299 3.918655 -5.332977 5.332977 
C -3.918655 6.747299 -2.000153 7.541968 0 7.541968 
z
" style="stroke: #000000"/>
    </defs>
    <g clip-path="url(#p754ca16767)">
     <use xlink:href="#m3dcce86967" x="463.139972" y="55.8" style="stroke: #000000"/>
    </g>
   </g>
   <g id="line2d_10">
    <defs>
     <path id="mec3a3923a3" d="M 0 7.466315 
C 1.98009 7.466315 3.879347 6.679617 5.279482 5.279482 
C 6.679617 3.879347 7.466315 1.98009 7.466315 0 
C 7.466315 -1.98009 6.679617 -3.879347 5.279482 -5.279482 
C 3.879347 -6.679617 1.98009 -7.466315 0 -7.466315 
C -1.98009 -7.466315 -3.879347 -6.679617 -5.279482 -5.279482 
C -6.679617 -3.879347 -7.466315 -1.98009 -7.466315 0 
C -7.466315 1.98009 -6.679617 3.879347 -5.279482 5.279482 
C -3.879347 6.679617 -1.98009 7.466315 0 7.466315 
z
" style="stroke: #000000"/>
    </defs>
    <g clip-path="url(#p754ca16767)">
     <use xlink:href="#mec3a3923a3" x="274.860028" y="307.8" style="stroke: #000000"/>
    </g>
   </g>
  </g>
 </g>
 <defs>
  <clipPath id="p754ca16767">
   <path d="M 265.44603 320.4 
L 265.44603 43.2 
L 472.55397 43.2 
L 472.55397 320.4 
L 265.44603 320.4 
"/>
  </clipPath>
 </defs>
</svg>
