<?xml version="1.0" encoding="utf-8" standalone="no"?>
<!DOCTYPE svg PUBLIC "-//W3C//DTD SVG 1.1//EN"
  "http://www.w3.org/Graphics/SVG/1.1/DTD/svg11.dtd">
<svg xmlns:xlink="http://www.w3.org/1999/xlink" width="720pt" height="360pt" viewBox="0 0 720 360" xmlns="http://www.w3.org/2000/svg" version="1.1">
 <metadata>
  <rdf:RDF xmlns:dc="http://purl.org/dc/elements/1.1/" xmlns:cc="http://creativecommons.org/ns#" xmlns:rdf="http://www.w3.org/1999/02/22-rdf-syntax-ns#">
   <cc:Work>
    <dc:type rdf:resource="http://purl.org/dc/dcmitype/StillImage"/>
    <dc:date>2023-11-30T21:30:49.258544</dc:date>
    <dc:format>image/svg+xml</dc:format>
    <dc:creator>
     <cc:Agent>
      <dc:title>Matplotlib v3.8.1, https://matplotlib.org/</dc:title>
     </cc:Agent>
    </dc:creator>
   </cc:Work>
  </rdf:RDF>
 </metadata>
 <defs>
  <style type="text/css">*{stroke-linejoin: round; stroke-linecap: butt}</style>
 </defs>
 <g id="figure_1">
  <g id="patch_1">
   <path d="M 0 360 
L 720 360 
L 720 0 
L 0 0 
z
" style="fill: #ffffff"/>
  </g>
  <g id="axes_1">
   <g id="patch_2">
    <path d="M 90 286.943322 
L 90 76.656678 
L 648 76.656678 
L 648 286.943322 
L 90 286.943322 
" style="fill: #ffffff"/>
   </g>
   <g id="line2d_1">
    <defs>
     <path id="m35110044f9" d="M 0 10.229956 
C 2.713016 10.229956 5.315279 9.152063 7.233671 7.233671 
C 9.152063 5.315279 10.229956 2.713016 10.229956 0 
C 10.229956 -2.713016 9.152063 -5.315279 7.233671 -7.233671 
C 5.315279 -9.152063 2.713016 -10.229956 0 -10.229956 
C -2.713016 -10.229956 -5.315279 -9.152063 -7.233671 -7.233671 
C -9.152063 -5.315279 -10.229956 -2.713016 -10.229956 0 
C -10.229956 2.713016 -9.152063 5.315279 -7.233671 7.233671 
C -5.315279 9.152063 -2.713016 10.229956 0 10.229956 
z
" style="stroke: #000000"/>
    </defs>
    <g clip-path="url(#p78181cfc8d)">
     <use xlink:href="#m35110044f9" x="474.084405" y="171.78102" style="stroke: #000000"/>
    </g>
   </g>
   <g id="line2d_2">
    <defs>
     <path id="m517d452a97" d="M 0 9.247369 
C 2.452431 9.247369 4.804747 8.273008 6.538877 6.538877 
C 8.273008 4.804747 9.247369 2.452431 9.247369 0 
C 9.247369 -2.452431 8.273008 -4.804747 6.538877 -6.538877 
C 4.804747 -8.273008 2.452431 -9.247369 0 -9.247369 
C -2.452431 -9.247369 -4.804747 -8.273008 -6.538877 -6.538877 
C -8.273008 -4.804747 -9.247369 -2.452431 -9.247369 0 
C -9.247369 2.452431 -8.273008 4.804747 -6.538877 6.538877 
C -4.804747 8.273008 -2.452431 9.247369 0 9.247369 
z
" style="stroke: #000000"/>
    </defs>
    <g clip-path="url(#p78181cfc8d)">
     <use xlink:href="#m517d452a97" x="407.000509" y="173.901207" style="stroke: #000000"/>
    </g>
   </g>
   <g id="line2d_3">
    <defs>
     <path id="m6fc598afae" d="M 0 9.095578 
C 2.412175 9.095578 4.725879 8.13721 6.431545 6.431545 
C 8.13721 4.725879 9.095578 2.412175 9.095578 0 
C 9.095578 -2.412175 8.13721 -4.725879 6.431545 -6.431545 
C 4.725879 -8.13721 2.412175 -9.095578 0 -9.095578 
C -2.412175 -9.095578 -4.725879 -8.13721 -6.431545 -6.431545 
C -8.13721 -4.725879 -9.095578 -2.412175 -9.095578 0 
C -9.095578 2.412175 -8.13721 4.725879 -6.431545 6.431545 
C -4.725879 8.13721 -2.412175 9.095578 0 9.095578 
z
" style="stroke: #000000"/>
    </defs>
    <g clip-path="url(#p78181cfc8d)">
     <use xlink:href="#m6fc598afae" x="473.596845" y="173.919945" style="stroke: #000000"/>
    </g>
   </g>
   <g id="line2d_4">
    <defs>
     <path id="meaf1e9b627" d="M 0 9.016674 
C 2.39125 9.016674 4.684882 8.06662 6.375751 6.375751 
C 8.06662 4.684882 9.016674 2.39125 9.016674 0 
C 9.016674 -2.39125 8.06662 -4.684882 6.375751 -6.375751 
C 4.684882 -8.06662 2.39125 -9.016674 0 -9.016674 
C -2.39125 -9.016674 -4.684882 -8.06662 -6.375751 -6.375751 
C -8.06662 -4.684882 -9.016674 -2.39125 -9.016674 0 
C -9.016674 2.39125 -8.06662 4.684882 -6.375751 6.375751 
C -4.684882 8.06662 -2.39125 9.016674 0 9.016674 
z
" style="stroke: #000000"/>
    </defs>
    <g clip-path="url(#p78181cfc8d)">
     <use xlink:href="#meaf1e9b627" x="440.736192" y="229.920819" style="stroke: #000000"/>
    </g>
   </g>
   <g id="line2d_5">
    <defs>
     <path id="m31204e2a31" d="M 0 8.950478 
C 2.373694 8.950478 4.650488 8.007399 6.328943 6.328943 
C 8.007399 4.650488 8.950478 2.373694 8.950478 0 
C 8.950478 -2.373694 8.007399 -4.650488 6.328943 -6.328943 
C 4.650488 -8.007399 2.373694 -8.950478 0 -8.950478 
C -2.373694 -8.950478 -4.650488 -8.007399 -6.328943 -6.328943 
C -8.007399 -4.650488 -8.950478 -2.373694 -8.950478 0 
C -8.950478 2.373694 -8.007399 4.650488 -6.328943 6.328943 
C -4.650488 8.007399 -2.373694 8.950478 0 8.950478 
z
" style="stroke: #000000"/>
    </defs>
    <g clip-path="url(#p78181cfc8d)">
     <use xlink:href="#m31204e2a31" x="621.904644" y="277.384838" style="stroke: #000000"/>
    </g>
   </g>
   <g id="line2d_6">
    <defs>
     <path id="m1b86059c6b" d="M 0 8.821889 
C 2.339592 8.821889 4.583676 7.892359 6.238018 6.238018 
C 7.892359 4.583676 8.821889 2.339592 8.821889 0 
C 8.821889 -2.339592 7.892359 -4.583676 6.238018 -6.238018 
C 4.583676 -7.892359 2.339592 -8.821889 0 -8.821889 
C -2.339592 -8.821889 -4.583676 -7.892359 -6.238018 -6.238018 
C -7.892359 -4.583676 -8.821889 -2.339592 -8.821889 0 
C -8.821889 2.339592 -7.892359 4.583676 -6.238018 6.238018 
C -4.583676 7.892359 -2.339592 8.821889 0 8.821889 
z
" style="stroke: #000000"/>
    </defs>
    <g clip-path="url(#p78181cfc8d)">
     <use xlink:href="#m1b86059c6b" x="115.363636" y="86.215162" style="stroke: #000000"/>
    </g>
   </g>
   <g id="line2d_7">
    <defs>
     <path id="m52d15f3a32" d="M 0 8.804824 
C 2.335067 8.804824 4.574809 7.877092 6.225951 6.225951 
C 7.877092 4.574809 8.804824 2.335067 8.804824 0 
C 8.804824 -2.335067 7.877092 -4.574809 6.225951 -6.225951 
C 4.574809 -7.877092 2.335067 -8.804824 0 -8.804824 
C -2.335067 -8.804824 -4.574809 -7.877092 -6.225951 -6.225951 
C -7.877092 -4.574809 -8.804824 -2.335067 -8.804824 0 
C -8.804824 2.335067 -7.877092 4.574809 -6.225951 6.225951 
C -4.574809 7.877092 -2.335067 8.804824 0 8.804824 
z
" style="stroke: #000000"/>
    </defs>
    <g clip-path="url(#p78181cfc8d)">
     <use xlink:href="#m52d15f3a32" x="371.561018" y="123.503212" style="stroke: #000000"/>
    </g>
   </g>
   <g id="line2d_8">
    <defs>
     <path id="ma729a70c9b" d="M 0 8.79007 
C 2.331154 8.79007 4.567144 7.863893 6.215518 6.215518 
C 7.863893 4.567144 8.79007 2.331154 8.79007 0 
C 8.79007 -2.331154 7.863893 -4.567144 6.215518 -6.215518 
C 4.567144 -7.863893 2.331154 -8.79007 0 -8.79007 
C -2.331154 -8.79007 -4.567144 -7.863893 -6.215518 -6.215518 
C -7.863893 -4.567144 -8.79007 -2.331154 -8.79007 0 
C -8.79007 2.331154 -7.863893 4.567144 -6.215518 6.215518 
C -4.567144 7.863893 -2.331154 8.79007 0 8.79007 
z
" style="stroke: #000000"/>
    </defs>
    <g clip-path="url(#p78181cfc8d)">
     <use xlink:href="#ma729a70c9b" x="452.215469" y="195.034695" style="stroke: #000000"/>
    </g>
   </g>
   <g id="line2d_9">
    <defs>
     <path id="mc88c062f12" d="M 0 8.700611 
C 2.307429 8.700611 4.520662 7.783859 6.152261 6.152261 
C 7.783859 4.520662 8.700611 2.307429 8.700611 0 
C 8.700611 -2.307429 7.783859 -4.520662 6.152261 -6.152261 
C 4.520662 -7.783859 2.307429 -8.700611 0 -8.700611 
C -2.307429 -8.700611 -4.520662 -7.783859 -6.152261 -6.152261 
C -7.783859 -4.520662 -8.700611 -2.307429 -8.700611 0 
C -8.700611 2.307429 -7.783859 4.520662 -6.152261 6.152261 
C -4.520662 7.783859 -2.307429 8.700611 0 8.700611 
z
" style="stroke: #000000"/>
    </defs>
    <g clip-path="url(#p78181cfc8d)">
     <use xlink:href="#mc88c062f12" x="622.636364" y="247.068642" style="stroke: #000000"/>
    </g>
   </g>
   <g id="line2d_10">
    <defs>
     <path id="mf60e2f1c98" d="M 0 8.671536 
C 2.299718 8.671536 4.505556 7.757849 6.131702 6.131702 
C 7.757849 4.505556 8.671536 2.299718 8.671536 0 
C 8.671536 -2.299718 7.757849 -4.505556 6.131702 -6.131702 
C 4.505556 -7.757849 2.299718 -8.671536 0 -8.671536 
C -2.299718 -8.671536 -4.505556 -7.757849 -6.131702 -6.131702 
C -7.757849 -4.505556 -8.671536 -2.299718 -8.671536 0 
C -8.671536 2.299718 -7.757849 4.505556 -6.131702 6.131702 
C -4.505556 7.757849 -2.299718 8.671536 0 8.671536 
z
" style="stroke: #000000"/>
    </defs>
    <g clip-path="url(#p78181cfc8d)">
     <use xlink:href="#mf60e2f1c98" x="193.230728" y="142.05962" style="stroke: #000000"/>
    </g>
   </g>
  </g>
 </g>
 <defs>
  <clipPath id="p78181cfc8d">
   <path d="M 90 286.943322 
L 90 76.656678 
L 648 76.656678 
L 648 286.943322 
L 90 286.943322 
"/>
  </clipPath>
 </defs>
</svg>
