<?xml version="1.0" encoding="utf-8" standalone="no"?>
<!DOCTYPE svg PUBLIC "-//W3C//DTD SVG 1.1//EN"
  "http://www.w3.org/Graphics/SVG/1.1/DTD/svg11.dtd">
<svg xmlns:xlink="http://www.w3.org/1999/xlink" width="720pt" height="360pt" viewBox="0 0 720 360" xmlns="http://www.w3.org/2000/svg" version="1.1">
 <metadata>
  <rdf:RDF xmlns:dc="http://purl.org/dc/elements/1.1/" xmlns:cc="http://creativecommons.org/ns#" xmlns:rdf="http://www.w3.org/1999/02/22-rdf-syntax-ns#">
   <cc:Work>
    <dc:type rdf:resource="http://purl.org/dc/dcmitype/StillImage"/>
    <dc:date>2023-11-30T21:30:53.196146</dc:date>
    <dc:format>image/svg+xml</dc:format>
    <dc:creator>
     <cc:Agent>
      <dc:title>Matplotlib v3.8.1, https://matplotlib.org/</dc:title>
     </cc:Agent>
    </dc:creator>
   </cc:Work>
  </rdf:RDF>
 </metadata>
 <defs>
  <style type="text/css">*{stroke-linejoin: round; stroke-linecap: butt}</style>
 </defs>
 <g id="figure_1">
  <g id="patch_1">
   <path d="M 0 360 
L 720 360 
L 720 0 
L 0 0 
z
" style="fill: #ffffff"/>
  </g>
  <g id="axes_1">
   <g id="patch_2">
    <path d="M 213.733494 320.4 
L 213.733494 43.2 
L 524.266506 43.2 
L 524.266506 320.4 
L 213.733494 320.4 
" style="fill: #ffffff"/>
   </g>
   <g id="line2d_1">
    <defs>
     <path id="m93b994c884" d="M 0 5.608979 
C 1.487519 5.608979 2.914313 5.017981 3.966147 3.966147 
C 5.017981 2.914313 5.608979 1.487519 5.608979 0 
C 5.608979 -1.487519 5.017981 -2.914313 3.966147 -3.966147 
C 2.914313 -5.017981 1.487519 -5.608979 0 -5.608979 
C -1.487519 -5.608979 -2.914313 -5.017981 -3.966147 -3.966147 
C -5.017981 -2.914313 -5.608979 -1.487519 -5.608979 0 
C -5.608979 1.487519 -5.017981 2.914313 -3.966147 3.966147 
C -2.914313 5.017981 -1.487519 5.608979 0 5.608979 
z
" style="stroke: #000000"/>
    </defs>
    <g clip-path="url(#p79d962efd8)">
     <use xlink:href="#m93b994c884" x="239.638399" y="158.318237" style="stroke: #000000"/>
    </g>
   </g>
   <g id="line2d_2">
    <defs>
     <path id="ma7f1b8adea" d="M 0 5.408892 
C 1.434455 5.408892 2.810351 4.838977 3.824664 3.824664 
C 4.838977 2.810351 5.408892 1.434455 5.408892 0 
C 5.408892 -1.434455 4.838977 -2.810351 3.824664 -3.824664 
C 2.810351 -4.838977 1.434455 -5.408892 0 -5.408892 
C -1.434455 -5.408892 -2.810351 -4.838977 -3.824664 -3.824664 
C -4.838977 -2.810351 -5.408892 -1.434455 -5.408892 0 
C -5.408892 1.434455 -4.838977 2.810351 -3.824664 3.824664 
C -2.810351 4.838977 -1.434455 5.408892 0 5.408892 
z
" style="stroke: #000000"/>
    </defs>
    <g clip-path="url(#p79d962efd8)">
     <use xlink:href="#ma7f1b8adea" x="240.34934" y="160.024915" style="stroke: #000000"/>
    </g>
   </g>
   <g id="line2d_3">
    <defs>
     <path id="mbe966c682f" d="M 0 5.226121 
C 1.385983 5.226121 2.715387 4.675464 3.695425 3.695425 
C 4.675464 2.715387 5.226121 1.385983 5.226121 0 
C 5.226121 -1.385983 4.675464 -2.715387 3.695425 -3.695425 
C 2.715387 -4.675464 1.385983 -5.226121 0 -5.226121 
C -1.385983 -5.226121 -2.715387 -4.675464 -3.695425 -3.695425 
C -4.675464 -2.715387 -5.226121 -1.385983 -5.226121 0 
C -5.226121 1.385983 -4.675464 2.715387 -3.695425 3.695425 
C -2.715387 4.675464 -1.385983 5.226121 0 5.226121 
z
" style="stroke: #000000"/>
    </defs>
    <g clip-path="url(#p79d962efd8)">
     <use xlink:href="#mbe966c682f" x="454.342517" y="275.667253" style="stroke: #000000"/>
    </g>
   </g>
   <g id="line2d_4">
    <defs>
     <path id="m835de2e61b" d="M 0 5.052299 
C 1.339885 5.052299 2.625073 4.519957 3.572515 3.572515 
C 4.519957 2.625073 5.052299 1.339885 5.052299 0 
C 5.052299 -1.339885 4.519957 -2.625073 3.572515 -3.572515 
C 2.625073 -4.519957 1.339885 -5.052299 0 -5.052299 
C -1.339885 -5.052299 -2.625073 -4.519957 -3.572515 -3.572515 
C -4.519957 -2.625073 -5.052299 -1.339885 -5.052299 0 
C -5.052299 1.339885 -4.519957 2.625073 -3.572515 3.572515 
C -2.625073 4.519957 -1.339885 5.052299 0 5.052299 
z
" style="stroke: #000000"/>
    </defs>
    <g clip-path="url(#p79d962efd8)">
     <use xlink:href="#m835de2e61b" x="315.057368" y="307.8" style="stroke: #000000"/>
    </g>
   </g>
   <g id="line2d_5">
    <defs>
     <path id="m7f7c65bd66" d="M 0 4.831779 
C 1.281403 4.831779 2.510495 4.322672 3.416584 3.416584 
C 4.322672 2.510495 4.831779 1.281403 4.831779 0 
C 4.831779 -1.281403 4.322672 -2.510495 3.416584 -3.416584 
C 2.510495 -4.322672 1.281403 -4.831779 0 -4.831779 
C -1.281403 -4.831779 -2.510495 -4.322672 -3.416584 -3.416584 
C -4.322672 -2.510495 -4.831779 -1.281403 -4.831779 0 
C -4.831779 1.281403 -4.322672 2.510495 -3.416584 3.416584 
C -2.510495 4.322672 -1.281403 4.831779 0 4.831779 
z
" style="stroke: #000000"/>
    </defs>
    <g clip-path="url(#p79d962efd8)">
     <use xlink:href="#m7f7c65bd66" x="340.236521" y="55.8" style="stroke: #000000"/>
    </g>
   </g>
   <g id="line2d_6">
    <defs>
     <path id="m7e4c9d123c" d="M 0 4.283027 
C 1.135872 4.283027 2.225375 3.83174 3.028557 3.028557 
C 3.83174 2.225375 4.283027 1.135872 4.283027 0 
C 4.283027 -1.135872 3.83174 -2.225375 3.028557 -3.028557 
C 2.225375 -3.83174 1.135872 -4.283027 0 -4.283027 
C -1.135872 -4.283027 -2.225375 -3.83174 -3.028557 -3.028557 
C -3.83174 -2.225375 -4.283027 -1.135872 -4.283027 0 
C -4.283027 1.135872 -3.83174 2.225375 -3.028557 3.028557 
C -2.225375 3.83174 -1.135872 4.283027 0 4.283027 
z
" style="stroke: #000000"/>
    </defs>
    <g clip-path="url(#p79d962efd8)">
     <use xlink:href="#m7e4c9d123c" x="481.299022" y="58.271734" style="stroke: #000000"/>
    </g>
   </g>
   <g id="line2d_7">
    <defs>
     <path id="m88bc5b38bc" d="M 0 4.185344 
C 1.109966 4.185344 2.17462 3.744349 2.959485 2.959485 
C 3.744349 2.17462 4.185344 1.109966 4.185344 0 
C 4.185344 -1.109966 3.744349 -2.17462 2.959485 -2.959485 
C 2.17462 -3.744349 1.109966 -4.185344 0 -4.185344 
C -1.109966 -4.185344 -2.17462 -3.744349 -2.959485 -2.959485 
C -3.744349 -2.17462 -4.185344 -1.109966 -4.185344 0 
C -4.185344 1.109966 -3.744349 2.17462 -2.959485 2.959485 
C -2.17462 3.744349 -1.109966 4.185344 0 4.185344 
z
" style="stroke: #000000"/>
    </defs>
    <g clip-path="url(#p79d962efd8)">
     <use xlink:href="#m88bc5b38bc" x="307.000039" y="90.521989" style="stroke: #000000"/>
    </g>
   </g>
   <g id="line2d_8">
    <defs>
     <path id="m1f23d90adc" d="M 0 3.749923 
C 0.994491 3.749923 1.948384 3.354807 2.651596 2.651596 
C 3.354807 1.948384 3.749923 0.994491 3.749923 0 
C 3.749923 -0.994491 3.354807 -1.948384 2.651596 -2.651596 
C 1.948384 -3.354807 0.994491 -3.749923 0 -3.749923 
C -0.994491 -3.749923 -1.948384 -3.354807 -2.651596 -2.651596 
C -3.354807 -1.948384 -3.749923 -0.994491 -3.749923 0 
C -3.749923 0.994491 -3.354807 1.948384 -2.651596 2.651596 
C -1.948384 3.354807 -0.994491 3.749923 0 3.749923 
z
" style="stroke: #000000"/>
    </defs>
    <g clip-path="url(#p79d962efd8)">
     <use xlink:href="#m1f23d90adc" x="510.151369" y="132.129567" style="stroke: #000000"/>
    </g>
   </g>
   <g id="line2d_9"/>
   <g id="line2d_10"/>
  </g>
 </g>
 <defs>
  <clipPath id="p79d962efd8">
   <path d="M 213.733494 320.4 
L 213.733494 43.2 
L 524.266506 43.2 
L 524.266506 320.4 
L 213.733494 320.4 
"/>
  </clipPath>
 </defs>
</svg>
