<?xml version="1.0" encoding="utf-8" standalone="no"?>
<!DOCTYPE svg PUBLIC "-//W3C//DTD SVG 1.1//EN"
  "http://www.w3.org/Graphics/SVG/1.1/DTD/svg11.dtd">
<svg xmlns:xlink="http://www.w3.org/1999/xlink" width="720pt" height="360pt" viewBox="0 0 720 360" xmlns="http://www.w3.org/2000/svg" version="1.1">
 <metadata>
  <rdf:RDF xmlns:dc="http://purl.org/dc/elements/1.1/" xmlns:cc="http://creativecommons.org/ns#" xmlns:rdf="http://www.w3.org/1999/02/22-rdf-syntax-ns#">
   <cc:Work>
    <dc:type rdf:resource="http://purl.org/dc/dcmitype/StillImage"/>
    <dc:date>2023-11-30T21:30:49.305798</dc:date>
    <dc:format>image/svg+xml</dc:format>
    <dc:creator>
     <cc:Agent>
      <dc:title>Matplotlib v3.8.1, https://matplotlib.org/</dc:title>
     </cc:Agent>
    </dc:creator>
   </cc:Work>
  </rdf:RDF>
 </metadata>
 <defs>
  <style type="text/css">*{stroke-linejoin: round; stroke-linecap: butt}</style>
 </defs>
 <g id="figure_1">
  <g id="patch_1">
   <path d="M 0 360 
L 720 360 
L 720 0 
L 0 0 
z
" style="fill: #ffffff"/>
  </g>
  <g id="axes_1">
   <g id="patch_2">
    <path d="M 296.146038 320.4 
L 296.146038 43.2 
L 441.853962 43.2 
L 441.853962 320.4 
L 296.146038 320.4 
" style="fill: #ffffff"/>
   </g>
   <g id="line2d_1">
    <defs>
     <path id="m0c2b526f8a" d="M 0 9.336418 
C 2.476047 9.336418 4.851015 8.352674 6.601845 6.601845 
C 8.352674 4.851015 9.336418 2.476047 9.336418 0 
C 9.336418 -2.476047 8.352674 -4.851015 6.601845 -6.601845 
C 4.851015 -8.352674 2.476047 -9.336418 0 -9.336418 
C -2.476047 -9.336418 -4.851015 -8.352674 -6.601845 -6.601845 
C -8.352674 -4.851015 -9.336418 -2.476047 -9.336418 0 
C -9.336418 2.476047 -8.352674 4.851015 -6.601845 6.601845 
C -4.851015 8.352674 -2.476047 9.336418 0 9.336418 
z
" style="stroke: #000000"/>
    </defs>
    <g clip-path="url(#p6ff3e3c18b)">
     <use xlink:href="#m0c2b526f8a" x="391.692761" y="57.060113" style="stroke: #000000"/>
    </g>
   </g>
   <g id="line2d_2">
    <defs>
     <path id="mf39b360939" d="M 0 9.27142 
C 2.458809 9.27142 4.817243 8.294524 6.555884 6.555884 
C 8.294524 4.817243 9.27142 2.458809 9.27142 0 
C 9.27142 -2.458809 8.294524 -4.817243 6.555884 -6.555884 
C 4.817243 -8.294524 2.458809 -9.27142 0 -9.27142 
C -2.458809 -9.27142 -4.817243 -8.294524 -6.555884 -6.555884 
C -8.294524 -4.817243 -9.27142 -2.458809 -9.27142 0 
C -9.27142 2.458809 -8.294524 4.817243 -6.555884 6.555884 
C -4.817243 8.294524 -2.458809 9.27142 0 9.27142 
z
" style="stroke: #000000"/>
    </defs>
    <g clip-path="url(#p6ff3e3c18b)">
     <use xlink:href="#mf39b360939" x="391.944927" y="175.971433" style="stroke: #000000"/>
    </g>
   </g>
   <g id="line2d_3">
    <defs>
     <path id="m76ab94e769" d="M 0 9.236645 
C 2.449587 9.236645 4.799175 8.263414 6.531294 6.531294 
C 8.263414 4.799175 9.236645 2.449587 9.236645 0 
C 9.236645 -2.449587 8.263414 -4.799175 6.531294 -6.531294 
C 4.799175 -8.263414 2.449587 -9.236645 0 -9.236645 
C -2.449587 -9.236645 -4.799175 -8.263414 -6.531294 -6.531294 
C -8.263414 -4.799175 -9.236645 -2.449587 -9.236645 0 
C -9.236645 2.449587 -8.263414 4.799175 -6.531294 6.531294 
C -4.799175 8.263414 -2.449587 9.236645 0 9.236645 
z
" style="stroke: #000000"/>
    </defs>
    <g clip-path="url(#p6ff3e3c18b)">
     <use xlink:href="#m76ab94e769" x="347.226351" y="239.269415" style="stroke: #000000"/>
    </g>
   </g>
   <g id="line2d_4">
    <defs>
     <path id="m5f5657efb9" d="M 0 9.232817 
C 2.448572 9.232817 4.797186 8.259989 6.528588 6.528588 
C 8.259989 4.797186 9.232817 2.448572 9.232817 0 
C 9.232817 -2.448572 8.259989 -4.797186 6.528588 -6.528588 
C 4.797186 -8.259989 2.448572 -9.232817 0 -9.232817 
C -2.448572 -9.232817 -4.797186 -8.259989 -6.528588 -6.528588 
C -8.259989 -4.797186 -9.232817 -2.448572 -9.232817 0 
C -9.232817 2.448572 -8.259989 4.797186 -6.528588 6.528588 
C -4.797186 8.259989 -2.448572 9.232817 0 9.232817 
z
" style="stroke: #000000"/>
    </defs>
    <g clip-path="url(#p6ff3e3c18b)">
     <use xlink:href="#m5f5657efb9" x="394.121948" y="60.811471" style="stroke: #000000"/>
    </g>
   </g>
   <g id="line2d_5">
    <defs>
     <path id="m7a8942e430" d="M 0 8.832647 
C 2.342445 8.832647 4.589266 7.901984 6.245625 6.245625 
C 7.901984 4.589266 8.832647 2.342445 8.832647 0 
C 8.832647 -2.342445 7.901984 -4.589266 6.245625 -6.245625 
C 4.589266 -7.901984 2.342445 -8.832647 0 -8.832647 
C -2.342445 -8.832647 -4.589266 -7.901984 -6.245625 -6.245625 
C -7.901984 -4.589266 -8.832647 -2.342445 -8.832647 0 
C -8.832647 2.342445 -7.901984 4.589266 -6.245625 6.245625 
C -4.589266 7.901984 -2.342445 8.832647 0 8.832647 
z
" style="stroke: #000000"/>
    </defs>
    <g clip-path="url(#p6ff3e3c18b)">
     <use xlink:href="#m7a8942e430" x="391.411162" y="55.8" style="stroke: #000000"/>
    </g>
   </g>
   <g id="line2d_6">
    <defs>
     <path id="m982daacb49" d="M 0 8.722786 
C 2.31331 8.722786 4.532184 7.803699 6.167941 6.167941 
C 7.803699 4.532184 8.722786 2.31331 8.722786 0 
C 8.722786 -2.31331 7.803699 -4.532184 6.167941 -6.167941 
C 4.532184 -7.803699 2.31331 -8.722786 0 -8.722786 
C -2.31331 -8.722786 -4.532184 -7.803699 -6.167941 -6.167941 
C -7.803699 -4.532184 -8.722786 -2.31331 -8.722786 0 
C -8.722786 2.31331 -7.803699 4.532184 -6.167941 6.167941 
C -4.532184 7.803699 -2.31331 8.722786 0 8.722786 
z
" style="stroke: #000000"/>
    </defs>
    <g clip-path="url(#p6ff3e3c18b)">
     <use xlink:href="#m982daacb49" x="402.544255" y="81.492616" style="stroke: #000000"/>
    </g>
   </g>
   <g id="line2d_7">
    <defs>
     <path id="m310b41b74e" d="M 0 8.621889 
C 2.286552 8.621889 4.47976 7.713433 6.096596 6.096596 
C 7.713433 4.47976 8.621889 2.286552 8.621889 0 
C 8.621889 -2.286552 7.713433 -4.47976 6.096596 -6.096596 
C 4.47976 -7.713433 2.286552 -8.621889 0 -8.621889 
C -2.286552 -8.621889 -4.47976 -7.713433 -6.096596 -6.096596 
C -7.713433 -4.47976 -8.621889 -2.286552 -8.621889 0 
C -8.621889 2.286552 -7.713433 4.47976 -6.096596 6.096596 
C -4.47976 7.713433 -2.286552 8.621889 0 8.621889 
z
" style="stroke: #000000"/>
    </defs>
    <g clip-path="url(#p6ff3e3c18b)">
     <use xlink:href="#m310b41b74e" x="420.983696" y="78.93725" style="stroke: #000000"/>
    </g>
   </g>
   <g id="line2d_8">
    <defs>
     <path id="m8addf62eac" d="M 0 8.512164 
C 2.257452 8.512164 4.422749 7.615269 6.019009 6.019009 
C 7.615269 4.422749 8.512164 2.257452 8.512164 0 
C 8.512164 -2.257452 7.615269 -4.422749 6.019009 -6.019009 
C 4.422749 -7.615269 2.257452 -8.512164 0 -8.512164 
C -2.257452 -8.512164 -4.422749 -7.615269 -6.019009 -6.019009 
C -7.615269 -4.422749 -8.512164 -2.257452 -8.512164 0 
C -8.512164 2.257452 -7.615269 4.422749 -6.019009 6.019009 
C -4.422749 7.615269 -2.257452 8.512164 0 8.512164 
z
" style="stroke: #000000"/>
    </defs>
    <g clip-path="url(#p6ff3e3c18b)">
     <use xlink:href="#m8addf62eac" x="302.769125" y="307.8" style="stroke: #000000"/>
    </g>
   </g>
   <g id="line2d_9">
    <defs>
     <path id="mb882863edd" d="M 0 8.389789 
C 2.224998 8.389789 4.359166 7.505788 5.932477 5.932477 
C 7.505788 4.359166 8.389789 2.224998 8.389789 0 
C 8.389789 -2.224998 7.505788 -4.359166 5.932477 -5.932477 
C 4.359166 -7.505788 2.224998 -8.389789 0 -8.389789 
C -2.224998 -8.389789 -4.359166 -7.505788 -5.932477 -5.932477 
C -7.505788 -4.359166 -8.389789 -2.224998 -8.389789 0 
C -8.389789 2.224998 -7.505788 4.359166 -5.932477 5.932477 
C -4.359166 7.505788 -2.224998 8.389789 0 8.389789 
z
" style="stroke: #000000"/>
    </defs>
    <g clip-path="url(#p6ff3e3c18b)">
     <use xlink:href="#mb882863edd" x="394.890345" y="174.036053" style="stroke: #000000"/>
    </g>
   </g>
   <g id="line2d_10">
    <defs>
     <path id="m1e8aca7907" d="M 0 8.23362 
C 2.183581 8.23362 4.278023 7.366074 5.822048 5.822048 
C 7.366074 4.278023 8.23362 2.183581 8.23362 0 
C 8.23362 -2.183581 7.366074 -4.278023 5.822048 -5.822048 
C 4.278023 -7.366074 2.183581 -8.23362 0 -8.23362 
C -2.183581 -8.23362 -4.278023 -7.366074 -5.822048 -5.822048 
C -7.366074 -4.278023 -8.23362 -2.183581 -8.23362 0 
C -8.23362 2.183581 -7.366074 4.278023 -5.822048 5.822048 
C -4.278023 7.366074 -2.183581 8.23362 0 8.23362 
z
" style="stroke: #000000"/>
    </defs>
    <g clip-path="url(#p6ff3e3c18b)">
     <use xlink:href="#m1e8aca7907" x="435.230875" y="130.912972" style="stroke: #000000"/>
    </g>
   </g>
  </g>
 </g>
 <defs>
  <clipPath id="p6ff3e3c18b">
   <path d="M 296.146038 320.4 
L 296.146038 43.2 
L 441.853962 43.2 
L 441.853962 320.4 
L 296.146038 320.4 
"/>
  </clipPath>
 </defs>
</svg>
