<?xml version="1.0" encoding="utf-8" standalone="no"?>
<!DOCTYPE svg PUBLIC "-//W3C//DTD SVG 1.1//EN"
  "http://www.w3.org/Graphics/SVG/1.1/DTD/svg11.dtd">
<svg xmlns:xlink="http://www.w3.org/1999/xlink" width="720pt" height="360pt" viewBox="0 0 720 360" xmlns="http://www.w3.org/2000/svg" version="1.1">
 <metadata>
  <rdf:RDF xmlns:dc="http://purl.org/dc/elements/1.1/" xmlns:cc="http://creativecommons.org/ns#" xmlns:rdf="http://www.w3.org/1999/02/22-rdf-syntax-ns#">
   <cc:Work>
    <dc:type rdf:resource="http://purl.org/dc/dcmitype/StillImage"/>
    <dc:date>2023-11-30T21:30:49.359418</dc:date>
    <dc:format>image/svg+xml</dc:format>
    <dc:creator>
     <cc:Agent>
      <dc:title>Matplotlib v3.8.1, https://matplotlib.org/</dc:title>
     </cc:Agent>
    </dc:creator>
   </cc:Work>
  </rdf:RDF>
 </metadata>
 <defs>
  <style type="text/css">*{stroke-linejoin: round; stroke-linecap: butt}</style>
 </defs>
 <g id="figure_1">
  <g id="patch_1">
   <path d="M 0 360 
L 720 360 
L 720 0 
L 0 0 
z
" style="fill: #ffffff"/>
  </g>
  <g id="axes_1">
   <g id="patch_2">
    <path d="M 292.302758 320.4 
L 292.302758 43.2 
L 445.697242 43.2 
L 445.697242 320.4 
L 292.302758 320.4 
" style="fill: #ffffff"/>
   </g>
   <g id="line2d_1">
    <defs>
     <path id="mf5ce073c80" d="M 0 9.802111 
C 2.59955 9.802111 5.09298 8.769299 6.931139 6.931139 
C 8.769299 5.09298 9.802111 2.59955 9.802111 0 
C 9.802111 -2.59955 8.769299 -5.09298 6.931139 -6.931139 
C 5.09298 -8.769299 2.59955 -9.802111 0 -9.802111 
C -2.59955 -9.802111 -5.09298 -8.769299 -6.931139 -6.931139 
C -8.769299 -5.09298 -9.802111 -2.59955 -9.802111 0 
C -9.802111 2.59955 -8.769299 5.09298 -6.931139 6.931139 
C -5.09298 8.769299 -2.59955 9.802111 0 9.802111 
z
" style="stroke: #000000"/>
    </defs>
    <g clip-path="url(#p6d32343654)">
     <use xlink:href="#mf5ce073c80" x="438.724765" y="82.642532" style="stroke: #000000"/>
    </g>
   </g>
   <g id="line2d_2">
    <defs>
     <path id="m381f0977d7" d="M 0 9.422498 
C 2.498876 9.422498 4.895741 8.429685 6.662713 6.662713 
C 8.429685 4.895741 9.422498 2.498876 9.422498 0 
C 9.422498 -2.498876 8.429685 -4.895741 6.662713 -6.662713 
C 4.895741 -8.429685 2.498876 -9.422498 0 -9.422498 
C -2.498876 -9.422498 -4.895741 -8.429685 -6.662713 -6.662713 
C -8.429685 -4.895741 -9.422498 -2.498876 -9.422498 0 
C -9.422498 2.498876 -8.429685 4.895741 -6.662713 6.662713 
C -4.895741 8.429685 -2.498876 9.422498 0 9.422498 
z
" style="stroke: #000000"/>
    </defs>
    <g clip-path="url(#p6d32343654)">
     <use xlink:href="#m381f0977d7" x="431.658593" y="79.621379" style="stroke: #000000"/>
    </g>
   </g>
   <g id="line2d_3">
    <defs>
     <path id="m2eb1d442be" d="M 0 9.273978 
C 2.459488 9.273978 4.818572 8.296813 6.557693 6.557693 
C 8.296813 4.818572 9.273978 2.459488 9.273978 0 
C 9.273978 -2.459488 8.296813 -4.818572 6.557693 -6.557693 
C 4.818572 -8.296813 2.459488 -9.273978 0 -9.273978 
C -2.459488 -9.273978 -4.818572 -8.296813 -6.557693 -6.557693 
C -8.296813 -4.818572 -9.273978 -2.459488 -9.273978 0 
C -9.273978 2.459488 -8.296813 4.818572 -6.557693 6.557693 
C -4.818572 8.296813 -2.459488 9.273978 0 9.273978 
z
" style="stroke: #000000"/>
    </defs>
    <g clip-path="url(#p6d32343654)">
     <use xlink:href="#m2eb1d442be" x="438.467543" y="82.868319" style="stroke: #000000"/>
    </g>
   </g>
   <g id="line2d_4">
    <defs>
     <path id="ma0a6a15240" d="M 0 8.659351 
C 2.296487 8.659351 4.499224 7.746947 6.123086 6.123086 
C 7.746947 4.499224 8.659351 2.296487 8.659351 0 
C 8.659351 -2.296487 7.746947 -4.499224 6.123086 -6.123086 
C 4.499224 -7.746947 2.296487 -8.659351 0 -8.659351 
C -2.296487 -8.659351 -4.499224 -7.746947 -6.123086 -6.123086 
C -7.746947 -4.499224 -8.659351 -2.296487 -8.659351 0 
C -8.659351 2.296487 -7.746947 4.499224 -6.123086 6.123086 
C -4.499224 7.746947 -2.296487 8.659351 0 8.659351 
z
" style="stroke: #000000"/>
    </defs>
    <g clip-path="url(#p6d32343654)">
     <use xlink:href="#ma0a6a15240" x="377.584137" y="95.191137" style="stroke: #000000"/>
    </g>
   </g>
   <g id="line2d_5">
    <defs>
     <path id="mf319a0fdc9" d="M 0 8.65788 
C 2.296097 8.65788 4.49846 7.745631 6.122046 6.122046 
C 7.745631 4.49846 8.65788 2.296097 8.65788 0 
C 8.65788 -2.296097 7.745631 -4.49846 6.122046 -6.122046 
C 4.49846 -7.745631 2.296097 -8.65788 0 -8.65788 
C -2.296097 -8.65788 -4.49846 -7.745631 -6.122046 -6.122046 
C -7.745631 -4.49846 -8.65788 -2.296097 -8.65788 0 
C -8.65788 2.296097 -7.745631 4.49846 -6.122046 6.122046 
C -4.49846 7.745631 -2.296097 8.65788 0 8.65788 
z
" style="stroke: #000000"/>
    </defs>
    <g clip-path="url(#p6d32343654)">
     <use xlink:href="#mf319a0fdc9" x="299.275235" y="307.8" style="stroke: #000000"/>
    </g>
   </g>
   <g id="line2d_6">
    <defs>
     <path id="m27a958b661" d="M 0 8.547539 
C 2.266834 8.547539 4.441129 7.646916 6.044023 6.044023 
C 7.646916 4.441129 8.547539 2.266834 8.547539 0 
C 8.547539 -2.266834 7.646916 -4.441129 6.044023 -6.044023 
C 4.441129 -7.646916 2.266834 -8.547539 0 -8.547539 
C -2.266834 -8.547539 -4.441129 -7.646916 -6.044023 -6.044023 
C -7.646916 -4.441129 -8.547539 -2.266834 -8.547539 0 
C -8.547539 2.266834 -7.646916 4.441129 -6.044023 6.044023 
C -4.441129 7.646916 -2.266834 8.547539 0 8.547539 
z
" style="stroke: #000000"/>
    </defs>
    <g clip-path="url(#p6d32343654)">
     <use xlink:href="#m27a958b661" x="389.633823" y="61.97632" style="stroke: #000000"/>
    </g>
   </g>
   <g id="line2d_7">
    <defs>
     <path id="m6a48054d2c" d="M 0 8.436343 
C 2.237344 8.436343 4.383354 7.547437 5.965396 5.965396 
C 7.547437 4.383354 8.436343 2.237344 8.436343 0 
C 8.436343 -2.237344 7.547437 -4.383354 5.965396 -5.965396 
C 4.383354 -7.547437 2.237344 -8.436343 0 -8.436343 
C -2.237344 -8.436343 -4.383354 -7.547437 -5.965396 -5.965396 
C -7.547437 -4.383354 -8.436343 -2.237344 -8.436343 0 
C -8.436343 2.237344 -7.547437 4.383354 -5.965396 5.965396 
C -4.383354 7.547437 -2.237344 8.436343 0 8.436343 
z
" style="stroke: #000000"/>
    </defs>
    <g clip-path="url(#p6d32343654)">
     <use xlink:href="#m6a48054d2c" x="406.948804" y="89.414783" style="stroke: #000000"/>
    </g>
   </g>
   <g id="line2d_8">
    <defs>
     <path id="m1191868b53" d="M 0 8.36217 
C 2.217673 8.36217 4.344815 7.481079 5.912947 5.912947 
C 7.481079 4.344815 8.36217 2.217673 8.36217 0 
C 8.36217 -2.217673 7.481079 -4.344815 5.912947 -5.912947 
C 4.344815 -7.481079 2.217673 -8.36217 0 -8.36217 
C -2.217673 -8.36217 -4.344815 -7.481079 -5.912947 -5.912947 
C -7.481079 -4.344815 -8.36217 -2.217673 -8.36217 0 
C -8.36217 2.217673 -7.481079 4.344815 -5.912947 5.912947 
C -4.344815 7.481079 -2.217673 8.36217 0 8.36217 
z
" style="stroke: #000000"/>
    </defs>
    <g clip-path="url(#p6d32343654)">
     <use xlink:href="#m1191868b53" x="383.841805" y="55.8" style="stroke: #000000"/>
    </g>
   </g>
   <g id="line2d_9">
    <defs>
     <path id="mb78ee1d309" d="M 0 8.354596 
C 2.215665 8.354596 4.34088 7.474303 5.907591 5.907591 
C 7.474303 4.34088 8.354596 2.215665 8.354596 0 
C 8.354596 -2.215665 7.474303 -4.34088 5.907591 -5.907591 
C 4.34088 -7.474303 2.215665 -8.354596 0 -8.354596 
C -2.215665 -8.354596 -4.34088 -7.474303 -5.907591 -5.907591 
C -7.474303 -4.34088 -8.354596 -2.215665 -8.354596 0 
C -8.354596 2.215665 -7.474303 4.34088 -5.907591 5.907591 
C -4.34088 7.474303 -2.215665 8.354596 0 8.354596 
z
" style="stroke: #000000"/>
    </defs>
    <g clip-path="url(#p6d32343654)">
     <use xlink:href="#mb78ee1d309" x="407.406698" y="73.330959" style="stroke: #000000"/>
    </g>
   </g>
   <g id="line2d_10">
    <defs>
     <path id="m8e0f0f7a28" d="M 0 8.158565 
C 2.163677 8.158565 4.239026 7.298927 5.768977 5.768977 
C 7.298927 4.239026 8.158565 2.163677 8.158565 0 
C 8.158565 -2.163677 7.298927 -4.239026 5.768977 -5.768977 
C 4.239026 -7.298927 2.163677 -8.158565 0 -8.158565 
C -2.163677 -8.158565 -4.239026 -7.298927 -5.768977 -5.768977 
C -7.298927 -4.239026 -8.158565 -2.163677 -8.158565 0 
C -8.158565 2.163677 -7.298927 4.239026 -5.768977 5.768977 
C -4.239026 7.298927 -2.163677 8.158565 0 8.158565 
z
" style="stroke: #000000"/>
    </defs>
    <g clip-path="url(#p6d32343654)">
     <use xlink:href="#m8e0f0f7a28" x="421.865416" y="79.324907" style="stroke: #000000"/>
    </g>
   </g>
  </g>
 </g>
 <defs>
  <clipPath id="p6d32343654">
   <path d="M 292.302758 320.4 
L 292.302758 43.2 
L 445.697242 43.2 
L 445.697242 320.4 
L 292.302758 320.4 
"/>
  </clipPath>
 </defs>
</svg>
