<?xml version="1.0" encoding="utf-8" standalone="no"?>
<!DOCTYPE svg PUBLIC "-//W3C//DTD SVG 1.1//EN"
  "http://www.w3.org/Graphics/SVG/1.1/DTD/svg11.dtd">
<svg xmlns:xlink="http://www.w3.org/1999/xlink" width="720pt" height="360pt" viewBox="0 0 720 360" xmlns="http://www.w3.org/2000/svg" version="1.1">
 <metadata>
  <rdf:RDF xmlns:dc="http://purl.org/dc/elements/1.1/" xmlns:cc="http://creativecommons.org/ns#" xmlns:rdf="http://www.w3.org/1999/02/22-rdf-syntax-ns#">
   <cc:Work>
    <dc:type rdf:resource="http://purl.org/dc/dcmitype/StillImage"/>
    <dc:date>2023-11-30T21:30:49.404966</dc:date>
    <dc:format>image/svg+xml</dc:format>
    <dc:creator>
     <cc:Agent>
      <dc:title>Matplotlib v3.8.1, https://matplotlib.org/</dc:title>
     </cc:Agent>
    </dc:creator>
   </cc:Work>
  </rdf:RDF>
 </metadata>
 <defs>
  <style type="text/css">*{stroke-linejoin: round; stroke-linecap: butt}</style>
 </defs>
 <g id="figure_1">
  <g id="patch_1">
   <path d="M 0 360 
L 720 360 
L 720 0 
L 0 0 
z
" style="fill: #ffffff"/>
  </g>
  <g id="axes_1">
   <g id="patch_2">
    <path d="M 90 267.152242 
L 90 96.447758 
L 648 96.447758 
L 648 267.152242 
L 90 267.152242 
" style="fill: #ffffff"/>
   </g>
   <g id="line2d_1">
    <defs>
     <path id="m028541b2ef" d="M 0 9.319404 
C 2.471535 9.319404 4.842174 8.337452 6.589813 6.589813 
C 8.337452 4.842174 9.319404 2.471535 9.319404 0 
C 9.319404 -2.471535 8.337452 -4.842174 6.589813 -6.589813 
C 4.842174 -8.337452 2.471535 -9.319404 0 -9.319404 
C -2.471535 -9.319404 -4.842174 -8.337452 -6.589813 -6.589813 
C -8.337452 -4.842174 -9.319404 -2.471535 -9.319404 0 
C -9.319404 2.471535 -8.337452 4.842174 -6.589813 6.589813 
C -4.842174 8.337452 -2.471535 9.319404 0 9.319404 
z
" style="stroke: #000000"/>
    </defs>
    <g clip-path="url(#p314249d191)">
     <use xlink:href="#m028541b2ef" x="599.895433" y="164.658923" style="stroke: #000000"/>
    </g>
   </g>
   <g id="line2d_2">
    <defs>
     <path id="madc73fa7ae" d="M 0 9.147234 
C 2.425875 9.147234 4.752719 8.183424 6.468071 6.468071 
C 8.183424 4.752719 9.147234 2.425875 9.147234 0 
C 9.147234 -2.425875 8.183424 -4.752719 6.468071 -6.468071 
C 4.752719 -8.183424 2.425875 -9.147234 0 -9.147234 
C -2.425875 -9.147234 -4.752719 -8.183424 -6.468071 -6.468071 
C -8.183424 -4.752719 -9.147234 -2.425875 -9.147234 0 
C -9.147234 2.425875 -8.183424 4.752719 -6.468071 6.468071 
C -4.752719 8.183424 -2.425875 9.147234 0 9.147234 
z
" style="stroke: #000000"/>
    </defs>
    <g clip-path="url(#p314249d191)">
     <use xlink:href="#madc73fa7ae" x="608.059399" y="155.162517" style="stroke: #000000"/>
    </g>
   </g>
   <g id="line2d_3">
    <defs>
     <path id="m5e701fe5c2" d="M 0 8.309401 
C 2.203679 8.309401 4.317397 7.43387 5.875634 5.875634 
C 7.43387 4.317397 8.309401 2.203679 8.309401 0 
C 8.309401 -2.203679 7.43387 -4.317397 5.875634 -5.875634 
C 4.317397 -7.43387 2.203679 -8.309401 0 -8.309401 
C -2.203679 -8.309401 -4.317397 -7.43387 -5.875634 -5.875634 
C -7.43387 -4.317397 -8.309401 -2.203679 -8.309401 0 
C -8.309401 2.203679 -7.43387 4.317397 -5.875634 5.875634 
C -4.317397 7.43387 -2.203679 8.309401 0 8.309401 
z
" style="stroke: #000000"/>
    </defs>
    <g clip-path="url(#p314249d191)">
     <use xlink:href="#m5e701fe5c2" x="613.027684" y="156.79168" style="stroke: #000000"/>
    </g>
   </g>
   <g id="line2d_4">
    <defs>
     <path id="mec31dde0d8" d="M 0 8.161299 
C 2.164402 8.161299 4.240446 7.301373 5.77091 5.77091 
C 7.301373 4.240446 8.161299 2.164402 8.161299 0 
C 8.161299 -2.164402 7.301373 -4.240446 5.77091 -5.77091 
C 4.240446 -7.301373 2.164402 -8.161299 0 -8.161299 
C -2.164402 -8.161299 -4.240446 -7.301373 -5.77091 -5.77091 
C -7.301373 -4.240446 -8.161299 -2.164402 -8.161299 0 
C -8.161299 2.164402 -7.301373 4.240446 -5.77091 5.77091 
C -4.240446 7.301373 -2.164402 8.161299 0 8.161299 
z
" style="stroke: #000000"/>
    </defs>
    <g clip-path="url(#p314249d191)">
     <use xlink:href="#mec31dde0d8" x="115.363636" y="259.392948" style="stroke: #000000"/>
    </g>
   </g>
   <g id="line2d_5">
    <defs>
     <path id="mbb44f23d67" d="M 0 8.11456 
C 2.152006 8.11456 4.216162 7.259558 5.73786 5.73786 
C 7.259558 4.216162 8.11456 2.152006 8.11456 0 
C 8.11456 -2.152006 7.259558 -4.216162 5.73786 -5.73786 
C 4.216162 -7.259558 2.152006 -8.11456 0 -8.11456 
C -2.152006 -8.11456 -4.216162 -7.259558 -5.73786 -5.73786 
C -7.259558 -4.216162 -8.11456 -2.152006 -8.11456 0 
C -8.11456 2.152006 -7.259558 4.216162 -5.73786 5.73786 
C -4.216162 7.259558 -2.152006 8.11456 0 8.11456 
z
" style="stroke: #000000"/>
    </defs>
    <g clip-path="url(#p314249d191)">
     <use xlink:href="#mbb44f23d67" x="579.81424" y="173.665052" style="stroke: #000000"/>
    </g>
   </g>
   <g id="line2d_6">
    <defs>
     <path id="m55fa40889c" d="M 0 8.112943 
C 2.151578 8.112943 4.215322 7.258112 5.736717 5.736717 
C 7.258112 4.215322 8.112943 2.151578 8.112943 0 
C 8.112943 -2.151578 7.258112 -4.215322 5.736717 -5.736717 
C 4.215322 -7.258112 2.151578 -8.112943 0 -8.112943 
C -2.151578 -8.112943 -4.215322 -7.258112 -5.736717 -5.736717 
C -7.258112 -4.215322 -8.112943 -2.151578 -8.112943 0 
C -8.112943 2.151578 -7.258112 4.215322 -5.736717 5.736717 
C -4.215322 7.258112 -2.151578 8.112943 0 8.112943 
z
" style="stroke: #000000"/>
    </defs>
    <g clip-path="url(#p314249d191)">
     <use xlink:href="#m55fa40889c" x="536.584334" y="104.207052" style="stroke: #000000"/>
    </g>
   </g>
   <g id="line2d_7">
    <defs>
     <path id="m7d093f1f04" d="M 0 8.03823 
C 2.131764 8.03823 4.176503 7.191272 5.683887 5.683887 
C 7.191272 4.176503 8.03823 2.131764 8.03823 0 
C 8.03823 -2.131764 7.191272 -4.176503 5.683887 -5.683887 
C 4.176503 -7.191272 2.131764 -8.03823 0 -8.03823 
C -2.131764 -8.03823 -4.176503 -7.191272 -5.683887 -5.683887 
C -7.191272 -4.176503 -8.03823 -2.131764 -8.03823 0 
C -8.03823 2.131764 -7.191272 4.176503 -5.683887 5.683887 
C -4.176503 7.191272 -2.131764 8.03823 0 8.03823 
z
" style="stroke: #000000"/>
    </defs>
    <g clip-path="url(#p314249d191)">
     <use xlink:href="#m7d093f1f04" x="596.696423" y="148.164812" style="stroke: #000000"/>
    </g>
   </g>
   <g id="line2d_8">
    <defs>
     <path id="m1ef0672128" d="M 0 7.951011 
C 2.108633 7.951011 4.131185 7.113242 5.622214 5.622214 
C 7.113242 4.131185 7.951011 2.108633 7.951011 0 
C 7.951011 -2.108633 7.113242 -4.131185 5.622214 -5.622214 
C 4.131185 -7.113242 2.108633 -7.951011 0 -7.951011 
C -2.108633 -7.951011 -4.131185 -7.113242 -5.622214 -5.622214 
C -7.113242 -4.131185 -7.951011 -2.108633 -7.951011 0 
C -7.951011 2.108633 -7.113242 4.131185 -5.622214 5.622214 
C -4.131185 7.113242 -2.108633 7.951011 0 7.951011 
z
" style="stroke: #000000"/>
    </defs>
    <g clip-path="url(#p314249d191)">
     <use xlink:href="#m1ef0672128" x="556.021397" y="183.62714" style="stroke: #000000"/>
    </g>
   </g>
   <g id="line2d_9">
    <defs>
     <path id="ma64d9207e9" d="M 0 7.828129 
C 2.076044 7.828129 4.067338 7.003308 5.535323 5.535323 
C 7.003308 4.067338 7.828129 2.076044 7.828129 0 
C 7.828129 -2.076044 7.003308 -4.067338 5.535323 -5.535323 
C 4.067338 -7.003308 2.076044 -7.828129 0 -7.828129 
C -2.076044 -7.828129 -4.067338 -7.003308 -5.535323 -5.535323 
C -7.003308 -4.067338 -7.828129 -2.076044 -7.828129 0 
C -7.828129 2.076044 -7.003308 4.067338 -5.535323 5.535323 
C -4.067338 7.003308 -2.076044 7.828129 0 7.828129 
z
" style="stroke: #000000"/>
    </defs>
    <g clip-path="url(#p314249d191)">
     <use xlink:href="#ma64d9207e9" x="615.534296" y="152.520264" style="stroke: #000000"/>
    </g>
   </g>
   <g id="line2d_10">
    <defs>
     <path id="m85c44e8300" d="M 0 7.816909 
C 2.073069 7.816909 4.061509 6.99327 5.527389 5.527389 
C 6.99327 4.061509 7.816909 2.073069 7.816909 0 
C 7.816909 -2.073069 6.99327 -4.061509 5.527389 -5.527389 
C 4.061509 -6.99327 2.073069 -7.816909 0 -7.816909 
C -2.073069 -7.816909 -4.061509 -6.99327 -5.527389 -5.527389 
C -6.99327 -4.061509 -7.816909 -2.073069 -7.816909 0 
C -7.816909 2.073069 -6.99327 4.061509 -5.527389 5.527389 
C -4.061509 6.99327 -2.073069 7.816909 0 7.816909 
z
" style="stroke: #000000"/>
    </defs>
    <g clip-path="url(#p314249d191)">
     <use xlink:href="#m85c44e8300" x="622.636364" y="148.620299" style="stroke: #000000"/>
    </g>
   </g>
  </g>
 </g>
 <defs>
  <clipPath id="p314249d191">
   <path d="M 90 267.152242 
L 90 96.447758 
L 648 96.447758 
L 648 267.152242 
L 90 267.152242 
"/>
  </clipPath>
 </defs>
</svg>
