<?xml version="1.0" encoding="utf-8" standalone="no"?>
<!DOCTYPE svg PUBLIC "-//W3C//DTD SVG 1.1//EN"
  "http://www.w3.org/Graphics/SVG/1.1/DTD/svg11.dtd">
<svg xmlns:xlink="http://www.w3.org/1999/xlink" width="720pt" height="360pt" viewBox="0 0 720 360" xmlns="http://www.w3.org/2000/svg" version="1.1">
 <metadata>
  <rdf:RDF xmlns:dc="http://purl.org/dc/elements/1.1/" xmlns:cc="http://creativecommons.org/ns#" xmlns:rdf="http://www.w3.org/1999/02/22-rdf-syntax-ns#">
   <cc:Work>
    <dc:type rdf:resource="http://purl.org/dc/dcmitype/StillImage"/>
    <dc:date>2023-11-30T21:30:49.451352</dc:date>
    <dc:format>image/svg+xml</dc:format>
    <dc:creator>
     <cc:Agent>
      <dc:title>Matplotlib v3.8.1, https://matplotlib.org/</dc:title>
     </cc:Agent>
    </dc:creator>
   </cc:Work>
  </rdf:RDF>
 </metadata>
 <defs>
  <style type="text/css">*{stroke-linejoin: round; stroke-linecap: butt}</style>
 </defs>
 <g id="figure_1">
  <g id="patch_1">
   <path d="M 0 360 
L 720 360 
L 720 0 
L 0 0 
z
" style="fill: #ffffff"/>
  </g>
  <g id="axes_1">
   <g id="patch_2">
    <path d="M 270.429594 320.4 
L 270.429594 43.2 
L 467.570406 43.2 
L 467.570406 320.4 
L 270.429594 320.4 
" style="fill: #ffffff"/>
   </g>
   <g id="line2d_1">
    <defs>
     <path id="m42a0441dd2" d="M 0 11.441672 
C 3.034367 11.441672 5.944862 10.236105 8.090484 8.090484 
C 10.236105 5.944862 11.441672 3.034367 11.441672 0 
C 11.441672 -3.034367 10.236105 -5.944862 8.090484 -8.090484 
C 5.944862 -10.236105 3.034367 -11.441672 0 -11.441672 
C -3.034367 -11.441672 -5.944862 -10.236105 -8.090484 -8.090484 
C -10.236105 -5.944862 -11.441672 -3.034367 -11.441672 0 
C -11.441672 3.034367 -10.236105 5.944862 -8.090484 8.090484 
C -5.944862 10.236105 -3.034367 11.441672 0 11.441672 
z
" style="stroke: #000000"/>
    </defs>
    <g clip-path="url(#p5ff2ee4c4e)">
     <use xlink:href="#m42a0441dd2" x="350.397543" y="219.816678" style="stroke: #000000"/>
    </g>
   </g>
   <g id="line2d_2">
    <defs>
     <path id="m0778029417" d="M 0 10.155041 
C 2.693148 10.155041 5.276355 9.085042 7.180698 7.180698 
C 9.085042 5.276355 10.155041 2.693148 10.155041 0 
C 10.155041 -2.693148 9.085042 -5.276355 7.180698 -7.180698 
C 5.276355 -9.085042 2.693148 -10.155041 0 -10.155041 
C -2.693148 -10.155041 -5.276355 -9.085042 -7.180698 -7.180698 
C -9.085042 -5.276355 -10.155041 -2.693148 -10.155041 0 
C -10.155041 2.693148 -9.085042 5.276355 -7.180698 7.180698 
C -5.276355 9.085042 -2.693148 10.155041 0 10.155041 
z
" style="stroke: #000000"/>
    </defs>
    <g clip-path="url(#p5ff2ee4c4e)">
     <use xlink:href="#m0778029417" x="348.626594" y="220.085065" style="stroke: #000000"/>
    </g>
   </g>
   <g id="line2d_3">
    <defs>
     <path id="m62b4d0e33b" d="M 0 9.97174 
C 2.644536 9.97174 5.181116 8.921055 7.051085 7.051085 
C 8.921055 5.181116 9.97174 2.644536 9.97174 0 
C 9.97174 -2.644536 8.921055 -5.181116 7.051085 -7.051085 
C 5.181116 -8.921055 2.644536 -9.97174 0 -9.97174 
C -2.644536 -9.97174 -5.181116 -8.921055 -7.051085 -7.051085 
C -8.921055 -5.181116 -9.97174 -2.644536 -9.97174 0 
C -9.97174 2.644536 -8.921055 5.181116 -7.051085 7.051085 
C -5.181116 8.921055 -2.644536 9.97174 0 9.97174 
z
" style="stroke: #000000"/>
    </defs>
    <g clip-path="url(#p5ff2ee4c4e)">
     <use xlink:href="#m62b4d0e33b" x="458.60946" y="307.8" style="stroke: #000000"/>
    </g>
   </g>
   <g id="line2d_4">
    <defs>
     <path id="m957a25b9f4" d="M 0 9.905559 
C 2.626985 9.905559 5.146729 8.861847 7.004288 7.004288 
C 8.861847 5.146729 9.905559 2.626985 9.905559 0 
C 9.905559 -2.626985 8.861847 -5.146729 7.004288 -7.004288 
C 5.146729 -8.861847 2.626985 -9.905559 0 -9.905559 
C -2.626985 -9.905559 -5.146729 -8.861847 -7.004288 -7.004288 
C -8.861847 -5.146729 -9.905559 -2.626985 -9.905559 0 
C -9.905559 2.626985 -8.861847 5.146729 -7.004288 7.004288 
C -5.146729 8.861847 -2.626985 9.905559 0 9.905559 
z
" style="stroke: #000000"/>
    </defs>
    <g clip-path="url(#p5ff2ee4c4e)">
     <use xlink:href="#m957a25b9f4" x="310.965055" y="141.735335" style="stroke: #000000"/>
    </g>
   </g>
   <g id="line2d_5">
    <defs>
     <path id="m937e0fcff1" d="M 0 9.537819 
C 2.529459 9.537819 4.955659 8.532854 6.744257 6.744257 
C 8.532854 4.955659 9.537819 2.529459 9.537819 0 
C 9.537819 -2.529459 8.532854 -4.955659 6.744257 -6.744257 
C 4.955659 -8.532854 2.529459 -9.537819 0 -9.537819 
C -2.529459 -9.537819 -4.955659 -8.532854 -6.744257 -6.744257 
C -8.532854 -4.955659 -9.537819 -2.529459 -9.537819 0 
C -9.537819 2.529459 -8.532854 4.955659 -6.744257 6.744257 
C -4.955659 8.532854 -2.529459 9.537819 0 9.537819 
z
" style="stroke: #000000"/>
    </defs>
    <g clip-path="url(#p5ff2ee4c4e)">
     <use xlink:href="#m937e0fcff1" x="294.99105" y="115.197612" style="stroke: #000000"/>
    </g>
   </g>
   <g id="line2d_6">
    <defs>
     <path id="mc0aef025ee" d="M 0 9.443033 
C 2.504322 9.443033 4.90641 8.448055 6.677233 6.677233 
C 8.448055 4.90641 9.443033 2.504322 9.443033 0 
C 9.443033 -2.504322 8.448055 -4.90641 6.677233 -6.677233 
C 4.90641 -8.448055 2.504322 -9.443033 0 -9.443033 
C -2.504322 -9.443033 -4.90641 -8.448055 -6.677233 -6.677233 
C -8.448055 -4.90641 -9.443033 -2.504322 -9.443033 0 
C -9.443033 2.504322 -8.448055 4.90641 -6.677233 6.677233 
C -4.90641 8.448055 -2.504322 9.443033 0 9.443033 
z
" style="stroke: #000000"/>
    </defs>
    <g clip-path="url(#p5ff2ee4c4e)">
     <use xlink:href="#mc0aef025ee" x="279.39054" y="84.170175" style="stroke: #000000"/>
    </g>
   </g>
   <g id="line2d_7">
    <defs>
     <path id="m99c2369e82" d="M 0 9.399734 
C 2.492839 9.399734 4.883913 8.409319 6.646616 6.646616 
C 8.409319 4.883913 9.399734 2.492839 9.399734 0 
C 9.399734 -2.492839 8.409319 -4.883913 6.646616 -6.646616 
C 4.883913 -8.409319 2.492839 -9.399734 0 -9.399734 
C -2.492839 -9.399734 -4.883913 -8.409319 -6.646616 -6.646616 
C -8.409319 -4.883913 -9.399734 -2.492839 -9.399734 0 
C -9.399734 2.492839 -8.409319 4.883913 -6.646616 6.646616 
C -4.883913 8.409319 -2.492839 9.399734 0 9.399734 
z
" style="stroke: #000000"/>
    </defs>
    <g clip-path="url(#p5ff2ee4c4e)">
     <use xlink:href="#m99c2369e82" x="386.316499" y="220.255991" style="stroke: #000000"/>
    </g>
   </g>
   <g id="line2d_8">
    <defs>
     <path id="m80871df469" d="M 0 9.354385 
C 2.480812 9.354385 4.86035 8.368748 6.614549 6.614549 
C 8.368748 4.86035 9.354385 2.480812 9.354385 0 
C 9.354385 -2.480812 8.368748 -4.86035 6.614549 -6.614549 
C 4.86035 -8.368748 2.480812 -9.354385 0 -9.354385 
C -2.480812 -9.354385 -4.86035 -8.368748 -6.614549 -6.614549 
C -8.368748 -4.86035 -9.354385 -2.480812 -9.354385 0 
C -9.354385 2.480812 -8.368748 4.86035 -6.614549 6.614549 
C -4.86035 8.368748 -2.480812 9.354385 0 9.354385 
z
" style="stroke: #000000"/>
    </defs>
    <g clip-path="url(#p5ff2ee4c4e)">
     <use xlink:href="#m80871df469" x="450.092749" y="249.511991" style="stroke: #000000"/>
    </g>
   </g>
   <g id="line2d_9">
    <defs>
     <path id="m331bcb2014" d="M 0 9.263269 
C 2.456648 9.263269 4.813008 8.287232 6.55012 6.55012 
C 8.287232 4.813008 9.263269 2.456648 9.263269 0 
C 9.263269 -2.456648 8.287232 -4.813008 6.55012 -6.55012 
C 4.813008 -8.287232 2.456648 -9.263269 0 -9.263269 
C -2.456648 -9.263269 -4.813008 -8.287232 -6.55012 -6.55012 
C -8.287232 -4.813008 -9.263269 -2.456648 -9.263269 0 
C -9.263269 2.456648 -8.287232 4.813008 -6.55012 6.55012 
C -4.813008 8.287232 -2.456648 9.263269 0 9.263269 
z
" style="stroke: #000000"/>
    </defs>
    <g clip-path="url(#p5ff2ee4c4e)">
     <use xlink:href="#m331bcb2014" x="424.750046" y="55.8" style="stroke: #000000"/>
    </g>
   </g>
   <g id="line2d_10">
    <defs>
     <path id="mec6362594c" d="M 0 9.157347 
C 2.428557 9.157347 4.757973 8.192471 6.475222 6.475222 
C 8.192471 4.757973 9.157347 2.428557 9.157347 0 
C 9.157347 -2.428557 8.192471 -4.757973 6.475222 -6.475222 
C 4.757973 -8.192471 2.428557 -9.157347 0 -9.157347 
C -2.428557 -9.157347 -4.757973 -8.192471 -6.475222 -6.475222 
C -8.192471 -4.757973 -9.157347 -2.428557 -9.157347 0 
C -9.157347 2.428557 -8.192471 4.757973 -6.475222 6.475222 
C -4.757973 8.192471 -2.428557 9.157347 0 9.157347 
z
" style="stroke: #000000"/>
    </defs>
    <g clip-path="url(#p5ff2ee4c4e)">
     <use xlink:href="#mec6362594c" x="399.14042" y="146.939183" style="stroke: #000000"/>
    </g>
   </g>
  </g>
 </g>
 <defs>
  <clipPath id="p5ff2ee4c4e">
   <path d="M 270.429594 320.4 
L 270.429594 43.2 
L 467.570406 43.2 
L 467.570406 320.4 
L 270.429594 320.4 
"/>
  </clipPath>
 </defs>
</svg>
