<?xml version="1.0" encoding="utf-8" standalone="no"?>
<!DOCTYPE svg PUBLIC "-//W3C//DTD SVG 1.1//EN"
  "http://www.w3.org/Graphics/SVG/1.1/DTD/svg11.dtd">
<svg xmlns:xlink="http://www.w3.org/1999/xlink" width="720pt" height="360pt" viewBox="0 0 720 360" xmlns="http://www.w3.org/2000/svg" version="1.1">
 <metadata>
  <rdf:RDF xmlns:dc="http://purl.org/dc/elements/1.1/" xmlns:cc="http://creativecommons.org/ns#" xmlns:rdf="http://www.w3.org/1999/02/22-rdf-syntax-ns#">
   <cc:Work>
    <dc:type rdf:resource="http://purl.org/dc/dcmitype/StillImage"/>
    <dc:date>2023-11-30T21:30:49.493012</dc:date>
    <dc:format>image/svg+xml</dc:format>
    <dc:creator>
     <cc:Agent>
      <dc:title>Matplotlib v3.8.1, https://matplotlib.org/</dc:title>
     </cc:Agent>
    </dc:creator>
   </cc:Work>
  </rdf:RDF>
 </metadata>
 <defs>
  <style type="text/css">*{stroke-linejoin: round; stroke-linecap: butt}</style>
 </defs>
 <g id="figure_1">
  <g id="patch_1">
   <path d="M 0 360 
L 720 360 
L 720 0 
L 0 0 
z
" style="fill: #ffffff"/>
  </g>
  <g id="axes_1">
   <g id="patch_2">
    <path d="M 108.958263 320.4 
L 108.958263 43.2 
L 629.041737 43.2 
L 629.041737 320.4 
L 108.958263 320.4 
" style="fill: #ffffff"/>
   </g>
   <g id="line2d_1">
    <defs>
     <path id="mcb5128483d" d="M 0 7.43277 
C 1.971194 7.43277 3.861918 6.649606 5.255762 5.255762 
C 6.649606 3.861918 7.43277 1.971194 7.43277 0 
C 7.43277 -1.971194 6.649606 -3.861918 5.255762 -5.255762 
C 3.861918 -6.649606 1.971194 -7.43277 0 -7.43277 
C -1.971194 -7.43277 -3.861918 -6.649606 -5.255762 -5.255762 
C -6.649606 -3.861918 -7.43277 -1.971194 -7.43277 0 
C -7.43277 1.971194 -6.649606 3.861918 -5.255762 5.255762 
C -3.861918 6.649606 -1.971194 7.43277 0 7.43277 
z
" style="stroke: #000000"/>
    </defs>
    <g clip-path="url(#pfbfeb60c4d)">
     <use xlink:href="#mcb5128483d" x="550.982291" y="269.019891" style="stroke: #000000"/>
    </g>
   </g>
   <g id="line2d_2">
    <defs>
     <path id="mfe912b5760" d="M 0 7.342977 
C 1.94738 7.342977 3.815263 6.569274 5.192269 5.192269 
C 6.569274 3.815263 7.342977 1.94738 7.342977 0 
C 7.342977 -1.94738 6.569274 -3.815263 5.192269 -5.192269 
C 3.815263 -6.569274 1.94738 -7.342977 0 -7.342977 
C -1.94738 -7.342977 -3.815263 -6.569274 -5.192269 -5.192269 
C -6.569274 -3.815263 -7.342977 -1.94738 -7.342977 0 
C -7.342977 1.94738 -6.569274 3.815263 -5.192269 5.192269 
C -3.815263 6.569274 -1.94738 7.342977 0 7.342977 
z
" style="stroke: #000000"/>
    </defs>
    <g clip-path="url(#pfbfeb60c4d)">
     <use xlink:href="#mfe912b5760" x="557.824676" y="264.013454" style="stroke: #000000"/>
    </g>
   </g>
   <g id="line2d_3">
    <defs>
     <path id="m6385ae795a" d="M 0 7.32617 
C 1.942923 7.32617 3.806531 6.554239 5.180385 5.180385 
C 6.554239 3.806531 7.32617 1.942923 7.32617 0 
C 7.32617 -1.942923 6.554239 -3.806531 5.180385 -5.180385 
C 3.806531 -6.554239 1.942923 -7.32617 0 -7.32617 
C -1.942923 -7.32617 -3.806531 -6.554239 -5.180385 -5.180385 
C -6.554239 -3.806531 -7.32617 -1.942923 -7.32617 0 
C -7.32617 1.942923 -6.554239 3.806531 -5.180385 5.180385 
C -3.806531 6.554239 -1.942923 7.32617 0 7.32617 
z
" style="stroke: #000000"/>
    </defs>
    <g clip-path="url(#pfbfeb60c4d)">
     <use xlink:href="#m6385ae795a" x="551.668674" y="284.065715" style="stroke: #000000"/>
    </g>
   </g>
   <g id="line2d_4">
    <defs>
     <path id="m187aeb9258" d="M 0 6.910688 
C 1.832736 6.910688 3.590654 6.182534 4.886594 4.886594 
C 6.182534 3.590654 6.910688 1.832736 6.910688 0 
C 6.910688 -1.832736 6.182534 -3.590654 4.886594 -4.886594 
C 3.590654 -6.182534 1.832736 -6.910688 0 -6.910688 
C -1.832736 -6.910688 -3.590654 -6.182534 -4.886594 -4.886594 
C -6.182534 -3.590654 -6.910688 -1.832736 -6.910688 0 
C -6.910688 1.832736 -6.182534 3.590654 -4.886594 4.886594 
C -3.590654 6.182534 -1.832736 6.910688 0 6.910688 
z
" style="stroke: #000000"/>
    </defs>
    <g clip-path="url(#pfbfeb60c4d)">
     <use xlink:href="#m187aeb9258" x="561.186395" y="263.027695" style="stroke: #000000"/>
    </g>
   </g>
   <g id="line2d_5">
    <defs>
     <path id="m200839ab16" d="M 0 6.905386 
C 1.83133 6.905386 3.5879 6.177791 4.882845 4.882845 
C 6.177791 3.5879 6.905386 1.83133 6.905386 0 
C 6.905386 -1.83133 6.177791 -3.5879 4.882845 -4.882845 
C 3.5879 -6.177791 1.83133 -6.905386 0 -6.905386 
C -1.83133 -6.905386 -3.5879 -6.177791 -4.882845 -4.882845 
C -6.177791 -3.5879 -6.905386 -1.83133 -6.905386 0 
C -6.905386 1.83133 -6.177791 3.5879 -4.882845 4.882845 
C -3.5879 6.177791 -1.83133 6.905386 0 6.905386 
z
" style="stroke: #000000"/>
    </defs>
    <g clip-path="url(#pfbfeb60c4d)">
     <use xlink:href="#m200839ab16" x="573.315102" y="258.278137" style="stroke: #000000"/>
    </g>
   </g>
   <g id="line2d_6">
    <defs>
     <path id="m42746ee57e" d="M 0 6.780465 
C 1.7982 6.780465 3.522993 6.066032 4.794513 4.794513 
C 6.066032 3.522993 6.780465 1.7982 6.780465 0 
C 6.780465 -1.7982 6.066032 -3.522993 4.794513 -4.794513 
C 3.522993 -6.066032 1.7982 -6.780465 0 -6.780465 
C -1.7982 -6.780465 -3.522993 -6.066032 -4.794513 -4.794513 
C -6.066032 -3.522993 -6.780465 -1.7982 -6.780465 0 
C -6.780465 1.7982 -6.066032 3.522993 -4.794513 4.794513 
C -3.522993 6.066032 -1.7982 6.780465 0 6.780465 
z
" style="stroke: #000000"/>
    </defs>
    <g clip-path="url(#pfbfeb60c4d)">
     <use xlink:href="#m42746ee57e" x="554.919246" y="294.235351" style="stroke: #000000"/>
    </g>
   </g>
   <g id="line2d_7">
    <defs>
     <path id="m993cd624b6" d="M 0 6.669438 
C 1.768756 6.669438 3.465306 5.966704 4.716005 4.716005 
C 5.966704 3.465306 6.669438 1.768756 6.669438 0 
C 6.669438 -1.768756 5.966704 -3.465306 4.716005 -4.716005 
C 3.465306 -5.966704 1.768756 -6.669438 0 -6.669438 
C -1.768756 -6.669438 -3.465306 -5.966704 -4.716005 -4.716005 
C -5.966704 -3.465306 -6.669438 -1.768756 -6.669438 0 
C -6.669438 1.768756 -5.966704 3.465306 -4.716005 4.716005 
C -3.465306 5.966704 -1.768756 6.669438 0 6.669438 
z
" style="stroke: #000000"/>
    </defs>
    <g clip-path="url(#pfbfeb60c4d)">
     <use xlink:href="#m993cd624b6" x="561.418439" y="307.8" style="stroke: #000000"/>
    </g>
   </g>
   <g id="line2d_8">
    <defs>
     <path id="me316e70d89" d="M 0 6.603736 
C 1.751331 6.603736 3.431168 5.907925 4.669546 4.669546 
C 5.907925 3.431168 6.603736 1.751331 6.603736 0 
C 6.603736 -1.751331 5.907925 -3.431168 4.669546 -4.669546 
C 3.431168 -5.907925 1.751331 -6.603736 0 -6.603736 
C -1.751331 -6.603736 -3.431168 -5.907925 -4.669546 -4.669546 
C -5.907925 -3.431168 -6.603736 -1.751331 -6.603736 0 
C -6.603736 1.751331 -5.907925 3.431168 -4.669546 4.669546 
C -3.431168 5.907925 -1.751331 6.603736 0 6.603736 
z
" style="stroke: #000000"/>
    </defs>
    <g clip-path="url(#pfbfeb60c4d)">
     <use xlink:href="#me316e70d89" x="564.466216" y="262.578524" style="stroke: #000000"/>
    </g>
   </g>
   <g id="line2d_9">
    <defs>
     <path id="mc240c03563" d="M 0 6.170342 
C 1.636394 6.170342 3.205986 5.520196 4.363091 4.363091 
C 5.520196 3.205986 6.170342 1.636394 6.170342 0 
C 6.170342 -1.636394 5.520196 -3.205986 4.363091 -4.363091 
C 3.205986 -5.520196 1.636394 -6.170342 0 -6.170342 
C -1.636394 -6.170342 -3.205986 -5.520196 -4.363091 -4.363091 
C -5.520196 -3.205986 -6.170342 -1.636394 -6.170342 0 
C -6.170342 1.636394 -5.520196 3.205986 -4.363091 4.363091 
C -3.205986 5.520196 -1.636394 6.170342 0 6.170342 
z
" style="stroke: #000000"/>
    </defs>
    <g clip-path="url(#pfbfeb60c4d)">
     <use xlink:href="#mc240c03563" x="605.401579" y="306.568859" style="stroke: #000000"/>
    </g>
   </g>
   <g id="line2d_10">
    <defs>
     <path id="mb36b4ff3bd" d="M 0 6.133393 
C 1.626595 6.133393 3.186788 5.48714 4.336964 4.336964 
C 5.48714 3.186788 6.133393 1.626595 6.133393 0 
C 6.133393 -1.626595 5.48714 -3.186788 4.336964 -4.336964 
C 3.186788 -5.48714 1.626595 -6.133393 0 -6.133393 
C -1.626595 -6.133393 -3.186788 -5.48714 -4.336964 -4.336964 
C -5.48714 -3.186788 -6.133393 -1.626595 -6.133393 0 
C -6.133393 1.626595 -5.48714 3.186788 -4.336964 4.336964 
C -3.186788 5.48714 -1.626595 6.133393 0 6.133393 
z
" style="stroke: #000000"/>
    </defs>
    <g clip-path="url(#pfbfeb60c4d)">
     <use xlink:href="#mb36b4ff3bd" x="132.598421" y="55.8" style="stroke: #000000"/>
    </g>
   </g>
  </g>
 </g>
 <defs>
  <clipPath id="pfbfeb60c4d">
   <path d="M 108.958263 320.4 
L 108.958263 43.2 
L 629.041737 43.2 
L 629.041737 320.4 
L 108.958263 320.4 
"/>
  </clipPath>
 </defs>
</svg>
