<?xml version="1.0" encoding="utf-8" standalone="no"?>
<!DOCTYPE svg PUBLIC "-//W3C//DTD SVG 1.1//EN"
  "http://www.w3.org/Graphics/SVG/1.1/DTD/svg11.dtd">
<svg xmlns:xlink="http://www.w3.org/1999/xlink" width="720pt" height="360pt" viewBox="0 0 720 360" xmlns="http://www.w3.org/2000/svg" version="1.1">
 <metadata>
  <rdf:RDF xmlns:dc="http://purl.org/dc/elements/1.1/" xmlns:cc="http://creativecommons.org/ns#" xmlns:rdf="http://www.w3.org/1999/02/22-rdf-syntax-ns#">
   <cc:Work>
    <dc:type rdf:resource="http://purl.org/dc/dcmitype/StillImage"/>
    <dc:date>2023-11-30T21:30:49.534994</dc:date>
    <dc:format>image/svg+xml</dc:format>
    <dc:creator>
     <cc:Agent>
      <dc:title>Matplotlib v3.8.1, https://matplotlib.org/</dc:title>
     </cc:Agent>
    </dc:creator>
   </cc:Work>
  </rdf:RDF>
 </metadata>
 <defs>
  <style type="text/css">*{stroke-linejoin: round; stroke-linecap: butt}</style>
 </defs>
 <g id="figure_1">
  <g id="patch_1">
   <path d="M 0 360 
L 720 360 
L 720 0 
L 0 0 
z
" style="fill: #ffffff"/>
  </g>
  <g id="axes_1">
   <g id="patch_2">
    <path d="M 90 302.194436 
L 90 61.405564 
L 648 61.405564 
L 648 302.194436 
L 90 302.194436 
" style="fill: #ffffff"/>
   </g>
   <g id="line2d_1">
    <defs>
     <path id="m64e5a68bf9" d="M 0 9.05709 
C 2.401968 9.05709 4.705882 8.102778 6.40433 6.40433 
C 8.102778 4.705882 9.05709 2.401968 9.05709 0 
C 9.05709 -2.401968 8.102778 -4.705882 6.40433 -6.40433 
C 4.705882 -8.102778 2.401968 -9.05709 0 -9.05709 
C -2.401968 -9.05709 -4.705882 -8.102778 -6.40433 -6.40433 
C -8.102778 -4.705882 -9.05709 -2.401968 -9.05709 0 
C -9.05709 2.401968 -8.102778 4.705882 -6.40433 6.40433 
C -4.705882 8.102778 -2.401968 9.05709 0 9.05709 
z
" style="stroke: #000000"/>
    </defs>
    <g clip-path="url(#pf967c14cfa)">
     <use xlink:href="#m64e5a68bf9" x="264.208899" y="291.249487" style="stroke: #000000"/>
    </g>
   </g>
   <g id="line2d_2">
    <defs>
     <path id="m3c64dc6426" d="M 0 8.109282 
C 2.150607 8.109282 4.213419 7.254837 5.734128 5.734128 
C 7.254837 4.213419 8.109282 2.150607 8.109282 0 
C 8.109282 -2.150607 7.254837 -4.213419 5.734128 -5.734128 
C 4.213419 -7.254837 2.150607 -8.109282 0 -8.109282 
C -2.150607 -8.109282 -4.213419 -7.254837 -5.734128 -5.734128 
C -7.254837 -4.213419 -8.109282 -2.150607 -8.109282 0 
C -8.109282 2.150607 -7.254837 4.213419 -5.734128 5.734128 
C -4.213419 7.254837 -2.150607 8.109282 0 8.109282 
z
" style="stroke: #000000"/>
    </defs>
    <g clip-path="url(#pf967c14cfa)">
     <use xlink:href="#m3c64dc6426" x="257.616289" y="173.534952" style="stroke: #000000"/>
    </g>
   </g>
   <g id="line2d_3">
    <defs>
     <path id="mc3edc3af1b" d="M 0 7.648655 
C 2.028447 7.648655 3.974087 6.842745 5.408416 5.408416 
C 6.842745 3.974087 7.648655 2.028447 7.648655 0 
C 7.648655 -2.028447 6.842745 -3.974087 5.408416 -5.408416 
C 3.974087 -6.842745 2.028447 -7.648655 0 -7.648655 
C -2.028447 -7.648655 -3.974087 -6.842745 -5.408416 -5.408416 
C -6.842745 -3.974087 -7.648655 -2.028447 -7.648655 0 
C -7.648655 2.028447 -6.842745 3.974087 -5.408416 5.408416 
C -3.974087 6.842745 -2.028447 7.648655 0 7.648655 
z
" style="stroke: #000000"/>
    </defs>
    <g clip-path="url(#pf967c14cfa)">
     <use xlink:href="#mc3edc3af1b" x="622.636364" y="152.517297" style="stroke: #000000"/>
    </g>
   </g>
   <g id="line2d_4">
    <defs>
     <path id="mdad94057b5" d="M 0 7.518602 
C 1.993957 7.518602 3.906514 6.726395 5.316454 5.316454 
C 6.726395 3.906514 7.518602 1.993957 7.518602 0 
C 7.518602 -1.993957 6.726395 -3.906514 5.316454 -5.316454 
C 3.906514 -6.726395 1.993957 -7.518602 0 -7.518602 
C -1.993957 -7.518602 -3.906514 -6.726395 -5.316454 -5.316454 
C -6.726395 -3.906514 -7.518602 -1.993957 -7.518602 0 
C -7.518602 1.993957 -6.726395 3.906514 -5.316454 5.316454 
C -3.906514 6.726395 -1.993957 7.518602 0 7.518602 
z
" style="stroke: #000000"/>
    </defs>
    <g clip-path="url(#pf967c14cfa)">
     <use xlink:href="#mdad94057b5" x="139.822908" y="136.676258" style="stroke: #000000"/>
    </g>
   </g>
   <g id="line2d_5">
    <defs>
     <path id="m2770407c3c" d="M 0 7.391678 
C 1.960296 7.391678 3.840567 6.612844 5.226706 5.226706 
C 6.612844 3.840567 7.391678 1.960296 7.391678 0 
C 7.391678 -1.960296 6.612844 -3.840567 5.226706 -5.226706 
C 3.840567 -6.612844 1.960296 -7.391678 0 -7.391678 
C -1.960296 -7.391678 -3.840567 -6.612844 -5.226706 -5.226706 
C -6.612844 -3.840567 -7.391678 -1.960296 -7.391678 0 
C -7.391678 1.960296 -6.612844 3.840567 -5.226706 5.226706 
C -3.840567 6.612844 -1.960296 7.391678 0 7.391678 
z
" style="stroke: #000000"/>
    </defs>
    <g clip-path="url(#pf967c14cfa)">
     <use xlink:href="#m2770407c3c" x="310.27922" y="260.740427" style="stroke: #000000"/>
    </g>
   </g>
   <g id="line2d_6">
    <defs>
     <path id="m9fef3e2239" d="M 0 7.37147 
C 1.954937 7.37147 3.830068 6.594766 5.212417 5.212417 
C 6.594766 3.830068 7.37147 1.954937 7.37147 0 
C 7.37147 -1.954937 6.594766 -3.830068 5.212417 -5.212417 
C 3.830068 -6.594766 1.954937 -7.37147 0 -7.37147 
C -1.954937 -7.37147 -3.830068 -6.594766 -5.212417 -5.212417 
C -6.594766 -3.830068 -7.37147 -1.954937 -7.37147 0 
C -7.37147 1.954937 -6.594766 3.830068 -5.212417 5.212417 
C -3.830068 6.594766 -1.954937 7.37147 0 7.37147 
z
" style="stroke: #000000"/>
    </defs>
    <g clip-path="url(#pf967c14cfa)">
     <use xlink:href="#m9fef3e2239" x="206.114029" y="109.642657" style="stroke: #000000"/>
    </g>
   </g>
   <g id="line2d_7">
    <defs>
     <path id="m141eae37dc" d="M 0 7.340674 
C 1.94677 7.340674 3.814067 6.567214 5.19064 5.19064 
C 6.567214 3.814067 7.340674 1.94677 7.340674 0 
C 7.340674 -1.94677 6.567214 -3.814067 5.19064 -5.19064 
C 3.814067 -6.567214 1.94677 -7.340674 0 -7.340674 
C -1.94677 -7.340674 -3.814067 -6.567214 -5.19064 -5.19064 
C -6.567214 -3.814067 -7.340674 -1.94677 -7.340674 0 
C -7.340674 1.94677 -6.567214 3.814067 -5.19064 5.19064 
C -3.814067 6.567214 -1.94677 7.340674 0 7.340674 
z
" style="stroke: #000000"/>
    </defs>
    <g clip-path="url(#pf967c14cfa)">
     <use xlink:href="#m141eae37dc" x="482.192653" y="72.350513" style="stroke: #000000"/>
    </g>
   </g>
   <g id="line2d_8">
    <defs>
     <path id="me6422d01b7" d="M 0 7.340097 
C 1.946617 7.340097 3.813767 6.566698 5.190233 5.190233 
C 6.566698 3.813767 7.340097 1.946617 7.340097 0 
C 7.340097 -1.946617 6.566698 -3.813767 5.190233 -5.190233 
C 3.813767 -6.566698 1.946617 -7.340097 0 -7.340097 
C -1.946617 -7.340097 -3.813767 -6.566698 -5.190233 -5.190233 
C -6.566698 -3.813767 -7.340097 -1.946617 -7.340097 0 
C -7.340097 1.946617 -6.566698 3.813767 -5.190233 5.190233 
C -3.813767 6.566698 -1.946617 7.340097 0 7.340097 
z
" style="stroke: #000000"/>
    </defs>
    <g clip-path="url(#pf967c14cfa)">
     <use xlink:href="#me6422d01b7" x="115.363636" y="149.018046" style="stroke: #000000"/>
    </g>
   </g>
   <g id="line2d_9">
    <defs>
     <path id="m9dfdb92ed8" d="M 0 7.101062 
C 1.883224 7.101062 3.689569 6.352849 5.021209 5.021209 
C 6.352849 3.689569 7.101062 1.883224 7.101062 0 
C 7.101062 -1.883224 6.352849 -3.689569 5.021209 -5.021209 
C 3.689569 -6.352849 1.883224 -7.101062 0 -7.101062 
C -1.883224 -7.101062 -3.689569 -6.352849 -5.021209 -5.021209 
C -6.352849 -3.689569 -7.101062 -1.883224 -7.101062 0 
C -7.101062 1.883224 -6.352849 3.689569 -5.021209 5.021209 
C -3.689569 6.352849 -1.883224 7.101062 0 7.101062 
z
" style="stroke: #000000"/>
    </defs>
    <g clip-path="url(#pf967c14cfa)">
     <use xlink:href="#m9dfdb92ed8" x="391.425649" y="123.638684" style="stroke: #000000"/>
    </g>
   </g>
   <g id="line2d_10">
    <defs>
     <path id="m1dcbc76356" d="M 0 7.087775 
C 1.8797 7.087775 3.682665 6.340962 5.011814 5.011814 
C 6.340962 3.682665 7.087775 1.8797 7.087775 0 
C 7.087775 -1.8797 6.340962 -3.682665 5.011814 -5.011814 
C 3.682665 -6.340962 1.8797 -7.087775 0 -7.087775 
C -1.8797 -7.087775 -3.682665 -6.340962 -5.011814 -5.011814 
C -6.340962 -3.682665 -7.087775 -1.8797 -7.087775 0 
C -7.087775 1.8797 -6.340962 3.682665 -5.011814 5.011814 
C -3.682665 6.340962 -1.8797 7.087775 0 7.087775 
z
" style="stroke: #000000"/>
    </defs>
    <g clip-path="url(#pf967c14cfa)">
     <use xlink:href="#m1dcbc76356" x="189.064735" y="146.35631" style="stroke: #000000"/>
    </g>
   </g>
  </g>
 </g>
 <defs>
  <clipPath id="pf967c14cfa">
   <path d="M 90 302.194436 
L 90 61.405564 
L 648 61.405564 
L 648 302.194436 
L 90 302.194436 
"/>
  </clipPath>
 </defs>
</svg>
