<?xml version="1.0" encoding="utf-8" standalone="no"?>
<!DOCTYPE svg PUBLIC "-//W3C//DTD SVG 1.1//EN"
  "http://www.w3.org/Graphics/SVG/1.1/DTD/svg11.dtd">
<svg xmlns:xlink="http://www.w3.org/1999/xlink" width="720pt" height="360pt" viewBox="0 0 720 360" xmlns="http://www.w3.org/2000/svg" version="1.1">
 <metadata>
  <rdf:RDF xmlns:dc="http://purl.org/dc/elements/1.1/" xmlns:cc="http://creativecommons.org/ns#" xmlns:rdf="http://www.w3.org/1999/02/22-rdf-syntax-ns#">
   <cc:Work>
    <dc:type rdf:resource="http://purl.org/dc/dcmitype/StillImage"/>
    <dc:date>2023-11-30T21:30:49.575361</dc:date>
    <dc:format>image/svg+xml</dc:format>
    <dc:creator>
     <cc:Agent>
      <dc:title>Matplotlib v3.8.1, https://matplotlib.org/</dc:title>
     </cc:Agent>
    </dc:creator>
   </cc:Work>
  </rdf:RDF>
 </metadata>
 <defs>
  <style type="text/css">*{stroke-linejoin: round; stroke-linecap: butt}</style>
 </defs>
 <g id="figure_1">
  <g id="patch_1">
   <path d="M 0 360 
L 720 360 
L 720 0 
L 0 0 
z
" style="fill: #ffffff"/>
  </g>
  <g id="axes_1">
   <g id="patch_2">
    <path d="M 294.412279 320.4 
L 294.412279 43.2 
L 443.587721 43.2 
L 443.587721 320.4 
L 294.412279 320.4 
" style="fill: #ffffff"/>
   </g>
   <g id="line2d_1">
    <defs>
     <path id="m820daf3727" d="M 0 10.698568 
C 2.837293 10.698568 5.558761 9.571299 7.56503 7.56503 
C 9.571299 5.558761 10.698568 2.837293 10.698568 0 
C 10.698568 -2.837293 9.571299 -5.558761 7.56503 -7.56503 
C 5.558761 -9.571299 2.837293 -10.698568 0 -10.698568 
C -2.837293 -10.698568 -5.558761 -9.571299 -7.56503 -7.56503 
C -9.571299 -5.558761 -10.698568 -2.837293 -10.698568 0 
C -10.698568 2.837293 -9.571299 5.558761 -7.56503 7.56503 
C -5.558761 9.571299 -2.837293 10.698568 0 10.698568 
z
" style="stroke: #000000"/>
    </defs>
    <g clip-path="url(#p9730e54ba3)">
     <use xlink:href="#m820daf3727" x="303.616861" y="55.821891" style="stroke: #000000"/>
    </g>
   </g>
   <g id="line2d_2">
    <defs>
     <path id="m4f0694b93e" d="M 0 10.380486 
C 2.752937 10.380486 5.393491 9.286732 7.340112 7.340112 
C 9.286732 5.393491 10.380486 2.752937 10.380486 0 
C 10.380486 -2.752937 9.286732 -5.393491 7.340112 -7.340112 
C 5.393491 -9.286732 2.752937 -10.380486 0 -10.380486 
C -2.752937 -10.380486 -5.393491 -9.286732 -7.340112 -7.340112 
C -9.286732 -5.393491 -10.380486 -2.752937 -10.380486 0 
C -10.380486 2.752937 -9.286732 5.393491 -7.340112 7.340112 
C -5.393491 9.286732 -2.752937 10.380486 0 10.380486 
z
" style="stroke: #000000"/>
    </defs>
    <g clip-path="url(#p9730e54ba3)">
     <use xlink:href="#m4f0694b93e" x="436.807019" y="279.762828" style="stroke: #000000"/>
    </g>
   </g>
   <g id="line2d_3">
    <defs>
     <path id="m1fff19f652" d="M 0 10.304821 
C 2.73287 10.304821 5.354177 9.21904 7.286609 7.286609 
C 9.21904 5.354177 10.304821 2.73287 10.304821 0 
C 10.304821 -2.73287 9.21904 -5.354177 7.286609 -7.286609 
C 5.354177 -9.21904 2.73287 -10.304821 0 -10.304821 
C -2.73287 -10.304821 -5.354177 -9.21904 -7.286609 -7.286609 
C -9.21904 -5.354177 -10.304821 -2.73287 -10.304821 0 
C -10.304821 2.73287 -9.21904 5.354177 -7.286609 7.286609 
C -5.354177 9.21904 -2.73287 10.304821 0 10.304821 
z
" style="stroke: #000000"/>
    </defs>
    <g clip-path="url(#p9730e54ba3)">
     <use xlink:href="#m1fff19f652" x="301.611073" y="57.159223" style="stroke: #000000"/>
    </g>
   </g>
   <g id="line2d_4">
    <defs>
     <path id="ma6a33b5c5d" d="M 0 10.258266 
C 2.720524 10.258266 5.329989 9.17739 7.253689 7.253689 
C 9.17739 5.329989 10.258266 2.720524 10.258266 0 
C 10.258266 -2.720524 9.17739 -5.329989 7.253689 -7.253689 
C 5.329989 -9.17739 2.720524 -10.258266 0 -10.258266 
C -2.720524 -10.258266 -5.329989 -9.17739 -7.253689 -7.253689 
C -9.17739 -5.329989 -10.258266 -2.720524 -10.258266 0 
C -10.258266 2.720524 -9.17739 5.329989 -7.253689 7.253689 
C -5.329989 9.17739 -2.720524 10.258266 0 10.258266 
z
" style="stroke: #000000"/>
    </defs>
    <g clip-path="url(#p9730e54ba3)">
     <use xlink:href="#ma6a33b5c5d" x="301.192981" y="55.8" style="stroke: #000000"/>
    </g>
   </g>
   <g id="line2d_5">
    <defs>
     <path id="md83db21fdc" d="M 0 10.140306 
C 2.689241 10.140306 5.268699 9.071859 7.170279 7.170279 
C 9.071859 5.268699 10.140306 2.689241 10.140306 0 
C 10.140306 -2.689241 9.071859 -5.268699 7.170279 -7.170279 
C 5.268699 -9.071859 2.689241 -10.140306 0 -10.140306 
C -2.689241 -10.140306 -5.268699 -9.071859 -7.170279 -7.170279 
C -9.071859 -5.268699 -10.140306 -2.689241 -10.140306 0 
C -10.140306 2.689241 -9.071859 5.268699 -7.170279 7.170279 
C -5.268699 9.071859 -2.689241 10.140306 0 10.140306 
z
" style="stroke: #000000"/>
    </defs>
    <g clip-path="url(#p9730e54ba3)">
     <use xlink:href="#md83db21fdc" x="402.557971" y="275.930421" style="stroke: #000000"/>
    </g>
   </g>
   <g id="line2d_6">
    <defs>
     <path id="m1410ec0676" d="M 0 10.048805 
C 2.664974 10.048805 5.221157 8.989999 7.105578 7.105578 
C 8.989999 5.221157 10.048805 2.664974 10.048805 0 
C 10.048805 -2.664974 8.989999 -5.221157 7.105578 -7.105578 
C 5.221157 -8.989999 2.664974 -10.048805 0 -10.048805 
C -2.664974 -10.048805 -5.221157 -8.989999 -7.105578 -7.105578 
C -8.989999 -5.221157 -10.048805 -2.664974 -10.048805 0 
C -10.048805 2.664974 -8.989999 5.221157 -7.105578 7.105578 
C -5.221157 8.989999 -2.664974 10.048805 0 10.048805 
z
" style="stroke: #000000"/>
    </defs>
    <g clip-path="url(#p9730e54ba3)">
     <use xlink:href="#m1410ec0676" x="403.588017" y="277.197393" style="stroke: #000000"/>
    </g>
   </g>
   <g id="line2d_7">
    <defs>
     <path id="m3d513bd5c2" d="M 0 9.939464 
C 2.635977 9.939464 5.164345 8.892179 7.028262 7.028262 
C 8.892179 5.164345 9.939464 2.635977 9.939464 0 
C 9.939464 -2.635977 8.892179 -5.164345 7.028262 -7.028262 
C 5.164345 -8.892179 2.635977 -9.939464 0 -9.939464 
C -2.635977 -9.939464 -5.164345 -8.892179 -7.028262 -7.028262 
C -8.892179 -5.164345 -9.939464 -2.635977 -9.939464 0 
C -9.939464 2.635977 -8.892179 5.164345 -7.028262 7.028262 
C -5.164345 8.892179 -2.635977 9.939464 0 9.939464 
z
" style="stroke: #000000"/>
    </defs>
    <g clip-path="url(#p9730e54ba3)">
     <use xlink:href="#m3d513bd5c2" x="386.528893" y="184.572127" style="stroke: #000000"/>
    </g>
   </g>
   <g id="line2d_8">
    <defs>
     <path id="mfe29cb66ac" d="M 0 9.698111 
C 2.571969 9.698111 5.038943 8.676257 6.8576 6.8576 
C 8.676257 5.038943 9.698111 2.571969 9.698111 0 
C 9.698111 -2.571969 8.676257 -5.038943 6.8576 -6.8576 
C 5.038943 -8.676257 2.571969 -9.698111 0 -9.698111 
C -2.571969 -9.698111 -5.038943 -8.676257 -6.8576 -6.8576 
C -8.676257 -5.038943 -9.698111 -2.571969 -9.698111 0 
C -9.698111 2.571969 -8.676257 5.038943 -6.8576 6.8576 
C -5.038943 8.676257 -2.571969 9.698111 0 9.698111 
z
" style="stroke: #000000"/>
    </defs>
    <g clip-path="url(#p9730e54ba3)">
     <use xlink:href="#mfe29cb66ac" x="302.641411" y="60.835171" style="stroke: #000000"/>
    </g>
   </g>
   <g id="line2d_9">
    <defs>
     <path id="mf43ec46dda" d="M 0 9.687151 
C 2.569063 9.687151 5.033249 8.666452 6.849851 6.849851 
C 8.666452 5.033249 9.687151 2.569063 9.687151 0 
C 9.687151 -2.569063 8.666452 -5.033249 6.849851 -6.849851 
C 5.033249 -8.666452 2.569063 -9.687151 0 -9.687151 
C -2.569063 -9.687151 -5.033249 -8.666452 -6.849851 -6.849851 
C -8.666452 -5.033249 -9.687151 -2.569063 -9.687151 0 
C -9.687151 2.569063 -8.666452 5.033249 -6.849851 6.849851 
C -5.033249 8.666452 -2.569063 9.687151 0 9.687151 
z
" style="stroke: #000000"/>
    </defs>
    <g clip-path="url(#p9730e54ba3)">
     <use xlink:href="#mf43ec46dda" x="423.928225" y="307.8" style="stroke: #000000"/>
    </g>
   </g>
   <g id="line2d_10">
    <defs>
     <path id="m24114bf187" d="M 0 9.648881 
C 2.558913 9.648881 5.013365 8.632214 6.822789 6.822789 
C 8.632214 5.013365 9.648881 2.558913 9.648881 0 
C 9.648881 -2.558913 8.632214 -5.013365 6.822789 -6.822789 
C 5.013365 -8.632214 2.558913 -9.648881 0 -9.648881 
C -2.558913 -9.648881 -5.013365 -8.632214 -6.822789 -6.822789 
C -8.632214 -5.013365 -9.648881 -2.558913 -9.648881 0 
C -9.648881 2.558913 -8.632214 5.013365 -6.822789 6.822789 
C -5.013365 8.632214 -2.558913 9.648881 0 9.648881 
z
" style="stroke: #000000"/>
    </defs>
    <g clip-path="url(#p9730e54ba3)">
     <use xlink:href="#m24114bf187" x="304.443117" y="59.554338" style="stroke: #000000"/>
    </g>
   </g>
  </g>
 </g>
 <defs>
  <clipPath id="p9730e54ba3">
   <path d="M 294.412279 320.4 
L 294.412279 43.2 
L 443.587721 43.2 
L 443.587721 320.4 
L 294.412279 320.4 
"/>
  </clipPath>
 </defs>
</svg>
