<?xml version="1.0" encoding="utf-8" standalone="no"?>
<!DOCTYPE svg PUBLIC "-//W3C//DTD SVG 1.1//EN"
  "http://www.w3.org/Graphics/SVG/1.1/DTD/svg11.dtd">
<svg xmlns:xlink="http://www.w3.org/1999/xlink" width="720pt" height="360pt" viewBox="0 0 720 360" xmlns="http://www.w3.org/2000/svg" version="1.1">
 <metadata>
  <rdf:RDF xmlns:dc="http://purl.org/dc/elements/1.1/" xmlns:cc="http://creativecommons.org/ns#" xmlns:rdf="http://www.w3.org/1999/02/22-rdf-syntax-ns#">
   <cc:Work>
    <dc:type rdf:resource="http://purl.org/dc/dcmitype/StillImage"/>
    <dc:date>2023-11-30T21:30:52.285964</dc:date>
    <dc:format>image/svg+xml</dc:format>
    <dc:creator>
     <cc:Agent>
      <dc:title>Matplotlib v3.8.1, https://matplotlib.org/</dc:title>
     </cc:Agent>
    </dc:creator>
   </cc:Work>
  </rdf:RDF>
 </metadata>
 <defs>
  <style type="text/css">*{stroke-linejoin: round; stroke-linecap: butt}</style>
 </defs>
 <g id="figure_1">
  <g id="patch_1">
   <path d="M 0 360 
L 720 360 
L 720 0 
L 0 0 
z
" style="fill: #ffffff"/>
  </g>
  <g id="axes_1">
   <g id="patch_2">
    <path d="M 271.691608 320.4 
L 271.691608 43.2 
L 466.308392 43.2 
L 466.308392 320.4 
L 271.691608 320.4 
" style="fill: #ffffff"/>
   </g>
   <g id="line2d_1">
    <defs>
     <path id="mf023993838" d="M 0 11.735315 
C 3.112242 11.735315 6.097434 10.498808 8.298121 8.298121 
C 10.498808 6.097434 11.735315 3.112242 11.735315 0 
C 11.735315 -3.112242 10.498808 -6.097434 8.298121 -8.298121 
C 6.097434 -10.498808 3.112242 -11.735315 0 -11.735315 
C -3.112242 -11.735315 -6.097434 -10.498808 -8.298121 -8.298121 
C -10.498808 -6.097434 -11.735315 -3.112242 -11.735315 0 
C -11.735315 3.112242 -10.498808 6.097434 -8.298121 8.298121 
C -6.097434 10.498808 -3.112242 11.735315 0 11.735315 
z
" style="stroke: #000000"/>
    </defs>
    <g clip-path="url(#p041d1f8cec)">
     <use xlink:href="#mf023993838" x="280.754248" y="307.8" style="stroke: #000000"/>
    </g>
   </g>
   <g id="line2d_2">
    <defs>
     <path id="mad41b66d05" d="M 0 11.294706 
C 2.995391 11.294706 5.868502 10.104624 7.986563 7.986563 
C 10.104624 5.868502 11.294706 2.995391 11.294706 0 
C 11.294706 -2.995391 10.104624 -5.868502 7.986563 -7.986563 
C 5.868502 -10.104624 2.995391 -11.294706 0 -11.294706 
C -2.995391 -11.294706 -5.868502 -10.104624 -7.986563 -7.986563 
C -10.104624 -5.868502 -11.294706 -2.995391 -11.294706 0 
C -11.294706 2.995391 -10.104624 5.868502 -7.986563 7.986563 
C -5.868502 10.104624 -2.995391 11.294706 0 11.294706 
z
" style="stroke: #000000"/>
    </defs>
    <g clip-path="url(#p041d1f8cec)">
     <use xlink:href="#mad41b66d05" x="457.462174" y="125.631224" style="stroke: #000000"/>
    </g>
   </g>
   <g id="line2d_3">
    <defs>
     <path id="m40779913f0" d="M 0 10.628649 
C 2.818751 10.628649 5.522432 9.508748 7.51559 7.51559 
C 9.508748 5.522432 10.628649 2.818751 10.628649 0 
C 10.628649 -2.818751 9.508748 -5.522432 7.51559 -7.51559 
C 5.522432 -9.508748 2.818751 -10.628649 0 -10.628649 
C -2.818751 -10.628649 -5.522432 -9.508748 -7.51559 -7.51559 
C -9.508748 -5.522432 -10.628649 -2.818751 -10.628649 0 
C -10.628649 2.818751 -9.508748 5.522432 -7.51559 7.51559 
C -5.522432 9.508748 -2.818751 10.628649 0 10.628649 
z
" style="stroke: #000000"/>
    </defs>
    <g clip-path="url(#p041d1f8cec)">
     <use xlink:href="#m40779913f0" x="427.104842" y="129.63329" style="stroke: #000000"/>
    </g>
   </g>
   <g id="line2d_4">
    <defs>
     <path id="m563ce8d8bd" d="M 0 10.366613 
C 2.749258 10.366613 5.386283 9.274321 7.330302 7.330302 
C 9.274321 5.386283 10.366613 2.749258 10.366613 0 
C 10.366613 -2.749258 9.274321 -5.386283 7.330302 -7.330302 
C 5.386283 -9.274321 2.749258 -10.366613 0 -10.366613 
C -2.749258 -10.366613 -5.386283 -9.274321 -7.330302 -7.330302 
C -9.274321 -5.386283 -10.366613 -2.749258 -10.366613 0 
C -10.366613 2.749258 -9.274321 5.386283 -7.330302 7.330302 
C -5.386283 9.274321 -2.749258 10.366613 0 10.366613 
z
" style="stroke: #000000"/>
    </defs>
    <g clip-path="url(#p041d1f8cec)">
     <use xlink:href="#m563ce8d8bd" x="426.098805" y="67.642426" style="stroke: #000000"/>
    </g>
   </g>
   <g id="line2d_5">
    <defs>
     <path id="ma151eba38b" d="M 0 10.22743 
C 2.712346 10.22743 5.313967 9.149804 7.231885 7.231885 
C 9.149804 5.313967 10.22743 2.712346 10.22743 0 
C 10.22743 -2.712346 9.149804 -5.313967 7.231885 -7.231885 
C 5.313967 -9.149804 2.712346 -10.22743 0 -10.22743 
C -2.712346 -10.22743 -5.313967 -9.149804 -7.231885 -7.231885 
C -9.149804 -5.313967 -10.22743 -2.712346 -10.22743 0 
C -10.22743 2.712346 -9.149804 5.313967 -7.231885 7.231885 
C -5.313967 9.149804 -2.712346 10.22743 0 10.22743 
z
" style="stroke: #000000"/>
    </defs>
    <g clip-path="url(#p041d1f8cec)">
     <use xlink:href="#ma151eba38b" x="388.311387" y="163.624878" style="stroke: #000000"/>
    </g>
   </g>
   <g id="line2d_6">
    <defs>
     <path id="m4cd1e539a1" d="M 0 10.20142 
C 2.705448 10.20142 5.300453 9.126534 7.213493 7.213493 
C 9.126534 5.300453 10.20142 2.705448 10.20142 0 
C 10.20142 -2.705448 9.126534 -5.300453 7.213493 -7.213493 
C 5.300453 -9.126534 2.705448 -10.20142 0 -10.20142 
C -2.705448 -10.20142 -5.300453 -9.126534 -7.213493 -7.213493 
C -9.126534 -5.300453 -10.20142 -2.705448 -10.20142 0 
C -10.20142 2.705448 -9.126534 5.300453 -7.213493 7.213493 
C -5.300453 9.126534 -2.705448 10.20142 0 10.20142 
z
" style="stroke: #000000"/>
    </defs>
    <g clip-path="url(#p041d1f8cec)">
     <use xlink:href="#m4cd1e539a1" x="313.657607" y="293.623463" style="stroke: #000000"/>
    </g>
   </g>
   <g id="line2d_7">
    <defs>
     <path id="mcadc57f35d" d="M 0 10.200452 
C 2.705192 10.200452 5.29995 9.125668 7.212809 7.212809 
C 9.125668 5.29995 10.200452 2.705192 10.200452 0 
C 10.200452 -2.705192 9.125668 -5.29995 7.212809 -7.212809 
C 5.29995 -9.125668 2.705192 -10.200452 0 -10.200452 
C -2.705192 -10.200452 -5.29995 -9.125668 -7.212809 -7.212809 
C -9.125668 -5.29995 -10.200452 -2.705192 -10.200452 0 
C -10.200452 2.705192 -9.125668 5.29995 -7.212809 7.212809 
C -5.29995 9.125668 -2.705192 10.200452 0 10.200452 
z
" style="stroke: #000000"/>
    </defs>
    <g clip-path="url(#p041d1f8cec)">
     <use xlink:href="#mcadc57f35d" x="453.522284" y="108.773325" style="stroke: #000000"/>
    </g>
   </g>
   <g id="line2d_8">
    <defs>
     <path id="mace19985e2" d="M 0 10.1085 
C 2.680805 10.1085 5.252173 9.043404 7.147789 7.147789 
C 9.043404 5.252173 10.1085 2.680805 10.1085 0 
C 10.1085 -2.680805 9.043404 -5.252173 7.147789 -7.147789 
C 5.252173 -9.043404 2.680805 -10.1085 0 -10.1085 
C -2.680805 -10.1085 -5.252173 -9.043404 -7.147789 -7.147789 
C -9.043404 -5.252173 -10.1085 -2.680805 -10.1085 0 
C -10.1085 2.680805 -9.043404 5.252173 -7.147789 7.147789 
C -5.252173 9.043404 -2.680805 10.1085 0 10.1085 
z
" style="stroke: #000000"/>
    </defs>
    <g clip-path="url(#p041d1f8cec)">
     <use xlink:href="#mace19985e2" x="390.724768" y="55.8" style="stroke: #000000"/>
    </g>
   </g>
   <g id="line2d_9">
    <defs>
     <path id="medeee99dfd" d="M 0 9.794756 
C 2.5976 9.794756 5.089158 8.762719 6.925938 6.925938 
C 8.762719 5.089158 9.794756 2.5976 9.794756 0 
C 9.794756 -2.5976 8.762719 -5.089158 6.925938 -6.925938 
C 5.089158 -8.762719 2.5976 -9.794756 0 -9.794756 
C -2.5976 -9.794756 -5.089158 -8.762719 -6.925938 -6.925938 
C -8.762719 -5.089158 -9.794756 -2.5976 -9.794756 0 
C -9.794756 2.5976 -8.762719 5.089158 -6.925938 6.925938 
C -5.089158 8.762719 -2.5976 9.794756 0 9.794756 
z
" style="stroke: #000000"/>
    </defs>
    <g clip-path="url(#p041d1f8cec)">
     <use xlink:href="#medeee99dfd" x="360.029924" y="212.434189" style="stroke: #000000"/>
    </g>
   </g>
   <g id="line2d_10">
    <defs>
     <path id="m0ce212ea47" d="M 0 9.742392 
C 2.583713 9.742392 5.061951 8.715872 6.888911 6.888911 
C 8.715872 5.061951 9.742392 2.583713 9.742392 0 
C 9.742392 -2.583713 8.715872 -5.061951 6.888911 -6.888911 
C 5.061951 -8.715872 2.583713 -9.742392 0 -9.742392 
C -2.583713 -9.742392 -5.061951 -8.715872 -6.888911 -6.888911 
C -8.715872 -5.061951 -9.742392 -2.583713 -9.742392 0 
C -9.742392 2.583713 -8.715872 5.061951 -6.888911 6.888911 
C -5.061951 8.715872 -2.583713 9.742392 0 9.742392 
z
" style="stroke: #000000"/>
    </defs>
    <g clip-path="url(#p041d1f8cec)">
     <use xlink:href="#m0ce212ea47" x="280.537826" y="163.975434" style="stroke: #000000"/>
    </g>
   </g>
  </g>
 </g>
 <defs>
  <clipPath id="p041d1f8cec">
   <path d="M 271.691608 320.4 
L 271.691608 43.2 
L 466.308392 43.2 
L 466.308392 320.4 
L 271.691608 320.4 
"/>
  </clipPath>
 </defs>
</svg>
