<?xml version="1.0" encoding="utf-8" standalone="no"?>
<!DOCTYPE svg PUBLIC "-//W3C//DTD SVG 1.1//EN"
  "http://www.w3.org/Graphics/SVG/1.1/DTD/svg11.dtd">
<svg xmlns:xlink="http://www.w3.org/1999/xlink" width="720pt" height="360pt" viewBox="0 0 720 360" xmlns="http://www.w3.org/2000/svg" version="1.1">
 <metadata>
  <rdf:RDF xmlns:dc="http://purl.org/dc/elements/1.1/" xmlns:cc="http://creativecommons.org/ns#" xmlns:rdf="http://www.w3.org/1999/02/22-rdf-syntax-ns#">
   <cc:Work>
    <dc:type rdf:resource="http://purl.org/dc/dcmitype/StillImage"/>
    <dc:date>2023-11-30T21:30:51.789564</dc:date>
    <dc:format>image/svg+xml</dc:format>
    <dc:creator>
     <cc:Agent>
      <dc:title>Matplotlib v3.8.1, https://matplotlib.org/</dc:title>
     </cc:Agent>
    </dc:creator>
   </cc:Work>
  </rdf:RDF>
 </metadata>
 <defs>
  <style type="text/css">*{stroke-linejoin: round; stroke-linecap: butt}</style>
 </defs>
 <g id="figure_1">
  <g id="patch_1">
   <path d="M 0 360 
L 720 360 
L 720 0 
L 0 0 
z
" style="fill: #ffffff"/>
  </g>
  <g id="axes_1">
   <g id="patch_2">
    <path d="M 210.132249 320.4 
L 210.132249 43.2 
L 527.867751 43.2 
L 527.867751 320.4 
L 210.132249 320.4 
" style="fill: #ffffff"/>
   </g>
   <g id="line2d_1">
    <defs>
     <path id="m5f8fdbd241" d="M 0 10.349459 
C 2.744709 10.349459 5.377371 9.258975 7.318173 7.318173 
C 9.258975 5.377371 10.349459 2.744709 10.349459 0 
C 10.349459 -2.744709 9.258975 -5.377371 7.318173 -7.318173 
C 5.377371 -9.258975 2.744709 -10.349459 0 -10.349459 
C -2.744709 -10.349459 -5.377371 -9.258975 -7.318173 -7.318173 
C -9.258975 -5.377371 -10.349459 -2.744709 -10.349459 0 
C -10.349459 2.744709 -9.258975 5.377371 -7.318173 7.318173 
C -5.377371 9.258975 -2.744709 10.349459 0 10.349459 
z
" style="stroke: #000000"/>
    </defs>
    <g clip-path="url(#p7cc1900835)">
     <use xlink:href="#m5f8fdbd241" x="457.37952" y="183.514501" style="stroke: #000000"/>
    </g>
   </g>
   <g id="line2d_2">
    <defs>
     <path id="m2b3f37a8b9" d="M 0 9.776083 
C 2.592648 9.776083 5.079456 8.746013 6.912735 6.912735 
C 8.746013 5.079456 9.776083 2.592648 9.776083 0 
C 9.776083 -2.592648 8.746013 -5.079456 6.912735 -6.912735 
C 5.079456 -8.746013 2.592648 -9.776083 0 -9.776083 
C -2.592648 -9.776083 -5.079456 -8.746013 -6.912735 -6.912735 
C -8.746013 -5.079456 -9.776083 -2.592648 -9.776083 0 
C -9.776083 2.592648 -8.746013 5.079456 -6.912735 6.912735 
C -5.079456 8.746013 -2.592648 9.776083 0 9.776083 
z
" style="stroke: #000000"/>
    </defs>
    <g clip-path="url(#p7cc1900835)">
     <use xlink:href="#m2b3f37a8b9" x="401.948737" y="210.330367" style="stroke: #000000"/>
    </g>
   </g>
   <g id="line2d_3">
    <defs>
     <path id="meaeb939ce6" d="M 0 9.763107 
C 2.589206 9.763107 5.072714 8.734405 6.903559 6.903559 
C 8.734405 5.072714 9.763107 2.589206 9.763107 0 
C 9.763107 -2.589206 8.734405 -5.072714 6.903559 -6.903559 
C 5.072714 -8.734405 2.589206 -9.763107 0 -9.763107 
C -2.589206 -9.763107 -5.072714 -8.734405 -6.903559 -6.903559 
C -8.734405 -5.072714 -9.763107 -2.589206 -9.763107 0 
C -9.763107 2.589206 -8.734405 5.072714 -6.903559 6.903559 
C -5.072714 8.734405 -2.589206 9.763107 0 9.763107 
z
" style="stroke: #000000"/>
    </defs>
    <g clip-path="url(#p7cc1900835)">
     <use xlink:href="#meaeb939ce6" x="418.624145" y="307.8" style="stroke: #000000"/>
    </g>
   </g>
   <g id="line2d_4">
    <defs>
     <path id="m29f07a59a6" d="M 0 9.638078 
C 2.556048 9.638078 5.007751 8.622549 6.81515 6.81515 
C 8.622549 5.007751 9.638078 2.556048 9.638078 0 
C 9.638078 -2.556048 8.622549 -5.007751 6.81515 -6.81515 
C 5.007751 -8.622549 2.556048 -9.638078 0 -9.638078 
C -2.556048 -9.638078 -5.007751 -8.622549 -6.81515 -6.81515 
C -8.622549 -5.007751 -9.638078 -2.556048 -9.638078 0 
C -9.638078 2.556048 -8.622549 5.007751 -6.81515 6.81515 
C -5.007751 8.622549 -2.556048 9.638078 0 9.638078 
z
" style="stroke: #000000"/>
    </defs>
    <g clip-path="url(#p7cc1900835)">
     <use xlink:href="#m29f07a59a6" x="313.977064" y="249.002855" style="stroke: #000000"/>
    </g>
   </g>
   <g id="line2d_5">
    <defs>
     <path id="md96dd3bab4" d="M 0 9.560748 
C 2.53554 9.560748 4.967572 8.553367 6.76047 6.76047 
C 8.553367 4.967572 9.560748 2.53554 9.560748 0 
C 9.560748 -2.53554 8.553367 -4.967572 6.76047 -6.76047 
C 4.967572 -8.553367 2.53554 -9.560748 0 -9.560748 
C -2.53554 -9.560748 -4.967572 -8.553367 -6.76047 -6.76047 
C -8.553367 -4.967572 -9.560748 -2.53554 -9.560748 0 
C -9.560748 2.53554 -8.553367 4.967572 -6.76047 6.76047 
C -4.967572 8.553367 -2.53554 9.560748 0 9.560748 
z
" style="stroke: #000000"/>
    </defs>
    <g clip-path="url(#p7cc1900835)">
     <use xlink:href="#md96dd3bab4" x="310.250031" y="173.094767" style="stroke: #000000"/>
    </g>
   </g>
   <g id="line2d_6">
    <defs>
     <path id="mbca4ff0738" d="M 0 9.408557 
C 2.495179 9.408557 4.888497 8.417212 6.652855 6.652855 
C 8.417212 4.888497 9.408557 2.495179 9.408557 0 
C 9.408557 -2.495179 8.417212 -4.888497 6.652855 -6.652855 
C 4.888497 -8.417212 2.495179 -9.408557 0 -9.408557 
C -2.495179 -9.408557 -4.888497 -8.417212 -6.652855 -6.652855 
C -8.417212 -4.888497 -9.408557 -2.495179 -9.408557 0 
C -9.408557 2.495179 -8.417212 4.888497 -6.652855 6.652855 
C -4.888497 8.417212 -2.495179 9.408557 0 9.408557 
z
" style="stroke: #000000"/>
    </defs>
    <g clip-path="url(#p7cc1900835)">
     <use xlink:href="#mbca4ff0738" x="372.2179" y="55.8" style="stroke: #000000"/>
    </g>
   </g>
   <g id="line2d_7">
    <defs>
     <path id="m33797a8f24" d="M 0 9.318772 
C 2.471367 9.318772 4.841847 8.336888 6.589367 6.589367 
C 8.336888 4.841847 9.318772 2.471367 9.318772 0 
C 9.318772 -2.471367 8.336888 -4.841847 6.589367 -6.589367 
C 4.841847 -8.336888 2.471367 -9.318772 0 -9.318772 
C -2.471367 -9.318772 -4.841847 -8.336888 -6.589367 -6.589367 
C -8.336888 -4.841847 -9.318772 -2.471367 -9.318772 0 
C -9.318772 2.471367 -8.336888 4.841847 -6.589367 6.589367 
C -4.841847 8.336888 -2.471367 9.318772 0 9.318772 
z
" style="stroke: #000000"/>
    </defs>
    <g clip-path="url(#p7cc1900835)">
     <use xlink:href="#m33797a8f24" x="224.574772" y="112.144173" style="stroke: #000000"/>
    </g>
   </g>
   <g id="line2d_8">
    <defs>
     <path id="m92bb25e39c" d="M 0 9.241634 
C 2.45091 9.241634 4.801767 8.267877 6.534822 6.534822 
C 8.267877 4.801767 9.241634 2.45091 9.241634 0 
C 9.241634 -2.45091 8.267877 -4.801767 6.534822 -6.534822 
C 4.801767 -8.267877 2.45091 -9.241634 0 -9.241634 
C -2.45091 -9.241634 -4.801767 -8.267877 -6.534822 -6.534822 
C -8.267877 -4.801767 -9.241634 -2.45091 -9.241634 0 
C -9.241634 2.45091 -8.267877 4.801767 -6.534822 6.534822 
C -4.801767 8.267877 -2.45091 9.241634 0 9.241634 
z
" style="stroke: #000000"/>
    </defs>
    <g clip-path="url(#p7cc1900835)">
     <use xlink:href="#m92bb25e39c" x="349.095157" y="130.511887" style="stroke: #000000"/>
    </g>
   </g>
   <g id="line2d_9">
    <defs>
     <path id="m9376dddaee" d="M 0 9.228909 
C 2.447535 9.228909 4.795155 8.256493 6.525824 6.525824 
C 8.256493 4.795155 9.228909 2.447535 9.228909 0 
C 9.228909 -2.447535 8.256493 -4.795155 6.525824 -6.525824 
C 4.795155 -8.256493 2.447535 -9.228909 0 -9.228909 
C -2.447535 -9.228909 -4.795155 -8.256493 -6.525824 -6.525824 
C -8.256493 -4.795155 -9.228909 -2.447535 -9.228909 0 
C -9.228909 2.447535 -8.256493 4.795155 -6.525824 6.525824 
C -4.795155 8.256493 -2.447535 9.228909 0 9.228909 
z
" style="stroke: #000000"/>
    </defs>
    <g clip-path="url(#p7cc1900835)">
     <use xlink:href="#m9376dddaee" x="513.425228" y="240.401697" style="stroke: #000000"/>
    </g>
   </g>
   <g id="line2d_10">
    <defs>
     <path id="m91d5e24264" d="M 0 9.137783 
C 2.423368 9.137783 4.747808 8.174968 6.461388 6.461388 
C 8.174968 4.747808 9.137783 2.423368 9.137783 0 
C 9.137783 -2.423368 8.174968 -4.747808 6.461388 -6.461388 
C 4.747808 -8.174968 2.423368 -9.137783 0 -9.137783 
C -2.423368 -9.137783 -4.747808 -8.174968 -6.461388 -6.461388 
C -8.174968 -4.747808 -9.137783 -2.423368 -9.137783 0 
C -9.137783 2.423368 -8.174968 4.747808 -6.461388 6.461388 
C -4.747808 8.174968 -2.423368 9.137783 0 9.137783 
z
" style="stroke: #000000"/>
    </defs>
    <g clip-path="url(#p7cc1900835)">
     <use xlink:href="#m91d5e24264" x="385.857975" y="296.747838" style="stroke: #000000"/>
    </g>
   </g>
  </g>
 </g>
 <defs>
  <clipPath id="p7cc1900835">
   <path d="M 210.132249 320.4 
L 210.132249 43.2 
L 527.867751 43.2 
L 527.867751 320.4 
L 210.132249 320.4 
"/>
  </clipPath>
 </defs>
</svg>
