<?xml version="1.0" encoding="utf-8" standalone="no"?>
<!DOCTYPE svg PUBLIC "-//W3C//DTD SVG 1.1//EN"
  "http://www.w3.org/Graphics/SVG/1.1/DTD/svg11.dtd">
<svg xmlns:xlink="http://www.w3.org/1999/xlink" width="720pt" height="360pt" viewBox="0 0 720 360" xmlns="http://www.w3.org/2000/svg" version="1.1">
 <metadata>
  <rdf:RDF xmlns:dc="http://purl.org/dc/elements/1.1/" xmlns:cc="http://creativecommons.org/ns#" xmlns:rdf="http://www.w3.org/1999/02/22-rdf-syntax-ns#">
   <cc:Work>
    <dc:type rdf:resource="http://purl.org/dc/dcmitype/StillImage"/>
    <dc:date>2023-11-30T21:30:51.831252</dc:date>
    <dc:format>image/svg+xml</dc:format>
    <dc:creator>
     <cc:Agent>
      <dc:title>Matplotlib v3.8.1, https://matplotlib.org/</dc:title>
     </cc:Agent>
    </dc:creator>
   </cc:Work>
  </rdf:RDF>
 </metadata>
 <defs>
  <style type="text/css">*{stroke-linejoin: round; stroke-linecap: butt}</style>
 </defs>
 <g id="figure_1">
  <g id="patch_1">
   <path d="M 0 360 
L 720 360 
L 720 0 
L 0 0 
z
" style="fill: #ffffff"/>
  </g>
  <g id="axes_1">
   <g id="patch_2">
    <path d="M 90 272.531571 
L 90 91.068429 
L 648 91.068429 
L 648 272.531571 
L 90 272.531571 
" style="fill: #ffffff"/>
   </g>
   <g id="line2d_1">
    <defs>
     <path id="me3657f2a48" d="M 0 9.336815 
C 2.476152 9.336815 4.851221 8.353029 6.602125 6.602125 
C 8.353029 4.851221 9.336815 2.476152 9.336815 0 
C 9.336815 -2.476152 8.353029 -4.851221 6.602125 -6.602125 
C 4.851221 -8.353029 2.476152 -9.336815 0 -9.336815 
C -2.476152 -9.336815 -4.851221 -8.353029 -6.602125 -6.602125 
C -8.353029 -4.851221 -9.336815 -2.476152 -9.336815 0 
C -9.336815 2.476152 -8.353029 4.851221 -6.602125 6.602125 
C -4.851221 8.353029 -2.476152 9.336815 0 9.336815 
z
" style="stroke: #000000"/>
    </defs>
    <g clip-path="url(#p1b3ec97987)">
     <use xlink:href="#me3657f2a48" x="468.00966" y="101.504276" style="stroke: #000000"/>
    </g>
   </g>
   <g id="line2d_2">
    <defs>
     <path id="m8422bbc90b" d="M 0 8.817335 
C 2.338384 8.817335 4.58131 7.888285 6.234797 6.234797 
C 7.888285 4.58131 8.817335 2.338384 8.817335 0 
C 8.817335 -2.338384 7.888285 -4.58131 6.234797 -6.234797 
C 4.58131 -7.888285 2.338384 -8.817335 0 -8.817335 
C -2.338384 -8.817335 -4.58131 -7.888285 -6.234797 -6.234797 
C -7.888285 -4.58131 -8.817335 -2.338384 -8.817335 0 
C -8.817335 2.338384 -7.888285 4.58131 -6.234797 6.234797 
C -4.58131 7.888285 -2.338384 8.817335 0 8.817335 
z
" style="stroke: #000000"/>
    </defs>
    <g clip-path="url(#p1b3ec97987)">
     <use xlink:href="#m8422bbc90b" x="450.955495" y="125.722598" style="stroke: #000000"/>
    </g>
   </g>
   <g id="line2d_3">
    <defs>
     <path id="m955365166d" d="M 0 8.689304 
C 2.30443 8.689304 4.514787 7.773744 6.144266 6.144266 
C 7.773744 4.514787 8.689304 2.30443 8.689304 0 
C 8.689304 -2.30443 7.773744 -4.514787 6.144266 -6.144266 
C 4.514787 -7.773744 2.30443 -8.689304 0 -8.689304 
C -2.30443 -8.689304 -4.514787 -7.773744 -6.144266 -6.144266 
C -7.773744 -4.514787 -8.689304 -2.30443 -8.689304 0 
C -8.689304 2.30443 -7.773744 4.514787 -6.144266 6.144266 
C -4.514787 7.773744 -2.30443 8.689304 0 8.689304 
z
" style="stroke: #000000"/>
    </defs>
    <g clip-path="url(#p1b3ec97987)">
     <use xlink:href="#m955365166d" x="518.602546" y="132.074869" style="stroke: #000000"/>
    </g>
   </g>
   <g id="line2d_4">
    <defs>
     <path id="md972984b36" d="M 0 8.534494 
C 2.263374 8.534494 4.434351 7.635246 6.034799 6.034799 
C 7.635246 4.434351 8.534494 2.263374 8.534494 0 
C 8.534494 -2.263374 7.635246 -4.434351 6.034799 -6.034799 
C 4.434351 -7.635246 2.263374 -8.534494 0 -8.534494 
C -2.263374 -8.534494 -4.434351 -7.635246 -6.034799 -6.034799 
C -7.635246 -4.434351 -8.534494 -2.263374 -8.534494 0 
C -8.534494 2.263374 -7.635246 4.434351 -6.034799 6.034799 
C -4.434351 7.635246 -2.263374 8.534494 0 8.534494 
z
" style="stroke: #000000"/>
    </defs>
    <g clip-path="url(#p1b3ec97987)">
     <use xlink:href="#md972984b36" x="291.239829" y="264.283246" style="stroke: #000000"/>
    </g>
   </g>
   <g id="line2d_5">
    <defs>
     <path id="maefc91997d" d="M 0 8.210597 
C 2.177476 8.210597 4.266061 7.345477 5.805769 5.805769 
C 7.345477 4.266061 8.210597 2.177476 8.210597 0 
C 8.210597 -2.177476 7.345477 -4.266061 5.805769 -5.805769 
C 4.266061 -7.345477 2.177476 -8.210597 0 -8.210597 
C -2.177476 -8.210597 -4.266061 -7.345477 -5.805769 -5.805769 
C -7.345477 -4.266061 -8.210597 -2.177476 -8.210597 0 
C -8.210597 2.177476 -7.345477 4.266061 -5.805769 5.805769 
C -4.266061 7.345477 -2.177476 8.210597 0 8.210597 
z
" style="stroke: #000000"/>
    </defs>
    <g clip-path="url(#p1b3ec97987)">
     <use xlink:href="#maefc91997d" x="259.945436" y="99.316754" style="stroke: #000000"/>
    </g>
   </g>
   <g id="line2d_6">
    <defs>
     <path id="m1535ace365" d="M 0 8.202745 
C 2.175393 8.202745 4.261981 7.338452 5.800217 5.800217 
C 7.338452 4.261981 8.202745 2.175393 8.202745 0 
C 8.202745 -2.175393 7.338452 -4.261981 5.800217 -5.800217 
C 4.261981 -7.338452 2.175393 -8.202745 0 -8.202745 
C -2.175393 -8.202745 -4.261981 -7.338452 -5.800217 -5.800217 
C -7.338452 -4.261981 -8.202745 -2.175393 -8.202745 0 
C -8.202745 2.175393 -7.338452 4.261981 -5.800217 5.800217 
C -4.261981 7.338452 -2.175393 8.202745 0 8.202745 
z
" style="stroke: #000000"/>
    </defs>
    <g clip-path="url(#p1b3ec97987)">
     <use xlink:href="#m1535ace365" x="487.526447" y="184.446962" style="stroke: #000000"/>
    </g>
   </g>
   <g id="line2d_7">
    <defs>
     <path id="m057a6a90ab" d="M 0 8.156025 
C 2.163003 8.156025 4.237706 7.296655 5.767181 5.767181 
C 7.296655 4.237706 8.156025 2.163003 8.156025 0 
C 8.156025 -2.163003 7.296655 -4.237706 5.767181 -5.767181 
C 4.237706 -7.296655 2.163003 -8.156025 0 -8.156025 
C -2.163003 -8.156025 -4.237706 -7.296655 -5.767181 -5.767181 
C -7.296655 -4.237706 -8.156025 -2.163003 -8.156025 0 
C -8.156025 2.163003 -7.296655 4.237706 -5.767181 5.767181 
C -4.237706 7.296655 -2.163003 8.156025 0 8.156025 
z
" style="stroke: #000000"/>
    </defs>
    <g clip-path="url(#p1b3ec97987)">
     <use xlink:href="#m057a6a90ab" x="466.208741" y="140.408987" style="stroke: #000000"/>
    </g>
   </g>
   <g id="line2d_8">
    <defs>
     <path id="ma5bc2188a0" d="M 0 8.099644 
C 2.148051 8.099644 4.208412 7.246215 5.727314 5.727314 
C 7.246215 4.208412 8.099644 2.148051 8.099644 0 
C 8.099644 -2.148051 7.246215 -4.208412 5.727314 -5.727314 
C 4.208412 -7.246215 2.148051 -8.099644 0 -8.099644 
C -2.148051 -8.099644 -4.208412 -7.246215 -5.727314 -5.727314 
C -7.246215 -4.208412 -8.099644 -2.148051 -8.099644 0 
C -8.099644 2.148051 -7.246215 4.208412 -5.727314 5.727314 
C -4.208412 7.246215 -2.148051 8.099644 0 8.099644 
z
" style="stroke: #000000"/>
    </defs>
    <g clip-path="url(#p1b3ec97987)">
     <use xlink:href="#ma5bc2188a0" x="501.548381" y="141.402004" style="stroke: #000000"/>
    </g>
   </g>
   <g id="line2d_9">
    <defs>
     <path id="me0fbd735f3" d="M 0 8.078575 
C 2.142463 8.078575 4.197465 7.227365 5.712415 5.712415 
C 7.227365 4.197465 8.078575 2.142463 8.078575 0 
C 8.078575 -2.142463 7.227365 -4.197465 5.712415 -5.712415 
C 4.197465 -7.227365 2.142463 -8.078575 0 -8.078575 
C -2.142463 -8.078575 -4.197465 -7.227365 -5.712415 -5.712415 
C -7.227365 -4.197465 -8.078575 -2.142463 -8.078575 0 
C -8.078575 2.142463 -7.227365 4.197465 -5.712415 5.712415 
C -4.197465 7.227365 -2.142463 8.078575 0 8.078575 
z
" style="stroke: #000000"/>
    </defs>
    <g clip-path="url(#p1b3ec97987)">
     <use xlink:href="#me0fbd735f3" x="115.363636" y="196.24289" style="stroke: #000000"/>
    </g>
   </g>
   <g id="line2d_10">
    <defs>
     <path id="m0b27401c6d" d="M 0 7.485704 
C 1.985232 7.485704 3.889421 6.696963 5.293192 5.293192 
C 6.696963 3.889421 7.485704 1.985232 7.485704 0 
C 7.485704 -1.985232 6.696963 -3.889421 5.293192 -5.293192 
C 3.889421 -6.696963 1.985232 -7.485704 0 -7.485704 
C -1.985232 -7.485704 -3.889421 -6.696963 -5.293192 -5.293192 
C -6.696963 -3.889421 -7.485704 -1.985232 -7.485704 0 
C -7.485704 1.985232 -6.696963 3.889421 -5.293192 5.293192 
C -3.889421 6.696963 -1.985232 7.485704 0 7.485704 
z
" style="stroke: #000000"/>
    </defs>
    <g clip-path="url(#p1b3ec97987)">
     <use xlink:href="#m0b27401c6d" x="622.636364" y="151.716988" style="stroke: #000000"/>
    </g>
   </g>
  </g>
 </g>
 <defs>
  <clipPath id="p1b3ec97987">
   <path d="M 90 272.531571 
L 90 91.068429 
L 648 91.068429 
L 648 272.531571 
L 90 272.531571 
"/>
  </clipPath>
 </defs>
</svg>
