<?xml version="1.0" encoding="utf-8" standalone="no"?>
<!DOCTYPE svg PUBLIC "-//W3C//DTD SVG 1.1//EN"
  "http://www.w3.org/Graphics/SVG/1.1/DTD/svg11.dtd">
<svg xmlns:xlink="http://www.w3.org/1999/xlink" width="720pt" height="360pt" viewBox="0 0 720 360" xmlns="http://www.w3.org/2000/svg" version="1.1">
 <metadata>
  <rdf:RDF xmlns:dc="http://purl.org/dc/elements/1.1/" xmlns:cc="http://creativecommons.org/ns#" xmlns:rdf="http://www.w3.org/1999/02/22-rdf-syntax-ns#">
   <cc:Work>
    <dc:type rdf:resource="http://purl.org/dc/dcmitype/StillImage"/>
    <dc:date>2023-11-30T21:30:53.240958</dc:date>
    <dc:format>image/svg+xml</dc:format>
    <dc:creator>
     <cc:Agent>
      <dc:title>Matplotlib v3.8.1, https://matplotlib.org/</dc:title>
     </cc:Agent>
    </dc:creator>
   </cc:Work>
  </rdf:RDF>
 </metadata>
 <defs>
  <style type="text/css">*{stroke-linejoin: round; stroke-linecap: butt}</style>
 </defs>
 <g id="figure_1">
  <g id="patch_1">
   <path d="M 0 360 
L 720 360 
L 720 0 
L 0 0 
z
" style="fill: #ffffff"/>
  </g>
  <g id="axes_1">
   <g id="patch_2">
    <path d="M 245.874382 320.4 
L 245.874382 43.2 
L 492.125618 43.2 
L 492.125618 320.4 
L 245.874382 320.4 
" style="fill: #ffffff"/>
   </g>
   <g id="line2d_1">
    <defs>
     <path id="md18005080d" d="M 0 9.354139 
C 2.480747 9.354139 4.860223 8.368528 6.614375 6.614375 
C 8.368528 4.860223 9.354139 2.480747 9.354139 0 
C 9.354139 -2.480747 8.368528 -4.860223 6.614375 -6.614375 
C 4.860223 -8.368528 2.480747 -9.354139 0 -9.354139 
C -2.480747 -9.354139 -4.860223 -8.368528 -6.614375 -6.614375 
C -8.368528 -4.860223 -9.354139 -2.480747 -9.354139 0 
C -9.354139 2.480747 -8.368528 4.860223 -6.614375 6.614375 
C -4.860223 8.368528 -2.480747 9.354139 0 9.354139 
z
" style="stroke: #000000"/>
    </defs>
    <g clip-path="url(#pf06410c23e)">
     <use xlink:href="#md18005080d" x="467.169697" y="187.3731" style="stroke: #000000"/>
    </g>
   </g>
   <g id="line2d_2">
    <defs>
     <path id="mf3cf8ac619" d="M 0 9.322634 
C 2.472391 9.322634 4.843853 8.340342 6.592098 6.592098 
C 8.340342 4.843853 9.322634 2.472391 9.322634 0 
C 9.322634 -2.472391 8.340342 -4.843853 6.592098 -6.592098 
C 4.843853 -8.340342 2.472391 -9.322634 0 -9.322634 
C -2.472391 -9.322634 -4.843853 -8.340342 -6.592098 -6.592098 
C -8.340342 -4.843853 -9.322634 -2.472391 -9.322634 0 
C -9.322634 2.472391 -8.340342 4.843853 -6.592098 6.592098 
C -4.843853 8.340342 -2.472391 9.322634 0 9.322634 
z
" style="stroke: #000000"/>
    </defs>
    <g clip-path="url(#pf06410c23e)">
     <use xlink:href="#mf3cf8ac619" x="304.410653" y="257.245487" style="stroke: #000000"/>
    </g>
   </g>
   <g id="line2d_3">
    <defs>
     <path id="mfe3be74c2a" d="M 0 8.700973 
C 2.307525 8.700973 4.52085 7.784184 6.152517 6.152517 
C 7.784184 4.52085 8.700973 2.307525 8.700973 0 
C 8.700973 -2.307525 7.784184 -4.52085 6.152517 -6.152517 
C 4.52085 -7.784184 2.307525 -8.700973 0 -8.700973 
C -2.307525 -8.700973 -4.52085 -7.784184 -6.152517 -6.152517 
C -7.784184 -4.52085 -8.700973 -2.307525 -8.700973 0 
C -8.700973 2.307525 -7.784184 4.52085 -6.152517 6.152517 
C -4.52085 7.784184 -2.307525 8.700973 0 8.700973 
z
" style="stroke: #000000"/>
    </defs>
    <g clip-path="url(#pf06410c23e)">
     <use xlink:href="#mfe3be74c2a" x="270.36992" y="297.183346" style="stroke: #000000"/>
    </g>
   </g>
   <g id="line2d_4">
    <defs>
     <path id="m1af8baeee4" d="M 0 8.645977 
C 2.29294 8.645977 4.492275 7.734982 6.113629 6.113629 
C 7.734982 4.492275 8.645977 2.29294 8.645977 0 
C 8.645977 -2.29294 7.734982 -4.492275 6.113629 -6.113629 
C 4.492275 -7.734982 2.29294 -8.645977 0 -8.645977 
C -2.29294 -8.645977 -4.492275 -7.734982 -6.113629 -6.113629 
C -7.734982 -4.492275 -8.645977 -2.29294 -8.645977 0 
C -8.645977 2.29294 -7.734982 4.492275 -6.113629 6.113629 
C -4.492275 7.734982 -2.29294 8.645977 0 8.645977 
z
" style="stroke: #000000"/>
    </defs>
    <g clip-path="url(#pf06410c23e)">
     <use xlink:href="#m1af8baeee4" x="437.450621" y="250.375596" style="stroke: #000000"/>
    </g>
   </g>
   <g id="line2d_5">
    <defs>
     <path id="m6d271d2d84" d="M 0 8.495888 
C 2.253136 8.495888 4.414293 7.600708 6.0075 6.0075 
C 7.600708 4.414293 8.495888 2.253136 8.495888 0 
C 8.495888 -2.253136 7.600708 -4.414293 6.0075 -6.0075 
C 4.414293 -7.600708 2.253136 -8.495888 0 -8.495888 
C -2.253136 -8.495888 -4.414293 -7.600708 -6.0075 -6.0075 
C -7.600708 -4.414293 -8.495888 -2.253136 -8.495888 0 
C -8.495888 2.253136 -7.600708 4.414293 -6.0075 6.0075 
C -4.414293 7.600708 -2.253136 8.495888 0 8.495888 
z
" style="stroke: #000000"/>
    </defs>
    <g clip-path="url(#pf06410c23e)">
     <use xlink:href="#m6d271d2d84" x="471.531664" y="78.385393" style="stroke: #000000"/>
    </g>
   </g>
   <g id="line2d_6">
    <defs>
     <path id="me8a0f98f41" d="M 0 8.473282 
C 2.247141 8.473282 4.402547 7.580483 5.991515 5.991515 
C 7.580483 4.402547 8.473282 2.247141 8.473282 0 
C 8.473282 -2.247141 7.580483 -4.402547 5.991515 -5.991515 
C 4.402547 -7.580483 2.247141 -8.473282 0 -8.473282 
C -2.247141 -8.473282 -4.402547 -7.580483 -5.991515 -5.991515 
C -7.580483 -4.402547 -8.473282 -2.247141 -8.473282 0 
C -8.473282 2.247141 -7.580483 4.402547 -5.991515 5.991515 
C -4.402547 7.580483 -2.247141 8.473282 0 8.473282 
z
" style="stroke: #000000"/>
    </defs>
    <g clip-path="url(#pf06410c23e)">
     <use xlink:href="#me8a0f98f41" x="257.06762" y="307.8" style="stroke: #000000"/>
    </g>
   </g>
   <g id="line2d_7">
    <defs>
     <path id="mefc86628ce" d="M 0 7.930362 
C 2.103156 7.930362 4.120456 7.094769 5.607612 5.607612 
C 7.094769 4.120456 7.930362 2.103156 7.930362 0 
C 7.930362 -2.103156 7.094769 -4.120456 5.607612 -5.607612 
C 4.120456 -7.094769 2.103156 -7.930362 0 -7.930362 
C -2.103156 -7.930362 -4.120456 -7.094769 -5.607612 -5.607612 
C -7.094769 -4.120456 -7.930362 -2.103156 -7.930362 0 
C -7.930362 2.103156 -7.094769 4.120456 -5.607612 5.607612 
C -4.120456 7.094769 -2.103156 7.930362 0 7.930362 
z
" style="stroke: #000000"/>
    </defs>
    <g clip-path="url(#pf06410c23e)">
     <use xlink:href="#mefc86628ce" x="279.505439" y="277.855192" style="stroke: #000000"/>
    </g>
   </g>
   <g id="line2d_8">
    <defs>
     <path id="m3b0f36a8c7" d="M 0 7.898324 
C 2.09466 7.898324 4.10381 7.066107 5.584958 5.584958 
C 7.066107 4.10381 7.898324 2.09466 7.898324 0 
C 7.898324 -2.09466 7.066107 -4.10381 5.584958 -5.584958 
C 4.10381 -7.066107 2.09466 -7.898324 0 -7.898324 
C -2.09466 -7.898324 -4.10381 -7.066107 -5.584958 -5.584958 
C -7.066107 -4.10381 -7.898324 -2.09466 -7.898324 0 
C -7.898324 2.09466 -7.066107 4.10381 -5.584958 5.584958 
C -4.10381 7.066107 -2.09466 7.898324 0 7.898324 
z
" style="stroke: #000000"/>
    </defs>
    <g clip-path="url(#pf06410c23e)">
     <use xlink:href="#m3b0f36a8c7" x="310.44018" y="246.152092" style="stroke: #000000"/>
    </g>
   </g>
   <g id="line2d_9">
    <defs>
     <path id="ma48d73c0c3" d="M 0 7.71539 
C 2.046145 7.71539 4.008761 6.902447 5.455604 5.455604 
C 6.902447 4.008761 7.71539 2.046145 7.71539 0 
C 7.71539 -2.046145 6.902447 -4.008761 5.455604 -5.455604 
C 4.008761 -6.902447 2.046145 -7.71539 0 -7.71539 
C -2.046145 -7.71539 -4.008761 -6.902447 -5.455604 -5.455604 
C -6.902447 -4.008761 -7.71539 -2.046145 -7.71539 0 
C -7.71539 2.046145 -6.902447 4.008761 -5.455604 5.455604 
C -4.008761 6.902447 -2.046145 7.71539 0 7.71539 
z
" style="stroke: #000000"/>
    </defs>
    <g clip-path="url(#pf06410c23e)">
     <use xlink:href="#ma48d73c0c3" x="423.257258" y="55.8" style="stroke: #000000"/>
    </g>
   </g>
   <g id="line2d_10">
    <defs>
     <path id="mea8cabd1f8" d="M 0 7.610529 
C 2.018336 7.610529 3.954278 6.808636 5.381457 5.381457 
C 6.808636 3.954278 7.610529 2.018336 7.610529 0 
C 7.610529 -2.018336 6.808636 -3.954278 5.381457 -5.381457 
C 3.954278 -6.808636 2.018336 -7.610529 0 -7.610529 
C -2.018336 -7.610529 -3.954278 -6.808636 -5.381457 -5.381457 
C -6.808636 -3.954278 -7.610529 -2.018336 -7.610529 0 
C -7.610529 2.018336 -6.808636 3.954278 -5.381457 5.381457 
C -3.954278 6.808636 -2.018336 7.610529 0 7.610529 
z
" style="stroke: #000000"/>
    </defs>
    <g clip-path="url(#pf06410c23e)">
     <use xlink:href="#mea8cabd1f8" x="480.93238" y="188.853365" style="stroke: #000000"/>
    </g>
   </g>
  </g>
 </g>
 <defs>
  <clipPath id="pf06410c23e">
   <path d="M 245.874382 320.4 
L 245.874382 43.2 
L 492.125618 43.2 
L 492.125618 320.4 
L 245.874382 320.4 
"/>
  </clipPath>
 </defs>
</svg>
