<?xml version="1.0" encoding="utf-8" standalone="no"?>
<!DOCTYPE svg PUBLIC "-//W3C//DTD SVG 1.1//EN"
  "http://www.w3.org/Graphics/SVG/1.1/DTD/svg11.dtd">
<svg xmlns:xlink="http://www.w3.org/1999/xlink" width="720pt" height="360pt" viewBox="0 0 720 360" xmlns="http://www.w3.org/2000/svg" version="1.1">
 <metadata>
  <rdf:RDF xmlns:dc="http://purl.org/dc/elements/1.1/" xmlns:cc="http://creativecommons.org/ns#" xmlns:rdf="http://www.w3.org/1999/02/22-rdf-syntax-ns#">
   <cc:Work>
    <dc:type rdf:resource="http://purl.org/dc/dcmitype/StillImage"/>
    <dc:date>2023-11-30T21:30:51.872811</dc:date>
    <dc:format>image/svg+xml</dc:format>
    <dc:creator>
     <cc:Agent>
      <dc:title>Matplotlib v3.8.1, https://matplotlib.org/</dc:title>
     </cc:Agent>
    </dc:creator>
   </cc:Work>
  </rdf:RDF>
 </metadata>
 <defs>
  <style type="text/css">*{stroke-linejoin: round; stroke-linecap: butt}</style>
 </defs>
 <g id="figure_1">
  <g id="patch_1">
   <path d="M 0 360 
L 720 360 
L 720 0 
L 0 0 
z
" style="fill: #ffffff"/>
  </g>
  <g id="axes_1">
   <g id="patch_2">
    <path d="M 262.954817 320.4 
L 262.954817 43.2 
L 475.045183 43.2 
L 475.045183 320.4 
L 262.954817 320.4 
" style="fill: #ffffff"/>
   </g>
   <g id="line2d_1">
    <defs>
     <path id="m72550b104f" d="M 0 9.491022 
C 2.517048 9.491022 4.931344 8.490988 6.711166 6.711166 
C 8.490988 4.931344 9.491022 2.517048 9.491022 0 
C 9.491022 -2.517048 8.490988 -4.931344 6.711166 -6.711166 
C 4.931344 -8.490988 2.517048 -9.491022 0 -9.491022 
C -2.517048 -9.491022 -4.931344 -8.490988 -6.711166 -6.711166 
C -8.490988 -4.931344 -9.491022 -2.517048 -9.491022 0 
C -9.491022 2.517048 -8.490988 4.931344 -6.711166 6.711166 
C -4.931344 8.490988 -2.517048 9.491022 0 9.491022 
z
" style="stroke: #000000"/>
    </defs>
    <g clip-path="url(#p1b8c1d049b)">
     <use xlink:href="#m72550b104f" x="449.224979" y="139.504842" style="stroke: #000000"/>
    </g>
   </g>
   <g id="line2d_2">
    <defs>
     <path id="m4869ba28b7" d="M 0 8.964727 
C 2.377474 8.964727 4.657892 8.020147 6.33902 6.33902 
C 8.020147 4.657892 8.964727 2.377474 8.964727 0 
C 8.964727 -2.377474 8.020147 -4.657892 6.33902 -6.33902 
C 4.657892 -8.020147 2.377474 -8.964727 0 -8.964727 
C -2.377474 -8.964727 -4.657892 -8.020147 -6.33902 -6.33902 
C -8.020147 -4.657892 -8.964727 -2.377474 -8.964727 0 
C -8.964727 2.377474 -8.020147 4.657892 -6.33902 6.33902 
C -4.657892 8.020147 -2.377474 8.964727 0 8.964727 
z
" style="stroke: #000000"/>
    </defs>
    <g clip-path="url(#p1b8c1d049b)">
     <use xlink:href="#m4869ba28b7" x="461.065212" y="67.854064" style="stroke: #000000"/>
    </g>
   </g>
   <g id="line2d_3">
    <defs>
     <path id="mba327a3286" d="M 0 8.724232 
C 2.313693 8.724232 4.532935 7.804992 6.168963 6.168963 
C 7.804992 4.532935 8.724232 2.313693 8.724232 0 
C 8.724232 -2.313693 7.804992 -4.532935 6.168963 -6.168963 
C 4.532935 -7.804992 2.313693 -8.724232 0 -8.724232 
C -2.313693 -8.724232 -4.532935 -7.804992 -6.168963 -6.168963 
C -7.804992 -4.532935 -8.724232 -2.313693 -8.724232 0 
C -8.724232 2.313693 -7.804992 4.532935 -6.168963 6.168963 
C -4.532935 7.804992 -2.313693 8.724232 0 8.724232 
z
" style="stroke: #000000"/>
    </defs>
    <g clip-path="url(#p1b8c1d049b)">
     <use xlink:href="#mba327a3286" x="447.014881" y="138.429694" style="stroke: #000000"/>
    </g>
   </g>
   <g id="line2d_4">
    <defs>
     <path id="m992a4908f8" d="M 0 8.444675 
C 2.239554 8.444675 4.387683 7.554891 5.971287 5.971287 
C 7.554891 4.387683 8.444675 2.239554 8.444675 0 
C 8.444675 -2.239554 7.554891 -4.387683 5.971287 -5.971287 
C 4.387683 -7.554891 2.239554 -8.444675 0 -8.444675 
C -2.239554 -8.444675 -4.387683 -7.554891 -5.971287 -5.971287 
C -7.554891 -4.387683 -8.444675 -2.239554 -8.444675 0 
C -8.444675 2.239554 -7.554891 4.387683 -5.971287 5.971287 
C -4.387683 7.554891 -2.239554 8.444675 0 8.444675 
z
" style="stroke: #000000"/>
    </defs>
    <g clip-path="url(#p1b8c1d049b)">
     <use xlink:href="#m992a4908f8" x="465.393378" y="55.8" style="stroke: #000000"/>
    </g>
   </g>
   <g id="line2d_5">
    <defs>
     <path id="m7fb1a8c2ef" d="M 0 8.418759 
C 2.232681 8.418759 4.374217 7.531705 5.952961 5.952961 
C 7.531705 4.374217 8.418759 2.232681 8.418759 0 
C 8.418759 -2.232681 7.531705 -4.374217 5.952961 -5.952961 
C 4.374217 -7.531705 2.232681 -8.418759 0 -8.418759 
C -2.232681 -8.418759 -4.374217 -7.531705 -5.952961 -5.952961 
C -7.531705 -4.374217 -8.418759 -2.232681 -8.418759 0 
C -8.418759 2.232681 -7.531705 4.374217 -5.952961 5.952961 
C -4.374217 7.531705 -2.232681 8.418759 0 8.418759 
z
" style="stroke: #000000"/>
    </defs>
    <g clip-path="url(#p1b8c1d049b)">
     <use xlink:href="#m7fb1a8c2ef" x="454.781506" y="145.060301" style="stroke: #000000"/>
    </g>
   </g>
   <g id="line2d_6">
    <defs>
     <path id="m81caa94f80" d="M 0 8.350809 
C 2.21466 8.350809 4.338912 7.470915 5.904914 5.904914 
C 7.470915 4.338912 8.350809 2.21466 8.350809 0 
C 8.350809 -2.21466 7.470915 -4.338912 5.904914 -5.904914 
C 4.338912 -7.470915 2.21466 -8.350809 0 -8.350809 
C -2.21466 -8.350809 -4.338912 -7.470915 -5.904914 -5.904914 
C -7.470915 -4.338912 -8.350809 -2.21466 -8.350809 0 
C -8.350809 2.21466 -7.470915 4.338912 -5.904914 5.904914 
C -4.338912 7.470915 -2.21466 8.350809 0 8.350809 
z
" style="stroke: #000000"/>
    </defs>
    <g clip-path="url(#p1b8c1d049b)">
     <use xlink:href="#m81caa94f80" x="465.404712" y="95.960464" style="stroke: #000000"/>
    </g>
   </g>
   <g id="line2d_7">
    <defs>
     <path id="mce7d76bbbd" d="M 0 8.328938 
C 2.20886 8.328938 4.327549 7.451349 5.889449 5.889449 
C 7.451349 4.327549 8.328938 2.20886 8.328938 0 
C 8.328938 -2.20886 7.451349 -4.327549 5.889449 -5.889449 
C 4.327549 -7.451349 2.20886 -8.328938 0 -8.328938 
C -2.20886 -8.328938 -4.327549 -7.451349 -5.889449 -5.889449 
C -7.451349 -4.327549 -8.328938 -2.20886 -8.328938 0 
C -8.328938 2.20886 -7.451349 4.327549 -5.889449 5.889449 
C -4.327549 7.451349 -2.20886 8.328938 0 8.328938 
z
" style="stroke: #000000"/>
    </defs>
    <g clip-path="url(#p1b8c1d049b)">
     <use xlink:href="#mce7d76bbbd" x="446.478111" y="138.350084" style="stroke: #000000"/>
    </g>
   </g>
   <g id="line2d_8">
    <defs>
     <path id="m35ac13c36e" d="M 0 8.310911 
C 2.204079 8.310911 4.318182 7.435221 5.876702 5.876702 
C 7.435221 4.318182 8.310911 2.204079 8.310911 0 
C 8.310911 -2.204079 7.435221 -4.318182 5.876702 -5.876702 
C 4.318182 -7.435221 2.204079 -8.310911 0 -8.310911 
C -2.204079 -8.310911 -4.318182 -7.435221 -5.876702 -5.876702 
C -7.435221 -4.318182 -8.310911 -2.204079 -8.310911 0 
C -8.310911 2.204079 -7.435221 4.318182 -5.876702 5.876702 
C -4.318182 7.435221 -2.204079 8.310911 0 8.310911 
z
" style="stroke: #000000"/>
    </defs>
    <g clip-path="url(#p1b8c1d049b)">
     <use xlink:href="#m35ac13c36e" x="272.595288" y="307.8" style="stroke: #000000"/>
    </g>
   </g>
   <g id="line2d_9">
    <defs>
     <path id="m790a85e256" d="M 0 8.260056 
C 2.190592 8.260056 4.291759 7.389724 5.840742 5.840742 
C 7.389724 4.291759 8.260056 2.190592 8.260056 0 
C 8.260056 -2.190592 7.389724 -4.291759 5.840742 -5.840742 
C 4.291759 -7.389724 2.190592 -8.260056 0 -8.260056 
C -2.190592 -8.260056 -4.291759 -7.389724 -5.840742 -5.840742 
C -7.389724 -4.291759 -8.260056 -2.190592 -8.260056 0 
C -8.260056 2.190592 -7.389724 4.291759 -5.840742 5.840742 
C -4.291759 7.389724 -2.190592 8.260056 0 8.260056 
z
" style="stroke: #000000"/>
    </defs>
    <g clip-path="url(#p1b8c1d049b)">
     <use xlink:href="#m790a85e256" x="445.49388" y="138.048698" style="stroke: #000000"/>
    </g>
   </g>
   <g id="line2d_10">
    <defs>
     <path id="m5e223b3031" d="M 0 8.055853 
C 2.136437 8.055853 4.185659 7.207038 5.696348 5.696348 
C 7.207038 4.185659 8.055853 2.136437 8.055853 0 
C 8.055853 -2.136437 7.207038 -4.185659 5.696348 -5.696348 
C 4.185659 -7.207038 2.136437 -8.055853 0 -8.055853 
C -2.136437 -8.055853 -4.185659 -7.207038 -5.696348 -5.696348 
C -7.207038 -4.185659 -8.055853 -2.136437 -8.055853 0 
C -8.055853 2.136437 -7.207038 4.185659 -5.696348 5.696348 
C -4.185659 7.207038 -2.136437 8.055853 0 8.055853 
z
" style="stroke: #000000"/>
    </defs>
    <g clip-path="url(#p1b8c1d049b)">
     <use xlink:href="#m5e223b3031" x="461.033024" y="68.621626" style="stroke: #000000"/>
    </g>
   </g>
  </g>
 </g>
 <defs>
  <clipPath id="p1b8c1d049b">
   <path d="M 262.954817 320.4 
L 262.954817 43.2 
L 475.045183 43.2 
L 475.045183 320.4 
L 262.954817 320.4 
"/>
  </clipPath>
 </defs>
</svg>
