<?xml version="1.0" encoding="utf-8" standalone="no"?>
<!DOCTYPE svg PUBLIC "-//W3C//DTD SVG 1.1//EN"
  "http://www.w3.org/Graphics/SVG/1.1/DTD/svg11.dtd">
<svg xmlns:xlink="http://www.w3.org/1999/xlink" width="720pt" height="360pt" viewBox="0 0 720 360" xmlns="http://www.w3.org/2000/svg" version="1.1">
 <metadata>
  <rdf:RDF xmlns:dc="http://purl.org/dc/elements/1.1/" xmlns:cc="http://creativecommons.org/ns#" xmlns:rdf="http://www.w3.org/1999/02/22-rdf-syntax-ns#">
   <cc:Work>
    <dc:type rdf:resource="http://purl.org/dc/dcmitype/StillImage"/>
    <dc:date>2023-11-30T21:30:53.285324</dc:date>
    <dc:format>image/svg+xml</dc:format>
    <dc:creator>
     <cc:Agent>
      <dc:title>Matplotlib v3.8.1, https://matplotlib.org/</dc:title>
     </cc:Agent>
    </dc:creator>
   </cc:Work>
  </rdf:RDF>
 </metadata>
 <defs>
  <style type="text/css">*{stroke-linejoin: round; stroke-linecap: butt}</style>
 </defs>
 <g id="figure_1">
  <g id="patch_1">
   <path d="M 0 360 
L 720 360 
L 720 0 
L 0 0 
z
" style="fill: #ffffff"/>
  </g>
  <g id="axes_1">
   <g id="patch_2">
    <path d="M 287.20768 320.4 
L 287.20768 43.2 
L 450.79232 43.2 
L 450.79232 320.4 
L 287.20768 320.4 
" style="fill: #ffffff"/>
   </g>
   <g id="line2d_1">
    <defs>
     <path id="m0812185b74" d="M 0 6.886621 
C 1.826353 6.886621 3.57815 6.161003 4.869576 4.869576 
C 6.161003 3.57815 6.886621 1.826353 6.886621 0 
C 6.886621 -1.826353 6.161003 -3.57815 4.869576 -4.869576 
C 3.57815 -6.161003 1.826353 -6.886621 0 -6.886621 
C -1.826353 -6.886621 -3.57815 -6.161003 -4.869576 -4.869576 
C -6.161003 -3.57815 -6.886621 -1.826353 -6.886621 0 
C -6.886621 1.826353 -6.161003 3.57815 -4.869576 4.869576 
C -3.57815 6.161003 -1.826353 6.886621 0 6.886621 
z
" style="stroke: #000000"/>
    </defs>
    <g clip-path="url(#pae5852abe7)">
     <use xlink:href="#m0812185b74" x="378.39487" y="193.036297" style="stroke: #000000"/>
    </g>
   </g>
   <g id="line2d_2">
    <defs>
     <path id="m71153be3ba" d="M 0 6.814963 
C 1.807349 6.814963 3.540918 6.096895 4.818906 4.818906 
C 6.096895 3.540918 6.814963 1.807349 6.814963 0 
C 6.814963 -1.807349 6.096895 -3.540918 4.818906 -4.818906 
C 3.540918 -6.096895 1.807349 -6.814963 0 -6.814963 
C -1.807349 -6.814963 -3.540918 -6.096895 -4.818906 -4.818906 
C -6.096895 -3.540918 -6.814963 -1.807349 -6.814963 0 
C -6.814963 1.807349 -6.096895 3.540918 -4.818906 4.818906 
C -3.540918 6.096895 -1.807349 6.814963 0 6.814963 
z
" style="stroke: #000000"/>
    </defs>
    <g clip-path="url(#pae5852abe7)">
     <use xlink:href="#m71153be3ba" x="380.557441" y="191.960963" style="stroke: #000000"/>
    </g>
   </g>
   <g id="line2d_3">
    <defs>
     <path id="m3cd5a11b68" d="M 0 4.72869 
C 1.254063 4.72869 2.456932 4.230446 3.343689 3.343689 
C 4.230446 2.456932 4.72869 1.254063 4.72869 0 
C 4.72869 -1.254063 4.230446 -2.456932 3.343689 -3.343689 
C 2.456932 -4.230446 1.254063 -4.72869 0 -4.72869 
C -1.254063 -4.72869 -2.456932 -4.230446 -3.343689 -3.343689 
C -4.230446 -2.456932 -4.72869 -1.254063 -4.72869 0 
C -4.72869 1.254063 -4.230446 2.456932 -3.343689 3.343689 
C -2.456932 4.230446 -1.254063 4.72869 0 4.72869 
z
" style="stroke: #000000"/>
    </defs>
    <g clip-path="url(#pae5852abe7)">
     <use xlink:href="#m3cd5a11b68" x="294.643346" y="307.8" style="stroke: #000000"/>
    </g>
   </g>
   <g id="line2d_4">
    <defs>
     <path id="m0bbc393e8e" d="M 0 4.592438 
C 1.217929 4.592438 2.386138 4.108549 3.247344 3.247344 
C 4.108549 2.386138 4.592438 1.217929 4.592438 0 
C 4.592438 -1.217929 4.108549 -2.386138 3.247344 -3.247344 
C 2.386138 -4.108549 1.217929 -4.592438 0 -4.592438 
C -1.217929 -4.592438 -2.386138 -4.108549 -3.247344 -3.247344 
C -4.108549 -2.386138 -4.592438 -1.217929 -4.592438 0 
C -4.592438 1.217929 -4.108549 2.386138 -3.247344 3.247344 
C -2.386138 4.108549 -1.217929 4.592438 0 4.592438 
z
" style="stroke: #000000"/>
    </defs>
    <g clip-path="url(#pae5852abe7)">
     <use xlink:href="#m0bbc393e8e" x="443.356654" y="83.393724" style="stroke: #000000"/>
    </g>
   </g>
   <g id="line2d_5">
    <defs>
     <path id="md7545ec6f6" d="M 0 4.466845 
C 1.184621 4.466845 2.320883 3.99619 3.158537 3.158537 
C 3.99619 2.320883 4.466845 1.184621 4.466845 0 
C 4.466845 -1.184621 3.99619 -2.320883 3.158537 -3.158537 
C 2.320883 -3.99619 1.184621 -4.466845 0 -4.466845 
C -1.184621 -4.466845 -2.320883 -3.99619 -3.158537 -3.158537 
C -3.99619 -2.320883 -4.466845 -1.184621 -4.466845 0 
C -4.466845 1.184621 -3.99619 2.320883 -3.158537 3.158537 
C -2.320883 3.99619 -1.184621 4.466845 0 4.466845 
z
" style="stroke: #000000"/>
    </defs>
    <g clip-path="url(#pae5852abe7)">
     <use xlink:href="#md7545ec6f6" x="438.916073" y="55.8" style="stroke: #000000"/>
    </g>
   </g>
   <g id="line2d_6">
    <defs>
     <path id="mae759eb387" d="M 0 4.11681 
C 1.091791 4.11681 2.139012 3.683037 2.911024 2.911024 
C 3.683037 2.139012 4.11681 1.091791 4.11681 0 
C 4.11681 -1.091791 3.683037 -2.139012 2.911024 -2.911024 
C 2.139012 -3.683037 1.091791 -4.11681 0 -4.11681 
C -1.091791 -4.11681 -2.139012 -3.683037 -2.911024 -2.911024 
C -3.683037 -2.139012 -4.11681 -1.091791 -4.11681 0 
C -4.11681 1.091791 -3.683037 2.139012 -2.911024 2.911024 
C -2.139012 3.683037 -1.091791 4.11681 0 4.11681 
z
" style="stroke: #000000"/>
    </defs>
    <g clip-path="url(#pae5852abe7)">
     <use xlink:href="#mae759eb387" x="430.977667" y="143.101187" style="stroke: #000000"/>
    </g>
   </g>
   <g id="line2d_7">
    <defs>
     <path id="m805cc7bb6d" d="M 0 4.043731 
C 1.07241 4.043731 2.101041 3.617658 2.85935 2.85935 
C 3.617658 2.101041 4.043731 1.07241 4.043731 0 
C 4.043731 -1.07241 3.617658 -2.101041 2.85935 -2.85935 
C 2.101041 -3.617658 1.07241 -4.043731 0 -4.043731 
C -1.07241 -4.043731 -2.101041 -3.617658 -2.85935 -2.85935 
C -3.617658 -2.101041 -4.043731 -1.07241 -4.043731 0 
C -4.043731 1.07241 -3.617658 2.101041 -2.85935 2.85935 
C -2.101041 3.617658 -1.07241 4.043731 0 4.043731 
z
" style="stroke: #000000"/>
    </defs>
    <g clip-path="url(#pae5852abe7)">
     <use xlink:href="#m805cc7bb6d" x="441.290283" y="132.941955" style="stroke: #000000"/>
    </g>
   </g>
   <g id="line2d_8">
    <defs>
     <path id="m585414dfc9" d="M 0 4.041075 
C 1.071705 4.041075 2.099661 3.615281 2.857471 2.857471 
C 3.615281 2.099661 4.041075 1.071705 4.041075 0 
C 4.041075 -1.071705 3.615281 -2.099661 2.857471 -2.857471 
C 2.099661 -3.615281 1.071705 -4.041075 0 -4.041075 
C -1.071705 -4.041075 -2.099661 -3.615281 -2.857471 -2.857471 
C -3.615281 -2.099661 -4.041075 -1.071705 -4.041075 0 
C -4.041075 1.071705 -3.615281 2.099661 -2.857471 2.857471 
C -2.099661 3.615281 -1.071705 4.041075 0 4.041075 
z
" style="stroke: #000000"/>
    </defs>
    <g clip-path="url(#pae5852abe7)">
     <use xlink:href="#m585414dfc9" x="379.749363" y="152.041568" style="stroke: #000000"/>
    </g>
   </g>
   <g id="line2d_9">
    <defs>
     <path id="m07a40fc514" d="M 0 3.903677 
C 1.035267 3.903677 2.028272 3.492361 2.760317 2.760317 
C 3.492361 2.028272 3.903677 1.035267 3.903677 0 
C 3.903677 -1.035267 3.492361 -2.028272 2.760317 -2.760317 
C 2.028272 -3.492361 1.035267 -3.903677 0 -3.903677 
C -1.035267 -3.903677 -2.028272 -3.492361 -2.760317 -2.760317 
C -3.492361 -2.028272 -3.903677 -1.035267 -3.903677 0 
C -3.903677 1.035267 -3.492361 2.028272 -2.760317 2.760317 
C -2.028272 3.492361 -1.035267 3.903677 0 3.903677 
z
" style="stroke: #000000"/>
    </defs>
    <g clip-path="url(#pae5852abe7)">
     <use xlink:href="#m07a40fc514" x="441.063251" y="110.234685" style="stroke: #000000"/>
    </g>
   </g>
   <g id="line2d_10">
    <defs>
     <path id="m6296cacfea" d="M 0 3.897208 
C 1.033552 3.897208 2.024911 3.486574 2.755742 2.755742 
C 3.486574 2.024911 3.897208 1.033552 3.897208 0 
C 3.897208 -1.033552 3.486574 -2.024911 2.755742 -2.755742 
C 2.024911 -3.486574 1.033552 -3.897208 0 -3.897208 
C -1.033552 -3.897208 -2.024911 -3.486574 -2.755742 -2.755742 
C -3.486574 -2.024911 -3.897208 -1.033552 -3.897208 0 
C -3.897208 1.033552 -3.486574 2.024911 -2.755742 2.755742 
C -2.024911 3.486574 -1.033552 3.897208 0 3.897208 
z
" style="stroke: #000000"/>
    </defs>
    <g clip-path="url(#pae5852abe7)">
     <use xlink:href="#m6296cacfea" x="417.313451" y="88.908821" style="stroke: #000000"/>
    </g>
   </g>
  </g>
 </g>
 <defs>
  <clipPath id="pae5852abe7">
   <path d="M 287.20768 320.4 
L 287.20768 43.2 
L 450.79232 43.2 
L 450.79232 320.4 
L 287.20768 320.4 
"/>
  </clipPath>
 </defs>
</svg>
