<?xml version="1.0" encoding="utf-8" standalone="no"?>
<!DOCTYPE svg PUBLIC "-//W3C//DTD SVG 1.1//EN"
  "http://www.w3.org/Graphics/SVG/1.1/DTD/svg11.dtd">
<svg xmlns:xlink="http://www.w3.org/1999/xlink" width="720pt" height="360pt" viewBox="0 0 720 360" xmlns="http://www.w3.org/2000/svg" version="1.1">
 <metadata>
  <rdf:RDF xmlns:dc="http://purl.org/dc/elements/1.1/" xmlns:cc="http://creativecommons.org/ns#" xmlns:rdf="http://www.w3.org/1999/02/22-rdf-syntax-ns#">
   <cc:Work>
    <dc:type rdf:resource="http://purl.org/dc/dcmitype/StillImage"/>
    <dc:date>2023-11-30T21:30:51.922047</dc:date>
    <dc:format>image/svg+xml</dc:format>
    <dc:creator>
     <cc:Agent>
      <dc:title>Matplotlib v3.8.1, https://matplotlib.org/</dc:title>
     </cc:Agent>
    </dc:creator>
   </cc:Work>
  </rdf:RDF>
 </metadata>
 <defs>
  <style type="text/css">*{stroke-linejoin: round; stroke-linecap: butt}</style>
 </defs>
 <g id="figure_1">
  <g id="patch_1">
   <path d="M 0 360 
L 720 360 
L 720 0 
L 0 0 
z
" style="fill: #ffffff"/>
  </g>
  <g id="axes_1">
   <g id="patch_2">
    <path d="M 288.827235 320.4 
L 288.827235 43.2 
L 449.172765 43.2 
L 449.172765 320.4 
L 288.827235 320.4 
" style="fill: #ffffff"/>
   </g>
   <g id="line2d_1">
    <defs>
     <path id="m8d4bab1ea6" d="M 0 10.249655 
C 2.71824 10.249655 5.325514 9.169687 7.2476 7.2476 
C 9.169687 5.325514 10.249655 2.71824 10.249655 0 
C 10.249655 -2.71824 9.169687 -5.325514 7.2476 -7.2476 
C 5.325514 -9.169687 2.71824 -10.249655 0 -10.249655 
C -2.71824 -10.249655 -5.325514 -9.169687 -7.2476 -7.2476 
C -9.169687 -5.325514 -10.249655 -2.71824 -10.249655 0 
C -10.249655 2.71824 -9.169687 5.325514 -7.2476 7.2476 
C -5.325514 9.169687 -2.71824 10.249655 0 10.249655 
z
" style="stroke: #000000"/>
    </defs>
    <g clip-path="url(#p374cbad07b)">
     <use xlink:href="#m8d4bab1ea6" x="296.115668" y="198.892595" style="stroke: #000000"/>
    </g>
   </g>
   <g id="line2d_2">
    <defs>
     <path id="m1ad005576e" d="M 0 9.101655 
C 2.413787 9.101655 4.729037 8.142647 6.435842 6.435842 
C 8.142647 4.729037 9.101655 2.413787 9.101655 0 
C 9.101655 -2.413787 8.142647 -4.729037 6.435842 -6.435842 
C 4.729037 -8.142647 2.413787 -9.101655 0 -9.101655 
C -2.413787 -9.101655 -4.729037 -8.142647 -6.435842 -6.435842 
C -8.142647 -4.729037 -9.101655 -2.413787 -9.101655 0 
C -9.101655 2.413787 -8.142647 4.729037 -6.435842 6.435842 
C -4.729037 8.142647 -2.413787 9.101655 0 9.101655 
z
" style="stroke: #000000"/>
    </defs>
    <g clip-path="url(#p374cbad07b)">
     <use xlink:href="#m1ad005576e" x="441.884332" y="210.694488" style="stroke: #000000"/>
    </g>
   </g>
   <g id="line2d_3">
    <defs>
     <path id="m175bfd8bb8" d="M 0 8.898948 
C 2.360029 8.898948 4.623714 7.961299 6.292506 6.292506 
C 7.961299 4.623714 8.898948 2.360029 8.898948 0 
C 8.898948 -2.360029 7.961299 -4.623714 6.292506 -6.292506 
C 4.623714 -7.961299 2.360029 -8.898948 0 -8.898948 
C -2.360029 -8.898948 -4.623714 -7.961299 -6.292506 -6.292506 
C -7.961299 -4.623714 -8.898948 -2.360029 -8.898948 0 
C -8.898948 2.360029 -7.961299 4.623714 -6.292506 6.292506 
C -4.623714 7.961299 -2.360029 8.898948 0 8.898948 
z
" style="stroke: #000000"/>
    </defs>
    <g clip-path="url(#p374cbad07b)">
     <use xlink:href="#m175bfd8bb8" x="302.751839" y="201.703891" style="stroke: #000000"/>
    </g>
   </g>
   <g id="line2d_4">
    <defs>
     <path id="md8fa5fe8a7" d="M 0 8.799586 
C 2.333677 8.799586 4.572088 7.872406 6.222247 6.222247 
C 7.872406 4.572088 8.799586 2.333677 8.799586 0 
C 8.799586 -2.333677 7.872406 -4.572088 6.222247 -6.222247 
C 4.572088 -7.872406 2.333677 -8.799586 0 -8.799586 
C -2.333677 -8.799586 -4.572088 -7.872406 -6.222247 -6.222247 
C -7.872406 -4.572088 -8.799586 -2.333677 -8.799586 0 
C -8.799586 2.333677 -7.872406 4.572088 -6.222247 6.222247 
C -4.572088 7.872406 -2.333677 8.799586 0 8.799586 
z
" style="stroke: #000000"/>
    </defs>
    <g clip-path="url(#p374cbad07b)">
     <use xlink:href="#md8fa5fe8a7" x="305.793118" y="202.523955" style="stroke: #000000"/>
    </g>
   </g>
   <g id="line2d_5">
    <defs>
     <path id="ma9e571db14" d="M 0 8.473693 
C 2.24725 8.473693 4.40276 7.580851 5.991806 5.991806 
C 7.580851 4.40276 8.473693 2.24725 8.473693 0 
C 8.473693 -2.24725 7.580851 -4.40276 5.991806 -5.991806 
C 4.40276 -7.580851 2.24725 -8.473693 0 -8.473693 
C -2.24725 -8.473693 -4.40276 -7.580851 -5.991806 -5.991806 
C -7.580851 -4.40276 -8.473693 -2.24725 -8.473693 0 
C -8.473693 2.24725 -7.580851 4.40276 -5.991806 5.991806 
C -4.40276 7.580851 -2.24725 8.473693 0 8.473693 
z
" style="stroke: #000000"/>
    </defs>
    <g clip-path="url(#p374cbad07b)">
     <use xlink:href="#ma9e571db14" x="298.061721" y="202.08115" style="stroke: #000000"/>
    </g>
   </g>
   <g id="line2d_6">
    <defs>
     <path id="m270577bd2d" d="M 0 8.437347 
C 2.23761 8.437347 4.383875 7.548335 5.966105 5.966105 
C 7.548335 4.383875 8.437347 2.23761 8.437347 0 
C 8.437347 -2.23761 7.548335 -4.383875 5.966105 -5.966105 
C 4.383875 -7.548335 2.23761 -8.437347 0 -8.437347 
C -2.23761 -8.437347 -4.383875 -7.548335 -5.966105 -5.966105 
C -7.548335 -4.383875 -8.437347 -2.23761 -8.437347 0 
C -8.437347 2.23761 -7.548335 4.383875 -5.966105 5.966105 
C -4.383875 7.548335 -2.23761 8.437347 0 8.437347 
z
" style="stroke: #000000"/>
    </defs>
    <g clip-path="url(#p374cbad07b)">
     <use xlink:href="#m270577bd2d" x="302.133405" y="201.646829" style="stroke: #000000"/>
    </g>
   </g>
   <g id="line2d_7">
    <defs>
     <path id="m58982e823c" d="M 0 8.276455 
C 2.194941 8.276455 4.300279 7.404395 5.852337 5.852337 
C 7.404395 4.300279 8.276455 2.194941 8.276455 0 
C 8.276455 -2.194941 7.404395 -4.300279 5.852337 -5.852337 
C 4.300279 -7.404395 2.194941 -8.276455 0 -8.276455 
C -2.194941 -8.276455 -4.300279 -7.404395 -5.852337 -5.852337 
C -7.404395 -4.300279 -8.276455 -2.194941 -8.276455 0 
C -8.276455 2.194941 -7.404395 4.300279 -5.852337 5.852337 
C -4.300279 7.404395 -2.194941 8.276455 0 8.276455 
z
" style="stroke: #000000"/>
    </defs>
    <g clip-path="url(#p374cbad07b)">
     <use xlink:href="#m58982e823c" x="303.86435" y="192.539814" style="stroke: #000000"/>
    </g>
   </g>
   <g id="line2d_8">
    <defs>
     <path id="m60a33eca8b" d="M 0 8.265096 
C 2.191929 8.265096 4.294378 7.394234 5.844306 5.844306 
C 7.394234 4.294378 8.265096 2.191929 8.265096 0 
C 8.265096 -2.191929 7.394234 -4.294378 5.844306 -5.844306 
C 4.294378 -7.394234 2.191929 -8.265096 0 -8.265096 
C -2.191929 -8.265096 -4.294378 -7.394234 -5.844306 -5.844306 
C -7.394234 -4.294378 -8.265096 -2.191929 -8.265096 0 
C -8.265096 2.191929 -7.394234 4.294378 -5.844306 5.844306 
C -4.294378 7.394234 -2.191929 8.265096 0 8.265096 
z
" style="stroke: #000000"/>
    </defs>
    <g clip-path="url(#p374cbad07b)">
     <use xlink:href="#m60a33eca8b" x="301.457832" y="204.622156" style="stroke: #000000"/>
    </g>
   </g>
   <g id="line2d_9">
    <defs>
     <path id="me0cee4194a" d="M 0 8.098359 
C 2.14771 8.098359 4.207744 7.245065 5.726404 5.726404 
C 7.245065 4.207744 8.098359 2.14771 8.098359 0 
C 8.098359 -2.14771 7.245065 -4.207744 5.726404 -5.726404 
C 4.207744 -7.245065 2.14771 -8.098359 0 -8.098359 
C -2.14771 -8.098359 -4.207744 -7.245065 -5.726404 -5.726404 
C -7.245065 -4.207744 -8.098359 -2.14771 -8.098359 0 
C -8.098359 2.14771 -7.245065 4.207744 -5.726404 5.726404 
C -4.207744 7.245065 -2.14771 8.098359 0 8.098359 
z
" style="stroke: #000000"/>
    </defs>
    <g clip-path="url(#p374cbad07b)">
     <use xlink:href="#me0cee4194a" x="388.000789" y="55.8" style="stroke: #000000"/>
    </g>
   </g>
   <g id="line2d_10">
    <defs>
     <path id="mc72339ee5b" d="M 0 8.097148 
C 2.147389 8.097148 4.207115 7.243981 5.725548 5.725548 
C 7.243981 4.207115 8.097148 2.147389 8.097148 0 
C 8.097148 -2.147389 7.243981 -4.207115 5.725548 -5.725548 
C 4.207115 -7.243981 2.147389 -8.097148 0 -8.097148 
C -2.147389 -8.097148 -4.207115 -7.243981 -5.725548 -5.725548 
C -7.243981 -4.207115 -8.097148 -2.147389 -8.097148 0 
C -8.097148 2.147389 -7.243981 4.207115 -5.725548 5.725548 
C -4.207115 7.243981 -2.147389 8.097148 0 8.097148 
z
" style="stroke: #000000"/>
    </defs>
    <g clip-path="url(#p374cbad07b)">
     <use xlink:href="#mc72339ee5b" x="381.598451" y="307.8" style="stroke: #000000"/>
    </g>
   </g>
  </g>
 </g>
 <defs>
  <clipPath id="p374cbad07b">
   <path d="M 288.827235 320.4 
L 288.827235 43.2 
L 449.172765 43.2 
L 449.172765 320.4 
L 288.827235 320.4 
"/>
  </clipPath>
 </defs>
</svg>
