<?xml version="1.0" encoding="utf-8" standalone="no"?>
<!DOCTYPE svg PUBLIC "-//W3C//DTD SVG 1.1//EN"
  "http://www.w3.org/Graphics/SVG/1.1/DTD/svg11.dtd">
<svg xmlns:xlink="http://www.w3.org/1999/xlink" width="720pt" height="360pt" viewBox="0 0 720 360" xmlns="http://www.w3.org/2000/svg" version="1.1">
 <metadata>
  <rdf:RDF xmlns:dc="http://purl.org/dc/elements/1.1/" xmlns:cc="http://creativecommons.org/ns#" xmlns:rdf="http://www.w3.org/1999/02/22-rdf-syntax-ns#">
   <cc:Work>
    <dc:type rdf:resource="http://purl.org/dc/dcmitype/StillImage"/>
    <dc:date>2023-11-30T21:30:51.963826</dc:date>
    <dc:format>image/svg+xml</dc:format>
    <dc:creator>
     <cc:Agent>
      <dc:title>Matplotlib v3.8.1, https://matplotlib.org/</dc:title>
     </cc:Agent>
    </dc:creator>
   </cc:Work>
  </rdf:RDF>
 </metadata>
 <defs>
  <style type="text/css">*{stroke-linejoin: round; stroke-linecap: butt}</style>
 </defs>
 <g id="figure_1">
  <g id="patch_1">
   <path d="M 0 360 
L 720 360 
L 720 0 
L 0 0 
z
" style="fill: #ffffff"/>
  </g>
  <g id="axes_1">
   <g id="patch_2">
    <path d="M 278.216845 320.4 
L 278.216845 43.2 
L 459.783155 43.2 
L 459.783155 320.4 
L 278.216845 320.4 
" style="fill: #ffffff"/>
   </g>
   <g id="line2d_1">
    <defs>
     <path id="mab0cd0c721" d="M 0 9.197993 
C 2.439336 9.197993 4.779092 8.228834 6.503963 6.503963 
C 8.228834 4.779092 9.197993 2.439336 9.197993 0 
C 9.197993 -2.439336 8.228834 -4.779092 6.503963 -6.503963 
C 4.779092 -8.228834 2.439336 -9.197993 0 -9.197993 
C -2.439336 -9.197993 -4.779092 -8.228834 -6.503963 -6.503963 
C -8.228834 -4.779092 -9.197993 -2.439336 -9.197993 0 
C -9.197993 2.439336 -8.228834 4.779092 -6.503963 6.503963 
C -4.779092 8.228834 -2.439336 9.197993 0 9.197993 
z
" style="stroke: #000000"/>
    </defs>
    <g clip-path="url(#pd5d1a238bc)">
     <use xlink:href="#mab0cd0c721" x="436.974039" y="243.052815" style="stroke: #000000"/>
    </g>
   </g>
   <g id="line2d_2">
    <defs>
     <path id="ma2d5ada524" d="M 0 9.027858 
C 2.394216 9.027858 4.690693 8.076626 6.38366 6.38366 
C 8.076626 4.690693 9.027858 2.394216 9.027858 0 
C 9.027858 -2.394216 8.076626 -4.690693 6.38366 -6.38366 
C 4.690693 -8.076626 2.394216 -9.027858 0 -9.027858 
C -2.394216 -9.027858 -4.690693 -8.076626 -6.38366 -6.38366 
C -8.076626 -4.690693 -9.027858 -2.394216 -9.027858 0 
C -9.027858 2.394216 -8.076626 4.690693 -6.38366 6.38366 
C -4.690693 8.076626 -2.394216 9.027858 0 9.027858 
z
" style="stroke: #000000"/>
    </defs>
    <g clip-path="url(#pd5d1a238bc)">
     <use xlink:href="#ma2d5ada524" x="415.561031" y="241.6178" style="stroke: #000000"/>
    </g>
   </g>
   <g id="line2d_3">
    <defs>
     <path id="mafd19adc1c" d="M 0 7.421568 
C 1.968223 7.421568 3.856097 6.639585 5.247841 5.247841 
C 6.639585 3.856097 7.421568 1.968223 7.421568 0 
C 7.421568 -1.968223 6.639585 -3.856097 5.247841 -5.247841 
C 3.856097 -6.639585 1.968223 -7.421568 0 -7.421568 
C -1.968223 -7.421568 -3.856097 -6.639585 -5.247841 -5.247841 
C -6.639585 -3.856097 -7.421568 -1.968223 -7.421568 0 
C -7.421568 1.968223 -6.639585 3.856097 -5.247841 5.247841 
C -3.856097 6.639585 -1.968223 7.421568 0 7.421568 
z
" style="stroke: #000000"/>
    </defs>
    <g clip-path="url(#pd5d1a238bc)">
     <use xlink:href="#mafd19adc1c" x="411.948641" y="214.339947" style="stroke: #000000"/>
    </g>
   </g>
   <g id="line2d_4">
    <defs>
     <path id="m915e23f933" d="M 0 7.345135 
C 1.947953 7.345135 3.816385 6.571206 5.193795 5.193795 
C 6.571206 3.816385 7.345135 1.947953 7.345135 0 
C 7.345135 -1.947953 6.571206 -3.816385 5.193795 -5.193795 
C 3.816385 -6.571206 1.947953 -7.345135 0 -7.345135 
C -1.947953 -7.345135 -3.816385 -6.571206 -5.193795 -5.193795 
C -6.571206 -3.816385 -7.345135 -1.947953 -7.345135 0 
C -7.345135 1.947953 -6.571206 3.816385 -5.193795 5.193795 
C -3.816385 6.571206 -1.947953 7.345135 0 7.345135 
z
" style="stroke: #000000"/>
    </defs>
    <g clip-path="url(#pd5d1a238bc)">
     <use xlink:href="#m915e23f933" x="451.530141" y="268.233661" style="stroke: #000000"/>
    </g>
   </g>
   <g id="line2d_5">
    <defs>
     <path id="md6ed55910f" d="M 0 7.103965 
C 1.883993 7.103965 3.691077 6.355446 5.023262 5.023262 
C 6.355446 3.691077 7.103965 1.883993 7.103965 0 
C 7.103965 -1.883993 6.355446 -3.691077 5.023262 -5.023262 
C 3.691077 -6.355446 1.883993 -7.103965 0 -7.103965 
C -1.883993 -7.103965 -3.691077 -6.355446 -5.023262 -5.023262 
C -6.355446 -3.691077 -7.103965 -1.883993 -7.103965 0 
C -7.103965 1.883993 -6.355446 3.691077 -5.023262 5.023262 
C -3.691077 6.355446 -1.883993 7.103965 0 7.103965 
z
" style="stroke: #000000"/>
    </defs>
    <g clip-path="url(#pd5d1a238bc)">
     <use xlink:href="#md6ed55910f" x="431.922322" y="154.80813" style="stroke: #000000"/>
    </g>
   </g>
   <g id="line2d_6">
    <defs>
     <path id="m4df8cfdc31" d="M 0 6.516453 
C 1.728184 6.516453 3.385818 5.829839 4.607828 4.607828 
C 5.829839 3.385818 6.516453 1.728184 6.516453 0 
C 6.516453 -1.728184 5.829839 -3.385818 4.607828 -4.607828 
C 3.385818 -5.829839 1.728184 -6.516453 0 -6.516453 
C -1.728184 -6.516453 -3.385818 -5.829839 -4.607828 -4.607828 
C -5.829839 -3.385818 -6.516453 -1.728184 -6.516453 0 
C -6.516453 1.728184 -5.829839 3.385818 -4.607828 4.607828 
C -3.385818 5.829839 -1.728184 6.516453 0 6.516453 
z
" style="stroke: #000000"/>
    </defs>
    <g clip-path="url(#pd5d1a238bc)">
     <use xlink:href="#m4df8cfdc31" x="374.994517" y="224.157019" style="stroke: #000000"/>
    </g>
   </g>
   <g id="line2d_7">
    <defs>
     <path id="m89fba6bbcd" d="M 0 6.411982 
C 1.700478 6.411982 3.331537 5.736375 4.533956 4.533956 
C 5.736375 3.331537 6.411982 1.700478 6.411982 0 
C 6.411982 -1.700478 5.736375 -3.331537 4.533956 -4.533956 
C 3.331537 -5.736375 1.700478 -6.411982 0 -6.411982 
C -1.700478 -6.411982 -3.331537 -5.736375 -4.533956 -4.533956 
C -5.736375 -3.331537 -6.411982 -1.700478 -6.411982 0 
C -6.411982 1.700478 -5.736375 3.331537 -4.533956 4.533956 
C -3.331537 5.736375 -1.700478 6.411982 0 6.411982 
z
" style="stroke: #000000"/>
    </defs>
    <g clip-path="url(#pd5d1a238bc)">
     <use xlink:href="#m89fba6bbcd" x="286.469859" y="212.212729" style="stroke: #000000"/>
    </g>
   </g>
   <g id="line2d_8">
    <defs>
     <path id="m5622fccb3d" d="M 0 6.247178 
C 1.656771 6.247178 3.245908 5.588936 4.417422 4.417422 
C 5.588936 3.245908 6.247178 1.656771 6.247178 0 
C 6.247178 -1.656771 5.588936 -3.245908 4.417422 -4.417422 
C 3.245908 -5.588936 1.656771 -6.247178 0 -6.247178 
C -1.656771 -6.247178 -3.245908 -5.588936 -4.417422 -4.417422 
C -5.588936 -3.245908 -6.247178 -1.656771 -6.247178 0 
C -6.247178 1.656771 -5.588936 3.245908 -4.417422 4.417422 
C -3.245908 5.588936 -1.656771 6.247178 0 6.247178 
z
" style="stroke: #000000"/>
    </defs>
    <g clip-path="url(#pd5d1a238bc)">
     <use xlink:href="#m5622fccb3d" x="440.93621" y="307.8" style="stroke: #000000"/>
    </g>
   </g>
   <g id="line2d_9">
    <defs>
     <path id="m1f52bd2cd7" d="M 0 6.18152 
C 1.639358 6.18152 3.211793 5.530196 4.370995 4.370995 
C 5.530196 3.211793 6.18152 1.639358 6.18152 0 
C 6.18152 -1.639358 5.530196 -3.211793 4.370995 -4.370995 
C 3.211793 -5.530196 1.639358 -6.18152 0 -6.18152 
C -1.639358 -6.18152 -3.211793 -5.530196 -4.370995 -4.370995 
C -5.530196 -3.211793 -6.18152 -1.639358 -6.18152 0 
C -6.18152 1.639358 -5.530196 3.211793 -4.370995 4.370995 
C -3.211793 5.530196 -1.639358 6.18152 0 6.18152 
z
" style="stroke: #000000"/>
    </defs>
    <g clip-path="url(#pd5d1a238bc)">
     <use xlink:href="#m1f52bd2cd7" x="370.624269" y="55.8" style="stroke: #000000"/>
    </g>
   </g>
   <g id="line2d_10">
    <defs>
     <path id="m3f055dd099" d="M 0 6.164758 
C 1.634913 6.164758 3.203084 5.5152 4.359142 4.359142 
C 5.5152 3.203084 6.164758 1.634913 6.164758 0 
C 6.164758 -1.634913 5.5152 -3.203084 4.359142 -4.359142 
C 3.203084 -5.5152 1.634913 -6.164758 0 -6.164758 
C -1.634913 -6.164758 -3.203084 -5.5152 -4.359142 -4.359142 
C -5.5152 -3.203084 -6.164758 -1.634913 -6.164758 0 
C -6.164758 1.634913 -5.5152 3.203084 -4.359142 4.359142 
C -3.203084 5.5152 -1.634913 6.164758 0 6.164758 
z
" style="stroke: #000000"/>
    </defs>
    <g clip-path="url(#pd5d1a238bc)">
     <use xlink:href="#m3f055dd099" x="438.224405" y="272.7484" style="stroke: #000000"/>
    </g>
   </g>
  </g>
 </g>
 <defs>
  <clipPath id="pd5d1a238bc">
   <path d="M 278.216845 320.4 
L 278.216845 43.2 
L 459.783155 43.2 
L 459.783155 320.4 
L 278.216845 320.4 
"/>
  </clipPath>
 </defs>
</svg>
