<?xml version="1.0" encoding="utf-8" standalone="no"?>
<!DOCTYPE svg PUBLIC "-//W3C//DTD SVG 1.1//EN"
  "http://www.w3.org/Graphics/SVG/1.1/DTD/svg11.dtd">
<svg xmlns:xlink="http://www.w3.org/1999/xlink" width="720pt" height="360pt" viewBox="0 0 720 360" xmlns="http://www.w3.org/2000/svg" version="1.1">
 <metadata>
  <rdf:RDF xmlns:dc="http://purl.org/dc/elements/1.1/" xmlns:cc="http://creativecommons.org/ns#" xmlns:rdf="http://www.w3.org/1999/02/22-rdf-syntax-ns#">
   <cc:Work>
    <dc:type rdf:resource="http://purl.org/dc/dcmitype/StillImage"/>
    <dc:date>2023-11-30T21:30:52.007064</dc:date>
    <dc:format>image/svg+xml</dc:format>
    <dc:creator>
     <cc:Agent>
      <dc:title>Matplotlib v3.8.1, https://matplotlib.org/</dc:title>
     </cc:Agent>
    </dc:creator>
   </cc:Work>
  </rdf:RDF>
 </metadata>
 <defs>
  <style type="text/css">*{stroke-linejoin: round; stroke-linecap: butt}</style>
 </defs>
 <g id="figure_1">
  <g id="patch_1">
   <path d="M 0 360 
L 720 360 
L 720 0 
L 0 0 
z
" style="fill: #ffffff"/>
  </g>
  <g id="axes_1">
   <g id="patch_2">
    <path d="M 252.419511 320.4 
L 252.419511 43.2 
L 485.580489 43.2 
L 485.580489 320.4 
L 252.419511 320.4 
" style="fill: #ffffff"/>
   </g>
   <g id="line2d_1">
    <defs>
     <path id="m2ee326b156" d="M 0 8.532939 
C 2.262962 8.532939 4.433544 7.633855 6.033699 6.033699 
C 7.633855 4.433544 8.532939 2.262962 8.532939 0 
C 8.532939 -2.262962 7.633855 -4.433544 6.033699 -6.033699 
C 4.433544 -7.633855 2.262962 -8.532939 0 -8.532939 
C -2.262962 -8.532939 -4.433544 -7.633855 -6.033699 -6.033699 
C -7.633855 -4.433544 -8.532939 -2.262962 -8.532939 0 
C -8.532939 2.262962 -7.633855 4.433544 -6.033699 6.033699 
C -4.433544 7.633855 -2.262962 8.532939 0 8.532939 
z
" style="stroke: #000000"/>
    </defs>
    <g clip-path="url(#p59f92d4c08)">
     <use xlink:href="#m2ee326b156" x="348.477451" y="55.8" style="stroke: #000000"/>
    </g>
   </g>
   <g id="line2d_2">
    <defs>
     <path id="m4cbf53d956" d="M 0 8.327605 
C 2.208507 8.327605 4.326856 7.450156 5.888506 5.888506 
C 7.450156 4.326856 8.327605 2.208507 8.327605 0 
C 8.327605 -2.208507 7.450156 -4.326856 5.888506 -5.888506 
C 4.326856 -7.450156 2.208507 -8.327605 0 -8.327605 
C -2.208507 -8.327605 -4.326856 -7.450156 -5.888506 -5.888506 
C -7.450156 -4.326856 -8.327605 -2.208507 -8.327605 0 
C -8.327605 2.208507 -7.450156 4.326856 -5.888506 5.888506 
C -4.326856 7.450156 -2.208507 8.327605 0 8.327605 
z
" style="stroke: #000000"/>
    </defs>
    <g clip-path="url(#p59f92d4c08)">
     <use xlink:href="#m4cbf53d956" x="263.017737" y="120.475117" style="stroke: #000000"/>
    </g>
   </g>
   <g id="line2d_3">
    <defs>
     <path id="m599164415b" d="M 0 8.142277 
C 2.159357 8.142277 4.230563 7.284355 5.757459 5.757459 
C 7.284355 4.230563 8.142277 2.159357 8.142277 0 
C 8.142277 -2.159357 7.284355 -4.230563 5.757459 -5.757459 
C 4.230563 -7.284355 2.159357 -8.142277 0 -8.142277 
C -2.159357 -8.142277 -4.230563 -7.284355 -5.757459 -5.757459 
C -7.284355 -4.230563 -8.142277 -2.159357 -8.142277 0 
C -8.142277 2.159357 -7.284355 4.230563 -5.757459 5.757459 
C -4.230563 7.284355 -2.159357 8.142277 0 8.142277 
z
" style="stroke: #000000"/>
    </defs>
    <g clip-path="url(#p59f92d4c08)">
     <use xlink:href="#m599164415b" x="380.578536" y="256.302044" style="stroke: #000000"/>
    </g>
   </g>
   <g id="line2d_4">
    <defs>
     <path id="m786adfa045" d="M 0 8.113056 
C 2.151607 8.113056 4.21538 7.258213 5.736797 5.736797 
C 7.258213 4.21538 8.113056 2.151607 8.113056 0 
C 8.113056 -2.151607 7.258213 -4.21538 5.736797 -5.736797 
C 4.21538 -7.258213 2.151607 -8.113056 0 -8.113056 
C -2.151607 -8.113056 -4.21538 -7.258213 -5.736797 -5.736797 
C -7.258213 -4.21538 -8.113056 -2.151607 -8.113056 0 
C -8.113056 2.151607 -7.258213 4.21538 -5.736797 5.736797 
C -4.21538 7.258213 -2.151607 8.113056 0 8.113056 
z
" style="stroke: #000000"/>
    </defs>
    <g clip-path="url(#p59f92d4c08)">
     <use xlink:href="#m786adfa045" x="361.702563" y="288.235717" style="stroke: #000000"/>
    </g>
   </g>
   <g id="line2d_5">
    <defs>
     <path id="m919bde4505" d="M 0 7.785447 
C 2.064725 7.785447 4.045161 6.965123 5.505142 5.505142 
C 6.965123 4.045161 7.785447 2.064725 7.785447 0 
C 7.785447 -2.064725 6.965123 -4.045161 5.505142 -5.505142 
C 4.045161 -6.965123 2.064725 -7.785447 0 -7.785447 
C -2.064725 -7.785447 -4.045161 -6.965123 -5.505142 -5.505142 
C -6.965123 -4.045161 -7.785447 -2.064725 -7.785447 0 
C -7.785447 2.064725 -6.965123 4.045161 -5.505142 5.505142 
C -4.045161 6.965123 -2.064725 7.785447 0 7.785447 
z
" style="stroke: #000000"/>
    </defs>
    <g clip-path="url(#p59f92d4c08)">
     <use xlink:href="#m919bde4505" x="443.888214" y="96.955995" style="stroke: #000000"/>
    </g>
   </g>
   <g id="line2d_6">
    <defs>
     <path id="mc8a94a37de" d="M 0 7.773598 
C 2.061582 7.773598 4.039005 6.954523 5.496764 5.496764 
C 6.954523 4.039005 7.773598 2.061582 7.773598 0 
C 7.773598 -2.061582 6.954523 -4.039005 5.496764 -5.496764 
C 4.039005 -6.954523 2.061582 -7.773598 0 -7.773598 
C -2.061582 -7.773598 -4.039005 -6.954523 -5.496764 -5.496764 
C -6.954523 -4.039005 -7.773598 -2.061582 -7.773598 0 
C -7.773598 2.061582 -6.954523 4.039005 -5.496764 5.496764 
C -4.039005 6.954523 -2.061582 7.773598 0 7.773598 
z
" style="stroke: #000000"/>
    </defs>
    <g clip-path="url(#p59f92d4c08)">
     <use xlink:href="#mc8a94a37de" x="329.787613" y="261.012286" style="stroke: #000000"/>
    </g>
   </g>
   <g id="line2d_7">
    <defs>
     <path id="m5cfb7fd846" d="M 0 7.553915 
C 2.003322 7.553915 3.924862 6.757987 5.341425 5.341425 
C 6.757987 3.924862 7.553915 2.003322 7.553915 0 
C 7.553915 -2.003322 6.757987 -3.924862 5.341425 -5.341425 
C 3.924862 -6.757987 2.003322 -7.553915 0 -7.553915 
C -2.003322 -7.553915 -3.924862 -6.757987 -5.341425 -5.341425 
C -6.757987 -3.924862 -7.553915 -2.003322 -7.553915 0 
C -7.553915 2.003322 -6.757987 3.924862 -5.341425 5.341425 
C -3.924862 6.757987 -2.003322 7.553915 0 7.553915 
z
" style="stroke: #000000"/>
    </defs>
    <g clip-path="url(#p59f92d4c08)">
     <use xlink:href="#m5cfb7fd846" x="474.982263" y="134.880919" style="stroke: #000000"/>
    </g>
   </g>
   <g id="line2d_8">
    <defs>
     <path id="m2e1a99b4b7" d="M 0 7.520123 
C 1.99436 7.520123 3.907305 6.727756 5.31753 5.31753 
C 6.727756 3.907305 7.520123 1.99436 7.520123 0 
C 7.520123 -1.99436 6.727756 -3.907305 5.31753 -5.31753 
C 3.907305 -6.727756 1.99436 -7.520123 0 -7.520123 
C -1.99436 -7.520123 -3.907305 -6.727756 -5.31753 -5.31753 
C -6.727756 -3.907305 -7.520123 -1.99436 -7.520123 0 
C -7.520123 1.99436 -6.727756 3.907305 -5.31753 5.31753 
C -3.907305 6.727756 -1.99436 7.520123 0 7.520123 
z
" style="stroke: #000000"/>
    </defs>
    <g clip-path="url(#p59f92d4c08)">
     <use xlink:href="#m2e1a99b4b7" x="427.947443" y="307.8" style="stroke: #000000"/>
    </g>
   </g>
   <g id="line2d_9">
    <defs>
     <path id="m3c5448b219" d="M 0 7.504608 
C 1.990245 7.504608 3.899243 6.713875 5.306559 5.306559 
C 6.713875 3.899243 7.504608 1.990245 7.504608 0 
C 7.504608 -1.990245 6.713875 -3.899243 5.306559 -5.306559 
C 3.899243 -6.713875 1.990245 -7.504608 0 -7.504608 
C -1.990245 -7.504608 -3.899243 -6.713875 -5.306559 -5.306559 
C -6.713875 -3.899243 -7.504608 -1.990245 -7.504608 0 
C -7.504608 1.990245 -6.713875 3.899243 -5.306559 5.306559 
C -3.899243 6.713875 -1.990245 7.504608 0 7.504608 
z
" style="stroke: #000000"/>
    </defs>
    <g clip-path="url(#p59f92d4c08)">
     <use xlink:href="#m3c5448b219" x="273.904234" y="83.842761" style="stroke: #000000"/>
    </g>
   </g>
   <g id="line2d_10">
    <defs>
     <path id="mc5856e7efe" d="M 0 7.474663 
C 1.982304 7.474663 3.883684 6.687085 5.285385 5.285385 
C 6.687085 3.883684 7.474663 1.982304 7.474663 0 
C 7.474663 -1.982304 6.687085 -3.883684 5.285385 -5.285385 
C 3.883684 -6.687085 1.982304 -7.474663 0 -7.474663 
C -1.982304 -7.474663 -3.883684 -6.687085 -5.285385 -5.285385 
C -6.687085 -3.883684 -7.474663 -1.982304 -7.474663 0 
C -7.474663 1.982304 -6.687085 3.883684 -5.285385 5.285385 
C -3.883684 6.687085 -1.982304 7.474663 0 7.474663 
z
" style="stroke: #000000"/>
    </defs>
    <g clip-path="url(#p59f92d4c08)">
     <use xlink:href="#mc5856e7efe" x="396.280673" y="63.189354" style="stroke: #000000"/>
    </g>
   </g>
  </g>
 </g>
 <defs>
  <clipPath id="p59f92d4c08">
   <path d="M 252.419511 320.4 
L 252.419511 43.2 
L 485.580489 43.2 
L 485.580489 320.4 
L 252.419511 320.4 
"/>
  </clipPath>
 </defs>
</svg>
