<?xml version="1.0" encoding="utf-8" standalone="no"?>
<!DOCTYPE svg PUBLIC "-//W3C//DTD SVG 1.1//EN"
  "http://www.w3.org/Graphics/SVG/1.1/DTD/svg11.dtd">
<svg xmlns:xlink="http://www.w3.org/1999/xlink" width="720pt" height="360pt" viewBox="0 0 720 360" xmlns="http://www.w3.org/2000/svg" version="1.1">
 <metadata>
  <rdf:RDF xmlns:dc="http://purl.org/dc/elements/1.1/" xmlns:cc="http://creativecommons.org/ns#" xmlns:rdf="http://www.w3.org/1999/02/22-rdf-syntax-ns#">
   <cc:Work>
    <dc:type rdf:resource="http://purl.org/dc/dcmitype/StillImage"/>
    <dc:date>2023-11-30T21:30:52.052981</dc:date>
    <dc:format>image/svg+xml</dc:format>
    <dc:creator>
     <cc:Agent>
      <dc:title>Matplotlib v3.8.1, https://matplotlib.org/</dc:title>
     </cc:Agent>
    </dc:creator>
   </cc:Work>
  </rdf:RDF>
 </metadata>
 <defs>
  <style type="text/css">*{stroke-linejoin: round; stroke-linecap: butt}</style>
 </defs>
 <g id="figure_1">
  <g id="patch_1">
   <path d="M 0 360 
L 720 360 
L 720 0 
L 0 0 
z
" style="fill: #ffffff"/>
  </g>
  <g id="axes_1">
   <g id="patch_2">
    <path d="M 128.003573 320.4 
L 128.003573 43.2 
L 609.996427 43.2 
L 609.996427 320.4 
L 128.003573 320.4 
" style="fill: #ffffff"/>
   </g>
   <g id="line2d_1">
    <defs>
     <path id="medc00ebe55" d="M 0 10.420059 
C 2.763432 10.420059 5.414053 9.322135 7.368094 7.368094 
C 9.322135 5.414053 10.420059 2.763432 10.420059 0 
C 10.420059 -2.763432 9.322135 -5.414053 7.368094 -7.368094 
C 5.414053 -9.322135 2.763432 -10.420059 0 -10.420059 
C -2.763432 -10.420059 -5.414053 -9.322135 -7.368094 -7.368094 
C -9.322135 -5.414053 -10.420059 -2.763432 -10.420059 0 
C -10.420059 2.763432 -9.322135 5.414053 -7.368094 7.368094 
C -5.414053 9.322135 -2.763432 10.420059 0 10.420059 
z
" style="stroke: #000000"/>
    </defs>
    <g clip-path="url(#pdf34d6f66c)">
     <use xlink:href="#medc00ebe55" x="438.567912" y="287.083813" style="stroke: #000000"/>
    </g>
   </g>
   <g id="line2d_2">
    <defs>
     <path id="mbe9dc785e9" d="M 0 9.278073 
C 2.460574 9.278073 4.8207 8.300477 6.560589 6.560589 
C 8.300477 4.8207 9.278073 2.460574 9.278073 0 
C 9.278073 -2.460574 8.300477 -4.8207 6.560589 -6.560589 
C 4.8207 -8.300477 2.460574 -9.278073 0 -9.278073 
C -2.460574 -9.278073 -4.8207 -8.300477 -6.560589 -6.560589 
C -8.300477 -4.8207 -9.278073 -2.460574 -9.278073 0 
C -9.278073 2.460574 -8.300477 4.8207 -6.560589 6.560589 
C -4.8207 8.300477 -2.460574 9.278073 0 9.278073 
z
" style="stroke: #000000"/>
    </defs>
    <g clip-path="url(#pdf34d6f66c)">
     <use xlink:href="#mbe9dc785e9" x="442.263234" y="287.814254" style="stroke: #000000"/>
    </g>
   </g>
   <g id="line2d_3">
    <defs>
     <path id="m12bb9bb8a1" d="M 0 9.265834 
C 2.457328 9.265834 4.814341 8.289527 6.551934 6.551934 
C 8.289527 4.814341 9.265834 2.457328 9.265834 0 
C 9.265834 -2.457328 8.289527 -4.814341 6.551934 -6.551934 
C 4.814341 -8.289527 2.457328 -9.265834 0 -9.265834 
C -2.457328 -9.265834 -4.814341 -8.289527 -6.551934 -6.551934 
C -8.289527 -4.814341 -9.265834 -2.457328 -9.265834 0 
C -9.265834 2.457328 -8.289527 4.814341 -6.551934 6.551934 
C -4.814341 8.289527 -2.457328 9.265834 0 9.265834 
z
" style="stroke: #000000"/>
    </defs>
    <g clip-path="url(#pdf34d6f66c)">
     <use xlink:href="#m12bb9bb8a1" x="526.91377" y="55.8" style="stroke: #000000"/>
    </g>
   </g>
   <g id="line2d_4">
    <defs>
     <path id="m58e2d41ea5" d="M 0 9.244204 
C 2.451592 9.244204 4.803103 8.270177 6.53664 6.53664 
C 8.270177 4.803103 9.244204 2.451592 9.244204 0 
C 9.244204 -2.451592 8.270177 -4.803103 6.53664 -6.53664 
C 4.803103 -8.270177 2.451592 -9.244204 0 -9.244204 
C -2.451592 -9.244204 -4.803103 -8.270177 -6.53664 -6.53664 
C -8.270177 -4.803103 -9.244204 -2.451592 -9.244204 0 
C -9.244204 2.451592 -8.270177 4.803103 -6.53664 6.53664 
C -4.803103 8.270177 -2.451592 9.244204 0 9.244204 
z
" style="stroke: #000000"/>
    </defs>
    <g clip-path="url(#pdf34d6f66c)">
     <use xlink:href="#m58e2d41ea5" x="433.25855" y="286.791605" style="stroke: #000000"/>
    </g>
   </g>
   <g id="line2d_5">
    <defs>
     <path id="m7c7cf5d505" d="M 0 9.198894 
C 2.439575 9.198894 4.77956 8.22964 6.5046 6.5046 
C 8.22964 4.77956 9.198894 2.439575 9.198894 0 
C 9.198894 -2.439575 8.22964 -4.77956 6.5046 -6.5046 
C 4.77956 -8.22964 2.439575 -9.198894 0 -9.198894 
C -2.439575 -9.198894 -4.77956 -8.22964 -6.5046 -6.5046 
C -8.22964 -4.77956 -9.198894 -2.439575 -9.198894 0 
C -9.198894 2.439575 -8.22964 4.77956 -6.5046 6.5046 
C -4.77956 8.22964 -2.439575 9.198894 0 9.198894 
z
" style="stroke: #000000"/>
    </defs>
    <g clip-path="url(#pdf34d6f66c)">
     <use xlink:href="#m7c7cf5d505" x="440.161845" y="285.387274" style="stroke: #000000"/>
    </g>
   </g>
   <g id="line2d_6">
    <defs>
     <path id="m0dbe891e21" d="M 0 9.138955 
C 2.423679 9.138955 4.748417 8.176017 6.462217 6.462217 
C 8.176017 4.748417 9.138955 2.423679 9.138955 0 
C 9.138955 -2.423679 8.176017 -4.748417 6.462217 -6.462217 
C 4.748417 -8.176017 2.423679 -9.138955 0 -9.138955 
C -2.423679 -9.138955 -4.748417 -8.176017 -6.462217 -6.462217 
C -8.176017 -4.748417 -9.138955 -2.423679 -9.138955 0 
C -9.138955 2.423679 -8.176017 4.748417 -6.462217 6.462217 
C -4.748417 8.176017 -2.423679 9.138955 0 9.138955 
z
" style="stroke: #000000"/>
    </defs>
    <g clip-path="url(#pdf34d6f66c)">
     <use xlink:href="#m0dbe891e21" x="588.087661" y="307.8" style="stroke: #000000"/>
    </g>
   </g>
   <g id="line2d_7">
    <defs>
     <path id="m1928d6ec0b" d="M 0 9.13649 
C 2.423026 9.13649 4.747136 8.173812 6.460474 6.460474 
C 8.173812 4.747136 9.13649 2.423026 9.13649 0 
C 9.13649 -2.423026 8.173812 -4.747136 6.460474 -6.460474 
C 4.747136 -8.173812 2.423026 -9.13649 0 -9.13649 
C -2.423026 -9.13649 -4.747136 -8.173812 -6.460474 -6.460474 
C -8.173812 -4.747136 -9.13649 -2.423026 -9.13649 0 
C -9.13649 2.423026 -8.173812 4.747136 -6.460474 6.460474 
C -4.747136 8.173812 -2.423026 9.13649 0 9.13649 
z
" style="stroke: #000000"/>
    </defs>
    <g clip-path="url(#pdf34d6f66c)">
     <use xlink:href="#m1928d6ec0b" x="290.337505" y="90.358832" style="stroke: #000000"/>
    </g>
   </g>
   <g id="line2d_8">
    <defs>
     <path id="mc89d14706b" d="M 0 9.13262 
C 2.421999 9.13262 4.745125 8.170349 6.457737 6.457737 
C 8.170349 4.745125 9.13262 2.421999 9.13262 0 
C 9.13262 -2.421999 8.170349 -4.745125 6.457737 -6.457737 
C 4.745125 -8.170349 2.421999 -9.13262 0 -9.13262 
C -2.421999 -9.13262 -4.745125 -8.170349 -6.457737 -6.457737 
C -8.170349 -4.745125 -9.13262 -2.421999 -9.13262 0 
C -9.13262 2.421999 -8.170349 4.745125 -6.457737 6.457737 
C -4.745125 8.170349 -2.421999 9.13262 0 9.13262 
z
" style="stroke: #000000"/>
    </defs>
    <g clip-path="url(#pdf34d6f66c)">
     <use xlink:href="#mc89d14706b" x="149.912339" y="176.73636" style="stroke: #000000"/>
    </g>
   </g>
   <g id="line2d_9">
    <defs>
     <path id="m79636051bd" d="M 0 9.110855 
C 2.416227 9.110855 4.733817 8.150878 6.442347 6.442347 
C 8.150878 4.733817 9.110855 2.416227 9.110855 0 
C 9.110855 -2.416227 8.150878 -4.733817 6.442347 -6.442347 
C 4.733817 -8.150878 2.416227 -9.110855 0 -9.110855 
C -2.416227 -9.110855 -4.733817 -8.150878 -6.442347 -6.442347 
C -8.150878 -4.733817 -9.110855 -2.416227 -9.110855 0 
C -9.110855 2.416227 -8.150878 4.733817 -6.442347 6.442347 
C -4.733817 8.150878 -2.416227 9.110855 0 9.110855 
z
" style="stroke: #000000"/>
    </defs>
    <g clip-path="url(#pdf34d6f66c)">
     <use xlink:href="#m79636051bd" x="302.166318" y="296.614542" style="stroke: #000000"/>
    </g>
   </g>
   <g id="line2d_10">
    <defs>
     <path id="m4ff63d1c82" d="M 0 9.082944 
C 2.408825 9.082944 4.719315 8.125908 6.422611 6.422611 
C 8.125908 4.719315 9.082944 2.408825 9.082944 0 
C 9.082944 -2.408825 8.125908 -4.719315 6.422611 -6.422611 
C 4.719315 -8.125908 2.408825 -9.082944 0 -9.082944 
C -2.408825 -9.082944 -4.719315 -8.125908 -6.422611 -6.422611 
C -8.125908 -4.719315 -9.082944 -2.408825 -9.082944 0 
C -9.082944 2.408825 -8.125908 4.719315 -6.422611 6.422611 
C -4.719315 8.125908 -2.408825 9.082944 0 9.082944 
z
" style="stroke: #000000"/>
    </defs>
    <g clip-path="url(#pdf34d6f66c)">
     <use xlink:href="#m4ff63d1c82" x="553.54516" y="203.430159" style="stroke: #000000"/>
    </g>
   </g>
  </g>
 </g>
 <defs>
  <clipPath id="pdf34d6f66c">
   <path d="M 128.003573 320.4 
L 128.003573 43.2 
L 609.996427 43.2 
L 609.996427 320.4 
L 128.003573 320.4 
"/>
  </clipPath>
 </defs>
</svg>
