<?xml version="1.0" encoding="utf-8" standalone="no"?>
<!DOCTYPE svg PUBLIC "-//W3C//DTD SVG 1.1//EN"
  "http://www.w3.org/Graphics/SVG/1.1/DTD/svg11.dtd">
<svg xmlns:xlink="http://www.w3.org/1999/xlink" width="720pt" height="360pt" viewBox="0 0 720 360" xmlns="http://www.w3.org/2000/svg" version="1.1">
 <metadata>
  <rdf:RDF xmlns:dc="http://purl.org/dc/elements/1.1/" xmlns:cc="http://creativecommons.org/ns#" xmlns:rdf="http://www.w3.org/1999/02/22-rdf-syntax-ns#">
   <cc:Work>
    <dc:type rdf:resource="http://purl.org/dc/dcmitype/StillImage"/>
    <dc:date>2023-11-30T21:30:52.100781</dc:date>
    <dc:format>image/svg+xml</dc:format>
    <dc:creator>
     <cc:Agent>
      <dc:title>Matplotlib v3.8.1, https://matplotlib.org/</dc:title>
     </cc:Agent>
    </dc:creator>
   </cc:Work>
  </rdf:RDF>
 </metadata>
 <defs>
  <style type="text/css">*{stroke-linejoin: round; stroke-linecap: butt}</style>
 </defs>
 <g id="figure_1">
  <g id="patch_1">
   <path d="M 0 360 
L 720 360 
L 720 0 
L 0 0 
z
" style="fill: #ffffff"/>
  </g>
  <g id="axes_1">
   <g id="patch_2">
    <path d="M 296.194889 320.4 
L 296.194889 43.2 
L 441.805111 43.2 
L 441.805111 320.4 
L 296.194889 320.4 
" style="fill: #ffffff"/>
   </g>
   <g id="line2d_1">
    <defs>
     <path id="mc417e75390" d="M 0 10.14027 
C 2.689231 10.14027 5.26868 9.071827 7.170254 7.170254 
C 9.071827 5.26868 10.14027 2.689231 10.14027 0 
C 10.14027 -2.689231 9.071827 -5.26868 7.170254 -7.170254 
C 5.26868 -9.071827 2.689231 -10.14027 0 -10.14027 
C -2.689231 -10.14027 -5.26868 -9.071827 -7.170254 -7.170254 
C -9.071827 -5.26868 -10.14027 -2.689231 -10.14027 0 
C -10.14027 2.689231 -9.071827 5.26868 -7.170254 7.170254 
C -5.26868 9.071827 -2.689231 10.14027 0 10.14027 
z
" style="stroke: #000000"/>
    </defs>
    <g clip-path="url(#p5ca09584fb)">
     <use xlink:href="#mc417e75390" x="349.182156" y="162.737858" style="stroke: #000000"/>
    </g>
   </g>
   <g id="line2d_2">
    <defs>
     <path id="mc7e108bae5" d="M 0 8.965787 
C 2.377755 8.965787 4.658443 8.021095 6.339769 6.339769 
C 8.021095 4.658443 8.965787 2.377755 8.965787 0 
C 8.965787 -2.377755 8.021095 -4.658443 6.339769 -6.339769 
C 4.658443 -8.021095 2.377755 -8.965787 0 -8.965787 
C -2.377755 -8.965787 -4.658443 -8.021095 -6.339769 -6.339769 
C -8.021095 -4.658443 -8.965787 -2.377755 -8.965787 0 
C -8.965787 2.377755 -8.021095 4.658443 -6.339769 6.339769 
C -4.658443 8.021095 -2.377755 8.965787 0 8.965787 
z
" style="stroke: #000000"/>
    </defs>
    <g clip-path="url(#p5ca09584fb)">
     <use xlink:href="#mc7e108bae5" x="432.70212" y="281.886231" style="stroke: #000000"/>
    </g>
   </g>
   <g id="line2d_3">
    <defs>
     <path id="m60a3d1f3bf" d="M 0 8.858333 
C 2.349257 8.858333 4.602611 7.924963 6.263787 6.263787 
C 7.924963 4.602611 8.858333 2.349257 8.858333 0 
C 8.858333 -2.349257 7.924963 -4.602611 6.263787 -6.263787 
C 4.602611 -7.924963 2.349257 -8.858333 0 -8.858333 
C -2.349257 -8.858333 -4.602611 -7.924963 -6.263787 -6.263787 
C -7.924963 -4.602611 -8.858333 -2.349257 -8.858333 0 
C -8.858333 2.349257 -7.924963 4.602611 -6.263787 6.263787 
C -4.602611 7.924963 -2.349257 8.858333 0 8.858333 
z
" style="stroke: #000000"/>
    </defs>
    <g clip-path="url(#p5ca09584fb)">
     <use xlink:href="#m60a3d1f3bf" x="312.701551" y="126.078135" style="stroke: #000000"/>
    </g>
   </g>
   <g id="line2d_4">
    <defs>
     <path id="mf16f3e29bf" d="M 0 8.623704 
C 2.287033 8.623704 4.480703 7.715056 6.09788 6.09788 
C 7.715056 4.480703 8.623704 2.287033 8.623704 0 
C 8.623704 -2.287033 7.715056 -4.480703 6.09788 -6.09788 
C 4.480703 -7.715056 2.287033 -8.623704 0 -8.623704 
C -2.287033 -8.623704 -4.480703 -7.715056 -6.09788 -6.09788 
C -7.715056 -4.480703 -8.623704 -2.287033 -8.623704 0 
C -8.623704 2.287033 -7.715056 4.480703 -6.09788 6.09788 
C -4.480703 7.715056 -2.287033 8.623704 0 8.623704 
z
" style="stroke: #000000"/>
    </defs>
    <g clip-path="url(#p5ca09584fb)">
     <use xlink:href="#mf16f3e29bf" x="345.467254" y="159.327772" style="stroke: #000000"/>
    </g>
   </g>
   <g id="line2d_5">
    <defs>
     <path id="m1717254f54" d="M 0 8.585051 
C 2.276782 8.585051 4.460619 7.680475 6.070547 6.070547 
C 7.680475 4.460619 8.585051 2.276782 8.585051 0 
C 8.585051 -2.276782 7.680475 -4.460619 6.070547 -6.070547 
C 4.460619 -7.680475 2.276782 -8.585051 0 -8.585051 
C -2.276782 -8.585051 -4.460619 -7.680475 -6.070547 -6.070547 
C -7.680475 -4.460619 -8.585051 -2.276782 -8.585051 0 
C -8.585051 2.276782 -7.680475 4.460619 -6.070547 6.070547 
C -4.460619 7.680475 -2.276782 8.585051 0 8.585051 
z
" style="stroke: #000000"/>
    </defs>
    <g clip-path="url(#p5ca09584fb)">
     <use xlink:href="#m1717254f54" x="375.404243" y="226.526517" style="stroke: #000000"/>
    </g>
   </g>
   <g id="line2d_6">
    <defs>
     <path id="mb1d87a914b" d="M 0 8.418524 
C 2.232619 8.418524 4.374096 7.531496 5.952796 5.952796 
C 7.531496 4.374096 8.418524 2.232619 8.418524 0 
C 8.418524 -2.232619 7.531496 -4.374096 5.952796 -5.952796 
C 4.374096 -7.531496 2.232619 -8.418524 0 -8.418524 
C -2.232619 -8.418524 -4.374096 -7.531496 -5.952796 -5.952796 
C -7.531496 -4.374096 -8.418524 -2.232619 -8.418524 0 
C -8.418524 2.232619 -7.531496 4.374096 -5.952796 5.952796 
C -4.374096 7.531496 -2.232619 8.418524 0 8.418524 
z
" style="stroke: #000000"/>
    </defs>
    <g clip-path="url(#p5ca09584fb)">
     <use xlink:href="#mb1d87a914b" x="342.480001" y="236.597421" style="stroke: #000000"/>
    </g>
   </g>
   <g id="line2d_7">
    <defs>
     <path id="m509c17ad20" d="M 0 8.304827 
C 2.202466 8.304827 4.315021 7.429778 5.8724 5.8724 
C 7.429778 4.315021 8.304827 2.202466 8.304827 0 
C 8.304827 -2.202466 7.429778 -4.315021 5.8724 -5.8724 
C 4.315021 -7.429778 2.202466 -8.304827 0 -8.304827 
C -2.202466 -8.304827 -4.315021 -7.429778 -5.8724 -5.8724 
C -7.429778 -4.315021 -8.304827 -2.202466 -8.304827 0 
C -8.304827 2.202466 -7.429778 4.315021 -5.8724 5.8724 
C -4.315021 7.429778 -2.202466 8.304827 0 8.304827 
z
" style="stroke: #000000"/>
    </defs>
    <g clip-path="url(#p5ca09584fb)">
     <use xlink:href="#m509c17ad20" x="302.813535" y="55.8" style="stroke: #000000"/>
    </g>
   </g>
   <g id="line2d_8">
    <defs>
     <path id="m71c4c222f0" d="M 0 8.265988 
C 2.192166 8.265988 4.294841 7.395031 5.844936 5.844936 
C 7.395031 4.294841 8.265988 2.192166 8.265988 0 
C 8.265988 -2.192166 7.395031 -4.294841 5.844936 -5.844936 
C 4.294841 -7.395031 2.192166 -8.265988 0 -8.265988 
C -2.192166 -8.265988 -4.294841 -7.395031 -5.844936 -5.844936 
C -7.395031 -4.294841 -8.265988 -2.192166 -8.265988 0 
C -8.265988 2.192166 -7.395031 4.294841 -5.844936 5.844936 
C -4.294841 7.395031 -2.192166 8.265988 0 8.265988 
z
" style="stroke: #000000"/>
    </defs>
    <g clip-path="url(#p5ca09584fb)">
     <use xlink:href="#m71c4c222f0" x="435.186465" y="307.8" style="stroke: #000000"/>
    </g>
   </g>
   <g id="line2d_9">
    <defs>
     <path id="m96f8c8dd9b" d="M 0 8.195999 
C 2.173604 8.195999 4.258476 7.332417 5.795447 5.795447 
C 7.332417 4.258476 8.195999 2.173604 8.195999 0 
C 8.195999 -2.173604 7.332417 -4.258476 5.795447 -5.795447 
C 4.258476 -7.332417 2.173604 -8.195999 0 -8.195999 
C -2.173604 -8.195999 -4.258476 -7.332417 -5.795447 -5.795447 
C -7.332417 -4.258476 -8.195999 -2.173604 -8.195999 0 
C -8.195999 2.173604 -7.332417 4.258476 -5.795447 5.795447 
C -4.258476 7.332417 -2.173604 8.195999 0 8.195999 
z
" style="stroke: #000000"/>
    </defs>
    <g clip-path="url(#p5ca09584fb)">
     <use xlink:href="#m96f8c8dd9b" x="351.916793" y="296.821176" style="stroke: #000000"/>
    </g>
   </g>
   <g id="line2d_10">
    <defs>
     <path id="m48d0b4f984" d="M 0 8.169081 
C 2.166466 8.169081 4.24449 7.308335 5.776413 5.776413 
C 7.308335 4.24449 8.169081 2.166466 8.169081 0 
C 8.169081 -2.166466 7.308335 -4.24449 5.776413 -5.776413 
C 4.24449 -7.308335 2.166466 -8.169081 0 -8.169081 
C -2.166466 -8.169081 -4.24449 -7.308335 -5.776413 -5.776413 
C -7.308335 -4.24449 -8.169081 -2.166466 -8.169081 0 
C -8.169081 2.166466 -7.308335 4.24449 -5.776413 5.776413 
C -4.24449 7.308335 -2.166466 8.169081 0 8.169081 
z
" style="stroke: #000000"/>
    </defs>
    <g clip-path="url(#p5ca09584fb)">
     <use xlink:href="#m48d0b4f984" x="362.208413" y="249.873654" style="stroke: #000000"/>
    </g>
   </g>
  </g>
 </g>
 <defs>
  <clipPath id="p5ca09584fb">
   <path d="M 296.194889 320.4 
L 296.194889 43.2 
L 441.805111 43.2 
L 441.805111 320.4 
L 296.194889 320.4 
"/>
  </clipPath>
 </defs>
</svg>
