<?xml version="1.0" encoding="utf-8" standalone="no"?>
<!DOCTYPE svg PUBLIC "-//W3C//DTD SVG 1.1//EN"
  "http://www.w3.org/Graphics/SVG/1.1/DTD/svg11.dtd">
<svg xmlns:xlink="http://www.w3.org/1999/xlink" width="720pt" height="360pt" viewBox="0 0 720 360" xmlns="http://www.w3.org/2000/svg" version="1.1">
 <metadata>
  <rdf:RDF xmlns:dc="http://purl.org/dc/elements/1.1/" xmlns:cc="http://creativecommons.org/ns#" xmlns:rdf="http://www.w3.org/1999/02/22-rdf-syntax-ns#">
   <cc:Work>
    <dc:type rdf:resource="http://purl.org/dc/dcmitype/StillImage"/>
    <dc:date>2023-11-30T21:30:50.829903</dc:date>
    <dc:format>image/svg+xml</dc:format>
    <dc:creator>
     <cc:Agent>
      <dc:title>Matplotlib v3.8.1, https://matplotlib.org/</dc:title>
     </cc:Agent>
    </dc:creator>
   </cc:Work>
  </rdf:RDF>
 </metadata>
 <defs>
  <style type="text/css">*{stroke-linejoin: round; stroke-linecap: butt}</style>
 </defs>
 <g id="figure_1">
  <g id="patch_1">
   <path d="M 0 360 
L 720 360 
L 720 0 
L 0 0 
z
" style="fill: #ffffff"/>
  </g>
  <g id="axes_1">
   <g id="patch_2">
    <path d="M 90 296.136858 
L 90 67.463142 
L 648 67.463142 
L 648 296.136858 
L 90 296.136858 
" style="fill: #ffffff"/>
   </g>
   <g id="line2d_1">
    <defs>
     <path id="m10c190de18" d="M 0 11.653737 
C 3.090607 11.653737 6.055047 10.425825 8.240436 8.240436 
C 10.425825 6.055047 11.653737 3.090607 11.653737 0 
C 11.653737 -3.090607 10.425825 -6.055047 8.240436 -8.240436 
C 6.055047 -10.425825 3.090607 -11.653737 0 -11.653737 
C -3.090607 -11.653737 -6.055047 -10.425825 -8.240436 -8.240436 
C -10.425825 -6.055047 -11.653737 -3.090607 -11.653737 0 
C -11.653737 3.090607 -10.425825 6.055047 -8.240436 8.240436 
C -6.055047 10.425825 -3.090607 11.653737 0 11.653737 
z
" style="stroke: #000000"/>
    </defs>
    <g clip-path="url(#peb082ac952)">
     <use xlink:href="#m10c190de18" x="185.751003" y="153.646914" style="stroke: #000000"/>
    </g>
   </g>
   <g id="line2d_2">
    <defs>
     <path id="me355d340b8" d="M 0 11.175815 
C 2.963861 11.175815 5.806728 9.99826 7.902494 7.902494 
C 9.99826 5.806728 11.175815 2.963861 11.175815 0 
C 11.175815 -2.963861 9.99826 -5.806728 7.902494 -7.902494 
C 5.806728 -9.99826 2.963861 -11.175815 0 -11.175815 
C -2.963861 -11.175815 -5.806728 -9.99826 -7.902494 -7.902494 
C -9.99826 -5.806728 -11.175815 -2.963861 -11.175815 0 
C -11.175815 2.963861 -9.99826 5.806728 -7.902494 7.902494 
C -5.806728 9.99826 -2.963861 11.175815 0 11.175815 
z
" style="stroke: #000000"/>
    </defs>
    <g clip-path="url(#peb082ac952)">
     <use xlink:href="#me355d340b8" x="115.363636" y="77.857402" style="stroke: #000000"/>
    </g>
   </g>
   <g id="line2d_3">
    <defs>
     <path id="m5f47b40826" d="M 0 10.310583 
C 2.734399 10.310583 5.357172 9.224195 7.290683 7.290683 
C 9.224195 5.357172 10.310583 2.734399 10.310583 0 
C 10.310583 -2.734399 9.224195 -5.357172 7.290683 -7.290683 
C 5.357172 -9.224195 2.734399 -10.310583 0 -10.310583 
C -2.734399 -10.310583 -5.357172 -9.224195 -7.290683 -7.290683 
C -9.224195 -5.357172 -10.310583 -2.734399 -10.310583 0 
C -10.310583 2.734399 -9.224195 5.357172 -7.290683 7.290683 
C -5.357172 9.224195 -2.734399 10.310583 0 10.310583 
z
" style="stroke: #000000"/>
    </defs>
    <g clip-path="url(#peb082ac952)">
     <use xlink:href="#m5f47b40826" x="622.636364" y="165.686003" style="stroke: #000000"/>
    </g>
   </g>
   <g id="line2d_4">
    <defs>
     <path id="m6869cadf97" d="M 0 10.255889 
C 2.719894 10.255889 5.328754 9.175264 7.252009 7.252009 
C 9.175264 5.328754 10.255889 2.719894 10.255889 0 
C 10.255889 -2.719894 9.175264 -5.328754 7.252009 -7.252009 
C 5.328754 -9.175264 2.719894 -10.255889 0 -10.255889 
C -2.719894 -10.255889 -5.328754 -9.175264 -7.252009 -7.252009 
C -9.175264 -5.328754 -10.255889 -2.719894 -10.255889 0 
C -10.255889 2.719894 -9.175264 5.328754 -7.252009 7.252009 
C -5.328754 9.175264 -2.719894 10.255889 0 10.255889 
z
" style="stroke: #000000"/>
    </defs>
    <g clip-path="url(#peb082ac952)">
     <use xlink:href="#m6869cadf97" x="407.443593" y="134.577295" style="stroke: #000000"/>
    </g>
   </g>
   <g id="line2d_5">
    <defs>
     <path id="mfa26c65ece" d="M 0 10.131931 
C 2.68702 10.131931 5.264348 9.064367 7.164357 7.164357 
C 9.064367 5.264348 10.131931 2.68702 10.131931 0 
C 10.131931 -2.68702 9.064367 -5.264348 7.164357 -7.164357 
C 5.264348 -9.064367 2.68702 -10.131931 0 -10.131931 
C -2.68702 -10.131931 -5.264348 -9.064367 -7.164357 -7.164357 
C -9.064367 -5.264348 -10.131931 -2.68702 -10.131931 0 
C -10.131931 2.68702 -9.064367 5.264348 -7.164357 7.164357 
C -5.264348 9.064367 -2.68702 10.131931 0 10.131931 
z
" style="stroke: #000000"/>
    </defs>
    <g clip-path="url(#peb082ac952)">
     <use xlink:href="#mfa26c65ece" x="247.31815" y="143.71943" style="stroke: #000000"/>
    </g>
   </g>
   <g id="line2d_6">
    <defs>
     <path id="me8615c5ddf" d="M 0 10.122988 
C 2.684648 10.122988 5.259701 9.056366 7.158034 7.158034 
C 9.056366 5.259701 10.122988 2.684648 10.122988 0 
C 10.122988 -2.684648 9.056366 -5.259701 7.158034 -7.158034 
C 5.259701 -9.056366 2.684648 -10.122988 0 -10.122988 
C -2.684648 -10.122988 -5.259701 -9.056366 -7.158034 -7.158034 
C -9.056366 -5.259701 -10.122988 -2.684648 -10.122988 0 
C -10.122988 2.684648 -9.056366 5.259701 -7.158034 7.158034 
C -5.259701 9.056366 -2.684648 10.122988 0 10.122988 
z
" style="stroke: #000000"/>
    </defs>
    <g clip-path="url(#peb082ac952)">
     <use xlink:href="#me8615c5ddf" x="296.676926" y="153.022371" style="stroke: #000000"/>
    </g>
   </g>
   <g id="line2d_7">
    <defs>
     <path id="m3ea477becf" d="M 0 10.098726 
C 2.678213 10.098726 5.247095 9.03466 7.140878 7.140878 
C 9.03466 5.247095 10.098726 2.678213 10.098726 0 
C 10.098726 -2.678213 9.03466 -5.247095 7.140878 -7.140878 
C 5.247095 -9.03466 2.678213 -10.098726 0 -10.098726 
C -2.678213 -10.098726 -5.247095 -9.03466 -7.140878 -7.140878 
C -9.03466 -5.247095 -10.098726 -2.678213 -10.098726 0 
C -10.098726 2.678213 -9.03466 5.247095 -7.140878 7.140878 
C -5.247095 9.03466 -2.678213 10.098726 0 10.098726 
z
" style="stroke: #000000"/>
    </defs>
    <g clip-path="url(#peb082ac952)">
     <use xlink:href="#m3ea477becf" x="415.319168" y="163.794406" style="stroke: #000000"/>
    </g>
   </g>
   <g id="line2d_8">
    <defs>
     <path id="m8c8e861ee5" d="M 0 10.080314 
C 2.673331 10.080314 5.237528 9.018189 7.127859 7.127859 
C 9.018189 5.237528 10.080314 2.673331 10.080314 0 
C 10.080314 -2.673331 9.018189 -5.237528 7.127859 -7.127859 
C 5.237528 -9.018189 2.673331 -10.080314 0 -10.080314 
C -2.673331 -10.080314 -5.237528 -9.018189 -7.127859 -7.127859 
C -9.018189 -5.237528 -10.080314 -2.673331 -10.080314 0 
C -10.080314 2.673331 -9.018189 5.237528 -7.127859 7.127859 
C -5.237528 9.018189 -2.673331 10.080314 0 10.080314 
z
" style="stroke: #000000"/>
    </defs>
    <g clip-path="url(#peb082ac952)">
     <use xlink:href="#m8c8e861ee5" x="530.417955" y="166.50909" style="stroke: #000000"/>
    </g>
   </g>
   <g id="line2d_9">
    <defs>
     <path id="m13c46fe255" d="M 0 10.074958 
C 2.67191 10.074958 5.234745 9.013397 7.124071 7.124071 
C 9.013397 5.234745 10.074958 2.67191 10.074958 0 
C 10.074958 -2.67191 9.013397 -5.234745 7.124071 -7.124071 
C 5.234745 -9.013397 2.67191 -10.074958 0 -10.074958 
C -2.67191 -10.074958 -5.234745 -9.013397 -7.124071 -7.124071 
C -9.013397 -5.234745 -10.074958 -2.67191 -10.074958 0 
C -10.074958 2.67191 -9.013397 5.234745 -7.124071 7.124071 
C -5.234745 9.013397 -2.67191 10.074958 0 10.074958 
z
" style="stroke: #000000"/>
    </defs>
    <g clip-path="url(#peb082ac952)">
     <use xlink:href="#m13c46fe255" x="306.585719" y="195.911431" style="stroke: #000000"/>
    </g>
   </g>
   <g id="line2d_10">
    <defs>
     <path id="mf473505adf" d="M 0 10.054141 
C 2.666389 10.054141 5.223929 8.994773 7.109351 7.109351 
C 8.994773 5.223929 10.054141 2.666389 10.054141 0 
C 10.054141 -2.666389 8.994773 -5.223929 7.109351 -7.109351 
C 5.223929 -8.994773 2.666389 -10.054141 0 -10.054141 
C -2.666389 -10.054141 -5.223929 -8.994773 -7.109351 -7.109351 
C -8.994773 -5.223929 -10.054141 -2.666389 -10.054141 0 
C -10.054141 2.666389 -8.994773 5.223929 -7.109351 7.109351 
C -5.223929 8.994773 -2.666389 10.054141 0 10.054141 
z
" style="stroke: #000000"/>
    </defs>
    <g clip-path="url(#peb082ac952)">
     <use xlink:href="#mf473505adf" x="206.06988" y="285.742598" style="stroke: #000000"/>
    </g>
   </g>
  </g>
 </g>
 <defs>
  <clipPath id="peb082ac952">
   <path d="M 90 296.136858 
L 90 67.463142 
L 648 67.463142 
L 648 296.136858 
L 90 296.136858 
"/>
  </clipPath>
 </defs>
</svg>
