<?xml version="1.0" encoding="utf-8" standalone="no"?>
<!DOCTYPE svg PUBLIC "-//W3C//DTD SVG 1.1//EN"
  "http://www.w3.org/Graphics/SVG/1.1/DTD/svg11.dtd">
<svg xmlns:xlink="http://www.w3.org/1999/xlink" width="720pt" height="360pt" viewBox="0 0 720 360" xmlns="http://www.w3.org/2000/svg" version="1.1">
 <metadata>
  <rdf:RDF xmlns:dc="http://purl.org/dc/elements/1.1/" xmlns:cc="http://creativecommons.org/ns#" xmlns:rdf="http://www.w3.org/1999/02/22-rdf-syntax-ns#">
   <cc:Work>
    <dc:type rdf:resource="http://purl.org/dc/dcmitype/StillImage"/>
    <dc:date>2023-11-30T21:30:50.872027</dc:date>
    <dc:format>image/svg+xml</dc:format>
    <dc:creator>
     <cc:Agent>
      <dc:title>Matplotlib v3.8.1, https://matplotlib.org/</dc:title>
     </cc:Agent>
    </dc:creator>
   </cc:Work>
  </rdf:RDF>
 </metadata>
 <defs>
  <style type="text/css">*{stroke-linejoin: round; stroke-linecap: butt}</style>
 </defs>
 <g id="figure_1">
  <g id="patch_1">
   <path d="M 0 360 
L 720 360 
L 720 0 
L 0 0 
z
" style="fill: #ffffff"/>
  </g>
  <g id="axes_1">
   <g id="patch_2">
    <path d="M 161.114654 320.4 
L 161.114654 43.2 
L 576.885346 43.2 
L 576.885346 320.4 
L 161.114654 320.4 
" style="fill: #ffffff"/>
   </g>
   <g id="line2d_1">
    <defs>
     <path id="mdf61d02af6" d="M 0 10.055659 
C 2.666792 10.055659 5.224718 8.996131 7.110425 7.110425 
C 8.996131 5.224718 10.055659 2.666792 10.055659 0 
C 10.055659 -2.666792 8.996131 -5.224718 7.110425 -7.110425 
C 5.224718 -8.996131 2.666792 -10.055659 0 -10.055659 
C -2.666792 -10.055659 -5.224718 -8.996131 -7.110425 -7.110425 
C -8.996131 -5.224718 -10.055659 -2.666792 -10.055659 0 
C -10.055659 2.666792 -8.996131 5.224718 -7.110425 7.110425 
C -5.224718 8.996131 -2.666792 10.055659 0 10.055659 
z
" style="stroke: #000000"/>
    </defs>
    <g clip-path="url(#p89ee76e0a3)">
     <use xlink:href="#mdf61d02af6" x="446.145675" y="159.193316" style="stroke: #000000"/>
    </g>
   </g>
   <g id="line2d_2">
    <defs>
     <path id="medffffd88a" d="M 0 8.531018 
C 2.262452 8.531018 4.432545 7.632136 6.032341 6.032341 
C 7.632136 4.432545 8.531018 2.262452 8.531018 0 
C 8.531018 -2.262452 7.632136 -4.432545 6.032341 -6.032341 
C 4.432545 -7.632136 2.262452 -8.531018 0 -8.531018 
C -2.262452 -8.531018 -4.432545 -7.632136 -6.032341 -6.032341 
C -7.632136 -4.432545 -8.531018 -2.262452 -8.531018 0 
C -8.531018 2.262452 -7.632136 4.432545 -6.032341 6.032341 
C -4.432545 7.632136 -2.262452 8.531018 0 8.531018 
z
" style="stroke: #000000"/>
    </defs>
    <g clip-path="url(#p89ee76e0a3)">
     <use xlink:href="#medffffd88a" x="260.658579" y="102.413637" style="stroke: #000000"/>
    </g>
   </g>
   <g id="line2d_3">
    <defs>
     <path id="m668317d86b" d="M 0 8.225614 
C 2.181458 8.225614 4.273863 7.358911 5.816387 5.816387 
C 7.358911 4.273863 8.225614 2.181458 8.225614 0 
C 8.225614 -2.181458 7.358911 -4.273863 5.816387 -5.816387 
C 4.273863 -7.358911 2.181458 -8.225614 0 -8.225614 
C -2.181458 -8.225614 -4.273863 -7.358911 -5.816387 -5.816387 
C -7.358911 -4.273863 -8.225614 -2.181458 -8.225614 0 
C -8.225614 2.181458 -7.358911 4.273863 -5.816387 5.816387 
C -4.273863 7.358911 -2.181458 8.225614 0 8.225614 
z
" style="stroke: #000000"/>
    </defs>
    <g clip-path="url(#p89ee76e0a3)">
     <use xlink:href="#m668317d86b" x="372.314664" y="307.8" style="stroke: #000000"/>
    </g>
   </g>
   <g id="line2d_4">
    <defs>
     <path id="m07dd1b6507" d="M 0 8.209437 
C 2.177168 8.209437 4.265458 7.344439 5.804949 5.804949 
C 7.344439 4.265458 8.209437 2.177168 8.209437 0 
C 8.209437 -2.177168 7.344439 -4.265458 5.804949 -5.804949 
C 4.265458 -7.344439 2.177168 -8.209437 0 -8.209437 
C -2.177168 -8.209437 -4.265458 -7.344439 -5.804949 -5.804949 
C -7.344439 -4.265458 -8.209437 -2.177168 -8.209437 0 
C -8.209437 2.177168 -7.344439 4.265458 -5.804949 5.804949 
C -4.265458 7.344439 -2.177168 8.209437 0 8.209437 
z
" style="stroke: #000000"/>
    </defs>
    <g clip-path="url(#p89ee76e0a3)">
     <use xlink:href="#m07dd1b6507" x="376.297345" y="187.794184" style="stroke: #000000"/>
    </g>
   </g>
   <g id="line2d_5">
    <defs>
     <path id="m688838b988" d="M 0 8.201756 
C 2.175131 8.201756 4.261467 7.337567 5.799517 5.799517 
C 7.337567 4.261467 8.201756 2.175131 8.201756 0 
C 8.201756 -2.175131 7.337567 -4.261467 5.799517 -5.799517 
C 4.261467 -7.337567 2.175131 -8.201756 0 -8.201756 
C -2.175131 -8.201756 -4.261467 -7.337567 -5.799517 -5.799517 
C -7.337567 -4.261467 -8.201756 -2.175131 -8.201756 0 
C -8.201756 2.175131 -7.337567 4.261467 -5.799517 5.799517 
C -4.261467 7.337567 -2.175131 8.201756 0 8.201756 
z
" style="stroke: #000000"/>
    </defs>
    <g clip-path="url(#p89ee76e0a3)">
     <use xlink:href="#m688838b988" x="348.166623" y="55.8" style="stroke: #000000"/>
    </g>
   </g>
   <g id="line2d_6">
    <defs>
     <path id="m7d0deb3919" d="M 0 8.053629 
C 2.135847 8.053629 4.184504 7.205048 5.694776 5.694776 
C 7.205048 4.184504 8.053629 2.135847 8.053629 0 
C 8.053629 -2.135847 7.205048 -4.184504 5.694776 -5.694776 
C 4.184504 -7.205048 2.135847 -8.053629 0 -8.053629 
C -2.135847 -8.053629 -4.184504 -7.205048 -5.694776 -5.694776 
C -7.205048 -4.184504 -8.053629 -2.135847 -8.053629 0 
C -8.053629 2.135847 -7.205048 4.184504 -5.694776 5.694776 
C -4.184504 7.205048 -2.135847 8.053629 0 8.053629 
z
" style="stroke: #000000"/>
    </defs>
    <g clip-path="url(#p89ee76e0a3)">
     <use xlink:href="#m7d0deb3919" x="448.145106" y="73.361683" style="stroke: #000000"/>
    </g>
   </g>
   <g id="line2d_7">
    <defs>
     <path id="m836e0b99b3" d="M 0 7.981584 
C 2.116741 7.981584 4.14707 7.140594 5.643832 5.643832 
C 7.140594 4.14707 7.981584 2.116741 7.981584 0 
C 7.981584 -2.116741 7.140594 -4.14707 5.643832 -5.643832 
C 4.14707 -7.140594 2.116741 -7.981584 0 -7.981584 
C -2.116741 -7.981584 -4.14707 -7.140594 -5.643832 -5.643832 
C -7.140594 -4.14707 -7.981584 -2.116741 -7.981584 0 
C -7.981584 2.116741 -7.140594 4.14707 -5.643832 5.643832 
C -4.14707 7.140594 -2.116741 7.981584 0 7.981584 
z
" style="stroke: #000000"/>
    </defs>
    <g clip-path="url(#p89ee76e0a3)">
     <use xlink:href="#m836e0b99b3" x="180.013322" y="282.042989" style="stroke: #000000"/>
    </g>
   </g>
   <g id="line2d_8">
    <defs>
     <path id="me516fa3fc0" d="M 0 7.775749 
C 2.062153 7.775749 4.040123 6.956447 5.498285 5.498285 
C 6.956447 4.040123 7.775749 2.062153 7.775749 0 
C 7.775749 -2.062153 6.956447 -4.040123 5.498285 -5.498285 
C 4.040123 -6.956447 2.062153 -7.775749 0 -7.775749 
C -2.062153 -7.775749 -4.040123 -6.956447 -5.498285 -5.498285 
C -6.956447 -4.040123 -7.775749 -2.062153 -7.775749 0 
C -7.775749 2.062153 -6.956447 4.040123 -5.498285 5.498285 
C -4.040123 6.956447 -2.062153 7.775749 0 7.775749 
z
" style="stroke: #000000"/>
    </defs>
    <g clip-path="url(#p89ee76e0a3)">
     <use xlink:href="#me516fa3fc0" x="281.783203" y="184.540893" style="stroke: #000000"/>
    </g>
   </g>
   <g id="line2d_9">
    <defs>
     <path id="m513cf40a3c" d="M 0 7.763311 
C 2.058854 7.763311 4.03366 6.945319 5.48949 5.48949 
C 6.945319 4.03366 7.763311 2.058854 7.763311 0 
C 7.763311 -2.058854 6.945319 -4.03366 5.48949 -5.48949 
C 4.03366 -6.945319 2.058854 -7.763311 0 -7.763311 
C -2.058854 -7.763311 -4.03366 -6.945319 -5.48949 -5.48949 
C -6.945319 -4.03366 -7.763311 -2.058854 -7.763311 0 
C -7.763311 2.058854 -6.945319 4.03366 -5.48949 5.48949 
C -4.03366 6.945319 -2.058854 7.763311 0 7.763311 
z
" style="stroke: #000000"/>
    </defs>
    <g clip-path="url(#p89ee76e0a3)">
     <use xlink:href="#m513cf40a3c" x="533.022684" y="158.906147" style="stroke: #000000"/>
    </g>
   </g>
   <g id="line2d_10">
    <defs>
     <path id="m2b004ce638" d="M 0 7.748442 
C 2.054911 7.748442 4.025935 6.932018 5.478976 5.478976 
C 6.932018 4.025935 7.748442 2.054911 7.748442 0 
C 7.748442 -2.054911 6.932018 -4.025935 5.478976 -5.478976 
C 4.025935 -6.932018 2.054911 -7.748442 0 -7.748442 
C -2.054911 -7.748442 -4.025935 -6.932018 -5.478976 -5.478976 
C -6.932018 -4.025935 -7.748442 -2.054911 -7.748442 0 
C -7.748442 2.054911 -6.932018 4.025935 -5.478976 5.478976 
C -4.025935 6.932018 -2.054911 7.748442 0 7.748442 
z
" style="stroke: #000000"/>
    </defs>
    <g clip-path="url(#p89ee76e0a3)">
     <use xlink:href="#m2b004ce638" x="557.986678" y="207.383491" style="stroke: #000000"/>
    </g>
   </g>
  </g>
 </g>
 <defs>
  <clipPath id="p89ee76e0a3">
   <path d="M 161.114654 320.4 
L 161.114654 43.2 
L 576.885346 43.2 
L 576.885346 320.4 
L 161.114654 320.4 
"/>
  </clipPath>
 </defs>
</svg>
