<?xml version="1.0" encoding="utf-8" standalone="no"?>
<!DOCTYPE svg PUBLIC "-//W3C//DTD SVG 1.1//EN"
  "http://www.w3.org/Graphics/SVG/1.1/DTD/svg11.dtd">
<svg xmlns:xlink="http://www.w3.org/1999/xlink" width="720pt" height="360pt" viewBox="0 0 720 360" xmlns="http://www.w3.org/2000/svg" version="1.1">
 <metadata>
  <rdf:RDF xmlns:dc="http://purl.org/dc/elements/1.1/" xmlns:cc="http://creativecommons.org/ns#" xmlns:rdf="http://www.w3.org/1999/02/22-rdf-syntax-ns#">
   <cc:Work>
    <dc:type rdf:resource="http://purl.org/dc/dcmitype/StillImage"/>
    <dc:date>2023-11-30T21:30:50.919210</dc:date>
    <dc:format>image/svg+xml</dc:format>
    <dc:creator>
     <cc:Agent>
      <dc:title>Matplotlib v3.8.1, https://matplotlib.org/</dc:title>
     </cc:Agent>
    </dc:creator>
   </cc:Work>
  </rdf:RDF>
 </metadata>
 <defs>
  <style type="text/css">*{stroke-linejoin: round; stroke-linecap: butt}</style>
 </defs>
 <g id="figure_1">
  <g id="patch_1">
   <path d="M 0 360 
L 720 360 
L 720 0 
L 0 0 
z
" style="fill: #ffffff"/>
  </g>
  <g id="axes_1">
   <g id="patch_2">
    <path d="M 129.164779 320.4 
L 129.164779 43.2 
L 608.835221 43.2 
L 608.835221 320.4 
L 129.164779 320.4 
" style="fill: #ffffff"/>
   </g>
   <g id="line2d_1">
    <defs>
     <path id="m1deae76d4d" d="M 0 11.081654 
C 2.938889 11.081654 5.757804 9.914021 7.835913 7.835913 
C 9.914021 5.757804 11.081654 2.938889 11.081654 0 
C 11.081654 -2.938889 9.914021 -5.757804 7.835913 -7.835913 
C 5.757804 -9.914021 2.938889 -11.081654 0 -11.081654 
C -2.938889 -11.081654 -5.757804 -9.914021 -7.835913 -7.835913 
C -9.914021 -5.757804 -11.081654 -2.938889 -11.081654 0 
C -11.081654 2.938889 -9.914021 5.757804 -7.835913 7.835913 
C -5.757804 9.914021 -2.938889 11.081654 0 11.081654 
z
" style="stroke: #000000"/>
    </defs>
    <g clip-path="url(#pd4cfee1b5f)">
     <use xlink:href="#m1deae76d4d" x="235.228311" y="300.23623" style="stroke: #000000"/>
    </g>
   </g>
   <g id="line2d_2">
    <defs>
     <path id="m434e17a80d" d="M 0 11.002002 
C 2.917765 11.002002 5.716419 9.842762 7.77959 7.77959 
C 9.842762 5.716419 11.002002 2.917765 11.002002 0 
C 11.002002 -2.917765 9.842762 -5.716419 7.77959 -7.77959 
C 5.716419 -9.842762 2.917765 -11.002002 0 -11.002002 
C -2.917765 -11.002002 -5.716419 -9.842762 -7.77959 -7.77959 
C -9.842762 -5.716419 -11.002002 -2.917765 -11.002002 0 
C -11.002002 2.917765 -9.842762 5.716419 -7.77959 7.77959 
C -5.716419 9.842762 -2.917765 11.002002 0 11.002002 
z
" style="stroke: #000000"/>
    </defs>
    <g clip-path="url(#pd4cfee1b5f)">
     <use xlink:href="#m434e17a80d" x="478.065234" y="188.834917" style="stroke: #000000"/>
    </g>
   </g>
   <g id="line2d_3">
    <defs>
     <path id="ma9a33c7181" d="M 0 10.295163 
C 2.730309 10.295163 5.34916 9.2104 7.27978 7.27978 
C 9.2104 5.34916 10.295163 2.730309 10.295163 0 
C 10.295163 -2.730309 9.2104 -5.34916 7.27978 -7.27978 
C 5.34916 -9.2104 2.730309 -10.295163 0 -10.295163 
C -2.730309 -10.295163 -5.34916 -9.2104 -7.27978 -7.27978 
C -9.2104 -5.34916 -10.295163 -2.730309 -10.295163 0 
C -10.295163 2.730309 -9.2104 5.34916 -7.27978 7.27978 
C -5.34916 9.2104 -2.730309 10.295163 0 10.295163 
z
" style="stroke: #000000"/>
    </defs>
    <g clip-path="url(#pd4cfee1b5f)">
     <use xlink:href="#ma9a33c7181" x="255.832814" y="302.421491" style="stroke: #000000"/>
    </g>
   </g>
   <g id="line2d_4">
    <defs>
     <path id="mea9b90583a" d="M 0 10.155041 
C 2.693148 10.155041 5.276355 9.085042 7.180698 7.180698 
C 9.085042 5.276355 10.155041 2.693148 10.155041 0 
C 10.155041 -2.693148 9.085042 -5.276355 7.180698 -7.180698 
C 5.276355 -9.085042 2.693148 -10.155041 0 -10.155041 
C -2.693148 -10.155041 -5.276355 -9.085042 -7.180698 -7.180698 
C -9.085042 -5.276355 -10.155041 -2.693148 -10.155041 0 
C -10.155041 2.693148 -9.085042 5.276355 -7.180698 7.180698 
C -5.276355 9.085042 -2.693148 10.155041 0 10.155041 
z
" style="stroke: #000000"/>
    </defs>
    <g clip-path="url(#pd4cfee1b5f)">
     <use xlink:href="#mea9b90583a" x="249.018463" y="196.556609" style="stroke: #000000"/>
    </g>
   </g>
   <g id="line2d_5">
    <defs>
     <path id="m3b064efdbb" d="M 0 10.128203 
C 2.686031 10.128203 5.262411 9.061032 7.161721 7.161721 
C 9.061032 5.262411 10.128203 2.686031 10.128203 0 
C 10.128203 -2.686031 9.061032 -5.262411 7.161721 -7.161721 
C 5.262411 -9.061032 2.686031 -10.128203 0 -10.128203 
C -2.686031 -10.128203 -5.262411 -9.061032 -7.161721 -7.161721 
C -9.061032 -5.262411 -10.128203 -2.686031 -10.128203 0 
C -10.128203 2.686031 -9.061032 5.262411 -7.161721 7.161721 
C -5.262411 9.061032 -2.686031 10.128203 0 10.128203 
z
" style="stroke: #000000"/>
    </defs>
    <g clip-path="url(#pd4cfee1b5f)">
     <use xlink:href="#m3b064efdbb" x="587.032019" y="126.777423" style="stroke: #000000"/>
    </g>
   </g>
   <g id="line2d_6">
    <defs>
     <path id="m057eea3aa3" d="M 0 9.926272 
C 2.632478 9.926272 5.157491 8.880378 7.018935 7.018935 
C 8.880378 5.157491 9.926272 2.632478 9.926272 0 
C 9.926272 -2.632478 8.880378 -5.157491 7.018935 -7.018935 
C 5.157491 -8.880378 2.632478 -9.926272 0 -9.926272 
C -2.632478 -9.926272 -5.157491 -8.880378 -7.018935 -7.018935 
C -8.880378 -5.157491 -9.926272 -2.632478 -9.926272 0 
C -9.926272 2.632478 -8.880378 5.157491 -7.018935 7.018935 
C -5.157491 8.880378 -2.632478 9.926272 0 9.926272 
z
" style="stroke: #000000"/>
    </defs>
    <g clip-path="url(#pd4cfee1b5f)">
     <use xlink:href="#m057eea3aa3" x="248.101654" y="195.712581" style="stroke: #000000"/>
    </g>
   </g>
   <g id="line2d_7">
    <defs>
     <path id="mafbf8d0bb4" d="M 0 9.753783 
C 2.586734 9.753783 5.067869 8.726063 6.896966 6.896966 
C 8.726063 5.067869 9.753783 2.586734 9.753783 0 
C 9.753783 -2.586734 8.726063 -5.067869 6.896966 -6.896966 
C 5.067869 -8.726063 2.586734 -9.753783 0 -9.753783 
C -2.586734 -9.753783 -5.067869 -8.726063 -6.896966 -6.896966 
C -8.726063 -5.067869 -9.753783 -2.586734 -9.753783 0 
C -9.753783 2.586734 -8.726063 5.067869 -6.896966 6.896966 
C -5.067869 8.726063 -2.586734 9.753783 0 9.753783 
z
" style="stroke: #000000"/>
    </defs>
    <g clip-path="url(#pd4cfee1b5f)">
     <use xlink:href="#mafbf8d0bb4" x="389.546337" y="130.656786" style="stroke: #000000"/>
    </g>
   </g>
   <g id="line2d_8">
    <defs>
     <path id="ma45a00e6b2" d="M 0 9.696752 
C 2.571609 9.696752 5.038237 8.675041 6.856639 6.856639 
C 8.675041 5.038237 9.696752 2.571609 9.696752 0 
C 9.696752 -2.571609 8.675041 -5.038237 6.856639 -6.856639 
C 5.038237 -8.675041 2.571609 -9.696752 0 -9.696752 
C -2.571609 -9.696752 -5.038237 -8.675041 -6.856639 -6.856639 
C -8.675041 -5.038237 -9.696752 -2.571609 -9.696752 0 
C -9.696752 2.571609 -8.675041 5.038237 -6.856639 6.856639 
C -5.038237 8.675041 -2.571609 9.696752 0 9.696752 
z
" style="stroke: #000000"/>
    </defs>
    <g clip-path="url(#pd4cfee1b5f)">
     <use xlink:href="#ma45a00e6b2" x="274.852157" y="307.8" style="stroke: #000000"/>
    </g>
   </g>
   <g id="line2d_9">
    <defs>
     <path id="mdc664c261d" d="M 0 9.673665 
C 2.565486 9.673665 5.026241 8.654386 6.840314 6.840314 
C 8.654386 5.026241 9.673665 2.565486 9.673665 0 
C 9.673665 -2.565486 8.654386 -5.026241 6.840314 -6.840314 
C 5.026241 -8.654386 2.565486 -9.673665 0 -9.673665 
C -2.565486 -9.673665 -5.026241 -8.654386 -6.840314 -6.840314 
C -8.654386 -5.026241 -9.673665 -2.565486 -9.673665 0 
C -9.673665 2.565486 -8.654386 5.026241 -6.840314 6.840314 
C -5.026241 8.654386 -2.565486 9.673665 0 9.673665 
z
" style="stroke: #000000"/>
    </defs>
    <g clip-path="url(#pd4cfee1b5f)">
     <use xlink:href="#mdc664c261d" x="150.967981" y="55.8" style="stroke: #000000"/>
    </g>
   </g>
   <g id="line2d_10">
    <defs>
     <path id="mdc2358e4a9" d="M 0 9.604397 
C 2.547116 9.604397 4.990251 8.592417 6.791334 6.791334 
C 8.592417 4.990251 9.604397 2.547116 9.604397 0 
C 9.604397 -2.547116 8.592417 -4.990251 6.791334 -6.791334 
C 4.990251 -8.592417 2.547116 -9.604397 0 -9.604397 
C -2.547116 -9.604397 -4.990251 -8.592417 -6.791334 -6.791334 
C -8.592417 -4.990251 -9.604397 -2.547116 -9.604397 0 
C -9.604397 2.547116 -8.592417 4.990251 -6.791334 6.791334 
C -4.990251 8.592417 -2.547116 9.604397 0 9.604397 
z
" style="stroke: #000000"/>
    </defs>
    <g clip-path="url(#pd4cfee1b5f)">
     <use xlink:href="#mdc2358e4a9" x="315.93613" y="87.663086" style="stroke: #000000"/>
    </g>
   </g>
  </g>
 </g>
 <defs>
  <clipPath id="pd4cfee1b5f">
   <path d="M 129.164779 320.4 
L 129.164779 43.2 
L 608.835221 43.2 
L 608.835221 320.4 
L 129.164779 320.4 
"/>
  </clipPath>
 </defs>
</svg>
