<?xml version="1.0" encoding="utf-8" standalone="no"?>
<!DOCTYPE svg PUBLIC "-//W3C//DTD SVG 1.1//EN"
  "http://www.w3.org/Graphics/SVG/1.1/DTD/svg11.dtd">
<svg xmlns:xlink="http://www.w3.org/1999/xlink" width="720pt" height="360pt" viewBox="0 0 720 360" xmlns="http://www.w3.org/2000/svg" version="1.1">
 <metadata>
  <rdf:RDF xmlns:dc="http://purl.org/dc/elements/1.1/" xmlns:cc="http://creativecommons.org/ns#" xmlns:rdf="http://www.w3.org/1999/02/22-rdf-syntax-ns#">
   <cc:Work>
    <dc:type rdf:resource="http://purl.org/dc/dcmitype/StillImage"/>
    <dc:date>2023-11-30T21:30:50.961576</dc:date>
    <dc:format>image/svg+xml</dc:format>
    <dc:creator>
     <cc:Agent>
      <dc:title>Matplotlib v3.8.1, https://matplotlib.org/</dc:title>
     </cc:Agent>
    </dc:creator>
   </cc:Work>
  </rdf:RDF>
 </metadata>
 <defs>
  <style type="text/css">*{stroke-linejoin: round; stroke-linecap: butt}</style>
 </defs>
 <g id="figure_1">
  <g id="patch_1">
   <path d="M 0 360 
L 720 360 
L 720 0 
L 0 0 
z
" style="fill: #ffffff"/>
  </g>
  <g id="axes_1">
   <g id="patch_2">
    <path d="M 165.960699 320.4 
L 165.960699 43.2 
L 572.039301 43.2 
L 572.039301 320.4 
L 165.960699 320.4 
" style="fill: #ffffff"/>
   </g>
   <g id="line2d_1">
    <defs>
     <path id="m5bcda170f3" d="M 0 10.456582 
C 2.773118 10.456582 5.43303 9.354811 7.39392 7.39392 
C 9.354811 5.43303 10.456582 2.773118 10.456582 0 
C 10.456582 -2.773118 9.354811 -5.43303 7.39392 -7.39392 
C 5.43303 -9.354811 2.773118 -10.456582 0 -10.456582 
C -2.773118 -10.456582 -5.43303 -9.354811 -7.39392 -7.39392 
C -9.354811 -5.43303 -10.456582 -2.773118 -10.456582 0 
C -10.456582 2.773118 -9.354811 5.43303 -7.39392 7.39392 
C -5.43303 9.354811 -2.773118 10.456582 0 10.456582 
z
" style="stroke: #000000"/>
    </defs>
    <g clip-path="url(#p6b6080fbdd)">
     <use xlink:href="#m5bcda170f3" x="413.405872" y="182.68997" style="stroke: #000000"/>
    </g>
   </g>
   <g id="line2d_2">
    <defs>
     <path id="mcae8a7f0c3" d="M 0 10.097302 
C 2.677836 10.097302 5.246355 9.033387 7.139871 7.139871 
C 9.033387 5.246355 10.097302 2.677836 10.097302 0 
C 10.097302 -2.677836 9.033387 -5.246355 7.139871 -7.139871 
C 5.246355 -9.033387 2.677836 -10.097302 0 -10.097302 
C -2.677836 -10.097302 -5.246355 -9.033387 -7.139871 -7.139871 
C -9.033387 -5.246355 -10.097302 -2.677836 -10.097302 0 
C -10.097302 2.677836 -9.033387 5.246355 -7.139871 7.139871 
C -5.246355 9.033387 -2.677836 10.097302 0 10.097302 
z
" style="stroke: #000000"/>
    </defs>
    <g clip-path="url(#p6b6080fbdd)">
     <use xlink:href="#mcae8a7f0c3" x="411.769506" y="179.825777" style="stroke: #000000"/>
    </g>
   </g>
   <g id="line2d_3">
    <defs>
     <path id="m91a6a1e484" d="M 0 9.554883 
C 2.533985 9.554883 4.964525 8.548121 6.756323 6.756323 
C 8.548121 4.964525 9.554883 2.533985 9.554883 0 
C 9.554883 -2.533985 8.548121 -4.964525 6.756323 -6.756323 
C 4.964525 -8.548121 2.533985 -9.554883 0 -9.554883 
C -2.533985 -9.554883 -4.964525 -8.548121 -6.756323 -6.756323 
C -8.548121 -4.964525 -9.554883 -2.533985 -9.554883 0 
C -9.554883 2.533985 -8.548121 4.964525 -6.756323 6.756323 
C -4.964525 8.548121 -2.533985 9.554883 0 9.554883 
z
" style="stroke: #000000"/>
    </defs>
    <g clip-path="url(#p6b6080fbdd)">
     <use xlink:href="#m91a6a1e484" x="184.418817" y="289.971449" style="stroke: #000000"/>
    </g>
   </g>
   <g id="line2d_4">
    <defs>
     <path id="mb9b89e7ec9" d="M 0 9.450808 
C 2.506383 9.450808 4.910449 8.455011 6.68273 6.68273 
C 8.455011 4.910449 9.450808 2.506383 9.450808 0 
C 9.450808 -2.506383 8.455011 -4.910449 6.68273 -6.68273 
C 4.910449 -8.455011 2.506383 -9.450808 0 -9.450808 
C -2.506383 -9.450808 -4.910449 -8.455011 -6.68273 -6.68273 
C -8.455011 -4.910449 -9.450808 -2.506383 -9.450808 0 
C -9.450808 2.506383 -8.455011 4.910449 -6.68273 6.68273 
C -4.910449 8.455011 -2.506383 9.450808 0 9.450808 
z
" style="stroke: #000000"/>
    </defs>
    <g clip-path="url(#p6b6080fbdd)">
     <use xlink:href="#mb9b89e7ec9" x="553.581183" y="55.8" style="stroke: #000000"/>
    </g>
   </g>
   <g id="line2d_5">
    <defs>
     <path id="mff9039271a" d="M 0 9.307481 
C 2.468373 9.307481 4.83598 8.326786 6.581383 6.581383 
C 8.326786 4.83598 9.307481 2.468373 9.307481 0 
C 9.307481 -2.468373 8.326786 -4.83598 6.581383 -6.581383 
C 4.83598 -8.326786 2.468373 -9.307481 0 -9.307481 
C -2.468373 -9.307481 -4.83598 -8.326786 -6.581383 -6.581383 
C -8.326786 -4.83598 -9.307481 -2.468373 -9.307481 0 
C -9.307481 2.468373 -8.326786 4.83598 -6.581383 6.581383 
C -4.83598 8.326786 -2.468373 9.307481 0 9.307481 
z
" style="stroke: #000000"/>
    </defs>
    <g clip-path="url(#p6b6080fbdd)">
     <use xlink:href="#mff9039271a" x="529.147621" y="185.80032" style="stroke: #000000"/>
    </g>
   </g>
   <g id="line2d_6">
    <defs>
     <path id="m3945597a7d" d="M 0 9.292657 
C 2.464442 9.292657 4.828278 8.313524 6.570901 6.570901 
C 8.313524 4.828278 9.292657 2.464442 9.292657 0 
C 9.292657 -2.464442 8.313524 -4.828278 6.570901 -6.570901 
C 4.828278 -8.313524 2.464442 -9.292657 0 -9.292657 
C -2.464442 -9.292657 -4.828278 -8.313524 -6.570901 -6.570901 
C -8.313524 -4.828278 -9.292657 -2.464442 -9.292657 0 
C -9.292657 2.464442 -8.313524 4.828278 -6.570901 6.570901 
C -4.828278 8.313524 -2.464442 9.292657 0 9.292657 
z
" style="stroke: #000000"/>
    </defs>
    <g clip-path="url(#p6b6080fbdd)">
     <use xlink:href="#m3945597a7d" x="344.105126" y="255.376015" style="stroke: #000000"/>
    </g>
   </g>
   <g id="line2d_7">
    <defs>
     <path id="m58d416a8b0" d="M 0 9.236682 
C 2.449597 9.236682 4.799194 8.263447 6.531321 6.531321 
C 8.263447 4.799194 9.236682 2.449597 9.236682 0 
C 9.236682 -2.449597 8.263447 -4.799194 6.531321 -6.531321 
C 4.799194 -8.263447 2.449597 -9.236682 0 -9.236682 
C -2.449597 -9.236682 -4.799194 -8.263447 -6.531321 -6.531321 
C -8.263447 -4.799194 -9.236682 -2.449597 -9.236682 0 
C -9.236682 2.449597 -8.263447 4.799194 -6.531321 6.531321 
C -4.799194 8.263447 -2.449597 9.236682 0 9.236682 
z
" style="stroke: #000000"/>
    </defs>
    <g clip-path="url(#p6b6080fbdd)">
     <use xlink:href="#m58d416a8b0" x="498.726422" y="229.347127" style="stroke: #000000"/>
    </g>
   </g>
   <g id="line2d_8">
    <defs>
     <path id="m795be02799" d="M 0 9.198263 
C 2.439408 9.198263 4.779232 8.229076 6.504154 6.504154 
C 8.229076 4.779232 9.198263 2.439408 9.198263 0 
C 9.198263 -2.439408 8.229076 -4.779232 6.504154 -6.504154 
C 4.779232 -8.229076 2.439408 -9.198263 0 -9.198263 
C -2.439408 -9.198263 -4.779232 -8.229076 -6.504154 -6.504154 
C -8.229076 -4.779232 -9.198263 -2.439408 -9.198263 0 
C -9.198263 2.439408 -8.229076 4.779232 -6.504154 6.504154 
C -4.779232 8.229076 -2.439408 9.198263 0 9.198263 
z
" style="stroke: #000000"/>
    </defs>
    <g clip-path="url(#p6b6080fbdd)">
     <use xlink:href="#m795be02799" x="417.328002" y="256.026821" style="stroke: #000000"/>
    </g>
   </g>
   <g id="line2d_9">
    <defs>
     <path id="mf59326976f" d="M 0 9.171964 
C 2.432433 9.171964 4.765568 8.205548 6.485558 6.485558 
C 8.205548 4.765568 9.171964 2.432433 9.171964 0 
C 9.171964 -2.432433 8.205548 -4.765568 6.485558 -6.485558 
C 4.765568 -8.205548 2.432433 -9.171964 0 -9.171964 
C -2.432433 -9.171964 -4.765568 -8.205548 -6.485558 -6.485558 
C -8.205548 -4.765568 -9.171964 -2.432433 -9.171964 0 
C -9.171964 2.432433 -8.205548 4.765568 -6.485558 6.485558 
C -4.765568 8.205548 -2.432433 9.171964 0 9.171964 
z
" style="stroke: #000000"/>
    </defs>
    <g clip-path="url(#p6b6080fbdd)">
     <use xlink:href="#mf59326976f" x="442.957415" y="218.111431" style="stroke: #000000"/>
    </g>
   </g>
   <g id="line2d_10">
    <defs>
     <path id="meeaad8f09e" d="M 0 9.007095 
C 2.388709 9.007095 4.679905 8.05805 6.368978 6.368978 
C 8.05805 4.679905 9.007095 2.388709 9.007095 0 
C 9.007095 -2.388709 8.05805 -4.679905 6.368978 -6.368978 
C 4.679905 -8.05805 2.388709 -9.007095 0 -9.007095 
C -2.388709 -9.007095 -4.679905 -8.05805 -6.368978 -6.368978 
C -8.05805 -4.679905 -9.007095 -2.388709 -9.007095 0 
C -9.007095 2.388709 -8.05805 4.679905 -6.368978 6.368978 
C -4.679905 8.05805 -2.388709 9.007095 0 9.007095 
z
" style="stroke: #000000"/>
    </defs>
    <g clip-path="url(#p6b6080fbdd)">
     <use xlink:href="#meeaad8f09e" x="221.681151" y="307.8" style="stroke: #000000"/>
    </g>
   </g>
  </g>
 </g>
 <defs>
  <clipPath id="p6b6080fbdd">
   <path d="M 165.960699 320.4 
L 165.960699 43.2 
L 572.039301 43.2 
L 572.039301 320.4 
L 165.960699 320.4 
"/>
  </clipPath>
 </defs>
</svg>
