<?xml version="1.0" encoding="utf-8" standalone="no"?>
<!DOCTYPE svg PUBLIC "-//W3C//DTD SVG 1.1//EN"
  "http://www.w3.org/Graphics/SVG/1.1/DTD/svg11.dtd">
<svg xmlns:xlink="http://www.w3.org/1999/xlink" width="720pt" height="360pt" viewBox="0 0 720 360" xmlns="http://www.w3.org/2000/svg" version="1.1">
 <metadata>
  <rdf:RDF xmlns:dc="http://purl.org/dc/elements/1.1/" xmlns:cc="http://creativecommons.org/ns#" xmlns:rdf="http://www.w3.org/1999/02/22-rdf-syntax-ns#">
   <cc:Work>
    <dc:type rdf:resource="http://purl.org/dc/dcmitype/StillImage"/>
    <dc:date>2023-11-30T21:30:51.003416</dc:date>
    <dc:format>image/svg+xml</dc:format>
    <dc:creator>
     <cc:Agent>
      <dc:title>Matplotlib v3.8.1, https://matplotlib.org/</dc:title>
     </cc:Agent>
    </dc:creator>
   </cc:Work>
  </rdf:RDF>
 </metadata>
 <defs>
  <style type="text/css">*{stroke-linejoin: round; stroke-linecap: butt}</style>
 </defs>
 <g id="figure_1">
  <g id="patch_1">
   <path d="M 0 360 
L 720 360 
L 720 0 
L 0 0 
z
" style="fill: #ffffff"/>
  </g>
  <g id="axes_1">
   <g id="patch_2">
    <path d="M 298.808198 320.4 
L 298.808198 43.2 
L 439.191802 43.2 
L 439.191802 320.4 
L 298.808198 320.4 
" style="fill: #ffffff"/>
   </g>
   <g id="line2d_1">
    <defs>
     <path id="m505b0775da" d="M 0 10.265452 
C 2.72243 10.265452 5.333722 9.183819 7.258771 7.258771 
C 9.183819 5.333722 10.265452 2.72243 10.265452 0 
C 10.265452 -2.72243 9.183819 -5.333722 7.258771 -7.258771 
C 5.333722 -9.183819 2.72243 -10.265452 0 -10.265452 
C -2.72243 -10.265452 -5.333722 -9.183819 -7.258771 -7.258771 
C -9.183819 -5.333722 -10.265452 -2.72243 -10.265452 0 
C -10.265452 2.72243 -9.183819 5.333722 -7.258771 7.258771 
C -5.333722 9.183819 -2.72243 10.265452 0 10.265452 
z
" style="stroke: #000000"/>
    </defs>
    <g clip-path="url(#pb81d25810a)">
     <use xlink:href="#m505b0775da" x="399.092864" y="201.342842" style="stroke: #000000"/>
    </g>
   </g>
   <g id="line2d_2">
    <defs>
     <path id="m86bc532b9f" d="M 0 9.582176 
C 2.541223 9.582176 4.978706 8.572538 6.775622 6.775622 
C 8.572538 4.978706 9.582176 2.541223 9.582176 0 
C 9.582176 -2.541223 8.572538 -4.978706 6.775622 -6.775622 
C 4.978706 -8.572538 2.541223 -9.582176 0 -9.582176 
C -2.541223 -9.582176 -4.978706 -8.572538 -6.775622 -6.775622 
C -8.572538 -4.978706 -9.582176 -2.541223 -9.582176 0 
C -9.582176 2.541223 -8.572538 4.978706 -6.775622 6.775622 
C -4.978706 8.572538 -2.541223 9.582176 0 9.582176 
z
" style="stroke: #000000"/>
    </defs>
    <g clip-path="url(#pb81d25810a)">
     <use xlink:href="#m86bc532b9f" x="305.189271" y="249.069499" style="stroke: #000000"/>
    </g>
   </g>
   <g id="line2d_3">
    <defs>
     <path id="m892a3dc0c7" d="M 0 9.212095 
C 2.443076 9.212095 4.786419 8.241451 6.513935 6.513935 
C 8.241451 4.786419 9.212095 2.443076 9.212095 0 
C 9.212095 -2.443076 8.241451 -4.786419 6.513935 -6.513935 
C 4.786419 -8.241451 2.443076 -9.212095 0 -9.212095 
C -2.443076 -9.212095 -4.786419 -8.241451 -6.513935 -6.513935 
C -8.241451 -4.786419 -9.212095 -2.443076 -9.212095 0 
C -9.212095 2.443076 -8.241451 4.786419 -6.513935 6.513935 
C -4.786419 8.241451 -2.443076 9.212095 0 9.212095 
z
" style="stroke: #000000"/>
    </defs>
    <g clip-path="url(#pb81d25810a)">
     <use xlink:href="#m892a3dc0c7" x="321.100768" y="307.8" style="stroke: #000000"/>
    </g>
   </g>
   <g id="line2d_4">
    <defs>
     <path id="m8aed21c057" d="M 0 8.717001 
C 2.311776 8.717001 4.529178 7.798522 6.16385 6.16385 
C 7.798522 4.529178 8.717001 2.311776 8.717001 0 
C 8.717001 -2.311776 7.798522 -4.529178 6.16385 -6.16385 
C 4.529178 -7.798522 2.311776 -8.717001 0 -8.717001 
C -2.311776 -8.717001 -4.529178 -7.798522 -6.16385 -6.16385 
C -7.798522 -4.529178 -8.717001 -2.311776 -8.717001 0 
C -8.717001 2.311776 -7.798522 4.529178 -6.16385 6.16385 
C -4.529178 7.798522 -2.311776 8.717001 0 8.717001 
z
" style="stroke: #000000"/>
    </defs>
    <g clip-path="url(#pb81d25810a)">
     <use xlink:href="#m8aed21c057" x="392.478284" y="185.272017" style="stroke: #000000"/>
    </g>
   </g>
   <g id="line2d_5">
    <defs>
     <path id="ma0df41529c" d="M 0 8.673335 
C 2.300195 8.673335 4.50649 7.759458 6.132974 6.132974 
C 7.759458 4.50649 8.673335 2.300195 8.673335 0 
C 8.673335 -2.300195 7.759458 -4.50649 6.132974 -6.132974 
C 4.50649 -7.759458 2.300195 -8.673335 0 -8.673335 
C -2.300195 -8.673335 -4.50649 -7.759458 -6.132974 -6.132974 
C -7.759458 -4.50649 -8.673335 -2.300195 -8.673335 0 
C -8.673335 2.300195 -7.759458 4.50649 -6.132974 6.132974 
C -4.50649 7.759458 -2.300195 8.673335 0 8.673335 
z
" style="stroke: #000000"/>
    </defs>
    <g clip-path="url(#pb81d25810a)">
     <use xlink:href="#ma0df41529c" x="361.433367" y="228.637609" style="stroke: #000000"/>
    </g>
   </g>
   <g id="line2d_6">
    <defs>
     <path id="mde841a6c96" d="M 0 8.625547 
C 2.287522 8.625547 4.481661 7.716705 6.099183 6.099183 
C 7.716705 4.481661 8.625547 2.287522 8.625547 0 
C 8.625547 -2.287522 7.716705 -4.481661 6.099183 -6.099183 
C 4.481661 -7.716705 2.287522 -8.625547 0 -8.625547 
C -2.287522 -8.625547 -4.481661 -7.716705 -6.099183 -6.099183 
C -7.716705 -4.481661 -8.625547 -2.287522 -8.625547 0 
C -8.625547 2.287522 -7.716705 4.481661 -6.099183 6.099183 
C -4.481661 7.716705 -2.287522 8.625547 0 8.625547 
z
" style="stroke: #000000"/>
    </defs>
    <g clip-path="url(#pb81d25810a)">
     <use xlink:href="#mde841a6c96" x="355.047316" y="203.005698" style="stroke: #000000"/>
    </g>
   </g>
   <g id="line2d_7">
    <defs>
     <path id="m124ded1e7b" d="M 0 8.545506 
C 2.266295 8.545506 4.440073 7.645097 6.042585 6.042585 
C 7.645097 4.440073 8.545506 2.266295 8.545506 0 
C 8.545506 -2.266295 7.645097 -4.440073 6.042585 -6.042585 
C 4.440073 -7.645097 2.266295 -8.545506 0 -8.545506 
C -2.266295 -8.545506 -4.440073 -7.645097 -6.042585 -6.042585 
C -7.645097 -4.440073 -8.545506 -2.266295 -8.545506 0 
C -8.545506 2.266295 -7.645097 4.440073 -6.042585 6.042585 
C -4.440073 7.645097 -2.266295 8.545506 0 8.545506 
z
" style="stroke: #000000"/>
    </defs>
    <g clip-path="url(#pb81d25810a)">
     <use xlink:href="#m124ded1e7b" x="397.280326" y="198.367256" style="stroke: #000000"/>
    </g>
   </g>
   <g id="line2d_8">
    <defs>
     <path id="mb5edfca584" d="M 0 8.495323 
C 2.252986 8.495323 4.413999 7.600203 6.007101 6.007101 
C 7.600203 4.413999 8.495323 2.252986 8.495323 0 
C 8.495323 -2.252986 7.600203 -4.413999 6.007101 -6.007101 
C 4.413999 -7.600203 2.252986 -8.495323 0 -8.495323 
C -2.252986 -8.495323 -4.413999 -7.600203 -6.007101 -6.007101 
C -7.600203 -4.413999 -8.495323 -2.252986 -8.495323 0 
C -8.495323 2.252986 -7.600203 4.413999 -6.007101 6.007101 
C -4.413999 7.600203 -2.252986 8.495323 0 8.495323 
z
" style="stroke: #000000"/>
    </defs>
    <g clip-path="url(#pb81d25810a)">
     <use xlink:href="#mb5edfca584" x="432.810729" y="55.8" style="stroke: #000000"/>
    </g>
   </g>
   <g id="line2d_9">
    <defs>
     <path id="me0c9697b63" d="M 0 8.481764 
C 2.24939 8.481764 4.406954 7.588072 5.997513 5.997513 
C 7.588072 4.406954 8.481764 2.24939 8.481764 0 
C 8.481764 -2.24939 7.588072 -4.406954 5.997513 -5.997513 
C 4.406954 -7.588072 2.24939 -8.481764 0 -8.481764 
C -2.24939 -8.481764 -4.406954 -7.588072 -5.997513 -5.997513 
C -7.588072 -4.406954 -8.481764 -2.24939 -8.481764 0 
C -8.481764 2.24939 -7.588072 4.406954 -5.997513 5.997513 
C -4.406954 7.588072 -2.24939 8.481764 0 8.481764 
z
" style="stroke: #000000"/>
    </defs>
    <g clip-path="url(#pb81d25810a)">
     <use xlink:href="#me0c9697b63" x="375.763625" y="192.669046" style="stroke: #000000"/>
    </g>
   </g>
   <g id="line2d_10">
    <defs>
     <path id="m5467f7a2ea" d="M 0 8.479072 
C 2.248676 8.479072 4.405555 7.585664 5.99561 5.99561 
C 7.585664 4.405555 8.479072 2.248676 8.479072 0 
C 8.479072 -2.248676 7.585664 -4.405555 5.99561 -5.99561 
C 4.405555 -7.585664 2.248676 -8.479072 0 -8.479072 
C -2.248676 -8.479072 -4.405555 -7.585664 -5.99561 -5.99561 
C -7.585664 -4.405555 -8.479072 -2.248676 -8.479072 0 
C -8.479072 2.248676 -7.585664 4.405555 -5.99561 5.99561 
C -4.405555 7.585664 -2.248676 8.479072 0 8.479072 
z
" style="stroke: #000000"/>
    </defs>
    <g clip-path="url(#pb81d25810a)">
     <use xlink:href="#m5467f7a2ea" x="399.201512" y="201.842646" style="stroke: #000000"/>
    </g>
   </g>
  </g>
 </g>
 <defs>
  <clipPath id="pb81d25810a">
   <path d="M 298.808198 320.4 
L 298.808198 43.2 
L 439.191802 43.2 
L 439.191802 320.4 
L 298.808198 320.4 
"/>
  </clipPath>
 </defs>
</svg>
