<?xml version="1.0" encoding="utf-8" standalone="no"?>
<!DOCTYPE svg PUBLIC "-//W3C//DTD SVG 1.1//EN"
  "http://www.w3.org/Graphics/SVG/1.1/DTD/svg11.dtd">
<svg xmlns:xlink="http://www.w3.org/1999/xlink" width="720pt" height="360pt" viewBox="0 0 720 360" xmlns="http://www.w3.org/2000/svg" version="1.1">
 <metadata>
  <rdf:RDF xmlns:dc="http://purl.org/dc/elements/1.1/" xmlns:cc="http://creativecommons.org/ns#" xmlns:rdf="http://www.w3.org/1999/02/22-rdf-syntax-ns#">
   <cc:Work>
    <dc:type rdf:resource="http://purl.org/dc/dcmitype/StillImage"/>
    <dc:date>2023-11-30T21:30:51.045677</dc:date>
    <dc:format>image/svg+xml</dc:format>
    <dc:creator>
     <cc:Agent>
      <dc:title>Matplotlib v3.8.1, https://matplotlib.org/</dc:title>
     </cc:Agent>
    </dc:creator>
   </cc:Work>
  </rdf:RDF>
 </metadata>
 <defs>
  <style type="text/css">*{stroke-linejoin: round; stroke-linecap: butt}</style>
 </defs>
 <g id="figure_1">
  <g id="patch_1">
   <path d="M 0 360 
L 720 360 
L 720 0 
L 0 0 
z
" style="fill: #ffffff"/>
  </g>
  <g id="axes_1">
   <g id="patch_2">
    <path d="M 164.014496 320.4 
L 164.014496 43.2 
L 573.985504 43.2 
L 573.985504 320.4 
L 164.014496 320.4 
" style="fill: #ffffff"/>
   </g>
   <g id="line2d_1">
    <defs>
     <path id="m049ac279c9" d="M 0 9.027209 
C 2.394044 9.027209 4.690356 8.076046 6.383201 6.383201 
C 8.076046 4.690356 9.027209 2.394044 9.027209 0 
C 9.027209 -2.394044 8.076046 -4.690356 6.383201 -6.383201 
C 4.690356 -8.076046 2.394044 -9.027209 0 -9.027209 
C -2.394044 -9.027209 -4.690356 -8.076046 -6.383201 -6.383201 
C -8.076046 -4.690356 -9.027209 -2.394044 -9.027209 0 
C -9.027209 2.394044 -8.076046 4.690356 -6.383201 6.383201 
C -4.690356 8.076046 -2.394044 9.027209 0 9.027209 
z
" style="stroke: #000000"/>
    </defs>
    <g clip-path="url(#pc2e2ca8316)">
     <use xlink:href="#m049ac279c9" x="317.696476" y="182.315989" style="stroke: #000000"/>
    </g>
   </g>
   <g id="line2d_2">
    <defs>
     <path id="m8c2982d664" d="M 0 8.282997 
C 2.196677 8.282997 4.303679 7.410248 5.856964 5.856964 
C 7.410248 4.303679 8.282997 2.196677 8.282997 0 
C 8.282997 -2.196677 7.410248 -4.303679 5.856964 -5.856964 
C 4.303679 -7.410248 2.196677 -8.282997 0 -8.282997 
C -2.196677 -8.282997 -4.303679 -7.410248 -5.856964 -5.856964 
C -7.410248 -4.303679 -8.282997 -2.196677 -8.282997 0 
C -8.282997 2.196677 -7.410248 4.303679 -5.856964 5.856964 
C -4.303679 7.410248 -2.196677 8.282997 0 8.282997 
z
" style="stroke: #000000"/>
    </defs>
    <g clip-path="url(#pc2e2ca8316)">
     <use xlink:href="#m8c2982d664" x="516.437567" y="55.8" style="stroke: #000000"/>
    </g>
   </g>
   <g id="line2d_3">
    <defs>
     <path id="m1de245a7d0" d="M 0 7.605754 
C 2.01707 7.605754 3.951797 6.804364 5.37808 5.37808 
C 6.804364 3.951797 7.605754 2.01707 7.605754 0 
C 7.605754 -2.01707 6.804364 -3.951797 5.37808 -5.37808 
C 3.951797 -6.804364 2.01707 -7.605754 0 -7.605754 
C -2.01707 -7.605754 -3.951797 -6.804364 -5.37808 -5.37808 
C -6.804364 -3.951797 -7.605754 -2.01707 -7.605754 0 
C -7.605754 2.01707 -6.804364 3.951797 -5.37808 5.37808 
C -3.951797 6.804364 -2.01707 7.605754 0 7.605754 
z
" style="stroke: #000000"/>
    </defs>
    <g clip-path="url(#pc2e2ca8316)">
     <use xlink:href="#m1de245a7d0" x="291.665178" y="135.279332" style="stroke: #000000"/>
    </g>
   </g>
   <g id="line2d_4">
    <defs>
     <path id="md479561b8d" d="M 0 7.604441 
C 2.016721 7.604441 3.951114 6.803189 5.377152 5.377152 
C 6.803189 3.951114 7.604441 2.016721 7.604441 0 
C 7.604441 -2.016721 6.803189 -3.951114 5.377152 -5.377152 
C 3.951114 -6.803189 2.016721 -7.604441 0 -7.604441 
C -2.016721 -7.604441 -3.951114 -6.803189 -5.377152 -5.377152 
C -6.803189 -3.951114 -7.604441 -2.016721 -7.604441 0 
C -7.604441 2.016721 -6.803189 3.951114 -5.377152 5.377152 
C -3.951114 6.803189 -2.016721 7.604441 0 7.604441 
z
" style="stroke: #000000"/>
    </defs>
    <g clip-path="url(#pc2e2ca8316)">
     <use xlink:href="#md479561b8d" x="449.19527" y="137.273885" style="stroke: #000000"/>
    </g>
   </g>
   <g id="line2d_5">
    <defs>
     <path id="mc094192345" d="M 0 7.326254 
C 1.942945 7.326254 3.806574 6.554314 5.180444 5.180444 
C 6.554314 3.806574 7.326254 1.942945 7.326254 0 
C 7.326254 -1.942945 6.554314 -3.806574 5.180444 -5.180444 
C 3.806574 -6.554314 1.942945 -7.326254 0 -7.326254 
C -1.942945 -7.326254 -3.806574 -6.554314 -5.180444 -5.180444 
C -6.554314 -3.806574 -7.326254 -1.942945 -7.326254 0 
C -7.326254 1.942945 -6.554314 3.806574 -5.180444 5.180444 
C -3.806574 6.554314 -1.942945 7.326254 0 7.326254 
z
" style="stroke: #000000"/>
    </defs>
    <g clip-path="url(#pc2e2ca8316)">
     <use xlink:href="#mc094192345" x="182.649542" y="307.8" style="stroke: #000000"/>
    </g>
   </g>
   <g id="line2d_6">
    <defs>
     <path id="m37b6bf42e7" d="M 0 7.285165 
C 1.932048 7.285165 3.785225 6.517554 5.15139 5.15139 
C 6.517554 3.785225 7.285165 1.932048 7.285165 0 
C 7.285165 -1.932048 6.517554 -3.785225 5.15139 -5.15139 
C 3.785225 -6.517554 1.932048 -7.285165 0 -7.285165 
C -1.932048 -7.285165 -3.785225 -6.517554 -5.15139 -5.15139 
C -6.517554 -3.785225 -7.285165 -1.932048 -7.285165 0 
C -7.285165 1.932048 -6.517554 3.785225 -5.15139 5.15139 
C -3.785225 6.517554 -1.932048 7.285165 0 7.285165 
z
" style="stroke: #000000"/>
    </defs>
    <g clip-path="url(#pc2e2ca8316)">
     <use xlink:href="#m37b6bf42e7" x="423.052549" y="105.062034" style="stroke: #000000"/>
    </g>
   </g>
   <g id="line2d_7">
    <defs>
     <path id="m8016898a32" d="M 0 7.280883 
C 1.930913 7.280883 3.783 6.513723 5.148361 5.148361 
C 6.513723 3.783 7.280883 1.930913 7.280883 0 
C 7.280883 -1.930913 6.513723 -3.783 5.148361 -5.148361 
C 3.783 -6.513723 1.930913 -7.280883 0 -7.280883 
C -1.930913 -7.280883 -3.783 -6.513723 -5.148361 -5.148361 
C -6.513723 -3.783 -7.280883 -1.930913 -7.280883 0 
C -7.280883 1.930913 -6.513723 3.783 -5.148361 5.148361 
C -3.783 6.513723 -1.930913 7.280883 0 7.280883 
z
" style="stroke: #000000"/>
    </defs>
    <g clip-path="url(#pc2e2ca8316)">
     <use xlink:href="#m8016898a32" x="433.251274" y="243.966219" style="stroke: #000000"/>
    </g>
   </g>
   <g id="line2d_8">
    <defs>
     <path id="m56f7657703" d="M 0 7.074437 
C 1.876163 7.074437 3.675735 6.32903 5.002382 5.002382 
C 6.32903 3.675735 7.074437 1.876163 7.074437 0 
C 7.074437 -1.876163 6.32903 -3.675735 5.002382 -5.002382 
C 3.675735 -6.32903 1.876163 -7.074437 0 -7.074437 
C -1.876163 -7.074437 -3.675735 -6.32903 -5.002382 -5.002382 
C -6.32903 -3.675735 -7.074437 -1.876163 -7.074437 0 
C -7.074437 1.876163 -6.32903 3.675735 -5.002382 5.002382 
C -3.675735 6.32903 -1.876163 7.074437 0 7.074437 
z
" style="stroke: #000000"/>
    </defs>
    <g clip-path="url(#pc2e2ca8316)">
     <use xlink:href="#m56f7657703" x="555.350458" y="89.744504" style="stroke: #000000"/>
    </g>
   </g>
   <g id="line2d_9">
    <defs>
     <path id="m3eb320dc63" d="M 0 6.944181 
C 1.841618 6.944181 3.608057 6.212499 4.910278 4.910278 
C 6.212499 3.608057 6.944181 1.841618 6.944181 0 
C 6.944181 -1.841618 6.212499 -3.608057 4.910278 -4.910278 
C 3.608057 -6.212499 1.841618 -6.944181 0 -6.944181 
C -1.841618 -6.944181 -3.608057 -6.212499 -4.910278 -4.910278 
C -6.212499 -3.608057 -6.944181 -1.841618 -6.944181 0 
C -6.944181 1.841618 -6.212499 3.608057 -4.910278 4.910278 
C -3.608057 6.212499 -1.841618 6.944181 0 6.944181 
z
" style="stroke: #000000"/>
    </defs>
    <g clip-path="url(#pc2e2ca8316)">
     <use xlink:href="#m3eb320dc63" x="413.137605" y="156.30661" style="stroke: #000000"/>
    </g>
   </g>
   <g id="line2d_10">
    <defs>
     <path id="m823ccc449a" d="M 0 6.868042 
C 1.821426 6.868042 3.568497 6.144382 4.856439 4.856439 
C 6.144382 3.568497 6.868042 1.821426 6.868042 0 
C 6.868042 -1.821426 6.144382 -3.568497 4.856439 -4.856439 
C 3.568497 -6.144382 1.821426 -6.868042 0 -6.868042 
C -1.821426 -6.868042 -3.568497 -6.144382 -4.856439 -4.856439 
C -6.144382 -3.568497 -6.868042 -1.821426 -6.868042 0 
C -6.868042 1.821426 -6.144382 3.568497 -4.856439 4.856439 
C -3.568497 6.144382 -1.821426 6.868042 0 6.868042 
z
" style="stroke: #000000"/>
    </defs>
    <g clip-path="url(#pc2e2ca8316)">
     <use xlink:href="#m823ccc449a" x="336.314634" y="138.540714" style="stroke: #000000"/>
    </g>
   </g>
  </g>
 </g>
 <defs>
  <clipPath id="pc2e2ca8316">
   <path d="M 164.014496 320.4 
L 164.014496 43.2 
L 573.985504 43.2 
L 573.985504 320.4 
L 164.014496 320.4 
"/>
  </clipPath>
 </defs>
</svg>
