<?xml version="1.0" encoding="utf-8" standalone="no"?>
<!DOCTYPE svg PUBLIC "-//W3C//DTD SVG 1.1//EN"
  "http://www.w3.org/Graphics/SVG/1.1/DTD/svg11.dtd">
<svg xmlns:xlink="http://www.w3.org/1999/xlink" width="720pt" height="360pt" viewBox="0 0 720 360" xmlns="http://www.w3.org/2000/svg" version="1.1">
 <metadata>
  <rdf:RDF xmlns:dc="http://purl.org/dc/elements/1.1/" xmlns:cc="http://creativecommons.org/ns#" xmlns:rdf="http://www.w3.org/1999/02/22-rdf-syntax-ns#">
   <cc:Work>
    <dc:type rdf:resource="http://purl.org/dc/dcmitype/StillImage"/>
    <dc:date>2023-11-30T21:30:51.092254</dc:date>
    <dc:format>image/svg+xml</dc:format>
    <dc:creator>
     <cc:Agent>
      <dc:title>Matplotlib v3.8.1, https://matplotlib.org/</dc:title>
     </cc:Agent>
    </dc:creator>
   </cc:Work>
  </rdf:RDF>
 </metadata>
 <defs>
  <style type="text/css">*{stroke-linejoin: round; stroke-linecap: butt}</style>
 </defs>
 <g id="figure_1">
  <g id="patch_1">
   <path d="M 0 360 
L 720 360 
L 720 0 
L 0 0 
z
" style="fill: #ffffff"/>
  </g>
  <g id="axes_1">
   <g id="patch_2">
    <path d="M 90 290.919073 
L 90 72.680927 
L 648 72.680927 
L 648 290.919073 
L 90 290.919073 
" style="fill: #ffffff"/>
   </g>
   <g id="line2d_1">
    <defs>
     <path id="mb21bd90ac0" d="M 0 9.346406 
C 2.478696 9.346406 4.856205 8.36161 6.608907 6.608907 
C 8.36161 4.856205 9.346406 2.478696 9.346406 0 
C 9.346406 -2.478696 8.36161 -4.856205 6.608907 -6.608907 
C 4.856205 -8.36161 2.478696 -9.346406 0 -9.346406 
C -2.478696 -9.346406 -4.856205 -8.36161 -6.608907 -6.608907 
C -8.36161 -4.856205 -9.346406 -2.478696 -9.346406 0 
C -9.346406 2.478696 -8.36161 4.856205 -6.608907 6.608907 
C -4.856205 8.36161 -2.478696 9.346406 0 9.346406 
z
" style="stroke: #000000"/>
    </defs>
    <g clip-path="url(#p36f9e55607)">
     <use xlink:href="#mb21bd90ac0" x="115.363636" y="280.999157" style="stroke: #000000"/>
    </g>
   </g>
   <g id="line2d_2">
    <defs>
     <path id="mf19868ead1" d="M 0 8.900128 
C 2.360341 8.900128 4.624327 7.962354 6.293341 6.293341 
C 7.962354 4.624327 8.900128 2.360341 8.900128 0 
C 8.900128 -2.360341 7.962354 -4.624327 6.293341 -6.293341 
C 4.624327 -7.962354 2.360341 -8.900128 0 -8.900128 
C -2.360341 -8.900128 -4.624327 -7.962354 -6.293341 -6.293341 
C -7.962354 -4.624327 -8.900128 -2.360341 -8.900128 0 
C -8.900128 2.360341 -7.962354 4.624327 -6.293341 6.293341 
C -4.624327 7.962354 -2.360341 8.900128 0 8.900128 
z
" style="stroke: #000000"/>
    </defs>
    <g clip-path="url(#p36f9e55607)">
     <use xlink:href="#mf19868ead1" x="622.636364" y="177.109214" style="stroke: #000000"/>
    </g>
   </g>
   <g id="line2d_3">
    <defs>
     <path id="macc6cf10e3" d="M 0 8.198787 
C 2.174344 8.198787 4.259925 7.334911 5.797418 5.797418 
C 7.334911 4.259925 8.198787 2.174344 8.198787 0 
C 8.198787 -2.174344 7.334911 -4.259925 5.797418 -5.797418 
C 4.259925 -7.334911 2.174344 -8.198787 0 -8.198787 
C -2.174344 -8.198787 -4.259925 -7.334911 -5.797418 -5.797418 
C -7.334911 -4.259925 -8.198787 -2.174344 -8.198787 0 
C -8.198787 2.174344 -7.334911 4.259925 -5.797418 5.797418 
C -4.259925 7.334911 -2.174344 8.198787 0 8.198787 
z
" style="stroke: #000000"/>
    </defs>
    <g clip-path="url(#p36f9e55607)">
     <use xlink:href="#macc6cf10e3" x="234.844623" y="251.834894" style="stroke: #000000"/>
    </g>
   </g>
   <g id="line2d_4">
    <defs>
     <path id="mf7d055cc2e" d="M 0 8.178174 
C 2.168877 8.178174 4.249215 7.31647 5.782843 5.782843 
C 7.31647 4.249215 8.178174 2.168877 8.178174 0 
C 8.178174 -2.168877 7.31647 -4.249215 5.782843 -5.782843 
C 4.249215 -7.31647 2.168877 -8.178174 0 -8.178174 
C -2.168877 -8.178174 -4.249215 -7.31647 -5.782843 -5.782843 
C -7.31647 -4.249215 -8.178174 -2.168877 -8.178174 0 
C -8.178174 2.168877 -7.31647 4.249215 -5.782843 5.782843 
C -4.249215 7.31647 -2.168877 8.178174 0 8.178174 
z
" style="stroke: #000000"/>
    </defs>
    <g clip-path="url(#p36f9e55607)">
     <use xlink:href="#mf7d055cc2e" x="619.685356" y="124.436416" style="stroke: #000000"/>
    </g>
   </g>
   <g id="line2d_5">
    <defs>
     <path id="mfed993100d" d="M 0 8.161149 
C 2.164362 8.161149 4.240369 7.301239 5.770804 5.770804 
C 7.301239 4.240369 8.161149 2.164362 8.161149 0 
C 8.161149 -2.164362 7.301239 -4.240369 5.770804 -5.770804 
C 4.240369 -7.301239 2.164362 -8.161149 0 -8.161149 
C -2.164362 -8.161149 -4.240369 -7.301239 -5.770804 -5.770804 
C -7.301239 -4.240369 -8.161149 -2.164362 -8.161149 0 
C -8.161149 2.164362 -7.301239 4.240369 -5.770804 5.770804 
C -4.240369 7.301239 -2.164362 8.161149 0 8.161149 
z
" style="stroke: #000000"/>
    </defs>
    <g clip-path="url(#p36f9e55607)">
     <use xlink:href="#mfed993100d" x="314.867643" y="82.600843" style="stroke: #000000"/>
    </g>
   </g>
   <g id="line2d_6">
    <defs>
     <path id="mad5c57f3b6" d="M 0 8.100354 
C 2.148239 8.100354 4.208781 7.246849 5.727815 5.727815 
C 7.246849 4.208781 8.100354 2.148239 8.100354 0 
C 8.100354 -2.148239 7.246849 -4.208781 5.727815 -5.727815 
C 4.208781 -7.246849 2.148239 -8.100354 0 -8.100354 
C -2.148239 -8.100354 -4.208781 -7.246849 -5.727815 -5.727815 
C -7.246849 -4.208781 -8.100354 -2.148239 -8.100354 0 
C -8.100354 2.148239 -7.246849 4.208781 -5.727815 5.727815 
C -4.208781 7.246849 -2.148239 8.100354 0 8.100354 
z
" style="stroke: #000000"/>
    </defs>
    <g clip-path="url(#p36f9e55607)">
     <use xlink:href="#mad5c57f3b6" x="365.466122" y="172.397516" style="stroke: #000000"/>
    </g>
   </g>
   <g id="line2d_7">
    <defs>
     <path id="mfdf4b16192" d="M 0 7.973761 
C 2.114666 7.973761 4.143006 7.133596 5.638301 5.638301 
C 7.133596 4.143006 7.973761 2.114666 7.973761 0 
C 7.973761 -2.114666 7.133596 -4.143006 5.638301 -5.638301 
C 4.143006 -7.133596 2.114666 -7.973761 0 -7.973761 
C -2.114666 -7.973761 -4.143006 -7.133596 -5.638301 -5.638301 
C -7.133596 -4.143006 -7.973761 -2.114666 -7.973761 0 
C -7.973761 2.114666 -7.133596 4.143006 -5.638301 5.638301 
C -4.143006 7.133596 -2.114666 7.973761 0 7.973761 
z
" style="stroke: #000000"/>
    </defs>
    <g clip-path="url(#p36f9e55607)">
     <use xlink:href="#mfdf4b16192" x="174.077081" y="239.044526" style="stroke: #000000"/>
    </g>
   </g>
   <g id="line2d_8">
    <defs>
     <path id="m43e8f23662" d="M 0 7.915344 
C 2.099174 7.915344 4.112654 7.081334 5.596994 5.596994 
C 7.081334 4.112654 7.915344 2.099174 7.915344 0 
C 7.915344 -2.099174 7.081334 -4.112654 5.596994 -5.596994 
C 4.112654 -7.081334 2.099174 -7.915344 0 -7.915344 
C -2.099174 -7.915344 -4.112654 -7.081334 -5.596994 -5.596994 
C -7.081334 -4.112654 -7.915344 -2.099174 -7.915344 0 
C -7.915344 2.099174 -7.081334 4.112654 -5.596994 5.596994 
C -4.112654 7.081334 -2.099174 7.915344 0 7.915344 
z
" style="stroke: #000000"/>
    </defs>
    <g clip-path="url(#p36f9e55607)">
     <use xlink:href="#m43e8f23662" x="229.936053" y="143.706052" style="stroke: #000000"/>
    </g>
   </g>
   <g id="line2d_9">
    <defs>
     <path id="m93ebca2165" d="M 0 7.904784 
C 2.096373 7.904784 4.107166 7.071886 5.589526 5.589526 
C 7.071886 4.107166 7.904784 2.096373 7.904784 0 
C 7.904784 -2.096373 7.071886 -4.107166 5.589526 -5.589526 
C 4.107166 -7.071886 2.096373 -7.904784 0 -7.904784 
C -2.096373 -7.904784 -4.107166 -7.071886 -5.589526 -5.589526 
C -7.071886 -4.107166 -7.904784 -2.096373 -7.904784 0 
C -7.904784 2.096373 -7.071886 4.107166 -5.589526 5.589526 
C -4.107166 7.071886 -2.096373 7.904784 0 7.904784 
z
" style="stroke: #000000"/>
    </defs>
    <g clip-path="url(#p36f9e55607)">
     <use xlink:href="#m93ebca2165" x="505.317005" y="112.719859" style="stroke: #000000"/>
    </g>
   </g>
   <g id="line2d_10">
    <defs>
     <path id="m3f2413c8b4" d="M 0 7.868558 
C 2.086766 7.868558 4.088344 7.039477 5.56391 5.56391 
C 7.039477 4.088344 7.868558 2.086766 7.868558 0 
C 7.868558 -2.086766 7.039477 -4.088344 5.56391 -5.56391 
C 4.088344 -7.039477 2.086766 -7.868558 0 -7.868558 
C -2.086766 -7.868558 -4.088344 -7.039477 -5.56391 -5.56391 
C -7.039477 -4.088344 -7.868558 -2.086766 -7.868558 0 
C -7.868558 2.086766 -7.039477 4.088344 -5.56391 5.56391 
C -4.088344 7.039477 -2.086766 7.868558 0 7.868558 
z
" style="stroke: #000000"/>
    </defs>
    <g clip-path="url(#p36f9e55607)">
     <use xlink:href="#m3f2413c8b4" x="337.422385" y="111.777054" style="stroke: #000000"/>
    </g>
   </g>
  </g>
 </g>
 <defs>
  <clipPath id="p36f9e55607">
   <path d="M 90 290.919073 
L 90 72.680927 
L 648 72.680927 
L 648 290.919073 
L 90 290.919073 
"/>
  </clipPath>
 </defs>
</svg>
