<?xml version="1.0" encoding="utf-8" standalone="no"?>
<!DOCTYPE svg PUBLIC "-//W3C//DTD SVG 1.1//EN"
  "http://www.w3.org/Graphics/SVG/1.1/DTD/svg11.dtd">
<svg xmlns:xlink="http://www.w3.org/1999/xlink" width="720pt" height="360pt" viewBox="0 0 720 360" xmlns="http://www.w3.org/2000/svg" version="1.1">
 <metadata>
  <rdf:RDF xmlns:dc="http://purl.org/dc/elements/1.1/" xmlns:cc="http://creativecommons.org/ns#" xmlns:rdf="http://www.w3.org/1999/02/22-rdf-syntax-ns#">
   <cc:Work>
    <dc:type rdf:resource="http://purl.org/dc/dcmitype/StillImage"/>
    <dc:date>2023-11-30T21:30:51.138044</dc:date>
    <dc:format>image/svg+xml</dc:format>
    <dc:creator>
     <cc:Agent>
      <dc:title>Matplotlib v3.8.1, https://matplotlib.org/</dc:title>
     </cc:Agent>
    </dc:creator>
   </cc:Work>
  </rdf:RDF>
 </metadata>
 <defs>
  <style type="text/css">*{stroke-linejoin: round; stroke-linecap: butt}</style>
 </defs>
 <g id="figure_1">
  <g id="patch_1">
   <path d="M 0 360 
L 720 360 
L 720 0 
L 0 0 
z
" style="fill: #ffffff"/>
  </g>
  <g id="axes_1">
   <g id="patch_2">
    <path d="M 182.583158 320.4 
L 182.583158 43.2 
L 555.416842 43.2 
L 555.416842 320.4 
L 182.583158 320.4 
" style="fill: #ffffff"/>
   </g>
   <g id="line2d_1">
    <defs>
     <path id="m800236546c" d="M 0 9.807197 
C 2.600899 9.807197 5.095622 8.773849 6.934735 6.934735 
C 8.773849 5.095622 9.807197 2.600899 9.807197 0 
C 9.807197 -2.600899 8.773849 -5.095622 6.934735 -6.934735 
C 5.095622 -8.773849 2.600899 -9.807197 0 -9.807197 
C -2.600899 -9.807197 -5.095622 -8.773849 -6.934735 -6.934735 
C -8.773849 -5.095622 -9.807197 -2.600899 -9.807197 0 
C -9.807197 2.600899 -8.773849 5.095622 -6.934735 6.934735 
C -5.095622 8.773849 -2.600899 9.807197 0 9.807197 
z
" style="stroke: #000000"/>
    </defs>
    <g clip-path="url(#p8ea34f1052)">
     <use xlink:href="#m800236546c" x="206.90763" y="218.106788" style="stroke: #000000"/>
    </g>
   </g>
   <g id="line2d_2">
    <defs>
     <path id="m2f31d92e12" d="M 0 8.705834 
C 2.308814 8.705834 4.523376 7.788533 6.155954 6.155954 
C 7.788533 4.523376 8.705834 2.308814 8.705834 0 
C 8.705834 -2.308814 7.788533 -4.523376 6.155954 -6.155954 
C 4.523376 -7.788533 2.308814 -8.705834 0 -8.705834 
C -2.308814 -8.705834 -4.523376 -7.788533 -6.155954 -6.155954 
C -7.788533 -4.523376 -8.705834 -2.308814 -8.705834 0 
C -8.705834 2.308814 -7.788533 4.523376 -6.155954 6.155954 
C -4.523376 7.788533 -2.308814 8.705834 0 8.705834 
z
" style="stroke: #000000"/>
    </defs>
    <g clip-path="url(#p8ea34f1052)">
     <use xlink:href="#m2f31d92e12" x="426.163073" y="294.896918" style="stroke: #000000"/>
    </g>
   </g>
   <g id="line2d_3">
    <defs>
     <path id="mbf054c7618" d="M 0 8.563524 
C 2.271073 8.563524 4.449434 7.661217 6.055326 6.055326 
C 7.661217 4.449434 8.563524 2.271073 8.563524 0 
C 8.563524 -2.271073 7.661217 -4.449434 6.055326 -6.055326 
C 4.449434 -7.661217 2.271073 -8.563524 0 -8.563524 
C -2.271073 -8.563524 -4.449434 -7.661217 -6.055326 -6.055326 
C -7.661217 -4.449434 -8.563524 -2.271073 -8.563524 0 
C -8.563524 2.271073 -7.661217 4.449434 -6.055326 6.055326 
C -4.449434 7.661217 -2.271073 8.563524 0 8.563524 
z
" style="stroke: #000000"/>
    </defs>
    <g clip-path="url(#p8ea34f1052)">
     <use xlink:href="#mbf054c7618" x="506.42216" y="307.8" style="stroke: #000000"/>
    </g>
   </g>
   <g id="line2d_4">
    <defs>
     <path id="m1b50fd64b7" d="M 0 8.463837 
C 2.244636 8.463837 4.397639 7.572034 5.984836 5.984836 
C 7.572034 4.397639 8.463837 2.244636 8.463837 0 
C 8.463837 -2.244636 7.572034 -4.397639 5.984836 -5.984836 
C 4.397639 -7.572034 2.244636 -8.463837 0 -8.463837 
C -2.244636 -8.463837 -4.397639 -7.572034 -5.984836 -5.984836 
C -7.572034 -4.397639 -8.463837 -2.244636 -8.463837 0 
C -8.463837 2.244636 -7.572034 4.397639 -5.984836 5.984836 
C -4.397639 7.572034 -2.244636 8.463837 0 8.463837 
z
" style="stroke: #000000"/>
    </defs>
    <g clip-path="url(#p8ea34f1052)">
     <use xlink:href="#m1b50fd64b7" x="538.469856" y="195.048813" style="stroke: #000000"/>
    </g>
   </g>
   <g id="line2d_5">
    <defs>
     <path id="m1bf7620a44" d="M 0 8.20998 
C 2.177312 8.20998 4.26574 7.344925 5.805333 5.805333 
C 7.344925 4.26574 8.20998 2.177312 8.20998 0 
C 8.20998 -2.177312 7.344925 -4.26574 5.805333 -5.805333 
C 4.26574 -7.344925 2.177312 -8.20998 0 -8.20998 
C -2.177312 -8.20998 -4.26574 -7.344925 -5.805333 -5.805333 
C -7.344925 -4.26574 -8.20998 -2.177312 -8.20998 0 
C -8.20998 2.177312 -7.344925 4.26574 -5.805333 5.805333 
C -4.26574 7.344925 -2.177312 8.20998 0 8.20998 
z
" style="stroke: #000000"/>
    </defs>
    <g clip-path="url(#p8ea34f1052)">
     <use xlink:href="#m1bf7620a44" x="381.376839" y="159.40034" style="stroke: #000000"/>
    </g>
   </g>
   <g id="line2d_6">
    <defs>
     <path id="m3acd445dc0" d="M 0 7.873585 
C 2.088099 7.873585 4.090956 7.043975 5.567465 5.567465 
C 7.043975 4.090956 7.873585 2.088099 7.873585 0 
C 7.873585 -2.088099 7.043975 -4.090956 5.567465 -5.567465 
C 4.090956 -7.043975 2.088099 -7.873585 0 -7.873585 
C -2.088099 -7.873585 -4.090956 -7.043975 -5.567465 -5.567465 
C -7.043975 -4.090956 -7.873585 -2.088099 -7.873585 0 
C -7.873585 2.088099 -7.043975 4.090956 -5.567465 5.567465 
C -4.090956 7.043975 -2.088099 7.873585 0 7.873585 
z
" style="stroke: #000000"/>
    </defs>
    <g clip-path="url(#p8ea34f1052)">
     <use xlink:href="#m3acd445dc0" x="231.024309" y="239.906946" style="stroke: #000000"/>
    </g>
   </g>
   <g id="line2d_7">
    <defs>
     <path id="m77dd5621b1" d="M 0 7.227599 
C 1.916782 7.227599 3.755315 6.466054 5.110685 5.110685 
C 6.466054 3.755315 7.227599 1.916782 7.227599 0 
C 7.227599 -1.916782 6.466054 -3.755315 5.110685 -5.110685 
C 3.755315 -6.466054 1.916782 -7.227599 0 -7.227599 
C -1.916782 -7.227599 -3.755315 -6.466054 -5.110685 -5.110685 
C -6.466054 -3.755315 -7.227599 -1.916782 -7.227599 0 
C -7.227599 1.916782 -6.466054 3.755315 -5.110685 5.110685 
C -3.755315 6.466054 -1.916782 7.227599 0 7.227599 
z
" style="stroke: #000000"/>
    </defs>
    <g clip-path="url(#p8ea34f1052)">
     <use xlink:href="#m77dd5621b1" x="309.502724" y="189.085974" style="stroke: #000000"/>
    </g>
   </g>
   <g id="line2d_8">
    <defs>
     <path id="mafdc8778a2" d="M 0 7.189588 
C 1.906701 7.189588 3.735565 6.432047 5.083806 5.083806 
C 6.432047 3.735565 7.189588 1.906701 7.189588 0 
C 7.189588 -1.906701 6.432047 -3.735565 5.083806 -5.083806 
C 3.735565 -6.432047 1.906701 -7.189588 0 -7.189588 
C -1.906701 -7.189588 -3.735565 -6.432047 -5.083806 -5.083806 
C -6.432047 -3.735565 -7.189588 -1.906701 -7.189588 0 
C -7.189588 1.906701 -6.432047 3.735565 -5.083806 5.083806 
C -3.735565 6.432047 -1.906701 7.189588 0 7.189588 
z
" style="stroke: #000000"/>
    </defs>
    <g clip-path="url(#p8ea34f1052)">
     <use xlink:href="#mafdc8778a2" x="272.605041" y="177.061184" style="stroke: #000000"/>
    </g>
   </g>
   <g id="line2d_9">
    <defs>
     <path id="m700c2ff189" d="M 0 7.114785 
C 1.886863 7.114785 3.696699 6.365126 5.030913 5.030913 
C 6.365126 3.696699 7.114785 1.886863 7.114785 0 
C 7.114785 -1.886863 6.365126 -3.696699 5.030913 -5.030913 
C 3.696699 -6.365126 1.886863 -7.114785 0 -7.114785 
C -1.886863 -7.114785 -3.696699 -6.365126 -5.030913 -5.030913 
C -6.365126 -3.696699 -7.114785 -1.886863 -7.114785 0 
C -7.114785 1.886863 -6.365126 3.696699 -5.030913 5.030913 
C -3.696699 6.365126 -1.886863 7.114785 0 7.114785 
z
" style="stroke: #000000"/>
    </defs>
    <g clip-path="url(#p8ea34f1052)">
     <use xlink:href="#m700c2ff189" x="199.530144" y="226.869633" style="stroke: #000000"/>
    </g>
   </g>
   <g id="line2d_10">
    <defs>
     <path id="m4121aa284d" d="M 0 7.065808 
C 1.873874 7.065808 3.671252 6.32131 4.996281 4.996281 
C 6.32131 3.671252 7.065808 1.873874 7.065808 0 
C 7.065808 -1.873874 6.32131 -3.671252 4.996281 -4.996281 
C 3.671252 -6.32131 1.873874 -7.065808 0 -7.065808 
C -1.873874 -7.065808 -3.671252 -6.32131 -4.996281 -4.996281 
C -6.32131 -3.671252 -7.065808 -1.873874 -7.065808 0 
C -7.065808 1.873874 -6.32131 3.671252 -4.996281 4.996281 
C -3.671252 6.32131 -1.873874 7.065808 0 7.065808 
z
" style="stroke: #000000"/>
    </defs>
    <g clip-path="url(#p8ea34f1052)">
     <use xlink:href="#m4121aa284d" x="453.36664" y="55.8" style="stroke: #000000"/>
    </g>
   </g>
  </g>
 </g>
 <defs>
  <clipPath id="p8ea34f1052">
   <path d="M 182.583158 320.4 
L 182.583158 43.2 
L 555.416842 43.2 
L 555.416842 320.4 
L 182.583158 320.4 
"/>
  </clipPath>
 </defs>
</svg>
