<?xml version="1.0" encoding="utf-8" standalone="no"?>
<!DOCTYPE svg PUBLIC "-//W3C//DTD SVG 1.1//EN"
  "http://www.w3.org/Graphics/SVG/1.1/DTD/svg11.dtd">
<svg xmlns:xlink="http://www.w3.org/1999/xlink" width="720pt" height="360pt" viewBox="0 0 720 360" xmlns="http://www.w3.org/2000/svg" version="1.1">
 <metadata>
  <rdf:RDF xmlns:dc="http://purl.org/dc/elements/1.1/" xmlns:cc="http://creativecommons.org/ns#" xmlns:rdf="http://www.w3.org/1999/02/22-rdf-syntax-ns#">
   <cc:Work>
    <dc:type rdf:resource="http://purl.org/dc/dcmitype/StillImage"/>
    <dc:date>2023-11-30T21:30:51.180151</dc:date>
    <dc:format>image/svg+xml</dc:format>
    <dc:creator>
     <cc:Agent>
      <dc:title>Matplotlib v3.8.1, https://matplotlib.org/</dc:title>
     </cc:Agent>
    </dc:creator>
   </cc:Work>
  </rdf:RDF>
 </metadata>
 <defs>
  <style type="text/css">*{stroke-linejoin: round; stroke-linecap: butt}</style>
 </defs>
 <g id="figure_1">
  <g id="patch_1">
   <path d="M 0 360 
L 720 360 
L 720 0 
L 0 0 
z
" style="fill: #ffffff"/>
  </g>
  <g id="axes_1">
   <g id="patch_2">
    <path d="M 221.062507 320.4 
L 221.062507 43.2 
L 516.937493 43.2 
L 516.937493 320.4 
L 221.062507 320.4 
" style="fill: #ffffff"/>
   </g>
   <g id="line2d_1">
    <defs>
     <path id="mafaa149c62" d="M 0 10.619907 
C 2.816432 10.619907 5.51789 9.500926 7.509408 7.509408 
C 9.500926 5.51789 10.619907 2.816432 10.619907 0 
C 10.619907 -2.816432 9.500926 -5.51789 7.509408 -7.509408 
C 5.51789 -9.500926 2.816432 -10.619907 0 -10.619907 
C -2.816432 -10.619907 -5.51789 -9.500926 -7.509408 -7.509408 
C -9.500926 -5.51789 -10.619907 -2.816432 -10.619907 0 
C -10.619907 2.816432 -9.500926 5.51789 -7.509408 7.509408 
C -5.51789 9.500926 -2.816432 10.619907 0 10.619907 
z
" style="stroke: #000000"/>
    </defs>
    <g clip-path="url(#p7fc57a3e4b)">
     <use xlink:href="#mafaa149c62" x="234.51137" y="152.996393" style="stroke: #000000"/>
    </g>
   </g>
   <g id="line2d_2">
    <defs>
     <path id="m5da085f9eb" d="M 0 9.868689 
C 2.617207 9.868689 5.127572 8.828862 6.978217 6.978217 
C 8.828862 5.127572 9.868689 2.617207 9.868689 0 
C 9.868689 -2.617207 8.828862 -5.127572 6.978217 -6.978217 
C 5.127572 -8.828862 2.617207 -9.868689 0 -9.868689 
C -2.617207 -9.868689 -5.127572 -8.828862 -6.978217 -6.978217 
C -8.828862 -5.127572 -9.868689 -2.617207 -9.868689 0 
C -9.868689 2.617207 -8.828862 5.127572 -6.978217 6.978217 
C -5.127572 8.828862 -2.617207 9.868689 0 9.868689 
z
" style="stroke: #000000"/>
    </defs>
    <g clip-path="url(#p7fc57a3e4b)">
     <use xlink:href="#m5da085f9eb" x="238.310947" y="147.810239" style="stroke: #000000"/>
    </g>
   </g>
   <g id="line2d_3">
    <defs>
     <path id="m6d8f2e1884" d="M 0 9.506695 
C 2.521205 9.506695 4.939488 8.50501 6.722249 6.722249 
C 8.50501 4.939488 9.506695 2.521205 9.506695 0 
C 9.506695 -2.521205 8.50501 -4.939488 6.722249 -6.722249 
C 4.939488 -8.50501 2.521205 -9.506695 0 -9.506695 
C -2.521205 -9.506695 -4.939488 -8.50501 -6.722249 -6.722249 
C -8.50501 -4.939488 -9.506695 -2.521205 -9.506695 0 
C -9.506695 2.521205 -8.50501 4.939488 -6.722249 6.722249 
C -4.939488 8.50501 -2.521205 9.506695 0 9.506695 
z
" style="stroke: #000000"/>
    </defs>
    <g clip-path="url(#p7fc57a3e4b)">
     <use xlink:href="#m6d8f2e1884" x="345.666256" y="141.556331" style="stroke: #000000"/>
    </g>
   </g>
   <g id="line2d_4">
    <defs>
     <path id="m1af921cf60" d="M 0 9.143858 
C 2.42498 9.143858 4.750965 8.180404 6.465684 6.465684 
C 8.180404 4.750965 9.143858 2.42498 9.143858 0 
C 9.143858 -2.42498 8.180404 -4.750965 6.465684 -6.465684 
C 4.750965 -8.180404 2.42498 -9.143858 0 -9.143858 
C -2.42498 -9.143858 -4.750965 -8.180404 -6.465684 -6.465684 
C -8.180404 -4.750965 -9.143858 -2.42498 -9.143858 0 
C -9.143858 2.42498 -8.180404 4.750965 -6.465684 6.465684 
C -4.750965 8.180404 -2.42498 9.143858 0 9.143858 
z
" style="stroke: #000000"/>
    </defs>
    <g clip-path="url(#p7fc57a3e4b)">
     <use xlink:href="#m1af921cf60" x="271.406078" y="145.989886" style="stroke: #000000"/>
    </g>
   </g>
   <g id="line2d_5">
    <defs>
     <path id="m4fdd7877e4" d="M 0 8.990162 
C 2.384219 8.990162 4.671107 8.042902 6.357004 6.357004 
C 8.042902 4.671107 8.990162 2.384219 8.990162 0 
C 8.990162 -2.384219 8.042902 -4.671107 6.357004 -6.357004 
C 4.671107 -8.042902 2.384219 -8.990162 0 -8.990162 
C -2.384219 -8.990162 -4.671107 -8.042902 -6.357004 -6.357004 
C -8.042902 -4.671107 -8.990162 -2.384219 -8.990162 0 
C -8.990162 2.384219 -8.042902 4.671107 -6.357004 6.357004 
C -4.671107 8.042902 -2.384219 8.990162 0 8.990162 
z
" style="stroke: #000000"/>
    </defs>
    <g clip-path="url(#p7fc57a3e4b)">
     <use xlink:href="#m4fdd7877e4" x="302.4864" y="55.8" style="stroke: #000000"/>
    </g>
   </g>
   <g id="line2d_6">
    <defs>
     <path id="mcc0a77b117" d="M 0 8.97245 
C 2.379522 8.97245 4.661905 8.027056 6.344481 6.344481 
C 8.027056 4.661905 8.97245 2.379522 8.97245 0 
C 8.97245 -2.379522 8.027056 -4.661905 6.344481 -6.344481 
C 4.661905 -8.027056 2.379522 -8.97245 0 -8.97245 
C -2.379522 -8.97245 -4.661905 -8.027056 -6.344481 -6.344481 
C -8.027056 -4.661905 -8.97245 -2.379522 -8.97245 0 
C -8.97245 2.379522 -8.027056 4.661905 -6.344481 6.344481 
C -4.661905 8.027056 -2.379522 8.97245 0 8.97245 
z
" style="stroke: #000000"/>
    </defs>
    <g clip-path="url(#p7fc57a3e4b)">
     <use xlink:href="#mcc0a77b117" x="268.510993" y="146.437126" style="stroke: #000000"/>
    </g>
   </g>
   <g id="line2d_7">
    <defs>
     <path id="m0390db6abc" d="M 0 8.697307 
C 2.306553 8.697307 4.518945 7.780904 6.149925 6.149925 
C 7.780904 4.518945 8.697307 2.306553 8.697307 0 
C 8.697307 -2.306553 7.780904 -4.518945 6.149925 -6.149925 
C 4.518945 -7.780904 2.306553 -8.697307 0 -8.697307 
C -2.306553 -8.697307 -4.518945 -7.780904 -6.149925 -6.149925 
C -7.780904 -4.518945 -8.697307 -2.306553 -8.697307 0 
C -8.697307 2.306553 -7.780904 4.518945 -6.149925 6.149925 
C -4.518945 7.780904 -2.306553 8.697307 0 8.697307 
z
" style="stroke: #000000"/>
    </defs>
    <g clip-path="url(#p7fc57a3e4b)">
     <use xlink:href="#m0390db6abc" x="332.187195" y="192.583738" style="stroke: #000000"/>
    </g>
   </g>
   <g id="line2d_8">
    <defs>
     <path id="mc40b553543" d="M 0 8.642859 
C 2.292113 8.642859 4.490656 7.732193 6.111424 6.111424 
C 7.732193 4.490656 8.642859 2.292113 8.642859 0 
C 8.642859 -2.292113 7.732193 -4.490656 6.111424 -6.111424 
C 4.490656 -7.732193 2.292113 -8.642859 0 -8.642859 
C -2.292113 -8.642859 -4.490656 -7.732193 -6.111424 -6.111424 
C -7.732193 -4.490656 -8.642859 -2.292113 -8.642859 0 
C -8.642859 2.292113 -7.732193 4.490656 -6.111424 6.111424 
C -4.490656 7.732193 -2.292113 8.642859 0 8.642859 
z
" style="stroke: #000000"/>
    </defs>
    <g clip-path="url(#p7fc57a3e4b)">
     <use xlink:href="#mc40b553543" x="317.895517" y="307.8" style="stroke: #000000"/>
    </g>
   </g>
   <g id="line2d_9">
    <defs>
     <path id="mcc3b40f68d" d="M 0 8.306909 
C 2.203018 8.306909 4.316103 7.431641 5.873872 5.873872 
C 7.431641 4.316103 8.306909 2.203018 8.306909 0 
C 8.306909 -2.203018 7.431641 -4.316103 5.873872 -5.873872 
C 4.316103 -7.431641 2.203018 -8.306909 0 -8.306909 
C -2.203018 -8.306909 -4.316103 -7.431641 -5.873872 -5.873872 
C -7.431641 -4.316103 -8.306909 -2.203018 -8.306909 0 
C -8.306909 2.203018 -7.431641 4.316103 -5.873872 5.873872 
C -4.316103 7.431641 -2.203018 8.306909 0 8.306909 
z
" style="stroke: #000000"/>
    </defs>
    <g clip-path="url(#p7fc57a3e4b)">
     <use xlink:href="#mcc3b40f68d" x="320.739324" y="157.41283" style="stroke: #000000"/>
    </g>
   </g>
   <g id="line2d_10">
    <defs>
     <path id="md961fd5cb3" d="M 0 8.132963 
C 2.156887 8.132963 4.225724 7.276023 5.750873 5.750873 
C 7.276023 4.225724 8.132963 2.156887 8.132963 0 
C 8.132963 -2.156887 7.276023 -4.225724 5.750873 -5.750873 
C 4.225724 -7.276023 2.156887 -8.132963 0 -8.132963 
C -2.156887 -8.132963 -4.225724 -7.276023 -5.750873 -5.750873 
C -7.276023 -4.225724 -8.132963 -2.156887 -8.132963 0 
C -8.132963 2.156887 -7.276023 4.225724 -5.750873 5.750873 
C -4.225724 7.276023 -2.156887 8.132963 0 8.132963 
z
" style="stroke: #000000"/>
    </defs>
    <g clip-path="url(#p7fc57a3e4b)">
     <use xlink:href="#md961fd5cb3" x="503.48863" y="220.385687" style="stroke: #000000"/>
    </g>
   </g>
  </g>
 </g>
 <defs>
  <clipPath id="p7fc57a3e4b">
   <path d="M 221.062507 320.4 
L 221.062507 43.2 
L 516.937493 43.2 
L 516.937493 320.4 
L 221.062507 320.4 
"/>
  </clipPath>
 </defs>
</svg>
