<?xml version="1.0" encoding="utf-8" standalone="no"?>
<!DOCTYPE svg PUBLIC "-//W3C//DTD SVG 1.1//EN"
  "http://www.w3.org/Graphics/SVG/1.1/DTD/svg11.dtd">
<svg xmlns:xlink="http://www.w3.org/1999/xlink" width="720pt" height="360pt" viewBox="0 0 720 360" xmlns="http://www.w3.org/2000/svg" version="1.1">
 <metadata>
  <rdf:RDF xmlns:dc="http://purl.org/dc/elements/1.1/" xmlns:cc="http://creativecommons.org/ns#" xmlns:rdf="http://www.w3.org/1999/02/22-rdf-syntax-ns#">
   <cc:Work>
    <dc:type rdf:resource="http://purl.org/dc/dcmitype/StillImage"/>
    <dc:date>2023-11-30T21:30:51.221630</dc:date>
    <dc:format>image/svg+xml</dc:format>
    <dc:creator>
     <cc:Agent>
      <dc:title>Matplotlib v3.8.1, https://matplotlib.org/</dc:title>
     </cc:Agent>
    </dc:creator>
   </cc:Work>
  </rdf:RDF>
 </metadata>
 <defs>
  <style type="text/css">*{stroke-linejoin: round; stroke-linecap: butt}</style>
 </defs>
 <g id="figure_1">
  <g id="patch_1">
   <path d="M 0 360 
L 720 360 
L 720 0 
L 0 0 
z
" style="fill: #ffffff"/>
  </g>
  <g id="axes_1">
   <g id="patch_2">
    <path d="M 282.047608 320.4 
L 282.047608 43.2 
L 455.952392 43.2 
L 455.952392 320.4 
L 282.047608 320.4 
" style="fill: #ffffff"/>
   </g>
   <g id="line2d_1">
    <defs>
     <path id="m8ae38abe0d" d="M 0 10.651476 
C 2.824804 10.651476 5.534292 9.529169 7.531731 7.531731 
C 9.529169 5.534292 10.651476 2.824804 10.651476 0 
C 10.651476 -2.824804 9.529169 -5.534292 7.531731 -7.531731 
C 5.534292 -9.529169 2.824804 -10.651476 0 -10.651476 
C -2.824804 -10.651476 -5.534292 -9.529169 -7.531731 -7.531731 
C -9.529169 -5.534292 -10.651476 -2.824804 -10.651476 0 
C -10.651476 2.824804 -9.529169 5.534292 -7.531731 7.531731 
C -5.534292 9.529169 -2.824804 10.651476 0 10.651476 
z
" style="stroke: #000000"/>
    </defs>
    <g clip-path="url(#p8c0cbe553f)">
     <use xlink:href="#m8ae38abe0d" x="364.950514" y="256.274917" style="stroke: #000000"/>
    </g>
   </g>
   <g id="line2d_2">
    <defs>
     <path id="m629041fb4f" d="M 0 9.43314 
C 2.501698 9.43314 4.90127 8.439205 6.670237 6.670237 
C 8.439205 4.90127 9.43314 2.501698 9.43314 0 
C 9.43314 -2.501698 8.439205 -4.90127 6.670237 -6.670237 
C 4.90127 -8.439205 2.501698 -9.43314 0 -9.43314 
C -2.501698 -9.43314 -4.90127 -8.439205 -6.670237 -6.670237 
C -8.439205 -4.90127 -9.43314 -2.501698 -9.43314 0 
C -9.43314 2.501698 -8.439205 4.90127 -6.670237 6.670237 
C -4.90127 8.439205 -2.501698 9.43314 0 9.43314 
z
" style="stroke: #000000"/>
    </defs>
    <g clip-path="url(#p8c0cbe553f)">
     <use xlink:href="#m629041fb4f" x="337.262879" y="93.514729" style="stroke: #000000"/>
    </g>
   </g>
   <g id="line2d_3">
    <defs>
     <path id="md9c06fc804" d="M 0 8.943351 
C 2.371805 8.943351 4.646785 8.001023 6.323904 6.323904 
C 8.001023 4.646785 8.943351 2.371805 8.943351 0 
C 8.943351 -2.371805 8.001023 -4.646785 6.323904 -6.323904 
C 4.646785 -8.001023 2.371805 -8.943351 0 -8.943351 
C -2.371805 -8.943351 -4.646785 -8.001023 -6.323904 -6.323904 
C -8.001023 -4.646785 -8.943351 -2.371805 -8.943351 0 
C -8.943351 2.371805 -8.001023 4.646785 -6.323904 6.323904 
C -4.646785 8.001023 -2.371805 8.943351 0 8.943351 
z
" style="stroke: #000000"/>
    </defs>
    <g clip-path="url(#p8c0cbe553f)">
     <use xlink:href="#md9c06fc804" x="357.81766" y="74.301343" style="stroke: #000000"/>
    </g>
   </g>
   <g id="line2d_4">
    <defs>
     <path id="m27478e75d6" d="M 0 8.920699 
C 2.365797 8.920699 4.635016 7.980758 6.307887 6.307887 
C 7.980758 4.635016 8.920699 2.365797 8.920699 0 
C 8.920699 -2.365797 7.980758 -4.635016 6.307887 -6.307887 
C 4.635016 -7.980758 2.365797 -8.920699 0 -8.920699 
C -2.365797 -8.920699 -4.635016 -7.980758 -6.307887 -6.307887 
C -7.980758 -4.635016 -8.920699 -2.365797 -8.920699 0 
C -8.920699 2.365797 -7.980758 4.635016 -6.307887 6.307887 
C -4.635016 7.980758 -2.365797 8.920699 0 8.920699 
z
" style="stroke: #000000"/>
    </defs>
    <g clip-path="url(#p8c0cbe553f)">
     <use xlink:href="#m27478e75d6" x="304.359468" y="307.8" style="stroke: #000000"/>
    </g>
   </g>
   <g id="line2d_5">
    <defs>
     <path id="m22e9f32986" d="M 0 8.905954 
C 2.361887 8.905954 4.627354 7.967566 6.29746 6.29746 
C 7.967566 4.627354 8.905954 2.361887 8.905954 0 
C 8.905954 -2.361887 7.967566 -4.627354 6.29746 -6.29746 
C 4.627354 -7.967566 2.361887 -8.905954 0 -8.905954 
C -2.361887 -8.905954 -4.627354 -7.967566 -6.29746 -6.29746 
C -7.967566 -4.627354 -8.905954 -2.361887 -8.905954 0 
C -8.905954 2.361887 -7.967566 4.627354 -6.29746 6.29746 
C -4.627354 7.967566 -2.361887 8.905954 0 8.905954 
z
" style="stroke: #000000"/>
    </defs>
    <g clip-path="url(#p8c0cbe553f)">
     <use xlink:href="#m22e9f32986" x="352.563559" y="263.186137" style="stroke: #000000"/>
    </g>
   </g>
   <g id="line2d_6">
    <defs>
     <path id="mbaf5c63473" d="M 0 8.493188 
C 2.25242 8.493188 4.412889 7.598292 6.005591 6.005591 
C 7.598292 4.412889 8.493188 2.25242 8.493188 0 
C 8.493188 -2.25242 7.598292 -4.412889 6.005591 -6.005591 
C 4.412889 -7.598292 2.25242 -8.493188 0 -8.493188 
C -2.25242 -8.493188 -4.412889 -7.598292 -6.005591 -6.005591 
C -7.598292 -4.412889 -8.493188 -2.25242 -8.493188 0 
C -8.493188 2.25242 -7.598292 4.412889 -6.005591 6.005591 
C -4.412889 7.598292 -2.25242 8.493188 0 8.493188 
z
" style="stroke: #000000"/>
    </defs>
    <g clip-path="url(#p8c0cbe553f)">
     <use xlink:href="#mbaf5c63473" x="328.272923" y="233.09365" style="stroke: #000000"/>
    </g>
   </g>
   <g id="line2d_7">
    <defs>
     <path id="maf2c0b4020" d="M 0 8.436343 
C 2.237344 8.436343 4.383354 7.547437 5.965396 5.965396 
C 7.547437 4.383354 8.436343 2.237344 8.436343 0 
C 8.436343 -2.237344 7.547437 -4.383354 5.965396 -5.965396 
C 4.383354 -7.547437 2.237344 -8.436343 0 -8.436343 
C -2.237344 -8.436343 -4.383354 -7.547437 -5.965396 -5.965396 
C -7.547437 -4.383354 -8.436343 -2.237344 -8.436343 0 
C -8.436343 2.237344 -7.547437 4.383354 -5.965396 5.965396 
C -4.383354 7.547437 -2.237344 8.436343 0 8.436343 
z
" style="stroke: #000000"/>
    </defs>
    <g clip-path="url(#p8c0cbe553f)">
     <use xlink:href="#maf2c0b4020" x="384.02494" y="165.495813" style="stroke: #000000"/>
    </g>
   </g>
   <g id="line2d_8">
    <defs>
     <path id="mb9eed8f0e4" d="M 0 8.299542 
C 2.201064 8.299542 4.312275 7.42505 5.868663 5.868663 
C 7.42505 4.312275 8.299542 2.201064 8.299542 0 
C 8.299542 -2.201064 7.42505 -4.312275 5.868663 -5.868663 
C 4.312275 -7.42505 2.201064 -8.299542 0 -8.299542 
C -2.201064 -8.299542 -4.312275 -7.42505 -5.868663 -5.868663 
C -7.42505 -4.312275 -8.299542 -2.201064 -8.299542 0 
C -8.299542 2.201064 -7.42505 4.312275 -5.868663 5.868663 
C -4.312275 7.42505 -2.201064 8.299542 0 8.299542 
z
" style="stroke: #000000"/>
    </defs>
    <g clip-path="url(#p8c0cbe553f)">
     <use xlink:href="#mb9eed8f0e4" x="369.061817" y="94.340782" style="stroke: #000000"/>
    </g>
   </g>
   <g id="line2d_9">
    <defs>
     <path id="m32da5b6131" d="M 0 8.090421 
C 2.145605 8.090421 4.20362 7.237963 5.720791 5.720791 
C 7.237963 4.20362 8.090421 2.145605 8.090421 0 
C 8.090421 -2.145605 7.237963 -4.20362 5.720791 -5.720791 
C 4.20362 -7.237963 2.145605 -8.090421 0 -8.090421 
C -2.145605 -8.090421 -4.20362 -7.237963 -5.720791 -5.720791 
C -7.237963 -4.20362 -8.090421 -2.145605 -8.090421 0 
C -8.090421 2.145605 -7.237963 4.20362 -5.720791 5.720791 
C -4.20362 7.237963 -2.145605 8.090421 0 8.090421 
z
" style="stroke: #000000"/>
    </defs>
    <g clip-path="url(#p8c0cbe553f)">
     <use xlink:href="#m32da5b6131" x="448.047629" y="55.8" style="stroke: #000000"/>
    </g>
   </g>
   <g id="line2d_10">
    <defs>
     <path id="m40663257ef" d="M 0 8.077814 
C 2.142261 8.077814 4.19707 7.226685 5.711877 5.711877 
C 7.226685 4.19707 8.077814 2.142261 8.077814 0 
C 8.077814 -2.142261 7.226685 -4.19707 5.711877 -5.711877 
C 4.19707 -7.226685 2.142261 -8.077814 0 -8.077814 
C -2.142261 -8.077814 -4.19707 -7.226685 -5.711877 -5.711877 
C -7.226685 -4.19707 -8.077814 -2.142261 -8.077814 0 
C -8.077814 2.142261 -7.226685 4.19707 -5.711877 5.711877 
C -4.19707 7.226685 -2.142261 8.077814 0 8.077814 
z
" style="stroke: #000000"/>
    </defs>
    <g clip-path="url(#p8c0cbe553f)">
     <use xlink:href="#m40663257ef" x="289.952371" y="215.540833" style="stroke: #000000"/>
    </g>
   </g>
  </g>
 </g>
 <defs>
  <clipPath id="p8c0cbe553f">
   <path d="M 282.047608 320.4 
L 282.047608 43.2 
L 455.952392 43.2 
L 455.952392 320.4 
L 282.047608 320.4 
"/>
  </clipPath>
 </defs>
</svg>
