<?xml version="1.0" encoding="utf-8" standalone="no"?>
<!DOCTYPE svg PUBLIC "-//W3C//DTD SVG 1.1//EN"
  "http://www.w3.org/Graphics/SVG/1.1/DTD/svg11.dtd">
<svg xmlns:xlink="http://www.w3.org/1999/xlink" width="720pt" height="360pt" viewBox="0 0 720 360" xmlns="http://www.w3.org/2000/svg" version="1.1">
 <metadata>
  <rdf:RDF xmlns:dc="http://purl.org/dc/elements/1.1/" xmlns:cc="http://creativecommons.org/ns#" xmlns:rdf="http://www.w3.org/1999/02/22-rdf-syntax-ns#">
   <cc:Work>
    <dc:type rdf:resource="http://purl.org/dc/dcmitype/StillImage"/>
    <dc:date>2023-11-30T21:30:53.051809</dc:date>
    <dc:format>image/svg+xml</dc:format>
    <dc:creator>
     <cc:Agent>
      <dc:title>Matplotlib v3.8.1, https://matplotlib.org/</dc:title>
     </cc:Agent>
    </dc:creator>
   </cc:Work>
  </rdf:RDF>
 </metadata>
 <defs>
  <style type="text/css">*{stroke-linejoin: round; stroke-linecap: butt}</style>
 </defs>
 <g id="figure_1">
  <g id="patch_1">
   <path d="M 0 360 
L 720 360 
L 720 0 
L 0 0 
z
" style="fill: #ffffff"/>
  </g>
  <g id="axes_1">
   <g id="patch_2">
    <path d="M 90 264.832202 
L 90 98.767798 
L 648 98.767798 
L 648 264.832202 
L 90 264.832202 
" style="fill: #ffffff"/>
   </g>
   <g id="line2d_1">
    <defs>
     <path id="m265a681835" d="M 0 8.88579 
C 2.356539 8.88579 4.616878 7.949527 6.283202 6.283202 
C 7.949527 4.616878 8.88579 2.356539 8.88579 0 
C 8.88579 -2.356539 7.949527 -4.616878 6.283202 -6.283202 
C 4.616878 -7.949527 2.356539 -8.88579 0 -8.88579 
C -2.356539 -8.88579 -4.616878 -7.949527 -6.283202 -6.283202 
C -7.949527 -4.616878 -8.88579 -2.356539 -8.88579 0 
C -8.88579 2.356539 -7.949527 4.616878 -6.283202 6.283202 
C -4.616878 7.949527 -2.356539 8.88579 0 8.88579 
z
" style="stroke: #000000"/>
    </defs>
    <g clip-path="url(#p689c80ac54)">
     <use xlink:href="#m265a681835" x="429.376364" y="116.678083" style="stroke: #000000"/>
    </g>
   </g>
   <g id="line2d_2">
    <defs>
     <path id="m42a34de9db" d="M 0 7.076776 
C 1.876783 7.076776 3.67695 6.331122 5.004036 5.004036 
C 6.331122 3.67695 7.076776 1.876783 7.076776 0 
C 7.076776 -1.876783 6.331122 -3.67695 5.004036 -5.004036 
C 3.67695 -6.331122 1.876783 -7.076776 0 -7.076776 
C -1.876783 -7.076776 -3.67695 -6.331122 -5.004036 -5.004036 
C -6.331122 -3.67695 -7.076776 -1.876783 -7.076776 0 
C -7.076776 1.876783 -6.331122 3.67695 -5.004036 5.004036 
C -3.67695 6.331122 -1.876783 7.076776 0 7.076776 
z
" style="stroke: #000000"/>
    </defs>
    <g clip-path="url(#p689c80ac54)">
     <use xlink:href="#m42a34de9db" x="417.813102" y="145.559813" style="stroke: #000000"/>
    </g>
   </g>
   <g id="line2d_3">
    <defs>
     <path id="mb63440c2dd" d="M 0 6.919946 
C 1.835191 6.919946 3.595465 6.190817 4.893141 4.893141 
C 6.190817 3.595465 6.919946 1.835191 6.919946 0 
C 6.919946 -1.835191 6.190817 -3.595465 4.893141 -4.893141 
C 3.595465 -6.190817 1.835191 -6.919946 0 -6.919946 
C -1.835191 -6.919946 -3.595465 -6.190817 -4.893141 -4.893141 
C -6.190817 -3.595465 -6.919946 -1.835191 -6.919946 0 
C -6.919946 1.835191 -6.190817 3.595465 -4.893141 4.893141 
C -3.595465 6.190817 -1.835191 6.919946 0 6.919946 
z
" style="stroke: #000000"/>
    </defs>
    <g clip-path="url(#p689c80ac54)">
     <use xlink:href="#mb63440c2dd" x="461.781664" y="257.28382" style="stroke: #000000"/>
    </g>
   </g>
   <g id="line2d_4">
    <defs>
     <path id="mce6d8e7c0a" d="M 0 6.841058 
C 1.81427 6.841058 3.554476 6.120241 4.837359 4.837359 
C 6.120241 3.554476 6.841058 1.81427 6.841058 0 
C 6.841058 -1.81427 6.120241 -3.554476 4.837359 -4.837359 
C 3.554476 -6.120241 1.81427 -6.841058 0 -6.841058 
C -1.81427 -6.841058 -3.554476 -6.120241 -4.837359 -4.837359 
C -6.120241 -3.554476 -6.841058 -1.81427 -6.841058 0 
C -6.841058 1.81427 -6.120241 3.554476 -4.837359 4.837359 
C -3.554476 6.120241 -1.81427 6.841058 0 6.841058 
z
" style="stroke: #000000"/>
    </defs>
    <g clip-path="url(#p689c80ac54)">
     <use xlink:href="#mce6d8e7c0a" x="115.363636" y="106.31618" style="stroke: #000000"/>
    </g>
   </g>
   <g id="line2d_5">
    <defs>
     <path id="maee47a1625" d="M 0 6.799375 
C 1.803215 6.799375 3.532818 6.08295 4.807884 4.807884 
C 6.08295 3.532818 6.799375 1.803215 6.799375 0 
C 6.799375 -1.803215 6.08295 -3.532818 4.807884 -4.807884 
C 3.532818 -6.08295 1.803215 -6.799375 0 -6.799375 
C -1.803215 -6.799375 -3.532818 -6.08295 -4.807884 -4.807884 
C -6.08295 -3.532818 -6.799375 -1.803215 -6.799375 0 
C -6.799375 1.803215 -6.08295 3.532818 -4.807884 4.807884 
C -3.532818 6.08295 -1.803215 6.799375 0 6.799375 
z
" style="stroke: #000000"/>
    </defs>
    <g clip-path="url(#p689c80ac54)">
     <use xlink:href="#maee47a1625" x="433.900136" y="126.832283" style="stroke: #000000"/>
    </g>
   </g>
   <g id="line2d_6">
    <defs>
     <path id="me0420550ea" d="M 0 6.394257 
C 1.695777 6.394257 3.322327 5.720518 4.521423 4.521423 
C 5.720518 3.322327 6.394257 1.695777 6.394257 0 
C 6.394257 -1.695777 5.720518 -3.322327 4.521423 -4.521423 
C 3.322327 -5.720518 1.695777 -6.394257 0 -6.394257 
C -1.695777 -6.394257 -3.322327 -5.720518 -4.521423 -4.521423 
C -5.720518 -3.322327 -6.394257 -1.695777 -6.394257 0 
C -6.394257 1.695777 -5.720518 3.322327 -4.521423 4.521423 
C -3.322327 5.720518 -1.695777 6.394257 0 6.394257 
z
" style="stroke: #000000"/>
    </defs>
    <g clip-path="url(#p689c80ac54)">
     <use xlink:href="#me0420550ea" x="562.483406" y="160.466032" style="stroke: #000000"/>
    </g>
   </g>
   <g id="line2d_7">
    <defs>
     <path id="m6f5e31f691" d="M 0 6.134563 
C 1.626905 6.134563 3.187396 5.488187 4.337791 4.337791 
C 5.488187 3.187396 6.134563 1.626905 6.134563 0 
C 6.134563 -1.626905 5.488187 -3.187396 4.337791 -4.337791 
C 3.187396 -5.488187 1.626905 -6.134563 0 -6.134563 
C -1.626905 -6.134563 -3.187396 -5.488187 -4.337791 -4.337791 
C -5.488187 -3.187396 -6.134563 -1.626905 -6.134563 0 
C -6.134563 1.626905 -5.488187 3.187396 -4.337791 4.337791 
C -3.187396 5.488187 -1.626905 6.134563 0 6.134563 
z
" style="stroke: #000000"/>
    </defs>
    <g clip-path="url(#p689c80ac54)">
     <use xlink:href="#m6f5e31f691" x="442.956374" y="113.318575" style="stroke: #000000"/>
    </g>
   </g>
   <g id="line2d_8">
    <defs>
     <path id="m79958fbf1b" d="M 0 6.05622 
C 1.606128 6.05622 3.14669 5.418098 4.282394 4.282394 
C 5.418098 3.14669 6.05622 1.606128 6.05622 0 
C 6.05622 -1.606128 5.418098 -3.14669 4.282394 -4.282394 
C 3.14669 -5.418098 1.606128 -6.05622 0 -6.05622 
C -1.606128 -6.05622 -3.14669 -5.418098 -4.282394 -4.282394 
C -5.418098 -3.14669 -6.05622 -1.606128 -6.05622 0 
C -6.05622 1.606128 -5.418098 3.14669 -4.282394 4.282394 
C -3.14669 5.418098 -1.606128 6.05622 0 6.05622 
z
" style="stroke: #000000"/>
    </defs>
    <g clip-path="url(#p689c80ac54)">
     <use xlink:href="#m79958fbf1b" x="450.865151" y="114.796079" style="stroke: #000000"/>
    </g>
   </g>
   <g id="line2d_9">
    <defs>
     <path id="m8fd7afe070" d="M 0 6.008752 
C 1.59354 6.008752 3.122027 5.375632 4.248829 4.248829 
C 5.375632 3.122027 6.008752 1.59354 6.008752 0 
C 6.008752 -1.59354 5.375632 -3.122027 4.248829 -4.248829 
C 3.122027 -5.375632 1.59354 -6.008752 0 -6.008752 
C -1.59354 -6.008752 -3.122027 -5.375632 -4.248829 -4.248829 
C -5.375632 -3.122027 -6.008752 -1.59354 -6.008752 0 
C -6.008752 1.59354 -5.375632 3.122027 -4.248829 4.248829 
C -3.122027 5.375632 -1.59354 6.008752 0 6.008752 
z
" style="stroke: #000000"/>
    </defs>
    <g clip-path="url(#p689c80ac54)">
     <use xlink:href="#m8fd7afe070" x="168.866544" y="135.128108" style="stroke: #000000"/>
    </g>
   </g>
   <g id="line2d_10">
    <defs>
     <path id="m02ffb0d173" d="M 0 5.980363 
C 1.586011 5.980363 3.107276 5.350234 4.228755 4.228755 
C 5.350234 3.107276 5.980363 1.586011 5.980363 0 
C 5.980363 -1.586011 5.350234 -3.107276 4.228755 -4.228755 
C 3.107276 -5.350234 1.586011 -5.980363 0 -5.980363 
C -1.586011 -5.980363 -3.107276 -5.350234 -4.228755 -4.228755 
C -5.350234 -3.107276 -5.980363 -1.586011 -5.980363 0 
C -5.980363 1.586011 -5.350234 3.107276 -4.228755 4.228755 
C -3.107276 5.350234 -1.586011 5.980363 0 5.980363 
z
" style="stroke: #000000"/>
    </defs>
    <g clip-path="url(#p689c80ac54)">
     <use xlink:href="#m02ffb0d173" x="622.636364" y="180.634226" style="stroke: #000000"/>
    </g>
   </g>
  </g>
 </g>
 <defs>
  <clipPath id="p689c80ac54">
   <path d="M 90 264.832202 
L 90 98.767798 
L 648 98.767798 
L 648 264.832202 
L 90 264.832202 
"/>
  </clipPath>
 </defs>
</svg>
