<?xml version="1.0" encoding="utf-8" standalone="no"?>
<!DOCTYPE svg PUBLIC "-//W3C//DTD SVG 1.1//EN"
  "http://www.w3.org/Graphics/SVG/1.1/DTD/svg11.dtd">
<svg xmlns:xlink="http://www.w3.org/1999/xlink" width="720pt" height="360pt" viewBox="0 0 720 360" xmlns="http://www.w3.org/2000/svg" version="1.1">
 <metadata>
  <rdf:RDF xmlns:dc="http://purl.org/dc/elements/1.1/" xmlns:cc="http://creativecommons.org/ns#" xmlns:rdf="http://www.w3.org/1999/02/22-rdf-syntax-ns#">
   <cc:Work>
    <dc:type rdf:resource="http://purl.org/dc/dcmitype/StillImage"/>
    <dc:date>2023-11-30T21:30:53.096946</dc:date>
    <dc:format>image/svg+xml</dc:format>
    <dc:creator>
     <cc:Agent>
      <dc:title>Matplotlib v3.8.1, https://matplotlib.org/</dc:title>
     </cc:Agent>
    </dc:creator>
   </cc:Work>
  </rdf:RDF>
 </metadata>
 <defs>
  <style type="text/css">*{stroke-linejoin: round; stroke-linecap: butt}</style>
 </defs>
 <g id="figure_1">
  <g id="patch_1">
   <path d="M 0 360 
L 720 360 
L 720 0 
L 0 0 
z
" style="fill: #ffffff"/>
  </g>
  <g id="axes_1">
   <g id="patch_2">
    <path d="M 244.616961 320.4 
L 244.616961 43.2 
L 493.383039 43.2 
L 493.383039 320.4 
L 244.616961 320.4 
" style="fill: #ffffff"/>
   </g>
   <g id="line2d_1">
    <defs>
     <path id="m83e3848f49" d="M 0 9.389784 
C 2.4902 9.389784 4.878743 8.400417 6.63958 6.63958 
C 8.400417 4.878743 9.389784 2.4902 9.389784 0 
C 9.389784 -2.4902 8.400417 -4.878743 6.63958 -6.63958 
C 4.878743 -8.400417 2.4902 -9.389784 0 -9.389784 
C -2.4902 -9.389784 -4.878743 -8.400417 -6.63958 -6.63958 
C -8.400417 -4.878743 -9.389784 -2.4902 -9.389784 0 
C -9.389784 2.4902 -8.400417 4.878743 -6.63958 6.63958 
C -4.878743 8.400417 -2.4902 9.389784 0 9.389784 
z
" style="stroke: #000000"/>
    </defs>
    <g clip-path="url(#p58855cf352)">
     <use xlink:href="#m83e3848f49" x="442.105051" y="264.134492" style="stroke: #000000"/>
    </g>
   </g>
   <g id="line2d_2">
    <defs>
     <path id="m7bbaebb2f3" d="M 0 9.097304 
C 2.412633 9.097304 4.726776 8.138755 6.432765 6.432765 
C 8.138755 4.726776 9.097304 2.412633 9.097304 0 
C 9.097304 -2.412633 8.138755 -4.726776 6.432765 -6.432765 
C 4.726776 -8.138755 2.412633 -9.097304 0 -9.097304 
C -2.412633 -9.097304 -4.726776 -8.138755 -6.432765 -6.432765 
C -8.138755 -4.726776 -9.097304 -2.412633 -9.097304 0 
C -9.097304 2.412633 -8.138755 4.726776 -6.432765 6.432765 
C -4.726776 8.138755 -2.412633 9.097304 0 9.097304 
z
" style="stroke: #000000"/>
    </defs>
    <g clip-path="url(#p58855cf352)">
     <use xlink:href="#m7bbaebb2f3" x="263.871503" y="79.110006" style="stroke: #000000"/>
    </g>
   </g>
   <g id="line2d_3">
    <defs>
     <path id="m3ef6274b09" d="M 0 8.996074 
C 2.385787 8.996074 4.674179 8.048191 6.361185 6.361185 
C 8.048191 4.674179 8.996074 2.385787 8.996074 0 
C 8.996074 -2.385787 8.048191 -4.674179 6.361185 -6.361185 
C 4.674179 -8.048191 2.385787 -8.996074 0 -8.996074 
C -2.385787 -8.996074 -4.674179 -8.048191 -6.361185 -6.361185 
C -8.048191 -4.674179 -8.996074 -2.385787 -8.996074 0 
C -8.996074 2.385787 -8.048191 4.674179 -6.361185 6.361185 
C -4.674179 8.048191 -2.385787 8.996074 0 8.996074 
z
" style="stroke: #000000"/>
    </defs>
    <g clip-path="url(#p58855cf352)">
     <use xlink:href="#m3ef6274b09" x="401.848934" y="297.654978" style="stroke: #000000"/>
    </g>
   </g>
   <g id="line2d_4">
    <defs>
     <path id="mdc3e12d522" d="M 0 8.647301 
C 2.293291 8.647301 4.492964 7.736167 6.114565 6.114565 
C 7.736167 4.492964 8.647301 2.293291 8.647301 0 
C 8.647301 -2.293291 7.736167 -4.492964 6.114565 -6.114565 
C 4.492964 -7.736167 2.293291 -8.647301 0 -8.647301 
C -2.293291 -8.647301 -4.492964 -7.736167 -6.114565 -6.114565 
C -7.736167 -4.492964 -8.647301 -2.293291 -8.647301 0 
C -8.647301 2.293291 -7.736167 4.492964 -6.114565 6.114565 
C -4.492964 7.736167 -2.293291 8.647301 0 8.647301 
z
" style="stroke: #000000"/>
    </defs>
    <g clip-path="url(#p58855cf352)">
     <use xlink:href="#mdc3e12d522" x="445.571392" y="55.8" style="stroke: #000000"/>
    </g>
   </g>
   <g id="line2d_5">
    <defs>
     <path id="m38cf5639c5" d="M 0 8.479418 
C 2.248768 8.479418 4.405735 7.585973 5.995854 5.995854 
C 7.585973 4.405735 8.479418 2.248768 8.479418 0 
C 8.479418 -2.248768 7.585973 -4.405735 5.995854 -5.995854 
C 4.405735 -7.585973 2.248768 -8.479418 0 -8.479418 
C -2.248768 -8.479418 -4.405735 -7.585973 -5.995854 -5.995854 
C -7.585973 -4.405735 -8.479418 -2.248768 -8.479418 0 
C -8.479418 2.248768 -7.585973 4.405735 -5.995854 5.995854 
C -4.405735 7.585973 -2.248768 8.479418 0 8.479418 
z
" style="stroke: #000000"/>
    </defs>
    <g clip-path="url(#p58855cf352)">
     <use xlink:href="#m38cf5639c5" x="282.483204" y="137.601746" style="stroke: #000000"/>
    </g>
   </g>
   <g id="line2d_6">
    <defs>
     <path id="m02c551d444" d="M 0 8.125602 
C 2.154935 8.125602 4.221899 7.269438 5.745669 5.745669 
C 7.269438 4.221899 8.125602 2.154935 8.125602 0 
C 8.125602 -2.154935 7.269438 -4.221899 5.745669 -5.745669 
C 4.221899 -7.269438 2.154935 -8.125602 0 -8.125602 
C -2.154935 -8.125602 -4.221899 -7.269438 -5.745669 -5.745669 
C -7.269438 -4.221899 -8.125602 -2.154935 -8.125602 0 
C -8.125602 2.154935 -7.269438 4.221899 -5.745669 5.745669 
C -4.221899 7.269438 -2.154935 8.125602 0 8.125602 
z
" style="stroke: #000000"/>
    </defs>
    <g clip-path="url(#p58855cf352)">
     <use xlink:href="#m02c551d444" x="282.051355" y="110.78449" style="stroke: #000000"/>
    </g>
   </g>
   <g id="line2d_7">
    <defs>
     <path id="m1f3db8cf26" d="M 0 7.790262 
C 2.066002 7.790262 4.047663 6.969431 5.508547 5.508547 
C 6.969431 4.047663 7.790262 2.066002 7.790262 0 
C 7.790262 -2.066002 6.969431 -4.047663 5.508547 -5.508547 
C 4.047663 -6.969431 2.066002 -7.790262 0 -7.790262 
C -2.066002 -7.790262 -4.047663 -6.969431 -5.508547 -5.508547 
C -6.969431 -4.047663 -7.790262 -2.066002 -7.790262 0 
C -7.790262 2.066002 -6.969431 4.047663 -5.508547 5.508547 
C -4.047663 6.969431 -2.066002 7.790262 0 7.790262 
z
" style="stroke: #000000"/>
    </defs>
    <g clip-path="url(#p58855cf352)">
     <use xlink:href="#m1f3db8cf26" x="482.07549" y="307.8" style="stroke: #000000"/>
    </g>
   </g>
   <g id="line2d_8">
    <defs>
     <path id="m3c6775a5c0" d="M 0 7.722394 
C 2.048003 7.722394 4.012401 6.908714 5.460557 5.460557 
C 6.908714 4.012401 7.722394 2.048003 7.722394 0 
C 7.722394 -2.048003 6.908714 -4.012401 5.460557 -5.460557 
C 4.012401 -6.908714 2.048003 -7.722394 0 -7.722394 
C -2.048003 -7.722394 -4.012401 -6.908714 -5.460557 -5.460557 
C -6.908714 -4.012401 -7.722394 -2.048003 -7.722394 0 
C -7.722394 2.048003 -6.908714 4.012401 -5.460557 5.460557 
C -4.012401 6.908714 -2.048003 7.722394 0 7.722394 
z
" style="stroke: #000000"/>
    </defs>
    <g clip-path="url(#p58855cf352)">
     <use xlink:href="#m3c6775a5c0" x="287.399259" y="100.501706" style="stroke: #000000"/>
    </g>
   </g>
   <g id="line2d_9">
    <defs>
     <path id="ma50ba019b2" d="M 0 7.65073 
C 2.028997 7.65073 3.975165 6.844601 5.409883 5.409883 
C 6.844601 3.975165 7.65073 2.028997 7.65073 0 
C 7.65073 -2.028997 6.844601 -3.975165 5.409883 -5.409883 
C 3.975165 -6.844601 2.028997 -7.65073 0 -7.65073 
C -2.028997 -7.65073 -3.975165 -6.844601 -5.409883 -5.409883 
C -6.844601 -3.975165 -7.65073 -2.028997 -7.65073 0 
C -7.65073 2.028997 -6.844601 3.975165 -5.409883 5.409883 
C -3.975165 6.844601 -2.028997 7.65073 0 7.65073 
z
" style="stroke: #000000"/>
    </defs>
    <g clip-path="url(#p58855cf352)">
     <use xlink:href="#ma50ba019b2" x="300.452463" y="276.570075" style="stroke: #000000"/>
    </g>
   </g>
   <g id="line2d_10">
    <defs>
     <path id="mb9acd3a0a5" d="M 0 7.62088 
C 2.021081 7.62088 3.959656 6.817896 5.388776 5.388776 
C 6.817896 3.959656 7.62088 2.021081 7.62088 0 
C 7.62088 -2.021081 6.817896 -3.959656 5.388776 -5.388776 
C 3.959656 -6.817896 2.021081 -7.62088 0 -7.62088 
C -2.021081 -7.62088 -3.959656 -6.817896 -5.388776 -5.388776 
C -6.817896 -3.959656 -7.62088 -2.021081 -7.62088 0 
C -7.62088 2.021081 -6.817896 3.959656 -5.388776 5.388776 
C -3.959656 6.817896 -2.021081 7.62088 0 7.62088 
z
" style="stroke: #000000"/>
    </defs>
    <g clip-path="url(#p58855cf352)">
     <use xlink:href="#mb9acd3a0a5" x="255.92451" y="90.291234" style="stroke: #000000"/>
    </g>
   </g>
  </g>
 </g>
 <defs>
  <clipPath id="p58855cf352">
   <path d="M 244.616961 320.4 
L 244.616961 43.2 
L 493.383039 43.2 
L 493.383039 320.4 
L 244.616961 320.4 
"/>
  </clipPath>
 </defs>
</svg>
