<?xml version="1.0" encoding="utf-8" standalone="no"?>
<!DOCTYPE svg PUBLIC "-//W3C//DTD SVG 1.1//EN"
  "http://www.w3.org/Graphics/SVG/1.1/DTD/svg11.dtd">
<svg xmlns:xlink="http://www.w3.org/1999/xlink" width="720pt" height="360pt" viewBox="0 0 720 360" xmlns="http://www.w3.org/2000/svg" version="1.1">
 <metadata>
  <rdf:RDF xmlns:dc="http://purl.org/dc/elements/1.1/" xmlns:cc="http://creativecommons.org/ns#" xmlns:rdf="http://www.w3.org/1999/02/22-rdf-syntax-ns#">
   <cc:Work>
    <dc:type rdf:resource="http://purl.org/dc/dcmitype/StillImage"/>
    <dc:date>2023-11-30T21:30:51.271436</dc:date>
    <dc:format>image/svg+xml</dc:format>
    <dc:creator>
     <cc:Agent>
      <dc:title>Matplotlib v3.8.1, https://matplotlib.org/</dc:title>
     </cc:Agent>
    </dc:creator>
   </cc:Work>
  </rdf:RDF>
 </metadata>
 <defs>
  <style type="text/css">*{stroke-linejoin: round; stroke-linecap: butt}</style>
 </defs>
 <g id="figure_1">
  <g id="patch_1">
   <path d="M 0 360 
L 720 360 
L 720 0 
L 0 0 
z
" style="fill: #ffffff"/>
  </g>
  <g id="axes_1">
   <g id="patch_2">
    <path d="M 90 276.420892 
L 90 87.179108 
L 648 87.179108 
L 648 276.420892 
L 90 276.420892 
" style="fill: #ffffff"/>
   </g>
   <g id="line2d_1">
    <defs>
     <path id="mb26dac39a0" d="M 0 9.502339 
C 2.52005 9.502339 4.937224 8.501113 6.719169 6.719169 
C 8.501113 4.937224 9.502339 2.52005 9.502339 0 
C 9.502339 -2.52005 8.501113 -4.937224 6.719169 -6.719169 
C 4.937224 -8.501113 2.52005 -9.502339 0 -9.502339 
C -2.52005 -9.502339 -4.937224 -8.501113 -6.719169 -6.719169 
C -8.501113 -4.937224 -9.502339 -2.52005 -9.502339 0 
C -9.502339 2.52005 -8.501113 4.937224 -6.719169 6.719169 
C -4.937224 8.501113 -2.52005 9.502339 0 9.502339 
z
" style="stroke: #000000"/>
    </defs>
    <g clip-path="url(#peb0602635f)">
     <use xlink:href="#mb26dac39a0" x="292.150572" y="198.482304" style="stroke: #000000"/>
    </g>
   </g>
   <g id="line2d_2">
    <defs>
     <path id="mf48ed8469a" d="M 0 9.165417 
C 2.430697 9.165417 4.762166 8.199691 6.480928 6.480928 
C 8.199691 4.762166 9.165417 2.430697 9.165417 0 
C 9.165417 -2.430697 8.199691 -4.762166 6.480928 -6.480928 
C 4.762166 -8.199691 2.430697 -9.165417 0 -9.165417 
C -2.430697 -9.165417 -4.762166 -8.199691 -6.480928 -6.480928 
C -8.199691 -4.762166 -9.165417 -2.430697 -9.165417 0 
C -9.165417 2.430697 -8.199691 4.762166 -6.480928 6.480928 
C -4.762166 8.199691 -2.430697 9.165417 0 9.165417 
z
" style="stroke: #000000"/>
    </defs>
    <g clip-path="url(#peb0602635f)">
     <use xlink:href="#mf48ed8469a" x="307.719305" y="191.448289" style="stroke: #000000"/>
    </g>
   </g>
   <g id="line2d_3">
    <defs>
     <path id="m734cce607f" d="M 0 8.957447 
C 2.375543 8.957447 4.654109 8.013633 6.333871 6.333871 
C 8.013633 4.654109 8.957447 2.375543 8.957447 0 
C 8.957447 -2.375543 8.013633 -4.654109 6.333871 -6.333871 
C 4.654109 -8.013633 2.375543 -8.957447 0 -8.957447 
C -2.375543 -8.957447 -4.654109 -8.013633 -6.333871 -6.333871 
C -8.013633 -4.654109 -8.957447 -2.375543 -8.957447 0 
C -8.957447 2.375543 -8.013633 4.654109 -6.333871 6.333871 
C -4.654109 8.013633 -2.375543 8.957447 0 8.957447 
z
" style="stroke: #000000"/>
    </defs>
    <g clip-path="url(#peb0602635f)">
     <use xlink:href="#m734cce607f" x="622.636364" y="267.818993" style="stroke: #000000"/>
    </g>
   </g>
   <g id="line2d_4">
    <defs>
     <path id="m02d241c9d0" d="M 0 8.715316 
C 2.311329 8.715316 4.528303 7.797015 6.162659 6.162659 
C 7.797015 4.528303 8.715316 2.311329 8.715316 0 
C 8.715316 -2.311329 7.797015 -4.528303 6.162659 -6.162659 
C 4.528303 -7.797015 2.311329 -8.715316 0 -8.715316 
C -2.311329 -8.715316 -4.528303 -7.797015 -6.162659 -6.162659 
C -7.797015 -4.528303 -8.715316 -2.311329 -8.715316 0 
C -8.715316 2.311329 -7.797015 4.528303 -6.162659 6.162659 
C -4.528303 7.797015 -2.311329 8.715316 0 8.715316 
z
" style="stroke: #000000"/>
    </defs>
    <g clip-path="url(#peb0602635f)">
     <use xlink:href="#m02d241c9d0" x="169.503586" y="95.781007" style="stroke: #000000"/>
    </g>
   </g>
   <g id="line2d_5">
    <defs>
     <path id="mb431fa189e" d="M 0 8.645288 
C 2.292757 8.645288 4.491918 7.734366 6.113142 6.113142 
C 7.734366 4.491918 8.645288 2.292757 8.645288 0 
C 8.645288 -2.292757 7.734366 -4.491918 6.113142 -6.113142 
C 4.491918 -7.734366 2.292757 -8.645288 0 -8.645288 
C -2.292757 -8.645288 -4.491918 -7.734366 -6.113142 -6.113142 
C -7.734366 -4.491918 -8.645288 -2.292757 -8.645288 0 
C -8.645288 2.292757 -7.734366 4.491918 -6.113142 6.113142 
C -4.491918 7.734366 -2.292757 8.645288 0 8.645288 
z
" style="stroke: #000000"/>
    </defs>
    <g clip-path="url(#peb0602635f)">
     <use xlink:href="#mb431fa189e" x="291.880613" y="186.824822" style="stroke: #000000"/>
    </g>
   </g>
   <g id="line2d_6">
    <defs>
     <path id="m00b0a3b1e1" d="M 0 8.464022 
C 2.244685 8.464022 4.397735 7.572199 5.984967 5.984967 
C 7.572199 4.397735 8.464022 2.244685 8.464022 0 
C 8.464022 -2.244685 7.572199 -4.397735 5.984967 -5.984967 
C 4.397735 -7.572199 2.244685 -8.464022 0 -8.464022 
C -2.244685 -8.464022 -4.397735 -7.572199 -5.984967 -5.984967 
C -7.572199 -4.397735 -8.464022 -2.244685 -8.464022 0 
C -8.464022 2.244685 -7.572199 4.397735 -5.984967 5.984967 
C -4.397735 7.572199 -2.244685 8.464022 0 8.464022 
z
" style="stroke: #000000"/>
    </defs>
    <g clip-path="url(#peb0602635f)">
     <use xlink:href="#m00b0a3b1e1" x="261.68471" y="202.66066" style="stroke: #000000"/>
    </g>
   </g>
   <g id="line2d_7">
    <defs>
     <path id="m07f90d8391" d="M 0 8.387593 
C 2.224416 8.387593 4.358024 7.503823 5.930924 5.930924 
C 7.503823 4.358024 8.387593 2.224416 8.387593 0 
C 8.387593 -2.224416 7.503823 -4.358024 5.930924 -5.930924 
C 4.358024 -7.503823 2.224416 -8.387593 0 -8.387593 
C -2.224416 -8.387593 -4.358024 -7.503823 -5.930924 -5.930924 
C -7.503823 -4.358024 -8.387593 -2.224416 -8.387593 0 
C -8.387593 2.224416 -7.503823 4.358024 -5.930924 5.930924 
C -4.358024 7.503823 -2.224416 8.387593 0 8.387593 
z
" style="stroke: #000000"/>
    </defs>
    <g clip-path="url(#peb0602635f)">
     <use xlink:href="#m07f90d8391" x="294.787611" y="158.785175" style="stroke: #000000"/>
    </g>
   </g>
   <g id="line2d_8">
    <defs>
     <path id="m1ad8788ea9" d="M 0 8.063786 
C 2.138541 8.063786 4.189781 7.214134 5.701957 5.701957 
C 7.214134 4.189781 8.063786 2.138541 8.063786 0 
C 8.063786 -2.138541 7.214134 -4.189781 5.701957 -5.701957 
C 4.189781 -7.214134 2.138541 -8.063786 0 -8.063786 
C -2.138541 -8.063786 -4.189781 -7.214134 -5.701957 -5.701957 
C -7.214134 -4.189781 -8.063786 -2.138541 -8.063786 0 
C -8.063786 2.138541 -7.214134 4.189781 -5.701957 5.701957 
C -4.189781 7.214134 -2.138541 8.063786 0 8.063786 
z
" style="stroke: #000000"/>
    </defs>
    <g clip-path="url(#peb0602635f)">
     <use xlink:href="#m1ad8788ea9" x="298.221357" y="187.585878" style="stroke: #000000"/>
    </g>
   </g>
   <g id="line2d_9">
    <defs>
     <path id="m72702e053e" d="M 0 7.929925 
C 2.103041 7.929925 4.120229 7.094378 5.607304 5.607304 
C 7.094378 4.120229 7.929925 2.103041 7.929925 0 
C 7.929925 -2.103041 7.094378 -4.120229 5.607304 -5.607304 
C 4.120229 -7.094378 2.103041 -7.929925 0 -7.929925 
C -2.103041 -7.929925 -4.120229 -7.094378 -5.607304 -5.607304 
C -7.094378 -4.120229 -7.929925 -2.103041 -7.929925 0 
C -7.929925 2.103041 -7.094378 4.120229 -5.607304 5.607304 
C -4.120229 7.094378 -2.103041 7.929925 0 7.929925 
z
" style="stroke: #000000"/>
    </defs>
    <g clip-path="url(#peb0602635f)">
     <use xlink:href="#m72702e053e" x="115.363636" y="188.535503" style="stroke: #000000"/>
    </g>
   </g>
   <g id="line2d_10">
    <defs>
     <path id="m623ff9c2d8" d="M 0 7.868518 
C 2.086755 7.868518 4.088324 7.039441 5.563882 5.563882 
C 7.039441 4.088324 7.868518 2.086755 7.868518 0 
C 7.868518 -2.086755 7.039441 -4.088324 5.563882 -5.563882 
C 4.088324 -7.039441 2.086755 -7.868518 0 -7.868518 
C -2.086755 -7.868518 -4.088324 -7.039441 -5.563882 -5.563882 
C -7.039441 -4.088324 -7.868518 -2.086755 -7.868518 0 
C -7.868518 2.086755 -7.039441 4.088324 -5.563882 5.563882 
C -4.088324 7.039441 -2.086755 7.868518 0 7.868518 
z
" style="stroke: #000000"/>
    </defs>
    <g clip-path="url(#peb0602635f)">
     <use xlink:href="#m623ff9c2d8" x="293.684729" y="208.000282" style="stroke: #000000"/>
    </g>
   </g>
  </g>
 </g>
 <defs>
  <clipPath id="peb0602635f">
   <path d="M 90 276.420892 
L 90 87.179108 
L 648 87.179108 
L 648 276.420892 
L 90 276.420892 
"/>
  </clipPath>
 </defs>
</svg>
