<?xml version="1.0" encoding="utf-8" standalone="no"?>
<!DOCTYPE svg PUBLIC "-//W3C//DTD SVG 1.1//EN"
  "http://www.w3.org/Graphics/SVG/1.1/DTD/svg11.dtd">
<svg xmlns:xlink="http://www.w3.org/1999/xlink" width="720pt" height="360pt" viewBox="0 0 720 360" xmlns="http://www.w3.org/2000/svg" version="1.1">
 <metadata>
  <rdf:RDF xmlns:dc="http://purl.org/dc/elements/1.1/" xmlns:cc="http://creativecommons.org/ns#" xmlns:rdf="http://www.w3.org/1999/02/22-rdf-syntax-ns#">
   <cc:Work>
    <dc:type rdf:resource="http://purl.org/dc/dcmitype/StillImage"/>
    <dc:date>2023-11-30T21:30:51.314662</dc:date>
    <dc:format>image/svg+xml</dc:format>
    <dc:creator>
     <cc:Agent>
      <dc:title>Matplotlib v3.8.1, https://matplotlib.org/</dc:title>
     </cc:Agent>
    </dc:creator>
   </cc:Work>
  </rdf:RDF>
 </metadata>
 <defs>
  <style type="text/css">*{stroke-linejoin: round; stroke-linecap: butt}</style>
 </defs>
 <g id="figure_1">
  <g id="patch_1">
   <path d="M 0 360 
L 720 360 
L 720 0 
L 0 0 
z
" style="fill: #ffffff"/>
  </g>
  <g id="axes_1">
   <g id="patch_2">
    <path d="M 180.095942 320.4 
L 180.095942 43.2 
L 557.904058 43.2 
L 557.904058 320.4 
L 180.095942 320.4 
" style="fill: #ffffff"/>
   </g>
   <g id="line2d_1">
    <defs>
     <path id="m64fd2bcc91" d="M 0 10.500364 
C 2.784729 10.500364 5.455778 9.39398 7.424879 7.424879 
C 9.39398 5.455778 10.500364 2.784729 10.500364 0 
C 10.500364 -2.784729 9.39398 -5.455778 7.424879 -7.424879 
C 5.455778 -9.39398 2.784729 -10.500364 0 -10.500364 
C -2.784729 -10.500364 -5.455778 -9.39398 -7.424879 -7.424879 
C -9.39398 -5.455778 -10.500364 -2.784729 -10.500364 0 
C -10.500364 2.784729 -9.39398 5.455778 -7.424879 7.424879 
C -5.455778 9.39398 -2.784729 10.500364 0 10.500364 
z
" style="stroke: #000000"/>
    </defs>
    <g clip-path="url(#p598ccc9a6c)">
     <use xlink:href="#m64fd2bcc91" x="292.255716" y="81.590467" style="stroke: #000000"/>
    </g>
   </g>
   <g id="line2d_2">
    <defs>
     <path id="mf488a34a3d" d="M 0 10.290889 
C 2.729176 10.290889 5.346939 9.206576 7.276757 7.276757 
C 9.206576 5.346939 10.290889 2.729176 10.290889 0 
C 10.290889 -2.729176 9.206576 -5.346939 7.276757 -7.276757 
C 5.346939 -9.206576 2.729176 -10.290889 0 -10.290889 
C -2.729176 -10.290889 -5.346939 -9.206576 -7.276757 -7.276757 
C -9.206576 -5.346939 -10.290889 -2.729176 -10.290889 0 
C -10.290889 2.729176 -9.206576 5.346939 -7.276757 7.276757 
C -5.346939 9.206576 -2.729176 10.290889 0 10.290889 
z
" style="stroke: #000000"/>
    </defs>
    <g clip-path="url(#p598ccc9a6c)">
     <use xlink:href="#mf488a34a3d" x="231.989964" y="307.8" style="stroke: #000000"/>
    </g>
   </g>
   <g id="line2d_3">
    <defs>
     <path id="m6d70e5c7d8" d="M 0 9.782295 
C 2.594295 9.782295 5.082684 8.751571 6.917127 6.917127 
C 8.751571 5.082684 9.782295 2.594295 9.782295 0 
C 9.782295 -2.594295 8.751571 -5.082684 6.917127 -6.917127 
C 5.082684 -8.751571 2.594295 -9.782295 0 -9.782295 
C -2.594295 -9.782295 -5.082684 -8.751571 -6.917127 -6.917127 
C -8.751571 -5.082684 -9.782295 -2.594295 -9.782295 0 
C -9.782295 2.594295 -8.751571 5.082684 -6.917127 6.917127 
C -5.082684 8.751571 -2.594295 9.782295 0 9.782295 
z
" style="stroke: #000000"/>
    </defs>
    <g clip-path="url(#p598ccc9a6c)">
     <use xlink:href="#m6d70e5c7d8" x="261.926432" y="206.453549" style="stroke: #000000"/>
    </g>
   </g>
   <g id="line2d_4">
    <defs>
     <path id="mee32ce5cc7" d="M 0 9.717714 
C 2.577168 9.717714 5.049129 8.693794 6.871462 6.871462 
C 8.693794 5.049129 9.717714 2.577168 9.717714 0 
C 9.717714 -2.577168 8.693794 -5.049129 6.871462 -6.871462 
C 5.049129 -8.693794 2.577168 -9.717714 0 -9.717714 
C -2.577168 -9.717714 -5.049129 -8.693794 -6.871462 -6.871462 
C -8.693794 -5.049129 -9.717714 -2.577168 -9.717714 0 
C -9.717714 2.577168 -8.693794 5.049129 -6.871462 6.871462 
C -5.049129 8.693794 -2.577168 9.717714 0 9.717714 
z
" style="stroke: #000000"/>
    </defs>
    <g clip-path="url(#p598ccc9a6c)">
     <use xlink:href="#mee32ce5cc7" x="197.269038" y="138.579544" style="stroke: #000000"/>
    </g>
   </g>
   <g id="line2d_5">
    <defs>
     <path id="md364484dea" d="M 0 9.51047 
C 2.522206 9.51047 4.941449 8.508387 6.724918 6.724918 
C 8.508387 4.941449 9.51047 2.522206 9.51047 0 
C 9.51047 -2.522206 8.508387 -4.941449 6.724918 -6.724918 
C 4.941449 -8.508387 2.522206 -9.51047 0 -9.51047 
C -2.522206 -9.51047 -4.941449 -8.508387 -6.724918 -6.724918 
C -8.508387 -4.941449 -9.51047 -2.522206 -9.51047 0 
C -9.51047 2.522206 -8.508387 4.941449 -6.724918 6.724918 
C -4.941449 8.508387 -2.522206 9.51047 0 9.51047 
z
" style="stroke: #000000"/>
    </defs>
    <g clip-path="url(#p598ccc9a6c)">
     <use xlink:href="#md364484dea" x="420.195302" y="102.790447" style="stroke: #000000"/>
    </g>
   </g>
   <g id="line2d_6">
    <defs>
     <path id="mc356786240" d="M 0 9.406582 
C 2.494655 9.406582 4.887471 8.415445 6.651458 6.651458 
C 8.415445 4.887471 9.406582 2.494655 9.406582 0 
C 9.406582 -2.494655 8.415445 -4.887471 6.651458 -6.651458 
C 4.887471 -8.415445 2.494655 -9.406582 0 -9.406582 
C -2.494655 -9.406582 -4.887471 -8.415445 -6.651458 -6.651458 
C -8.415445 -4.887471 -9.406582 -2.494655 -9.406582 0 
C -9.406582 2.494655 -8.415445 4.887471 -6.651458 6.651458 
C -4.887471 8.415445 -2.494655 9.406582 0 9.406582 
z
" style="stroke: #000000"/>
    </defs>
    <g clip-path="url(#p598ccc9a6c)">
     <use xlink:href="#mc356786240" x="264.312426" y="172.386955" style="stroke: #000000"/>
    </g>
   </g>
   <g id="line2d_7">
    <defs>
     <path id="m32027aac74" d="M 0 9.40301 
C 2.493708 9.40301 4.885615 8.41225 6.648932 6.648932 
C 8.41225 4.885615 9.40301 2.493708 9.40301 0 
C 9.40301 -2.493708 8.41225 -4.885615 6.648932 -6.648932 
C 4.885615 -8.41225 2.493708 -9.40301 0 -9.40301 
C -2.493708 -9.40301 -4.885615 -8.41225 -6.648932 -6.648932 
C -8.41225 -4.885615 -9.40301 -2.493708 -9.40301 0 
C -9.40301 2.493708 -8.41225 4.885615 -6.648932 6.648932 
C -4.885615 8.41225 -2.493708 9.40301 0 9.40301 
z
" style="stroke: #000000"/>
    </defs>
    <g clip-path="url(#p598ccc9a6c)">
     <use xlink:href="#m32027aac74" x="203.953147" y="192.829434" style="stroke: #000000"/>
    </g>
   </g>
   <g id="line2d_8">
    <defs>
     <path id="m218bf5772c" d="M 0 9.344204 
C 2.478112 9.344204 4.85506 8.359639 6.60735 6.60735 
C 8.359639 4.85506 9.344204 2.478112 9.344204 0 
C 9.344204 -2.478112 8.359639 -4.85506 6.60735 -6.60735 
C 4.85506 -8.359639 2.478112 -9.344204 0 -9.344204 
C -2.478112 -9.344204 -4.85506 -8.359639 -6.60735 -6.60735 
C -8.359639 -4.85506 -9.344204 -2.478112 -9.344204 0 
C -9.344204 2.478112 -8.359639 4.85506 -6.60735 6.60735 
C -4.85506 8.359639 -2.478112 9.344204 0 9.344204 
z
" style="stroke: #000000"/>
    </defs>
    <g clip-path="url(#p598ccc9a6c)">
     <use xlink:href="#m218bf5772c" x="540.730962" y="55.8" style="stroke: #000000"/>
    </g>
   </g>
   <g id="line2d_9">
    <defs>
     <path id="m8ad6184c1a" d="M 0 9.026096 
C 2.393749 9.026096 4.689778 8.075049 6.382413 6.382413 
C 8.075049 4.689778 9.026096 2.393749 9.026096 0 
C 9.026096 -2.393749 8.075049 -4.689778 6.382413 -6.382413 
C 4.689778 -8.075049 2.393749 -9.026096 0 -9.026096 
C -2.393749 -9.026096 -4.689778 -8.075049 -6.382413 -6.382413 
C -8.075049 -4.689778 -9.026096 -2.393749 -9.026096 0 
C -9.026096 2.393749 -8.075049 4.689778 -6.382413 6.382413 
C -4.689778 8.075049 -2.393749 9.026096 0 9.026096 
z
" style="stroke: #000000"/>
    </defs>
    <g clip-path="url(#p598ccc9a6c)">
     <use xlink:href="#m8ad6184c1a" x="498.686475" y="155.153911" style="stroke: #000000"/>
    </g>
   </g>
   <g id="line2d_10">
    <defs>
     <path id="m7138d726c8" d="M 0 8.498204 
C 2.25375 8.498204 4.415496 7.602779 6.009137 6.009137 
C 7.602779 4.415496 8.498204 2.25375 8.498204 0 
C 8.498204 -2.25375 7.602779 -4.415496 6.009137 -6.009137 
C 4.415496 -7.602779 2.25375 -8.498204 0 -8.498204 
C -2.25375 -8.498204 -4.415496 -7.602779 -6.009137 -6.009137 
C -7.602779 -4.415496 -8.498204 -2.25375 -8.498204 0 
C -8.498204 2.25375 -7.602779 4.415496 -6.009137 6.009137 
C -4.415496 7.602779 -2.25375 8.498204 0 8.498204 
z
" style="stroke: #000000"/>
    </defs>
    <g clip-path="url(#p598ccc9a6c)">
     <use xlink:href="#m7138d726c8" x="316.817462" y="67.10562" style="stroke: #000000"/>
    </g>
   </g>
  </g>
 </g>
 <defs>
  <clipPath id="p598ccc9a6c">
   <path d="M 180.095942 320.4 
L 180.095942 43.2 
L 557.904058 43.2 
L 557.904058 320.4 
L 180.095942 320.4 
"/>
  </clipPath>
 </defs>
</svg>
