<?xml version="1.0" encoding="utf-8" standalone="no"?>
<!DOCTYPE svg PUBLIC "-//W3C//DTD SVG 1.1//EN"
  "http://www.w3.org/Graphics/SVG/1.1/DTD/svg11.dtd">
<svg xmlns:xlink="http://www.w3.org/1999/xlink" width="720pt" height="360pt" viewBox="0 0 720 360" xmlns="http://www.w3.org/2000/svg" version="1.1">
 <metadata>
  <rdf:RDF xmlns:dc="http://purl.org/dc/elements/1.1/" xmlns:cc="http://creativecommons.org/ns#" xmlns:rdf="http://www.w3.org/1999/02/22-rdf-syntax-ns#">
   <cc:Work>
    <dc:type rdf:resource="http://purl.org/dc/dcmitype/StillImage"/>
    <dc:date>2023-11-30T21:30:51.356372</dc:date>
    <dc:format>image/svg+xml</dc:format>
    <dc:creator>
     <cc:Agent>
      <dc:title>Matplotlib v3.8.1, https://matplotlib.org/</dc:title>
     </cc:Agent>
    </dc:creator>
   </cc:Work>
  </rdf:RDF>
 </metadata>
 <defs>
  <style type="text/css">*{stroke-linejoin: round; stroke-linecap: butt}</style>
 </defs>
 <g id="figure_1">
  <g id="patch_1">
   <path d="M 0 360 
L 720 360 
L 720 0 
L 0 0 
z
" style="fill: #ffffff"/>
  </g>
  <g id="axes_1">
   <g id="patch_2">
    <path d="M 288.245368 320.4 
L 288.245368 43.2 
L 449.754632 43.2 
L 449.754632 320.4 
L 288.245368 320.4 
" style="fill: #ffffff"/>
   </g>
   <g id="line2d_1">
    <defs>
     <path id="m60c1a7108d" d="M 0 8.377091 
C 2.221631 8.377091 4.352568 7.494428 5.923498 5.923498 
C 7.494428 4.352568 8.377091 2.221631 8.377091 0 
C 8.377091 -2.221631 7.494428 -4.352568 5.923498 -5.923498 
C 4.352568 -7.494428 2.221631 -8.377091 0 -8.377091 
C -2.221631 -8.377091 -4.352568 -7.494428 -5.923498 -5.923498 
C -7.494428 -4.352568 -8.377091 -2.221631 -8.377091 0 
C -8.377091 2.221631 -7.494428 4.352568 -5.923498 5.923498 
C -4.352568 7.494428 -2.221631 8.377091 0 8.377091 
z
" style="stroke: #000000"/>
    </defs>
    <g clip-path="url(#p201458f856)">
     <use xlink:href="#m60c1a7108d" x="340.093439" y="163.417983" style="stroke: #000000"/>
    </g>
   </g>
   <g id="line2d_2">
    <defs>
     <path id="mc80fd3d653" d="M 0 8.108932 
C 2.150514 8.108932 4.213238 7.254523 5.73388 5.73388 
C 7.254523 4.213238 8.108932 2.150514 8.108932 0 
C 8.108932 -2.150514 7.254523 -4.213238 5.73388 -5.73388 
C 4.213238 -7.254523 2.150514 -8.108932 0 -8.108932 
C -2.150514 -8.108932 -4.213238 -7.254523 -5.73388 -5.73388 
C -7.254523 -4.213238 -8.108932 -2.150514 -8.108932 0 
C -8.108932 2.150514 -7.254523 4.213238 -5.73388 5.73388 
C -4.213238 7.254523 -2.150514 8.108932 0 8.108932 
z
" style="stroke: #000000"/>
    </defs>
    <g clip-path="url(#p201458f856)">
     <use xlink:href="#mc80fd3d653" x="295.586698" y="126.922808" style="stroke: #000000"/>
    </g>
   </g>
   <g id="line2d_3">
    <defs>
     <path id="m9525780ee4" d="M 0 6.668184 
C 1.768423 6.668184 3.464654 5.965582 4.715118 4.715118 
C 5.965582 3.464654 6.668184 1.768423 6.668184 0 
C 6.668184 -1.768423 5.965582 -3.464654 4.715118 -4.715118 
C 3.464654 -5.965582 1.768423 -6.668184 0 -6.668184 
C -1.768423 -6.668184 -3.464654 -5.965582 -4.715118 -4.715118 
C -5.965582 -3.464654 -6.668184 -1.768423 -6.668184 0 
C -6.668184 1.768423 -5.965582 3.464654 -4.715118 4.715118 
C -3.464654 5.965582 -1.768423 6.668184 0 6.668184 
z
" style="stroke: #000000"/>
    </defs>
    <g clip-path="url(#p201458f856)">
     <use xlink:href="#m9525780ee4" x="439.907531" y="227.231158" style="stroke: #000000"/>
    </g>
   </g>
   <g id="line2d_4">
    <defs>
     <path id="mdd3c700d15" d="M 0 6.623741 
C 1.756637 6.623741 3.441563 5.925822 4.683692 4.683692 
C 5.925822 3.441563 6.623741 1.756637 6.623741 0 
C 6.623741 -1.756637 5.925822 -3.441563 4.683692 -4.683692 
C 3.441563 -5.925822 1.756637 -6.623741 0 -6.623741 
C -1.756637 -6.623741 -3.441563 -5.925822 -4.683692 -4.683692 
C -5.925822 -3.441563 -6.623741 -1.756637 -6.623741 0 
C -6.623741 1.756637 -5.925822 3.441563 -4.683692 4.683692 
C -3.441563 5.925822 -1.756637 6.623741 0 6.623741 
z
" style="stroke: #000000"/>
    </defs>
    <g clip-path="url(#p201458f856)">
     <use xlink:href="#mdd3c700d15" x="304.60675" y="177.021683" style="stroke: #000000"/>
    </g>
   </g>
   <g id="line2d_5">
    <defs>
     <path id="mb23e0c5ca9" d="M 0 6.569216 
C 1.742176 6.569216 3.413232 5.877042 4.645137 4.645137 
C 5.877042 3.413232 6.569216 1.742176 6.569216 0 
C 6.569216 -1.742176 5.877042 -3.413232 4.645137 -4.645137 
C 3.413232 -5.877042 1.742176 -6.569216 0 -6.569216 
C -1.742176 -6.569216 -3.413232 -5.877042 -4.645137 -4.645137 
C -5.877042 -3.413232 -6.569216 -1.742176 -6.569216 0 
C -6.569216 1.742176 -5.877042 3.413232 -4.645137 4.645137 
C -3.413232 5.877042 -1.742176 6.569216 0 6.569216 
z
" style="stroke: #000000"/>
    </defs>
    <g clip-path="url(#p201458f856)">
     <use xlink:href="#mb23e0c5ca9" x="307.312766" y="286.733453" style="stroke: #000000"/>
    </g>
   </g>
   <g id="line2d_6">
    <defs>
     <path id="m23797664d7" d="M 0 6.539492 
C 1.734294 6.539492 3.397789 5.85045 4.624119 4.624119 
C 5.85045 3.397789 6.539492 1.734294 6.539492 0 
C 6.539492 -1.734294 5.85045 -3.397789 4.624119 -4.624119 
C 3.397789 -5.85045 1.734294 -6.539492 0 -6.539492 
C -1.734294 -6.539492 -3.397789 -5.85045 -4.624119 -4.624119 
C -5.85045 -3.397789 -6.539492 -1.734294 -6.539492 0 
C -6.539492 1.734294 -5.85045 3.397789 -4.624119 4.624119 
C -3.397789 5.85045 -1.734294 6.539492 0 6.539492 
z
" style="stroke: #000000"/>
    </defs>
    <g clip-path="url(#p201458f856)">
     <use xlink:href="#m23797664d7" x="424.874713" y="70.274642" style="stroke: #000000"/>
    </g>
   </g>
   <g id="line2d_7">
    <defs>
     <path id="mb02a624bec" d="M 0 6.36183 
C 1.687177 6.36183 3.305479 5.691508 4.498493 4.498493 
C 5.691508 3.305479 6.36183 1.687177 6.36183 0 
C 6.36183 -1.687177 5.691508 -3.305479 4.498493 -4.498493 
C 3.305479 -5.691508 1.687177 -6.36183 0 -6.36183 
C -1.687177 -6.36183 -3.305479 -5.691508 -4.498493 -4.498493 
C -5.691508 -3.305479 -6.36183 -1.687177 -6.36183 0 
C -6.36183 1.687177 -5.691508 3.305479 -4.498493 4.498493 
C -3.305479 5.691508 -1.687177 6.36183 0 6.36183 
z
" style="stroke: #000000"/>
    </defs>
    <g clip-path="url(#p201458f856)">
     <use xlink:href="#mb02a624bec" x="382.781738" y="307.8" style="stroke: #000000"/>
    </g>
   </g>
   <g id="line2d_8">
    <defs>
     <path id="m48175316b4" d="M 0 6.293537 
C 1.669066 6.293537 3.269995 5.63041 4.450203 4.450203 
C 5.63041 3.269995 6.293537 1.669066 6.293537 0 
C 6.293537 -1.669066 5.63041 -3.269995 4.450203 -4.450203 
C 3.269995 -5.63041 1.669066 -6.293537 0 -6.293537 
C -1.669066 -6.293537 -3.269995 -5.63041 -4.450203 -4.450203 
C -5.63041 -3.269995 -6.293537 -1.669066 -6.293537 0 
C -6.293537 1.669066 -5.63041 3.269995 -4.450203 4.450203 
C -3.269995 5.63041 -1.669066 6.293537 0 6.293537 
z
" style="stroke: #000000"/>
    </defs>
    <g clip-path="url(#p201458f856)">
     <use xlink:href="#m48175316b4" x="442.413302" y="154.128894" style="stroke: #000000"/>
    </g>
   </g>
   <g id="line2d_9">
    <defs>
     <path id="m355bca3d6a" d="M 0 6.244799 
C 1.65614 6.244799 3.244672 5.586807 4.415739 4.415739 
C 5.586807 3.244672 6.244799 1.65614 6.244799 0 
C 6.244799 -1.65614 5.586807 -3.244672 4.415739 -4.415739 
C 3.244672 -5.586807 1.65614 -6.244799 0 -6.244799 
C -1.65614 -6.244799 -3.244672 -5.586807 -4.415739 -4.415739 
C -5.586807 -3.244672 -6.244799 -1.65614 -6.244799 0 
C -6.244799 1.65614 -5.586807 3.244672 -4.415739 4.415739 
C -3.244672 5.586807 -1.65614 6.244799 0 6.244799 
z
" style="stroke: #000000"/>
    </defs>
    <g clip-path="url(#p201458f856)">
     <use xlink:href="#m355bca3d6a" x="316.031548" y="55.8" style="stroke: #000000"/>
    </g>
   </g>
   <g id="line2d_10">
    <defs>
     <path id="m93d9ade3fc" d="M 0 6.077093 
C 1.611664 6.077093 3.157535 5.436772 4.297153 4.297153 
C 5.436772 3.157535 6.077093 1.611664 6.077093 0 
C 6.077093 -1.611664 5.436772 -3.157535 4.297153 -4.297153 
C 3.157535 -5.436772 1.611664 -6.077093 0 -6.077093 
C -1.611664 -6.077093 -3.157535 -5.436772 -4.297153 -4.297153 
C -5.436772 -3.157535 -6.077093 -1.611664 -6.077093 0 
C -6.077093 1.611664 -5.436772 3.157535 -4.297153 4.297153 
C -3.157535 5.436772 -1.611664 6.077093 0 6.077093 
z
" style="stroke: #000000"/>
    </defs>
    <g clip-path="url(#p201458f856)">
     <use xlink:href="#m93d9ade3fc" x="307.614036" y="156.968942" style="stroke: #000000"/>
    </g>
   </g>
  </g>
 </g>
 <defs>
  <clipPath id="p201458f856">
   <path d="M 288.245368 320.4 
L 288.245368 43.2 
L 449.754632 43.2 
L 449.754632 320.4 
L 288.245368 320.4 
"/>
  </clipPath>
 </defs>
</svg>
