<?xml version="1.0" encoding="utf-8" standalone="no"?>
<!DOCTYPE svg PUBLIC "-//W3C//DTD SVG 1.1//EN"
  "http://www.w3.org/Graphics/SVG/1.1/DTD/svg11.dtd">
<svg xmlns:xlink="http://www.w3.org/1999/xlink" width="720pt" height="360pt" viewBox="0 0 720 360" xmlns="http://www.w3.org/2000/svg" version="1.1">
 <metadata>
  <rdf:RDF xmlns:dc="http://purl.org/dc/elements/1.1/" xmlns:cc="http://creativecommons.org/ns#" xmlns:rdf="http://www.w3.org/1999/02/22-rdf-syntax-ns#">
   <cc:Work>
    <dc:type rdf:resource="http://purl.org/dc/dcmitype/StillImage"/>
    <dc:date>2023-11-30T21:30:51.403376</dc:date>
    <dc:format>image/svg+xml</dc:format>
    <dc:creator>
     <cc:Agent>
      <dc:title>Matplotlib v3.8.1, https://matplotlib.org/</dc:title>
     </cc:Agent>
    </dc:creator>
   </cc:Work>
  </rdf:RDF>
 </metadata>
 <defs>
  <style type="text/css">*{stroke-linejoin: round; stroke-linecap: butt}</style>
 </defs>
 <g id="figure_1">
  <g id="patch_1">
   <path d="M 0 360 
L 720 360 
L 720 0 
L 0 0 
z
" style="fill: #ffffff"/>
  </g>
  <g id="axes_1">
   <g id="patch_2">
    <path d="M 214.760773 320.4 
L 214.760773 43.2 
L 523.239227 43.2 
L 523.239227 320.4 
L 214.760773 320.4 
" style="fill: #ffffff"/>
   </g>
   <g id="line2d_1">
    <defs>
     <path id="me3028589dd" d="M 0 9.729902 
C 2.5804 9.729902 5.055461 8.704698 6.88008 6.88008 
C 8.704698 5.055461 9.729902 2.5804 9.729902 0 
C 9.729902 -2.5804 8.704698 -5.055461 6.88008 -6.88008 
C 5.055461 -8.704698 2.5804 -9.729902 0 -9.729902 
C -2.5804 -9.729902 -5.055461 -8.704698 -6.88008 -6.88008 
C -8.704698 -5.055461 -9.729902 -2.5804 -9.729902 0 
C -9.729902 2.5804 -8.704698 5.055461 -6.88008 6.88008 
C -5.055461 8.704698 -2.5804 9.729902 0 9.729902 
z
" style="stroke: #000000"/>
    </defs>
    <g clip-path="url(#pff897371dc)">
     <use xlink:href="#me3028589dd" x="235.273775" y="138.927472" style="stroke: #000000"/>
    </g>
   </g>
   <g id="line2d_2">
    <defs>
     <path id="mcbb79211a0" d="M 0 8.522197 
C 2.260113 8.522197 4.427962 7.624245 6.026103 6.026103 
C 7.624245 4.427962 8.522197 2.260113 8.522197 0 
C 8.522197 -2.260113 7.624245 -4.427962 6.026103 -6.026103 
C 4.427962 -7.624245 2.260113 -8.522197 0 -8.522197 
C -2.260113 -8.522197 -4.427962 -7.624245 -6.026103 -6.026103 
C -7.624245 -4.427962 -8.522197 -2.260113 -8.522197 0 
C -8.522197 2.260113 -7.624245 4.427962 -6.026103 6.026103 
C -4.427962 7.624245 -2.260113 8.522197 0 8.522197 
z
" style="stroke: #000000"/>
    </defs>
    <g clip-path="url(#pff897371dc)">
     <use xlink:href="#mcbb79211a0" x="284.156729" y="307.8" style="stroke: #000000"/>
    </g>
   </g>
   <g id="line2d_3">
    <defs>
     <path id="m9c61d15818" d="M 0 8.322836 
C 2.207242 8.322836 4.324378 7.44589 5.885134 5.885134 
C 7.44589 4.324378 8.322836 2.207242 8.322836 0 
C 8.322836 -2.207242 7.44589 -4.324378 5.885134 -5.885134 
C 4.324378 -7.44589 2.207242 -8.322836 0 -8.322836 
C -2.207242 -8.322836 -4.324378 -7.44589 -5.885134 -5.885134 
C -7.44589 -4.324378 -8.322836 -2.207242 -8.322836 0 
C -8.322836 2.207242 -7.44589 4.324378 -5.885134 5.885134 
C -4.324378 7.44589 -2.207242 8.322836 0 8.322836 
z
" style="stroke: #000000"/>
    </defs>
    <g clip-path="url(#pff897371dc)">
     <use xlink:href="#m9c61d15818" x="393.303038" y="280.618536" style="stroke: #000000"/>
    </g>
   </g>
   <g id="line2d_4">
    <defs>
     <path id="ma89d9b5b74" d="M 0 8.089459 
C 2.14535 8.089459 4.20312 7.237102 5.720111 5.720111 
C 7.237102 4.20312 8.089459 2.14535 8.089459 0 
C 8.089459 -2.14535 7.237102 -4.20312 5.720111 -5.720111 
C 4.20312 -7.237102 2.14535 -8.089459 0 -8.089459 
C -2.14535 -8.089459 -4.20312 -7.237102 -5.720111 -5.720111 
C -7.237102 -4.20312 -8.089459 -2.14535 -8.089459 0 
C -8.089459 2.14535 -7.237102 4.20312 -5.720111 5.720111 
C -4.20312 7.237102 -2.14535 8.089459 0 8.089459 
z
" style="stroke: #000000"/>
    </defs>
    <g clip-path="url(#pff897371dc)">
     <use xlink:href="#ma89d9b5b74" x="509.217479" y="55.8" style="stroke: #000000"/>
    </g>
   </g>
   <g id="line2d_5">
    <defs>
     <path id="mb810a3cd78" d="M 0 7.688164 
C 2.038925 7.688164 3.994615 6.878091 5.436353 5.436353 
C 6.878091 3.994615 7.688164 2.038925 7.688164 0 
C 7.688164 -2.038925 6.878091 -3.994615 5.436353 -5.436353 
C 3.994615 -6.878091 2.038925 -7.688164 0 -7.688164 
C -2.038925 -7.688164 -3.994615 -6.878091 -5.436353 -5.436353 
C -6.878091 -3.994615 -7.688164 -2.038925 -7.688164 0 
C -7.688164 2.038925 -6.878091 3.994615 -5.436353 5.436353 
C -3.994615 6.878091 -2.038925 7.688164 0 7.688164 
z
" style="stroke: #000000"/>
    </defs>
    <g clip-path="url(#pff897371dc)">
     <use xlink:href="#mb810a3cd78" x="271.347447" y="272.851757" style="stroke: #000000"/>
    </g>
   </g>
   <g id="line2d_6">
    <defs>
     <path id="m42113a9eef" d="M 0 7.573125 
C 2.008416 7.573125 3.934843 6.775173 5.355008 5.355008 
C 6.775173 3.934843 7.573125 2.008416 7.573125 0 
C 7.573125 -2.008416 6.775173 -3.934843 5.355008 -5.355008 
C 3.934843 -6.775173 2.008416 -7.573125 0 -7.573125 
C -2.008416 -7.573125 -3.934843 -6.775173 -5.355008 -5.355008 
C -6.775173 -3.934843 -7.573125 -2.008416 -7.573125 0 
C -7.573125 2.008416 -6.775173 3.934843 -5.355008 5.355008 
C -3.934843 6.775173 -2.008416 7.573125 0 7.573125 
z
" style="stroke: #000000"/>
    </defs>
    <g clip-path="url(#pff897371dc)">
     <use xlink:href="#m42113a9eef" x="353.884583" y="291.553763" style="stroke: #000000"/>
    </g>
   </g>
   <g id="line2d_7">
    <defs>
     <path id="m3773bd60ff" d="M 0 7.557095 
C 2.004165 7.557095 3.926514 6.760832 5.343673 5.343673 
C 6.760832 3.926514 7.557095 2.004165 7.557095 0 
C 7.557095 -2.004165 6.760832 -3.926514 5.343673 -5.343673 
C 3.926514 -6.760832 2.004165 -7.557095 0 -7.557095 
C -2.004165 -7.557095 -3.926514 -6.760832 -5.343673 -5.343673 
C -6.760832 -3.926514 -7.557095 -2.004165 -7.557095 0 
C -7.557095 2.004165 -6.760832 3.926514 -5.343673 5.343673 
C -3.926514 6.760832 -2.004165 7.557095 0 7.557095 
z
" style="stroke: #000000"/>
    </defs>
    <g clip-path="url(#pff897371dc)">
     <use xlink:href="#m3773bd60ff" x="228.782521" y="270.18275" style="stroke: #000000"/>
    </g>
   </g>
   <g id="line2d_8">
    <defs>
     <path id="m71f91bdd4a" d="M 0 7.409041 
C 1.964901 7.409041 3.849589 6.628378 5.238983 5.238983 
C 6.628378 3.849589 7.409041 1.964901 7.409041 0 
C 7.409041 -1.964901 6.628378 -3.849589 5.238983 -5.238983 
C 3.849589 -6.628378 1.964901 -7.409041 0 -7.409041 
C -1.964901 -7.409041 -3.849589 -6.628378 -5.238983 -5.238983 
C -6.628378 -3.849589 -7.409041 -1.964901 -7.409041 0 
C -7.409041 1.964901 -6.628378 3.849589 -5.238983 5.238983 
C -3.849589 6.628378 -1.964901 7.409041 0 7.409041 
z
" style="stroke: #000000"/>
    </defs>
    <g clip-path="url(#pff897371dc)">
     <use xlink:href="#m71f91bdd4a" x="483.234477" y="189.974185" style="stroke: #000000"/>
    </g>
   </g>
   <g id="line2d_9">
    <defs>
     <path id="m31a39fd079" d="M 0 7.380646 
C 1.95737 7.380646 3.834835 6.602974 5.218905 5.218905 
C 6.602974 3.834835 7.380646 1.95737 7.380646 0 
C 7.380646 -1.95737 6.602974 -3.834835 5.218905 -5.218905 
C 3.834835 -6.602974 1.95737 -7.380646 0 -7.380646 
C -1.95737 -7.380646 -3.834835 -6.602974 -5.218905 -5.218905 
C -6.602974 -3.834835 -7.380646 -1.95737 -7.380646 0 
C -7.380646 1.95737 -6.602974 3.834835 -5.218905 5.218905 
C -3.834835 6.602974 -1.95737 7.380646 0 7.380646 
z
" style="stroke: #000000"/>
    </defs>
    <g clip-path="url(#pff897371dc)">
     <use xlink:href="#m31a39fd079" x="250.885443" y="226.455994" style="stroke: #000000"/>
    </g>
   </g>
   <g id="line2d_10">
    <defs>
     <path id="md443e4871f" d="M 0 7.380464 
C 1.957322 7.380464 3.83474 6.602812 5.218776 5.218776 
C 6.602812 3.83474 7.380464 1.957322 7.380464 0 
C 7.380464 -1.957322 6.602812 -3.83474 5.218776 -5.218776 
C 3.83474 -6.602812 1.957322 -7.380464 0 -7.380464 
C -1.957322 -7.380464 -3.83474 -6.602812 -5.218776 -5.218776 
C -6.602812 -3.83474 -7.380464 -1.957322 -7.380464 0 
C -7.380464 1.957322 -6.602812 3.83474 -5.218776 5.218776 
C -3.83474 6.602812 -1.957322 7.380464 0 7.380464 
z
" style="stroke: #000000"/>
    </defs>
    <g clip-path="url(#pff897371dc)">
     <use xlink:href="#md443e4871f" x="407.742824" y="135.155195" style="stroke: #000000"/>
    </g>
   </g>
  </g>
 </g>
 <defs>
  <clipPath id="pff897371dc">
   <path d="M 214.760773 320.4 
L 214.760773 43.2 
L 523.239227 43.2 
L 523.239227 320.4 
L 214.760773 320.4 
"/>
  </clipPath>
 </defs>
</svg>
