<?xml version="1.0" encoding="utf-8" standalone="no"?>
<!DOCTYPE svg PUBLIC "-//W3C//DTD SVG 1.1//EN"
  "http://www.w3.org/Graphics/SVG/1.1/DTD/svg11.dtd">
<svg xmlns:xlink="http://www.w3.org/1999/xlink" width="720pt" height="360pt" viewBox="0 0 720 360" xmlns="http://www.w3.org/2000/svg" version="1.1">
 <metadata>
  <rdf:RDF xmlns:dc="http://purl.org/dc/elements/1.1/" xmlns:cc="http://creativecommons.org/ns#" xmlns:rdf="http://www.w3.org/1999/02/22-rdf-syntax-ns#">
   <cc:Work>
    <dc:type rdf:resource="http://purl.org/dc/dcmitype/StillImage"/>
    <dc:date>2023-11-30T21:30:51.445497</dc:date>
    <dc:format>image/svg+xml</dc:format>
    <dc:creator>
     <cc:Agent>
      <dc:title>Matplotlib v3.8.1, https://matplotlib.org/</dc:title>
     </cc:Agent>
    </dc:creator>
   </cc:Work>
  </rdf:RDF>
 </metadata>
 <defs>
  <style type="text/css">*{stroke-linejoin: round; stroke-linecap: butt}</style>
 </defs>
 <g id="figure_1">
  <g id="patch_1">
   <path d="M 0 360 
L 720 360 
L 720 0 
L 0 0 
z
" style="fill: #ffffff"/>
  </g>
  <g id="axes_1">
   <g id="patch_2">
    <path d="M 328.660067 320.4 
L 328.660067 43.2 
L 409.339933 43.2 
L 409.339933 320.4 
L 328.660067 320.4 
" style="fill: #ffffff"/>
   </g>
   <g id="line2d_1">
    <defs>
     <path id="m84ef37d17c" d="M 0 9.757978 
C 2.587846 9.757978 5.070049 8.729816 6.899932 6.899932 
C 8.729816 5.070049 9.757978 2.587846 9.757978 0 
C 9.757978 -2.587846 8.729816 -5.070049 6.899932 -6.899932 
C 5.070049 -8.729816 2.587846 -9.757978 0 -9.757978 
C -2.587846 -9.757978 -5.070049 -8.729816 -6.899932 -6.899932 
C -8.729816 -5.070049 -9.757978 -2.587846 -9.757978 0 
C -9.757978 2.587846 -8.729816 5.070049 -6.899932 6.899932 
C -5.070049 8.729816 -2.587846 9.757978 0 9.757978 
z
" style="stroke: #000000"/>
    </defs>
    <g clip-path="url(#p92f2793531)">
     <use xlink:href="#m84ef37d17c" x="386.049341" y="307.8" style="stroke: #000000"/>
    </g>
   </g>
   <g id="line2d_2">
    <defs>
     <path id="mebd6a2e2a7" d="M 0 8.423063 
C 2.233823 8.423063 4.376454 7.535556 5.956005 5.956005 
C 7.535556 4.376454 8.423063 2.233823 8.423063 0 
C 8.423063 -2.233823 7.535556 -4.376454 5.956005 -5.956005 
C 4.376454 -7.535556 2.233823 -8.423063 0 -8.423063 
C -2.233823 -8.423063 -4.376454 -7.535556 -5.956005 -5.956005 
C -7.535556 -4.376454 -8.423063 -2.233823 -8.423063 0 
C -8.423063 2.233823 -7.535556 4.376454 -5.956005 5.956005 
C -4.376454 7.535556 -2.233823 8.423063 0 8.423063 
z
" style="stroke: #000000"/>
    </defs>
    <g clip-path="url(#p92f2793531)">
     <use xlink:href="#mebd6a2e2a7" x="381.375581" y="156.213644" style="stroke: #000000"/>
    </g>
   </g>
   <g id="line2d_3">
    <defs>
     <path id="m5b1bdb2f14" d="M 0 8.334553 
C 2.210349 8.334553 4.330466 7.456372 5.893419 5.893419 
C 7.456372 4.330466 8.334553 2.210349 8.334553 0 
C 8.334553 -2.210349 7.456372 -4.330466 5.893419 -5.893419 
C 4.330466 -7.456372 2.210349 -8.334553 0 -8.334553 
C -2.210349 -8.334553 -4.330466 -7.456372 -5.893419 -5.893419 
C -7.456372 -4.330466 -8.334553 -2.210349 -8.334553 0 
C -8.334553 2.210349 -7.456372 4.330466 -5.893419 5.893419 
C -4.330466 7.456372 -2.210349 8.334553 0 8.334553 
z
" style="stroke: #000000"/>
    </defs>
    <g clip-path="url(#p92f2793531)">
     <use xlink:href="#m5b1bdb2f14" x="384.172101" y="125.930947" style="stroke: #000000"/>
    </g>
   </g>
   <g id="line2d_4">
    <defs>
     <path id="m9d488e6ca2" d="M 0 8.149997 
C 2.161405 8.149997 4.234575 7.291262 5.762918 5.762918 
C 7.291262 4.234575 8.149997 2.161405 8.149997 0 
C 8.149997 -2.161405 7.291262 -4.234575 5.762918 -5.762918 
C 4.234575 -7.291262 2.161405 -8.149997 0 -8.149997 
C -2.161405 -8.149997 -4.234575 -7.291262 -5.762918 -5.762918 
C -7.291262 -4.234575 -8.149997 -2.161405 -8.149997 0 
C -8.149997 2.161405 -7.291262 4.234575 -5.762918 5.762918 
C -4.234575 7.291262 -2.161405 8.149997 0 8.149997 
z
" style="stroke: #000000"/>
    </defs>
    <g clip-path="url(#p92f2793531)">
     <use xlink:href="#m9d488e6ca2" x="381.375581" y="233.339247" style="stroke: #000000"/>
    </g>
   </g>
   <g id="line2d_5">
    <defs>
     <path id="m375a3275e4" d="M 0 8.098119 
C 2.147646 8.098119 4.207619 7.24485 5.726235 5.726235 
C 7.24485 4.207619 8.098119 2.147646 8.098119 0 
C 8.098119 -2.147646 7.24485 -4.207619 5.726235 -5.726235 
C 4.207619 -7.24485 2.147646 -8.098119 0 -8.098119 
C -2.147646 -8.098119 -4.207619 -7.24485 -5.726235 -5.726235 
C -7.24485 -4.207619 -8.098119 -2.147646 -8.098119 0 
C -8.098119 2.147646 -7.24485 4.207619 -5.726235 5.726235 
C -4.207619 7.24485 -2.147646 8.098119 0 8.098119 
z
" style="stroke: #000000"/>
    </defs>
    <g clip-path="url(#p92f2793531)">
     <use xlink:href="#m375a3275e4" x="354.883349" y="266.941143" style="stroke: #000000"/>
    </g>
   </g>
   <g id="line2d_6">
    <defs>
     <path id="m26f51af244" d="M 0 7.958196 
C 2.110538 7.958196 4.134919 7.119671 5.627295 5.627295 
C 7.119671 4.134919 7.958196 2.110538 7.958196 0 
C 7.958196 -2.110538 7.119671 -4.134919 5.627295 -5.627295 
C 4.134919 -7.119671 2.110538 -7.958196 0 -7.958196 
C -2.110538 -7.958196 -4.134919 -7.119671 -5.627295 -5.627295 
C -7.119671 -4.134919 -7.958196 -2.110538 -7.958196 0 
C -7.958196 2.110538 -7.119671 4.134919 -5.627295 5.627295 
C -4.134919 7.119671 -2.110538 7.958196 0 7.958196 
z
" style="stroke: #000000"/>
    </defs>
    <g clip-path="url(#p92f2793531)">
     <use xlink:href="#m26f51af244" x="362.767438" y="141.98357" style="stroke: #000000"/>
    </g>
   </g>
   <g id="line2d_7">
    <defs>
     <path id="m54763719c7" d="M 0 7.883678 
C 2.090776 7.883678 4.096201 7.053004 5.574602 5.574602 
C 7.053004 4.096201 7.883678 2.090776 7.883678 0 
C 7.883678 -2.090776 7.053004 -4.096201 5.574602 -5.574602 
C 4.096201 -7.053004 2.090776 -7.883678 0 -7.883678 
C -2.090776 -7.883678 -4.096201 -7.053004 -5.574602 -5.574602 
C -7.053004 -4.096201 -7.883678 -2.090776 -7.883678 0 
C -7.883678 2.090776 -7.053004 4.096201 -5.574602 5.574602 
C -4.096201 7.053004 -2.090776 7.883678 0 7.883678 
z
" style="stroke: #000000"/>
    </defs>
    <g clip-path="url(#p92f2793531)">
     <use xlink:href="#m54763719c7" x="385.614338" y="292.053803" style="stroke: #000000"/>
    </g>
   </g>
   <g id="line2d_8">
    <defs>
     <path id="m71f743ec43" d="M 0 7.769034 
C 2.060372 7.769034 4.036634 6.950439 5.493537 5.493537 
C 6.950439 4.036634 7.769034 2.060372 7.769034 0 
C 7.769034 -2.060372 6.950439 -4.036634 5.493537 -5.493537 
C 4.036634 -6.950439 2.060372 -7.769034 0 -7.769034 
C -2.060372 -7.769034 -4.036634 -6.950439 -5.493537 -5.493537 
C -6.950439 -4.036634 -7.769034 -2.060372 -7.769034 0 
C -7.769034 2.060372 -6.950439 4.036634 -5.493537 5.493537 
C -4.036634 6.950439 -2.060372 7.769034 0 7.769034 
z
" style="stroke: #000000"/>
    </defs>
    <g clip-path="url(#p92f2793531)">
     <use xlink:href="#m71f743ec43" x="405.672666" y="302.5461" style="stroke: #000000"/>
    </g>
   </g>
   <g id="line2d_9">
    <defs>
     <path id="m17d1415b93" d="M 0 7.602075 
C 2.016094 7.602075 3.949885 6.801073 5.375479 5.375479 
C 6.801073 3.949885 7.602075 2.016094 7.602075 0 
C 7.602075 -2.016094 6.801073 -3.949885 5.375479 -5.375479 
C 3.949885 -6.801073 2.016094 -7.602075 0 -7.602075 
C -2.016094 -7.602075 -3.949885 -6.801073 -5.375479 -5.375479 
C -6.801073 -3.949885 -7.602075 -2.016094 -7.602075 0 
C -7.602075 2.016094 -6.801073 3.949885 -5.375479 5.375479 
C -3.949885 6.801073 -2.016094 7.602075 0 7.602075 
z
" style="stroke: #000000"/>
    </defs>
    <g clip-path="url(#p92f2793531)">
     <use xlink:href="#m17d1415b93" x="346.273374" y="82.743799" style="stroke: #000000"/>
    </g>
   </g>
   <g id="line2d_10">
    <defs>
     <path id="mf7acbbcf3e" d="M 0 7.512159 
C 1.992248 7.512159 3.903166 6.72063 5.311898 5.311898 
C 6.72063 3.903166 7.512159 1.992248 7.512159 0 
C 7.512159 -1.992248 6.72063 -3.903166 5.311898 -5.311898 
C 3.903166 -6.72063 1.992248 -7.512159 0 -7.512159 
C -1.992248 -7.512159 -3.903166 -6.72063 -5.311898 -5.311898 
C -6.72063 -3.903166 -7.512159 -1.992248 -7.512159 0 
C -7.512159 1.992248 -6.72063 3.903166 -5.311898 5.311898 
C -3.903166 6.72063 -1.992248 7.512159 0 7.512159 
z
" style="stroke: #000000"/>
    </defs>
    <g clip-path="url(#p92f2793531)">
     <use xlink:href="#mf7acbbcf3e" x="332.327334" y="55.8" style="stroke: #000000"/>
    </g>
   </g>
  </g>
 </g>
 <defs>
  <clipPath id="p92f2793531">
   <path d="M 328.660067 320.4 
L 328.660067 43.2 
L 409.339933 43.2 
L 409.339933 320.4 
L 328.660067 320.4 
"/>
  </clipPath>
 </defs>
</svg>
