<?xml version="1.0" encoding="utf-8" standalone="no"?>
<!DOCTYPE svg PUBLIC "-//W3C//DTD SVG 1.1//EN"
  "http://www.w3.org/Graphics/SVG/1.1/DTD/svg11.dtd">
<svg xmlns:xlink="http://www.w3.org/1999/xlink" width="720pt" height="360pt" viewBox="0 0 720 360" xmlns="http://www.w3.org/2000/svg" version="1.1">
 <metadata>
  <rdf:RDF xmlns:dc="http://purl.org/dc/elements/1.1/" xmlns:cc="http://creativecommons.org/ns#" xmlns:rdf="http://www.w3.org/1999/02/22-rdf-syntax-ns#">
   <cc:Work>
    <dc:type rdf:resource="http://purl.org/dc/dcmitype/StillImage"/>
    <dc:date>2023-11-30T21:30:51.486798</dc:date>
    <dc:format>image/svg+xml</dc:format>
    <dc:creator>
     <cc:Agent>
      <dc:title>Matplotlib v3.8.1, https://matplotlib.org/</dc:title>
     </cc:Agent>
    </dc:creator>
   </cc:Work>
  </rdf:RDF>
 </metadata>
 <defs>
  <style type="text/css">*{stroke-linejoin: round; stroke-linecap: butt}</style>
 </defs>
 <g id="figure_1">
  <g id="patch_1">
   <path d="M 0 360 
L 720 360 
L 720 0 
L 0 0 
z
" style="fill: #ffffff"/>
  </g>
  <g id="axes_1">
   <g id="patch_2">
    <path d="M 349.130059 320.4 
L 349.130059 43.2 
L 388.869941 43.2 
L 388.869941 320.4 
L 349.130059 320.4 
" style="fill: #ffffff"/>
   </g>
   <g id="line2d_1">
    <defs>
     <path id="m4133d6a3fb" d="M 0 11.141666 
C 2.954804 11.141666 5.788985 9.96771 7.878347 7.878347 
C 9.96771 5.788985 11.141666 2.954804 11.141666 0 
C 11.141666 -2.954804 9.96771 -5.788985 7.878347 -7.878347 
C 5.788985 -9.96771 2.954804 -11.141666 0 -11.141666 
C -2.954804 -11.141666 -5.788985 -9.96771 -7.878347 -7.878347 
C -9.96771 -5.788985 -11.141666 -2.954804 -11.141666 0 
C -11.141666 2.954804 -9.96771 5.788985 -7.878347 7.878347 
C -5.788985 9.96771 -2.954804 11.141666 0 11.141666 
z
" style="stroke: #000000"/>
    </defs>
    <g clip-path="url(#pcef31ba68d)">
     <use xlink:href="#m4133d6a3fb" x="376.512027" y="158.555362" style="stroke: #000000"/>
    </g>
   </g>
   <g id="line2d_2">
    <defs>
     <path id="mb903fd7756" d="M 0 9.284559 
C 2.462294 9.284559 4.82407 8.306279 6.565174 6.565174 
C 8.306279 4.82407 9.284559 2.462294 9.284559 0 
C 9.284559 -2.462294 8.306279 -4.82407 6.565174 -6.565174 
C 4.82407 -8.306279 2.462294 -9.284559 0 -9.284559 
C -2.462294 -9.284559 -4.82407 -8.306279 -6.565174 -6.565174 
C -8.306279 -4.82407 -9.284559 -2.462294 -9.284559 0 
C -9.284559 2.462294 -8.306279 4.82407 -6.565174 6.565174 
C -4.82407 8.306279 -2.462294 9.284559 0 9.284559 
z
" style="stroke: #000000"/>
    </defs>
    <g clip-path="url(#pcef31ba68d)">
     <use xlink:href="#mb903fd7756" x="378.608284" y="162.056246" style="stroke: #000000"/>
    </g>
   </g>
   <g id="line2d_3">
    <defs>
     <path id="mf382b40583" d="M 0 8.978302 
C 2.381073 8.978302 4.664945 8.032291 6.348618 6.348618 
C 8.032291 4.664945 8.978302 2.381073 8.978302 0 
C 8.978302 -2.381073 8.032291 -4.664945 6.348618 -6.348618 
C 4.664945 -8.032291 2.381073 -8.978302 0 -8.978302 
C -2.381073 -8.978302 -4.664945 -8.032291 -6.348618 -6.348618 
C -8.032291 -4.664945 -8.978302 -2.381073 -8.978302 0 
C -8.978302 2.381073 -8.032291 4.664945 -6.348618 6.348618 
C -4.664945 8.032291 -2.381073 8.978302 0 8.978302 
z
" style="stroke: #000000"/>
    </defs>
    <g clip-path="url(#pcef31ba68d)">
     <use xlink:href="#mf382b40583" x="376.80383" y="156.163739" style="stroke: #000000"/>
    </g>
   </g>
   <g id="line2d_4">
    <defs>
     <path id="mfd6cd46405" d="M 0 8.870829 
C 2.352571 8.870829 4.609104 7.936142 6.272623 6.272623 
C 7.936142 4.609104 8.870829 2.352571 8.870829 0 
C 8.870829 -2.352571 7.936142 -4.609104 6.272623 -6.272623 
C 4.609104 -7.936142 2.352571 -8.870829 0 -8.870829 
C -2.352571 -8.870829 -4.609104 -7.936142 -6.272623 -6.272623 
C -7.936142 -4.609104 -8.870829 -2.352571 -8.870829 0 
C -8.870829 2.352571 -7.936142 4.609104 -6.272623 6.272623 
C -4.609104 7.936142 -2.352571 8.870829 0 8.870829 
z
" style="stroke: #000000"/>
    </defs>
    <g clip-path="url(#pcef31ba68d)">
     <use xlink:href="#mfd6cd46405" x="387.063582" y="167.321752" style="stroke: #000000"/>
    </g>
   </g>
   <g id="line2d_5">
    <defs>
     <path id="mc2b6dbc100" d="M 0 8.774234 
C 2.326954 8.774234 4.558915 7.849725 6.20432 6.20432 
C 7.849725 4.558915 8.774234 2.326954 8.774234 0 
C 8.774234 -2.326954 7.849725 -4.558915 6.20432 -6.20432 
C 4.558915 -7.849725 2.326954 -8.774234 0 -8.774234 
C -2.326954 -8.774234 -4.558915 -7.849725 -6.20432 -6.20432 
C -7.849725 -4.558915 -8.774234 -2.326954 -8.774234 0 
C -8.774234 2.326954 -7.849725 4.558915 -6.20432 6.20432 
C -4.558915 7.849725 -2.326954 8.774234 0 8.774234 
z
" style="stroke: #000000"/>
    </defs>
    <g clip-path="url(#pcef31ba68d)">
     <use xlink:href="#mc2b6dbc100" x="375.970012" y="307.8" style="stroke: #000000"/>
    </g>
   </g>
   <g id="line2d_6">
    <defs>
     <path id="m19fe6ab6ce" d="M 0 8.740454 
C 2.317996 8.740454 4.541364 7.819505 6.180434 6.180434 
C 7.819505 4.541364 8.740454 2.317996 8.740454 0 
C 8.740454 -2.317996 7.819505 -4.541364 6.180434 -6.180434 
C 4.541364 -7.819505 2.317996 -8.740454 0 -8.740454 
C -2.317996 -8.740454 -4.541364 -7.819505 -6.180434 -6.180434 
C -7.819505 -4.541364 -8.740454 -2.317996 -8.740454 0 
C -8.740454 2.317996 -7.819505 4.541364 -6.180434 6.180434 
C -4.541364 7.819505 -2.317996 8.740454 0 8.740454 
z
" style="stroke: #000000"/>
    </defs>
    <g clip-path="url(#pcef31ba68d)">
     <use xlink:href="#m19fe6ab6ce" x="376.454892" y="154.992721" style="stroke: #000000"/>
    </g>
   </g>
   <g id="line2d_7">
    <defs>
     <path id="md08883fec5" d="M 0 8.724465 
C 2.313755 8.724465 4.533057 7.805201 6.169129 6.169129 
C 7.805201 4.533057 8.724465 2.313755 8.724465 0 
C 8.724465 -2.313755 7.805201 -4.533057 6.169129 -6.169129 
C 4.533057 -7.805201 2.313755 -8.724465 0 -8.724465 
C -2.313755 -8.724465 -4.533057 -7.805201 -6.169129 -6.169129 
C -7.805201 -4.533057 -8.724465 -2.313755 -8.724465 0 
C -8.724465 2.313755 -7.805201 4.533057 -6.169129 6.169129 
C -4.533057 7.805201 -2.313755 8.724465 0 8.724465 
z
" style="stroke: #000000"/>
    </defs>
    <g clip-path="url(#pcef31ba68d)">
     <use xlink:href="#md08883fec5" x="385.917821" y="171.533981" style="stroke: #000000"/>
    </g>
   </g>
   <g id="line2d_8">
    <defs>
     <path id="m8c5deea673" d="M 0 8.693226 
C 2.30547 8.693226 4.516825 7.777253 6.147039 6.147039 
C 7.777253 4.516825 8.693226 2.30547 8.693226 0 
C 8.693226 -2.30547 7.777253 -4.516825 6.147039 -6.147039 
C 4.516825 -7.777253 2.30547 -8.693226 0 -8.693226 
C -2.30547 -8.693226 -4.516825 -7.777253 -6.147039 -6.147039 
C -7.777253 -4.516825 -8.693226 -2.30547 -8.693226 0 
C -8.693226 2.30547 -7.777253 4.516825 -6.147039 6.147039 
C -4.516825 7.777253 -2.30547 8.693226 0 8.693226 
z
" style="stroke: #000000"/>
    </defs>
    <g clip-path="url(#pcef31ba68d)">
     <use xlink:href="#m8c5deea673" x="377.216471" y="160.692036" style="stroke: #000000"/>
    </g>
   </g>
   <g id="line2d_9">
    <defs>
     <path id="me9ca9276b5" d="M 0 8.62624 
C 2.287706 8.62624 4.482021 7.717325 6.099673 6.099673 
C 7.717325 4.482021 8.62624 2.287706 8.62624 0 
C 8.62624 -2.287706 7.717325 -4.482021 6.099673 -6.099673 
C 4.482021 -7.717325 2.287706 -8.62624 0 -8.62624 
C -2.287706 -8.62624 -4.482021 -7.717325 -6.099673 -6.099673 
C -7.717325 -4.482021 -8.62624 -2.287706 -8.62624 0 
C -8.62624 2.287706 -7.717325 4.482021 -6.099673 6.099673 
C -4.482021 7.717325 -2.287706 8.62624 0 8.62624 
z
" style="stroke: #000000"/>
    </defs>
    <g clip-path="url(#pcef31ba68d)">
     <use xlink:href="#me9ca9276b5" x="354.431493" y="55.8" style="stroke: #000000"/>
    </g>
   </g>
   <g id="line2d_10">
    <defs>
     <path id="m68526aea8f" d="M 0 8.505313 
C 2.255635 8.505313 4.41919 7.60914 6.014165 6.014165 
C 7.60914 4.41919 8.505313 2.255635 8.505313 0 
C 8.505313 -2.255635 7.60914 -4.41919 6.014165 -6.014165 
C 4.41919 -7.60914 2.255635 -8.505313 0 -8.505313 
C -2.255635 -8.505313 -4.41919 -7.60914 -6.014165 -6.014165 
C -7.60914 -4.41919 -8.505313 -2.255635 -8.505313 0 
C -8.505313 2.255635 -7.60914 4.41919 -6.014165 6.014165 
C -4.41919 7.60914 -2.255635 8.505313 0 8.505313 
z
" style="stroke: #000000"/>
    </defs>
    <g clip-path="url(#pcef31ba68d)">
     <use xlink:href="#m68526aea8f" x="350.936418" y="260.973678" style="stroke: #000000"/>
    </g>
   </g>
  </g>
 </g>
 <defs>
  <clipPath id="pcef31ba68d">
   <path d="M 349.130059 320.4 
L 349.130059 43.2 
L 388.869941 43.2 
L 388.869941 320.4 
L 349.130059 320.4 
"/>
  </clipPath>
 </defs>
</svg>
