<?xml version="1.0" encoding="utf-8" standalone="no"?>
<!DOCTYPE svg PUBLIC "-//W3C//DTD SVG 1.1//EN"
  "http://www.w3.org/Graphics/SVG/1.1/DTD/svg11.dtd">
<svg xmlns:xlink="http://www.w3.org/1999/xlink" width="720pt" height="360pt" viewBox="0 0 720 360" xmlns="http://www.w3.org/2000/svg" version="1.1">
 <metadata>
  <rdf:RDF xmlns:dc="http://purl.org/dc/elements/1.1/" xmlns:cc="http://creativecommons.org/ns#" xmlns:rdf="http://www.w3.org/1999/02/22-rdf-syntax-ns#">
   <cc:Work>
    <dc:type rdf:resource="http://purl.org/dc/dcmitype/StillImage"/>
    <dc:date>2023-11-30T21:30:51.527744</dc:date>
    <dc:format>image/svg+xml</dc:format>
    <dc:creator>
     <cc:Agent>
      <dc:title>Matplotlib v3.8.1, https://matplotlib.org/</dc:title>
     </cc:Agent>
    </dc:creator>
   </cc:Work>
  </rdf:RDF>
 </metadata>
 <defs>
  <style type="text/css">*{stroke-linejoin: round; stroke-linecap: butt}</style>
 </defs>
 <g id="figure_1">
  <g id="patch_1">
   <path d="M 0 360 
L 720 360 
L 720 0 
L 0 0 
z
" style="fill: #ffffff"/>
  </g>
  <g id="axes_1">
   <g id="patch_2">
    <path d="M 263.775721 320.4 
L 263.775721 43.2 
L 474.224279 43.2 
L 474.224279 320.4 
L 263.775721 320.4 
" style="fill: #ffffff"/>
   </g>
   <g id="line2d_1">
    <defs>
     <path id="m13cbb1b374" d="M 0 9.686952 
C 2.56901 9.686952 5.033145 8.666274 6.849709 6.849709 
C 8.666274 5.033145 9.686952 2.56901 9.686952 0 
C 9.686952 -2.56901 8.666274 -5.033145 6.849709 -6.849709 
C 5.033145 -8.666274 2.56901 -9.686952 0 -9.686952 
C -2.56901 -9.686952 -5.033145 -8.666274 -6.849709 -6.849709 
C -8.666274 -5.033145 -9.686952 -2.56901 -9.686952 0 
C -9.686952 2.56901 -8.666274 5.033145 -6.849709 6.849709 
C -5.033145 8.666274 -2.56901 9.686952 0 9.686952 
z
" style="stroke: #000000"/>
    </defs>
    <g clip-path="url(#pf725118ede)">
     <use xlink:href="#m13cbb1b374" x="317.095478" y="237.005588" style="stroke: #000000"/>
    </g>
   </g>
   <g id="line2d_2">
    <defs>
     <path id="mca921aa96c" d="M 0 9.031911 
C 2.395291 9.031911 4.692799 8.080252 6.386525 6.386525 
C 8.080252 4.692799 9.031911 2.395291 9.031911 0 
C 9.031911 -2.395291 8.080252 -4.692799 6.386525 -6.386525 
C 4.692799 -8.080252 2.395291 -9.031911 0 -9.031911 
C -2.395291 -9.031911 -4.692799 -8.080252 -6.386525 -6.386525 
C -8.080252 -4.692799 -9.031911 -2.395291 -9.031911 0 
C -9.031911 2.395291 -8.080252 4.692799 -6.386525 6.386525 
C -4.692799 8.080252 -2.395291 9.031911 0 9.031911 
z
" style="stroke: #000000"/>
    </defs>
    <g clip-path="url(#pf725118ede)">
     <use xlink:href="#mca921aa96c" x="464.658436" y="73.277738" style="stroke: #000000"/>
    </g>
   </g>
   <g id="line2d_3">
    <defs>
     <path id="m76488e7554" d="M 0 9.030593 
C 2.394941 9.030593 4.692114 8.079073 6.385594 6.385594 
C 8.079073 4.692114 9.030593 2.394941 9.030593 0 
C 9.030593 -2.394941 8.079073 -4.692114 6.385594 -6.385594 
C 4.692114 -8.079073 2.394941 -9.030593 0 -9.030593 
C -2.394941 -9.030593 -4.692114 -8.079073 -6.385594 -6.385594 
C -8.079073 -4.692114 -9.030593 -2.394941 -9.030593 0 
C -9.030593 2.394941 -8.079073 4.692114 -6.385594 6.385594 
C -4.692114 8.079073 -2.394941 9.030593 0 9.030593 
z
" style="stroke: #000000"/>
    </defs>
    <g clip-path="url(#pf725118ede)">
     <use xlink:href="#m76488e7554" x="335.017623" y="95.347044" style="stroke: #000000"/>
    </g>
   </g>
   <g id="line2d_4">
    <defs>
     <path id="m2ccf43506e" d="M 0 8.855985 
C 2.348635 8.855985 4.601391 7.922862 6.262127 6.262127 
C 7.922862 4.601391 8.855985 2.348635 8.855985 0 
C 8.855985 -2.348635 7.922862 -4.601391 6.262127 -6.262127 
C 4.601391 -7.922862 2.348635 -8.855985 0 -8.855985 
C -2.348635 -8.855985 -4.601391 -7.922862 -6.262127 -6.262127 
C -7.922862 -4.601391 -8.855985 -2.348635 -8.855985 0 
C -8.855985 2.348635 -7.922862 4.601391 -6.262127 6.262127 
C -4.601391 7.922862 -2.348635 8.855985 0 8.855985 
z
" style="stroke: #000000"/>
    </defs>
    <g clip-path="url(#pf725118ede)">
     <use xlink:href="#m2ccf43506e" x="397.461785" y="299.94297" style="stroke: #000000"/>
    </g>
   </g>
   <g id="line2d_5">
    <defs>
     <path id="m10617fb189" d="M 0 8.843787 
C 2.3454 8.843787 4.595054 7.91195 6.253502 6.253502 
C 7.91195 4.595054 8.843787 2.3454 8.843787 0 
C 8.843787 -2.3454 7.91195 -4.595054 6.253502 -6.253502 
C 4.595054 -7.91195 2.3454 -8.843787 0 -8.843787 
C -2.3454 -8.843787 -4.595054 -7.91195 -6.253502 -6.253502 
C -7.91195 -4.595054 -8.843787 -2.3454 -8.843787 0 
C -8.843787 2.3454 -7.91195 4.595054 -6.253502 6.253502 
C -4.595054 7.91195 -2.3454 8.843787 0 8.843787 
z
" style="stroke: #000000"/>
    </defs>
    <g clip-path="url(#pf725118ede)">
     <use xlink:href="#m10617fb189" x="449.149303" y="55.8" style="stroke: #000000"/>
    </g>
   </g>
   <g id="line2d_6">
    <defs>
     <path id="m1096dfc718" d="M 0 8.77161 
C 2.326258 8.77161 4.557552 7.847378 6.202465 6.202465 
C 7.847378 4.557552 8.77161 2.326258 8.77161 0 
C 8.77161 -2.326258 7.847378 -4.557552 6.202465 -6.202465 
C 4.557552 -7.847378 2.326258 -8.77161 0 -8.77161 
C -2.326258 -8.77161 -4.557552 -7.847378 -6.202465 -6.202465 
C -7.847378 -4.557552 -8.77161 -2.326258 -8.77161 0 
C -8.77161 2.326258 -7.847378 4.557552 -6.202465 6.202465 
C -4.557552 7.847378 -2.326258 8.77161 0 8.77161 
z
" style="stroke: #000000"/>
    </defs>
    <g clip-path="url(#pf725118ede)">
     <use xlink:href="#m1096dfc718" x="384.483156" y="57.008633" style="stroke: #000000"/>
    </g>
   </g>
   <g id="line2d_7">
    <defs>
     <path id="mb2d94ed8d7" d="M 0 8.378806 
C 2.222085 8.378806 4.353459 7.495962 5.92471 5.92471 
C 7.495962 4.353459 8.378806 2.222085 8.378806 0 
C 8.378806 -2.222085 7.495962 -4.353459 5.92471 -5.92471 
C 4.353459 -7.495962 2.222085 -8.378806 0 -8.378806 
C -2.222085 -8.378806 -4.353459 -7.495962 -5.92471 -5.92471 
C -7.495962 -4.353459 -8.378806 -2.222085 -8.378806 0 
C -8.378806 2.222085 -7.495962 4.353459 -5.92471 5.92471 
C -4.353459 7.495962 -2.222085 8.378806 0 8.378806 
z
" style="stroke: #000000"/>
    </defs>
    <g clip-path="url(#pf725118ede)">
     <use xlink:href="#mb2d94ed8d7" x="316.971591" y="307.8" style="stroke: #000000"/>
    </g>
   </g>
   <g id="line2d_8">
    <defs>
     <path id="m917a2297f7" d="M 0 7.7932 
C 2.066781 7.7932 4.04919 6.972059 5.510625 5.510625 
C 6.972059 4.04919 7.7932 2.066781 7.7932 0 
C 7.7932 -2.066781 6.972059 -4.04919 5.510625 -5.510625 
C 4.04919 -6.972059 2.066781 -7.7932 0 -7.7932 
C -2.066781 -7.7932 -4.04919 -6.972059 -5.510625 -5.510625 
C -6.972059 -4.04919 -7.7932 -2.066781 -7.7932 0 
C -7.7932 2.066781 -6.972059 4.04919 -5.510625 5.510625 
C -4.04919 6.972059 -2.066781 7.7932 0 7.7932 
z
" style="stroke: #000000"/>
    </defs>
    <g clip-path="url(#pf725118ede)">
     <use xlink:href="#m917a2297f7" x="398.365765" y="58.738765" style="stroke: #000000"/>
    </g>
   </g>
   <g id="line2d_9">
    <defs>
     <path id="mde3d006ded" d="M 0 7.739859 
C 2.052634 7.739859 4.021475 6.924338 5.472906 5.472906 
C 6.924338 4.021475 7.739859 2.052634 7.739859 0 
C 7.739859 -2.052634 6.924338 -4.021475 5.472906 -5.472906 
C 4.021475 -6.924338 2.052634 -7.739859 0 -7.739859 
C -2.052634 -7.739859 -4.021475 -6.924338 -5.472906 -5.472906 
C -6.924338 -4.021475 -7.739859 -2.052634 -7.739859 0 
C -7.739859 2.052634 -6.924338 4.021475 -5.472906 5.472906 
C -4.021475 6.924338 -2.052634 7.739859 0 7.739859 
z
" style="stroke: #000000"/>
    </defs>
    <g clip-path="url(#pf725118ede)">
     <use xlink:href="#mde3d006ded" x="335.837679" y="234.912068" style="stroke: #000000"/>
    </g>
   </g>
   <g id="line2d_10">
    <defs>
     <path id="mf0fa2862e7" d="M 0 7.587638 
C 2.012265 7.587638 3.942384 6.788157 5.365271 5.365271 
C 6.788157 3.942384 7.587638 2.012265 7.587638 0 
C 7.587638 -2.012265 6.788157 -3.942384 5.365271 -5.365271 
C 3.942384 -6.788157 2.012265 -7.587638 0 -7.587638 
C -2.012265 -7.587638 -3.942384 -6.788157 -5.365271 -5.365271 
C -6.788157 -3.942384 -7.587638 -2.012265 -7.587638 0 
C -7.587638 2.012265 -6.788157 3.942384 -5.365271 5.365271 
C -3.942384 6.788157 -2.012265 7.587638 0 7.587638 
z
" style="stroke: #000000"/>
    </defs>
    <g clip-path="url(#pf725118ede)">
     <use xlink:href="#mf0fa2862e7" x="273.341564" y="239.349778" style="stroke: #000000"/>
    </g>
   </g>
  </g>
 </g>
 <defs>
  <clipPath id="pf725118ede">
   <path d="M 263.775721 320.4 
L 263.775721 43.2 
L 474.224279 43.2 
L 474.224279 320.4 
L 263.775721 320.4 
"/>
  </clipPath>
 </defs>
</svg>
