<?xml version="1.0" encoding="utf-8" standalone="no"?>
<!DOCTYPE svg PUBLIC "-//W3C//DTD SVG 1.1//EN"
  "http://www.w3.org/Graphics/SVG/1.1/DTD/svg11.dtd">
<svg xmlns:xlink="http://www.w3.org/1999/xlink" width="720pt" height="360pt" viewBox="0 0 720 360" xmlns="http://www.w3.org/2000/svg" version="1.1">
 <metadata>
  <rdf:RDF xmlns:dc="http://purl.org/dc/elements/1.1/" xmlns:cc="http://creativecommons.org/ns#" xmlns:rdf="http://www.w3.org/1999/02/22-rdf-syntax-ns#">
   <cc:Work>
    <dc:type rdf:resource="http://purl.org/dc/dcmitype/StillImage"/>
    <dc:date>2023-11-30T21:30:51.573817</dc:date>
    <dc:format>image/svg+xml</dc:format>
    <dc:creator>
     <cc:Agent>
      <dc:title>Matplotlib v3.8.1, https://matplotlib.org/</dc:title>
     </cc:Agent>
    </dc:creator>
   </cc:Work>
  </rdf:RDF>
 </metadata>
 <defs>
  <style type="text/css">*{stroke-linejoin: round; stroke-linecap: butt}</style>
 </defs>
 <g id="figure_1">
  <g id="patch_1">
   <path d="M 0 360 
L 720 360 
L 720 0 
L 0 0 
z
" style="fill: #ffffff"/>
  </g>
  <g id="axes_1">
   <g id="patch_2">
    <path d="M 90 312.845285 
L 90 50.754715 
L 648 50.754715 
L 648 312.845285 
L 90 312.845285 
" style="fill: #ffffff"/>
   </g>
   <g id="line2d_1">
    <defs>
     <path id="mf43b87df25" d="M 0 8.597306 
C 2.280032 8.597306 4.466987 7.69144 6.079214 6.079214 
C 7.69144 4.466987 8.597306 2.280032 8.597306 0 
C 8.597306 -2.280032 7.69144 -4.466987 6.079214 -6.079214 
C 4.466987 -7.69144 2.280032 -8.597306 0 -8.597306 
C -2.280032 -8.597306 -4.466987 -7.69144 -6.079214 -6.079214 
C -7.69144 -4.466987 -8.597306 -2.280032 -8.597306 0 
C -8.597306 2.280032 -7.69144 4.466987 -6.079214 6.079214 
C -4.466987 7.69144 -2.280032 8.597306 0 8.597306 
z
" style="stroke: #000000"/>
    </defs>
    <g clip-path="url(#p48ef06e391)">
     <use xlink:href="#mf43b87df25" x="219.381406" y="86.235516" style="stroke: #000000"/>
    </g>
   </g>
   <g id="line2d_2">
    <defs>
     <path id="md83cc3148a" d="M 0 7.212641 
C 1.912815 7.212641 3.747543 6.452671 5.100107 5.100107 
C 6.452671 3.747543 7.212641 1.912815 7.212641 0 
C 7.212641 -1.912815 6.452671 -3.747543 5.100107 -5.100107 
C 3.747543 -6.452671 1.912815 -7.212641 0 -7.212641 
C -1.912815 -7.212641 -3.747543 -6.452671 -5.100107 -5.100107 
C -6.452671 -3.747543 -7.212641 -1.912815 -7.212641 0 
C -7.212641 1.912815 -6.452671 3.747543 -5.100107 5.100107 
C -3.747543 6.452671 -1.912815 7.212641 0 7.212641 
z
" style="stroke: #000000"/>
    </defs>
    <g clip-path="url(#p48ef06e391)">
     <use xlink:href="#md83cc3148a" x="119.215832" y="209.450486" style="stroke: #000000"/>
    </g>
   </g>
   <g id="line2d_3">
    <defs>
     <path id="m76f4cdcccb" d="M 0 7.197365 
C 1.908764 7.197365 3.739606 6.439006 5.089306 5.089306 
C 6.439006 3.739606 7.197365 1.908764 7.197365 0 
C 7.197365 -1.908764 6.439006 -3.739606 5.089306 -5.089306 
C 3.739606 -6.439006 1.908764 -7.197365 0 -7.197365 
C -1.908764 -7.197365 -3.739606 -6.439006 -5.089306 -5.089306 
C -6.439006 -3.739606 -7.197365 -1.908764 -7.197365 0 
C -7.197365 1.908764 -6.439006 3.739606 -5.089306 5.089306 
C -3.739606 6.439006 -1.908764 7.197365 0 7.197365 
z
" style="stroke: #000000"/>
    </defs>
    <g clip-path="url(#p48ef06e391)">
     <use xlink:href="#m76f4cdcccb" x="129.620439" y="300.932078" style="stroke: #000000"/>
    </g>
   </g>
   <g id="line2d_4">
    <defs>
     <path id="mb6d7c7eee9" d="M 0 7.106894 
C 1.88477 7.106894 3.692599 6.358067 5.025333 5.025333 
C 6.358067 3.692599 7.106894 1.88477 7.106894 0 
C 7.106894 -1.88477 6.358067 -3.692599 5.025333 -5.025333 
C 3.692599 -6.358067 1.88477 -7.106894 0 -7.106894 
C -1.88477 -7.106894 -3.692599 -6.358067 -5.025333 -5.025333 
C -6.358067 -3.692599 -7.106894 -1.88477 -7.106894 0 
C -7.106894 1.88477 -6.358067 3.692599 -5.025333 5.025333 
C -3.692599 6.358067 -1.88477 7.106894 0 7.106894 
z
" style="stroke: #000000"/>
    </defs>
    <g clip-path="url(#p48ef06e391)">
     <use xlink:href="#mb6d7c7eee9" x="153.80917" y="94.450848" style="stroke: #000000"/>
    </g>
   </g>
   <g id="line2d_5">
    <defs>
     <path id="m8b7199c3bc" d="M 0 7.041615 
C 1.867458 7.041615 3.658681 6.299666 4.979174 4.979174 
C 6.299666 3.658681 7.041615 1.867458 7.041615 0 
C 7.041615 -1.867458 6.299666 -3.658681 4.979174 -4.979174 
C 3.658681 -6.299666 1.867458 -7.041615 0 -7.041615 
C -1.867458 -7.041615 -3.658681 -6.299666 -4.979174 -4.979174 
C -6.299666 -3.658681 -7.041615 -1.867458 -7.041615 0 
C -7.041615 1.867458 -6.299666 3.658681 -4.979174 4.979174 
C -3.658681 6.299666 -1.867458 7.041615 0 7.041615 
z
" style="stroke: #000000"/>
    </defs>
    <g clip-path="url(#p48ef06e391)">
     <use xlink:href="#m8b7199c3bc" x="217.337846" y="134.430407" style="stroke: #000000"/>
    </g>
   </g>
   <g id="line2d_6">
    <defs>
     <path id="mfbf97a40a7" d="M 0 7.034515 
C 1.865575 7.034515 3.654992 6.293314 4.974153 4.974153 
C 6.293314 3.654992 7.034515 1.865575 7.034515 0 
C 7.034515 -1.865575 6.293314 -3.654992 4.974153 -4.974153 
C 3.654992 -6.293314 1.865575 -7.034515 0 -7.034515 
C -1.865575 -7.034515 -3.654992 -6.293314 -4.974153 -4.974153 
C -6.293314 -3.654992 -7.034515 -1.865575 -7.034515 0 
C -7.034515 1.865575 -6.293314 3.654992 -4.974153 4.974153 
C -3.654992 6.293314 -1.865575 7.034515 0 7.034515 
z
" style="stroke: #000000"/>
    </defs>
    <g clip-path="url(#p48ef06e391)">
     <use xlink:href="#mfbf97a40a7" x="622.636364" y="75.731959" style="stroke: #000000"/>
    </g>
   </g>
   <g id="line2d_7">
    <defs>
     <path id="m0dd74a285f" d="M 0 6.996336 
C 1.85545 6.996336 3.635156 6.259158 4.947157 4.947157 
C 6.259158 3.635156 6.996336 1.85545 6.996336 0 
C 6.996336 -1.85545 6.259158 -3.635156 4.947157 -4.947157 
C 3.635156 -6.259158 1.85545 -6.996336 0 -6.996336 
C -1.85545 -6.996336 -3.635156 -6.259158 -4.947157 -4.947157 
C -6.259158 -3.635156 -6.996336 -1.85545 -6.996336 0 
C -6.996336 1.85545 -6.259158 3.635156 -4.947157 4.947157 
C -3.635156 6.259158 -1.85545 6.996336 0 6.996336 
z
" style="stroke: #000000"/>
    </defs>
    <g clip-path="url(#p48ef06e391)">
     <use xlink:href="#m0dd74a285f" x="115.363636" y="101.401246" style="stroke: #000000"/>
    </g>
   </g>
   <g id="line2d_8">
    <defs>
     <path id="me75745c747" d="M 0 6.982937 
C 1.851897 6.982937 3.628194 6.247171 4.937682 4.937682 
C 6.247171 3.628194 6.982937 1.851897 6.982937 0 
C 6.982937 -1.851897 6.247171 -3.628194 4.937682 -4.937682 
C 3.628194 -6.247171 1.851897 -6.982937 0 -6.982937 
C -1.851897 -6.982937 -3.628194 -6.247171 -4.937682 -4.937682 
C -6.247171 -3.628194 -6.982937 -1.851897 -6.982937 0 
C -6.982937 1.851897 -6.247171 3.628194 -4.937682 4.937682 
C -3.628194 6.247171 -1.851897 6.982937 0 6.982937 
z
" style="stroke: #000000"/>
    </defs>
    <g clip-path="url(#p48ef06e391)">
     <use xlink:href="#me75745c747" x="469.227843" y="62.667922" style="stroke: #000000"/>
    </g>
   </g>
   <g id="line2d_9">
    <g clip-path="url(#p48ef06e391)">
     <use xlink:href="#me75745c747" x="447.150602" y="110.252003" style="stroke: #000000"/>
    </g>
   </g>
   <g id="line2d_10">
    <defs>
     <path id="m18ee267592" d="M 0 6.775434 
C 1.796866 6.775434 3.520379 6.061531 4.790955 4.790955 
C 6.061531 3.520379 6.775434 1.796866 6.775434 0 
C 6.775434 -1.796866 6.061531 -3.520379 4.790955 -4.790955 
C 3.520379 -6.061531 1.796866 -6.775434 0 -6.775434 
C -1.796866 -6.775434 -3.520379 -6.061531 -4.790955 -4.790955 
C -6.061531 -3.520379 -6.775434 -1.796866 -6.775434 0 
C -6.775434 1.796866 -6.061531 3.520379 -4.790955 4.790955 
C -3.520379 6.061531 -1.796866 6.775434 0 6.775434 
z
" style="stroke: #000000"/>
    </defs>
    <g clip-path="url(#p48ef06e391)">
     <use xlink:href="#m18ee267592" x="200.856337" y="209.661158" style="stroke: #000000"/>
    </g>
   </g>
  </g>
 </g>
 <defs>
  <clipPath id="p48ef06e391">
   <path d="M 90 312.845285 
L 90 50.754715 
L 648 50.754715 
L 648 312.845285 
L 90 312.845285 
"/>
  </clipPath>
 </defs>
</svg>
