<?xml version="1.0" encoding="utf-8" standalone="no"?>
<!DOCTYPE svg PUBLIC "-//W3C//DTD SVG 1.1//EN"
  "http://www.w3.org/Graphics/SVG/1.1/DTD/svg11.dtd">
<svg xmlns:xlink="http://www.w3.org/1999/xlink" width="720pt" height="360pt" viewBox="0 0 720 360" xmlns="http://www.w3.org/2000/svg" version="1.1">
 <metadata>
  <rdf:RDF xmlns:dc="http://purl.org/dc/elements/1.1/" xmlns:cc="http://creativecommons.org/ns#" xmlns:rdf="http://www.w3.org/1999/02/22-rdf-syntax-ns#">
   <cc:Work>
    <dc:type rdf:resource="http://purl.org/dc/dcmitype/StillImage"/>
    <dc:date>2023-11-30T21:30:53.144269</dc:date>
    <dc:format>image/svg+xml</dc:format>
    <dc:creator>
     <cc:Agent>
      <dc:title>Matplotlib v3.8.1, https://matplotlib.org/</dc:title>
     </cc:Agent>
    </dc:creator>
   </cc:Work>
  </rdf:RDF>
 </metadata>
 <defs>
  <style type="text/css">*{stroke-linejoin: round; stroke-linecap: butt}</style>
 </defs>
 <g id="figure_1">
  <g id="patch_1">
   <path d="M 0 360 
L 720 360 
L 720 0 
L 0 0 
z
" style="fill: #ffffff"/>
  </g>
  <g id="axes_1">
   <g id="patch_2">
    <path d="M 118.001373 320.4 
L 118.001373 43.2 
L 619.998627 43.2 
L 619.998627 320.4 
L 118.001373 320.4 
" style="fill: #ffffff"/>
   </g>
   <g id="line2d_1">
    <defs>
     <path id="m38138ecc4a" d="M 0 9.736493 
C 2.582148 9.736493 5.058886 8.710595 6.88474 6.88474 
C 8.710595 5.058886 9.736493 2.582148 9.736493 0 
C 9.736493 -2.582148 8.710595 -5.058886 6.88474 -6.88474 
C 5.058886 -8.710595 2.582148 -9.736493 0 -9.736493 
C -2.582148 -9.736493 -5.058886 -8.710595 -6.88474 -6.88474 
C -8.710595 -5.058886 -9.736493 -2.582148 -9.736493 0 
C -9.736493 2.582148 -8.710595 5.058886 -6.88474 6.88474 
C -5.058886 8.710595 -2.582148 9.736493 0 9.736493 
z
" style="stroke: #000000"/>
    </defs>
    <g clip-path="url(#pa5821b3b98)">
     <use xlink:href="#m38138ecc4a" x="374.002023" y="272.631854" style="stroke: #000000"/>
    </g>
   </g>
   <g id="line2d_2">
    <defs>
     <path id="m81ea66349b" d="M 0 8.920592 
C 2.365769 8.920592 4.63496 7.980662 6.307811 6.307811 
C 7.980662 4.63496 8.920592 2.365769 8.920592 0 
C 8.920592 -2.365769 7.980662 -4.63496 6.307811 -6.307811 
C 4.63496 -7.980662 2.365769 -8.920592 0 -8.920592 
C -2.365769 -8.920592 -4.63496 -7.980662 -6.307811 -6.307811 
C -7.980662 -4.63496 -8.920592 -2.365769 -8.920592 0 
C -8.920592 2.365769 -7.980662 4.63496 -6.307811 6.307811 
C -4.63496 7.980662 -2.365769 8.920592 0 8.920592 
z
" style="stroke: #000000"/>
    </defs>
    <g clip-path="url(#pa5821b3b98)">
     <use xlink:href="#m81ea66349b" x="597.18057" y="211.215392" style="stroke: #000000"/>
    </g>
   </g>
   <g id="line2d_3">
    <defs>
     <path id="mb83dc6ea26" d="M 0 8.672586 
C 2.299997 8.672586 4.506101 7.758787 6.132444 6.132444 
C 7.758787 4.506101 8.672586 2.299997 8.672586 0 
C 8.672586 -2.299997 7.758787 -4.506101 6.132444 -6.132444 
C 4.506101 -7.758787 2.299997 -8.672586 0 -8.672586 
C -2.299997 -8.672586 -4.506101 -7.758787 -6.132444 -6.132444 
C -7.758787 -4.506101 -8.672586 -2.299997 -8.672586 0 
C -8.672586 2.299997 -7.758787 4.506101 -6.132444 6.132444 
C -4.506101 7.758787 -2.299997 8.672586 0 8.672586 
z
" style="stroke: #000000"/>
    </defs>
    <g clip-path="url(#pa5821b3b98)">
     <use xlink:href="#mb83dc6ea26" x="442.016477" y="55.8" style="stroke: #000000"/>
    </g>
   </g>
   <g id="line2d_4">
    <defs>
     <path id="m044065635c" d="M 0 8.403633 
C 2.22867 8.403633 4.366359 7.518174 5.942266 5.942266 
C 7.518174 4.366359 8.403633 2.22867 8.403633 0 
C 8.403633 -2.22867 7.518174 -4.366359 5.942266 -5.942266 
C 4.366359 -7.518174 2.22867 -8.403633 0 -8.403633 
C -2.22867 -8.403633 -4.366359 -7.518174 -5.942266 -5.942266 
C -7.518174 -4.366359 -8.403633 -2.22867 -8.403633 0 
C -8.403633 2.22867 -7.518174 4.366359 -5.942266 5.942266 
C -4.366359 7.518174 -2.22867 8.403633 0 8.403633 
z
" style="stroke: #000000"/>
    </defs>
    <g clip-path="url(#pa5821b3b98)">
     <use xlink:href="#m044065635c" x="522.077197" y="291.909805" style="stroke: #000000"/>
    </g>
   </g>
   <g id="line2d_5">
    <defs>
     <path id="m82826a9ced" d="M 0 8.211156 
C 2.177624 8.211156 4.266351 7.345976 5.806164 5.806164 
C 7.345976 4.266351 8.211156 2.177624 8.211156 0 
C 8.211156 -2.177624 7.345976 -4.266351 5.806164 -5.806164 
C 4.266351 -7.345976 2.177624 -8.211156 0 -8.211156 
C -2.177624 -8.211156 -4.266351 -7.345976 -5.806164 -5.806164 
C -7.345976 -4.266351 -8.211156 -2.177624 -8.211156 0 
C -8.211156 2.177624 -7.345976 4.266351 -5.806164 5.806164 
C -4.266351 7.345976 -2.177624 8.211156 0 8.211156 
z
" style="stroke: #000000"/>
    </defs>
    <g clip-path="url(#pa5821b3b98)">
     <use xlink:href="#m82826a9ced" x="201.474328" y="187.030518" style="stroke: #000000"/>
    </g>
   </g>
   <g id="line2d_6">
    <defs>
     <path id="m21a89539e0" d="M 0 8.104936 
C 2.149454 8.104936 4.211162 7.250949 5.731055 5.731055 
C 7.250949 4.211162 8.104936 2.149454 8.104936 0 
C 8.104936 -2.149454 7.250949 -4.211162 5.731055 -5.731055 
C 4.211162 -7.250949 2.149454 -8.104936 0 -8.104936 
C -2.149454 -8.104936 -4.211162 -7.250949 -5.731055 -5.731055 
C -7.250949 -4.211162 -8.104936 -2.149454 -8.104936 0 
C -8.104936 2.149454 -7.250949 4.211162 -5.731055 5.731055 
C -4.211162 7.250949 -2.149454 8.104936 0 8.104936 
z
" style="stroke: #000000"/>
    </defs>
    <g clip-path="url(#pa5821b3b98)">
     <use xlink:href="#m21a89539e0" x="536.547151" y="290.573942" style="stroke: #000000"/>
    </g>
   </g>
   <g id="line2d_7">
    <defs>
     <path id="m80e2a4ff36" d="M 0 8.029725 
C 2.129508 8.029725 4.172084 7.183663 5.677873 5.677873 
C 7.183663 4.172084 8.029725 2.129508 8.029725 0 
C 8.029725 -2.129508 7.183663 -4.172084 5.677873 -5.677873 
C 4.172084 -7.183663 2.129508 -8.029725 0 -8.029725 
C -2.129508 -8.029725 -4.172084 -7.183663 -5.677873 -5.677873 
C -7.183663 -4.172084 -8.029725 -2.129508 -8.029725 0 
C -8.029725 2.129508 -7.183663 4.172084 -5.677873 5.677873 
C -4.172084 7.183663 -2.129508 8.029725 0 8.029725 
z
" style="stroke: #000000"/>
    </defs>
    <g clip-path="url(#pa5821b3b98)">
     <use xlink:href="#m80e2a4ff36" x="140.81943" y="158.562514" style="stroke: #000000"/>
    </g>
   </g>
   <g id="line2d_8">
    <defs>
     <path id="m7387cef26e" d="M 0 8.019106 
C 2.126692 8.019106 4.166566 7.174162 5.670364 5.670364 
C 7.174162 4.166566 8.019106 2.126692 8.019106 0 
C 8.019106 -2.126692 7.174162 -4.166566 5.670364 -5.670364 
C 4.166566 -7.174162 2.126692 -8.019106 0 -8.019106 
C -2.126692 -8.019106 -4.166566 -7.174162 -5.670364 -5.670364 
C -7.174162 -4.166566 -8.019106 -2.126692 -8.019106 0 
C -8.019106 2.126692 -7.174162 4.166566 -5.670364 5.670364 
C -4.166566 7.174162 -2.126692 8.019106 0 8.019106 
z
" style="stroke: #000000"/>
    </defs>
    <g clip-path="url(#pa5821b3b98)">
     <use xlink:href="#m7387cef26e" x="465.163935" y="303.252541" style="stroke: #000000"/>
    </g>
   </g>
   <g id="line2d_9">
    <defs>
     <path id="mea77147517" d="M 0 7.634454 
C 2.024681 7.634454 3.966708 6.83004 5.398374 5.398374 
C 6.83004 3.966708 7.634454 2.024681 7.634454 0 
C 7.634454 -2.024681 6.83004 -3.966708 5.398374 -5.398374 
C 3.966708 -6.83004 2.024681 -7.634454 0 -7.634454 
C -2.024681 -7.634454 -3.966708 -6.83004 -5.398374 -5.398374 
C -6.83004 -3.966708 -7.634454 -2.024681 -7.634454 0 
C -7.634454 2.024681 -6.83004 3.966708 -5.398374 5.398374 
C -3.966708 6.83004 -2.024681 7.634454 0 7.634454 
z
" style="stroke: #000000"/>
    </defs>
    <g clip-path="url(#pa5821b3b98)">
     <use xlink:href="#mea77147517" x="366.00669" y="266.977676" style="stroke: #000000"/>
    </g>
   </g>
   <g id="line2d_10">
    <defs>
     <path id="m2b3b2be7ba" d="M 0 7.601253 
C 2.015876 7.601253 3.949458 6.800337 5.374898 5.374898 
C 6.800337 3.949458 7.601253 2.015876 7.601253 0 
C 7.601253 -2.015876 6.800337 -3.949458 5.374898 -5.374898 
C 3.949458 -6.800337 2.015876 -7.601253 0 -7.601253 
C -2.015876 -7.601253 -3.949458 -6.800337 -5.374898 -5.374898 
C -6.800337 -3.949458 -7.601253 -2.015876 -7.601253 0 
C -7.601253 2.015876 -6.800337 3.949458 -5.374898 5.374898 
C -3.949458 6.800337 -2.015876 7.601253 0 7.601253 
z
" style="stroke: #000000"/>
    </defs>
    <g clip-path="url(#pa5821b3b98)">
     <use xlink:href="#m2b3b2be7ba" x="544.820851" y="307.8" style="stroke: #000000"/>
    </g>
   </g>
  </g>
 </g>
 <defs>
  <clipPath id="pa5821b3b98">
   <path d="M 118.001373 320.4 
L 118.001373 43.2 
L 619.998627 43.2 
L 619.998627 320.4 
L 118.001373 320.4 
"/>
  </clipPath>
 </defs>
</svg>
