<?xml version="1.0" encoding="utf-8" standalone="no"?>
<!DOCTYPE svg PUBLIC "-//W3C//DTD SVG 1.1//EN"
  "http://www.w3.org/Graphics/SVG/1.1/DTD/svg11.dtd">
<svg xmlns:xlink="http://www.w3.org/1999/xlink" width="720pt" height="360pt" viewBox="0 0 720 360" xmlns="http://www.w3.org/2000/svg" version="1.1">
 <metadata>
  <rdf:RDF xmlns:dc="http://purl.org/dc/elements/1.1/" xmlns:cc="http://creativecommons.org/ns#" xmlns:rdf="http://www.w3.org/1999/02/22-rdf-syntax-ns#">
   <cc:Work>
    <dc:type rdf:resource="http://purl.org/dc/dcmitype/StillImage"/>
    <dc:date>2023-11-30T21:30:51.614548</dc:date>
    <dc:format>image/svg+xml</dc:format>
    <dc:creator>
     <cc:Agent>
      <dc:title>Matplotlib v3.8.1, https://matplotlib.org/</dc:title>
     </cc:Agent>
    </dc:creator>
   </cc:Work>
  </rdf:RDF>
 </metadata>
 <defs>
  <style type="text/css">*{stroke-linejoin: round; stroke-linecap: butt}</style>
 </defs>
 <g id="figure_1">
  <g id="patch_1">
   <path d="M 0 360 
L 720 360 
L 720 0 
L 0 0 
z
" style="fill: #ffffff"/>
  </g>
  <g id="axes_1">
   <g id="patch_2">
    <path d="M 303.073173 320.4 
L 303.073173 43.2 
L 434.926827 43.2 
L 434.926827 320.4 
L 303.073173 320.4 
" style="fill: #ffffff"/>
   </g>
   <g id="line2d_1">
    <defs>
     <path id="maaf458ee4a" d="M 0 9.701468 
C 2.572859 9.701468 5.040687 8.67926 6.859973 6.859973 
C 8.67926 5.040687 9.701468 2.572859 9.701468 0 
C 9.701468 -2.572859 8.67926 -5.040687 6.859973 -6.859973 
C 5.040687 -8.67926 2.572859 -9.701468 0 -9.701468 
C -2.572859 -9.701468 -5.040687 -8.67926 -6.859973 -6.859973 
C -8.67926 -5.040687 -9.701468 -2.572859 -9.701468 0 
C -9.701468 2.572859 -8.67926 5.040687 -6.859973 6.859973 
C -5.040687 8.67926 -2.572859 9.701468 0 9.701468 
z
" style="stroke: #000000"/>
    </defs>
    <g clip-path="url(#p5d4821b690)">
     <use xlink:href="#maaf458ee4a" x="392.872881" y="90.265874" style="stroke: #000000"/>
    </g>
   </g>
   <g id="line2d_2">
    <defs>
     <path id="mcf5f6bade2" d="M 0 9.040489 
C 2.397566 9.040489 4.697256 8.087926 6.392591 6.392591 
C 8.087926 4.697256 9.040489 2.397566 9.040489 0 
C 9.040489 -2.397566 8.087926 -4.697256 6.392591 -6.392591 
C 4.697256 -8.087926 2.397566 -9.040489 0 -9.040489 
C -2.397566 -9.040489 -4.697256 -8.087926 -6.392591 -6.392591 
C -8.087926 -4.697256 -9.040489 -2.397566 -9.040489 0 
C -9.040489 2.397566 -8.087926 4.697256 -6.392591 6.392591 
C -4.697256 8.087926 -2.397566 9.040489 0 9.040489 
z
" style="stroke: #000000"/>
    </defs>
    <g clip-path="url(#p5d4821b690)">
     <use xlink:href="#mcf5f6bade2" x="428.933479" y="244.998087" style="stroke: #000000"/>
    </g>
   </g>
   <g id="line2d_3">
    <defs>
     <path id="m9cddb7b197" d="M 0 8.662213 
C 2.297246 8.662213 4.500712 7.749508 6.12511 6.12511 
C 7.749508 4.500712 8.662213 2.297246 8.662213 0 
C 8.662213 -2.297246 7.749508 -4.500712 6.12511 -6.12511 
C 4.500712 -7.749508 2.297246 -8.662213 0 -8.662213 
C -2.297246 -8.662213 -4.500712 -7.749508 -6.12511 -6.12511 
C -7.749508 -4.500712 -8.662213 -2.297246 -8.662213 0 
C -8.662213 2.297246 -7.749508 4.500712 -6.12511 6.12511 
C -4.500712 7.749508 -2.297246 8.662213 0 8.662213 
z
" style="stroke: #000000"/>
    </defs>
    <g clip-path="url(#p5d4821b690)">
     <use xlink:href="#m9cddb7b197" x="421.45495" y="164.744883" style="stroke: #000000"/>
    </g>
   </g>
   <g id="line2d_4">
    <defs>
     <path id="m0f11d6b603" d="M 0 8.435104 
C 2.237016 8.435104 4.38271 7.546328 5.964519 5.964519 
C 7.546328 4.38271 8.435104 2.237016 8.435104 0 
C 8.435104 -2.237016 7.546328 -4.38271 5.964519 -5.964519 
C 4.38271 -7.546328 2.237016 -8.435104 0 -8.435104 
C -2.237016 -8.435104 -4.38271 -7.546328 -5.964519 -5.964519 
C -7.546328 -4.38271 -8.435104 -2.237016 -8.435104 0 
C -8.435104 2.237016 -7.546328 4.38271 -5.964519 5.964519 
C -4.38271 7.546328 -2.237016 8.435104 0 8.435104 
z
" style="stroke: #000000"/>
    </defs>
    <g clip-path="url(#p5d4821b690)">
     <use xlink:href="#m0f11d6b603" x="388.659574" y="175.705116" style="stroke: #000000"/>
    </g>
   </g>
   <g id="line2d_5">
    <defs>
     <path id="m543630b444" d="M 0 8.407323 
C 2.229648 8.407323 4.368276 7.521474 5.944875 5.944875 
C 7.521474 4.368276 8.407323 2.229648 8.407323 0 
C 8.407323 -2.229648 7.521474 -4.368276 5.944875 -5.944875 
C 4.368276 -7.521474 2.229648 -8.407323 0 -8.407323 
C -2.229648 -8.407323 -4.368276 -7.521474 -5.944875 -5.944875 
C -7.521474 -4.368276 -8.407323 -2.229648 -8.407323 0 
C -8.407323 2.229648 -7.521474 4.368276 -5.944875 5.944875 
C -4.368276 7.521474 -2.229648 8.407323 0 8.407323 
z
" style="stroke: #000000"/>
    </defs>
    <g clip-path="url(#p5d4821b690)">
     <use xlink:href="#m543630b444" x="375.168013" y="55.8" style="stroke: #000000"/>
    </g>
   </g>
   <g id="line2d_6">
    <defs>
     <path id="m4261109d06" d="M 0 8.37407 
C 2.220829 8.37407 4.350998 7.491725 5.921362 5.921362 
C 7.491725 4.350998 8.37407 2.220829 8.37407 0 
C 8.37407 -2.220829 7.491725 -4.350998 5.921362 -5.921362 
C 4.350998 -7.491725 2.220829 -8.37407 0 -8.37407 
C -2.220829 -8.37407 -4.350998 -7.491725 -5.921362 -5.921362 
C -7.491725 -4.350998 -8.37407 -2.220829 -8.37407 0 
C -8.37407 2.220829 -7.491725 4.350998 -5.921362 5.921362 
C -4.350998 7.491725 -2.220829 8.37407 0 8.37407 
z
" style="stroke: #000000"/>
    </defs>
    <g clip-path="url(#p5d4821b690)">
     <use xlink:href="#m4261109d06" x="388.773004" y="307.8" style="stroke: #000000"/>
    </g>
   </g>
   <g id="line2d_7">
    <defs>
     <path id="m17fedbcc0e" d="M 0 8.287947 
C 2.197989 8.287947 4.30625 7.414677 5.860463 5.860463 
C 7.414677 4.30625 8.287947 2.197989 8.287947 0 
C 8.287947 -2.197989 7.414677 -4.30625 5.860463 -5.860463 
C 4.30625 -7.414677 2.197989 -8.287947 0 -8.287947 
C -2.197989 -8.287947 -4.30625 -7.414677 -5.860463 -5.860463 
C -7.414677 -4.30625 -8.287947 -2.197989 -8.287947 0 
C -8.287947 2.197989 -7.414677 4.30625 -5.860463 5.860463 
C -4.30625 7.414677 -2.197989 8.287947 0 8.287947 
z
" style="stroke: #000000"/>
    </defs>
    <g clip-path="url(#p5d4821b690)">
     <use xlink:href="#m17fedbcc0e" x="394.54583" y="87.16042" style="stroke: #000000"/>
    </g>
   </g>
   <g id="line2d_8">
    <defs>
     <path id="m4492d0e4ab" d="M 0 8.287149 
C 2.197778 8.287149 4.305836 7.413963 5.859899 5.859899 
C 7.413963 4.305836 8.287149 2.197778 8.287149 0 
C 8.287149 -2.197778 7.413963 -4.305836 5.859899 -5.859899 
C 4.305836 -7.413963 2.197778 -8.287149 0 -8.287149 
C -2.197778 -8.287149 -4.305836 -7.413963 -5.859899 -5.859899 
C -7.413963 -4.305836 -8.287149 -2.197778 -8.287149 0 
C -8.287149 2.197778 -7.413963 4.305836 -5.859899 5.859899 
C -4.305836 7.413963 -2.197778 8.287149 0 8.287149 
z
" style="stroke: #000000"/>
    </defs>
    <g clip-path="url(#p5d4821b690)">
     <use xlink:href="#m4492d0e4ab" x="420.222378" y="121.78891" style="stroke: #000000"/>
    </g>
   </g>
   <g id="line2d_9">
    <defs>
     <path id="m18ad22ecad" d="M 0 8.161563 
C 2.164472 8.161563 4.240584 7.301609 5.771096 5.771096 
C 7.301609 4.240584 8.161563 2.164472 8.161563 0 
C 8.161563 -2.164472 7.301609 -4.240584 5.771096 -5.771096 
C 4.240584 -7.301609 2.164472 -8.161563 0 -8.161563 
C -2.164472 -8.161563 -4.240584 -7.301609 -5.771096 -5.771096 
C -7.301609 -4.240584 -8.161563 -2.164472 -8.161563 0 
C -8.161563 2.164472 -7.301609 4.240584 -5.771096 5.771096 
C -4.240584 7.301609 -2.164472 8.161563 0 8.161563 
z
" style="stroke: #000000"/>
    </defs>
    <g clip-path="url(#p5d4821b690)">
     <use xlink:href="#m18ad22ecad" x="312.241362" y="213.537361" style="stroke: #000000"/>
    </g>
   </g>
   <g id="line2d_10">
    <defs>
     <path id="m8107dd5fef" d="M 0 8.154889 
C 2.162702 8.154889 4.237116 7.295639 5.766377 5.766377 
C 7.295639 4.237116 8.154889 2.162702 8.154889 0 
C 8.154889 -2.162702 7.295639 -4.237116 5.766377 -5.766377 
C 4.237116 -7.295639 2.162702 -8.154889 0 -8.154889 
C -2.162702 -8.154889 -4.237116 -7.295639 -5.766377 -5.766377 
C -7.295639 -4.237116 -8.154889 -2.162702 -8.154889 0 
C -8.154889 2.162702 -7.295639 4.237116 -5.766377 5.766377 
C -4.237116 7.295639 -2.162702 8.154889 0 8.154889 
z
" style="stroke: #000000"/>
    </defs>
    <g clip-path="url(#p5d4821b690)">
     <use xlink:href="#m8107dd5fef" x="309.066521" y="268.141646" style="stroke: #000000"/>
    </g>
   </g>
  </g>
 </g>
 <defs>
  <clipPath id="p5d4821b690">
   <path d="M 303.073173 320.4 
L 303.073173 43.2 
L 434.926827 43.2 
L 434.926827 320.4 
L 303.073173 320.4 
"/>
  </clipPath>
 </defs>
</svg>
