<?xml version="1.0" encoding="utf-8" standalone="no"?>
<!DOCTYPE svg PUBLIC "-//W3C//DTD SVG 1.1//EN"
  "http://www.w3.org/Graphics/SVG/1.1/DTD/svg11.dtd">
<svg xmlns:xlink="http://www.w3.org/1999/xlink" width="720pt" height="360pt" viewBox="0 0 720 360" xmlns="http://www.w3.org/2000/svg" version="1.1">
 <metadata>
  <rdf:RDF xmlns:dc="http://purl.org/dc/elements/1.1/" xmlns:cc="http://creativecommons.org/ns#" xmlns:rdf="http://www.w3.org/1999/02/22-rdf-syntax-ns#">
   <cc:Work>
    <dc:type rdf:resource="http://purl.org/dc/dcmitype/StillImage"/>
    <dc:date>2023-11-30T21:30:53.556929</dc:date>
    <dc:format>image/svg+xml</dc:format>
    <dc:creator>
     <cc:Agent>
      <dc:title>Matplotlib v3.8.1, https://matplotlib.org/</dc:title>
     </cc:Agent>
    </dc:creator>
   </cc:Work>
  </rdf:RDF>
 </metadata>
 <defs>
  <style type="text/css">*{stroke-linejoin: round; stroke-linecap: butt}</style>
 </defs>
 <g id="figure_1">
  <g id="patch_1">
   <path d="M 0 360 
L 720 360 
L 720 0 
L 0 0 
z
" style="fill: #ffffff"/>
  </g>
  <g id="axes_1">
   <g id="patch_2">
    <path d="M 304.781963 320.4 
L 304.781963 43.2 
L 433.218037 43.2 
L 433.218037 320.4 
L 304.781963 320.4 
" style="fill: #ffffff"/>
   </g>
   <g id="line2d_1">
    <defs>
     <path id="m9328bf2392" d="M 0 7.225638 
C 1.916262 7.225638 3.754296 6.464299 5.109297 5.109297 
C 6.464299 3.754296 7.225638 1.916262 7.225638 0 
C 7.225638 -1.916262 6.464299 -3.754296 5.109297 -5.109297 
C 3.754296 -6.464299 1.916262 -7.225638 0 -7.225638 
C -1.916262 -7.225638 -3.754296 -6.464299 -5.109297 -5.109297 
C -6.464299 -3.754296 -7.225638 -1.916262 -7.225638 0 
C -7.225638 1.916262 -6.464299 3.754296 -5.109297 5.109297 
C -3.754296 6.464299 -1.916262 7.225638 0 7.225638 
z
" style="stroke: #000000"/>
    </defs>
    <g clip-path="url(#p855feb262d)">
     <use xlink:href="#m9328bf2392" x="319.562548" y="288.483274" style="stroke: #000000"/>
    </g>
   </g>
   <g id="line2d_2">
    <defs>
     <path id="mc38186f5d5" d="M 0 6.482982 
C 1.719307 6.482982 3.368427 5.799894 4.584161 4.584161 
C 5.799894 3.368427 6.482982 1.719307 6.482982 0 
C 6.482982 -1.719307 5.799894 -3.368427 4.584161 -4.584161 
C 3.368427 -5.799894 1.719307 -6.482982 0 -6.482982 
C -1.719307 -6.482982 -3.368427 -5.799894 -4.584161 -4.584161 
C -5.799894 -3.368427 -6.482982 -1.719307 -6.482982 0 
C -6.482982 1.719307 -5.799894 3.368427 -4.584161 4.584161 
C -3.368427 5.799894 -1.719307 6.482982 0 6.482982 
z
" style="stroke: #000000"/>
    </defs>
    <g clip-path="url(#p855feb262d)">
     <use xlink:href="#mc38186f5d5" x="326.995367" y="292.3082" style="stroke: #000000"/>
    </g>
   </g>
   <g id="line2d_3">
    <defs>
     <path id="mc2ebd32507" d="M 0 6.038575 
C 1.601449 6.038575 3.137522 5.402312 4.269917 4.269917 
C 5.402312 3.137522 6.038575 1.601449 6.038575 0 
C 6.038575 -1.601449 5.402312 -3.137522 4.269917 -4.269917 
C 3.137522 -5.402312 1.601449 -6.038575 0 -6.038575 
C -1.601449 -6.038575 -3.137522 -5.402312 -4.269917 -4.269917 
C -5.402312 -3.137522 -6.038575 -1.601449 -6.038575 0 
C -6.038575 1.601449 -5.402312 3.137522 -4.269917 4.269917 
C -3.137522 5.402312 -1.601449 6.038575 0 6.038575 
z
" style="stroke: #000000"/>
    </defs>
    <g clip-path="url(#p855feb262d)">
     <use xlink:href="#mc2ebd32507" x="427.380034" y="55.8" style="stroke: #000000"/>
    </g>
   </g>
   <g id="line2d_4">
    <defs>
     <path id="meb0a923587" d="M 0 5.869468 
C 1.556601 5.869468 3.049658 5.251024 4.150341 4.150341 
C 5.251024 3.049658 5.869468 1.556601 5.869468 0 
C 5.869468 -1.556601 5.251024 -3.049658 4.150341 -4.150341 
C 3.049658 -5.251024 1.556601 -5.869468 0 -5.869468 
C -1.556601 -5.869468 -3.049658 -5.251024 -4.150341 -4.150341 
C -5.251024 -3.049658 -5.869468 -1.556601 -5.869468 0 
C -5.869468 1.556601 -5.251024 3.049658 -4.150341 4.150341 
C -3.049658 5.251024 -1.556601 5.869468 0 5.869468 
z
" style="stroke: #000000"/>
    </defs>
    <g clip-path="url(#p855feb262d)">
     <use xlink:href="#meb0a923587" x="318.483134" y="289.93024" style="stroke: #000000"/>
    </g>
   </g>
   <g id="line2d_5">
    <defs>
     <path id="mfda2f4e458" d="M 0 5.775614 
C 1.531711 5.775614 3.000893 5.167059 4.083976 4.083976 
C 5.167059 3.000893 5.775614 1.531711 5.775614 0 
C 5.775614 -1.531711 5.167059 -3.000893 4.083976 -4.083976 
C 3.000893 -5.167059 1.531711 -5.775614 0 -5.775614 
C -1.531711 -5.775614 -3.000893 -5.167059 -4.083976 -4.083976 
C -5.167059 -3.000893 -5.775614 -1.531711 -5.775614 0 
C -5.775614 1.531711 -5.167059 3.000893 -4.083976 4.083976 
C -3.000893 5.167059 -1.531711 5.775614 0 5.775614 
z
" style="stroke: #000000"/>
    </defs>
    <g clip-path="url(#p855feb262d)">
     <use xlink:href="#mfda2f4e458" x="326.346301" y="293.150355" style="stroke: #000000"/>
    </g>
   </g>
   <g id="line2d_6">
    <defs>
     <path id="m852cc40e56" d="M 0 5.769822 
C 1.530175 5.769822 2.997883 5.161877 4.07988 4.07988 
C 5.161877 2.997883 5.769822 1.530175 5.769822 0 
C 5.769822 -1.530175 5.161877 -2.997883 4.07988 -4.07988 
C 2.997883 -5.161877 1.530175 -5.769822 0 -5.769822 
C -1.530175 -5.769822 -2.997883 -5.161877 -4.07988 -4.07988 
C -5.161877 -2.997883 -5.769822 -1.530175 -5.769822 0 
C -5.769822 1.530175 -5.161877 2.997883 -4.07988 4.07988 
C -2.997883 5.161877 -1.530175 5.769822 0 5.769822 
z
" style="stroke: #000000"/>
    </defs>
    <g clip-path="url(#p855feb262d)">
     <use xlink:href="#m852cc40e56" x="321.719606" y="293.778227" style="stroke: #000000"/>
    </g>
   </g>
   <g id="line2d_7">
    <defs>
     <path id="md62c1f9ef1" d="M 0 5.513607 
C 1.462226 5.513607 2.864759 4.932659 3.898709 3.898709 
C 4.932659 2.864759 5.513607 1.462226 5.513607 0 
C 5.513607 -1.462226 4.932659 -2.864759 3.898709 -3.898709 
C 2.864759 -4.932659 1.462226 -5.513607 0 -5.513607 
C -1.462226 -5.513607 -2.864759 -4.932659 -3.898709 -3.898709 
C -4.932659 -2.864759 -5.513607 -1.462226 -5.513607 0 
C -5.513607 1.462226 -4.932659 2.864759 -3.898709 3.898709 
C -2.864759 4.932659 -1.462226 5.513607 0 5.513607 
z
" style="stroke: #000000"/>
    </defs>
    <g clip-path="url(#p855feb262d)">
     <use xlink:href="#md62c1f9ef1" x="310.619966" y="291.619031" style="stroke: #000000"/>
    </g>
   </g>
   <g id="line2d_8">
    <defs>
     <path id="md620271b0d" d="M 0 5.488998 
C 1.455699 5.488998 2.851973 4.910642 3.881307 3.881307 
C 4.910642 2.851973 5.488998 1.455699 5.488998 0 
C 5.488998 -1.455699 4.910642 -2.851973 3.881307 -3.881307 
C 2.851973 -4.910642 1.455699 -5.488998 0 -5.488998 
C -1.455699 -5.488998 -2.851973 -4.910642 -3.881307 -3.881307 
C -4.910642 -2.851973 -5.488998 -1.455699 -5.488998 0 
C -5.488998 1.455699 -4.910642 2.851973 -3.881307 3.881307 
C -2.851973 4.910642 -1.455699 5.488998 0 5.488998 
z
" style="stroke: #000000"/>
    </defs>
    <g clip-path="url(#p855feb262d)">
     <use xlink:href="#md620271b0d" x="397.359204" y="158.459711" style="stroke: #000000"/>
    </g>
   </g>
   <g id="line2d_9">
    <defs>
     <path id="mda826f3ba0" d="M 0 5.382021 
C 1.427329 5.382021 2.79639 4.814937 3.805664 3.805664 
C 4.814937 2.79639 5.382021 1.427329 5.382021 0 
C 5.382021 -1.427329 4.814937 -2.79639 3.805664 -3.805664 
C 2.79639 -4.814937 1.427329 -5.382021 0 -5.382021 
C -1.427329 -5.382021 -2.79639 -4.814937 -3.805664 -3.805664 
C -4.814937 -2.79639 -5.382021 -1.427329 -5.382021 0 
C -5.382021 1.427329 -4.814937 2.79639 -3.805664 3.805664 
C -2.79639 4.814937 -1.427329 5.382021 0 5.382021 
z
" style="stroke: #000000"/>
    </defs>
    <g clip-path="url(#p855feb262d)">
     <use xlink:href="#mda826f3ba0" x="394.555737" y="164.243615" style="stroke: #000000"/>
    </g>
   </g>
   <g id="line2d_10">
    <defs>
     <path id="m742548f238" d="M 0 5.139225 
C 1.362938 5.139225 2.670238 4.597724 3.633981 3.633981 
C 4.597724 2.670238 5.139225 1.362938 5.139225 0 
C 5.139225 -1.362938 4.597724 -2.670238 3.633981 -3.633981 
C 2.670238 -4.597724 1.362938 -5.139225 0 -5.139225 
C -1.362938 -5.139225 -2.670238 -4.597724 -3.633981 -3.633981 
C -4.597724 -2.670238 -5.139225 -1.362938 -5.139225 0 
C -5.139225 1.362938 -4.597724 2.670238 -3.633981 3.633981 
C -2.670238 4.597724 -1.362938 5.139225 0 5.139225 
z
" style="stroke: #000000"/>
    </defs>
    <g clip-path="url(#p855feb262d)">
     <use xlink:href="#m742548f238" x="341.219907" y="307.8" style="stroke: #000000"/>
    </g>
   </g>
  </g>
 </g>
 <defs>
  <clipPath id="p855feb262d">
   <path d="M 304.781963 320.4 
L 304.781963 43.2 
L 433.218037 43.2 
L 433.218037 320.4 
L 304.781963 320.4 
"/>
  </clipPath>
 </defs>
</svg>
