<?xml version="1.0" encoding="utf-8" standalone="no"?>
<!DOCTYPE svg PUBLIC "-//W3C//DTD SVG 1.1//EN"
  "http://www.w3.org/Graphics/SVG/1.1/DTD/svg11.dtd">
<svg xmlns:xlink="http://www.w3.org/1999/xlink" width="720pt" height="360pt" viewBox="0 0 720 360" xmlns="http://www.w3.org/2000/svg" version="1.1">
 <metadata>
  <rdf:RDF xmlns:dc="http://purl.org/dc/elements/1.1/" xmlns:cc="http://creativecommons.org/ns#" xmlns:rdf="http://www.w3.org/1999/02/22-rdf-syntax-ns#">
   <cc:Work>
    <dc:type rdf:resource="http://purl.org/dc/dcmitype/StillImage"/>
    <dc:date>2023-11-30T21:30:51.656930</dc:date>
    <dc:format>image/svg+xml</dc:format>
    <dc:creator>
     <cc:Agent>
      <dc:title>Matplotlib v3.8.1, https://matplotlib.org/</dc:title>
     </cc:Agent>
    </dc:creator>
   </cc:Work>
  </rdf:RDF>
 </metadata>
 <defs>
  <style type="text/css">*{stroke-linejoin: round; stroke-linecap: butt}</style>
 </defs>
 <g id="figure_1">
  <g id="patch_1">
   <path d="M 0 360 
L 720 360 
L 720 0 
L 0 0 
z
" style="fill: #ffffff"/>
  </g>
  <g id="axes_1">
   <g id="patch_2">
    <path d="M 90 294.036073 
L 90 69.563927 
L 648 69.563927 
L 648 294.036073 
L 90 294.036073 
" style="fill: #ffffff"/>
   </g>
   <g id="line2d_1">
    <defs>
     <path id="m2de2486c58" d="M 0 11.909748 
C 3.158502 11.909748 6.188065 10.654861 8.421463 8.421463 
C 10.654861 6.188065 11.909748 3.158502 11.909748 0 
C 11.909748 -3.158502 10.654861 -6.188065 8.421463 -8.421463 
C 6.188065 -10.654861 3.158502 -11.909748 0 -11.909748 
C -3.158502 -11.909748 -6.188065 -10.654861 -8.421463 -8.421463 
C -10.654861 -6.188065 -11.909748 -3.158502 -11.909748 0 
C -11.909748 3.158502 -10.654861 6.188065 -8.421463 8.421463 
C -6.188065 10.654861 -3.158502 11.909748 0 11.909748 
z
" style="stroke: #000000"/>
    </defs>
    <g clip-path="url(#peb66cbcf4f)">
     <use xlink:href="#m2de2486c58" x="185.615558" y="79.767207" style="stroke: #000000"/>
    </g>
   </g>
   <g id="line2d_2">
    <defs>
     <path id="mfc68798bb8" d="M 0 10.872994 
C 2.883552 10.872994 5.649389 9.727347 7.688368 7.688368 
C 9.727347 5.649389 10.872994 2.883552 10.872994 0 
C 10.872994 -2.883552 9.727347 -5.649389 7.688368 -7.688368 
C 5.649389 -9.727347 2.883552 -10.872994 0 -10.872994 
C -2.883552 -10.872994 -5.649389 -9.727347 -7.688368 -7.688368 
C -9.727347 -5.649389 -10.872994 -2.883552 -10.872994 0 
C -10.872994 2.883552 -9.727347 5.649389 -7.688368 7.688368 
C -5.649389 9.727347 -2.883552 10.872994 0 10.872994 
z
" style="stroke: #000000"/>
    </defs>
    <g clip-path="url(#peb66cbcf4f)">
     <use xlink:href="#mfc68798bb8" x="337.058934" y="135.32482" style="stroke: #000000"/>
    </g>
   </g>
   <g id="line2d_3">
    <defs>
     <path id="mdf4ca8a810" d="M 0 10.782345 
C 2.859511 10.782345 5.602289 9.646249 7.624269 7.624269 
C 9.646249 5.602289 10.782345 2.859511 10.782345 0 
C 10.782345 -2.859511 9.646249 -5.602289 7.624269 -7.624269 
C 5.602289 -9.646249 2.859511 -10.782345 0 -10.782345 
C -2.859511 -10.782345 -5.602289 -9.646249 -7.624269 -7.624269 
C -9.646249 -5.602289 -10.782345 -2.859511 -10.782345 0 
C -10.782345 2.859511 -9.646249 5.602289 -7.624269 7.624269 
C -5.602289 9.646249 -2.859511 10.782345 0 10.782345 
z
" style="stroke: #000000"/>
    </defs>
    <g clip-path="url(#peb66cbcf4f)">
     <use xlink:href="#mdf4ca8a810" x="189.900224" y="121.407866" style="stroke: #000000"/>
    </g>
   </g>
   <g id="line2d_4">
    <defs>
     <path id="m77c1ac9d65" d="M 0 10.626923 
C 2.818293 10.626923 5.521535 9.507203 7.514369 7.514369 
C 9.507203 5.521535 10.626923 2.818293 10.626923 0 
C 10.626923 -2.818293 9.507203 -5.521535 7.514369 -7.514369 
C 5.521535 -9.507203 2.818293 -10.626923 0 -10.626923 
C -2.818293 -10.626923 -5.521535 -9.507203 -7.514369 -7.514369 
C -9.507203 -5.521535 -10.626923 -2.818293 -10.626923 0 
C -10.626923 2.818293 -9.507203 5.521535 -7.514369 7.514369 
C -5.521535 9.507203 -2.818293 10.626923 0 10.626923 
z
" style="stroke: #000000"/>
    </defs>
    <g clip-path="url(#peb66cbcf4f)">
     <use xlink:href="#m77c1ac9d65" x="115.363636" y="210.421521" style="stroke: #000000"/>
    </g>
   </g>
   <g id="line2d_5">
    <defs>
     <path id="md3fde41b1b" d="M 0 10.39336 
C 2.756351 10.39336 5.400181 9.29825 7.349215 7.349215 
C 9.29825 5.400181 10.39336 2.756351 10.39336 0 
C 10.39336 -2.756351 9.29825 -5.400181 7.349215 -7.349215 
C 5.400181 -9.29825 2.756351 -10.39336 0 -10.39336 
C -2.756351 -10.39336 -5.400181 -9.29825 -7.349215 -7.349215 
C -9.29825 -5.400181 -10.39336 -2.756351 -10.39336 0 
C -10.39336 2.756351 -9.29825 5.400181 -7.349215 7.349215 
C -5.400181 9.29825 -2.756351 10.39336 0 10.39336 
z
" style="stroke: #000000"/>
    </defs>
    <g clip-path="url(#peb66cbcf4f)">
     <use xlink:href="#md3fde41b1b" x="512.689903" y="276.516951" style="stroke: #000000"/>
    </g>
   </g>
   <g id="line2d_6">
    <defs>
     <path id="m3665757410" d="M 0 10.386318 
C 2.754484 10.386318 5.396522 9.29195 7.344236 7.344236 
C 9.29195 5.396522 10.386318 2.754484 10.386318 0 
C 10.386318 -2.754484 9.29195 -5.396522 7.344236 -7.344236 
C 5.396522 -9.29195 2.754484 -10.386318 0 -10.386318 
C -2.754484 -10.386318 -5.396522 -9.29195 -7.344236 -7.344236 
C -9.29195 -5.396522 -10.386318 -2.754484 -10.386318 0 
C -10.386318 2.754484 -9.29195 5.396522 -7.344236 7.344236 
C -5.396522 9.29195 -2.754484 10.386318 0 10.386318 
z
" style="stroke: #000000"/>
    </defs>
    <g clip-path="url(#peb66cbcf4f)">
     <use xlink:href="#m3665757410" x="622.636364" y="234.940065" style="stroke: #000000"/>
    </g>
   </g>
   <g id="line2d_7">
    <defs>
     <path id="m24b61ffc15" d="M 0 10.381506 
C 2.753207 10.381506 5.394021 9.287645 7.340833 7.340833 
C 9.287645 5.394021 10.381506 2.753207 10.381506 0 
C 10.381506 -2.753207 9.287645 -5.394021 7.340833 -7.340833 
C 5.394021 -9.287645 2.753207 -10.381506 0 -10.381506 
C -2.753207 -10.381506 -5.394021 -9.287645 -7.340833 -7.340833 
C -9.287645 -5.394021 -10.381506 -2.753207 -10.381506 0 
C -10.381506 2.753207 -9.287645 5.394021 -7.340833 7.340833 
C -5.394021 9.287645 -2.753207 10.381506 0 10.381506 
z
" style="stroke: #000000"/>
    </defs>
    <g clip-path="url(#peb66cbcf4f)">
     <use xlink:href="#m24b61ffc15" x="432.900167" y="280.062123" style="stroke: #000000"/>
    </g>
   </g>
   <g id="line2d_8">
    <defs>
     <path id="m4db4982845" d="M 0 10.203354 
C 2.705961 10.203354 5.301457 9.128264 7.214861 7.214861 
C 9.128264 5.301457 10.203354 2.705961 10.203354 0 
C 10.203354 -2.705961 9.128264 -5.301457 7.214861 -7.214861 
C 5.301457 -9.128264 2.705961 -10.203354 0 -10.203354 
C -2.705961 -10.203354 -5.301457 -9.128264 -7.214861 -7.214861 
C -9.128264 -5.301457 -10.203354 -2.705961 -10.203354 0 
C -10.203354 2.705961 -9.128264 5.301457 -7.214861 7.214861 
C -5.301457 9.128264 -2.705961 10.203354 0 10.203354 
z
" style="stroke: #000000"/>
    </defs>
    <g clip-path="url(#peb66cbcf4f)">
     <use xlink:href="#m4db4982845" x="322.722543" y="237.009353" style="stroke: #000000"/>
    </g>
   </g>
   <g id="line2d_9">
    <defs>
     <path id="md23450ca78" d="M 0 10.179051 
C 2.699516 10.179051 5.28883 9.106522 7.197676 7.197676 
C 9.106522 5.28883 10.179051 2.699516 10.179051 0 
C 10.179051 -2.699516 9.106522 -5.28883 7.197676 -7.197676 
C 5.28883 -9.106522 2.699516 -10.179051 0 -10.179051 
C -2.699516 -10.179051 -5.28883 -9.106522 -7.197676 -7.197676 
C -9.106522 -5.28883 -10.179051 -2.699516 -10.179051 0 
C -10.179051 2.699516 -9.106522 5.28883 -7.197676 7.197676 
C -5.28883 9.106522 -2.699516 10.179051 0 10.179051 
z
" style="stroke: #000000"/>
    </defs>
    <g clip-path="url(#peb66cbcf4f)">
     <use xlink:href="#md23450ca78" x="253.331666" y="283.832793" style="stroke: #000000"/>
    </g>
   </g>
   <g id="line2d_10">
    <defs>
     <path id="mf59512630c" d="M 0 10.100087 
C 2.678574 10.100087 5.247802 9.035878 7.14184 7.14184 
C 9.035878 5.247802 10.100087 2.678574 10.100087 0 
C 10.100087 -2.678574 9.035878 -5.247802 7.14184 -7.14184 
C 5.247802 -9.035878 2.678574 -10.100087 0 -10.100087 
C -2.678574 -10.100087 -5.247802 -9.035878 -7.14184 -7.14184 
C -9.035878 -5.247802 -10.100087 -2.678574 -10.100087 0 
C -10.100087 2.678574 -9.035878 5.247802 -7.14184 7.14184 
C -5.247802 9.035878 -2.678574 10.100087 0 10.100087 
z
" style="stroke: #000000"/>
    </defs>
    <g clip-path="url(#peb66cbcf4f)">
     <use xlink:href="#mf59512630c" x="439.10473" y="194.636725" style="stroke: #000000"/>
    </g>
   </g>
  </g>
 </g>
 <defs>
  <clipPath id="peb66cbcf4f">
   <path d="M 90 294.036073 
L 90 69.563927 
L 648 69.563927 
L 648 294.036073 
L 90 294.036073 
"/>
  </clipPath>
 </defs>
</svg>
