<?xml version="1.0" encoding="utf-8" standalone="no"?>
<!DOCTYPE svg PUBLIC "-//W3C//DTD SVG 1.1//EN"
  "http://www.w3.org/Graphics/SVG/1.1/DTD/svg11.dtd">
<svg xmlns:xlink="http://www.w3.org/1999/xlink" width="720pt" height="360pt" viewBox="0 0 720 360" xmlns="http://www.w3.org/2000/svg" version="1.1">
 <metadata>
  <rdf:RDF xmlns:dc="http://purl.org/dc/elements/1.1/" xmlns:cc="http://creativecommons.org/ns#" xmlns:rdf="http://www.w3.org/1999/02/22-rdf-syntax-ns#">
   <cc:Work>
    <dc:type rdf:resource="http://purl.org/dc/dcmitype/StillImage"/>
    <dc:date>2023-11-30T21:30:53.005576</dc:date>
    <dc:format>image/svg+xml</dc:format>
    <dc:creator>
     <cc:Agent>
      <dc:title>Matplotlib v3.8.1, https://matplotlib.org/</dc:title>
     </cc:Agent>
    </dc:creator>
   </cc:Work>
  </rdf:RDF>
 </metadata>
 <defs>
  <style type="text/css">*{stroke-linejoin: round; stroke-linecap: butt}</style>
 </defs>
 <g id="figure_1">
  <g id="patch_1">
   <path d="M 0 360 
L 720 360 
L 720 0 
L 0 0 
z
" style="fill: #ffffff"/>
  </g>
  <g id="axes_1">
   <g id="patch_2">
    <path d="M 227.357744 320.4 
L 227.357744 43.2 
L 510.642256 43.2 
L 510.642256 320.4 
L 227.357744 320.4 
" style="fill: #ffffff"/>
   </g>
   <g id="line2d_1">
    <defs>
     <path id="m42ce5cb8f1" d="M 0 8.020594 
C 2.127086 8.020594 4.167339 7.175494 5.671417 5.671417 
C 7.175494 4.167339 8.020594 2.127086 8.020594 0 
C 8.020594 -2.127086 7.175494 -4.167339 5.671417 -5.671417 
C 4.167339 -7.175494 2.127086 -8.020594 0 -8.020594 
C -2.127086 -8.020594 -4.167339 -7.175494 -5.671417 -5.671417 
C -7.175494 -4.167339 -8.020594 -2.127086 -8.020594 0 
C -8.020594 2.127086 -7.175494 4.167339 -5.671417 5.671417 
C -4.167339 7.175494 -2.127086 8.020594 0 8.020594 
z
" style="stroke: #000000"/>
    </defs>
    <g clip-path="url(#p4545287bad)">
     <use xlink:href="#m42ce5cb8f1" x="375.657194" y="132.588355" style="stroke: #000000"/>
    </g>
   </g>
   <g id="line2d_2">
    <defs>
     <path id="mecbf763b26" d="M 0 7.891461 
C 2.09284 7.891461 4.100244 7.059967 5.580105 5.580105 
C 7.059967 4.100244 7.891461 2.09284 7.891461 0 
C 7.891461 -2.09284 7.059967 -4.100244 5.580105 -5.580105 
C 4.100244 -7.059967 2.09284 -7.891461 0 -7.891461 
C -2.09284 -7.891461 -4.100244 -7.059967 -5.580105 -5.580105 
C -7.059967 -4.100244 -7.891461 -2.09284 -7.891461 0 
C -7.891461 2.09284 -7.059967 4.100244 -5.580105 5.580105 
C -4.100244 7.059967 -2.09284 7.891461 0 7.891461 
z
" style="stroke: #000000"/>
    </defs>
    <g clip-path="url(#p4545287bad)">
     <use xlink:href="#mecbf763b26" x="360.853863" y="253.7677" style="stroke: #000000"/>
    </g>
   </g>
   <g id="line2d_3">
    <defs>
     <path id="m2ab0e2165c" d="M 0 7.87906 
C 2.089551 7.87906 4.093801 7.048872 5.571336 5.571336 
C 7.048872 4.093801 7.87906 2.089551 7.87906 0 
C 7.87906 -2.089551 7.048872 -4.093801 5.571336 -5.571336 
C 4.093801 -7.048872 2.089551 -7.87906 0 -7.87906 
C -2.089551 -7.87906 -4.093801 -7.048872 -5.571336 -5.571336 
C -7.048872 -4.093801 -7.87906 -2.089551 -7.87906 0 
C -7.87906 2.089551 -7.048872 4.093801 -5.571336 5.571336 
C -4.093801 7.048872 -2.089551 7.87906 0 7.87906 
z
" style="stroke: #000000"/>
    </defs>
    <g clip-path="url(#p4545287bad)">
     <use xlink:href="#m2ab0e2165c" x="349.484216" y="253.818837" style="stroke: #000000"/>
    </g>
   </g>
   <g id="line2d_4">
    <defs>
     <path id="m1a3c57c9ed" d="M 0 7.790718 
C 2.066123 7.790718 4.0479 6.969839 5.50887 5.50887 
C 6.969839 4.0479 7.790718 2.066123 7.790718 0 
C 7.790718 -2.066123 6.969839 -4.0479 5.50887 -5.50887 
C 4.0479 -6.969839 2.066123 -7.790718 0 -7.790718 
C -2.066123 -7.790718 -4.0479 -6.969839 -5.50887 -5.50887 
C -6.969839 -4.0479 -7.790718 -2.066123 -7.790718 0 
C -7.790718 2.066123 -6.969839 4.0479 -5.50887 5.50887 
C -4.0479 6.969839 -2.066123 7.790718 0 7.790718 
z
" style="stroke: #000000"/>
    </defs>
    <g clip-path="url(#p4545287bad)">
     <use xlink:href="#m1a3c57c9ed" x="323.888582" y="55.8" style="stroke: #000000"/>
    </g>
   </g>
   <g id="line2d_5">
    <defs>
     <path id="me0d82b45da" d="M 0 7.560827 
C 2.005155 7.560827 3.928454 6.764171 5.346312 5.346312 
C 6.764171 3.928454 7.560827 2.005155 7.560827 0 
C 7.560827 -2.005155 6.764171 -3.928454 5.346312 -5.346312 
C 3.928454 -6.764171 2.005155 -7.560827 0 -7.560827 
C -2.005155 -7.560827 -3.928454 -6.764171 -5.346312 -5.346312 
C -6.764171 -3.928454 -7.560827 -2.005155 -7.560827 0 
C -7.560827 2.005155 -6.764171 3.928454 -5.346312 5.346312 
C -3.928454 6.764171 -2.005155 7.560827 0 7.560827 
z
" style="stroke: #000000"/>
    </defs>
    <g clip-path="url(#p4545287bad)">
     <use xlink:href="#me0d82b45da" x="497.765687" y="240.394853" style="stroke: #000000"/>
    </g>
   </g>
   <g id="line2d_6">
    <defs>
     <path id="mf86772e65b" d="M 0 7.547554 
C 2.001635 7.547554 3.921557 6.752296 5.336927 5.336927 
C 6.752296 3.921557 7.547554 2.001635 7.547554 0 
C 7.547554 -2.001635 6.752296 -3.921557 5.336927 -5.336927 
C 3.921557 -6.752296 2.001635 -7.547554 0 -7.547554 
C -2.001635 -7.547554 -3.921557 -6.752296 -5.336927 -5.336927 
C -6.752296 -3.921557 -7.547554 -2.001635 -7.547554 0 
C -7.547554 2.001635 -6.752296 3.921557 -5.336927 5.336927 
C -3.921557 6.752296 -2.001635 7.547554 0 7.547554 
z
" style="stroke: #000000"/>
    </defs>
    <g clip-path="url(#p4545287bad)">
     <use xlink:href="#mf86772e65b" x="443.718081" y="70.806442" style="stroke: #000000"/>
    </g>
   </g>
   <g id="line2d_7">
    <defs>
     <path id="md14eb0dc0b" d="M 0 7.352303 
C 1.949854 7.352303 3.820109 6.577618 5.198863 5.198863 
C 6.577618 3.820109 7.352303 1.949854 7.352303 0 
C 7.352303 -1.949854 6.577618 -3.820109 5.198863 -5.198863 
C 3.820109 -6.577618 1.949854 -7.352303 0 -7.352303 
C -1.949854 -7.352303 -3.820109 -6.577618 -5.198863 -5.198863 
C -6.577618 -3.820109 -7.352303 -1.949854 -7.352303 0 
C -7.352303 1.949854 -6.577618 3.820109 -5.198863 5.198863 
C -3.820109 6.577618 -1.949854 7.352303 0 7.352303 
z
" style="stroke: #000000"/>
    </defs>
    <g clip-path="url(#p4545287bad)">
     <use xlink:href="#md14eb0dc0b" x="360.443644" y="240.272114" style="stroke: #000000"/>
    </g>
   </g>
   <g id="line2d_8">
    <defs>
     <path id="m6380b6c059" d="M 0 7.179085 
C 1.903916 7.179085 3.730108 6.422651 5.07638 5.07638 
C 6.422651 3.730108 7.179085 1.903916 7.179085 0 
C 7.179085 -1.903916 6.422651 -3.730108 5.07638 -5.07638 
C 3.730108 -6.422651 1.903916 -7.179085 0 -7.179085 
C -1.903916 -7.179085 -3.730108 -6.422651 -5.07638 -5.07638 
C -6.422651 -3.730108 -7.179085 -1.903916 -7.179085 0 
C -7.179085 1.903916 -6.422651 3.730108 -5.07638 5.07638 
C -3.730108 6.422651 -1.903916 7.179085 0 7.179085 
z
" style="stroke: #000000"/>
    </defs>
    <g clip-path="url(#p4545287bad)">
     <use xlink:href="#m6380b6c059" x="334.017444" y="64.76513" style="stroke: #000000"/>
    </g>
   </g>
   <g id="line2d_9">
    <defs>
     <path id="mc50257fdb9" d="M 0 7.109017 
C 1.885333 7.109017 3.693702 6.359966 5.026834 5.026834 
C 6.359966 3.693702 7.109017 1.885333 7.109017 0 
C 7.109017 -1.885333 6.359966 -3.693702 5.026834 -5.026834 
C 3.693702 -6.359966 1.885333 -7.109017 0 -7.109017 
C -1.885333 -7.109017 -3.693702 -6.359966 -5.026834 -5.026834 
C -6.359966 -3.693702 -7.109017 -1.885333 -7.109017 0 
C -7.109017 1.885333 -6.359966 3.693702 -5.026834 5.026834 
C -3.693702 6.359966 -1.885333 7.109017 0 7.109017 
z
" style="stroke: #000000"/>
    </defs>
    <g clip-path="url(#p4545287bad)">
     <use xlink:href="#mc50257fdb9" x="240.234313" y="307.8" style="stroke: #000000"/>
    </g>
   </g>
   <g id="line2d_10">
    <defs>
     <path id="mbc4226453d" d="M 0 7.058131 
C 1.871838 7.058131 3.667263 6.314442 4.990853 4.990853 
C 6.314442 3.667263 7.058131 1.871838 7.058131 0 
C 7.058131 -1.871838 6.314442 -3.667263 4.990853 -4.990853 
C 3.667263 -6.314442 1.871838 -7.058131 0 -7.058131 
C -1.871838 -7.058131 -3.667263 -6.314442 -4.990853 -4.990853 
C -6.314442 -3.667263 -7.058131 -1.871838 -7.058131 0 
C -7.058131 1.871838 -6.314442 3.667263 -4.990853 4.990853 
C -3.667263 6.314442 -1.871838 7.058131 0 7.058131 
z
" style="stroke: #000000"/>
    </defs>
    <g clip-path="url(#p4545287bad)">
     <use xlink:href="#mbc4226453d" x="389.781892" y="63.085808" style="stroke: #000000"/>
    </g>
   </g>
  </g>
 </g>
 <defs>
  <clipPath id="p4545287bad">
   <path d="M 227.357744 320.4 
L 227.357744 43.2 
L 510.642256 43.2 
L 510.642256 320.4 
L 227.357744 320.4 
"/>
  </clipPath>
 </defs>
</svg>
