<?xml version="1.0" encoding="utf-8" standalone="no"?>
<!DOCTYPE svg PUBLIC "-//W3C//DTD SVG 1.1//EN"
  "http://www.w3.org/Graphics/SVG/1.1/DTD/svg11.dtd">
<svg xmlns:xlink="http://www.w3.org/1999/xlink" width="720pt" height="360pt" viewBox="0 0 720 360" xmlns="http://www.w3.org/2000/svg" version="1.1">
 <metadata>
  <rdf:RDF xmlns:dc="http://purl.org/dc/elements/1.1/" xmlns:cc="http://creativecommons.org/ns#" xmlns:rdf="http://www.w3.org/1999/02/22-rdf-syntax-ns#">
   <cc:Work>
    <dc:type rdf:resource="http://purl.org/dc/dcmitype/StillImage"/>
    <dc:date>2023-11-30T21:30:52.161154</dc:date>
    <dc:format>image/svg+xml</dc:format>
    <dc:creator>
     <cc:Agent>
      <dc:title>Matplotlib v3.8.1, https://matplotlib.org/</dc:title>
     </cc:Agent>
    </dc:creator>
   </cc:Work>
  </rdf:RDF>
 </metadata>
 <defs>
  <style type="text/css">*{stroke-linejoin: round; stroke-linecap: butt}</style>
 </defs>
 <g id="figure_1">
  <g id="patch_1">
   <path d="M 0 360 
L 720 360 
L 720 0 
L 0 0 
z
" style="fill: #ffffff"/>
  </g>
  <g id="axes_1">
   <g id="patch_2">
    <path d="M 291.580774 320.4 
L 291.580774 43.2 
L 446.419226 43.2 
L 446.419226 320.4 
L 291.580774 320.4 
" style="fill: #ffffff"/>
   </g>
   <g id="line2d_1">
    <defs>
     <path id="mf673fa555b" d="M 0 11.45414 
C 3.037674 11.45414 5.951341 10.24726 8.0993 8.0993 
C 10.24726 5.951341 11.45414 3.037674 11.45414 0 
C 11.45414 -3.037674 10.24726 -5.951341 8.0993 -8.0993 
C 5.951341 -10.24726 3.037674 -11.45414 0 -11.45414 
C -3.037674 -11.45414 -5.951341 -10.24726 -8.0993 -8.0993 
C -10.24726 -5.951341 -11.45414 -3.037674 -11.45414 0 
C -11.45414 3.037674 -10.24726 5.951341 -8.0993 8.0993 
C -5.951341 10.24726 -3.037674 11.45414 0 11.45414 
z
" style="stroke: #000000"/>
    </defs>
    <g clip-path="url(#p01dbd699ed)">
     <use xlink:href="#mf673fa555b" x="420.114434" y="64.21159" style="stroke: #000000"/>
    </g>
   </g>
   <g id="line2d_2">
    <defs>
     <path id="m7c97dfb5dc" d="M 0 10.267683 
C 2.723021 10.267683 5.334882 9.185815 7.260348 7.260348 
C 9.185815 5.334882 10.267683 2.723021 10.267683 0 
C 10.267683 -2.723021 9.185815 -5.334882 7.260348 -7.260348 
C 5.334882 -9.185815 2.723021 -10.267683 0 -10.267683 
C -2.723021 -10.267683 -5.334882 -9.185815 -7.260348 -7.260348 
C -9.185815 -5.334882 -10.267683 -2.723021 -10.267683 0 
C -10.267683 2.723021 -9.185815 5.334882 -7.260348 7.260348 
C -5.334882 9.185815 -2.723021 10.267683 0 10.267683 
z
" style="stroke: #000000"/>
    </defs>
    <g clip-path="url(#p01dbd699ed)">
     <use xlink:href="#m7c97dfb5dc" x="307.833425" y="307.8" style="stroke: #000000"/>
    </g>
   </g>
   <g id="line2d_3">
    <defs>
     <path id="m05e3399a61" d="M 0 9.994579 
C 2.650593 9.994579 5.192982 8.941487 7.067235 7.067235 
C 8.941487 5.192982 9.994579 2.650593 9.994579 0 
C 9.994579 -2.650593 8.941487 -5.192982 7.067235 -7.067235 
C 5.192982 -8.941487 2.650593 -9.994579 0 -9.994579 
C -2.650593 -9.994579 -5.192982 -8.941487 -7.067235 -7.067235 
C -8.941487 -5.192982 -9.994579 -2.650593 -9.994579 0 
C -9.994579 2.650593 -8.941487 5.192982 -7.067235 7.067235 
C -5.192982 8.941487 -2.650593 9.994579 0 9.994579 
z
" style="stroke: #000000"/>
    </defs>
    <g clip-path="url(#p01dbd699ed)">
     <use xlink:href="#m05e3399a61" x="341.979745" y="155.001651" style="stroke: #000000"/>
    </g>
   </g>
   <g id="line2d_4">
    <defs>
     <path id="m6ae1e0c720" d="M 0 9.778406 
C 2.593264 9.778406 5.080663 8.748092 6.914377 6.914377 
C 8.748092 5.080663 9.778406 2.593264 9.778406 0 
C 9.778406 -2.593264 8.748092 -5.080663 6.914377 -6.914377 
C 5.080663 -8.748092 2.593264 -9.778406 0 -9.778406 
C -2.593264 -9.778406 -5.080663 -8.748092 -6.914377 -6.914377 
C -8.748092 -5.080663 -9.778406 -2.593264 -9.778406 0 
C -9.778406 2.593264 -8.748092 5.080663 -6.914377 6.914377 
C -5.080663 8.748092 -2.593264 9.778406 0 9.778406 
z
" style="stroke: #000000"/>
    </defs>
    <g clip-path="url(#p01dbd699ed)">
     <use xlink:href="#m6ae1e0c720" x="298.618885" y="270.571772" style="stroke: #000000"/>
    </g>
   </g>
   <g id="line2d_5">
    <defs>
     <path id="m05821c814a" d="M 0 9.525752 
C 2.526259 9.525752 4.949389 8.522059 6.735724 6.735724 
C 8.522059 4.949389 9.525752 2.526259 9.525752 0 
C 9.525752 -2.526259 8.522059 -4.949389 6.735724 -6.735724 
C 4.949389 -8.522059 2.526259 -9.525752 0 -9.525752 
C -2.526259 -9.525752 -4.949389 -8.522059 -6.735724 -6.735724 
C -8.522059 -4.949389 -9.525752 -2.526259 -9.525752 0 
C -9.525752 2.526259 -8.522059 4.949389 -6.735724 6.735724 
C -4.949389 8.522059 -2.526259 9.525752 0 9.525752 
z
" style="stroke: #000000"/>
    </defs>
    <g clip-path="url(#p01dbd699ed)">
     <use xlink:href="#m05821c814a" x="414.156312" y="67.598678" style="stroke: #000000"/>
    </g>
   </g>
   <g id="line2d_6">
    <defs>
     <path id="mfb4dfd0c4c" d="M 0 9.312194 
C 2.469623 9.312194 4.838429 8.331003 6.584716 6.584716 
C 8.331003 4.838429 9.312194 2.469623 9.312194 0 
C 9.312194 -2.469623 8.331003 -4.838429 6.584716 -6.584716 
C 4.838429 -8.331003 2.469623 -9.312194 0 -9.312194 
C -2.469623 -9.312194 -4.838429 -8.331003 -6.584716 -6.584716 
C -8.331003 -4.838429 -9.312194 -2.469623 -9.312194 0 
C -9.312194 2.469623 -8.331003 4.838429 -6.584716 6.584716 
C -4.838429 8.331003 -2.469623 9.312194 0 9.312194 
z
" style="stroke: #000000"/>
    </defs>
    <g clip-path="url(#p01dbd699ed)">
     <use xlink:href="#mfb4dfd0c4c" x="368.21446" y="88.882916" style="stroke: #000000"/>
    </g>
   </g>
   <g id="line2d_7">
    <defs>
     <path id="m1a98bd737e" d="M 0 9.308445 
C 2.468628 9.308445 4.836481 8.327648 6.582065 6.582065 
C 8.327648 4.836481 9.308445 2.468628 9.308445 0 
C 9.308445 -2.468628 8.327648 -4.836481 6.582065 -6.582065 
C 4.836481 -8.327648 2.468628 -9.308445 0 -9.308445 
C -2.468628 -9.308445 -4.836481 -8.327648 -6.582065 -6.582065 
C -8.327648 -4.836481 -9.308445 -2.468628 -9.308445 0 
C -9.308445 2.468628 -8.327648 4.836481 -6.582065 6.582065 
C -4.836481 8.327648 -2.468628 9.308445 0 9.308445 
z
" style="stroke: #000000"/>
    </defs>
    <g clip-path="url(#p01dbd699ed)">
     <use xlink:href="#m1a98bd737e" x="398.470401" y="69.680631" style="stroke: #000000"/>
    </g>
   </g>
   <g id="line2d_8">
    <defs>
     <path id="mf9ed86cc4c" d="M 0 9.300327 
C 2.466475 9.300327 4.832263 8.320386 6.576324 6.576324 
C 8.320386 4.832263 9.300327 2.466475 9.300327 0 
C 9.300327 -2.466475 8.320386 -4.832263 6.576324 -6.576324 
C 4.832263 -8.320386 2.466475 -9.300327 0 -9.300327 
C -2.466475 -9.300327 -4.832263 -8.320386 -6.576324 -6.576324 
C -8.320386 -4.832263 -9.300327 -2.466475 -9.300327 0 
C -9.300327 2.466475 -8.320386 4.832263 -6.576324 6.576324 
C -4.832263 8.320386 -2.466475 9.300327 0 9.300327 
z
" style="stroke: #000000"/>
    </defs>
    <g clip-path="url(#p01dbd699ed)">
     <use xlink:href="#mf9ed86cc4c" x="439.381115" y="55.8" style="stroke: #000000"/>
    </g>
   </g>
   <g id="line2d_9">
    <defs>
     <path id="m395483fe02" d="M 0 9.209464 
C 2.442378 9.209464 4.785052 8.239096 6.512074 6.512074 
C 8.239096 4.785052 9.209464 2.442378 9.209464 0 
C 9.209464 -2.442378 8.239096 -4.785052 6.512074 -6.512074 
C 4.785052 -8.239096 2.442378 -9.209464 0 -9.209464 
C -2.442378 -9.209464 -4.785052 -8.239096 -6.512074 -6.512074 
C -8.239096 -4.785052 -9.209464 -2.442378 -9.209464 0 
C -9.209464 2.442378 -8.239096 4.785052 -6.512074 6.512074 
C -4.785052 8.239096 -2.442378 9.209464 0 9.209464 
z
" style="stroke: #000000"/>
    </defs>
    <g clip-path="url(#p01dbd699ed)">
     <use xlink:href="#m395483fe02" x="426.803268" y="172.057219" style="stroke: #000000"/>
    </g>
   </g>
   <g id="line2d_10">
    <defs>
     <path id="me1b4a78904" d="M 0 9.025549 
C 2.393603 9.025549 4.689493 8.07456 6.382027 6.382027 
C 8.07456 4.689493 9.025549 2.393603 9.025549 0 
C 9.025549 -2.393603 8.07456 -4.689493 6.382027 -6.382027 
C 4.689493 -8.07456 2.393603 -9.025549 0 -9.025549 
C -2.393603 -9.025549 -4.689493 -8.07456 -6.382027 -6.382027 
C -8.07456 -4.689493 -9.025549 -2.393603 -9.025549 0 
C -9.025549 2.393603 -8.07456 4.689493 -6.382027 6.382027 
C -4.689493 8.07456 -2.393603 9.025549 0 9.025549 
z
" style="stroke: #000000"/>
    </defs>
    <g clip-path="url(#p01dbd699ed)">
     <use xlink:href="#me1b4a78904" x="425.296691" y="60.798272" style="stroke: #000000"/>
    </g>
   </g>
  </g>
 </g>
 <defs>
  <clipPath id="p01dbd699ed">
   <path d="M 291.580774 320.4 
L 291.580774 43.2 
L 446.419226 43.2 
L 446.419226 320.4 
L 291.580774 320.4 
"/>
  </clipPath>
 </defs>
</svg>
