<?xml version="1.0" encoding="utf-8" standalone="no"?>
<!DOCTYPE svg PUBLIC "-//W3C//DTD SVG 1.1//EN"
  "http://www.w3.org/Graphics/SVG/1.1/DTD/svg11.dtd">
<svg xmlns:xlink="http://www.w3.org/1999/xlink" width="720pt" height="360pt" viewBox="0 0 720 360" xmlns="http://www.w3.org/2000/svg" version="1.1">
 <metadata>
  <rdf:RDF xmlns:dc="http://purl.org/dc/elements/1.1/" xmlns:cc="http://creativecommons.org/ns#" xmlns:rdf="http://www.w3.org/1999/02/22-rdf-syntax-ns#">
   <cc:Work>
    <dc:type rdf:resource="http://purl.org/dc/dcmitype/StillImage"/>
    <dc:date>2023-11-30T21:30:52.225804</dc:date>
    <dc:format>image/svg+xml</dc:format>
    <dc:creator>
     <cc:Agent>
      <dc:title>Matplotlib v3.8.1, https://matplotlib.org/</dc:title>
     </cc:Agent>
    </dc:creator>
   </cc:Work>
  </rdf:RDF>
 </metadata>
 <defs>
  <style type="text/css">*{stroke-linejoin: round; stroke-linecap: butt}</style>
 </defs>
 <g id="figure_1">
  <g id="patch_1">
   <path d="M 0 360 
L 720 360 
L 720 0 
L 0 0 
z
" style="fill: #ffffff"/>
  </g>
  <g id="axes_1">
   <g id="patch_2">
    <path d="M 159.387086 320.4 
L 159.387086 43.2 
L 578.612914 43.2 
L 578.612914 320.4 
L 159.387086 320.4 
" style="fill: #ffffff"/>
   </g>
   <g id="line2d_1">
    <defs>
     <path id="m8b1f03723e" d="M 0 11.180087 
C 2.964994 11.180087 5.808948 10.002083 7.905515 7.905515 
C 10.002083 5.808948 11.180087 2.964994 11.180087 0 
C 11.180087 -2.964994 10.002083 -5.808948 7.905515 -7.905515 
C 5.808948 -10.002083 2.964994 -11.180087 0 -11.180087 
C -2.964994 -11.180087 -5.808948 -10.002083 -7.905515 -7.905515 
C -10.002083 -5.808948 -11.180087 -2.964994 -11.180087 0 
C -11.180087 2.964994 -10.002083 5.808948 -7.905515 7.905515 
C -5.808948 10.002083 -2.964994 11.180087 0 11.180087 
z
" style="stroke: #000000"/>
    </defs>
    <g clip-path="url(#p784a0984a5)">
     <use xlink:href="#m8b1f03723e" x="559.557195" y="225.490885" style="stroke: #000000"/>
    </g>
   </g>
   <g id="line2d_2">
    <defs>
     <path id="m3ec63b17e7" d="M 0 9.36831 
C 2.484505 9.36831 4.867585 8.381206 6.624396 6.624396 
C 8.381206 4.867585 9.36831 2.484505 9.36831 0 
C 9.36831 -2.484505 8.381206 -4.867585 6.624396 -6.624396 
C 4.867585 -8.381206 2.484505 -9.36831 0 -9.36831 
C -2.484505 -9.36831 -4.867585 -8.381206 -6.624396 -6.624396 
C -8.381206 -4.867585 -9.36831 -2.484505 -9.36831 0 
C -9.36831 2.484505 -8.381206 4.867585 -6.624396 6.624396 
C -4.867585 8.381206 -2.484505 9.36831 0 9.36831 
z
" style="stroke: #000000"/>
    </defs>
    <g clip-path="url(#p784a0984a5)">
     <use xlink:href="#m3ec63b17e7" x="307.814771" y="55.8" style="stroke: #000000"/>
    </g>
   </g>
   <g id="line2d_3">
    <defs>
     <path id="mecab22ee31" d="M 0 9.311389 
C 2.469409 9.311389 4.83801 8.330282 6.584146 6.584146 
C 8.330282 4.83801 9.311389 2.469409 9.311389 0 
C 9.311389 -2.469409 8.330282 -4.83801 6.584146 -6.584146 
C 4.83801 -8.330282 2.469409 -9.311389 0 -9.311389 
C -2.469409 -9.311389 -4.83801 -8.330282 -6.584146 -6.584146 
C -8.330282 -4.83801 -9.311389 -2.469409 -9.311389 0 
C -9.311389 2.469409 -8.330282 4.83801 -6.584146 6.584146 
C -4.83801 8.330282 -2.469409 9.311389 0 9.311389 
z
" style="stroke: #000000"/>
    </defs>
    <g clip-path="url(#p784a0984a5)">
     <use xlink:href="#mecab22ee31" x="556.728135" y="199.428391" style="stroke: #000000"/>
    </g>
   </g>
   <g id="line2d_4">
    <defs>
     <path id="m3177467302" d="M 0 9.189996 
C 2.437215 9.189996 4.774937 8.22168 6.498308 6.498308 
C 8.22168 4.774937 9.189996 2.437215 9.189996 0 
C 9.189996 -2.437215 8.22168 -4.774937 6.498308 -6.498308 
C 4.774937 -8.22168 2.437215 -9.189996 0 -9.189996 
C -2.437215 -9.189996 -4.774937 -8.22168 -6.498308 -6.498308 
C -8.22168 -4.774937 -9.189996 -2.437215 -9.189996 0 
C -9.189996 2.437215 -8.22168 4.774937 -6.498308 6.498308 
C -4.774937 8.22168 -2.437215 9.189996 0 9.189996 
z
" style="stroke: #000000"/>
    </defs>
    <g clip-path="url(#p784a0984a5)">
     <use xlink:href="#m3177467302" x="457.343489" y="89.214623" style="stroke: #000000"/>
    </g>
   </g>
   <g id="line2d_5">
    <defs>
     <path id="mb3cfa0d401" d="M 0 9.076939 
C 2.407232 9.076939 4.716195 8.120536 6.418365 6.418365 
C 8.120536 4.716195 9.076939 2.407232 9.076939 0 
C 9.076939 -2.407232 8.120536 -4.716195 6.418365 -6.418365 
C 4.716195 -8.120536 2.407232 -9.076939 0 -9.076939 
C -2.407232 -9.076939 -4.716195 -8.120536 -6.418365 -6.418365 
C -8.120536 -4.716195 -9.076939 -2.407232 -9.076939 0 
C -9.076939 2.407232 -8.120536 4.716195 -6.418365 6.418365 
C -4.716195 8.120536 -2.407232 9.076939 0 9.076939 
z
" style="stroke: #000000"/>
    </defs>
    <g clip-path="url(#p784a0984a5)">
     <use xlink:href="#mb3cfa0d401" x="329.552445" y="307.8" style="stroke: #000000"/>
    </g>
   </g>
   <g id="line2d_6">
    <defs>
     <path id="md010fc09df" d="M 0 8.968385 
C 2.378444 8.968385 4.659792 8.023419 6.341606 6.341606 
C 8.023419 4.659792 8.968385 2.378444 8.968385 0 
C 8.968385 -2.378444 8.023419 -4.659792 6.341606 -6.341606 
C 4.659792 -8.023419 2.378444 -8.968385 0 -8.968385 
C -2.378444 -8.968385 -4.659792 -8.023419 -6.341606 -6.341606 
C -8.023419 -4.659792 -8.968385 -2.378444 -8.968385 0 
C -8.968385 2.378444 -8.023419 4.659792 -6.341606 6.341606 
C -4.659792 8.023419 -2.378444 8.968385 0 8.968385 
z
" style="stroke: #000000"/>
    </defs>
    <g clip-path="url(#p784a0984a5)">
     <use xlink:href="#md010fc09df" x="495.992678" y="225.393216" style="stroke: #000000"/>
    </g>
   </g>
   <g id="line2d_7">
    <defs>
     <path id="mad7e9297e7" d="M 0 8.889388 
C 2.357493 8.889388 4.618747 7.952746 6.285747 6.285747 
C 7.952746 4.618747 8.889388 2.357493 8.889388 0 
C 8.889388 -2.357493 7.952746 -4.618747 6.285747 -6.285747 
C 4.618747 -7.952746 2.357493 -8.889388 0 -8.889388 
C -2.357493 -8.889388 -4.618747 -7.952746 -6.285747 -6.285747 
C -7.952746 -4.618747 -8.889388 -2.357493 -8.889388 0 
C -8.889388 2.357493 -7.952746 4.618747 -6.285747 6.285747 
C -4.618747 7.952746 -2.357493 8.889388 0 8.889388 
z
" style="stroke: #000000"/>
    </defs>
    <g clip-path="url(#p784a0984a5)">
     <use xlink:href="#mad7e9297e7" x="552.80824" y="156.229167" style="stroke: #000000"/>
    </g>
   </g>
   <g id="line2d_8">
    <defs>
     <path id="m2b12263e25" d="M 0 8.730987 
C 2.315485 8.730987 4.536445 7.811036 6.17374 6.17374 
C 7.811036 4.536445 8.730987 2.315485 8.730987 0 
C 8.730987 -2.315485 7.811036 -4.536445 6.17374 -6.17374 
C 4.536445 -7.811036 2.315485 -8.730987 0 -8.730987 
C -2.315485 -8.730987 -4.536445 -7.811036 -6.17374 -6.17374 
C -7.811036 -4.536445 -8.730987 -2.315485 -8.730987 0 
C -8.730987 2.315485 -7.811036 4.536445 -6.17374 6.17374 
C -4.536445 7.811036 -2.315485 8.730987 0 8.730987 
z
" style="stroke: #000000"/>
    </defs>
    <g clip-path="url(#p784a0984a5)">
     <use xlink:href="#m2b12263e25" x="420.039269" y="199.754974" style="stroke: #000000"/>
    </g>
   </g>
   <g id="line2d_9">
    <defs>
     <path id="m66d596fc30" d="M 0 8.66285 
C 2.297415 8.66285 4.501043 7.750078 6.12556 6.12556 
C 7.750078 4.501043 8.66285 2.297415 8.66285 0 
C 8.66285 -2.297415 7.750078 -4.501043 6.12556 -6.12556 
C 4.501043 -7.750078 2.297415 -8.66285 0 -8.66285 
C -2.297415 -8.66285 -4.501043 -7.750078 -6.12556 -6.12556 
C -7.750078 -4.501043 -8.66285 -2.297415 -8.66285 0 
C -8.66285 2.297415 -7.750078 4.501043 -6.12556 6.12556 
C -4.501043 7.750078 -2.297415 8.66285 0 8.66285 
z
" style="stroke: #000000"/>
    </defs>
    <g clip-path="url(#p784a0984a5)">
     <use xlink:href="#m66d596fc30" x="178.442805" y="148.663071" style="stroke: #000000"/>
    </g>
   </g>
   <g id="line2d_10">
    <defs>
     <path id="m9ae582a877" d="M 0 8.630019 
C 2.288708 8.630019 4.483984 7.720705 6.102345 6.102345 
C 7.720705 4.483984 8.630019 2.288708 8.630019 0 
C 8.630019 -2.288708 7.720705 -4.483984 6.102345 -6.102345 
C 4.483984 -7.720705 2.288708 -8.630019 0 -8.630019 
C -2.288708 -8.630019 -4.483984 -7.720705 -6.102345 -6.102345 
C -7.720705 -4.483984 -8.630019 -2.288708 -8.630019 0 
C -8.630019 2.288708 -7.720705 4.483984 -6.102345 6.102345 
C -4.483984 7.720705 -2.288708 8.630019 0 8.630019 
z
" style="stroke: #000000"/>
    </defs>
    <g clip-path="url(#p784a0984a5)">
     <use xlink:href="#m9ae582a877" x="483.033467" y="88.559044" style="stroke: #000000"/>
    </g>
   </g>
  </g>
 </g>
 <defs>
  <clipPath id="p784a0984a5">
   <path d="M 159.387086 320.4 
L 159.387086 43.2 
L 578.612914 43.2 
L 578.612914 320.4 
L 159.387086 320.4 
"/>
  </clipPath>
 </defs>
</svg>
