<?xml version="1.0" encoding="utf-8" standalone="no"?>
<!DOCTYPE svg PUBLIC "-//W3C//DTD SVG 1.1//EN"
  "http://www.w3.org/Graphics/SVG/1.1/DTD/svg11.dtd">
<svg xmlns:xlink="http://www.w3.org/1999/xlink" width="720pt" height="360pt" viewBox="0 0 720 360" xmlns="http://www.w3.org/2000/svg" version="1.1">
 <metadata>
  <rdf:RDF xmlns:dc="http://purl.org/dc/elements/1.1/" xmlns:cc="http://creativecommons.org/ns#" xmlns:rdf="http://www.w3.org/1999/02/22-rdf-syntax-ns#">
   <cc:Work>
    <dc:type rdf:resource="http://purl.org/dc/dcmitype/StillImage"/>
    <dc:date>2023-11-30T21:30:51.698855</dc:date>
    <dc:format>image/svg+xml</dc:format>
    <dc:creator>
     <cc:Agent>
      <dc:title>Matplotlib v3.8.1, https://matplotlib.org/</dc:title>
     </cc:Agent>
    </dc:creator>
   </cc:Work>
  </rdf:RDF>
 </metadata>
 <defs>
  <style type="text/css">*{stroke-linejoin: round; stroke-linecap: butt}</style>
 </defs>
 <g id="figure_1">
  <g id="patch_1">
   <path d="M 0 360 
L 720 360 
L 720 0 
L 0 0 
z
" style="fill: #ffffff"/>
  </g>
  <g id="axes_1">
   <g id="patch_2">
    <path d="M 148.106063 320.4 
L 148.106063 43.2 
L 589.893937 43.2 
L 589.893937 320.4 
L 148.106063 320.4 
" style="fill: #ffffff"/>
   </g>
   <g id="line2d_1">
    <defs>
     <path id="m5950fd3b5e" d="M 0 10.707867 
C 2.83976 10.707867 5.563592 9.579619 7.571606 7.571606 
C 9.579619 5.563592 10.707867 2.83976 10.707867 0 
C 10.707867 -2.83976 9.579619 -5.563592 7.571606 -7.571606 
C 5.563592 -9.579619 2.83976 -10.707867 0 -10.707867 
C -2.83976 -10.707867 -5.563592 -9.579619 -7.571606 -7.571606 
C -9.579619 -5.563592 -10.707867 -2.83976 -10.707867 0 
C -10.707867 2.83976 -9.579619 5.563592 -7.571606 7.571606 
C -5.563592 9.579619 -2.83976 10.707867 0 10.707867 
z
" style="stroke: #000000"/>
    </defs>
    <g clip-path="url(#p073d564bb1)">
     <use xlink:href="#m5950fd3b5e" x="357.663317" y="55.8" style="stroke: #000000"/>
    </g>
   </g>
   <g id="line2d_2">
    <defs>
     <path id="m4cc47be00c" d="M 0 10.22575 
C 2.711901 10.22575 5.313094 9.1483 7.230697 7.230697 
C 9.1483 5.313094 10.22575 2.711901 10.22575 0 
C 10.22575 -2.711901 9.1483 -5.313094 7.230697 -7.230697 
C 5.313094 -9.1483 2.711901 -10.22575 0 -10.22575 
C -2.711901 -10.22575 -5.313094 -9.1483 -7.230697 -7.230697 
C -9.1483 -5.313094 -10.22575 -2.711901 -10.22575 0 
C -10.22575 2.711901 -9.1483 5.313094 -7.230697 7.230697 
C -5.313094 9.1483 -2.711901 10.22575 0 10.22575 
z
" style="stroke: #000000"/>
    </defs>
    <g clip-path="url(#p073d564bb1)">
     <use xlink:href="#m4cc47be00c" x="524.647818" y="77.325803" style="stroke: #000000"/>
    </g>
   </g>
   <g id="line2d_3">
    <defs>
     <path id="m077d1e7d3d" d="M 0 9.977112 
C 2.645961 9.977112 5.183906 8.92586 7.054883 7.054883 
C 8.92586 5.183906 9.977112 2.645961 9.977112 0 
C 9.977112 -2.645961 8.92586 -5.183906 7.054883 -7.054883 
C 5.183906 -8.92586 2.645961 -9.977112 0 -9.977112 
C -2.645961 -9.977112 -5.183906 -8.92586 -7.054883 -7.054883 
C -8.92586 -5.183906 -9.977112 -2.645961 -9.977112 0 
C -9.977112 2.645961 -8.92586 5.183906 -7.054883 7.054883 
C -5.183906 8.92586 -2.645961 9.977112 0 9.977112 
z
" style="stroke: #000000"/>
    </defs>
    <g clip-path="url(#p073d564bb1)">
     <use xlink:href="#m077d1e7d3d" x="364.076672" y="229.893717" style="stroke: #000000"/>
    </g>
   </g>
   <g id="line2d_4">
    <defs>
     <path id="mdbc2d26c62" d="M 0 9.942698 
C 2.636834 9.942698 5.166026 8.895073 7.03055 7.03055 
C 8.895073 5.166026 9.942698 2.636834 9.942698 0 
C 9.942698 -2.636834 8.895073 -5.166026 7.03055 -7.03055 
C 5.166026 -8.895073 2.636834 -9.942698 0 -9.942698 
C -2.636834 -9.942698 -5.166026 -8.895073 -7.03055 -7.03055 
C -8.895073 -5.166026 -9.942698 -2.636834 -9.942698 0 
C -9.942698 2.636834 -8.895073 5.166026 -7.03055 7.03055 
C -5.166026 8.895073 -2.636834 9.942698 0 9.942698 
z
" style="stroke: #000000"/>
    </defs>
    <g clip-path="url(#p073d564bb1)">
     <use xlink:href="#mdbc2d26c62" x="489.319129" y="144.715539" style="stroke: #000000"/>
    </g>
   </g>
   <g id="line2d_5">
    <defs>
     <path id="m3a5d54d6f9" d="M 0 9.891101 
C 2.623151 9.891101 5.139217 8.848912 6.994064 6.994064 
C 8.848912 5.139217 9.891101 2.623151 9.891101 0 
C 9.891101 -2.623151 8.848912 -5.139217 6.994064 -6.994064 
C 5.139217 -8.848912 2.623151 -9.891101 0 -9.891101 
C -2.623151 -9.891101 -5.139217 -8.848912 -6.994064 -6.994064 
C -8.848912 -5.139217 -9.891101 -2.623151 -9.891101 0 
C -9.891101 2.623151 -8.848912 5.139217 -6.994064 6.994064 
C -5.139217 8.848912 -2.623151 9.891101 0 9.891101 
z
" style="stroke: #000000"/>
    </defs>
    <g clip-path="url(#p073d564bb1)">
     <use xlink:href="#m3a5d54d6f9" x="569.81267" y="164.075334" style="stroke: #000000"/>
    </g>
   </g>
   <g id="line2d_6">
    <defs>
     <path id="mc929dfb059" d="M 0 9.726082 
C 2.579387 9.726082 5.053477 8.701281 6.877379 6.877379 
C 8.701281 5.053477 9.726082 2.579387 9.726082 0 
C 9.726082 -2.579387 8.701281 -5.053477 6.877379 -6.877379 
C 5.053477 -8.701281 2.579387 -9.726082 0 -9.726082 
C -2.579387 -9.726082 -5.053477 -8.701281 -6.877379 -6.877379 
C -8.701281 -5.053477 -9.726082 -2.579387 -9.726082 0 
C -9.726082 2.579387 -8.701281 5.053477 -6.877379 6.877379 
C -5.053477 8.701281 -2.579387 9.726082 0 9.726082 
z
" style="stroke: #000000"/>
    </defs>
    <g clip-path="url(#p073d564bb1)">
     <use xlink:href="#mc929dfb059" x="168.18733" y="83.759721" style="stroke: #000000"/>
    </g>
   </g>
   <g id="line2d_7">
    <defs>
     <path id="m029968a839" d="M 0 9.718784 
C 2.577452 9.718784 5.049684 8.694751 6.872218 6.872218 
C 8.694751 5.049684 9.718784 2.577452 9.718784 0 
C 9.718784 -2.577452 8.694751 -5.049684 6.872218 -6.872218 
C 5.049684 -8.694751 2.577452 -9.718784 0 -9.718784 
C -2.577452 -9.718784 -5.049684 -8.694751 -6.872218 -6.872218 
C -8.694751 -5.049684 -9.718784 -2.577452 -9.718784 0 
C -9.718784 2.577452 -8.694751 5.049684 -6.872218 6.872218 
C -5.049684 8.694751 -2.577452 9.718784 0 9.718784 
z
" style="stroke: #000000"/>
    </defs>
    <g clip-path="url(#p073d564bb1)">
     <use xlink:href="#m029968a839" x="491.54834" y="171.507029" style="stroke: #000000"/>
    </g>
   </g>
   <g id="line2d_8">
    <defs>
     <path id="m7b03714308" d="M 0 9.601981 
C 2.546475 9.601981 4.988996 8.590256 6.789626 6.789626 
C 8.590256 4.988996 9.601981 2.546475 9.601981 0 
C 9.601981 -2.546475 8.590256 -4.988996 6.789626 -6.789626 
C 4.988996 -8.590256 2.546475 -9.601981 0 -9.601981 
C -2.546475 -9.601981 -4.988996 -8.590256 -6.789626 -6.789626 
C -8.590256 -4.988996 -9.601981 -2.546475 -9.601981 0 
C -9.601981 2.546475 -8.590256 4.988996 -6.789626 6.789626 
C -4.988996 8.590256 -2.546475 9.601981 0 9.601981 
z
" style="stroke: #000000"/>
    </defs>
    <g clip-path="url(#p073d564bb1)">
     <use xlink:href="#m7b03714308" x="441.324041" y="169.165203" style="stroke: #000000"/>
    </g>
   </g>
   <g id="line2d_9">
    <defs>
     <path id="mdebb7778c2" d="M 0 9.531673 
C 2.527829 9.531673 4.952465 8.527355 6.73991 6.73991 
C 8.527355 4.952465 9.531673 2.527829 9.531673 0 
C 9.531673 -2.527829 8.527355 -4.952465 6.73991 -6.73991 
C 4.952465 -8.527355 2.527829 -9.531673 0 -9.531673 
C -2.527829 -9.531673 -4.952465 -8.527355 -6.73991 -6.73991 
C -8.527355 -4.952465 -9.531673 -2.527829 -9.531673 0 
C -9.531673 2.527829 -8.527355 4.952465 -6.73991 6.73991 
C -4.952465 8.527355 -2.527829 9.531673 0 9.531673 
z
" style="stroke: #000000"/>
    </defs>
    <g clip-path="url(#p073d564bb1)">
     <use xlink:href="#mdebb7778c2" x="445.034535" y="307.8" style="stroke: #000000"/>
    </g>
   </g>
   <g id="line2d_10">
    <defs>
     <path id="m79ecc57896" d="M 0 9.421169 
C 2.498523 9.421169 4.89505 8.428495 6.661773 6.661773 
C 8.428495 4.89505 9.421169 2.498523 9.421169 0 
C 9.421169 -2.498523 8.428495 -4.89505 6.661773 -6.661773 
C 4.89505 -8.428495 2.498523 -9.421169 0 -9.421169 
C -2.498523 -9.421169 -4.89505 -8.428495 -6.661773 -6.661773 
C -8.428495 -4.89505 -9.421169 -2.498523 -9.421169 0 
C -9.421169 2.498523 -8.428495 4.89505 -6.661773 6.661773 
C -4.89505 8.428495 -2.498523 9.421169 0 9.421169 
z
" style="stroke: #000000"/>
    </defs>
    <g clip-path="url(#p073d564bb1)">
     <use xlink:href="#m79ecc57896" x="400.485864" y="209.099591" style="stroke: #000000"/>
    </g>
   </g>
  </g>
 </g>
 <defs>
  <clipPath id="p073d564bb1">
   <path d="M 148.106063 320.4 
L 148.106063 43.2 
L 589.893937 43.2 
L 589.893937 320.4 
L 148.106063 320.4 
"/>
  </clipPath>
 </defs>
</svg>
