<?xml version="1.0" encoding="utf-8" standalone="no"?>
<!DOCTYPE svg PUBLIC "-//W3C//DTD SVG 1.1//EN"
  "http://www.w3.org/Graphics/SVG/1.1/DTD/svg11.dtd">
<svg xmlns:xlink="http://www.w3.org/1999/xlink" width="720pt" height="360pt" viewBox="0 0 720 360" xmlns="http://www.w3.org/2000/svg" version="1.1">
 <metadata>
  <rdf:RDF xmlns:dc="http://purl.org/dc/elements/1.1/" xmlns:cc="http://creativecommons.org/ns#" xmlns:rdf="http://www.w3.org/1999/02/22-rdf-syntax-ns#">
   <cc:Work>
    <dc:type rdf:resource="http://purl.org/dc/dcmitype/StillImage"/>
    <dc:date>2023-11-30T21:30:51.746928</dc:date>
    <dc:format>image/svg+xml</dc:format>
    <dc:creator>
     <cc:Agent>
      <dc:title>Matplotlib v3.8.1, https://matplotlib.org/</dc:title>
     </cc:Agent>
    </dc:creator>
   </cc:Work>
  </rdf:RDF>
 </metadata>
 <defs>
  <style type="text/css">*{stroke-linejoin: round; stroke-linecap: butt}</style>
 </defs>
 <g id="figure_1">
  <g id="patch_1">
   <path d="M 0 360 
L 720 360 
L 720 0 
L 0 0 
z
" style="fill: #ffffff"/>
  </g>
  <g id="axes_1">
   <g id="patch_2">
    <path d="M 200.102846 320.4 
L 200.102846 43.2 
L 537.897154 43.2 
L 537.897154 320.4 
L 200.102846 320.4 
" style="fill: #ffffff"/>
   </g>
   <g id="line2d_1">
    <defs>
     <path id="m7b4c31e9d0" d="M 0 10.183966 
C 2.700819 10.183966 5.291384 9.11092 7.201152 7.201152 
C 9.11092 5.291384 10.183966 2.700819 10.183966 0 
C 10.183966 -2.700819 9.11092 -5.291384 7.201152 -7.201152 
C 5.291384 -9.11092 2.700819 -10.183966 0 -10.183966 
C -2.700819 -10.183966 -5.291384 -9.11092 -7.201152 -7.201152 
C -9.11092 -5.291384 -10.183966 -2.700819 -10.183966 0 
C -10.183966 2.700819 -9.11092 5.291384 -7.201152 7.201152 
C -5.291384 9.11092 -2.700819 10.183966 0 10.183966 
z
" style="stroke: #000000"/>
    </defs>
    <g clip-path="url(#p62376f63cb)">
     <use xlink:href="#m7b4c31e9d0" x="402.998805" y="239.143615" style="stroke: #000000"/>
    </g>
   </g>
   <g id="line2d_2">
    <defs>
     <path id="mfa9b184a3f" d="M 0 8.582036 
C 2.275983 8.582036 4.459053 7.677779 6.068416 6.068416 
C 7.677779 4.459053 8.582036 2.275983 8.582036 0 
C 8.582036 -2.275983 7.677779 -4.459053 6.068416 -6.068416 
C 4.459053 -7.677779 2.275983 -8.582036 0 -8.582036 
C -2.275983 -8.582036 -4.459053 -7.677779 -6.068416 -6.068416 
C -7.677779 -4.459053 -8.582036 -2.275983 -8.582036 0 
C -8.582036 2.275983 -7.677779 4.459053 -6.068416 6.068416 
C -4.459053 7.677779 -2.275983 8.582036 0 8.582036 
z
" style="stroke: #000000"/>
    </defs>
    <g clip-path="url(#p62376f63cb)">
     <use xlink:href="#mfa9b184a3f" x="381.744392" y="55.8" style="stroke: #000000"/>
    </g>
   </g>
   <g id="line2d_3">
    <defs>
     <path id="m8d00df25d7" d="M 0 8.432262 
C 2.236262 8.432262 4.381234 7.543786 5.96251 5.96251 
C 7.543786 4.381234 8.432262 2.236262 8.432262 0 
C 8.432262 -2.236262 7.543786 -4.381234 5.96251 -5.96251 
C 4.381234 -7.543786 2.236262 -8.432262 0 -8.432262 
C -2.236262 -8.432262 -4.381234 -7.543786 -5.96251 -5.96251 
C -7.543786 -4.381234 -8.432262 -2.236262 -8.432262 0 
C -8.432262 2.236262 -7.543786 4.381234 -5.96251 5.96251 
C -4.381234 7.543786 -2.236262 8.432262 0 8.432262 
z
" style="stroke: #000000"/>
    </defs>
    <g clip-path="url(#p62376f63cb)">
     <use xlink:href="#m8d00df25d7" x="426.839471" y="94.951619" style="stroke: #000000"/>
    </g>
   </g>
   <g id="line2d_4">
    <defs>
     <path id="me83e05917b" d="M 0 8.286565 
C 2.197623 8.286565 4.305532 7.41344 5.859486 5.859486 
C 7.41344 4.305532 8.286565 2.197623 8.286565 0 
C 8.286565 -2.197623 7.41344 -4.305532 5.859486 -5.859486 
C 4.305532 -7.41344 2.197623 -8.286565 0 -8.286565 
C -2.197623 -8.286565 -4.305532 -7.41344 -5.859486 -5.859486 
C -7.41344 -4.305532 -8.286565 -2.197623 -8.286565 0 
C -8.286565 2.197623 -7.41344 4.305532 -5.859486 5.859486 
C -4.305532 7.41344 -2.197623 8.286565 0 8.286565 
z
" style="stroke: #000000"/>
    </defs>
    <g clip-path="url(#p62376f63cb)">
     <use xlink:href="#me83e05917b" x="257.874396" y="307.8" style="stroke: #000000"/>
    </g>
   </g>
   <g id="line2d_5">
    <defs>
     <path id="mf1f09c4699" d="M 0 8.252952 
C 2.188709 8.252952 4.288068 7.383369 5.835719 5.835719 
C 7.383369 4.288068 8.252952 2.188709 8.252952 0 
C 8.252952 -2.188709 7.383369 -4.288068 5.835719 -5.835719 
C 4.288068 -7.383369 2.188709 -8.252952 0 -8.252952 
C -2.188709 -8.252952 -4.288068 -7.383369 -5.835719 -5.835719 
C -7.383369 -4.288068 -8.252952 -2.188709 -8.252952 0 
C -8.252952 2.188709 -7.383369 4.288068 -5.835719 5.835719 
C -4.288068 7.383369 -2.188709 8.252952 0 8.252952 
z
" style="stroke: #000000"/>
    </defs>
    <g clip-path="url(#p62376f63cb)">
     <use xlink:href="#mf1f09c4699" x="449.603908" y="229.993332" style="stroke: #000000"/>
    </g>
   </g>
   <g id="line2d_6">
    <defs>
     <path id="m3d6c333e3e" d="M 0 8.136224 
C 2.157752 8.136224 4.227418 7.27894 5.753179 5.753179 
C 7.27894 4.227418 8.136224 2.157752 8.136224 0 
C 8.136224 -2.157752 7.27894 -4.227418 5.753179 -5.753179 
C 4.227418 -7.27894 2.157752 -8.136224 0 -8.136224 
C -2.157752 -8.136224 -4.227418 -7.27894 -5.753179 -5.753179 
C -7.27894 -4.227418 -8.136224 -2.157752 -8.136224 0 
C -8.136224 2.157752 -7.27894 4.227418 -5.753179 5.753179 
C -4.227418 7.27894 -2.157752 8.136224 0 8.136224 
z
" style="stroke: #000000"/>
    </defs>
    <g clip-path="url(#p62376f63cb)">
     <use xlink:href="#m3d6c333e3e" x="256.380883" y="306.830816" style="stroke: #000000"/>
    </g>
   </g>
   <g id="line2d_7">
    <defs>
     <path id="m58ee22a1dc" d="M 0 8.111529 
C 2.151203 8.111529 4.214587 7.256848 5.735718 5.735718 
C 7.256848 4.214587 8.111529 2.151203 8.111529 0 
C 8.111529 -2.151203 7.256848 -4.214587 5.735718 -5.735718 
C 4.214587 -7.256848 2.151203 -8.111529 0 -8.111529 
C -2.151203 -8.111529 -4.214587 -7.256848 -5.735718 -5.735718 
C -7.256848 -4.214587 -8.111529 -2.151203 -8.111529 0 
C -8.111529 2.151203 -7.256848 4.214587 -5.735718 5.735718 
C -4.214587 7.256848 -2.151203 8.111529 0 8.111529 
z
" style="stroke: #000000"/>
    </defs>
    <g clip-path="url(#p62376f63cb)">
     <use xlink:href="#m58ee22a1dc" x="522.542867" y="182.04891" style="stroke: #000000"/>
    </g>
   </g>
   <g id="line2d_8">
    <defs>
     <path id="m1805c5543f" d="M 0 8.023445 
C 2.127842 8.023445 4.16882 7.178044 5.673432 5.673432 
C 7.178044 4.16882 8.023445 2.127842 8.023445 0 
C 8.023445 -2.127842 7.178044 -4.16882 5.673432 -5.673432 
C 4.16882 -7.178044 2.127842 -8.023445 0 -8.023445 
C -2.127842 -8.023445 -4.16882 -7.178044 -5.673432 -5.673432 
C -7.178044 -4.16882 -8.023445 -2.127842 -8.023445 0 
C -8.023445 2.127842 -7.178044 4.16882 -5.673432 5.673432 
C -4.16882 7.178044 -2.127842 8.023445 0 8.023445 
z
" style="stroke: #000000"/>
    </defs>
    <g clip-path="url(#p62376f63cb)">
     <use xlink:href="#m1805c5543f" x="399.728087" y="115.417365" style="stroke: #000000"/>
    </g>
   </g>
   <g id="line2d_9">
    <defs>
     <path id="m7818493b72" d="M 0 8.019063 
C 2.12668 8.019063 4.166544 7.174124 5.670334 5.670334 
C 7.174124 4.166544 8.019063 2.12668 8.019063 0 
C 8.019063 -2.12668 7.174124 -4.166544 5.670334 -5.670334 
C 4.166544 -7.174124 2.12668 -8.019063 0 -8.019063 
C -2.12668 -8.019063 -4.166544 -7.174124 -5.670334 -5.670334 
C -7.174124 -4.166544 -8.019063 -2.12668 -8.019063 0 
C -8.019063 2.12668 -7.174124 4.166544 -5.670334 5.670334 
C -4.166544 7.174124 -2.12668 8.019063 0 8.019063 
z
" style="stroke: #000000"/>
    </defs>
    <g clip-path="url(#p62376f63cb)">
     <use xlink:href="#m7818493b72" x="415.989364" y="236.381546" style="stroke: #000000"/>
    </g>
   </g>
   <g id="line2d_10">
    <defs>
     <path id="m6a04ab1813" d="M 0 8.018838 
C 2.126621 8.018838 4.166427 7.173922 5.670175 5.670175 
C 7.173922 4.166427 8.018838 2.126621 8.018838 0 
C 8.018838 -2.126621 7.173922 -4.166427 5.670175 -5.670175 
C 4.166427 -7.173922 2.126621 -8.018838 0 -8.018838 
C -2.126621 -8.018838 -4.166427 -7.173922 -5.670175 -5.670175 
C -7.173922 -4.166427 -8.018838 -2.126621 -8.018838 0 
C -8.018838 2.126621 -7.173922 4.166427 -5.670175 5.670175 
C -4.166427 7.173922 -2.126621 8.018838 0 8.018838 
z
" style="stroke: #000000"/>
    </defs>
    <g clip-path="url(#p62376f63cb)">
     <use xlink:href="#m6a04ab1813" x="215.457133" y="249.054932" style="stroke: #000000"/>
    </g>
   </g>
  </g>
 </g>
 <defs>
  <clipPath id="p62376f63cb">
   <path d="M 200.102846 320.4 
L 200.102846 43.2 
L 537.897154 43.2 
L 537.897154 320.4 
L 200.102846 320.4 
"/>
  </clipPath>
 </defs>
</svg>
