<?xml version="1.0" encoding="utf-8" standalone="no"?>
<!DOCTYPE svg PUBLIC "-//W3C//DTD SVG 1.1//EN"
  "http://www.w3.org/Graphics/SVG/1.1/DTD/svg11.dtd">
<svg xmlns:xlink="http://www.w3.org/1999/xlink" width="720pt" height="360pt" viewBox="0 0 720 360" xmlns="http://www.w3.org/2000/svg" version="1.1">
 <metadata>
  <rdf:RDF xmlns:dc="http://purl.org/dc/elements/1.1/" xmlns:cc="http://creativecommons.org/ns#" xmlns:rdf="http://www.w3.org/1999/02/22-rdf-syntax-ns#">
   <cc:Work>
    <dc:type rdf:resource="http://purl.org/dc/dcmitype/StillImage"/>
    <dc:date>2023-11-30T21:30:47.520712</dc:date>
    <dc:format>image/svg+xml</dc:format>
    <dc:creator>
     <cc:Agent>
      <dc:title>Matplotlib v3.8.1, https://matplotlib.org/</dc:title>
     </cc:Agent>
    </dc:creator>
   </cc:Work>
  </rdf:RDF>
 </metadata>
 <defs>
  <style type="text/css">*{stroke-linejoin: round; stroke-linecap: butt}</style>
 </defs>
 <g id="figure_1">
  <g id="patch_1">
   <path d="M 0 360 
L 720 360 
L 720 0 
L 0 0 
z
" style="fill: #ffffff"/>
  </g>
  <g id="axes_1">
   <g id="patch_2">
    <path d="M 90 277.818378 
L 90 85.781622 
L 648 85.781622 
L 648 277.818378 
L 90 277.818378 
" style="fill: #ffffff"/>
   </g>
   <g id="line2d_1">
    <defs>
     <path id="m60392537c7" d="M 0 11.53488 
C 3.059086 11.53488 5.993291 10.319492 8.156392 8.156392 
C 10.319492 5.993291 11.53488 3.059086 11.53488 0 
C 11.53488 -3.059086 10.319492 -5.993291 8.156392 -8.156392 
C 5.993291 -10.319492 3.059086 -11.53488 0 -11.53488 
C -3.059086 -11.53488 -5.993291 -10.319492 -8.156392 -8.156392 
C -10.319492 -5.993291 -11.53488 -3.059086 -11.53488 0 
C -11.53488 3.059086 -10.319492 5.993291 -8.156392 8.156392 
C -5.993291 10.319492 -3.059086 11.53488 0 11.53488 
z
" style="stroke: #000000"/>
    </defs>
    <g clip-path="url(#p86e82e9d36)">
     <use xlink:href="#m60392537c7" x="620.700699" y="111.710709" style="stroke: #000000"/>
    </g>
   </g>
   <g id="line2d_2">
    <defs>
     <path id="m78f4897579" d="M 0 10.94729 
C 2.903255 10.94729 5.687991 9.793814 7.740903 7.740903 
C 9.793814 5.687991 10.94729 2.903255 10.94729 0 
C 10.94729 -2.903255 9.793814 -5.687991 7.740903 -7.740903 
C 5.687991 -9.793814 2.903255 -10.94729 0 -10.94729 
C -2.903255 -10.94729 -5.687991 -9.793814 -7.740903 -7.740903 
C -9.793814 -5.687991 -10.94729 -2.903255 -10.94729 0 
C -10.94729 2.903255 -9.793814 5.687991 -7.740903 7.740903 
C -5.687991 9.793814 -2.903255 10.94729 0 10.94729 
z
" style="stroke: #000000"/>
    </defs>
    <g clip-path="url(#p86e82e9d36)">
     <use xlink:href="#m78f4897579" x="115.363636" y="207.197199" style="stroke: #000000"/>
    </g>
   </g>
   <g id="line2d_3">
    <defs>
     <path id="m8abb4d8f01" d="M 0 10.691838 
C 2.835509 10.691838 5.555264 9.565279 7.560271 7.560271 
C 9.565279 5.555264 10.691838 2.835509 10.691838 0 
C 10.691838 -2.835509 9.565279 -5.555264 7.560271 -7.560271 
C 5.555264 -9.565279 2.835509 -10.691838 0 -10.691838 
C -2.835509 -10.691838 -5.555264 -9.565279 -7.560271 -7.560271 
C -9.565279 -5.555264 -10.691838 -2.835509 -10.691838 0 
C -10.691838 2.835509 -9.565279 5.555264 -7.560271 7.560271 
C -5.555264 9.565279 -2.835509 10.691838 0 10.691838 
z
" style="stroke: #000000"/>
    </defs>
    <g clip-path="url(#p86e82e9d36)">
     <use xlink:href="#m8abb4d8f01" x="621.344854" y="112.673602" style="stroke: #000000"/>
    </g>
   </g>
   <g id="line2d_4">
    <defs>
     <path id="m3b06e28a37" d="M 0 10.681343 
C 2.832725 10.681343 5.549811 9.55589 7.55285 7.55285 
C 9.55589 5.549811 10.681343 2.832725 10.681343 0 
C 10.681343 -2.832725 9.55589 -5.549811 7.55285 -7.55285 
C 5.549811 -9.55589 2.832725 -10.681343 0 -10.681343 
C -2.832725 -10.681343 -5.549811 -9.55589 -7.55285 -7.55285 
C -9.55589 -5.549811 -10.681343 -2.832725 -10.681343 0 
C -10.681343 2.832725 -9.55589 5.549811 -7.55285 7.55285 
C -5.549811 9.55589 -2.832725 10.681343 0 10.681343 
z
" style="stroke: #000000"/>
    </defs>
    <g clip-path="url(#p86e82e9d36)">
     <use xlink:href="#m3b06e28a37" x="464.841381" y="94.510566" style="stroke: #000000"/>
    </g>
   </g>
   <g id="line2d_5">
    <defs>
     <path id="med45e7495d" d="M 0 10.568037 
C 2.802676 10.568037 5.490939 9.454522 7.47273 7.47273 
C 9.454522 5.490939 10.568037 2.802676 10.568037 0 
C 10.568037 -2.802676 9.454522 -5.490939 7.47273 -7.47273 
C 5.490939 -9.454522 2.802676 -10.568037 0 -10.568037 
C -2.802676 -10.568037 -5.490939 -9.454522 -7.47273 -7.47273 
C -9.454522 -5.490939 -10.568037 -2.802676 -10.568037 0 
C -10.568037 2.802676 -9.454522 5.490939 -7.47273 7.47273 
C -5.490939 9.454522 -2.802676 10.568037 0 10.568037 
z
" style="stroke: #000000"/>
    </defs>
    <g clip-path="url(#p86e82e9d36)">
     <use xlink:href="#med45e7495d" x="376.731578" y="264.656487" style="stroke: #000000"/>
    </g>
   </g>
   <g id="line2d_6">
    <defs>
     <path id="m8105d3fe8c" d="M 0 10.558011 
C 2.800017 10.558011 5.48573 9.445552 7.465641 7.465641 
C 9.445552 5.48573 10.558011 2.800017 10.558011 0 
C 10.558011 -2.800017 9.445552 -5.48573 7.465641 -7.465641 
C 5.48573 -9.445552 2.800017 -10.558011 0 -10.558011 
C -2.800017 -10.558011 -5.48573 -9.445552 -7.465641 -7.465641 
C -9.445552 -5.48573 -10.558011 -2.800017 -10.558011 0 
C -10.558011 2.800017 -9.445552 5.48573 -7.465641 7.465641 
C -5.48573 9.445552 -2.800017 10.558011 0 10.558011 
z
" style="stroke: #000000"/>
    </defs>
    <g clip-path="url(#p86e82e9d36)">
     <use xlink:href="#m8105d3fe8c" x="622.636364" y="112.202701" style="stroke: #000000"/>
    </g>
   </g>
   <g id="line2d_7">
    <defs>
     <path id="mab073a6de1" d="M 0 10.308481 
C 2.733841 10.308481 5.356079 9.222314 7.289197 7.289197 
C 9.222314 5.356079 10.308481 2.733841 10.308481 0 
C 10.308481 -2.733841 9.222314 -5.356079 7.289197 -7.289197 
C 5.356079 -9.222314 2.733841 -10.308481 0 -10.308481 
C -2.733841 -10.308481 -5.356079 -9.222314 -7.289197 -7.289197 
C -9.222314 -5.356079 -10.308481 -2.733841 -10.308481 0 
C -10.308481 2.733841 -9.222314 5.356079 -7.289197 7.289197 
C -5.356079 9.222314 -2.733841 10.308481 0 10.308481 
z
" style="stroke: #000000"/>
    </defs>
    <g clip-path="url(#p86e82e9d36)">
     <use xlink:href="#mab073a6de1" x="185.840787" y="215.454874" style="stroke: #000000"/>
    </g>
   </g>
   <g id="line2d_8">
    <defs>
     <path id="m50b5410620" d="M 0 10.294033 
C 2.73001 10.294033 5.348573 9.209389 7.278981 7.278981 
C 9.209389 5.348573 10.294033 2.73001 10.294033 0 
C 10.294033 -2.73001 9.209389 -5.348573 7.278981 -7.278981 
C 5.348573 -9.209389 2.73001 -10.294033 0 -10.294033 
C -2.73001 -10.294033 -5.348573 -9.209389 -7.278981 -7.278981 
C -9.209389 -5.348573 -10.294033 -2.73001 -10.294033 0 
C -10.294033 2.73001 -9.209389 5.348573 -7.278981 7.278981 
C -5.348573 9.209389 -2.73001 10.294033 0 10.294033 
z
" style="stroke: #000000"/>
    </defs>
    <g clip-path="url(#p86e82e9d36)">
     <use xlink:href="#m50b5410620" x="607.476609" y="123.083571" style="stroke: #000000"/>
    </g>
   </g>
   <g id="line2d_9">
    <defs>
     <path id="m51839067ed" d="M 0 10.252247 
C 2.718928 10.252247 5.326861 9.172006 7.249433 7.249433 
C 9.172006 5.326861 10.252247 2.718928 10.252247 0 
C 10.252247 -2.718928 9.172006 -5.326861 7.249433 -7.249433 
C 5.326861 -9.172006 2.718928 -10.252247 0 -10.252247 
C -2.718928 -10.252247 -5.326861 -9.172006 -7.249433 -7.249433 
C -9.172006 -5.326861 -10.252247 -2.718928 -10.252247 0 
C -10.252247 2.718928 -9.172006 5.326861 -7.249433 7.249433 
C -5.326861 9.172006 -2.718928 10.252247 0 10.252247 
z
" style="stroke: #000000"/>
    </defs>
    <g clip-path="url(#p86e82e9d36)">
     <use xlink:href="#m51839067ed" x="621.154429" y="110.67189" style="stroke: #000000"/>
    </g>
   </g>
   <g id="line2d_10">
    <defs>
     <path id="m75f9026bb4" d="M 0 10.226122 
C 2.711999 10.226122 5.313287 9.148633 7.23096 7.23096 
C 9.148633 5.313287 10.226122 2.711999 10.226122 0 
C 10.226122 -2.711999 9.148633 -5.313287 7.23096 -7.23096 
C 5.313287 -9.148633 2.711999 -10.226122 0 -10.226122 
C -2.711999 -10.226122 -5.313287 -9.148633 -7.23096 -7.23096 
C -9.148633 -5.313287 -10.226122 -2.711999 -10.226122 0 
C -10.226122 2.711999 -9.148633 5.313287 -7.23096 7.23096 
C -5.313287 9.148633 -2.711999 10.226122 0 10.226122 
z
" style="stroke: #000000"/>
    </defs>
    <g clip-path="url(#p86e82e9d36)">
     <use xlink:href="#m75f9026bb4" x="340.972789" y="269.089434" style="stroke: #000000"/>
    </g>
   </g>
  </g>
 </g>
 <defs>
  <clipPath id="p86e82e9d36">
   <path d="M 90 277.818378 
L 90 85.781622 
L 648 85.781622 
L 648 277.818378 
L 90 277.818378 
"/>
  </clipPath>
 </defs>
</svg>
