<?xml version="1.0" encoding="utf-8" standalone="no"?>
<!DOCTYPE svg PUBLIC "-//W3C//DTD SVG 1.1//EN"
  "http://www.w3.org/Graphics/SVG/1.1/DTD/svg11.dtd">
<svg xmlns:xlink="http://www.w3.org/1999/xlink" width="720pt" height="360pt" viewBox="0 0 720 360" xmlns="http://www.w3.org/2000/svg" version="1.1">
 <metadata>
  <rdf:RDF xmlns:dc="http://purl.org/dc/elements/1.1/" xmlns:cc="http://creativecommons.org/ns#" xmlns:rdf="http://www.w3.org/1999/02/22-rdf-syntax-ns#">
   <cc:Work>
    <dc:type rdf:resource="http://purl.org/dc/dcmitype/StillImage"/>
    <dc:date>2023-11-30T21:30:47.866935</dc:date>
    <dc:format>image/svg+xml</dc:format>
    <dc:creator>
     <cc:Agent>
      <dc:title>Matplotlib v3.8.1, https://matplotlib.org/</dc:title>
     </cc:Agent>
    </dc:creator>
   </cc:Work>
  </rdf:RDF>
 </metadata>
 <defs>
  <style type="text/css">*{stroke-linejoin: round; stroke-linecap: butt}</style>
 </defs>
 <g id="figure_1">
  <g id="patch_1">
   <path d="M 0 360 
L 720 360 
L 720 0 
L 0 0 
z
" style="fill: #ffffff"/>
  </g>
  <g id="axes_1">
   <g id="patch_2">
    <path d="M 267.157725 320.4 
L 267.157725 43.2 
L 470.842275 43.2 
L 470.842275 320.4 
L 267.157725 320.4 
" style="fill: #ffffff"/>
   </g>
   <g id="line2d_1">
    <defs>
     <path id="m51b754923d" d="M 0 10.138618 
C 2.688793 10.138618 5.267822 9.070349 7.169085 7.169085 
C 9.070349 5.267822 10.138618 2.688793 10.138618 0 
C 10.138618 -2.688793 9.070349 -5.267822 7.169085 -7.169085 
C 5.267822 -9.070349 2.688793 -10.138618 0 -10.138618 
C -2.688793 -10.138618 -5.267822 -9.070349 -7.169085 -7.169085 
C -9.070349 -5.267822 -10.138618 -2.688793 -10.138618 0 
C -10.138618 2.688793 -9.070349 5.267822 -7.169085 7.169085 
C -5.267822 9.070349 -2.688793 10.138618 0 10.138618 
z
" style="stroke: #000000"/>
    </defs>
    <g clip-path="url(#p77429015fc)">
     <use xlink:href="#m51b754923d" x="365.969249" y="307.8" style="stroke: #000000"/>
    </g>
   </g>
   <g id="line2d_2">
    <defs>
     <path id="ma7c16df4d4" d="M 0 8.30355 
C 2.202127 8.30355 4.314357 7.428635 5.871496 5.871496 
C 7.428635 4.314357 8.30355 2.202127 8.30355 0 
C 8.30355 -2.202127 7.428635 -4.314357 5.871496 -5.871496 
C 4.314357 -7.428635 2.202127 -8.30355 0 -8.30355 
C -2.202127 -8.30355 -4.314357 -7.428635 -5.871496 -5.871496 
C -7.428635 -4.314357 -8.30355 -2.202127 -8.30355 0 
C -8.30355 2.202127 -7.428635 4.314357 -5.871496 5.871496 
C -4.314357 7.428635 -2.202127 8.30355 0 8.30355 
z
" style="stroke: #000000"/>
    </defs>
    <g clip-path="url(#p77429015fc)">
     <use xlink:href="#ma7c16df4d4" x="281.812791" y="109.754992" style="stroke: #000000"/>
    </g>
   </g>
   <g id="line2d_3">
    <defs>
     <path id="m9c87cf95c7" d="M 0 8.080271 
C 2.142913 8.080271 4.198346 7.228882 5.713614 5.713614 
C 7.228882 4.198346 8.080271 2.142913 8.080271 0 
C 8.080271 -2.142913 7.228882 -4.198346 5.713614 -5.713614 
C 4.198346 -7.228882 2.142913 -8.080271 0 -8.080271 
C -2.142913 -8.080271 -4.198346 -7.228882 -5.713614 -5.713614 
C -7.228882 -4.198346 -8.080271 -2.142913 -8.080271 0 
C -8.080271 2.142913 -7.228882 4.198346 -5.713614 5.713614 
C -4.198346 7.228882 -2.142913 8.080271 0 8.080271 
z
" style="stroke: #000000"/>
    </defs>
    <g clip-path="url(#p77429015fc)">
     <use xlink:href="#m9c87cf95c7" x="276.416114" y="161.52104" style="stroke: #000000"/>
    </g>
   </g>
   <g id="line2d_4">
    <defs>
     <path id="m0d0c3c83a0" d="M 0 8.04426 
C 2.133363 8.04426 4.179635 7.196666 5.68815 5.68815 
C 7.196666 4.179635 8.04426 2.133363 8.04426 0 
C 8.04426 -2.133363 7.196666 -4.179635 5.68815 -5.68815 
C 4.179635 -7.196666 2.133363 -8.04426 0 -8.04426 
C -2.133363 -8.04426 -4.179635 -7.196666 -5.68815 -5.68815 
C -7.196666 -4.179635 -8.04426 -2.133363 -8.04426 0 
C -8.04426 2.133363 -7.196666 4.179635 -5.68815 5.68815 
C -4.179635 7.196666 -2.133363 8.04426 0 8.04426 
z
" style="stroke: #000000"/>
    </defs>
    <g clip-path="url(#p77429015fc)">
     <use xlink:href="#m0d0c3c83a0" x="364.502848" y="297.869384" style="stroke: #000000"/>
    </g>
   </g>
   <g id="line2d_5">
    <defs>
     <path id="mbdd9c13e50" d="M 0 7.989981 
C 2.118968 7.989981 4.151433 7.148106 5.649769 5.649769 
C 7.148106 4.151433 7.989981 2.118968 7.989981 0 
C 7.989981 -2.118968 7.148106 -4.151433 5.649769 -5.649769 
C 4.151433 -7.148106 2.118968 -7.989981 0 -7.989981 
C -2.118968 -7.989981 -4.151433 -7.148106 -5.649769 -5.649769 
C -7.148106 -4.151433 -7.989981 -2.118968 -7.989981 0 
C -7.989981 2.118968 -7.148106 4.151433 -5.649769 5.649769 
C -4.151433 7.148106 -2.118968 7.989981 0 7.989981 
z
" style="stroke: #000000"/>
    </defs>
    <g clip-path="url(#p77429015fc)">
     <use xlink:href="#mbdd9c13e50" x="396.130073" y="83.45794" style="stroke: #000000"/>
    </g>
   </g>
   <g id="line2d_6">
    <defs>
     <path id="m7ceddb6d3e" d="M 0 7.879827 
C 2.089755 7.879827 4.0942 7.049559 5.571879 5.571879 
C 7.049559 4.0942 7.879827 2.089755 7.879827 0 
C 7.879827 -2.089755 7.049559 -4.0942 5.571879 -5.571879 
C 4.0942 -7.049559 2.089755 -7.879827 0 -7.879827 
C -2.089755 -7.879827 -4.0942 -7.049559 -5.571879 -5.571879 
C -7.049559 -4.0942 -7.879827 -2.089755 -7.879827 0 
C -7.879827 2.089755 -7.049559 4.0942 -5.571879 5.571879 
C -4.0942 7.049559 -2.089755 7.879827 0 7.879827 
z
" style="stroke: #000000"/>
    </defs>
    <g clip-path="url(#p77429015fc)">
     <use xlink:href="#m7ceddb6d3e" x="424.557146" y="307.611611" style="stroke: #000000"/>
    </g>
   </g>
   <g id="line2d_7">
    <defs>
     <path id="m649d2d3774" d="M 0 7.831098 
C 2.076831 7.831098 4.068881 7.005964 5.537422 5.537422 
C 7.005964 4.068881 7.831098 2.076831 7.831098 0 
C 7.831098 -2.076831 7.005964 -4.068881 5.537422 -5.537422 
C 4.068881 -7.005964 2.076831 -7.831098 0 -7.831098 
C -2.076831 -7.831098 -4.068881 -7.005964 -5.537422 -5.537422 
C -7.005964 -4.068881 -7.831098 -2.076831 -7.831098 0 
C -7.831098 2.076831 -7.005964 4.068881 -5.537422 5.537422 
C -4.068881 7.005964 -2.076831 7.831098 0 7.831098 
z
" style="stroke: #000000"/>
    </defs>
    <g clip-path="url(#p77429015fc)">
     <use xlink:href="#m649d2d3774" x="375.766548" y="128.188933" style="stroke: #000000"/>
    </g>
   </g>
   <g id="line2d_8">
    <defs>
     <path id="m0e7b79e073" d="M 0 7.819444 
C 2.073741 7.819444 4.062826 6.995538 5.529182 5.529182 
C 6.995538 4.062826 7.819444 2.073741 7.819444 0 
C 7.819444 -2.073741 6.995538 -4.062826 5.529182 -5.529182 
C 4.062826 -6.995538 2.073741 -7.819444 0 -7.819444 
C -2.073741 -7.819444 -4.062826 -6.995538 -5.529182 -5.529182 
C -6.995538 -4.062826 -7.819444 -2.073741 -7.819444 0 
C -7.819444 2.073741 -6.995538 4.062826 -5.529182 5.529182 
C -4.062826 6.995538 -2.073741 7.819444 0 7.819444 
z
" style="stroke: #000000"/>
    </defs>
    <g clip-path="url(#p77429015fc)">
     <use xlink:href="#m0e7b79e073" x="461.583886" y="164.485282" style="stroke: #000000"/>
    </g>
   </g>
   <g id="line2d_9">
    <defs>
     <path id="md553484198" d="M 0 7.685207 
C 2.038141 7.685207 3.993079 6.875446 5.434262 5.434262 
C 6.875446 3.993079 7.685207 2.038141 7.685207 0 
C 7.685207 -2.038141 6.875446 -3.993079 5.434262 -5.434262 
C 3.993079 -6.875446 2.038141 -7.685207 0 -7.685207 
C -2.038141 -7.685207 -3.993079 -6.875446 -5.434262 -5.434262 
C -6.875446 -3.993079 -7.685207 -2.038141 -7.685207 0 
C -7.685207 2.038141 -6.875446 3.993079 -5.434262 5.434262 
C -3.993079 6.875446 -2.038141 7.685207 0 7.685207 
z
" style="stroke: #000000"/>
    </defs>
    <g clip-path="url(#p77429015fc)">
     <use xlink:href="#md553484198" x="278.793869" y="213.914917" style="stroke: #000000"/>
    </g>
   </g>
   <g id="line2d_10">
    <defs>
     <path id="maf87919f5a" d="M 0 7.677503 
C 2.036098 7.677503 3.989076 6.868553 5.428815 5.428815 
C 6.868553 3.989076 7.677503 2.036098 7.677503 0 
C 7.677503 -2.036098 6.868553 -3.989076 5.428815 -5.428815 
C 3.989076 -6.868553 2.036098 -7.677503 0 -7.677503 
C -2.036098 -7.677503 -3.989076 -6.868553 -5.428815 -5.428815 
C -6.868553 -3.989076 -7.677503 -2.036098 -7.677503 0 
C -7.677503 2.036098 -6.868553 3.989076 -5.428815 5.428815 
C -3.989076 6.868553 -2.036098 7.677503 0 7.677503 
z
" style="stroke: #000000"/>
    </defs>
    <g clip-path="url(#p77429015fc)">
     <use xlink:href="#maf87919f5a" x="352.790568" y="55.8" style="stroke: #000000"/>
    </g>
   </g>
  </g>
 </g>
 <defs>
  <clipPath id="p77429015fc">
   <path d="M 267.157725 320.4 
L 267.157725 43.2 
L 470.842275 43.2 
L 470.842275 320.4 
L 267.157725 320.4 
"/>
  </clipPath>
 </defs>
</svg>
