<?xml version="1.0" encoding="utf-8" standalone="no"?>
<!DOCTYPE svg PUBLIC "-//W3C//DTD SVG 1.1//EN"
  "http://www.w3.org/Graphics/SVG/1.1/DTD/svg11.dtd">
<svg xmlns:xlink="http://www.w3.org/1999/xlink" width="720pt" height="360pt" viewBox="0 0 720 360" xmlns="http://www.w3.org/2000/svg" version="1.1">
 <metadata>
  <rdf:RDF xmlns:dc="http://purl.org/dc/elements/1.1/" xmlns:cc="http://creativecommons.org/ns#" xmlns:rdf="http://www.w3.org/1999/02/22-rdf-syntax-ns#">
   <cc:Work>
    <dc:type rdf:resource="http://purl.org/dc/dcmitype/StillImage"/>
    <dc:date>2023-11-30T21:30:47.913388</dc:date>
    <dc:format>image/svg+xml</dc:format>
    <dc:creator>
     <cc:Agent>
      <dc:title>Matplotlib v3.8.1, https://matplotlib.org/</dc:title>
     </cc:Agent>
    </dc:creator>
   </cc:Work>
  </rdf:RDF>
 </metadata>
 <defs>
  <style type="text/css">*{stroke-linejoin: round; stroke-linecap: butt}</style>
 </defs>
 <g id="figure_1">
  <g id="patch_1">
   <path d="M 0 360 
L 720 360 
L 720 0 
L 0 0 
z
" style="fill: #ffffff"/>
  </g>
  <g id="axes_1">
   <g id="patch_2">
    <path d="M 90 285.196511 
L 90 78.403489 
L 648 78.403489 
L 648 285.196511 
L 90 285.196511 
" style="fill: #ffffff"/>
   </g>
   <g id="line2d_1">
    <defs>
     <path id="mb4e6774a49" d="M 0 10.457816 
C 2.773445 10.457816 5.433671 9.355915 7.394793 7.394793 
C 9.355915 5.433671 10.457816 2.773445 10.457816 0 
C 10.457816 -2.773445 9.355915 -5.433671 7.394793 -7.394793 
C 5.433671 -9.355915 2.773445 -10.457816 0 -10.457816 
C -2.773445 -10.457816 -5.433671 -9.355915 -7.394793 -7.394793 
C -9.355915 -5.433671 -10.457816 -2.773445 -10.457816 0 
C -10.457816 2.773445 -9.355915 5.433671 -7.394793 7.394793 
C -5.433671 9.355915 -2.773445 10.457816 0 10.457816 
z
" style="stroke: #000000"/>
    </defs>
    <g clip-path="url(#p3f88a5a2b7)">
     <use xlink:href="#mb4e6774a49" x="498.029888" y="151.133212" style="stroke: #000000"/>
    </g>
   </g>
   <g id="line2d_2">
    <defs>
     <path id="m0891a62c13" d="M 0 9.972963 
C 2.644861 9.972963 5.181751 8.922148 7.05195 7.05195 
C 8.922148 5.181751 9.972963 2.644861 9.972963 0 
C 9.972963 -2.644861 8.922148 -5.181751 7.05195 -7.05195 
C 5.181751 -8.922148 2.644861 -9.972963 0 -9.972963 
C -2.644861 -9.972963 -5.181751 -8.922148 -7.05195 -7.05195 
C -8.922148 -5.181751 -9.972963 -2.644861 -9.972963 0 
C -9.972963 2.644861 -8.922148 5.181751 -7.05195 7.05195 
C -5.181751 8.922148 -2.644861 9.972963 0 9.972963 
z
" style="stroke: #000000"/>
    </defs>
    <g clip-path="url(#p3f88a5a2b7)">
     <use xlink:href="#m0891a62c13" x="595.879575" y="165.16661" style="stroke: #000000"/>
    </g>
   </g>
   <g id="line2d_3">
    <defs>
     <path id="mab8e008545" d="M 0 9.485105 
C 2.515479 9.485105 4.92827 8.485694 6.706982 6.706982 
C 8.485694 4.92827 9.485105 2.515479 9.485105 0 
C 9.485105 -2.515479 8.485694 -4.92827 6.706982 -6.706982 
C 4.92827 -8.485694 2.515479 -9.485105 0 -9.485105 
C -2.515479 -9.485105 -4.92827 -8.485694 -6.706982 -6.706982 
C -8.485694 -4.92827 -9.485105 -2.515479 -9.485105 0 
C -9.485105 2.515479 -8.485694 4.92827 -6.706982 6.706982 
C -4.92827 8.485694 -2.515479 9.485105 0 9.485105 
z
" style="stroke: #000000"/>
    </defs>
    <g clip-path="url(#p3f88a5a2b7)">
     <use xlink:href="#mab8e008545" x="408.137485" y="235.131302" style="stroke: #000000"/>
    </g>
   </g>
   <g id="line2d_4">
    <defs>
     <path id="m3755ffa2db" d="M 0 9.386249 
C 2.489262 9.386249 4.876906 8.397255 6.63708 6.63708 
C 8.397255 4.876906 9.386249 2.489262 9.386249 0 
C 9.386249 -2.489262 8.397255 -4.876906 6.63708 -6.63708 
C 4.876906 -8.397255 2.489262 -9.386249 0 -9.386249 
C -2.489262 -9.386249 -4.876906 -8.397255 -6.63708 -6.63708 
C -8.397255 -4.876906 -9.386249 -2.489262 -9.386249 0 
C -9.386249 2.489262 -8.397255 4.876906 -6.63708 6.63708 
C -4.876906 8.397255 -2.489262 9.386249 0 9.386249 
z
" style="stroke: #000000"/>
    </defs>
    <g clip-path="url(#p3f88a5a2b7)">
     <use xlink:href="#m3755ffa2db" x="622.636364" y="176.517846" style="stroke: #000000"/>
    </g>
   </g>
   <g id="line2d_5">
    <defs>
     <path id="md238738c58" d="M 0 9.1715 
C 2.43231 9.1715 4.765327 8.205133 6.48523 6.48523 
C 8.205133 4.765327 9.1715 2.43231 9.1715 0 
C 9.1715 -2.43231 8.205133 -4.765327 6.48523 -6.48523 
C 4.765327 -8.205133 2.43231 -9.1715 0 -9.1715 
C -2.43231 -9.1715 -4.765327 -8.205133 -6.48523 -6.48523 
C -8.205133 -4.765327 -9.1715 -2.43231 -9.1715 0 
C -9.1715 2.43231 -8.205133 4.765327 -6.48523 6.48523 
C -4.765327 8.205133 -2.43231 9.1715 0 9.1715 
z
" style="stroke: #000000"/>
    </defs>
    <g clip-path="url(#p3f88a5a2b7)">
     <use xlink:href="#md238738c58" x="115.363636" y="87.803172" style="stroke: #000000"/>
    </g>
   </g>
   <g id="line2d_6">
    <defs>
     <path id="m096e623312" d="M 0 9.095378 
C 2.412122 9.095378 4.725775 8.137031 6.431403 6.431403 
C 8.137031 4.725775 9.095378 2.412122 9.095378 0 
C 9.095378 -2.412122 8.137031 -4.725775 6.431403 -6.431403 
C 4.725775 -8.137031 2.412122 -9.095378 0 -9.095378 
C -2.412122 -9.095378 -4.725775 -8.137031 -6.431403 -6.431403 
C -8.137031 -4.725775 -9.095378 -2.412122 -9.095378 0 
C -9.095378 2.412122 -8.137031 4.725775 -6.431403 6.431403 
C -4.725775 8.137031 -2.412122 9.095378 0 9.095378 
z
" style="stroke: #000000"/>
    </defs>
    <g clip-path="url(#p3f88a5a2b7)">
     <use xlink:href="#m096e623312" x="600.331272" y="197.305626" style="stroke: #000000"/>
    </g>
   </g>
   <g id="line2d_7">
    <defs>
     <path id="md0d7a1b727" d="M 0 9.048018 
C 2.399562 9.048018 4.701168 8.094662 6.397915 6.397915 
C 8.094662 4.701168 9.048018 2.399562 9.048018 0 
C 9.048018 -2.399562 8.094662 -4.701168 6.397915 -6.397915 
C 4.701168 -8.094662 2.399562 -9.048018 0 -9.048018 
C -2.399562 -9.048018 -4.701168 -8.094662 -6.397915 -6.397915 
C -8.094662 -4.701168 -9.048018 -2.399562 -9.048018 0 
C -9.048018 2.399562 -8.094662 4.701168 -6.397915 6.397915 
C -4.701168 8.094662 -2.399562 9.048018 0 9.048018 
z
" style="stroke: #000000"/>
    </defs>
    <g clip-path="url(#p3f88a5a2b7)">
     <use xlink:href="#md0d7a1b727" x="307.307651" y="228.913227" style="stroke: #000000"/>
    </g>
   </g>
   <g id="line2d_8">
    <defs>
     <path id="m3305f47d1d" d="M 0 9.043143 
C 2.39827 9.043143 4.698635 8.090301 6.394468 6.394468 
C 8.090301 4.698635 9.043143 2.39827 9.043143 0 
C 9.043143 -2.39827 8.090301 -4.698635 6.394468 -6.394468 
C 4.698635 -8.090301 2.39827 -9.043143 0 -9.043143 
C -2.39827 -9.043143 -4.698635 -8.090301 -6.394468 -6.394468 
C -8.090301 -4.698635 -9.043143 -2.39827 -9.043143 0 
C -9.043143 2.39827 -8.090301 4.698635 -6.394468 6.394468 
C -4.698635 8.090301 -2.39827 9.043143 0 9.043143 
z
" style="stroke: #000000"/>
    </defs>
    <g clip-path="url(#p3f88a5a2b7)">
     <use xlink:href="#m3305f47d1d" x="361.502427" y="275.796828" style="stroke: #000000"/>
    </g>
   </g>
   <g id="line2d_9">
    <defs>
     <path id="m7f7d29bac9" d="M 0 8.993246 
C 2.385037 8.993246 4.67271 8.045661 6.359185 6.359185 
C 8.045661 4.67271 8.993246 2.385037 8.993246 0 
C 8.993246 -2.385037 8.045661 -4.67271 6.359185 -6.359185 
C 4.67271 -8.045661 2.385037 -8.993246 0 -8.993246 
C -2.385037 -8.993246 -4.67271 -8.045661 -6.359185 -6.359185 
C -8.045661 -4.67271 -8.993246 -2.385037 -8.993246 0 
C -8.993246 2.385037 -8.045661 4.67271 -6.359185 6.359185 
C -4.67271 8.045661 -2.385037 8.993246 0 8.993246 
z
" style="stroke: #000000"/>
    </defs>
    <g clip-path="url(#p3f88a5a2b7)">
     <use xlink:href="#m7f7d29bac9" x="566.796352" y="189.775076" style="stroke: #000000"/>
    </g>
   </g>
   <g id="line2d_10">
    <defs>
     <path id="mb067df0719" d="M 0 8.943816 
C 2.371928 8.943816 4.647027 8.001439 6.324233 6.324233 
C 8.001439 4.647027 8.943816 2.371928 8.943816 0 
C 8.943816 -2.371928 8.001439 -4.647027 6.324233 -6.324233 
C 4.647027 -8.001439 2.371928 -8.943816 0 -8.943816 
C -2.371928 -8.943816 -4.647027 -8.001439 -6.324233 -6.324233 
C -8.001439 -4.647027 -8.943816 -2.371928 -8.943816 0 
C -8.943816 2.371928 -8.001439 4.647027 -6.324233 6.324233 
C -4.647027 8.001439 -2.371928 8.943816 0 8.943816 
z
" style="stroke: #000000"/>
    </defs>
    <g clip-path="url(#p3f88a5a2b7)">
     <use xlink:href="#mb067df0719" x="597.953448" y="192.709967" style="stroke: #000000"/>
    </g>
   </g>
  </g>
 </g>
 <defs>
  <clipPath id="p3f88a5a2b7">
   <path d="M 90 285.196511 
L 90 78.403489 
L 648 78.403489 
L 648 285.196511 
L 90 285.196511 
"/>
  </clipPath>
 </defs>
</svg>
