<?xml version="1.0" encoding="utf-8" standalone="no"?>
<!DOCTYPE svg PUBLIC "-//W3C//DTD SVG 1.1//EN"
  "http://www.w3.org/Graphics/SVG/1.1/DTD/svg11.dtd">
<svg xmlns:xlink="http://www.w3.org/1999/xlink" width="720pt" height="360pt" viewBox="0 0 720 360" xmlns="http://www.w3.org/2000/svg" version="1.1">
 <metadata>
  <rdf:RDF xmlns:dc="http://purl.org/dc/elements/1.1/" xmlns:cc="http://creativecommons.org/ns#" xmlns:rdf="http://www.w3.org/1999/02/22-rdf-syntax-ns#">
   <cc:Work>
    <dc:type rdf:resource="http://purl.org/dc/dcmitype/StillImage"/>
    <dc:date>2023-11-30T21:30:47.954595</dc:date>
    <dc:format>image/svg+xml</dc:format>
    <dc:creator>
     <cc:Agent>
      <dc:title>Matplotlib v3.8.1, https://matplotlib.org/</dc:title>
     </cc:Agent>
    </dc:creator>
   </cc:Work>
  </rdf:RDF>
 </metadata>
 <defs>
  <style type="text/css">*{stroke-linejoin: round; stroke-linecap: butt}</style>
 </defs>
 <g id="figure_1">
  <g id="patch_1">
   <path d="M 0 360 
L 720 360 
L 720 0 
L 0 0 
z
" style="fill: #ffffff"/>
  </g>
  <g id="axes_1">
   <g id="patch_2">
    <path d="M 90 261.269109 
L 90 102.330891 
L 648 102.330891 
L 648 261.269109 
L 90 261.269109 
" style="fill: #ffffff"/>
   </g>
   <g id="line2d_1">
    <defs>
     <path id="m9271985420" d="M 0 10.758266 
C 2.853125 10.758266 5.589778 9.624707 7.607243 7.607243 
C 9.624707 5.589778 10.758266 2.853125 10.758266 0 
C 10.758266 -2.853125 9.624707 -5.589778 7.607243 -7.607243 
C 5.589778 -9.624707 2.853125 -10.758266 0 -10.758266 
C -2.853125 -10.758266 -5.589778 -9.624707 -7.607243 -7.607243 
C -9.624707 -5.589778 -10.758266 -2.853125 -10.758266 0 
C -10.758266 2.853125 -9.624707 5.589778 -7.607243 7.607243 
C -5.589778 9.624707 -2.853125 10.758266 0 10.758266 
z
" style="stroke: #000000"/>
    </defs>
    <g clip-path="url(#pd2df66fadc)">
     <use xlink:href="#m9271985420" x="382.996969" y="119.763196" style="stroke: #000000"/>
    </g>
   </g>
   <g id="line2d_2">
    <defs>
     <path id="me012302e59" d="M 0 10.542687 
C 2.795953 10.542687 5.477768 9.431843 7.454806 7.454806 
C 9.431843 5.477768 10.542687 2.795953 10.542687 0 
C 10.542687 -2.795953 9.431843 -5.477768 7.454806 -7.454806 
C 5.477768 -9.431843 2.795953 -10.542687 0 -10.542687 
C -2.795953 -10.542687 -5.477768 -9.431843 -7.454806 -7.454806 
C -9.431843 -5.477768 -10.542687 -2.795953 -10.542687 0 
C -10.542687 2.795953 -9.431843 5.477768 -7.454806 7.454806 
C -5.477768 9.431843 -2.795953 10.542687 0 10.542687 
z
" style="stroke: #000000"/>
    </defs>
    <g clip-path="url(#pd2df66fadc)">
     <use xlink:href="#me012302e59" x="115.363636" y="109.555355" style="stroke: #000000"/>
    </g>
   </g>
   <g id="line2d_3">
    <defs>
     <path id="m2a4f3fd048" d="M 0 10.371214 
C 2.750478 10.371214 5.388674 9.278438 7.333556 7.333556 
C 9.278438 5.388674 10.371214 2.750478 10.371214 0 
C 10.371214 -2.750478 9.278438 -5.388674 7.333556 -7.333556 
C 5.388674 -9.278438 2.750478 -10.371214 0 -10.371214 
C -2.750478 -10.371214 -5.388674 -9.278438 -7.333556 -7.333556 
C -9.278438 -5.388674 -10.371214 -2.750478 -10.371214 0 
C -10.371214 2.750478 -9.278438 5.388674 -7.333556 7.333556 
C -5.388674 9.278438 -2.750478 10.371214 0 10.371214 
z
" style="stroke: #000000"/>
    </defs>
    <g clip-path="url(#pd2df66fadc)">
     <use xlink:href="#m2a4f3fd048" x="342.741653" y="134.19214" style="stroke: #000000"/>
    </g>
   </g>
   <g id="line2d_4">
    <defs>
     <path id="md8918017d7" d="M 0 10.313546 
C 2.735184 10.313546 5.358711 9.226845 7.292778 7.292778 
C 9.226845 5.358711 10.313546 2.735184 10.313546 0 
C 10.313546 -2.735184 9.226845 -5.358711 7.292778 -7.292778 
C 5.358711 -9.226845 2.735184 -10.313546 0 -10.313546 
C -2.735184 -10.313546 -5.358711 -9.226845 -7.292778 -7.292778 
C -9.226845 -5.358711 -10.313546 -2.735184 -10.313546 0 
C -10.313546 2.735184 -9.226845 5.358711 -7.292778 7.292778 
C -5.358711 9.226845 -2.735184 10.313546 0 10.313546 
z
" style="stroke: #000000"/>
    </defs>
    <g clip-path="url(#pd2df66fadc)">
     <use xlink:href="#md8918017d7" x="319.190309" y="138.377688" style="stroke: #000000"/>
    </g>
   </g>
   <g id="line2d_5">
    <defs>
     <path id="mad3a83030d" d="M 0 10.12137 
C 2.684219 10.12137 5.25886 9.054919 7.156889 7.156889 
C 9.054919 5.25886 10.12137 2.684219 10.12137 0 
C 10.12137 -2.684219 9.054919 -5.25886 7.156889 -7.156889 
C 5.25886 -9.054919 2.684219 -10.12137 0 -10.12137 
C -2.684219 -10.12137 -5.25886 -9.054919 -7.156889 -7.156889 
C -9.054919 -5.25886 -10.12137 -2.684219 -10.12137 0 
C -10.12137 2.684219 -9.054919 5.25886 -7.156889 7.156889 
C -5.25886 9.054919 -2.684219 10.12137 0 10.12137 
z
" style="stroke: #000000"/>
    </defs>
    <g clip-path="url(#pd2df66fadc)">
     <use xlink:href="#mad3a83030d" x="242.892141" y="143.931044" style="stroke: #000000"/>
    </g>
   </g>
   <g id="line2d_6">
    <defs>
     <path id="m4e6bb9270d" d="M 0 9.928785 
C 2.633144 9.928785 5.158797 8.882625 7.020711 7.020711 
C 8.882625 5.158797 9.928785 2.633144 9.928785 0 
C 9.928785 -2.633144 8.882625 -5.158797 7.020711 -7.020711 
C 5.158797 -8.882625 2.633144 -9.928785 0 -9.928785 
C -2.633144 -9.928785 -5.158797 -8.882625 -7.020711 -7.020711 
C -8.882625 -5.158797 -9.928785 -2.633144 -9.928785 0 
C -9.928785 2.633144 -8.882625 5.158797 -7.020711 7.020711 
C -5.158797 8.882625 -2.633144 9.928785 0 9.928785 
z
" style="stroke: #000000"/>
    </defs>
    <g clip-path="url(#pd2df66fadc)">
     <use xlink:href="#m4e6bb9270d" x="622.636364" y="241.444858" style="stroke: #000000"/>
    </g>
   </g>
   <g id="line2d_7">
    <defs>
     <path id="m239a0aa941" d="M 0 9.818346 
C 2.603856 9.818346 5.101415 8.783823 6.942619 6.942619 
C 8.783823 5.101415 9.818346 2.603856 9.818346 0 
C 9.818346 -2.603856 8.783823 -5.101415 6.942619 -6.942619 
C 5.101415 -8.783823 2.603856 -9.818346 0 -9.818346 
C -2.603856 -9.818346 -5.101415 -8.783823 -6.942619 -6.942619 
C -8.783823 -5.101415 -9.818346 -2.603856 -9.818346 0 
C -9.818346 2.603856 -8.783823 5.101415 -6.942619 6.942619 
C -5.101415 8.783823 -2.603856 9.818346 0 9.818346 
z
" style="stroke: #000000"/>
    </defs>
    <g clip-path="url(#pd2df66fadc)">
     <use xlink:href="#m239a0aa941" x="506.996617" y="139.848364" style="stroke: #000000"/>
    </g>
   </g>
   <g id="line2d_8">
    <defs>
     <path id="m5f060d77da" d="M 0 9.652216 
C 2.559798 9.652216 5.015097 8.635197 6.825147 6.825147 
C 8.635197 5.015097 9.652216 2.559798 9.652216 0 
C 9.652216 -2.559798 8.635197 -5.015097 6.825147 -6.825147 
C 5.015097 -8.635197 2.559798 -9.652216 0 -9.652216 
C -2.559798 -9.652216 -5.015097 -8.635197 -6.825147 -6.825147 
C -8.635197 -5.015097 -9.652216 -2.559798 -9.652216 0 
C -9.652216 2.559798 -8.635197 5.015097 -6.825147 6.825147 
C -5.015097 8.635197 -2.559798 9.652216 0 9.652216 
z
" style="stroke: #000000"/>
    </defs>
    <g clip-path="url(#pd2df66fadc)">
     <use xlink:href="#m5f060d77da" x="591.978113" y="162.122862" style="stroke: #000000"/>
    </g>
   </g>
   <g id="line2d_9">
    <defs>
     <path id="maa0a636b7e" d="M 0 9.327227 
C 2.47361 9.327227 4.846239 8.344452 6.595346 6.595346 
C 8.344452 4.846239 9.327227 2.47361 9.327227 0 
C 9.327227 -2.47361 8.344452 -4.846239 6.595346 -6.595346 
C 4.846239 -8.344452 2.47361 -9.327227 0 -9.327227 
C -2.47361 -9.327227 -4.846239 -8.344452 -6.595346 -6.595346 
C -8.344452 -4.846239 -9.327227 -2.47361 -9.327227 0 
C -9.327227 2.47361 -8.344452 4.846239 -6.595346 6.595346 
C -4.846239 8.344452 -2.47361 9.327227 0 9.327227 
z
" style="stroke: #000000"/>
    </defs>
    <g clip-path="url(#pd2df66fadc)">
     <use xlink:href="#maa0a636b7e" x="571.756594" y="254.044645" style="stroke: #000000"/>
    </g>
   </g>
   <g id="line2d_10">
    <defs>
     <path id="m3c4ee46cb2" d="M 0 9.314897 
C 2.47034 9.314897 4.839833 8.333421 6.586627 6.586627 
C 8.333421 4.839833 9.314897 2.47034 9.314897 0 
C 9.314897 -2.47034 8.333421 -4.839833 6.586627 -6.586627 
C 4.839833 -8.333421 2.47034 -9.314897 0 -9.314897 
C -2.47034 -9.314897 -4.839833 -8.333421 -6.586627 -6.586627 
C -8.333421 -4.839833 -9.314897 -2.47034 -9.314897 0 
C -9.314897 2.47034 -8.333421 4.839833 -6.586627 6.586627 
C -4.839833 8.333421 -2.47034 9.314897 0 9.314897 
z
" style="stroke: #000000"/>
    </defs>
    <g clip-path="url(#pd2df66fadc)">
     <use xlink:href="#m3c4ee46cb2" x="535.472868" y="121.707846" style="stroke: #000000"/>
    </g>
   </g>
  </g>
 </g>
 <defs>
  <clipPath id="pd2df66fadc">
   <path d="M 90 261.269109 
L 90 102.330891 
L 648 102.330891 
L 648 261.269109 
L 90 261.269109 
"/>
  </clipPath>
 </defs>
</svg>
