<?xml version="1.0" encoding="utf-8" standalone="no"?>
<!DOCTYPE svg PUBLIC "-//W3C//DTD SVG 1.1//EN"
  "http://www.w3.org/Graphics/SVG/1.1/DTD/svg11.dtd">
<svg xmlns:xlink="http://www.w3.org/1999/xlink" width="720pt" height="360pt" viewBox="0 0 720 360" xmlns="http://www.w3.org/2000/svg" version="1.1">
 <metadata>
  <rdf:RDF xmlns:dc="http://purl.org/dc/elements/1.1/" xmlns:cc="http://creativecommons.org/ns#" xmlns:rdf="http://www.w3.org/1999/02/22-rdf-syntax-ns#">
   <cc:Work>
    <dc:type rdf:resource="http://purl.org/dc/dcmitype/StillImage"/>
    <dc:date>2023-11-30T21:30:47.999380</dc:date>
    <dc:format>image/svg+xml</dc:format>
    <dc:creator>
     <cc:Agent>
      <dc:title>Matplotlib v3.8.1, https://matplotlib.org/</dc:title>
     </cc:Agent>
    </dc:creator>
   </cc:Work>
  </rdf:RDF>
 </metadata>
 <defs>
  <style type="text/css">*{stroke-linejoin: round; stroke-linecap: butt}</style>
 </defs>
 <g id="figure_1">
  <g id="patch_1">
   <path d="M 0 360 
L 720 360 
L 720 0 
L 0 0 
z
" style="fill: #ffffff"/>
  </g>
  <g id="axes_1">
   <g id="patch_2">
    <path d="M 339.30308 320.4 
L 339.30308 43.2 
L 398.69692 43.2 
L 398.69692 320.4 
L 339.30308 320.4 
" style="fill: #ffffff"/>
   </g>
   <g id="line2d_1">
    <defs>
     <path id="ma94eb84f1a" d="M 0 11.550192 
C 3.063147 11.550192 6.001247 10.333191 8.167219 8.167219 
C 10.333191 6.001247 11.550192 3.063147 11.550192 0 
C 11.550192 -3.063147 10.333191 -6.001247 8.167219 -8.167219 
C 6.001247 -10.333191 3.063147 -11.550192 0 -11.550192 
C -3.063147 -11.550192 -6.001247 -10.333191 -8.167219 -8.167219 
C -10.333191 -6.001247 -11.550192 -3.063147 -11.550192 0 
C -11.550192 3.063147 -10.333191 6.001247 -8.167219 8.167219 
C -6.001247 10.333191 -3.063147 11.550192 0 11.550192 
z
" style="stroke: #000000"/>
    </defs>
    <g clip-path="url(#p30c820427a)">
     <use xlink:href="#ma94eb84f1a" x="360.67881" y="290.177309" style="stroke: #000000"/>
    </g>
   </g>
   <g id="line2d_2">
    <defs>
     <path id="m61bda2777b" d="M 0 11.470607 
C 3.042041 11.470607 5.959896 10.261991 8.110944 8.110944 
C 10.261991 5.959896 11.470607 3.042041 11.470607 0 
C 11.470607 -3.042041 10.261991 -5.959896 8.110944 -8.110944 
C 5.959896 -10.261991 3.042041 -11.470607 0 -11.470607 
C -3.042041 -11.470607 -5.959896 -10.261991 -8.110944 -8.110944 
C -10.261991 -5.959896 -11.470607 -3.042041 -11.470607 0 
C -11.470607 3.042041 -10.261991 5.959896 -8.110944 8.110944 
C -5.959896 10.261991 -3.042041 11.470607 0 11.470607 
z
" style="stroke: #000000"/>
    </defs>
    <g clip-path="url(#p30c820427a)">
     <use xlink:href="#m61bda2777b" x="343.177431" y="55.8" style="stroke: #000000"/>
    </g>
   </g>
   <g id="line2d_3">
    <defs>
     <path id="mf69d899bff" d="M 0 9.957486 
C 2.640756 9.957486 5.173709 8.908302 7.041006 7.041006 
C 8.908302 5.173709 9.957486 2.640756 9.957486 0 
C 9.957486 -2.640756 8.908302 -5.173709 7.041006 -7.041006 
C 5.173709 -8.908302 2.640756 -9.957486 0 -9.957486 
C -2.640756 -9.957486 -5.173709 -8.908302 -7.041006 -7.041006 
C -8.908302 -5.173709 -9.957486 -2.640756 -9.957486 0 
C -9.957486 2.640756 -8.908302 5.173709 -7.041006 7.041006 
C -5.173709 8.908302 -2.640756 9.957486 0 9.957486 
z
" style="stroke: #000000"/>
    </defs>
    <g clip-path="url(#p30c820427a)">
     <use xlink:href="#mf69d899bff" x="395.9972" y="171.193541" style="stroke: #000000"/>
    </g>
   </g>
   <g id="line2d_4">
    <defs>
     <path id="m55736cb734" d="M 0 9.84132 
C 2.609949 9.84132 5.113352 8.804376 6.958864 6.958864 
C 8.804376 5.113352 9.84132 2.609949 9.84132 0 
C 9.84132 -2.609949 8.804376 -5.113352 6.958864 -6.958864 
C 5.113352 -8.804376 2.609949 -9.84132 0 -9.84132 
C -2.609949 -9.84132 -5.113352 -8.804376 -6.958864 -6.958864 
C -8.804376 -5.113352 -9.84132 -2.609949 -9.84132 0 
C -9.84132 2.609949 -8.804376 5.113352 -6.958864 6.958864 
C -5.113352 8.804376 -2.609949 9.84132 0 9.84132 
z
" style="stroke: #000000"/>
    </defs>
    <g clip-path="url(#p30c820427a)">
     <use xlink:href="#m55736cb734" x="361.872974" y="59.573128" style="stroke: #000000"/>
    </g>
   </g>
   <g id="line2d_5">
    <defs>
     <path id="m54a5603b30" d="M 0 9.832097 
C 2.607503 9.832097 5.10856 8.796125 6.952342 6.952342 
C 8.796125 5.10856 9.832097 2.607503 9.832097 0 
C 9.832097 -2.607503 8.796125 -5.10856 6.952342 -6.952342 
C 5.10856 -8.796125 2.607503 -9.832097 0 -9.832097 
C -2.607503 -9.832097 -5.10856 -8.796125 -6.952342 -6.952342 
C -8.796125 -5.10856 -9.832097 -2.607503 -9.832097 0 
C -9.832097 2.607503 -8.796125 5.10856 -6.952342 6.952342 
C -5.10856 8.796125 -2.607503 9.832097 0 9.832097 
z
" style="stroke: #000000"/>
    </defs>
    <g clip-path="url(#p30c820427a)">
     <use xlink:href="#m54a5603b30" x="364.999774" y="287.444967" style="stroke: #000000"/>
    </g>
   </g>
   <g id="line2d_6">
    <defs>
     <path id="m85d83f9953" d="M 0 9.815639 
C 2.603138 9.815639 5.100009 8.781401 6.940705 6.940705 
C 8.781401 5.100009 9.815639 2.603138 9.815639 0 
C 9.815639 -2.603138 8.781401 -5.100009 6.940705 -6.940705 
C 5.100009 -8.781401 2.603138 -9.815639 0 -9.815639 
C -2.603138 -9.815639 -5.100009 -8.781401 -6.940705 -6.940705 
C -8.781401 -5.100009 -9.815639 -2.603138 -9.815639 0 
C -9.815639 2.603138 -8.781401 5.100009 -6.940705 6.940705 
C -5.100009 8.781401 -2.603138 9.815639 0 9.815639 
z
" style="stroke: #000000"/>
    </defs>
    <g clip-path="url(#p30c820427a)">
     <use xlink:href="#m85d83f9953" x="342.0028" y="307.8" style="stroke: #000000"/>
    </g>
   </g>
   <g id="line2d_7">
    <defs>
     <path id="m061d1c3dcd" d="M 0 9.583485 
C 2.54157 9.583485 4.979386 8.573708 6.776547 6.776547 
C 8.573708 4.979386 9.583485 2.54157 9.583485 0 
C 9.583485 -2.54157 8.573708 -4.979386 6.776547 -6.776547 
C 4.979386 -8.573708 2.54157 -9.583485 0 -9.583485 
C -2.54157 -9.583485 -4.979386 -8.573708 -6.776547 -6.776547 
C -8.573708 -4.979386 -9.583485 -2.54157 -9.583485 0 
C -9.583485 2.54157 -8.573708 4.979386 -6.776547 6.776547 
C -4.979386 8.573708 -2.54157 9.583485 0 9.583485 
z
" style="stroke: #000000"/>
    </defs>
    <g clip-path="url(#p30c820427a)">
     <use xlink:href="#m061d1c3dcd" x="362.557287" y="287.911928" style="stroke: #000000"/>
    </g>
   </g>
   <g id="line2d_8">
    <defs>
     <path id="mc985030cac" d="M 0 9.428301 
C 2.500415 9.428301 4.898755 8.434876 6.666816 6.666816 
C 8.434876 4.898755 9.428301 2.500415 9.428301 0 
C 9.428301 -2.500415 8.434876 -4.898755 6.666816 -6.666816 
C 4.898755 -8.434876 2.500415 -9.428301 0 -9.428301 
C -2.500415 -9.428301 -4.898755 -8.434876 -6.666816 -6.666816 
C -8.434876 -4.898755 -9.428301 -2.500415 -9.428301 0 
C -9.428301 2.500415 -8.434876 4.898755 -6.666816 6.666816 
C -4.898755 8.434876 -2.500415 9.428301 0 9.428301 
z
" style="stroke: #000000"/>
    </defs>
    <g clip-path="url(#p30c820427a)">
     <use xlink:href="#mc985030cac" x="363.78075" y="288.295534" style="stroke: #000000"/>
    </g>
   </g>
   <g id="line2d_9">
    <defs>
     <path id="m2339329a78" d="M 0 9.211494 
C 2.442917 9.211494 4.786107 8.240913 6.51351 6.51351 
C 8.240913 4.786107 9.211494 2.442917 9.211494 0 
C 9.211494 -2.442917 8.240913 -4.786107 6.51351 -6.51351 
C 4.786107 -8.240913 2.442917 -9.211494 0 -9.211494 
C -2.442917 -9.211494 -4.786107 -8.240913 -6.51351 -6.51351 
C -8.240913 -4.786107 -9.211494 -2.442917 -9.211494 0 
C -9.211494 2.442917 -8.240913 4.786107 -6.51351 6.51351 
C -4.786107 8.240913 -2.442917 9.211494 0 9.211494 
z
" style="stroke: #000000"/>
    </defs>
    <g clip-path="url(#p30c820427a)">
     <use xlink:href="#m2339329a78" x="382.116268" y="162.137026" style="stroke: #000000"/>
    </g>
   </g>
   <g id="line2d_10">
    <defs>
     <path id="mb0d58b646e" d="M 0 9.190875 
C 2.437449 9.190875 4.775394 8.222466 6.49893 6.49893 
C 8.222466 4.775394 9.190875 2.437449 9.190875 0 
C 9.190875 -2.437449 8.222466 -4.775394 6.49893 -6.49893 
C 4.775394 -8.222466 2.437449 -9.190875 0 -9.190875 
C -2.437449 -9.190875 -4.775394 -8.222466 -6.49893 -6.49893 
C -8.222466 -4.775394 -9.190875 -2.437449 -9.190875 0 
C -9.190875 2.437449 -8.222466 4.775394 -6.49893 6.49893 
C -4.775394 8.222466 -2.437449 9.190875 0 9.190875 
z
" style="stroke: #000000"/>
    </defs>
    <g clip-path="url(#p30c820427a)">
     <use xlink:href="#mb0d58b646e" x="370.769493" y="300.879254" style="stroke: #000000"/>
    </g>
   </g>
  </g>
 </g>
 <defs>
  <clipPath id="p30c820427a">
   <path d="M 339.30308 320.4 
L 339.30308 43.2 
L 398.69692 43.2 
L 398.69692 320.4 
L 339.30308 320.4 
"/>
  </clipPath>
 </defs>
</svg>
