<?xml version="1.0" encoding="utf-8" standalone="no"?>
<!DOCTYPE svg PUBLIC "-//W3C//DTD SVG 1.1//EN"
  "http://www.w3.org/Graphics/SVG/1.1/DTD/svg11.dtd">
<svg xmlns:xlink="http://www.w3.org/1999/xlink" width="720pt" height="360pt" viewBox="0 0 720 360" xmlns="http://www.w3.org/2000/svg" version="1.1">
 <metadata>
  <rdf:RDF xmlns:dc="http://purl.org/dc/elements/1.1/" xmlns:cc="http://creativecommons.org/ns#" xmlns:rdf="http://www.w3.org/1999/02/22-rdf-syntax-ns#">
   <cc:Work>
    <dc:type rdf:resource="http://purl.org/dc/dcmitype/StillImage"/>
    <dc:date>2023-11-30T21:30:47.567796</dc:date>
    <dc:format>image/svg+xml</dc:format>
    <dc:creator>
     <cc:Agent>
      <dc:title>Matplotlib v3.8.1, https://matplotlib.org/</dc:title>
     </cc:Agent>
    </dc:creator>
   </cc:Work>
  </rdf:RDF>
 </metadata>
 <defs>
  <style type="text/css">*{stroke-linejoin: round; stroke-linecap: butt}</style>
 </defs>
 <g id="figure_1">
  <g id="patch_1">
   <path d="M 0 360 
L 720 360 
L 720 0 
L 0 0 
z
" style="fill: #ffffff"/>
  </g>
  <g id="axes_1">
   <g id="patch_2">
    <path d="M 90 288.144103 
L 90 75.455897 
L 648 75.455897 
L 648 288.144103 
L 90 288.144103 
" style="fill: #ffffff"/>
   </g>
   <g id="line2d_1">
    <defs>
     <path id="mc37ce4ab80" d="M 0 7.651177 
C 2.029116 7.651177 3.975397 6.845 5.410199 5.410199 
C 6.845 3.975397 7.651177 2.029116 7.651177 0 
C 7.651177 -2.029116 6.845 -3.975397 5.410199 -5.410199 
C 3.975397 -6.845 2.029116 -7.651177 0 -7.651177 
C -2.029116 -7.651177 -3.975397 -6.845 -5.410199 -5.410199 
C -6.845 -3.975397 -7.651177 -2.029116 -7.651177 0 
C -7.651177 2.029116 -6.845 3.975397 -5.410199 5.410199 
C -3.975397 6.845 -2.029116 7.651177 0 7.651177 
z
" style="stroke: #000000"/>
    </defs>
    <g clip-path="url(#p2bdc0961a3)">
     <use xlink:href="#mc37ce4ab80" x="622.636364" y="271.927477" style="stroke: #000000"/>
    </g>
   </g>
   <g id="line2d_2">
    <defs>
     <path id="m7f142a49fe" d="M 0 6.348918 
C 1.683753 6.348918 3.29877 5.679956 4.489363 4.489363 
C 5.679956 3.29877 6.348918 1.683753 6.348918 0 
C 6.348918 -1.683753 5.679956 -3.29877 4.489363 -4.489363 
C 3.29877 -5.679956 1.683753 -6.348918 0 -6.348918 
C -1.683753 -6.348918 -3.29877 -5.679956 -4.489363 -4.489363 
C -5.679956 -3.29877 -6.348918 -1.683753 -6.348918 0 
C -6.348918 1.683753 -5.679956 3.29877 -4.489363 4.489363 
C -3.29877 5.679956 -1.683753 6.348918 0 6.348918 
z
" style="stroke: #000000"/>
    </defs>
    <g clip-path="url(#p2bdc0961a3)">
     <use xlink:href="#m7f142a49fe" x="115.363636" y="85.123543" style="stroke: #000000"/>
    </g>
   </g>
   <g id="line2d_3">
    <defs>
     <path id="m03c55dabc4" d="M 0 6.069296 
C 1.609596 6.069296 3.153484 5.429797 4.29164 4.29164 
C 5.429797 3.153484 6.069296 1.609596 6.069296 0 
C 6.069296 -1.609596 5.429797 -3.153484 4.29164 -4.29164 
C 3.153484 -5.429797 1.609596 -6.069296 0 -6.069296 
C -1.609596 -6.069296 -3.153484 -5.429797 -4.29164 -4.29164 
C -5.429797 -3.153484 -6.069296 -1.609596 -6.069296 0 
C -6.069296 1.609596 -5.429797 3.153484 -4.29164 4.29164 
C -3.153484 5.429797 -1.609596 6.069296 0 6.069296 
z
" style="stroke: #000000"/>
    </defs>
    <g clip-path="url(#p2bdc0961a3)">
     <use xlink:href="#m03c55dabc4" x="465.792793" y="271.033646" style="stroke: #000000"/>
    </g>
   </g>
   <g id="line2d_4">
    <defs>
     <path id="m2bb216653f" d="M 0 5.670203 
C 1.503755 5.670203 2.946123 5.072755 4.009439 4.009439 
C 5.072755 2.946123 5.670203 1.503755 5.670203 0 
C 5.670203 -1.503755 5.072755 -2.946123 4.009439 -4.009439 
C 2.946123 -5.072755 1.503755 -5.670203 0 -5.670203 
C -1.503755 -5.670203 -2.946123 -5.072755 -4.009439 -4.009439 
C -5.072755 -2.946123 -5.670203 -1.503755 -5.670203 0 
C -5.670203 1.503755 -5.072755 2.946123 -4.009439 4.009439 
C -2.946123 5.072755 -1.503755 5.670203 0 5.670203 
z
" style="stroke: #000000"/>
    </defs>
    <g clip-path="url(#p2bdc0961a3)">
     <use xlink:href="#m2bb216653f" x="585.020925" y="248.832754" style="stroke: #000000"/>
    </g>
   </g>
   <g id="line2d_5">
    <defs>
     <path id="m9be9d0722e" d="M 0 5.560443 
C 1.474647 5.560443 2.889094 4.97456 3.931827 3.931827 
C 4.97456 2.889094 5.560443 1.474647 5.560443 0 
C 5.560443 -1.474647 4.97456 -2.889094 3.931827 -3.931827 
C 2.889094 -4.97456 1.474647 -5.560443 0 -5.560443 
C -1.474647 -5.560443 -2.889094 -4.97456 -3.931827 -3.931827 
C -4.97456 -2.889094 -5.560443 -1.474647 -5.560443 0 
C -5.560443 1.474647 -4.97456 2.889094 -3.931827 3.931827 
C -2.889094 4.97456 -1.474647 5.560443 0 5.560443 
z
" style="stroke: #000000"/>
    </defs>
    <g clip-path="url(#p2bdc0961a3)">
     <use xlink:href="#m9be9d0722e" x="595.088586" y="278.476457" style="stroke: #000000"/>
    </g>
   </g>
   <g id="line2d_6">
    <defs>
     <path id="md301b5a272" d="M 0 5.548358 
C 1.471442 5.548358 2.882815 4.963748 3.923281 3.923281 
C 4.963748 2.882815 5.548358 1.471442 5.548358 0 
C 5.548358 -1.471442 4.963748 -2.882815 3.923281 -3.923281 
C 2.882815 -4.963748 1.471442 -5.548358 0 -5.548358 
C -1.471442 -5.548358 -2.882815 -4.963748 -3.923281 -3.923281 
C -4.963748 -2.882815 -5.548358 -1.471442 -5.548358 0 
C -5.548358 1.471442 -4.963748 2.882815 -3.923281 3.923281 
C -2.882815 4.963748 -1.471442 5.548358 0 5.548358 
z
" style="stroke: #000000"/>
    </defs>
    <g clip-path="url(#p2bdc0961a3)">
     <use xlink:href="#md301b5a272" x="575.914029" y="252.330079" style="stroke: #000000"/>
    </g>
   </g>
   <g id="line2d_7">
    <defs>
     <path id="mc9461862b3" d="M 0 5.517743 
C 1.463323 5.517743 2.866908 4.936359 3.901634 3.901634 
C 4.936359 2.866908 5.517743 1.463323 5.517743 0 
C 5.517743 -1.463323 4.936359 -2.866908 3.901634 -3.901634 
C 2.866908 -4.936359 1.463323 -5.517743 0 -5.517743 
C -1.463323 -5.517743 -2.866908 -4.936359 -3.901634 -3.901634 
C -4.936359 -2.866908 -5.517743 -1.463323 -5.517743 0 
C -5.517743 1.463323 -4.936359 2.866908 -3.901634 3.901634 
C -2.866908 4.936359 -1.463323 5.517743 0 5.517743 
z
" style="stroke: #000000"/>
    </defs>
    <g clip-path="url(#p2bdc0961a3)">
     <use xlink:href="#mc9461862b3" x="521.336705" y="258.997289" style="stroke: #000000"/>
    </g>
   </g>
   <g id="line2d_8">
    <defs>
     <path id="m1503b1805b" d="M 0 5.49859 
C 1.458243 5.49859 2.856957 4.919224 3.88809 3.88809 
C 4.919224 2.856957 5.49859 1.458243 5.49859 0 
C 5.49859 -1.458243 4.919224 -2.856957 3.88809 -3.88809 
C 2.856957 -4.919224 1.458243 -5.49859 0 -5.49859 
C -1.458243 -5.49859 -2.856957 -4.919224 -3.88809 -3.88809 
C -4.919224 -2.856957 -5.49859 -1.458243 -5.49859 0 
C -5.49859 1.458243 -4.919224 2.856957 -3.88809 3.88809 
C -2.856957 4.919224 -1.458243 5.49859 0 5.49859 
z
" style="stroke: #000000"/>
    </defs>
    <g clip-path="url(#p2bdc0961a3)">
     <use xlink:href="#m1503b1805b" x="607.106894" y="268.024458" style="stroke: #000000"/>
    </g>
   </g>
   <g id="line2d_9">
    <defs>
     <path id="m16febae8f8" d="M 0 5.444372 
C 1.443864 5.444372 2.828786 4.870718 3.849752 3.849752 
C 4.870718 2.828786 5.444372 1.443864 5.444372 0 
C 5.444372 -1.443864 4.870718 -2.828786 3.849752 -3.849752 
C 2.828786 -4.870718 1.443864 -5.444372 0 -5.444372 
C -1.443864 -5.444372 -2.828786 -4.870718 -3.849752 -3.849752 
C -4.870718 -2.828786 -5.444372 -1.443864 -5.444372 0 
C -5.444372 1.443864 -4.870718 2.828786 -3.849752 3.849752 
C -2.828786 4.870718 -1.443864 5.444372 0 5.444372 
z
" style="stroke: #000000"/>
    </defs>
    <g clip-path="url(#p2bdc0961a3)">
     <use xlink:href="#m16febae8f8" x="572.315524" y="250.435435" style="stroke: #000000"/>
    </g>
   </g>
   <g id="line2d_10">
    <defs>
     <path id="m178bbc7622" d="M 0 5.41842 
C 1.436982 5.41842 2.815302 4.847501 3.831401 3.831401 
C 4.847501 2.815302 5.41842 1.436982 5.41842 0 
C 5.41842 -1.436982 4.847501 -2.815302 3.831401 -3.831401 
C 2.815302 -4.847501 1.436982 -5.41842 0 -5.41842 
C -1.436982 -5.41842 -2.815302 -4.847501 -3.831401 -3.831401 
C -4.847501 -2.815302 -5.41842 -1.436982 -5.41842 0 
C -5.41842 1.436982 -4.847501 2.815302 -3.831401 3.831401 
C -2.815302 4.847501 -1.436982 5.41842 0 5.41842 
z
" style="stroke: #000000"/>
    </defs>
    <g clip-path="url(#p2bdc0961a3)">
     <use xlink:href="#m178bbc7622" x="510.797395" y="264.99746" style="stroke: #000000"/>
    </g>
   </g>
  </g>
 </g>
 <defs>
  <clipPath id="p2bdc0961a3">
   <path d="M 90 288.144103 
L 90 75.455897 
L 648 75.455897 
L 648 288.144103 
L 90 288.144103 
"/>
  </clipPath>
 </defs>
</svg>
