<?xml version="1.0" encoding="utf-8" standalone="no"?>
<!DOCTYPE svg PUBLIC "-//W3C//DTD SVG 1.1//EN"
  "http://www.w3.org/Graphics/SVG/1.1/DTD/svg11.dtd">
<svg xmlns:xlink="http://www.w3.org/1999/xlink" width="720pt" height="360pt" viewBox="0 0 720 360" xmlns="http://www.w3.org/2000/svg" version="1.1">
 <metadata>
  <rdf:RDF xmlns:dc="http://purl.org/dc/elements/1.1/" xmlns:cc="http://creativecommons.org/ns#" xmlns:rdf="http://www.w3.org/1999/02/22-rdf-syntax-ns#">
   <cc:Work>
    <dc:type rdf:resource="http://purl.org/dc/dcmitype/StillImage"/>
    <dc:date>2023-11-30T21:30:47.609537</dc:date>
    <dc:format>image/svg+xml</dc:format>
    <dc:creator>
     <cc:Agent>
      <dc:title>Matplotlib v3.8.1, https://matplotlib.org/</dc:title>
     </cc:Agent>
    </dc:creator>
   </cc:Work>
  </rdf:RDF>
 </metadata>
 <defs>
  <style type="text/css">*{stroke-linejoin: round; stroke-linecap: butt}</style>
 </defs>
 <g id="figure_1">
  <g id="patch_1">
   <path d="M 0 360 
L 720 360 
L 720 0 
L 0 0 
z
" style="fill: #ffffff"/>
  </g>
  <g id="axes_1">
   <g id="patch_2">
    <path d="M 188.068048 320.4 
L 188.068048 43.2 
L 549.931952 43.2 
L 549.931952 320.4 
L 188.068048 320.4 
" style="fill: #ffffff"/>
   </g>
   <g id="line2d_1">
    <defs>
     <path id="m06a053fbf0" d="M 0 9.534537 
C 2.528589 9.534537 4.953954 8.529918 6.741936 6.741936 
C 8.529918 4.953954 9.534537 2.528589 9.534537 0 
C 9.534537 -2.528589 8.529918 -4.953954 6.741936 -6.741936 
C 4.953954 -8.529918 2.528589 -9.534537 0 -9.534537 
C -2.528589 -9.534537 -4.953954 -8.529918 -6.741936 -6.741936 
C -8.529918 -4.953954 -9.534537 -2.528589 -9.534537 0 
C -9.534537 2.528589 -8.529918 4.953954 -6.741936 6.741936 
C -4.953954 8.529918 -2.528589 9.534537 0 9.534537 
z
" style="stroke: #000000"/>
    </defs>
    <g clip-path="url(#p1c5a22c573)">
     <use xlink:href="#m06a053fbf0" x="449.155013" y="135.374899" style="stroke: #000000"/>
    </g>
   </g>
   <g id="line2d_2">
    <defs>
     <path id="mfbff332cfd" d="M 0 8.693777 
C 2.305617 8.693777 4.517112 7.777746 6.147429 6.147429 
C 7.777746 4.517112 8.693777 2.305617 8.693777 0 
C 8.693777 -2.305617 7.777746 -4.517112 6.147429 -6.147429 
C 4.517112 -7.777746 2.305617 -8.693777 0 -8.693777 
C -2.305617 -8.693777 -4.517112 -7.777746 -6.147429 -6.147429 
C -7.777746 -4.517112 -8.693777 -2.305617 -8.693777 0 
C -8.693777 2.305617 -7.777746 4.517112 -6.147429 6.147429 
C -4.517112 7.777746 -2.305617 8.693777 0 8.693777 
z
" style="stroke: #000000"/>
    </defs>
    <g clip-path="url(#p1c5a22c573)">
     <use xlink:href="#mfbff332cfd" x="330.263351" y="307.8" style="stroke: #000000"/>
    </g>
   </g>
   <g id="line2d_3">
    <defs>
     <path id="m13de09393b" d="M 0 8.353936 
C 2.21549 8.353936 4.340537 7.473712 5.907125 5.907125 
C 7.473712 4.340537 8.353936 2.21549 8.353936 0 
C 8.353936 -2.21549 7.473712 -4.340537 5.907125 -5.907125 
C 4.340537 -7.473712 2.21549 -8.353936 0 -8.353936 
C -2.21549 -8.353936 -4.340537 -7.473712 -5.907125 -5.907125 
C -7.473712 -4.340537 -8.353936 -2.21549 -8.353936 0 
C -8.353936 2.21549 -7.473712 4.340537 -5.907125 5.907125 
C -4.340537 7.473712 -2.21549 8.353936 0 8.353936 
z
" style="stroke: #000000"/>
    </defs>
    <g clip-path="url(#p1c5a22c573)">
     <use xlink:href="#m13de09393b" x="365.597409" y="55.8" style="stroke: #000000"/>
    </g>
   </g>
   <g id="line2d_4">
    <defs>
     <path id="m0419be5f1f" d="M 0 8.261406 
C 2.19095 8.261406 4.29246 7.390932 5.841696 5.841696 
C 7.390932 4.29246 8.261406 2.19095 8.261406 0 
C 8.261406 -2.19095 7.390932 -4.29246 5.841696 -5.841696 
C 4.29246 -7.390932 2.19095 -8.261406 0 -8.261406 
C -2.19095 -8.261406 -4.29246 -7.390932 -5.841696 -5.841696 
C -7.390932 -4.29246 -8.261406 -2.19095 -8.261406 0 
C -8.261406 2.19095 -7.390932 4.29246 -5.841696 5.841696 
C -4.29246 7.390932 -2.19095 8.261406 0 8.261406 
z
" style="stroke: #000000"/>
    </defs>
    <g clip-path="url(#p1c5a22c573)">
     <use xlink:href="#m0419be5f1f" x="244.289838" y="245.418646" style="stroke: #000000"/>
    </g>
   </g>
   <g id="line2d_5">
    <defs>
     <path id="m97d7ae71d0" d="M 0 8.070155 
C 2.14023 8.070155 4.19309 7.219833 5.706462 5.706462 
C 7.219833 4.19309 8.070155 2.14023 8.070155 0 
C 8.070155 -2.14023 7.219833 -4.19309 5.706462 -5.706462 
C 4.19309 -7.219833 2.14023 -8.070155 0 -8.070155 
C -2.14023 -8.070155 -4.19309 -7.219833 -5.706462 -5.706462 
C -7.219833 -4.19309 -8.070155 -2.14023 -8.070155 0 
C -8.070155 2.14023 -7.219833 4.19309 -5.706462 5.706462 
C -4.19309 7.219833 -2.14023 8.070155 0 8.070155 
z
" style="stroke: #000000"/>
    </defs>
    <g clip-path="url(#p1c5a22c573)">
     <use xlink:href="#m97d7ae71d0" x="353.999377" y="253.55237" style="stroke: #000000"/>
    </g>
   </g>
   <g id="line2d_6">
    <defs>
     <path id="m00978e62ae" d="M 0 7.930362 
C 2.103156 7.930362 4.120456 7.094769 5.607612 5.607612 
C 7.094769 4.120456 7.930362 2.103156 7.930362 0 
C 7.930362 -2.103156 7.094769 -4.120456 5.607612 -5.607612 
C 4.120456 -7.094769 2.103156 -7.930362 0 -7.930362 
C -2.103156 -7.930362 -4.120456 -7.094769 -5.607612 -5.607612 
C -7.094769 -4.120456 -7.930362 -2.103156 -7.930362 0 
C -7.930362 2.103156 -7.094769 4.120456 -5.607612 5.607612 
C -4.120456 7.094769 -2.103156 7.930362 0 7.930362 
z
" style="stroke: #000000"/>
    </defs>
    <g clip-path="url(#p1c5a22c573)">
     <use xlink:href="#m00978e62ae" x="445.926379" y="249.067348" style="stroke: #000000"/>
    </g>
   </g>
   <g id="line2d_7">
    <defs>
     <path id="m4088e6a087" d="M 0 7.91906 
C 2.100159 7.91906 4.114584 7.084658 5.599621 5.599621 
C 7.084658 4.114584 7.91906 2.100159 7.91906 0 
C 7.91906 -2.100159 7.084658 -4.114584 5.599621 -5.599621 
C 4.114584 -7.084658 2.100159 -7.91906 0 -7.91906 
C -2.100159 -7.91906 -4.114584 -7.084658 -5.599621 -5.599621 
C -7.084658 -4.114584 -7.91906 -2.100159 -7.91906 0 
C -7.91906 2.100159 -7.084658 4.114584 -5.599621 5.599621 
C -4.114584 7.084658 -2.100159 7.91906 0 7.91906 
z
" style="stroke: #000000"/>
    </defs>
    <g clip-path="url(#p1c5a22c573)">
     <use xlink:href="#m4088e6a087" x="373.173566" y="152.112103" style="stroke: #000000"/>
    </g>
   </g>
   <g id="line2d_8">
    <defs>
     <path id="m46d944ef00" d="M 0 7.831904 
C 2.077045 7.831904 4.0693 7.006685 5.537993 5.537993 
C 7.006685 4.0693 7.831904 2.077045 7.831904 0 
C 7.831904 -2.077045 7.006685 -4.0693 5.537993 -5.537993 
C 4.0693 -7.006685 2.077045 -7.831904 0 -7.831904 
C -2.077045 -7.831904 -4.0693 -7.006685 -5.537993 -5.537993 
C -7.006685 -4.0693 -7.831904 -2.077045 -7.831904 0 
C -7.831904 2.077045 -7.006685 4.0693 -5.537993 5.537993 
C -4.0693 7.006685 -2.077045 7.831904 0 7.831904 
z
" style="stroke: #000000"/>
    </defs>
    <g clip-path="url(#p1c5a22c573)">
     <use xlink:href="#m46d944ef00" x="533.483593" y="215.302636" style="stroke: #000000"/>
    </g>
   </g>
   <g id="line2d_9">
    <defs>
     <path id="m1682d43c87" d="M 0 7.812012 
C 2.07177 7.812012 4.058964 6.988889 5.523927 5.523927 
C 6.988889 4.058964 7.812012 2.07177 7.812012 0 
C 7.812012 -2.07177 6.988889 -4.058964 5.523927 -5.523927 
C 4.058964 -6.988889 2.07177 -7.812012 0 -7.812012 
C -2.07177 -7.812012 -4.058964 -6.988889 -5.523927 -5.523927 
C -6.988889 -4.058964 -7.812012 -2.07177 -7.812012 0 
C -7.812012 2.07177 -6.988889 4.058964 -5.523927 5.523927 
C -4.058964 6.988889 -2.07177 7.812012 0 7.812012 
z
" style="stroke: #000000"/>
    </defs>
    <g clip-path="url(#p1c5a22c573)">
     <use xlink:href="#m1682d43c87" x="204.516407" y="185.313366" style="stroke: #000000"/>
    </g>
   </g>
   <g id="line2d_10">
    <defs>
     <path id="ma9f572a7a0" d="M 0 7.789702 
C 2.065853 7.789702 4.047372 6.96893 5.508151 5.508151 
C 6.96893 4.047372 7.789702 2.065853 7.789702 0 
C 7.789702 -2.065853 6.96893 -4.047372 5.508151 -5.508151 
C 4.047372 -6.96893 2.065853 -7.789702 0 -7.789702 
C -2.065853 -7.789702 -4.047372 -6.96893 -5.508151 -5.508151 
C -6.96893 -4.047372 -7.789702 -2.065853 -7.789702 0 
C -7.789702 2.065853 -6.96893 4.047372 -5.508151 5.508151 
C -4.047372 6.96893 -2.065853 7.789702 0 7.789702 
z
" style="stroke: #000000"/>
    </defs>
    <g clip-path="url(#p1c5a22c573)">
     <use xlink:href="#ma9f572a7a0" x="204.613823" y="140.500273" style="stroke: #000000"/>
    </g>
   </g>
  </g>
 </g>
 <defs>
  <clipPath id="p1c5a22c573">
   <path d="M 188.068048 320.4 
L 188.068048 43.2 
L 549.931952 43.2 
L 549.931952 320.4 
L 188.068048 320.4 
"/>
  </clipPath>
 </defs>
</svg>
