<?xml version="1.0" encoding="utf-8" standalone="no"?>
<!DOCTYPE svg PUBLIC "-//W3C//DTD SVG 1.1//EN"
  "http://www.w3.org/Graphics/SVG/1.1/DTD/svg11.dtd">
<svg xmlns:xlink="http://www.w3.org/1999/xlink" width="720pt" height="360pt" viewBox="0 0 720 360" xmlns="http://www.w3.org/2000/svg" version="1.1">
 <metadata>
  <rdf:RDF xmlns:dc="http://purl.org/dc/elements/1.1/" xmlns:cc="http://creativecommons.org/ns#" xmlns:rdf="http://www.w3.org/1999/02/22-rdf-syntax-ns#">
   <cc:Work>
    <dc:type rdf:resource="http://purl.org/dc/dcmitype/StillImage"/>
    <dc:date>2023-11-30T21:30:47.651021</dc:date>
    <dc:format>image/svg+xml</dc:format>
    <dc:creator>
     <cc:Agent>
      <dc:title>Matplotlib v3.8.1, https://matplotlib.org/</dc:title>
     </cc:Agent>
    </dc:creator>
   </cc:Work>
  </rdf:RDF>
 </metadata>
 <defs>
  <style type="text/css">*{stroke-linejoin: round; stroke-linecap: butt}</style>
 </defs>
 <g id="figure_1">
  <g id="patch_1">
   <path d="M 0 360 
L 720 360 
L 720 0 
L 0 0 
z
" style="fill: #ffffff"/>
  </g>
  <g id="axes_1">
   <g id="patch_2">
    <path d="M 90 315.32104 
L 90 48.27896 
L 648 48.27896 
L 648 315.32104 
L 90 315.32104 
" style="fill: #ffffff"/>
   </g>
   <g id="line2d_1">
    <defs>
     <path id="mfcc5785795" d="M 0 10.442865 
C 2.76948 10.442865 5.425902 9.342538 7.38422 7.38422 
C 9.342538 5.425902 10.442865 2.76948 10.442865 0 
C 10.442865 -2.76948 9.342538 -5.425902 7.38422 -7.38422 
C 5.425902 -9.342538 2.76948 -10.442865 0 -10.442865 
C -2.76948 -10.442865 -5.425902 -9.342538 -7.38422 -7.38422 
C -9.342538 -5.425902 -10.442865 -2.76948 -10.442865 0 
C -10.442865 2.76948 -9.342538 5.425902 -7.38422 7.38422 
C -5.425902 9.342538 -2.76948 10.442865 0 10.442865 
z
" style="stroke: #000000"/>
    </defs>
    <g clip-path="url(#p73f800e319)">
     <use xlink:href="#mfcc5785795" x="218.315074" y="86.252666" style="stroke: #000000"/>
    </g>
   </g>
   <g id="line2d_2">
    <defs>
     <path id="m67c5b5b299" d="M 0 9.859501 
C 2.61477 9.859501 5.122798 8.820642 6.97172 6.97172 
C 8.820642 5.122798 9.859501 2.61477 9.859501 0 
C 9.859501 -2.61477 8.820642 -5.122798 6.97172 -6.97172 
C 5.122798 -8.820642 2.61477 -9.859501 0 -9.859501 
C -2.61477 -9.859501 -5.122798 -8.820642 -6.97172 -6.97172 
C -8.820642 -5.122798 -9.859501 -2.61477 -9.859501 0 
C -9.859501 2.61477 -8.820642 5.122798 -6.97172 6.97172 
C -5.122798 8.820642 -2.61477 9.859501 0 9.859501 
z
" style="stroke: #000000"/>
    </defs>
    <g clip-path="url(#p73f800e319)">
     <use xlink:href="#m67c5b5b299" x="286.557452" y="303.182763" style="stroke: #000000"/>
    </g>
   </g>
   <g id="line2d_3">
    <defs>
     <path id="m79874b4258" d="M 0 9.618474 
C 2.550849 9.618474 4.997566 8.605011 6.801288 6.801288 
C 8.605011 4.997566 9.618474 2.550849 9.618474 0 
C 9.618474 -2.550849 8.605011 -4.997566 6.801288 -6.801288 
C 4.997566 -8.605011 2.550849 -9.618474 0 -9.618474 
C -2.550849 -9.618474 -4.997566 -8.605011 -6.801288 -6.801288 
C -8.605011 -4.997566 -9.618474 -2.550849 -9.618474 0 
C -9.618474 2.550849 -8.605011 4.997566 -6.801288 6.801288 
C -4.997566 8.605011 -2.550849 9.618474 0 9.618474 
z
" style="stroke: #000000"/>
    </defs>
    <g clip-path="url(#p73f800e319)">
     <use xlink:href="#m79874b4258" x="115.363636" y="133.377976" style="stroke: #000000"/>
    </g>
   </g>
   <g id="line2d_4">
    <defs>
     <path id="mde8c07fc66" d="M 0 9.615375 
C 2.550027 9.615375 4.995955 8.602238 6.799097 6.799097 
C 8.602238 4.995955 9.615375 2.550027 9.615375 0 
C 9.615375 -2.550027 8.602238 -4.995955 6.799097 -6.799097 
C 4.995955 -8.602238 2.550027 -9.615375 0 -9.615375 
C -2.550027 -9.615375 -4.995955 -8.602238 -6.799097 -6.799097 
C -8.602238 -4.995955 -9.615375 -2.550027 -9.615375 0 
C -9.615375 2.550027 -8.602238 4.995955 -6.799097 6.799097 
C -4.995955 8.602238 -2.550027 9.615375 0 9.615375 
z
" style="stroke: #000000"/>
    </defs>
    <g clip-path="url(#p73f800e319)">
     <use xlink:href="#mde8c07fc66" x="203.041937" y="236.049171" style="stroke: #000000"/>
    </g>
   </g>
   <g id="line2d_5">
    <defs>
     <path id="m6c7c4d4c67" d="M 0 9.555223 
C 2.534075 9.555223 4.964701 8.548424 6.756563 6.756563 
C 8.548424 4.964701 9.555223 2.534075 9.555223 0 
C 9.555223 -2.534075 8.548424 -4.964701 6.756563 -6.756563 
C 4.964701 -8.548424 2.534075 -9.555223 0 -9.555223 
C -2.534075 -9.555223 -4.964701 -8.548424 -6.756563 -6.756563 
C -8.548424 -4.964701 -9.555223 -2.534075 -9.555223 0 
C -9.555223 2.534075 -8.548424 4.964701 -6.756563 6.756563 
C -4.964701 8.548424 -2.534075 9.555223 0 9.555223 
z
" style="stroke: #000000"/>
    </defs>
    <g clip-path="url(#p73f800e319)">
     <use xlink:href="#m6c7c4d4c67" x="622.636364" y="154.942591" style="stroke: #000000"/>
    </g>
   </g>
   <g id="line2d_6">
    <defs>
     <path id="m3eda34c6bb" d="M 0 8.920653 
C 2.365785 8.920653 4.634992 7.980717 6.307854 6.307854 
C 7.980717 4.634992 8.920653 2.365785 8.920653 0 
C 8.920653 -2.365785 7.980717 -4.634992 6.307854 -6.307854 
C 4.634992 -7.980717 2.365785 -8.920653 0 -8.920653 
C -2.365785 -8.920653 -4.634992 -7.980717 -6.307854 -6.307854 
C -7.980717 -4.634992 -8.920653 -2.365785 -8.920653 0 
C -8.920653 2.365785 -7.980717 4.634992 -6.307854 6.307854 
C -4.634992 7.980717 -2.365785 8.920653 0 8.920653 
z
" style="stroke: #000000"/>
    </defs>
    <g clip-path="url(#p73f800e319)">
     <use xlink:href="#m3eda34c6bb" x="216.396066" y="203.482404" style="stroke: #000000"/>
    </g>
   </g>
   <g id="line2d_7">
    <defs>
     <path id="m5a8f023f7b" d="M 0 8.644374 
C 2.292515 8.644374 4.491443 7.733549 6.112496 6.112496 
C 7.733549 4.491443 8.644374 2.292515 8.644374 0 
C 8.644374 -2.292515 7.733549 -4.491443 6.112496 -6.112496 
C 4.491443 -7.733549 2.292515 -8.644374 0 -8.644374 
C -2.292515 -8.644374 -4.491443 -7.733549 -6.112496 -6.112496 
C -7.733549 -4.491443 -8.644374 -2.292515 -8.644374 0 
C -8.644374 2.292515 -7.733549 4.491443 -6.112496 6.112496 
C -4.491443 7.733549 -2.292515 8.644374 0 8.644374 
z
" style="stroke: #000000"/>
    </defs>
    <g clip-path="url(#p73f800e319)">
     <use xlink:href="#m5a8f023f7b" x="234.633225" y="154.920645" style="stroke: #000000"/>
    </g>
   </g>
   <g id="line2d_8">
    <defs>
     <path id="m315c2d2549" d="M 0 8.235147 
C 2.183986 8.235147 4.278816 7.36744 5.823128 5.823128 
C 7.36744 4.278816 8.235147 2.183986 8.235147 0 
C 8.235147 -2.183986 7.36744 -4.278816 5.823128 -5.823128 
C 4.278816 -7.36744 2.183986 -8.235147 0 -8.235147 
C -2.183986 -8.235147 -4.278816 -7.36744 -5.823128 -5.823128 
C -7.36744 -4.278816 -8.235147 -2.183986 -8.235147 0 
C -8.235147 2.183986 -7.36744 4.278816 -5.823128 5.823128 
C -4.278816 7.36744 -2.183986 8.235147 0 8.235147 
z
" style="stroke: #000000"/>
    </defs>
    <g clip-path="url(#p73f800e319)">
     <use xlink:href="#m315c2d2549" x="196.706084" y="60.417237" style="stroke: #000000"/>
    </g>
   </g>
   <g id="line2d_9">
    <defs>
     <path id="m85c2d518fe" d="M 0 8.041376 
C 2.132598 8.041376 4.178137 7.194086 5.686111 5.686111 
C 7.194086 4.178137 8.041376 2.132598 8.041376 0 
C 8.041376 -2.132598 7.194086 -4.178137 5.686111 -5.686111 
C 4.178137 -7.194086 2.132598 -8.041376 0 -8.041376 
C -2.132598 -8.041376 -4.178137 -7.194086 -5.686111 -5.686111 
C -7.194086 -4.178137 -8.041376 -2.132598 -8.041376 0 
C -8.041376 2.132598 -7.194086 4.178137 -5.686111 5.686111 
C -4.178137 7.194086 -2.132598 8.041376 0 8.041376 
z
" style="stroke: #000000"/>
    </defs>
    <g clip-path="url(#p73f800e319)">
     <use xlink:href="#m85c2d518fe" x="227.996448" y="101.747571" style="stroke: #000000"/>
    </g>
   </g>
   <g id="line2d_10">
    <defs>
     <path id="m41f8f5b0bc" d="M 0 7.841264 
C 2.079528 7.841264 4.074163 7.015059 5.544611 5.544611 
C 7.015059 4.074163 7.841264 2.079528 7.841264 0 
C 7.841264 -2.079528 7.015059 -4.074163 5.544611 -5.544611 
C 4.074163 -7.015059 2.079528 -7.841264 0 -7.841264 
C -2.079528 -7.841264 -4.074163 -7.015059 -5.544611 -5.544611 
C -7.015059 -4.074163 -7.841264 -2.079528 -7.841264 0 
C -7.841264 2.079528 -7.015059 4.074163 -5.544611 5.544611 
C -4.074163 7.015059 -2.079528 7.841264 0 7.841264 
z
" style="stroke: #000000"/>
    </defs>
    <g clip-path="url(#p73f800e319)">
     <use xlink:href="#m41f8f5b0bc" x="145.017005" y="184.241134" style="stroke: #000000"/>
    </g>
   </g>
  </g>
 </g>
 <defs>
  <clipPath id="p73f800e319">
   <path d="M 90 315.32104 
L 90 48.27896 
L 648 48.27896 
L 648 315.32104 
L 90 315.32104 
"/>
  </clipPath>
 </defs>
</svg>
