<?xml version="1.0" encoding="utf-8" standalone="no"?>
<!DOCTYPE svg PUBLIC "-//W3C//DTD SVG 1.1//EN"
  "http://www.w3.org/Graphics/SVG/1.1/DTD/svg11.dtd">
<svg xmlns:xlink="http://www.w3.org/1999/xlink" width="720pt" height="360pt" viewBox="0 0 720 360" xmlns="http://www.w3.org/2000/svg" version="1.1">
 <metadata>
  <rdf:RDF xmlns:dc="http://purl.org/dc/elements/1.1/" xmlns:cc="http://creativecommons.org/ns#" xmlns:rdf="http://www.w3.org/1999/02/22-rdf-syntax-ns#">
   <cc:Work>
    <dc:type rdf:resource="http://purl.org/dc/dcmitype/StillImage"/>
    <dc:date>2023-11-30T21:30:53.505495</dc:date>
    <dc:format>image/svg+xml</dc:format>
    <dc:creator>
     <cc:Agent>
      <dc:title>Matplotlib v3.8.1, https://matplotlib.org/</dc:title>
     </cc:Agent>
    </dc:creator>
   </cc:Work>
  </rdf:RDF>
 </metadata>
 <defs>
  <style type="text/css">*{stroke-linejoin: round; stroke-linecap: butt}</style>
 </defs>
 <g id="figure_1">
  <g id="patch_1">
   <path d="M 0 360 
L 720 360 
L 720 0 
L 0 0 
z
" style="fill: #ffffff"/>
  </g>
  <g id="axes_1">
   <g id="patch_2">
    <path d="M 179.075742 320.4 
L 179.075742 43.2 
L 558.924258 43.2 
L 558.924258 320.4 
L 179.075742 320.4 
" style="fill: #ffffff"/>
   </g>
   <g id="line2d_1">
    <defs>
     <path id="m326282e851" d="M 0 7.871365 
C 2.08751 7.871365 4.089803 7.041989 5.565896 5.565896 
C 7.041989 4.089803 7.871365 2.08751 7.871365 0 
C 7.871365 -2.08751 7.041989 -4.089803 5.565896 -5.565896 
C 4.089803 -7.041989 2.08751 -7.871365 0 -7.871365 
C -2.08751 -7.871365 -4.089803 -7.041989 -5.565896 -5.565896 
C -7.041989 -4.089803 -7.871365 -2.08751 -7.871365 0 
C -7.871365 2.08751 -7.041989 4.089803 -5.565896 5.565896 
C -4.089803 7.041989 -2.08751 7.871365 0 7.871365 
z
" style="stroke: #000000"/>
    </defs>
    <g clip-path="url(#pe75c276a56)">
     <use xlink:href="#m326282e851" x="458.627473" y="193.743323" style="stroke: #000000"/>
    </g>
   </g>
   <g id="line2d_2">
    <defs>
     <path id="m49c9da1ccb" d="M 0 7.072608 
C 1.875678 7.072608 3.674785 6.327393 5.001089 5.001089 
C 6.327393 3.674785 7.072608 1.875678 7.072608 0 
C 7.072608 -1.875678 6.327393 -3.674785 5.001089 -5.001089 
C 3.674785 -6.327393 1.875678 -7.072608 0 -7.072608 
C -1.875678 -7.072608 -3.674785 -6.327393 -5.001089 -5.001089 
C -6.327393 -3.674785 -7.072608 -1.875678 -7.072608 0 
C -7.072608 1.875678 -6.327393 3.674785 -5.001089 5.001089 
C -3.674785 6.327393 -1.875678 7.072608 0 7.072608 
z
" style="stroke: #000000"/>
    </defs>
    <g clip-path="url(#pe75c276a56)">
     <use xlink:href="#m49c9da1ccb" x="418.244241" y="112.279048" style="stroke: #000000"/>
    </g>
   </g>
   <g id="line2d_3">
    <defs>
     <path id="m467289e1ba" d="M 0 6.952505 
C 1.843826 6.952505 3.612382 6.219946 4.916164 4.916164 
C 6.219946 3.612382 6.952505 1.843826 6.952505 0 
C 6.952505 -1.843826 6.219946 -3.612382 4.916164 -4.916164 
C 3.612382 -6.219946 1.843826 -6.952505 0 -6.952505 
C -1.843826 -6.952505 -3.612382 -6.219946 -4.916164 -4.916164 
C -6.219946 -3.612382 -6.952505 -1.843826 -6.952505 0 
C -6.952505 1.843826 -6.219946 3.612382 -4.916164 4.916164 
C -3.612382 6.219946 -1.843826 6.952505 0 6.952505 
z
" style="stroke: #000000"/>
    </defs>
    <g clip-path="url(#pe75c276a56)">
     <use xlink:href="#m467289e1ba" x="504.819589" y="195.498833" style="stroke: #000000"/>
    </g>
   </g>
   <g id="line2d_4">
    <defs>
     <path id="m6e6fb7f3d7" d="M 0 6.654027 
C 1.764669 6.654027 3.457299 5.952917 4.705108 4.705108 
C 5.952917 3.457299 6.654027 1.764669 6.654027 0 
C 6.654027 -1.764669 5.952917 -3.457299 4.705108 -4.705108 
C 3.457299 -5.952917 1.764669 -6.654027 0 -6.654027 
C -1.764669 -6.654027 -3.457299 -5.952917 -4.705108 -4.705108 
C -5.952917 -3.457299 -6.654027 -1.764669 -6.654027 0 
C -6.654027 1.764669 -5.952917 3.457299 -4.705108 4.705108 
C -3.457299 5.952917 -1.764669 6.654027 0 6.654027 
z
" style="stroke: #000000"/>
    </defs>
    <g clip-path="url(#pe75c276a56)">
     <use xlink:href="#m6e6fb7f3d7" x="385.737463" y="296.177194" style="stroke: #000000"/>
    </g>
   </g>
   <g id="line2d_5">
    <defs>
     <path id="m42c1a906c7" d="M 0 6.631708 
C 1.75875 6.631708 3.445702 5.932949 4.689326 4.689326 
C 5.932949 3.445702 6.631708 1.75875 6.631708 0 
C 6.631708 -1.75875 5.932949 -3.445702 4.689326 -4.689326 
C 3.445702 -5.932949 1.75875 -6.631708 0 -6.631708 
C -1.75875 -6.631708 -3.445702 -5.932949 -4.689326 -4.689326 
C -5.932949 -3.445702 -6.631708 -1.75875 -6.631708 0 
C -6.631708 1.75875 -5.932949 3.445702 -4.689326 4.689326 
C -3.445702 5.932949 -1.75875 6.631708 0 6.631708 
z
" style="stroke: #000000"/>
    </defs>
    <g clip-path="url(#pe75c276a56)">
     <use xlink:href="#m42c1a906c7" x="250.672701" y="307.8" style="stroke: #000000"/>
    </g>
   </g>
   <g id="line2d_6">
    <defs>
     <path id="m1839ed9d49" d="M 0 6.574079 
C 1.743466 6.574079 3.415759 5.881393 4.648576 4.648576 
C 5.881393 3.415759 6.574079 1.743466 6.574079 0 
C 6.574079 -1.743466 5.881393 -3.415759 4.648576 -4.648576 
C 3.415759 -5.881393 1.743466 -6.574079 0 -6.574079 
C -1.743466 -6.574079 -3.415759 -5.881393 -4.648576 -4.648576 
C -5.881393 -3.415759 -6.574079 -1.743466 -6.574079 0 
C -6.574079 1.743466 -5.881393 3.415759 -4.648576 4.648576 
C -3.415759 5.881393 -1.743466 6.574079 0 6.574079 
z
" style="stroke: #000000"/>
    </defs>
    <g clip-path="url(#pe75c276a56)">
     <use xlink:href="#m1839ed9d49" x="541.658416" y="217.819537" style="stroke: #000000"/>
    </g>
   </g>
   <g id="line2d_7">
    <defs>
     <path id="mc17265549d" d="M 0 6.472081 
C 1.716416 6.472081 3.362763 5.790142 4.576453 4.576453 
C 5.790142 3.362763 6.472081 1.716416 6.472081 0 
C 6.472081 -1.716416 5.790142 -3.362763 4.576453 -4.576453 
C 3.362763 -5.790142 1.716416 -6.472081 0 -6.472081 
C -1.716416 -6.472081 -3.362763 -5.790142 -4.576453 -4.576453 
C -5.790142 -3.362763 -6.472081 -1.716416 -6.472081 0 
C -6.472081 1.716416 -5.790142 3.362763 -4.576453 4.576453 
C -3.362763 5.790142 -1.716416 6.472081 0 6.472081 
z
" style="stroke: #000000"/>
    </defs>
    <g clip-path="url(#pe75c276a56)">
     <use xlink:href="#mc17265549d" x="283.917897" y="63.454897" style="stroke: #000000"/>
    </g>
   </g>
   <g id="line2d_8">
    <defs>
     <path id="m2ab226872d" d="M 0 6.45766 
C 1.712591 6.45766 3.35527 5.77724 4.566255 4.566255 
C 5.77724 3.35527 6.45766 1.712591 6.45766 0 
C 6.45766 -1.712591 5.77724 -3.35527 4.566255 -4.566255 
C 3.35527 -5.77724 1.712591 -6.45766 0 -6.45766 
C -1.712591 -6.45766 -3.35527 -5.77724 -4.566255 -4.566255 
C -5.77724 -3.35527 -6.45766 -1.712591 -6.45766 0 
C -6.45766 1.712591 -5.77724 3.35527 -4.566255 4.566255 
C -3.35527 5.77724 -1.712591 6.45766 0 6.45766 
z
" style="stroke: #000000"/>
    </defs>
    <g clip-path="url(#pe75c276a56)">
     <use xlink:href="#m2ab226872d" x="196.341584" y="55.8" style="stroke: #000000"/>
    </g>
   </g>
   <g id="line2d_9">
    <defs>
     <path id="m3002a51962" d="M 0 6.446177 
C 1.709546 6.446177 3.349304 5.766967 4.558135 4.558135 
C 5.766967 3.349304 6.446177 1.709546 6.446177 0 
C 6.446177 -1.709546 5.766967 -3.349304 4.558135 -4.558135 
C 3.349304 -5.766967 1.709546 -6.446177 0 -6.446177 
C -1.709546 -6.446177 -3.349304 -5.766967 -4.558135 -4.558135 
C -5.766967 -3.349304 -6.446177 -1.709546 -6.446177 0 
C -6.446177 1.709546 -5.766967 3.349304 -4.558135 4.558135 
C -3.349304 5.766967 -1.709546 6.446177 0 6.446177 
z
" style="stroke: #000000"/>
    </defs>
    <g clip-path="url(#pe75c276a56)">
     <use xlink:href="#m3002a51962" x="251.870578" y="201.902329" style="stroke: #000000"/>
    </g>
   </g>
   <g id="line2d_10">
    <defs>
     <path id="mc9eb49e5e5" d="M 0 6.414167 
C 1.701057 6.414167 3.332672 5.73833 4.535501 4.535501 
C 5.73833 3.332672 6.414167 1.701057 6.414167 0 
C 6.414167 -1.701057 5.73833 -3.332672 4.535501 -4.535501 
C 3.332672 -5.73833 1.701057 -6.414167 0 -6.414167 
C -1.701057 -6.414167 -3.332672 -5.73833 -4.535501 -4.535501 
C -5.73833 -3.332672 -6.414167 -1.701057 -6.414167 0 
C -6.414167 1.701057 -5.73833 3.332672 -4.535501 4.535501 
C -3.332672 5.73833 -1.701057 6.414167 0 6.414167 
z
" style="stroke: #000000"/>
    </defs>
    <g clip-path="url(#pe75c276a56)">
     <use xlink:href="#mc9eb49e5e5" x="306.5627" y="300.843001" style="stroke: #000000"/>
    </g>
   </g>
  </g>
 </g>
 <defs>
  <clipPath id="pe75c276a56">
   <path d="M 179.075742 320.4 
L 179.075742 43.2 
L 558.924258 43.2 
L 558.924258 320.4 
L 179.075742 320.4 
"/>
  </clipPath>
 </defs>
</svg>
