<?xml version="1.0" encoding="utf-8" standalone="no"?>
<!DOCTYPE svg PUBLIC "-//W3C//DTD SVG 1.1//EN"
  "http://www.w3.org/Graphics/SVG/1.1/DTD/svg11.dtd">
<svg xmlns:xlink="http://www.w3.org/1999/xlink" width="720pt" height="360pt" viewBox="0 0 720 360" xmlns="http://www.w3.org/2000/svg" version="1.1">
 <metadata>
  <rdf:RDF xmlns:dc="http://purl.org/dc/elements/1.1/" xmlns:cc="http://creativecommons.org/ns#" xmlns:rdf="http://www.w3.org/1999/02/22-rdf-syntax-ns#">
   <cc:Work>
    <dc:type rdf:resource="http://purl.org/dc/dcmitype/StillImage"/>
    <dc:date>2023-11-30T21:30:47.693671</dc:date>
    <dc:format>image/svg+xml</dc:format>
    <dc:creator>
     <cc:Agent>
      <dc:title>Matplotlib v3.8.1, https://matplotlib.org/</dc:title>
     </cc:Agent>
    </dc:creator>
   </cc:Work>
  </rdf:RDF>
 </metadata>
 <defs>
  <style type="text/css">*{stroke-linejoin: round; stroke-linecap: butt}</style>
 </defs>
 <g id="figure_1">
  <g id="patch_1">
   <path d="M 0 360 
L 720 360 
L 720 0 
L 0 0 
z
" style="fill: #ffffff"/>
  </g>
  <g id="axes_1">
   <g id="patch_2">
    <path d="M 183.897588 320.4 
L 183.897588 43.2 
L 554.102412 43.2 
L 554.102412 320.4 
L 183.897588 320.4 
" style="fill: #ffffff"/>
   </g>
   <g id="line2d_1">
    <defs>
     <path id="m2413080f75" d="M 0 11.213008 
C 2.973725 11.213008 5.826053 10.031535 7.928794 7.928794 
C 10.031535 5.826053 11.213008 2.973725 11.213008 0 
C 11.213008 -2.973725 10.031535 -5.826053 7.928794 -7.928794 
C 5.826053 -10.031535 2.973725 -11.213008 0 -11.213008 
C -2.973725 -11.213008 -5.826053 -10.031535 -7.928794 -7.928794 
C -10.031535 -5.826053 -11.213008 -2.973725 -11.213008 0 
C -11.213008 2.973725 -10.031535 5.826053 -7.928794 7.928794 
C -5.826053 10.031535 -2.973725 11.213008 0 11.213008 
z
" style="stroke: #000000"/>
    </defs>
    <g clip-path="url(#p4c5b802c99)">
     <use xlink:href="#m2413080f75" x="457.567265" y="69.310244" style="stroke: #000000"/>
    </g>
   </g>
   <g id="line2d_2">
    <defs>
     <path id="mbb6048bb15" d="M 0 11.083648 
C 2.939418 11.083648 5.75884 9.915805 7.837323 7.837323 
C 9.915805 5.75884 11.083648 2.939418 11.083648 0 
C 11.083648 -2.939418 9.915805 -5.75884 7.837323 -7.837323 
C 5.75884 -9.915805 2.939418 -11.083648 0 -11.083648 
C -2.939418 -11.083648 -5.75884 -9.915805 -7.837323 -7.837323 
C -9.915805 -5.75884 -11.083648 -2.939418 -11.083648 0 
C -11.083648 2.939418 -9.915805 5.75884 -7.837323 7.837323 
C -5.75884 9.915805 -2.939418 11.083648 0 11.083648 
z
" style="stroke: #000000"/>
    </defs>
    <g clip-path="url(#p4c5b802c99)">
     <use xlink:href="#mbb6048bb15" x="200.72508" y="306.67083" style="stroke: #000000"/>
    </g>
   </g>
   <g id="line2d_3">
    <defs>
     <path id="m9b9ffc4540" d="M 0 10.786623 
C 2.860646 10.786623 5.604512 9.650076 7.627294 7.627294 
C 9.650076 5.604512 10.786623 2.860646 10.786623 0 
C 10.786623 -2.860646 9.650076 -5.604512 7.627294 -7.627294 
C 5.604512 -9.650076 2.860646 -10.786623 0 -10.786623 
C -2.860646 -10.786623 -5.604512 -9.650076 -7.627294 -7.627294 
C -9.650076 -5.604512 -10.786623 -2.860646 -10.786623 0 
C -10.786623 2.860646 -9.650076 5.604512 -7.627294 7.627294 
C -5.604512 9.650076 -2.860646 10.786623 0 10.786623 
z
" style="stroke: #000000"/>
    </defs>
    <g clip-path="url(#p4c5b802c99)">
     <use xlink:href="#m9b9ffc4540" x="537.27492" y="179.328126" style="stroke: #000000"/>
    </g>
   </g>
   <g id="line2d_4">
    <defs>
     <path id="mb7bbad1a86" d="M 0 10.346447 
C 2.74391 10.346447 5.375806 9.25628 7.316043 7.316043 
C 9.25628 5.375806 10.346447 2.74391 10.346447 0 
C 10.346447 -2.74391 9.25628 -5.375806 7.316043 -7.316043 
C 5.375806 -9.25628 2.74391 -10.346447 0 -10.346447 
C -2.74391 -10.346447 -5.375806 -9.25628 -7.316043 -7.316043 
C -9.25628 -5.375806 -10.346447 -2.74391 -10.346447 0 
C -10.346447 2.74391 -9.25628 5.375806 -7.316043 7.316043 
C -5.375806 9.25628 -2.74391 10.346447 0 10.346447 
z
" style="stroke: #000000"/>
    </defs>
    <g clip-path="url(#p4c5b802c99)">
     <use xlink:href="#mb7bbad1a86" x="452.624465" y="71.250432" style="stroke: #000000"/>
    </g>
   </g>
   <g id="line2d_5">
    <defs>
     <path id="m74c5ae3bf6" d="M 0 10.313531 
C 2.73518 10.313531 5.358703 9.226833 7.292768 7.292768 
C 9.226833 5.358703 10.313531 2.73518 10.313531 0 
C 10.313531 -2.73518 9.226833 -5.358703 7.292768 -7.292768 
C 5.358703 -9.226833 2.73518 -10.313531 0 -10.313531 
C -2.73518 -10.313531 -5.358703 -9.226833 -7.292768 -7.292768 
C -9.226833 -5.358703 -10.313531 -2.73518 -10.313531 0 
C -10.313531 2.73518 -9.226833 5.358703 -7.292768 7.292768 
C -5.358703 9.226833 -2.73518 10.313531 0 10.313531 
z
" style="stroke: #000000"/>
    </defs>
    <g clip-path="url(#p4c5b802c99)">
     <use xlink:href="#m74c5ae3bf6" x="461.417064" y="55.8" style="stroke: #000000"/>
    </g>
   </g>
   <g id="line2d_6">
    <defs>
     <path id="m2cd5dfe7a3" d="M 0 9.942084 
C 2.636671 9.942084 5.165707 8.894523 7.030115 7.030115 
C 8.894523 5.165707 9.942084 2.636671 9.942084 0 
C 9.942084 -2.636671 8.894523 -5.165707 7.030115 -7.030115 
C 5.165707 -8.894523 2.636671 -9.942084 0 -9.942084 
C -2.636671 -9.942084 -5.165707 -8.894523 -7.030115 -7.030115 
C -8.894523 -5.165707 -9.942084 -2.636671 -9.942084 0 
C -9.942084 2.636671 -8.894523 5.165707 -7.030115 7.030115 
C -5.165707 8.894523 -2.636671 9.942084 0 9.942084 
z
" style="stroke: #000000"/>
    </defs>
    <g clip-path="url(#p4c5b802c99)">
     <use xlink:href="#m2cd5dfe7a3" x="392.726988" y="307.8" style="stroke: #000000"/>
    </g>
   </g>
   <g id="line2d_7">
    <defs>
     <path id="m26829b29d9" d="M 0 9.759079 
C 2.588138 9.759079 5.070621 8.730801 6.900711 6.900711 
C 8.730801 5.070621 9.759079 2.588138 9.759079 0 
C 9.759079 -2.588138 8.730801 -5.070621 6.900711 -6.900711 
C 5.070621 -8.730801 2.588138 -9.759079 0 -9.759079 
C -2.588138 -9.759079 -5.070621 -8.730801 -6.900711 -6.900711 
C -8.730801 -5.070621 -9.759079 -2.588138 -9.759079 0 
C -9.759079 2.588138 -8.730801 5.070621 -6.900711 6.900711 
C -5.070621 8.730801 -2.588138 9.759079 0 9.759079 
z
" style="stroke: #000000"/>
    </defs>
    <g clip-path="url(#p4c5b802c99)">
     <use xlink:href="#m26829b29d9" x="520.284012" y="171.952255" style="stroke: #000000"/>
    </g>
   </g>
   <g id="line2d_8">
    <defs>
     <path id="mdddb100450" d="M 0 9.603699 
C 2.546931 9.603699 4.989889 8.591793 6.790841 6.790841 
C 8.591793 4.989889 9.603699 2.546931 9.603699 0 
C 9.603699 -2.546931 8.591793 -4.989889 6.790841 -6.790841 
C 4.989889 -8.591793 2.546931 -9.603699 0 -9.603699 
C -2.546931 -9.603699 -4.989889 -8.591793 -6.790841 -6.790841 
C -8.591793 -4.989889 -9.603699 -2.546931 -9.603699 0 
C -9.603699 2.546931 -8.591793 4.989889 -6.790841 6.790841 
C -4.989889 8.591793 -2.546931 9.603699 0 9.603699 
z
" style="stroke: #000000"/>
    </defs>
    <g clip-path="url(#p4c5b802c99)">
     <use xlink:href="#mdddb100450" x="464.966514" y="68.902157" style="stroke: #000000"/>
    </g>
   </g>
   <g id="line2d_9">
    <defs>
     <path id="m0ee62ede8e" d="M 0 9.542364 
C 2.530665 9.542364 4.95802 8.53692 6.74747 6.74747 
C 8.53692 4.95802 9.542364 2.530665 9.542364 0 
C 9.542364 -2.530665 8.53692 -4.95802 6.74747 -6.74747 
C 4.95802 -8.53692 2.530665 -9.542364 0 -9.542364 
C -2.530665 -9.542364 -4.95802 -8.53692 -6.74747 -6.74747 
C -8.53692 -4.95802 -9.542364 -2.530665 -9.542364 0 
C -9.542364 2.530665 -8.53692 4.95802 -6.74747 6.74747 
C -4.95802 8.53692 -2.530665 9.542364 0 9.542364 
z
" style="stroke: #000000"/>
    </defs>
    <g clip-path="url(#p4c5b802c99)">
     <use xlink:href="#m0ee62ede8e" x="408.720473" y="156.843217" style="stroke: #000000"/>
    </g>
   </g>
   <g id="line2d_10">
    <defs>
     <path id="mdb63bd9aa9" d="M 0 9.482407 
C 2.514764 9.482407 4.926868 8.483281 6.705075 6.705075 
C 8.483281 4.926868 9.482407 2.514764 9.482407 0 
C 9.482407 -2.514764 8.483281 -4.926868 6.705075 -6.705075 
C 4.926868 -8.483281 2.514764 -9.482407 0 -9.482407 
C -2.514764 -9.482407 -4.926868 -8.483281 -6.705075 -6.705075 
C -8.483281 -4.926868 -9.482407 -2.514764 -9.482407 0 
C -9.482407 2.514764 -8.483281 4.926868 -6.705075 6.705075 
C -4.926868 8.483281 -2.514764 9.482407 0 9.482407 
z
" style="stroke: #000000"/>
    </defs>
    <g clip-path="url(#p4c5b802c99)">
     <use xlink:href="#mdb63bd9aa9" x="462.457471" y="63.221828" style="stroke: #000000"/>
    </g>
   </g>
  </g>
 </g>
 <defs>
  <clipPath id="p4c5b802c99">
   <path d="M 183.897588 320.4 
L 183.897588 43.2 
L 554.102412 43.2 
L 554.102412 320.4 
L 183.897588 320.4 
"/>
  </clipPath>
 </defs>
</svg>
