<?xml version="1.0" encoding="utf-8" standalone="no"?>
<!DOCTYPE svg PUBLIC "-//W3C//DTD SVG 1.1//EN"
  "http://www.w3.org/Graphics/SVG/1.1/DTD/svg11.dtd">
<svg xmlns:xlink="http://www.w3.org/1999/xlink" width="720pt" height="360pt" viewBox="0 0 720 360" xmlns="http://www.w3.org/2000/svg" version="1.1">
 <metadata>
  <rdf:RDF xmlns:dc="http://purl.org/dc/elements/1.1/" xmlns:cc="http://creativecommons.org/ns#" xmlns:rdf="http://www.w3.org/1999/02/22-rdf-syntax-ns#">
   <cc:Work>
    <dc:type rdf:resource="http://purl.org/dc/dcmitype/StillImage"/>
    <dc:date>2023-11-30T21:30:47.741225</dc:date>
    <dc:format>image/svg+xml</dc:format>
    <dc:creator>
     <cc:Agent>
      <dc:title>Matplotlib v3.8.1, https://matplotlib.org/</dc:title>
     </cc:Agent>
    </dc:creator>
   </cc:Work>
  </rdf:RDF>
 </metadata>
 <defs>
  <style type="text/css">*{stroke-linejoin: round; stroke-linecap: butt}</style>
 </defs>
 <g id="figure_1">
  <g id="patch_1">
   <path d="M 0 360 
L 720 360 
L 720 0 
L 0 0 
z
" style="fill: #ffffff"/>
  </g>
  <g id="axes_1">
   <g id="patch_2">
    <path d="M 248.562102 320.4 
L 248.562102 43.2 
L 489.437898 43.2 
L 489.437898 320.4 
L 248.562102 320.4 
" style="fill: #ffffff"/>
   </g>
   <g id="line2d_1">
    <defs>
     <path id="m0e1235601d" d="M 0 10.136744 
C 2.688296 10.136744 5.266848 9.068672 7.16776 7.16776 
C 9.068672 5.266848 10.136744 2.688296 10.136744 0 
C 10.136744 -2.688296 9.068672 -5.266848 7.16776 -7.16776 
C 5.266848 -9.068672 2.688296 -10.136744 0 -10.136744 
C -2.688296 -10.136744 -5.266848 -9.068672 -7.16776 -7.16776 
C -9.068672 -5.266848 -10.136744 -2.688296 -10.136744 0 
C -10.136744 2.688296 -9.068672 5.266848 -7.16776 7.16776 
C -5.266848 9.068672 -2.688296 10.136744 0 10.136744 
z
" style="stroke: #000000"/>
    </defs>
    <g clip-path="url(#p2081303beb)">
     <use xlink:href="#m0e1235601d" x="337.905173" y="226.40274" style="stroke: #000000"/>
    </g>
   </g>
   <g id="line2d_2">
    <defs>
     <path id="mc16ca3826c" d="M 0 9.391779 
C 2.490729 9.391779 4.879779 8.402202 6.640991 6.640991 
C 8.402202 4.879779 9.391779 2.490729 9.391779 0 
C 9.391779 -2.490729 8.402202 -4.879779 6.640991 -6.640991 
C 4.879779 -8.402202 2.490729 -9.391779 0 -9.391779 
C -2.490729 -9.391779 -4.879779 -8.402202 -6.640991 -6.640991 
C -8.402202 -4.879779 -9.391779 -2.490729 -9.391779 0 
C -9.391779 2.490729 -8.402202 4.879779 -6.640991 6.640991 
C -4.879779 8.402202 -2.490729 9.391779 0 9.391779 
z
" style="stroke: #000000"/>
    </defs>
    <g clip-path="url(#p2081303beb)">
     <use xlink:href="#mc16ca3826c" x="349.165748" y="145.545916" style="stroke: #000000"/>
    </g>
   </g>
   <g id="line2d_3">
    <defs>
     <path id="m7cce67f6f7" d="M 0 9.306468 
C 2.468104 9.306468 4.835454 8.32588 6.580667 6.580667 
C 8.32588 4.835454 9.306468 2.468104 9.306468 0 
C 9.306468 -2.468104 8.32588 -4.835454 6.580667 -6.580667 
C 4.835454 -8.32588 2.468104 -9.306468 0 -9.306468 
C -2.468104 -9.306468 -4.835454 -8.32588 -6.580667 -6.580667 
C -8.32588 -4.835454 -9.306468 -2.468104 -9.306468 0 
C -9.306468 2.468104 -8.32588 4.835454 -6.580667 6.580667 
C -4.835454 8.32588 -2.468104 9.306468 0 9.306468 
z
" style="stroke: #000000"/>
    </defs>
    <g clip-path="url(#p2081303beb)">
     <use xlink:href="#m7cce67f6f7" x="335.523909" y="140.414339" style="stroke: #000000"/>
    </g>
   </g>
   <g id="line2d_4">
    <defs>
     <path id="me73b257df7" d="M 0 9.159598 
C 2.429154 9.159598 4.759143 8.194485 6.476814 6.476814 
C 8.194485 4.759143 9.159598 2.429154 9.159598 0 
C 9.159598 -2.429154 8.194485 -4.759143 6.476814 -6.476814 
C 4.759143 -8.194485 2.429154 -9.159598 0 -9.159598 
C -2.429154 -9.159598 -4.759143 -8.194485 -6.476814 -6.476814 
C -8.194485 -4.759143 -9.159598 -2.429154 -9.159598 0 
C -9.159598 2.429154 -8.194485 4.759143 -6.476814 6.476814 
C -4.759143 8.194485 -2.429154 9.159598 0 9.159598 
z
" style="stroke: #000000"/>
    </defs>
    <g clip-path="url(#p2081303beb)">
     <use xlink:href="#me73b257df7" x="478.488998" y="167.742581" style="stroke: #000000"/>
    </g>
   </g>
   <g id="line2d_5">
    <defs>
     <path id="m007738164c" d="M 0 8.763937 
C 2.324223 8.763937 4.553565 7.840513 6.197039 6.197039 
C 7.840513 4.553565 8.763937 2.324223 8.763937 0 
C 8.763937 -2.324223 7.840513 -4.553565 6.197039 -6.197039 
C 4.553565 -7.840513 2.324223 -8.763937 0 -8.763937 
C -2.324223 -8.763937 -4.553565 -7.840513 -6.197039 -6.197039 
C -7.840513 -4.553565 -8.763937 -2.324223 -8.763937 0 
C -8.763937 2.324223 -7.840513 4.553565 -6.197039 6.197039 
C -4.553565 7.840513 -2.324223 8.763937 0 8.763937 
z
" style="stroke: #000000"/>
    </defs>
    <g clip-path="url(#p2081303beb)">
     <use xlink:href="#m007738164c" x="343.038585" y="194.595284" style="stroke: #000000"/>
    </g>
   </g>
   <g id="line2d_6">
    <defs>
     <path id="mcce7c53194" d="M 0 8.590367 
C 2.278192 8.590367 4.463382 7.685232 6.074307 6.074307 
C 7.685232 4.463382 8.590367 2.278192 8.590367 0 
C 8.590367 -2.278192 7.685232 -4.463382 6.074307 -6.074307 
C 4.463382 -7.685232 2.278192 -8.590367 0 -8.590367 
C -2.278192 -8.590367 -4.463382 -7.685232 -6.074307 -6.074307 
C -7.685232 -4.463382 -8.590367 -2.278192 -8.590367 0 
C -8.590367 2.278192 -7.685232 4.463382 -6.074307 6.074307 
C -4.463382 7.685232 -2.278192 8.590367 0 8.590367 
z
" style="stroke: #000000"/>
    </defs>
    <g clip-path="url(#p2081303beb)">
     <use xlink:href="#mcce7c53194" x="324.909401" y="131.440487" style="stroke: #000000"/>
    </g>
   </g>
   <g id="line2d_7">
    <defs>
     <path id="mf73849577d" d="M 0 8.439343 
C 2.23814 8.439343 4.384913 7.55012 5.967517 5.967517 
C 7.55012 4.384913 8.439343 2.23814 8.439343 0 
C 8.439343 -2.23814 7.55012 -4.384913 5.967517 -5.967517 
C 4.384913 -7.55012 2.23814 -8.439343 0 -8.439343 
C -2.23814 -8.439343 -4.384913 -7.55012 -5.967517 -5.967517 
C -7.55012 -4.384913 -8.439343 -2.23814 -8.439343 0 
C -8.439343 2.23814 -7.55012 4.384913 -5.967517 5.967517 
C -4.384913 7.55012 -2.23814 8.439343 0 8.439343 
z
" style="stroke: #000000"/>
    </defs>
    <g clip-path="url(#p2081303beb)">
     <use xlink:href="#mf73849577d" x="336.409391" y="132.124358" style="stroke: #000000"/>
    </g>
   </g>
   <g id="line2d_8">
    <defs>
     <path id="m7977034e1b" d="M 0 8.395314 
C 2.226463 8.395314 4.362036 7.510731 5.936384 5.936384 
C 7.510731 4.362036 8.395314 2.226463 8.395314 0 
C 8.395314 -2.226463 7.510731 -4.362036 5.936384 -5.936384 
C 4.362036 -7.510731 2.226463 -8.395314 0 -8.395314 
C -2.226463 -8.395314 -4.362036 -7.510731 -5.936384 -5.936384 
C -7.510731 -4.362036 -8.395314 -2.226463 -8.395314 0 
C -8.395314 2.226463 -7.510731 4.362036 -5.936384 5.936384 
C -4.362036 7.510731 -2.226463 8.395314 0 8.395314 
z
" style="stroke: #000000"/>
    </defs>
    <g clip-path="url(#p2081303beb)">
     <use xlink:href="#m7977034e1b" x="342.077379" y="151.396161" style="stroke: #000000"/>
    </g>
   </g>
   <g id="line2d_9">
    <defs>
     <path id="m48a49cdc55" d="M 0 8.368333 
C 2.219308 8.368333 4.348017 7.486593 5.917305 5.917305 
C 7.486593 4.348017 8.368333 2.219308 8.368333 0 
C 8.368333 -2.219308 7.486593 -4.348017 5.917305 -5.917305 
C 4.348017 -7.486593 2.219308 -8.368333 0 -8.368333 
C -2.219308 -8.368333 -4.348017 -7.486593 -5.917305 -5.917305 
C -7.486593 -4.348017 -8.368333 -2.219308 -8.368333 0 
C -8.368333 2.219308 -7.486593 4.348017 -5.917305 5.917305 
C -4.348017 7.486593 -2.219308 8.368333 0 8.368333 
z
" style="stroke: #000000"/>
    </defs>
    <g clip-path="url(#p2081303beb)">
     <use xlink:href="#m48a49cdc55" x="259.511002" y="307.8" style="stroke: #000000"/>
    </g>
   </g>
   <g id="line2d_10">
    <defs>
     <path id="m582f200add" d="M 0 8.237241 
C 2.184542 8.237241 4.279905 7.369313 5.824609 5.824609 
C 7.369313 4.279905 8.237241 2.184542 8.237241 0 
C 8.237241 -2.184542 7.369313 -4.279905 5.824609 -5.824609 
C 4.279905 -7.369313 2.184542 -8.237241 0 -8.237241 
C -2.184542 -8.237241 -4.279905 -7.369313 -5.824609 -5.824609 
C -7.369313 -4.279905 -8.237241 -2.184542 -8.237241 0 
C -8.237241 2.184542 -7.369313 4.279905 -5.824609 5.824609 
C -4.279905 7.369313 -2.184542 8.237241 0 8.237241 
z
" style="stroke: #000000"/>
    </defs>
    <g clip-path="url(#p2081303beb)">
     <use xlink:href="#m582f200add" x="431.14857" y="55.8" style="stroke: #000000"/>
    </g>
   </g>
  </g>
 </g>
 <defs>
  <clipPath id="p2081303beb">
   <path d="M 248.562102 320.4 
L 248.562102 43.2 
L 489.437898 43.2 
L 489.437898 320.4 
L 248.562102 320.4 
"/>
  </clipPath>
 </defs>
</svg>
