<?xml version="1.0" encoding="utf-8" standalone="no"?>
<!DOCTYPE svg PUBLIC "-//W3C//DTD SVG 1.1//EN"
  "http://www.w3.org/Graphics/SVG/1.1/DTD/svg11.dtd">
<svg xmlns:xlink="http://www.w3.org/1999/xlink" width="720pt" height="360pt" viewBox="0 0 720 360" xmlns="http://www.w3.org/2000/svg" version="1.1">
 <metadata>
  <rdf:RDF xmlns:dc="http://purl.org/dc/elements/1.1/" xmlns:cc="http://creativecommons.org/ns#" xmlns:rdf="http://www.w3.org/1999/02/22-rdf-syntax-ns#">
   <cc:Work>
    <dc:type rdf:resource="http://purl.org/dc/dcmitype/StillImage"/>
    <dc:date>2023-11-30T21:30:47.782333</dc:date>
    <dc:format>image/svg+xml</dc:format>
    <dc:creator>
     <cc:Agent>
      <dc:title>Matplotlib v3.8.1, https://matplotlib.org/</dc:title>
     </cc:Agent>
    </dc:creator>
   </cc:Work>
  </rdf:RDF>
 </metadata>
 <defs>
  <style type="text/css">*{stroke-linejoin: round; stroke-linecap: butt}</style>
 </defs>
 <g id="figure_1">
  <g id="patch_1">
   <path d="M 0 360 
L 720 360 
L 720 0 
L 0 0 
z
" style="fill: #ffffff"/>
  </g>
  <g id="axes_1">
   <g id="patch_2">
    <path d="M 175.126173 320.4 
L 175.126173 43.2 
L 562.873827 43.2 
L 562.873827 320.4 
L 175.126173 320.4 
" style="fill: #ffffff"/>
   </g>
   <g id="line2d_1">
    <defs>
     <path id="ma36885dc7f" d="M 0 10.278566 
C 2.725908 10.278566 5.340536 9.195552 7.268044 7.268044 
C 9.195552 5.340536 10.278566 2.725908 10.278566 0 
C 10.278566 -2.725908 9.195552 -5.340536 7.268044 -7.268044 
C 5.340536 -9.195552 2.725908 -10.278566 0 -10.278566 
C -2.725908 -10.278566 -5.340536 -9.195552 -7.268044 -7.268044 
C -9.195552 -5.340536 -10.278566 -2.725908 -10.278566 0 
C -10.278566 2.725908 -9.195552 5.340536 -7.268044 7.268044 
C -5.340536 9.195552 -2.725908 10.278566 0 10.278566 
z
" style="stroke: #000000"/>
    </defs>
    <g clip-path="url(#pcd7b47fe1d)">
     <use xlink:href="#ma36885dc7f" x="405.760838" y="97.257887" style="stroke: #000000"/>
    </g>
   </g>
   <g id="line2d_2">
    <defs>
     <path id="me52b4e01c2" d="M 0 10.097505 
C 2.67789 10.097505 5.24646 9.033568 7.140014 7.140014 
C 9.033568 5.24646 10.097505 2.67789 10.097505 0 
C 10.097505 -2.67789 9.033568 -5.24646 7.140014 -7.140014 
C 5.24646 -9.033568 2.67789 -10.097505 0 -10.097505 
C -2.67789 -10.097505 -5.24646 -9.033568 -7.140014 -7.140014 
C -9.033568 -5.24646 -10.097505 -2.67789 -10.097505 0 
C -10.097505 2.67789 -9.033568 5.24646 -7.140014 7.140014 
C -5.24646 9.033568 -2.67789 10.097505 0 10.097505 
z
" style="stroke: #000000"/>
    </defs>
    <g clip-path="url(#pcd7b47fe1d)">
     <use xlink:href="#me52b4e01c2" x="192.751067" y="307.8" style="stroke: #000000"/>
    </g>
   </g>
   <g id="line2d_3">
    <defs>
     <path id="mb696f496fc" d="M 0 9.251006 
C 2.453395 9.251006 4.806637 8.276262 6.541449 6.541449 
C 8.276262 4.806637 9.251006 2.453395 9.251006 0 
C 9.251006 -2.453395 8.276262 -4.806637 6.541449 -6.541449 
C 4.806637 -8.276262 2.453395 -9.251006 0 -9.251006 
C -2.453395 -9.251006 -4.806637 -8.276262 -6.541449 -6.541449 
C -8.276262 -4.806637 -9.251006 -2.453395 -9.251006 0 
C -9.251006 2.453395 -8.276262 4.806637 -6.541449 6.541449 
C -4.806637 8.276262 -2.453395 9.251006 0 9.251006 
z
" style="stroke: #000000"/>
    </defs>
    <g clip-path="url(#pcd7b47fe1d)">
     <use xlink:href="#mb696f496fc" x="407.673583" y="113.925383" style="stroke: #000000"/>
    </g>
   </g>
   <g id="line2d_4">
    <defs>
     <path id="m3bca51c74b" d="M 0 8.889151 
C 2.35743 8.889151 4.618624 7.952534 6.285579 6.285579 
C 7.952534 4.618624 8.889151 2.35743 8.889151 0 
C 8.889151 -2.35743 7.952534 -4.618624 6.285579 -6.285579 
C 4.618624 -7.952534 2.35743 -8.889151 0 -8.889151 
C -2.35743 -8.889151 -4.618624 -7.952534 -6.285579 -6.285579 
C -7.952534 -4.618624 -8.889151 -2.35743 -8.889151 0 
C -8.889151 2.35743 -7.952534 4.618624 -6.285579 6.285579 
C -4.618624 7.952534 -2.35743 8.889151 0 8.889151 
z
" style="stroke: #000000"/>
    </defs>
    <g clip-path="url(#pcd7b47fe1d)">
     <use xlink:href="#m3bca51c74b" x="545.248933" y="200.511258" style="stroke: #000000"/>
    </g>
   </g>
   <g id="line2d_5">
    <defs>
     <path id="m70ea38e10c" d="M 0 8.6357 
C 2.290214 8.6357 4.486936 7.725788 6.106362 6.106362 
C 7.725788 4.486936 8.6357 2.290214 8.6357 0 
C 8.6357 -2.290214 7.725788 -4.486936 6.106362 -6.106362 
C 4.486936 -7.725788 2.290214 -8.6357 0 -8.6357 
C -2.290214 -8.6357 -4.486936 -7.725788 -6.106362 -6.106362 
C -7.725788 -4.486936 -8.6357 -2.290214 -8.6357 0 
C -8.6357 2.290214 -7.725788 4.486936 -6.106362 6.106362 
C -4.486936 7.725788 -2.290214 8.6357 0 8.6357 
z
" style="stroke: #000000"/>
    </defs>
    <g clip-path="url(#pcd7b47fe1d)">
     <use xlink:href="#m70ea38e10c" x="299.111074" y="244.020804" style="stroke: #000000"/>
    </g>
   </g>
   <g id="line2d_6">
    <defs>
     <path id="m03d8ae420a" d="M 0 8.45562 
C 2.242457 8.45562 4.39337 7.564682 5.979026 5.979026 
C 7.564682 4.39337 8.45562 2.242457 8.45562 0 
C 8.45562 -2.242457 7.564682 -4.39337 5.979026 -5.979026 
C 4.39337 -7.564682 2.242457 -8.45562 0 -8.45562 
C -2.242457 -8.45562 -4.39337 -7.564682 -5.979026 -5.979026 
C -7.564682 -4.39337 -8.45562 -2.242457 -8.45562 0 
C -8.45562 2.242457 -7.564682 4.39337 -5.979026 5.979026 
C -4.39337 7.564682 -2.242457 8.45562 0 8.45562 
z
" style="stroke: #000000"/>
    </defs>
    <g clip-path="url(#pcd7b47fe1d)">
     <use xlink:href="#m03d8ae420a" x="413.878362" y="102.866405" style="stroke: #000000"/>
    </g>
   </g>
   <g id="line2d_7">
    <defs>
     <path id="m43c455aa5c" d="M 0 8.435519 
C 2.237126 8.435519 4.382926 7.5467 5.964813 5.964813 
C 7.5467 4.382926 8.435519 2.237126 8.435519 0 
C 8.435519 -2.237126 7.5467 -4.382926 5.964813 -5.964813 
C 4.382926 -7.5467 2.237126 -8.435519 0 -8.435519 
C -2.237126 -8.435519 -4.382926 -7.5467 -5.964813 -5.964813 
C -7.5467 -4.382926 -8.435519 -2.237126 -8.435519 0 
C -8.435519 2.237126 -7.5467 4.382926 -5.964813 5.964813 
C -4.382926 7.5467 -2.237126 8.435519 0 8.435519 
z
" style="stroke: #000000"/>
    </defs>
    <g clip-path="url(#pcd7b47fe1d)">
     <use xlink:href="#m43c455aa5c" x="298.954984" y="196.649414" style="stroke: #000000"/>
    </g>
   </g>
   <g id="line2d_8">
    <defs>
     <path id="m3ffb30d7ef" d="M 0 8.413752 
C 2.231353 8.413752 4.371616 7.527226 5.949421 5.949421 
C 7.527226 4.371616 8.413752 2.231353 8.413752 0 
C 8.413752 -2.231353 7.527226 -4.371616 5.949421 -5.949421 
C 4.371616 -7.527226 2.231353 -8.413752 0 -8.413752 
C -2.231353 -8.413752 -4.371616 -7.527226 -5.949421 -5.949421 
C -7.527226 -4.371616 -8.413752 -2.231353 -8.413752 0 
C -8.413752 2.231353 -7.527226 4.371616 -5.949421 5.949421 
C -4.371616 7.527226 -2.231353 8.413752 0 8.413752 
z
" style="stroke: #000000"/>
    </defs>
    <g clip-path="url(#pcd7b47fe1d)">
     <use xlink:href="#m3ffb30d7ef" x="307.620116" y="142.843248" style="stroke: #000000"/>
    </g>
   </g>
   <g id="line2d_9">
    <defs>
     <path id="m43f9ac138e" d="M 0 8.260831 
C 2.190798 8.260831 4.292161 7.390418 5.84129 5.84129 
C 7.390418 4.292161 8.260831 2.190798 8.260831 0 
C 8.260831 -2.190798 7.390418 -4.292161 5.84129 -5.84129 
C 4.292161 -7.390418 2.190798 -8.260831 0 -8.260831 
C -2.190798 -8.260831 -4.292161 -7.390418 -5.84129 -5.84129 
C -7.390418 -4.292161 -8.260831 -2.190798 -8.260831 0 
C -8.260831 2.190798 -7.390418 4.292161 -5.84129 5.84129 
C -4.292161 7.390418 -2.190798 8.260831 0 8.260831 
z
" style="stroke: #000000"/>
    </defs>
    <g clip-path="url(#pcd7b47fe1d)">
     <use xlink:href="#m43f9ac138e" x="422.26236" y="102.841186" style="stroke: #000000"/>
    </g>
   </g>
   <g id="line2d_10">
    <defs>
     <path id="mefdb287432" d="M 0 8.23521 
C 2.184003 8.23521 4.278849 7.367497 5.823173 5.823173 
C 7.367497 4.278849 8.23521 2.184003 8.23521 0 
C 8.23521 -2.184003 7.367497 -4.278849 5.823173 -5.823173 
C 4.278849 -7.367497 2.184003 -8.23521 0 -8.23521 
C -2.184003 -8.23521 -4.278849 -7.367497 -5.823173 -5.823173 
C -7.367497 -4.278849 -8.23521 -2.184003 -8.23521 0 
C -8.23521 2.184003 -7.367497 4.278849 -5.823173 5.823173 
C -4.278849 7.367497 -2.184003 8.23521 0 8.23521 
z
" style="stroke: #000000"/>
    </defs>
    <g clip-path="url(#pcd7b47fe1d)">
     <use xlink:href="#mefdb287432" x="332.168447" y="55.8" style="stroke: #000000"/>
    </g>
   </g>
  </g>
 </g>
 <defs>
  <clipPath id="pcd7b47fe1d">
   <path d="M 175.126173 320.4 
L 175.126173 43.2 
L 562.873827 43.2 
L 562.873827 320.4 
L 175.126173 320.4 
"/>
  </clipPath>
 </defs>
</svg>
